<?xml version="1.0" encoding="utf-8" standalone="no"?>
<!DOCTYPE svg PUBLIC "-//W3C//DTD SVG 1.1//EN"
  "http://www.w3.org/Graphics/SVG/1.1/DTD/svg11.dtd">
<svg xmlns:xlink="http://www.w3.org/1999/xlink" width="1296pt" height="1008pt" viewBox="0 0 1296 1008" xmlns="http://www.w3.org/2000/svg" version="1.1">
 <metadata>
  <rdf:RDF xmlns:dc="http://purl.org/dc/elements/1.1/" xmlns:cc="http://creativecommons.org/ns#" xmlns:rdf="http://www.w3.org/1999/02/22-rdf-syntax-ns#">
   <cc:Work>
    <dc:type rdf:resource="http://purl.org/dc/dcmitype/StillImage"/>
    <dc:date>2025-07-14T05:41:15.735323</dc:date>
    <dc:format>image/svg+xml</dc:format>
    <dc:creator>
     <cc:Agent>
      <dc:title>Matplotlib v3.10.3, https://matplotlib.org/</dc:title>
     </cc:Agent>
    </dc:creator>
   </cc:Work>
  </rdf:RDF>
 </metadata>
 <defs>
  <style type="text/css">*{stroke-linejoin: round; stroke-linecap: butt}</style>
 </defs>
 <g id="figure_1">
  <g id="patch_1">
   <path d="M 0 1008 
L 1296 1008 
L 1296 0 
L 0 0 
z
" style="fill: #ffffff"/>
  </g>
  <g id="patch_2">
   <path d="M 164.64 997.2 
L 1131.36 997.2 
L 1131.36 30.48 
L 164.64 30.48 
z
" style="fill: #ffffff"/>
  </g>
  <g id="pane3d_1">
   <g id="patch_3">
    <path d="M 661.063784 524.082082 
L 229.328797 708.286308 
L 212.724536 285.285415 
L 661.063784 125.027125 
" style="fill: #f2f2f2; opacity: 0.5; stroke: #f2f2f2; stroke-linejoin: miter"/>
   </g>
  </g>
  <g id="pane3d_2">
   <g id="patch_4">
    <path d="M 1092.798771 708.286308 
L 661.063784 524.082082 
L 661.063784 125.027125 
L 1109.403032 285.285415 
" style="fill: #e6e6e6; opacity: 0.5; stroke: #e6e6e6; stroke-linejoin: miter"/>
   </g>
  </g>
  <g id="pane3d_3">
   <g id="patch_5">
    <path d="M 1092.798771 708.286308 
L 661.063784 524.082082 
L 229.328797 708.286308 
L 661.063784 922.309689 
" style="fill: #ececec; opacity: 0.5; stroke: #ececec; stroke-linejoin: miter"/>
   </g>
  </g>
  <g id="grid3d_1">
   <g id="Line3DCollection_1">
    <path d="M 596.545137 890.32595 
L 1028.588075 680.890146 
L 1042.570813 261.396324 
" style="fill: none; stroke: #b0b0b0; stroke-width: 0.8"/>
    <path d="M 524.768245 854.744092 
L 957.02711 650.357915 
L 968.150938 234.795035 
" style="fill: none; stroke: #b0b0b0; stroke-width: 0.8"/>
    <path d="M 454.776193 820.04703 
L 887.116792 620.529951 
L 895.511403 208.830126 
" style="fill: none; stroke: #b0b0b0; stroke-width: 0.8"/>
    <path d="M 386.503227 786.202168 
L 818.800662 591.382163 
L 824.589075 183.479031 
" style="fill: none; stroke: #b0b0b0; stroke-width: 0.8"/>
    <path d="M 319.88678 753.17849 
L 752.024805 562.891548 
L 755.323775 158.720238 
" style="fill: none; stroke: #b0b0b0; stroke-width: 0.8"/>
    <path d="M 254.867286 720.946467 
L 686.737711 535.03613 
L 687.6581 134.533229 
" style="fill: none; stroke: #b0b0b0; stroke-width: 0.8"/>
   </g>
  </g>
  <g id="grid3d_2">
   <g id="Line3DCollection_2">
    <path d="M 659.78879 125.48287 
L 659.832729 524.607324 
L 1091.574599 708.893164 
" style="fill: none; stroke: #b0b0b0; stroke-width: 0.8"/>
    <path d="M 614.909913 141.524767 
L 616.512435 543.090379 
L 1048.471572 730.260568 
" style="fill: none; stroke: #b0b0b0; stroke-width: 0.8"/>
    <path d="M 569.32706 157.8183 
L 572.536385 561.853218 
L 1004.666416 751.976037 
" style="fill: none; stroke: #b0b0b0; stroke-width: 0.8"/>
    <path d="M 523.023537 174.369435 
L 527.889578 580.902243 
L 960.141832 774.048146 
" style="fill: none; stroke: #b0b0b0; stroke-width: 0.8"/>
    <path d="M 475.982116 191.18433 
L 482.556548 600.244052 
L 914.879953 796.485754 
" style="fill: none; stroke: #b0b0b0; stroke-width: 0.8"/>
    <path d="M 428.185018 208.269342 
L 436.521353 619.885447 
L 868.86231 819.298016 
" style="fill: none; stroke: #b0b0b0; stroke-width: 0.8"/>
    <path d="M 379.613885 225.631031 
L 389.76755 639.833444 
L 822.069816 842.494394 
" style="fill: none; stroke: #b0b0b0; stroke-width: 0.8"/>
    <path d="M 330.249762 243.276173 
L 342.278183 660.095277 
L 774.482734 866.084671 
" style="fill: none; stroke: #b0b0b0; stroke-width: 0.8"/>
    <path d="M 280.073069 261.211768 
L 294.035753 680.678411 
L 726.080651 890.078968 
" style="fill: none; stroke: #b0b0b0; stroke-width: 0.8"/>
    <path d="M 229.063577 279.445046 
L 245.022207 701.590551 
L 676.842448 914.487754 
" style="fill: none; stroke: #b0b0b0; stroke-width: 0.8"/>
   </g>
  </g>
  <g id="grid3d_3">
   <g id="Line3DCollection_3">
    <path d="M 1093.818677 682.303752 
L 661.063784 499.508762 
L 228.308891 682.303752 
" style="fill: none; stroke: #b0b0b0; stroke-width: 0.8"/>
    <path d="M 1096.053966 625.358766 
L 661.063784 445.680618 
L 226.073601 625.358766 
" style="fill: none; stroke: #b0b0b0; stroke-width: 0.8"/>
    <path d="M 1098.312467 567.822456 
L 661.063784 391.332916 
L 223.815101 567.822456 
" style="fill: none; stroke: #b0b0b0; stroke-width: 0.8"/>
    <path d="M 1100.594543 509.685561 
L 661.063784 336.458097 
L 221.533025 509.685561 
" style="fill: none; stroke: #b0b0b0; stroke-width: 0.8"/>
    <path d="M 1102.900565 450.93863 
L 661.063784 281.048455 
L 219.227003 450.93863 
" style="fill: none; stroke: #b0b0b0; stroke-width: 0.8"/>
    <path d="M 1105.230912 391.57201 
L 661.063784 225.096133 
L 216.896656 391.57201 
" style="fill: none; stroke: #b0b0b0; stroke-width: 0.8"/>
    <path d="M 1107.585971 331.575843 
L 661.063784 168.593119 
L 214.541597 331.575843 
" style="fill: none; stroke: #b0b0b0; stroke-width: 0.8"/>
   </g>
  </g>
  <g id="axis3d_1">
   <g id="line2d_1">
    <path d="M 229.328797 708.286308 
L 661.063784 922.309689 
" style="fill: none; stroke: #000000; stroke-width: 0.8; stroke-linecap: square"/>
   </g>
   <g id="xtick_1">
    <g id="line2d_2">
     <path d="M 600.27572 888.517525 
L 589.069622 893.949758 
" style="fill: none; stroke: #000000; stroke-width: 0.8; stroke-linecap: square"/>
    </g>
    <g id="text_1">
     <!-- −0.5 -->
     <g transform="translate(573.794574 912.884094) scale(0.1 -0.1)">
      <defs>
       <path id="DejaVuSans-2212" d="M 678 2272 
L 4684 2272 
L 4684 1741 
L 678 1741 
L 678 2272 
z
" transform="scale(0.015625)"/>
       <path id="DejaVuSans-30" d="M 2034 4250 
Q 1547 4250 1301 3770 
Q 1056 3291 1056 2328 
Q 1056 1369 1301 889 
Q 1547 409 2034 409 
Q 2525 409 2770 889 
Q 3016 1369 3016 2328 
Q 3016 3291 2770 3770 
Q 2525 4250 2034 4250 
z
M 2034 4750 
Q 2819 4750 3233 4129 
Q 3647 3509 3647 2328 
Q 3647 1150 3233 529 
Q 2819 -91 2034 -91 
Q 1250 -91 836 529 
Q 422 1150 422 2328 
Q 422 3509 836 4129 
Q 1250 4750 2034 4750 
z
" transform="scale(0.015625)"/>
       <path id="DejaVuSans-2e" d="M 684 794 
L 1344 794 
L 1344 0 
L 684 0 
L 684 794 
z
" transform="scale(0.015625)"/>
       <path id="DejaVuSans-35" d="M 691 4666 
L 3169 4666 
L 3169 4134 
L 1269 4134 
L 1269 2991 
Q 1406 3038 1543 3061 
Q 1681 3084 1819 3084 
Q 2600 3084 3056 2656 
Q 3513 2228 3513 1497 
Q 3513 744 3044 326 
Q 2575 -91 1722 -91 
Q 1428 -91 1123 -41 
Q 819 9 494 109 
L 494 744 
Q 775 591 1075 516 
Q 1375 441 1709 441 
Q 2250 441 2565 725 
Q 2881 1009 2881 1497 
Q 2881 1984 2565 2268 
Q 2250 2553 1709 2553 
Q 1456 2553 1204 2497 
Q 953 2441 691 2322 
L 691 4666 
z
" transform="scale(0.015625)"/>
      </defs>
      <use xlink:href="#DejaVuSans-2212"/>
      <use xlink:href="#DejaVuSans-30" transform="translate(83.789062 0)"/>
      <use xlink:href="#DejaVuSans-2e" transform="translate(147.412109 0)"/>
      <use xlink:href="#DejaVuSans-35" transform="translate(179.199219 0)"/>
     </g>
    </g>
   </g>
   <g id="xtick_2">
    <g id="line2d_3">
     <path d="M 528.497239 852.980901 
L 517.296092 858.277171 
" style="fill: none; stroke: #000000; stroke-width: 0.8; stroke-linecap: square"/>
    </g>
    <g id="text_2">
     <!-- 0.0 -->
     <g transform="translate(506.275675 877.081235) scale(0.1 -0.1)">
      <use xlink:href="#DejaVuSans-30"/>
      <use xlink:href="#DejaVuSans-2e" transform="translate(63.623047 0)"/>
      <use xlink:href="#DejaVuSans-30" transform="translate(95.410156 0)"/>
     </g>
    </g>
   </g>
   <g id="xtick_3">
    <g id="line2d_4">
     <path d="M 458.502526 818.327397 
L 447.309551 823.492746 
" style="fill: none; stroke: #000000; stroke-width: 0.8; stroke-linecap: square"/>
    </g>
    <g id="text_3">
     <!-- 0.5 -->
     <g transform="translate(436.351688 842.169471) scale(0.1 -0.1)">
      <use xlink:href="#DejaVuSans-30"/>
      <use xlink:href="#DejaVuSans-2e" transform="translate(63.623047 0)"/>
      <use xlink:href="#DejaVuSans-35" transform="translate(95.410156 0)"/>
     </g>
    </g>
   </g>
   <g id="xtick_4">
    <g id="line2d_5">
     <path d="M 390.225904 784.524499 
L 379.044082 789.563721 
" style="fill: none; stroke: #000000; stroke-width: 0.8; stroke-linecap: square"/>
    </g>
    <g id="text_4">
     <!-- 1.0 -->
     <g transform="translate(368.146644 808.115943) scale(0.1 -0.1)">
      <defs>
       <path id="DejaVuSans-31" d="M 794 531 
L 1825 531 
L 1825 4091 
L 703 3866 
L 703 4441 
L 1819 4666 
L 2450 4666 
L 2450 531 
L 3481 531 
L 3481 0 
L 794 0 
L 794 531 
z
" transform="scale(0.015625)"/>
      </defs>
      <use xlink:href="#DejaVuSans-31"/>
      <use xlink:href="#DejaVuSans-2e" transform="translate(63.623047 0)"/>
      <use xlink:href="#DejaVuSans-30" transform="translate(95.410156 0)"/>
     </g>
    </g>
   </g>
   <g id="xtick_5">
    <g id="line2d_6">
     <path d="M 323.604881 751.541268 
L 312.436971 756.458927 
" style="fill: none; stroke: #000000; stroke-width: 0.8; stroke-linecap: square"/>
    </g>
    <g id="text_5">
     <!-- 1.5 -->
     <g transform="translate(301.597926 774.88939) scale(0.1 -0.1)">
      <use xlink:href="#DejaVuSans-31"/>
      <use xlink:href="#DejaVuSans-2e" transform="translate(63.623047 0)"/>
      <use xlink:href="#DejaVuSans-35" transform="translate(95.410156 0)"/>
     </g>
    </g>
   </g>
   <g id="xtick_6">
    <g id="line2d_7">
     <path d="M 258.57996 719.348246 
L 247.428514 724.148688 
" style="fill: none; stroke: #000000; stroke-width: 0.8; stroke-linecap: square"/>
    </g>
    <g id="text_6">
     <!-- 2.0 -->
     <g transform="translate(236.645926 742.460047) scale(0.1 -0.1)">
      <defs>
       <path id="DejaVuSans-32" d="M 1228 531 
L 3431 531 
L 3431 0 
L 469 0 
L 469 531 
Q 828 903 1448 1529 
Q 2069 2156 2228 2338 
Q 2531 2678 2651 2914 
Q 2772 3150 2772 3378 
Q 2772 3750 2511 3984 
Q 2250 4219 1831 4219 
Q 1534 4219 1204 4116 
Q 875 4013 500 3803 
L 500 4441 
Q 881 4594 1212 4672 
Q 1544 4750 1819 4750 
Q 2544 4750 2975 4387 
Q 3406 4025 3406 3419 
Q 3406 3131 3298 2873 
Q 3191 2616 2906 2266 
Q 2828 2175 2409 1742 
Q 1991 1309 1228 531 
z
" transform="scale(0.015625)"/>
      </defs>
      <use xlink:href="#DejaVuSans-32"/>
      <use xlink:href="#DejaVuSans-2e" transform="translate(63.623047 0)"/>
      <use xlink:href="#DejaVuSans-30" transform="translate(95.410156 0)"/>
     </g>
    </g>
   </g>
   <g id="text_7">
    <!-- X (m) -->
    <g transform="translate(395.039199 837.512161) rotate(-333.63107) scale(0.14 -0.14)">
     <defs>
      <path id="DejaVuSans-58" d="M 403 4666 
L 1081 4666 
L 2241 2931 
L 3406 4666 
L 4084 4666 
L 2584 2425 
L 4184 0 
L 3506 0 
L 2194 1984 
L 872 0 
L 191 0 
L 1856 2491 
L 403 4666 
z
" transform="scale(0.015625)"/>
      <path id="DejaVuSans-20" transform="scale(0.015625)"/>
      <path id="DejaVuSans-28" d="M 1984 4856 
Q 1566 4138 1362 3434 
Q 1159 2731 1159 2009 
Q 1159 1288 1364 580 
Q 1569 -128 1984 -844 
L 1484 -844 
Q 1016 -109 783 600 
Q 550 1309 550 2009 
Q 550 2706 781 3412 
Q 1013 4119 1484 4856 
L 1984 4856 
z
" transform="scale(0.015625)"/>
      <path id="DejaVuSans-6d" d="M 3328 2828 
Q 3544 3216 3844 3400 
Q 4144 3584 4550 3584 
Q 5097 3584 5394 3201 
Q 5691 2819 5691 2113 
L 5691 0 
L 5113 0 
L 5113 2094 
Q 5113 2597 4934 2840 
Q 4756 3084 4391 3084 
Q 3944 3084 3684 2787 
Q 3425 2491 3425 1978 
L 3425 0 
L 2847 0 
L 2847 2094 
Q 2847 2600 2669 2842 
Q 2491 3084 2119 3084 
Q 1678 3084 1418 2786 
Q 1159 2488 1159 1978 
L 1159 0 
L 581 0 
L 581 3500 
L 1159 3500 
L 1159 2956 
Q 1356 3278 1631 3431 
Q 1906 3584 2284 3584 
Q 2666 3584 2933 3390 
Q 3200 3197 3328 2828 
z
" transform="scale(0.015625)"/>
      <path id="DejaVuSans-29" d="M 513 4856 
L 1013 4856 
Q 1481 4119 1714 3412 
Q 1947 2706 1947 2009 
Q 1947 1309 1714 600 
Q 1481 -109 1013 -844 
L 513 -844 
Q 928 -128 1133 580 
Q 1338 1288 1338 2009 
Q 1338 2731 1133 3434 
Q 928 4138 513 4856 
z
" transform="scale(0.015625)"/>
     </defs>
     <use xlink:href="#DejaVuSans-58"/>
     <use xlink:href="#DejaVuSans-20" transform="translate(68.505859 0)"/>
     <use xlink:href="#DejaVuSans-28" transform="translate(100.292969 0)"/>
     <use xlink:href="#DejaVuSans-6d" transform="translate(139.306641 0)"/>
     <use xlink:href="#DejaVuSans-29" transform="translate(236.71875 0)"/>
    </g>
   </g>
  </g>
  <g id="axis3d_2">
   <g id="line2d_8">
    <path d="M 1092.798771 708.286308 
L 661.063784 922.309689 
" style="fill: none; stroke: #000000; stroke-width: 0.8; stroke-linecap: square"/>
   </g>
   <g id="xtick_7">
    <g id="line2d_9">
     <path d="M 1087.864199 707.309407 
L 1099.008756 712.066379 
" style="fill: none; stroke: #000000; stroke-width: 0.8; stroke-linecap: square"/>
    </g>
    <g id="text_8">
     <!-- −0.25 -->
     <g transform="translate(1086.49615 730.333131) scale(0.1 -0.1)">
      <use xlink:href="#DejaVuSans-2212"/>
      <use xlink:href="#DejaVuSans-30" transform="translate(83.789062 0)"/>
      <use xlink:href="#DejaVuSans-2e" transform="translate(147.412109 0)"/>
      <use xlink:href="#DejaVuSans-32" transform="translate(179.199219 0)"/>
      <use xlink:href="#DejaVuSans-35" transform="translate(242.822266 0)"/>
     </g>
    </g>
   </g>
   <g id="xtick_8">
    <g id="line2d_10">
     <path d="M 1044.757233 728.651125 
L 1055.913729 733.485294 
" style="fill: none; stroke: #000000; stroke-width: 0.8; stroke-linecap: square"/>
    </g>
    <g id="text_9">
     <!-- 0.00 -->
     <g transform="translate(1047.628202 751.831097) scale(0.1 -0.1)">
      <use xlink:href="#DejaVuSans-30"/>
      <use xlink:href="#DejaVuSans-2e" transform="translate(63.623047 0)"/>
      <use xlink:href="#DejaVuSans-30" transform="translate(95.410156 0)"/>
      <use xlink:href="#DejaVuSans-30" transform="translate(159.033203 0)"/>
     </g>
    </g>
   </g>
   <g id="xtick_9">
    <g id="line2d_11">
     <path d="M 1000.9485 750.340278 
L 1012.115847 755.253538 
" style="fill: none; stroke: #000000; stroke-width: 0.8; stroke-linecap: square"/>
    </g>
    <g id="text_10">
     <!-- 0.25 -->
     <g transform="translate(1003.868401 773.679563) scale(0.1 -0.1)">
      <use xlink:href="#DejaVuSans-30"/>
      <use xlink:href="#DejaVuSans-2e" transform="translate(63.623047 0)"/>
      <use xlink:href="#DejaVuSans-32" transform="translate(95.410156 0)"/>
      <use xlink:href="#DejaVuSans-35" transform="translate(159.033203 0)"/>
     </g>
    </g>
   </g>
   <g id="xtick_10">
    <g id="line2d_12">
     <path d="M 956.420724 772.385421 
L 967.597773 777.37973 
" style="fill: none; stroke: #000000; stroke-width: 0.8; stroke-linecap: square"/>
    </g>
    <g id="text_11">
     <!-- 0.50 -->
     <g transform="translate(959.389281 795.887172) scale(0.1 -0.1)">
      <use xlink:href="#DejaVuSans-30"/>
      <use xlink:href="#DejaVuSans-2e" transform="translate(63.623047 0)"/>
      <use xlink:href="#DejaVuSans-35" transform="translate(95.410156 0)"/>
      <use xlink:href="#DejaVuSans-30" transform="translate(159.033203 0)"/>
     </g>
    </g>
   </g>
   <g id="xtick_11">
    <g id="line2d_13">
     <path d="M 911.156054 794.79539 
L 922.341598 799.872769 
" style="fill: none; stroke: #000000; stroke-width: 0.8; stroke-linecap: square"/>
    </g>
    <g id="text_12">
     <!-- 0.75 -->
     <g transform="translate(914.172959 818.462852) scale(0.1 -0.1)">
      <defs>
       <path id="DejaVuSans-37" d="M 525 4666 
L 3525 4666 
L 3525 4397 
L 1831 0 
L 1172 0 
L 2766 4134 
L 525 4134 
L 525 4666 
z
" transform="scale(0.015625)"/>
      </defs>
      <use xlink:href="#DejaVuSans-30"/>
      <use xlink:href="#DejaVuSans-2e" transform="translate(63.623047 0)"/>
      <use xlink:href="#DejaVuSans-37" transform="translate(95.410156 0)"/>
      <use xlink:href="#DejaVuSans-35" transform="translate(159.033203 0)"/>
     </g>
    </g>
   </g>
   <g id="xtick_12">
    <g id="line2d_14">
     <path d="M 865.136047 817.579318 
L 876.32881 822.741858 
" style="fill: none; stroke: #000000; stroke-width: 0.8; stroke-linecap: square"/>
    </g>
    <g id="text_13">
     <!-- 1.00 -->
     <g transform="translate(868.200954 841.415831) scale(0.1 -0.1)">
      <use xlink:href="#DejaVuSans-31"/>
      <use xlink:href="#DejaVuSans-2e" transform="translate(63.623047 0)"/>
      <use xlink:href="#DejaVuSans-30" transform="translate(95.410156 0)"/>
      <use xlink:href="#DejaVuSans-30" transform="translate(159.033203 0)"/>
     </g>
    </g>
   </g>
   <g id="xtick_13">
    <g id="line2d_15">
     <path d="M 818.341635 840.746643 
L 829.540275 845.996504 
" style="fill: none; stroke: #000000; stroke-width: 0.8; stroke-linecap: square"/>
    </g>
    <g id="text_14">
     <!-- 1.25 -->
     <g transform="translate(821.454162 864.755646) scale(0.1 -0.1)">
      <use xlink:href="#DejaVuSans-31"/>
      <use xlink:href="#DejaVuSans-2e" transform="translate(63.623047 0)"/>
      <use xlink:href="#DejaVuSans-32" transform="translate(95.410156 0)"/>
      <use xlink:href="#DejaVuSans-35" transform="translate(159.033203 0)"/>
     </g>
    </g>
   </g>
   <g id="xtick_14">
    <g id="line2d_16">
     <path d="M 770.753107 864.307125 
L 781.95621 869.646542 
" style="fill: none; stroke: #000000; stroke-width: 0.8; stroke-linecap: square"/>
    </g>
    <g id="text_15">
     <!-- 1.50 -->
     <g transform="translate(773.91283 888.492161) scale(0.1 -0.1)">
      <use xlink:href="#DejaVuSans-31"/>
      <use xlink:href="#DejaVuSans-2e" transform="translate(63.623047 0)"/>
      <use xlink:href="#DejaVuSans-35" transform="translate(95.410156 0)"/>
      <use xlink:href="#DejaVuSans-30" transform="translate(159.033203 0)"/>
     </g>
    </g>
   </g>
   <g id="xtick_15">
    <g id="line2d_17">
     <path d="M 722.350075 888.270859 
L 733.55615 893.702142 
" style="fill: none; stroke: #000000; stroke-width: 0.8; stroke-linecap: square"/>
    </g>
    <g id="text_16">
     <!-- 1.75 -->
     <g transform="translate(725.556528 912.635576) scale(0.1 -0.1)">
      <use xlink:href="#DejaVuSans-31"/>
      <use xlink:href="#DejaVuSans-2e" transform="translate(63.623047 0)"/>
      <use xlink:href="#DejaVuSans-37" transform="translate(95.410156 0)"/>
      <use xlink:href="#DejaVuSans-35" transform="translate(159.033203 0)"/>
     </g>
    </g>
   </g>
   <g id="xtick_16">
    <g id="line2d_18">
     <path d="M 673.111447 912.648285 
L 684.318926 918.173827 
" style="fill: none; stroke: #000000; stroke-width: 0.8; stroke-linecap: square"/>
    </g>
    <g id="text_17">
     <!-- 2.00 -->
     <g transform="translate(676.364119 937.196443) scale(0.1 -0.1)">
      <use xlink:href="#DejaVuSans-32"/>
      <use xlink:href="#DejaVuSans-2e" transform="translate(63.623047 0)"/>
      <use xlink:href="#DejaVuSans-30" transform="translate(95.410156 0)"/>
      <use xlink:href="#DejaVuSans-30" transform="translate(159.033203 0)"/>
     </g>
    </g>
   </g>
   <g id="text_18">
    <!-- Y (m) -->
    <g transform="translate(892.969508 854.425856) rotate(-26.36893) scale(0.14 -0.14)">
     <defs>
      <path id="DejaVuSans-59" d="M -13 4666 
L 666 4666 
L 1959 2747 
L 3244 4666 
L 3922 4666 
L 2272 2222 
L 2272 0 
L 1638 0 
L 1638 2222 
L -13 4666 
z
" transform="scale(0.015625)"/>
     </defs>
     <use xlink:href="#DejaVuSans-59"/>
     <use xlink:href="#DejaVuSans-20" transform="translate(61.083984 0)"/>
     <use xlink:href="#DejaVuSans-28" transform="translate(92.871094 0)"/>
     <use xlink:href="#DejaVuSans-6d" transform="translate(131.884766 0)"/>
     <use xlink:href="#DejaVuSans-29" transform="translate(229.296875 0)"/>
    </g>
   </g>
  </g>
  <g id="axis3d_3">
   <g id="line2d_19">
    <path d="M 1092.798771 708.286308 
L 1109.403032 285.285415 
" style="fill: none; stroke: #000000; stroke-width: 0.8; stroke-linecap: square"/>
   </g>
   <g id="xtick_17">
    <g id="line2d_20">
     <path d="M 1090.099022 680.732576 
L 1101.271403 685.451772 
" style="fill: none; stroke: #000000; stroke-width: 0.8; stroke-linecap: square"/>
    </g>
    <g id="text_19">
     <!-- 0.0 -->
     <g transform="translate(1105.635461 689.902189) scale(0.1 -0.1)">
      <use xlink:href="#DejaVuSans-30"/>
      <use xlink:href="#DejaVuSans-2e" transform="translate(63.623047 0)"/>
      <use xlink:href="#DejaVuSans-30" transform="translate(95.410156 0)"/>
     </g>
    </g>
   </g>
   <g id="xtick_18">
    <g id="line2d_21">
     <path d="M 1092.313762 623.813828 
L 1103.547935 628.454244 
" style="fill: none; stroke: #000000; stroke-width: 0.8; stroke-linecap: square"/>
    </g>
    <g id="text_20">
     <!-- 0.2 -->
     <g transform="translate(1107.972859 632.957204) scale(0.1 -0.1)">
      <use xlink:href="#DejaVuSans-30"/>
      <use xlink:href="#DejaVuSans-2e" transform="translate(63.623047 0)"/>
      <use xlink:href="#DejaVuSans-32" transform="translate(95.410156 0)"/>
     </g>
    </g>
   </g>
   <g id="xtick_19">
    <g id="line2d_22">
     <path d="M 1094.551486 566.304386 
L 1105.848136 570.864127 
" style="fill: none; stroke: #000000; stroke-width: 0.8; stroke-linecap: square"/>
    </g>
    <g id="text_21">
     <!-- 0.4 -->
     <g transform="translate(1110.334529 575.420893) scale(0.1 -0.1)">
      <defs>
       <path id="DejaVuSans-34" d="M 2419 4116 
L 825 1625 
L 2419 1625 
L 2419 4116 
z
M 2253 4666 
L 3047 4666 
L 3047 1625 
L 3713 1625 
L 3713 1100 
L 3047 1100 
L 3047 0 
L 2419 0 
L 2419 1100 
L 313 1100 
L 313 1709 
L 2253 4666 
z
" transform="scale(0.015625)"/>
      </defs>
      <use xlink:href="#DejaVuSans-30"/>
      <use xlink:href="#DejaVuSans-2e" transform="translate(63.623047 0)"/>
      <use xlink:href="#DejaVuSans-34" transform="translate(95.410156 0)"/>
     </g>
    </g>
   </g>
   <g id="xtick_20">
    <g id="line2d_23">
     <path d="M 1096.812554 508.195007 
L 1108.172377 512.67213 
" style="fill: none; stroke: #000000; stroke-width: 0.8; stroke-linecap: square"/>
    </g>
    <g id="text_22">
     <!-- 0.6 -->
     <g transform="translate(1112.72085 517.283999) scale(0.1 -0.1)">
      <defs>
       <path id="DejaVuSans-36" d="M 2113 2584 
Q 1688 2584 1439 2293 
Q 1191 2003 1191 1497 
Q 1191 994 1439 701 
Q 1688 409 2113 409 
Q 2538 409 2786 701 
Q 3034 994 3034 1497 
Q 3034 2003 2786 2293 
Q 2538 2584 2113 2584 
z
M 3366 4563 
L 3366 3988 
Q 3128 4100 2886 4159 
Q 2644 4219 2406 4219 
Q 1781 4219 1451 3797 
Q 1122 3375 1075 2522 
Q 1259 2794 1537 2939 
Q 1816 3084 2150 3084 
Q 2853 3084 3261 2657 
Q 3669 2231 3669 1497 
Q 3669 778 3244 343 
Q 2819 -91 2113 -91 
Q 1303 -91 875 529 
Q 447 1150 447 2328 
Q 447 3434 972 4092 
Q 1497 4750 2381 4750 
Q 2619 4750 2861 4703 
Q 3103 4656 3366 4563 
z
" transform="scale(0.015625)"/>
      </defs>
      <use xlink:href="#DejaVuSans-30"/>
      <use xlink:href="#DejaVuSans-2e" transform="translate(63.623047 0)"/>
      <use xlink:href="#DejaVuSans-36" transform="translate(95.410156 0)"/>
     </g>
    </g>
   </g>
   <g id="xtick_21">
    <g id="line2d_24">
     <path d="M 1099.097333 449.476253 
L 1110.521036 453.868769 
" style="fill: none; stroke: #000000; stroke-width: 0.8; stroke-linecap: square"/>
    </g>
    <g id="text_23">
     <!-- 0.8 -->
     <g transform="translate(1115.132212 458.537068) scale(0.1 -0.1)">
      <defs>
       <path id="DejaVuSans-38" d="M 2034 2216 
Q 1584 2216 1326 1975 
Q 1069 1734 1069 1313 
Q 1069 891 1326 650 
Q 1584 409 2034 409 
Q 2484 409 2743 651 
Q 3003 894 3003 1313 
Q 3003 1734 2745 1975 
Q 2488 2216 2034 2216 
z
M 1403 2484 
Q 997 2584 770 2862 
Q 544 3141 544 3541 
Q 544 4100 942 4425 
Q 1341 4750 2034 4750 
Q 2731 4750 3128 4425 
Q 3525 4100 3525 3541 
Q 3525 3141 3298 2862 
Q 3072 2584 2669 2484 
Q 3125 2378 3379 2068 
Q 3634 1759 3634 1313 
Q 3634 634 3220 271 
Q 2806 -91 2034 -91 
Q 1263 -91 848 271 
Q 434 634 434 1313 
Q 434 1759 690 2068 
Q 947 2378 1403 2484 
z
M 1172 3481 
Q 1172 3119 1398 2916 
Q 1625 2713 2034 2713 
Q 2441 2713 2670 2916 
Q 2900 3119 2900 3481 
Q 2900 3844 2670 4047 
Q 2441 4250 2034 4250 
Q 1625 4250 1398 4047 
Q 1172 3844 1172 3481 
z
" transform="scale(0.015625)"/>
      </defs>
      <use xlink:href="#DejaVuSans-30"/>
      <use xlink:href="#DejaVuSans-2e" transform="translate(63.623047 0)"/>
      <use xlink:href="#DejaVuSans-38" transform="translate(95.410156 0)"/>
     </g>
    </g>
   </g>
   <g id="xtick_22">
    <g id="line2d_25">
     <path d="M 1101.406198 390.138489 
L 1112.894501 394.444358 
" style="fill: none; stroke: #000000; stroke-width: 0.8; stroke-linecap: square"/>
    </g>
    <g id="text_24">
     <!-- 1.0 -->
     <g transform="translate(1117.56901 399.170447) scale(0.1 -0.1)">
      <use xlink:href="#DejaVuSans-31"/>
      <use xlink:href="#DejaVuSans-2e" transform="translate(63.623047 0)"/>
      <use xlink:href="#DejaVuSans-30" transform="translate(95.410156 0)"/>
     </g>
    </g>
   </g>
   <g id="xtick_23">
    <g id="line2d_26">
     <path d="M 1103.739531 330.171874 
L 1115.293166 334.389006 
" style="fill: none; stroke: #000000; stroke-width: 0.8; stroke-linecap: square"/>
    </g>
    <g id="text_25">
     <!-- 1.2 -->
     <g transform="translate(1120.031648 339.174281) scale(0.1 -0.1)">
      <use xlink:href="#DejaVuSans-31"/>
      <use xlink:href="#DejaVuSans-2e" transform="translate(63.623047 0)"/>
      <use xlink:href="#DejaVuSans-32" transform="translate(95.410156 0)"/>
     </g>
    </g>
   </g>
   <g id="text_26">
    <!-- Z (m) -->
    <g transform="translate(1147.729669 520.213201) rotate(-87.752095) scale(0.14 -0.14)">
     <defs>
      <path id="DejaVuSans-5a" d="M 359 4666 
L 4025 4666 
L 4025 4184 
L 1075 531 
L 4097 531 
L 4097 0 
L 288 0 
L 288 481 
L 3238 4134 
L 359 4134 
L 359 4666 
z
" transform="scale(0.015625)"/>
     </defs>
     <use xlink:href="#DejaVuSans-5a"/>
     <use xlink:href="#DejaVuSans-20" transform="translate(68.505859 0)"/>
     <use xlink:href="#DejaVuSans-28" transform="translate(100.292969 0)"/>
     <use xlink:href="#DejaVuSans-6d" transform="translate(139.306641 0)"/>
     <use xlink:href="#DejaVuSans-29" transform="translate(236.71875 0)"/>
    </g>
   </g>
  </g>
  <g id="axes_1">
   <g id="line2d_27">
    <path d="M 914.01693 629.437694 
L 913.98382 629.59192 
L 914.364159 629.000633 
L 913.561236 628.860966 
L 917.504594 627.438679 
L 915.708074 627.375235 
L 915.20056 628.192225 
L 916.059934 627.590375 
L 915.756985 627.880342 
L 913.803148 628.650275 
L 914.651433 627.628997 
L 912.366484 628.472573 
L 916.20802 627.277103 
L 914.203596 627.347521 
L 914.914794 626.726198 
L 915.087994 626.235563 
L 917.409114 625.60975 
L 914.935885 626.733259 
L 916.425757 625.599546 
L 917.982656 625.300943 
L 918.289795 624.780694 
L 920.374497 623.719865 
L 920.336565 623.955387 
L 918.381097 624.402731 
L 917.117351 624.97398 
L 915.83868 625.035645 
L 916.496084 625.289703 
L 914.851194 625.799196 
L 913.936117 626.883344 
L 914.298018 626.680632 
L 912.771423 627.966215 
L 912.97495 627.422643 
L 912.708382 627.33817 
L 912.807917 627.657882 
L 911.641857 627.646562 
L 911.981208 627.832373 
L 912.461524 627.486699 
L 912.40644 626.66664 
L 913.484172 626.573328 
L 912.360776 626.590756 
L 911.335536 626.905726 
L 909.110543 628.096879 
L 910.531335 627.67903 
L 913.42273 626.433638 
L 912.488965 625.954571 
L 912.907581 625.287741 
L 912.69 625.509379 
L 911.880256 626.04203 
L 911.448971 626.04104 
L 911.09473 626.16069 
L 909.932374 625.941305 
L 907.951032 626.98103 
L 906.476427 627.431993 
L 906.867459 627.258385 
L 902.713702 630.518737 
L 902.606569 630.299493 
L 904.2202 629.579624 
L 903.644356 630.075402 
L 903.452402 631.366185 
L 900.304517 633.481228 
L 897.212929 633.571044 
L 897.086046 632.644708 
L 898.118908 632.497646 
L 897.717173 632.373153 
L 896.024305 633.237958 
L 894.989738 633.971482 
L 892.906923 634.624842 
L 889.696784 636.136128 
L 913.404174 634.98876 
L 912.996909 637.876002 
L 912.396059 637.086188 
L 909.243621 637.105284 
L 909.39985 637.063371 
L 908.652181 637.700771 
L 911.730904 636.100031 
L 911.177675 636.336458 
L 913.024881 635.978424 
L 911.956119 635.844427 
L 911.943399 636.210499 
L 911.02815 636.087297 
L 911.387689 635.326502 
L 912.295378 635.172913 
L 912.118709 635.036196 
L 911.068425 635.839535 
L 912.069208 634.49601 
L 913.511955 634.39575 
L 912.355159 634.69018 
L 912.793367 634.046835 
L 914.488113 633.094435 
L 915.139958 633.20728 
L 915.848939 632.862047 
L 917.642655 631.581204 
L 916.372203 632.260009 
L 917.131345 631.549284 
L 921.523997 635.731347 
L 920.8084 634.441452 
L 918.185809 629.075375 
L 915.034225 622.007206 
L 913.533926 615.45379 
L 912.894938 611.169005 
L 913.287863 609.502806 
L 914.481657 608.421317 
L 915.639903 606.517422 
L 916.335503 604.12492 
L 916.642906 598.60838 
L 916.173505 591.93669 
L 916.605983 565.751859 
L 917.910982 547.3374 
L 917.680797 538.962327 
L 918.451795 532.174073 
L 914.627617 524.125074 
L 913.564494 517.753405 
L 912.659962 511.390879 
L 912.86521 505.181226 
L 912.314552 498.821464 
L 913.45048 492.648397 
L 913.373233 479.298348 
L 914.296109 471.913617 
L 915.482046 466.150464 
L 916.580945 459.076555 
L 917.130711 452.026694 
L 917.755181 445.853954 
L 915.216806 440.871071 
L 915.442281 434.538517 
L 914.93344 430.554456 
L 916.205921 425.119697 
L 918.118386 419.413526 
L 920.874917 412.696499 
L 922.876599 406.238324 
L 925.24396 400.111532 
L 925.191789 394.509447 
L 926.45418 388.632229 
L 925.593419 381.712963 
L 926.436963 375.910263 
L 929.607221 369.5699 
L 923.907663 368.705075 
L 923.328685 363.35961 
L 925.008635 355.229634 
L 926.33342 351.819544 
L 928.472975 348.207011 
L 928.590522 344.947364 
L 928.243398 343.938297 
L 926.152425 344.091154 
L 923.947109 345.417732 
L 923.565462 348.432393 
L 923.188761 348.583735 
L 923.975308 348.981178 
L 924.06846 350.127386 
L 927.221334 350.382513 
L 928.172591 348.92161 
L 928.307265 349.141006 
L 926.303143 348.464161 
L 924.791042 350.35454 
L 921.254227 352.271108 
L 918.878649 354.670139 
L 918.786698 356.06491 
L 919.104033 357.599159 
L 920.611375 358.828589 
L 922.809448 359.674752 
L 923.38115 358.313638 
L 923.698679 356.516154 
L 923.623815 355.862459 
L 921.297739 356.311639 
L 921.444609 355.430378 
L 918.676902 355.770278 
L 914.543208 356.733802 
L 915.365191 358.845334 
L 914.809949 359.528104 
L 911.696439 361.814763 
L 914.52425 362.266906 
L 913.550833 362.83901 
L 916.409093 361.951477 
L 915.368555 361.325281 
L 919.031493 360.636165 
L 919.644197 359.947211 
L 917.572675 360.426383 
L 917.450636 361.837575 
L 915.408655 364.398259 
L 911.258131 365.794151 
L 912.573704 368.740275 
L 916.353227 358.42893 
L 910.37368 362.474233 
L 907.907749 369.81286 
L 902.128196 389.099363 
L 885.773699 410.081804 
L 869.35667 427.771865 
L 855.085185 432.981676 
L 835.314985 424.428287 
L 820.399237 411.685499 
L 809.793106 399.345784 
L 803.263928 392.30984 
L 802.492775 394.57172 
L 802.648628 400.407752 
L 807.063561 403.688655 
L 813.647213 399.030383 
L 819.879358 391.088411 
L 823.781148 381.875658 
L 825.238386 376.926857 
L 826.248472 375.45651 
L 824.777367 376.079163 
L 822.984704 379.195027 
L 819.248452 382.321796 
L 816.891252 384.817145 
L 813.4197 388.198048 
L 811.083368 388.913876 
L 811.057833 390.201591 
L 810.401548 390.676221 
L 810.713336 393.422914 
L 810.45127 397.384885 
L 808.898661 399.532869 
L 805.630763 402.468636 
L 803.198013 406.180738 
L 799.742864 408.863374 
L 796.423364 410.698651 
L 792.502367 413.207057 
L 789.903485 414.377431 
L 789.270576 415.35943 
L 788.096328 415.926973 
L 788.383968 416.09893 
L 787.864348 416.476287 
L 789.745271 417.342732 
L 789.871059 419.743221 
L 786.093347 422.733073 
L 780.956685 428.916145 
L 777.823203 431.692575 
L 773.666885 434.225274 
L 769.836496 437.228488 
L 768.813329 437.62516 
L 768.925752 437.452369 
L 769.714658 437.057643 
L 771.676365 436.785768 
L 773.409724 436.320559 
L 778.550217 435.060473 
L 779.224751 437.457087 
L 776.55915 438.694279 
L 776.319248 441.315557 
L 774.049287 441.996483 
L 776.544365 439.561476 
L 761.654558 440.926521 
L 747.448319 446.947685 
L 724.380987 455.077433 
L 696.574042 467.655835 
L 667.126351 486.160327 
L 636.102833 503.915149 
L 611.558335 518.338617 
L 587.930597 538.097078 
L 569.970155 555.320236 
L 557.085355 573.08491 
L 540.338544 592.113575 
L 528.11308 608.377212 
L 522.068975 632.314715 
L 525.438549 657.273291 
L 525.171916 681.794897 
L 527.966483 699.924321 
L 532.003916 710.043051 
L 534.209069 712.382536 
L 533.385774 708.817582 
L 531.566121 704.042642 
L 527.334748 695.67542 
L 526.222118 692.019841 
L 525.853996 692.104628 
L 525.861794 694.325982 
L 525.559462 697.535013 
L 526.121271 701.86565 
L 526.620915 701.98958 
L 526.494234 701.013868 
L 526.295013 700.412324 
L 524.985258 697.670052 
L 523.48913 694.412057 
L 523.015355 692.953673 
L 523.400963 692.901296 
L 522.812158 692.402264 
L 522.706404 691.709359 
L 522.347249 690.19504 
L 520.723175 689.260548 
L 521.278087 688.336824 
L 520.883499 688.208705 
L 521.750716 687.282502 
L 523.071413 686.792311 
L 524.439414 686.788913 
L 525.172572 686.140098 
L 525.769106 684.947749 
L 525.662876 684.011657 
L 524.314264 683.65687 
L 523.219672 683.695057 
L 522.402108 683.346952 
L 521.850487 683.366188 
L 521.365416 683.730386 
L 520.817503 683.019223 
L 522.000068 683.402325 
L 522.183897 682.636225 
L 522.706733 682.156727 
L 521.485255 677.939117 
L 524.091851 666.59348 
L 526.321976 661.021203 
L 531.41843 659.382338 
L 536.315538 646.745955 
L 541.889714 622.924199 
L 547.932756 598.712093 
L 555.251564 572.095306 
L 563.251424 545.477299 
L 570.044865 519.702519 
L 577.462186 496.167802 
L 583.018124 474.539596 
L 594.43572 448.669274 
L 598.937955 426.202377 
L 602.012012 414.53434 
L 598.360327 414.454574 
L 593.328588 419.999168 
L 586.63103 424.630099 
L 581.288463 425.607531 
L 577.735351 422.60348 
L 575.38328 416.571592 
L 578.03559 408.74179 
L 581.082545 396.334059 
L 583.382159 393.41563 
L 583.220424 392.610111 
L 583.457732 392.354186 
L 580.282048 392.486062 
L 580.70889 393.137364 
L 577.491233 391.96065 
L 576.698225 390.730344 
L 576.688879 389.119448 
L 577.669074 387.275886 
L 580.497424 384.374873 
L 581.572796 382.238787 
L 582.984725 380.22064 
L 585.039708 378.739616 
L 586.345973 378.426315 
L 583.796467 375.692404 
L 583.930796 375.245771 
L 583.751536 373.618119 
L 581.499437 372.059082 
L 582.514784 371.61332 
L 583.292764 371.435603 
L 585.572572 371.457612 
L 587.333581 371.221505 
L 587.951882 369.307566 
L 590.116723 368.344373 
L 591.761162 366.309633 
L 593.118903 365.184855 
L 590.236642 362.163415 
L 588.885506 361.043264 
L 589.164418 360.410629 
L 589.948677 360.815164 
L 586.910399 361.481911 
L 585.386662 362.989417 
L 584.971513 364.398417 
L 585.079086 364.500153 
L 588.37254 363.942811 
L 597.891815 363.393283 
L 591.650383 357.204835 
L 598.762607 353.948586 
L 608.430198 354.859436 
L 624.633506 363.875203 
L 636.500727 372.240015 
L 648.450795 379.895955 
L 662.609127 384.468218 
L 686.491335 384.488896 
L 706.392529 379.417947 
L 729.614046 372.62288 
L 750.022144 365.497018 
L 771.140205 360.949089 
L 792.359311 358.709582 
L 812.052643 358.921944 
L 832.574968 356.986506 
L 847.388231 357.617634 
L 856.395251 359.792858 
L 860.169949 365.055578 
L 860.366121 373.761301 
L 854.491048 380.211091 
L 849.826501 382.278423 
L 846.601922 377.221348 
L 844.678937 371.436582 
L 845.231512 367.647677 
L 847.173163 366.017786 
L 849.564691 365.803893 
L 853.85754 369.024998 
L 855.773664 373.819118 
L 855.559593 374.900038 
L 856.208358 376.16158 
L 859.152674 377.823302 
L 860.17898 379.269924 
L 860.415056 380.879832 
L 863.078358 382.53584 
L 867.075753 383.538594 
L 870.723814 385.432694 
L 871.238685 386.735484 
L 872.726209 388.39944 
L 876.745543 390.194893 
L 877.914238 391.587401 
L 880.699589 392.610357 
L 883.94506 395.283091 
L 883.873372 396.766447 
L 884.790464 398.688455 
L 883.751232 399.850261 
L 884.119488 400.790816 
L 884.300819 402.997309 
L 885.965055 403.303836 
L 886.098361 403.897688 
L 885.873963 404.378634 
L 886.408172 404.18692 
L 891.664076 406.835816 
L 888.912965 408.706097 
L 890.309393 409.084063 
L 894.081679 409.674151 
L 894.156632 411.250082 
L 894.654765 412.526656 
L 895.439655 413.091221 
L 893.25294 413.448965 
L 890.253423 415.945261 
L 891.410057 417.997617 
L 890.098288 417.108163 
L 892.021753 417.596484 
L 891.30615 418.431633 
L 889.377378 421.350964 
L 891.280949 426.561329 
L 891.838703 432.741413 
L 896.909466 441.869546 
L 894.490992 448.252273 
L 894.754551 453.973988 
L 893.606877 460.832986 
L 891.445512 468.095251 
L 880.798954 478.220488 
L 880.71484 485.121609 
L 882.483707 499.569668 
L 880.404597 506.848541 
L 870.260501 508.733062 
L 871.615097 514.284095 
L 870.886877 521.537722 
L 873.140513 528.627206 
L 873.082224 535.575414 
L 875.525471 547.17256 
L 875.754989 555.27593 
L 876.850577 562.499271 
L 880.248638 576.418027 
L 880.797825 583.77858 
L 879.073314 590.06253 
L 878.769434 595.540144 
L 876.389497 602.447705 
L 878.020142 607.76821 
L 877.03451 615.176136 
L 876.803384 627.879254 
L 877.969009 633.72848 
L 878.982754 639.683813 
L 879.81345 645.82714 
L 880.296464 651.874964 
L 880.351807 657.693994 
L 879.459985 663.821907 
L 879.21725 670.703086 
L 877.478557 690.72472 
L 878.673036 695.73204 
L 876.568307 700.643298 
L 877.700172 706.898443 
L 878.380977 712.754428 
L 877.76179 722.871275 
L 866.563842 731.30954 
L 880.148994 725.285798 
L 889.591287 724.844867 
L 891.237437 725.354781 
L 891.813191 726.18234 
L 892.146855 726.006122 
L 892.0775 725.405007 
L 892.962855 725.458528 
L 893.514817 726.484811 
L 893.514049 726.241272 
L 893.183419 726.537858 
L 893.238652 726.143491 
L 891.501327 726.802998 
L 891.553304 726.843583 
L 892.01586 726.889975 
L 891.561831 726.733306 
L 891.787893 726.49897 
L 892.230062 726.214376 
L 892.199476 726.704222 
L 892.914006 726.599487 
L 892.759136 726.471588 
L 892.365395 726.794363 
L 892.806973 726.489522 
L 892.07868 726.965564 
L 891.96232 727.202155 
L 892.040462 727.001604 
L 891.443425 726.92653 
L 890.961831 726.979356 
L 890.884478 727.602191 
L 890.820515 727.56702 
L 890.527712 727.167471 
L 891.231727 727.134513 
L 892.484942 726.360997 
L 892.539266 726.186452 
L 892.855973 726.099463 
L 892.046953 726.618154 
L 893.51848 725.768811 
L 893.964669 726.090607 
L 893.854024 726.19838 
L 895.517127 725.545982 
L 895.399325 725.009257 
L 895.726966 725.536868 
L 895.635462 725.927314 
L 895.435825 725.837791 
L 895.295814 725.463147 
L 895.583882 725.626567 
L 895.462963 725.667809 
L 895.670612 725.307165 
L 893.292706 726.629506 
L 894.052355 725.950013 
L 894.810584 725.609489 
L 894.304129 726.120595 
L 894.440246 726.224874 
L 894.847926 726.88464 
L 895.57955 726.504232 
L 895.561838 726.16649 
L 895.144301 726.147952 
L 896.684028 726.034386 
L 895.954329 726.354783 
L 896.017017 726.420723 
L 896.315831 726.574312 
L 896.249257 726.559809 
L 897.02435 726.01594 
L 895.160719 726.249692 
L 899.517407 725.812415 
L 899.414807 725.072991 
L 899.389835 725.566826 
L 899.550923 724.483766 
L 899.746622 724.945013 
L 899.606845 724.668449 
L 899.372719 724.745049 
L 898.609285 725.226857 
L 899.614503 724.817683 
L 899.949072 724.918566 
L 899.008332 725.332744 
L 898.569688 725.849207 
L 898.642026 726.006168 
L 898.549328 725.522284 
L 898.642564 725.004388 
L 898.595842 725.521486 
L 898.135026 725.574989 
L 898.599026 725.910056 
L 898.562018 725.865605 
L 898.5037 725.515177 
L 897.562307 726.144884 
L 897.709211 726.04345 
L 897.69524 726.308785 
L 897.590379 726.148575 
L 897.809919 726.222031 
L 897.665169 725.910243 
L 897.755122 725.941847 
L 897.048775 725.810435 
L 898.143363 725.904722 
L 898.143363 725.904722 
" clip-path="url(#p4a8d551383)" style="fill: none; stroke: #0000ff; stroke-width: 2; stroke-linecap: square"/>
   </g>
   <g id="line2d_28">
    <path d="M 913.161363 645.671088 
L 919.714027 358.160649 
L 824.563247 409.711416 
L 505.664185 614.408468 
L 569.500179 336.84429 
L 919.714027 358.160649 
" clip-path="url(#p4a8d551383)" style="fill: none; stroke-dasharray: 7.4,3.2; stroke-dashoffset: 0; stroke: #008000; stroke-width: 2"/>
   </g>
   <g id="Path3DCollection_1">
    <path d="M 565.028043 341.316426 
L 573.972315 332.372154 
M 565.028043 332.372154 
L 573.972315 341.316426 
" clip-path="url(#p4a8d551383)" style="fill-opacity: 0.3; stroke: #000000; stroke-opacity: 0.3; stroke-width: 1.5"/>
    <path d="M 908.689227 650.143224 
L 917.633499 641.198952 
M 908.689227 641.198952 
L 917.633499 650.143224 
" clip-path="url(#p4a8d551383)" style="fill-opacity: 0.401681; stroke: #000000; stroke-opacity: 0.401681; stroke-width: 1.5"/>
    <path d="M 915.241891 362.632785 
L 924.186163 353.688513 
M 915.241891 353.688513 
L 924.186163 362.632785 
" clip-path="url(#p4a8d551383)" style="fill-opacity: 0.590155; stroke: #000000; stroke-opacity: 0.590155; stroke-width: 1.5"/>
    <path d="M 501.192049 618.880604 
L 510.136321 609.936333 
M 501.192049 609.936333 
L 510.136321 618.880604 
" clip-path="url(#p4a8d551383)" style="fill-opacity: 0.719192; stroke: #000000; stroke-opacity: 0.719192; stroke-width: 1.5"/>
    <path d="M 820.091111 414.183552 
L 829.035383 405.23928 
M 820.091111 405.23928 
L 829.035383 414.183552 
" clip-path="url(#p4a8d551383)" style="stroke: #000000; stroke-width: 1.5"/>
   </g>
   <g id="text_27">
    <!-- Takeoff / Landing -->
    <g transform="translate(913.673333 623.20743) scale(0.14 -0.14)">
     <defs>
      <path id="DejaVuSans-Bold-54" d="M 31 4666 
L 4331 4666 
L 4331 3756 
L 2784 3756 
L 2784 0 
L 1581 0 
L 1581 3756 
L 31 3756 
L 31 4666 
z
" transform="scale(0.015625)"/>
      <path id="DejaVuSans-Bold-61" d="M 2106 1575 
Q 1756 1575 1579 1456 
Q 1403 1338 1403 1106 
Q 1403 894 1545 773 
Q 1688 653 1941 653 
Q 2256 653 2472 879 
Q 2688 1106 2688 1447 
L 2688 1575 
L 2106 1575 
z
M 3816 1997 
L 3816 0 
L 2688 0 
L 2688 519 
Q 2463 200 2181 54 
Q 1900 -91 1497 -91 
Q 953 -91 614 226 
Q 275 544 275 1050 
Q 275 1666 698 1953 
Q 1122 2241 2028 2241 
L 2688 2241 
L 2688 2328 
Q 2688 2594 2478 2717 
Q 2269 2841 1825 2841 
Q 1466 2841 1156 2769 
Q 847 2697 581 2553 
L 581 3406 
Q 941 3494 1303 3539 
Q 1666 3584 2028 3584 
Q 2975 3584 3395 3211 
Q 3816 2838 3816 1997 
z
" transform="scale(0.015625)"/>
      <path id="DejaVuSans-Bold-6b" d="M 538 4863 
L 1656 4863 
L 1656 2216 
L 2944 3500 
L 4244 3500 
L 2534 1894 
L 4378 0 
L 3022 0 
L 1656 1459 
L 1656 0 
L 538 0 
L 538 4863 
z
" transform="scale(0.015625)"/>
      <path id="DejaVuSans-Bold-65" d="M 4031 1759 
L 4031 1441 
L 1416 1441 
Q 1456 1047 1700 850 
Q 1944 653 2381 653 
Q 2734 653 3104 758 
Q 3475 863 3866 1075 
L 3866 213 
Q 3469 63 3072 -14 
Q 2675 -91 2278 -91 
Q 1328 -91 801 392 
Q 275 875 275 1747 
Q 275 2603 792 3093 
Q 1309 3584 2216 3584 
Q 3041 3584 3536 3087 
Q 4031 2591 4031 1759 
z
M 2881 2131 
Q 2881 2450 2695 2645 
Q 2509 2841 2209 2841 
Q 1884 2841 1681 2658 
Q 1478 2475 1428 2131 
L 2881 2131 
z
" transform="scale(0.015625)"/>
      <path id="DejaVuSans-Bold-6f" d="M 2203 2784 
Q 1831 2784 1636 2517 
Q 1441 2250 1441 1747 
Q 1441 1244 1636 976 
Q 1831 709 2203 709 
Q 2569 709 2762 976 
Q 2956 1244 2956 1747 
Q 2956 2250 2762 2517 
Q 2569 2784 2203 2784 
z
M 2203 3584 
Q 3106 3584 3614 3096 
Q 4122 2609 4122 1747 
Q 4122 884 3614 396 
Q 3106 -91 2203 -91 
Q 1297 -91 786 396 
Q 275 884 275 1747 
Q 275 2609 786 3096 
Q 1297 3584 2203 3584 
z
" transform="scale(0.015625)"/>
      <path id="DejaVuSans-Bold-66" d="M 2841 4863 
L 2841 4128 
L 2222 4128 
Q 1984 4128 1890 4042 
Q 1797 3956 1797 3744 
L 1797 3500 
L 2753 3500 
L 2753 2700 
L 1797 2700 
L 1797 0 
L 678 0 
L 678 2700 
L 122 2700 
L 122 3500 
L 678 3500 
L 678 3744 
Q 678 4316 997 4589 
Q 1316 4863 1984 4863 
L 2841 4863 
z
" transform="scale(0.015625)"/>
      <path id="DejaVuSans-Bold-20" transform="scale(0.015625)"/>
      <path id="DejaVuSans-Bold-2f" d="M 1644 4666 
L 2338 4666 
L 691 -594 
L 0 -594 
L 1644 4666 
z
" transform="scale(0.015625)"/>
      <path id="DejaVuSans-Bold-4c" d="M 588 4666 
L 1791 4666 
L 1791 909 
L 3903 909 
L 3903 0 
L 588 0 
L 588 4666 
z
" transform="scale(0.015625)"/>
      <path id="DejaVuSans-Bold-6e" d="M 4056 2131 
L 4056 0 
L 2931 0 
L 2931 347 
L 2931 1631 
Q 2931 2084 2911 2256 
Q 2891 2428 2841 2509 
Q 2775 2619 2662 2680 
Q 2550 2741 2406 2741 
Q 2056 2741 1856 2470 
Q 1656 2200 1656 1722 
L 1656 0 
L 538 0 
L 538 3500 
L 1656 3500 
L 1656 2988 
Q 1909 3294 2193 3439 
Q 2478 3584 2822 3584 
Q 3428 3584 3742 3212 
Q 4056 2841 4056 2131 
z
" transform="scale(0.015625)"/>
      <path id="DejaVuSans-Bold-64" d="M 2919 2988 
L 2919 4863 
L 4044 4863 
L 4044 0 
L 2919 0 
L 2919 506 
Q 2688 197 2409 53 
Q 2131 -91 1766 -91 
Q 1119 -91 703 423 
Q 288 938 288 1747 
Q 288 2556 703 3070 
Q 1119 3584 1766 3584 
Q 2128 3584 2408 3439 
Q 2688 3294 2919 2988 
z
M 2181 722 
Q 2541 722 2730 984 
Q 2919 1247 2919 1747 
Q 2919 2247 2730 2509 
Q 2541 2772 2181 2772 
Q 1825 2772 1636 2509 
Q 1447 2247 1447 1747 
Q 1447 1247 1636 984 
Q 1825 722 2181 722 
z
" transform="scale(0.015625)"/>
      <path id="DejaVuSans-Bold-69" d="M 538 3500 
L 1656 3500 
L 1656 0 
L 538 0 
L 538 3500 
z
M 538 4863 
L 1656 4863 
L 1656 3950 
L 538 3950 
L 538 4863 
z
" transform="scale(0.015625)"/>
      <path id="DejaVuSans-Bold-67" d="M 2919 594 
Q 2688 288 2409 144 
Q 2131 0 1766 0 
Q 1125 0 706 504 
Q 288 1009 288 1791 
Q 288 2575 706 3076 
Q 1125 3578 1766 3578 
Q 2131 3578 2409 3434 
Q 2688 3291 2919 2981 
L 2919 3500 
L 4044 3500 
L 4044 353 
Q 4044 -491 3511 -936 
Q 2978 -1381 1966 -1381 
Q 1638 -1381 1331 -1331 
Q 1025 -1281 716 -1178 
L 716 -306 
Q 1009 -475 1290 -558 
Q 1572 -641 1856 -641 
Q 2406 -641 2662 -400 
Q 2919 -159 2919 353 
L 2919 594 
z
M 2181 2772 
Q 1834 2772 1640 2515 
Q 1447 2259 1447 1791 
Q 1447 1309 1634 1061 
Q 1822 813 2181 813 
Q 2531 813 2725 1069 
Q 2919 1325 2919 1791 
Q 2919 2259 2725 2515 
Q 2531 2772 2181 2772 
z
" transform="scale(0.015625)"/>
     </defs>
     <use xlink:href="#DejaVuSans-Bold-54"/>
     <use xlink:href="#DejaVuSans-Bold-61" transform="translate(55.337891 0)"/>
     <use xlink:href="#DejaVuSans-Bold-6b" transform="translate(122.818359 0)"/>
     <use xlink:href="#DejaVuSans-Bold-65" transform="translate(186.697266 0)"/>
     <use xlink:href="#DejaVuSans-Bold-6f" transform="translate(254.519531 0)"/>
     <use xlink:href="#DejaVuSans-Bold-66" transform="translate(323.220703 0)"/>
     <use xlink:href="#DejaVuSans-Bold-66" transform="translate(366.726562 0)"/>
     <use xlink:href="#DejaVuSans-Bold-20" transform="translate(410.232422 0)"/>
     <use xlink:href="#DejaVuSans-Bold-2f" transform="translate(445.046875 0)"/>
     <use xlink:href="#DejaVuSans-Bold-20" transform="translate(481.570312 0)"/>
     <use xlink:href="#DejaVuSans-Bold-4c" transform="translate(516.384766 0)"/>
     <use xlink:href="#DejaVuSans-Bold-61" transform="translate(580.105469 0)"/>
     <use xlink:href="#DejaVuSans-Bold-6e" transform="translate(647.585938 0)"/>
     <use xlink:href="#DejaVuSans-Bold-64" transform="translate(718.777344 0)"/>
     <use xlink:href="#DejaVuSans-Bold-69" transform="translate(790.359375 0)"/>
     <use xlink:href="#DejaVuSans-Bold-6e" transform="translate(824.636719 0)"/>
     <use xlink:href="#DejaVuSans-Bold-67" transform="translate(895.828125 0)"/>
    </g>
   </g>
   <g id="text_28">
    <!-- Hover / Return-to-Home -->
    <g transform="translate(920.252986 334.512789) scale(0.14 -0.14)">
     <defs>
      <path id="DejaVuSans-Bold-48" d="M 588 4666 
L 1791 4666 
L 1791 2888 
L 3566 2888 
L 3566 4666 
L 4769 4666 
L 4769 0 
L 3566 0 
L 3566 1978 
L 1791 1978 
L 1791 0 
L 588 0 
L 588 4666 
z
" transform="scale(0.015625)"/>
      <path id="DejaVuSans-Bold-76" d="M 97 3500 
L 1216 3500 
L 2088 1081 
L 2956 3500 
L 4078 3500 
L 2700 0 
L 1472 0 
L 97 3500 
z
" transform="scale(0.015625)"/>
      <path id="DejaVuSans-Bold-72" d="M 3138 2547 
Q 2991 2616 2845 2648 
Q 2700 2681 2553 2681 
Q 2122 2681 1889 2404 
Q 1656 2128 1656 1613 
L 1656 0 
L 538 0 
L 538 3500 
L 1656 3500 
L 1656 2925 
Q 1872 3269 2151 3426 
Q 2431 3584 2822 3584 
Q 2878 3584 2943 3579 
Q 3009 3575 3134 3559 
L 3138 2547 
z
" transform="scale(0.015625)"/>
      <path id="DejaVuSans-Bold-52" d="M 2297 2597 
Q 2675 2597 2839 2737 
Q 3003 2878 3003 3200 
Q 3003 3519 2839 3656 
Q 2675 3794 2297 3794 
L 1791 3794 
L 1791 2597 
L 2297 2597 
z
M 1791 1766 
L 1791 0 
L 588 0 
L 588 4666 
L 2425 4666 
Q 3347 4666 3776 4356 
Q 4206 4047 4206 3378 
Q 4206 2916 3982 2619 
Q 3759 2322 3309 2181 
Q 3556 2125 3751 1926 
Q 3947 1728 4147 1325 
L 4800 0 
L 3519 0 
L 2950 1159 
Q 2778 1509 2601 1637 
Q 2425 1766 2131 1766 
L 1791 1766 
z
" transform="scale(0.015625)"/>
      <path id="DejaVuSans-Bold-74" d="M 1759 4494 
L 1759 3500 
L 2913 3500 
L 2913 2700 
L 1759 2700 
L 1759 1216 
Q 1759 972 1856 886 
Q 1953 800 2241 800 
L 2816 800 
L 2816 0 
L 1856 0 
Q 1194 0 917 276 
Q 641 553 641 1216 
L 641 2700 
L 84 2700 
L 84 3500 
L 641 3500 
L 641 4494 
L 1759 4494 
z
" transform="scale(0.015625)"/>
      <path id="DejaVuSans-Bold-75" d="M 500 1363 
L 500 3500 
L 1625 3500 
L 1625 3150 
Q 1625 2866 1622 2436 
Q 1619 2006 1619 1863 
Q 1619 1441 1641 1255 
Q 1663 1069 1716 984 
Q 1784 875 1895 815 
Q 2006 756 2150 756 
Q 2500 756 2700 1025 
Q 2900 1294 2900 1772 
L 2900 3500 
L 4019 3500 
L 4019 0 
L 2900 0 
L 2900 506 
Q 2647 200 2364 54 
Q 2081 -91 1741 -91 
Q 1134 -91 817 281 
Q 500 653 500 1363 
z
" transform="scale(0.015625)"/>
      <path id="DejaVuSans-Bold-2d" d="M 347 2297 
L 2309 2297 
L 2309 1388 
L 347 1388 
L 347 2297 
z
" transform="scale(0.015625)"/>
      <path id="DejaVuSans-Bold-6d" d="M 3781 2919 
Q 3994 3244 4286 3414 
Q 4578 3584 4928 3584 
Q 5531 3584 5847 3212 
Q 6163 2841 6163 2131 
L 6163 0 
L 5038 0 
L 5038 1825 
Q 5041 1866 5042 1909 
Q 5044 1953 5044 2034 
Q 5044 2406 4934 2573 
Q 4825 2741 4581 2741 
Q 4263 2741 4089 2478 
Q 3916 2216 3909 1719 
L 3909 0 
L 2784 0 
L 2784 1825 
Q 2784 2406 2684 2573 
Q 2584 2741 2328 2741 
Q 2006 2741 1831 2477 
Q 1656 2213 1656 1722 
L 1656 0 
L 531 0 
L 531 3500 
L 1656 3500 
L 1656 2988 
Q 1863 3284 2130 3434 
Q 2397 3584 2719 3584 
Q 3081 3584 3359 3409 
Q 3638 3234 3781 2919 
z
" transform="scale(0.015625)"/>
     </defs>
     <use xlink:href="#DejaVuSans-Bold-48"/>
     <use xlink:href="#DejaVuSans-Bold-6f" transform="translate(83.691406 0)"/>
     <use xlink:href="#DejaVuSans-Bold-76" transform="translate(152.392578 0)"/>
     <use xlink:href="#DejaVuSans-Bold-65" transform="translate(217.578125 0)"/>
     <use xlink:href="#DejaVuSans-Bold-72" transform="translate(285.400391 0)"/>
     <use xlink:href="#DejaVuSans-Bold-20" transform="translate(334.716797 0)"/>
     <use xlink:href="#DejaVuSans-Bold-2f" transform="translate(369.53125 0)"/>
     <use xlink:href="#DejaVuSans-Bold-20" transform="translate(406.054688 0)"/>
     <use xlink:href="#DejaVuSans-Bold-52" transform="translate(440.869141 0)"/>
     <use xlink:href="#DejaVuSans-Bold-65" transform="translate(517.871094 0)"/>
     <use xlink:href="#DejaVuSans-Bold-74" transform="translate(585.693359 0)"/>
     <use xlink:href="#DejaVuSans-Bold-75" transform="translate(633.496094 0)"/>
     <use xlink:href="#DejaVuSans-Bold-72" transform="translate(704.6875 0)"/>
     <use xlink:href="#DejaVuSans-Bold-6e" transform="translate(754.003906 0)"/>
     <use xlink:href="#DejaVuSans-Bold-2d" transform="translate(825.195312 0)"/>
     <use xlink:href="#DejaVuSans-Bold-74" transform="translate(866.699219 0)"/>
     <use xlink:href="#DejaVuSans-Bold-6f" transform="translate(914.501953 0)"/>
     <use xlink:href="#DejaVuSans-Bold-2d" transform="translate(983.203125 0)"/>
     <use xlink:href="#DejaVuSans-Bold-48" transform="translate(1024.707031 0)"/>
     <use xlink:href="#DejaVuSans-Bold-6f" transform="translate(1108.398438 0)"/>
     <use xlink:href="#DejaVuSans-Bold-6d" transform="translate(1177.099609 0)"/>
     <use xlink:href="#DejaVuSans-Bold-65" transform="translate(1281.298828 0)"/>
    </g>
   </g>
   <g id="text_29">
    <!-- Coordinate 1 -->
    <g transform="translate(824.922747 384.871286) scale(0.14 -0.14)">
     <defs>
      <path id="DejaVuSans-Bold-43" d="M 4288 256 
Q 3956 84 3597 -3 
Q 3238 -91 2847 -91 
Q 1681 -91 1000 561 
Q 319 1213 319 2328 
Q 319 3447 1000 4098 
Q 1681 4750 2847 4750 
Q 3238 4750 3597 4662 
Q 3956 4575 4288 4403 
L 4288 3438 
Q 3953 3666 3628 3772 
Q 3303 3878 2944 3878 
Q 2300 3878 1931 3465 
Q 1563 3053 1563 2328 
Q 1563 1606 1931 1193 
Q 2300 781 2944 781 
Q 3303 781 3628 887 
Q 3953 994 4288 1222 
L 4288 256 
z
" transform="scale(0.015625)"/>
      <path id="DejaVuSans-Bold-31" d="M 750 831 
L 1813 831 
L 1813 3847 
L 722 3622 
L 722 4441 
L 1806 4666 
L 2950 4666 
L 2950 831 
L 4013 831 
L 4013 0 
L 750 0 
L 750 831 
z
" transform="scale(0.015625)"/>
     </defs>
     <use xlink:href="#DejaVuSans-Bold-43"/>
     <use xlink:href="#DejaVuSans-Bold-6f" transform="translate(73.388672 0)"/>
     <use xlink:href="#DejaVuSans-Bold-6f" transform="translate(142.089844 0)"/>
     <use xlink:href="#DejaVuSans-Bold-72" transform="translate(210.791016 0)"/>
     <use xlink:href="#DejaVuSans-Bold-64" transform="translate(260.107422 0)"/>
     <use xlink:href="#DejaVuSans-Bold-69" transform="translate(331.689453 0)"/>
     <use xlink:href="#DejaVuSans-Bold-6e" transform="translate(365.966797 0)"/>
     <use xlink:href="#DejaVuSans-Bold-61" transform="translate(437.158203 0)"/>
     <use xlink:href="#DejaVuSans-Bold-74" transform="translate(504.638672 0)"/>
     <use xlink:href="#DejaVuSans-Bold-65" transform="translate(552.441406 0)"/>
     <use xlink:href="#DejaVuSans-Bold-20" transform="translate(620.263672 0)"/>
     <use xlink:href="#DejaVuSans-Bold-31" transform="translate(655.078125 0)"/>
    </g>
   </g>
   <g id="text_30">
    <!-- Coordinate 2 -->
    <g transform="translate(505.334744 590.892812) scale(0.14 -0.14)">
     <defs>
      <path id="DejaVuSans-Bold-32" d="M 1844 884 
L 3897 884 
L 3897 0 
L 506 0 
L 506 884 
L 2209 2388 
Q 2438 2594 2547 2791 
Q 2656 2988 2656 3200 
Q 2656 3528 2436 3728 
Q 2216 3928 1850 3928 
Q 1569 3928 1234 3808 
Q 900 3688 519 3450 
L 519 4475 
Q 925 4609 1322 4679 
Q 1719 4750 2100 4750 
Q 2938 4750 3402 4381 
Q 3866 4013 3866 3353 
Q 3866 2972 3669 2642 
Q 3472 2313 2841 1759 
L 1844 884 
z
" transform="scale(0.015625)"/>
     </defs>
     <use xlink:href="#DejaVuSans-Bold-43"/>
     <use xlink:href="#DejaVuSans-Bold-6f" transform="translate(73.388672 0)"/>
     <use xlink:href="#DejaVuSans-Bold-6f" transform="translate(142.089844 0)"/>
     <use xlink:href="#DejaVuSans-Bold-72" transform="translate(210.791016 0)"/>
     <use xlink:href="#DejaVuSans-Bold-64" transform="translate(260.107422 0)"/>
     <use xlink:href="#DejaVuSans-Bold-69" transform="translate(331.689453 0)"/>
     <use xlink:href="#DejaVuSans-Bold-6e" transform="translate(365.966797 0)"/>
     <use xlink:href="#DejaVuSans-Bold-61" transform="translate(437.158203 0)"/>
     <use xlink:href="#DejaVuSans-Bold-74" transform="translate(504.638672 0)"/>
     <use xlink:href="#DejaVuSans-Bold-65" transform="translate(552.441406 0)"/>
     <use xlink:href="#DejaVuSans-Bold-20" transform="translate(620.263672 0)"/>
     <use xlink:href="#DejaVuSans-Bold-32" transform="translate(655.078125 0)"/>
    </g>
   </g>
   <g id="text_31">
    <!-- Coordinate 3 -->
    <g transform="translate(569.316841 314.077899) scale(0.14 -0.14)">
     <defs>
      <path id="DejaVuSans-Bold-33" d="M 2981 2516 
Q 3453 2394 3698 2092 
Q 3944 1791 3944 1325 
Q 3944 631 3412 270 
Q 2881 -91 1863 -91 
Q 1503 -91 1142 -33 
Q 781 25 428 141 
L 428 1069 
Q 766 900 1098 814 
Q 1431 728 1753 728 
Q 2231 728 2486 893 
Q 2741 1059 2741 1369 
Q 2741 1688 2480 1852 
Q 2219 2016 1709 2016 
L 1228 2016 
L 1228 2791 
L 1734 2791 
Q 2188 2791 2409 2933 
Q 2631 3075 2631 3366 
Q 2631 3634 2415 3781 
Q 2200 3928 1806 3928 
Q 1516 3928 1219 3862 
Q 922 3797 628 3669 
L 628 4550 
Q 984 4650 1334 4700 
Q 1684 4750 2022 4750 
Q 2931 4750 3382 4451 
Q 3834 4153 3834 3553 
Q 3834 3144 3618 2883 
Q 3403 2622 2981 2516 
z
" transform="scale(0.015625)"/>
     </defs>
     <use xlink:href="#DejaVuSans-Bold-43"/>
     <use xlink:href="#DejaVuSans-Bold-6f" transform="translate(73.388672 0)"/>
     <use xlink:href="#DejaVuSans-Bold-6f" transform="translate(142.089844 0)"/>
     <use xlink:href="#DejaVuSans-Bold-72" transform="translate(210.791016 0)"/>
     <use xlink:href="#DejaVuSans-Bold-64" transform="translate(260.107422 0)"/>
     <use xlink:href="#DejaVuSans-Bold-69" transform="translate(331.689453 0)"/>
     <use xlink:href="#DejaVuSans-Bold-6e" transform="translate(365.966797 0)"/>
     <use xlink:href="#DejaVuSans-Bold-61" transform="translate(437.158203 0)"/>
     <use xlink:href="#DejaVuSans-Bold-74" transform="translate(504.638672 0)"/>
     <use xlink:href="#DejaVuSans-Bold-65" transform="translate(552.441406 0)"/>
     <use xlink:href="#DejaVuSans-Bold-20" transform="translate(620.263672 0)"/>
     <use xlink:href="#DejaVuSans-Bold-33" transform="translate(655.078125 0)"/>
    </g>
   </g>
   <g id="text_32">
    <!-- 3D Flight Visualization: Actual vs. Ideal Waypoints -->
    <g transform="translate(423.385312 24.48) scale(0.18 -0.18)">
     <defs>
      <path id="DejaVuSans-33" d="M 2597 2516 
Q 3050 2419 3304 2112 
Q 3559 1806 3559 1356 
Q 3559 666 3084 287 
Q 2609 -91 1734 -91 
Q 1441 -91 1130 -33 
Q 819 25 488 141 
L 488 750 
Q 750 597 1062 519 
Q 1375 441 1716 441 
Q 2309 441 2620 675 
Q 2931 909 2931 1356 
Q 2931 1769 2642 2001 
Q 2353 2234 1838 2234 
L 1294 2234 
L 1294 2753 
L 1863 2753 
Q 2328 2753 2575 2939 
Q 2822 3125 2822 3475 
Q 2822 3834 2567 4026 
Q 2313 4219 1838 4219 
Q 1578 4219 1281 4162 
Q 984 4106 628 3988 
L 628 4550 
Q 988 4650 1302 4700 
Q 1616 4750 1894 4750 
Q 2613 4750 3031 4423 
Q 3450 4097 3450 3541 
Q 3450 3153 3228 2886 
Q 3006 2619 2597 2516 
z
" transform="scale(0.015625)"/>
      <path id="DejaVuSans-44" d="M 1259 4147 
L 1259 519 
L 2022 519 
Q 2988 519 3436 956 
Q 3884 1394 3884 2338 
Q 3884 3275 3436 3711 
Q 2988 4147 2022 4147 
L 1259 4147 
z
M 628 4666 
L 1925 4666 
Q 3281 4666 3915 4102 
Q 4550 3538 4550 2338 
Q 4550 1131 3912 565 
Q 3275 0 1925 0 
L 628 0 
L 628 4666 
z
" transform="scale(0.015625)"/>
      <path id="DejaVuSans-46" d="M 628 4666 
L 3309 4666 
L 3309 4134 
L 1259 4134 
L 1259 2759 
L 3109 2759 
L 3109 2228 
L 1259 2228 
L 1259 0 
L 628 0 
L 628 4666 
z
" transform="scale(0.015625)"/>
      <path id="DejaVuSans-6c" d="M 603 4863 
L 1178 4863 
L 1178 0 
L 603 0 
L 603 4863 
z
" transform="scale(0.015625)"/>
      <path id="DejaVuSans-69" d="M 603 3500 
L 1178 3500 
L 1178 0 
L 603 0 
L 603 3500 
z
M 603 4863 
L 1178 4863 
L 1178 4134 
L 603 4134 
L 603 4863 
z
" transform="scale(0.015625)"/>
      <path id="DejaVuSans-67" d="M 2906 1791 
Q 2906 2416 2648 2759 
Q 2391 3103 1925 3103 
Q 1463 3103 1205 2759 
Q 947 2416 947 1791 
Q 947 1169 1205 825 
Q 1463 481 1925 481 
Q 2391 481 2648 825 
Q 2906 1169 2906 1791 
z
M 3481 434 
Q 3481 -459 3084 -895 
Q 2688 -1331 1869 -1331 
Q 1566 -1331 1297 -1286 
Q 1028 -1241 775 -1147 
L 775 -588 
Q 1028 -725 1275 -790 
Q 1522 -856 1778 -856 
Q 2344 -856 2625 -561 
Q 2906 -266 2906 331 
L 2906 616 
Q 2728 306 2450 153 
Q 2172 0 1784 0 
Q 1141 0 747 490 
Q 353 981 353 1791 
Q 353 2603 747 3093 
Q 1141 3584 1784 3584 
Q 2172 3584 2450 3431 
Q 2728 3278 2906 2969 
L 2906 3500 
L 3481 3500 
L 3481 434 
z
" transform="scale(0.015625)"/>
      <path id="DejaVuSans-68" d="M 3513 2113 
L 3513 0 
L 2938 0 
L 2938 2094 
Q 2938 2591 2744 2837 
Q 2550 3084 2163 3084 
Q 1697 3084 1428 2787 
Q 1159 2491 1159 1978 
L 1159 0 
L 581 0 
L 581 4863 
L 1159 4863 
L 1159 2956 
Q 1366 3272 1645 3428 
Q 1925 3584 2291 3584 
Q 2894 3584 3203 3211 
Q 3513 2838 3513 2113 
z
" transform="scale(0.015625)"/>
      <path id="DejaVuSans-74" d="M 1172 4494 
L 1172 3500 
L 2356 3500 
L 2356 3053 
L 1172 3053 
L 1172 1153 
Q 1172 725 1289 603 
Q 1406 481 1766 481 
L 2356 481 
L 2356 0 
L 1766 0 
Q 1100 0 847 248 
Q 594 497 594 1153 
L 594 3053 
L 172 3053 
L 172 3500 
L 594 3500 
L 594 4494 
L 1172 4494 
z
" transform="scale(0.015625)"/>
      <path id="DejaVuSans-56" d="M 1831 0 
L 50 4666 
L 709 4666 
L 2188 738 
L 3669 4666 
L 4325 4666 
L 2547 0 
L 1831 0 
z
" transform="scale(0.015625)"/>
      <path id="DejaVuSans-73" d="M 2834 3397 
L 2834 2853 
Q 2591 2978 2328 3040 
Q 2066 3103 1784 3103 
Q 1356 3103 1142 2972 
Q 928 2841 928 2578 
Q 928 2378 1081 2264 
Q 1234 2150 1697 2047 
L 1894 2003 
Q 2506 1872 2764 1633 
Q 3022 1394 3022 966 
Q 3022 478 2636 193 
Q 2250 -91 1575 -91 
Q 1294 -91 989 -36 
Q 684 19 347 128 
L 347 722 
Q 666 556 975 473 
Q 1284 391 1588 391 
Q 1994 391 2212 530 
Q 2431 669 2431 922 
Q 2431 1156 2273 1281 
Q 2116 1406 1581 1522 
L 1381 1569 
Q 847 1681 609 1914 
Q 372 2147 372 2553 
Q 372 3047 722 3315 
Q 1072 3584 1716 3584 
Q 2034 3584 2315 3537 
Q 2597 3491 2834 3397 
z
" transform="scale(0.015625)"/>
      <path id="DejaVuSans-75" d="M 544 1381 
L 544 3500 
L 1119 3500 
L 1119 1403 
Q 1119 906 1312 657 
Q 1506 409 1894 409 
Q 2359 409 2629 706 
Q 2900 1003 2900 1516 
L 2900 3500 
L 3475 3500 
L 3475 0 
L 2900 0 
L 2900 538 
Q 2691 219 2414 64 
Q 2138 -91 1772 -91 
Q 1169 -91 856 284 
Q 544 659 544 1381 
z
M 1991 3584 
L 1991 3584 
z
" transform="scale(0.015625)"/>
      <path id="DejaVuSans-61" d="M 2194 1759 
Q 1497 1759 1228 1600 
Q 959 1441 959 1056 
Q 959 750 1161 570 
Q 1363 391 1709 391 
Q 2188 391 2477 730 
Q 2766 1069 2766 1631 
L 2766 1759 
L 2194 1759 
z
M 3341 1997 
L 3341 0 
L 2766 0 
L 2766 531 
Q 2569 213 2275 61 
Q 1981 -91 1556 -91 
Q 1019 -91 701 211 
Q 384 513 384 1019 
Q 384 1609 779 1909 
Q 1175 2209 1959 2209 
L 2766 2209 
L 2766 2266 
Q 2766 2663 2505 2880 
Q 2244 3097 1772 3097 
Q 1472 3097 1187 3025 
Q 903 2953 641 2809 
L 641 3341 
Q 956 3463 1253 3523 
Q 1550 3584 1831 3584 
Q 2591 3584 2966 3190 
Q 3341 2797 3341 1997 
z
" transform="scale(0.015625)"/>
      <path id="DejaVuSans-7a" d="M 353 3500 
L 3084 3500 
L 3084 2975 
L 922 459 
L 3084 459 
L 3084 0 
L 275 0 
L 275 525 
L 2438 3041 
L 353 3041 
L 353 3500 
z
" transform="scale(0.015625)"/>
      <path id="DejaVuSans-6f" d="M 1959 3097 
Q 1497 3097 1228 2736 
Q 959 2375 959 1747 
Q 959 1119 1226 758 
Q 1494 397 1959 397 
Q 2419 397 2687 759 
Q 2956 1122 2956 1747 
Q 2956 2369 2687 2733 
Q 2419 3097 1959 3097 
z
M 1959 3584 
Q 2709 3584 3137 3096 
Q 3566 2609 3566 1747 
Q 3566 888 3137 398 
Q 2709 -91 1959 -91 
Q 1206 -91 779 398 
Q 353 888 353 1747 
Q 353 2609 779 3096 
Q 1206 3584 1959 3584 
z
" transform="scale(0.015625)"/>
      <path id="DejaVuSans-6e" d="M 3513 2113 
L 3513 0 
L 2938 0 
L 2938 2094 
Q 2938 2591 2744 2837 
Q 2550 3084 2163 3084 
Q 1697 3084 1428 2787 
Q 1159 2491 1159 1978 
L 1159 0 
L 581 0 
L 581 3500 
L 1159 3500 
L 1159 2956 
Q 1366 3272 1645 3428 
Q 1925 3584 2291 3584 
Q 2894 3584 3203 3211 
Q 3513 2838 3513 2113 
z
" transform="scale(0.015625)"/>
      <path id="DejaVuSans-3a" d="M 750 794 
L 1409 794 
L 1409 0 
L 750 0 
L 750 794 
z
M 750 3309 
L 1409 3309 
L 1409 2516 
L 750 2516 
L 750 3309 
z
" transform="scale(0.015625)"/>
      <path id="DejaVuSans-41" d="M 2188 4044 
L 1331 1722 
L 3047 1722 
L 2188 4044 
z
M 1831 4666 
L 2547 4666 
L 4325 0 
L 3669 0 
L 3244 1197 
L 1141 1197 
L 716 0 
L 50 0 
L 1831 4666 
z
" transform="scale(0.015625)"/>
      <path id="DejaVuSans-63" d="M 3122 3366 
L 3122 2828 
Q 2878 2963 2633 3030 
Q 2388 3097 2138 3097 
Q 1578 3097 1268 2742 
Q 959 2388 959 1747 
Q 959 1106 1268 751 
Q 1578 397 2138 397 
Q 2388 397 2633 464 
Q 2878 531 3122 666 
L 3122 134 
Q 2881 22 2623 -34 
Q 2366 -91 2075 -91 
Q 1284 -91 818 406 
Q 353 903 353 1747 
Q 353 2603 823 3093 
Q 1294 3584 2113 3584 
Q 2378 3584 2631 3529 
Q 2884 3475 3122 3366 
z
" transform="scale(0.015625)"/>
      <path id="DejaVuSans-76" d="M 191 3500 
L 800 3500 
L 1894 563 
L 2988 3500 
L 3597 3500 
L 2284 0 
L 1503 0 
L 191 3500 
z
" transform="scale(0.015625)"/>
      <path id="DejaVuSans-49" d="M 628 4666 
L 1259 4666 
L 1259 0 
L 628 0 
L 628 4666 
z
" transform="scale(0.015625)"/>
      <path id="DejaVuSans-64" d="M 2906 2969 
L 2906 4863 
L 3481 4863 
L 3481 0 
L 2906 0 
L 2906 525 
Q 2725 213 2448 61 
Q 2172 -91 1784 -91 
Q 1150 -91 751 415 
Q 353 922 353 1747 
Q 353 2572 751 3078 
Q 1150 3584 1784 3584 
Q 2172 3584 2448 3432 
Q 2725 3281 2906 2969 
z
M 947 1747 
Q 947 1113 1208 752 
Q 1469 391 1925 391 
Q 2381 391 2643 752 
Q 2906 1113 2906 1747 
Q 2906 2381 2643 2742 
Q 2381 3103 1925 3103 
Q 1469 3103 1208 2742 
Q 947 2381 947 1747 
z
" transform="scale(0.015625)"/>
      <path id="DejaVuSans-65" d="M 3597 1894 
L 3597 1613 
L 953 1613 
Q 991 1019 1311 708 
Q 1631 397 2203 397 
Q 2534 397 2845 478 
Q 3156 559 3463 722 
L 3463 178 
Q 3153 47 2828 -22 
Q 2503 -91 2169 -91 
Q 1331 -91 842 396 
Q 353 884 353 1716 
Q 353 2575 817 3079 
Q 1281 3584 2069 3584 
Q 2775 3584 3186 3129 
Q 3597 2675 3597 1894 
z
M 3022 2063 
Q 3016 2534 2758 2815 
Q 2500 3097 2075 3097 
Q 1594 3097 1305 2825 
Q 1016 2553 972 2059 
L 3022 2063 
z
" transform="scale(0.015625)"/>
      <path id="DejaVuSans-57" d="M 213 4666 
L 850 4666 
L 1831 722 
L 2809 4666 
L 3519 4666 
L 4500 722 
L 5478 4666 
L 6119 4666 
L 4947 0 
L 4153 0 
L 3169 4050 
L 2175 0 
L 1381 0 
L 213 4666 
z
" transform="scale(0.015625)"/>
      <path id="DejaVuSans-79" d="M 2059 -325 
Q 1816 -950 1584 -1140 
Q 1353 -1331 966 -1331 
L 506 -1331 
L 506 -850 
L 844 -850 
Q 1081 -850 1212 -737 
Q 1344 -625 1503 -206 
L 1606 56 
L 191 3500 
L 800 3500 
L 1894 763 
L 2988 3500 
L 3597 3500 
L 2059 -325 
z
" transform="scale(0.015625)"/>
      <path id="DejaVuSans-70" d="M 1159 525 
L 1159 -1331 
L 581 -1331 
L 581 3500 
L 1159 3500 
L 1159 2969 
Q 1341 3281 1617 3432 
Q 1894 3584 2278 3584 
Q 2916 3584 3314 3078 
Q 3713 2572 3713 1747 
Q 3713 922 3314 415 
Q 2916 -91 2278 -91 
Q 1894 -91 1617 61 
Q 1341 213 1159 525 
z
M 3116 1747 
Q 3116 2381 2855 2742 
Q 2594 3103 2138 3103 
Q 1681 3103 1420 2742 
Q 1159 2381 1159 1747 
Q 1159 1113 1420 752 
Q 1681 391 2138 391 
Q 2594 391 2855 752 
Q 3116 1113 3116 1747 
z
" transform="scale(0.015625)"/>
     </defs>
     <use xlink:href="#DejaVuSans-33"/>
     <use xlink:href="#DejaVuSans-44" transform="translate(63.623047 0)"/>
     <use xlink:href="#DejaVuSans-20" transform="translate(140.625 0)"/>
     <use xlink:href="#DejaVuSans-46" transform="translate(172.412109 0)"/>
     <use xlink:href="#DejaVuSans-6c" transform="translate(229.931641 0)"/>
     <use xlink:href="#DejaVuSans-69" transform="translate(257.714844 0)"/>
     <use xlink:href="#DejaVuSans-67" transform="translate(285.498047 0)"/>
     <use xlink:href="#DejaVuSans-68" transform="translate(348.974609 0)"/>
     <use xlink:href="#DejaVuSans-74" transform="translate(412.353516 0)"/>
     <use xlink:href="#DejaVuSans-20" transform="translate(451.5625 0)"/>
     <use xlink:href="#DejaVuSans-56" transform="translate(483.349609 0)"/>
     <use xlink:href="#DejaVuSans-69" transform="translate(549.507812 0)"/>
     <use xlink:href="#DejaVuSans-73" transform="translate(577.291016 0)"/>
     <use xlink:href="#DejaVuSans-75" transform="translate(629.390625 0)"/>
     <use xlink:href="#DejaVuSans-61" transform="translate(692.769531 0)"/>
     <use xlink:href="#DejaVuSans-6c" transform="translate(754.048828 0)"/>
     <use xlink:href="#DejaVuSans-69" transform="translate(781.832031 0)"/>
     <use xlink:href="#DejaVuSans-7a" transform="translate(809.615234 0)"/>
     <use xlink:href="#DejaVuSans-61" transform="translate(862.105469 0)"/>
     <use xlink:href="#DejaVuSans-74" transform="translate(923.384766 0)"/>
     <use xlink:href="#DejaVuSans-69" transform="translate(962.59375 0)"/>
     <use xlink:href="#DejaVuSans-6f" transform="translate(990.376953 0)"/>
     <use xlink:href="#DejaVuSans-6e" transform="translate(1051.558594 0)"/>
     <use xlink:href="#DejaVuSans-3a" transform="translate(1114.9375 0)"/>
     <use xlink:href="#DejaVuSans-20" transform="translate(1148.628906 0)"/>
     <use xlink:href="#DejaVuSans-41" transform="translate(1180.416016 0)"/>
     <use xlink:href="#DejaVuSans-63" transform="translate(1247.074219 0)"/>
     <use xlink:href="#DejaVuSans-74" transform="translate(1302.054688 0)"/>
     <use xlink:href="#DejaVuSans-75" transform="translate(1341.263672 0)"/>
     <use xlink:href="#DejaVuSans-61" transform="translate(1404.642578 0)"/>
     <use xlink:href="#DejaVuSans-6c" transform="translate(1465.921875 0)"/>
     <use xlink:href="#DejaVuSans-20" transform="translate(1493.705078 0)"/>
     <use xlink:href="#DejaVuSans-76" transform="translate(1525.492188 0)"/>
     <use xlink:href="#DejaVuSans-73" transform="translate(1584.671875 0)"/>
     <use xlink:href="#DejaVuSans-2e" transform="translate(1636.771484 0)"/>
     <use xlink:href="#DejaVuSans-20" transform="translate(1668.558594 0)"/>
     <use xlink:href="#DejaVuSans-49" transform="translate(1700.345703 0)"/>
     <use xlink:href="#DejaVuSans-64" transform="translate(1729.837891 0)"/>
     <use xlink:href="#DejaVuSans-65" transform="translate(1793.314453 0)"/>
     <use xlink:href="#DejaVuSans-61" transform="translate(1854.837891 0)"/>
     <use xlink:href="#DejaVuSans-6c" transform="translate(1916.117188 0)"/>
     <use xlink:href="#DejaVuSans-20" transform="translate(1943.900391 0)"/>
     <use xlink:href="#DejaVuSans-57" transform="translate(1975.6875 0)"/>
     <use xlink:href="#DejaVuSans-61" transform="translate(2068.189453 0)"/>
     <use xlink:href="#DejaVuSans-79" transform="translate(2129.46875 0)"/>
     <use xlink:href="#DejaVuSans-70" transform="translate(2188.648438 0)"/>
     <use xlink:href="#DejaVuSans-6f" transform="translate(2252.125 0)"/>
     <use xlink:href="#DejaVuSans-69" transform="translate(2313.306641 0)"/>
     <use xlink:href="#DejaVuSans-6e" transform="translate(2341.089844 0)"/>
     <use xlink:href="#DejaVuSans-74" transform="translate(2404.46875 0)"/>
     <use xlink:href="#DejaVuSans-73" transform="translate(2443.677734 0)"/>
    </g>
   </g>
   <g id="legend_1">
    <g id="patch_6">
     <path d="M 958.933125 75.3075 
L 1122.96 75.3075 
Q 1125.36 75.3075 1125.36 72.9075 
L 1125.36 38.88 
Q 1125.36 36.48 1122.96 36.48 
L 958.933125 36.48 
Q 956.533125 36.48 956.533125 38.88 
L 956.533125 72.9075 
Q 956.533125 75.3075 958.933125 75.3075 
z
" style="fill: #ffffff; opacity: 0.8; stroke: #cccccc; stroke-linejoin: miter"/>
    </g>
    <g id="line2d_29">
     <path d="M 961.333125 46.198125 
L 973.333125 46.198125 
L 985.333125 46.198125 
" style="fill: none; stroke: #0000ff; stroke-width: 2; stroke-linecap: square"/>
    </g>
    <g id="text_33">
     <!-- Actual Flight Path -->
     <g transform="translate(994.933125 50.398125) scale(0.12 -0.12)">
      <defs>
       <path id="DejaVuSans-50" d="M 1259 4147 
L 1259 2394 
L 2053 2394 
Q 2494 2394 2734 2622 
Q 2975 2850 2975 3272 
Q 2975 3691 2734 3919 
Q 2494 4147 2053 4147 
L 1259 4147 
z
M 628 4666 
L 2053 4666 
Q 2838 4666 3239 4311 
Q 3641 3956 3641 3272 
Q 3641 2581 3239 2228 
Q 2838 1875 2053 1875 
L 1259 1875 
L 1259 0 
L 628 0 
L 628 4666 
z
" transform="scale(0.015625)"/>
      </defs>
      <use xlink:href="#DejaVuSans-41"/>
      <use xlink:href="#DejaVuSans-63" transform="translate(66.658203 0)"/>
      <use xlink:href="#DejaVuSans-74" transform="translate(121.638672 0)"/>
      <use xlink:href="#DejaVuSans-75" transform="translate(160.847656 0)"/>
      <use xlink:href="#DejaVuSans-61" transform="translate(224.226562 0)"/>
      <use xlink:href="#DejaVuSans-6c" transform="translate(285.505859 0)"/>
      <use xlink:href="#DejaVuSans-20" transform="translate(313.289062 0)"/>
      <use xlink:href="#DejaVuSans-46" transform="translate(345.076172 0)"/>
      <use xlink:href="#DejaVuSans-6c" transform="translate(402.595703 0)"/>
      <use xlink:href="#DejaVuSans-69" transform="translate(430.378906 0)"/>
      <use xlink:href="#DejaVuSans-67" transform="translate(458.162109 0)"/>
      <use xlink:href="#DejaVuSans-68" transform="translate(521.638672 0)"/>
      <use xlink:href="#DejaVuSans-74" transform="translate(585.017578 0)"/>
      <use xlink:href="#DejaVuSans-20" transform="translate(624.226562 0)"/>
      <use xlink:href="#DejaVuSans-50" transform="translate(656.013672 0)"/>
      <use xlink:href="#DejaVuSans-61" transform="translate(711.816406 0)"/>
      <use xlink:href="#DejaVuSans-74" transform="translate(773.095703 0)"/>
      <use xlink:href="#DejaVuSans-68" transform="translate(812.304688 0)"/>
     </g>
    </g>
    <g id="line2d_30">
     <path d="M 961.333125 63.811875 
L 973.333125 63.811875 
L 985.333125 63.811875 
" style="fill: none; stroke-dasharray: 7.4,3.2; stroke-dashoffset: 0; stroke: #008000; stroke-width: 2"/>
    </g>
    <g id="text_34">
     <!-- Ideal Waypoints Path -->
     <g transform="translate(994.933125 68.011875) scale(0.12 -0.12)">
      <use xlink:href="#DejaVuSans-49"/>
      <use xlink:href="#DejaVuSans-64" transform="translate(29.492188 0)"/>
      <use xlink:href="#DejaVuSans-65" transform="translate(92.96875 0)"/>
      <use xlink:href="#DejaVuSans-61" transform="translate(154.492188 0)"/>
      <use xlink:href="#DejaVuSans-6c" transform="translate(215.771484 0)"/>
      <use xlink:href="#DejaVuSans-20" transform="translate(243.554688 0)"/>
      <use xlink:href="#DejaVuSans-57" transform="translate(275.341797 0)"/>
      <use xlink:href="#DejaVuSans-61" transform="translate(367.84375 0)"/>
      <use xlink:href="#DejaVuSans-79" transform="translate(429.123047 0)"/>
      <use xlink:href="#DejaVuSans-70" transform="translate(488.302734 0)"/>
      <use xlink:href="#DejaVuSans-6f" transform="translate(551.779297 0)"/>
      <use xlink:href="#DejaVuSans-69" transform="translate(612.960938 0)"/>
      <use xlink:href="#DejaVuSans-6e" transform="translate(640.744141 0)"/>
      <use xlink:href="#DejaVuSans-74" transform="translate(704.123047 0)"/>
      <use xlink:href="#DejaVuSans-73" transform="translate(743.332031 0)"/>
      <use xlink:href="#DejaVuSans-20" transform="translate(795.431641 0)"/>
      <use xlink:href="#DejaVuSans-50" transform="translate(827.21875 0)"/>
      <use xlink:href="#DejaVuSans-61" transform="translate(883.021484 0)"/>
      <use xlink:href="#DejaVuSans-74" transform="translate(944.300781 0)"/>
      <use xlink:href="#DejaVuSans-68" transform="translate(983.509766 0)"/>
     </g>
    </g>
   </g>
  </g>
 </g>
 <defs>
  <clipPath id="p4a8d551383">
   <rect x="164.64" y="30.48" width="966.72" height="966.72"/>
  </clipPath>
 </defs>
</svg>
