<?xml version="1.0" encoding="utf-8" standalone="no"?>
<!DOCTYPE svg PUBLIC "-//W3C//DTD SVG 1.1//EN"
  "http://www.w3.org/Graphics/SVG/1.1/DTD/svg11.dtd">
<svg xmlns:xlink="http://www.w3.org/1999/xlink" width="1296pt" height="1008pt" viewBox="0 0 1296 1008" xmlns="http://www.w3.org/2000/svg" version="1.1">
 <metadata>
  <rdf:RDF xmlns:dc="http://purl.org/dc/elements/1.1/" xmlns:cc="http://creativecommons.org/ns#" xmlns:rdf="http://www.w3.org/1999/02/22-rdf-syntax-ns#">
   <cc:Work>
    <dc:type rdf:resource="http://purl.org/dc/dcmitype/StillImage"/>
    <dc:date>2025-08-06T01:16:45.248231</dc:date>
    <dc:format>image/svg+xml</dc:format>
    <dc:creator>
     <cc:Agent>
      <dc:title>Matplotlib v3.10.3, https://matplotlib.org/</dc:title>
     </cc:Agent>
    </dc:creator>
   </cc:Work>
  </rdf:RDF>
 </metadata>
 <defs>
  <style type="text/css">*{stroke-linejoin: round; stroke-linecap: butt}</style>
 </defs>
 <g id="figure_1">
  <g id="patch_1">
   <path d="M 0 1008 
L 1296 1008 
L 1296 0 
L 0 0 
z
" style="fill: #ffffff"/>
  </g>
  <g id="patch_2">
   <path d="M 164.64 997.2 
L 1131.36 997.2 
L 1131.36 30.48 
L 164.64 30.48 
z
" style="fill: #ffffff"/>
  </g>
  <g id="pane3d_1">
   <g id="patch_3">
    <path d="M 661.063784 581.893746 
L 263.758321 755.391958 
L 244.84442 234.039381 
L 661.063784 87.939602 
" style="fill: #f2f2f2; opacity: 0.5; stroke: #f2f2f2; stroke-linejoin: miter"/>
   </g>
  </g>
  <g id="pane3d_2">
   <g id="patch_4">
    <path d="M 1058.369247 755.391958 
L 661.063784 581.893746 
L 661.063784 87.939602 
L 1077.283147 234.039381 
" style="fill: #e6e6e6; opacity: 0.5; stroke: #e6e6e6; stroke-linejoin: miter"/>
   </g>
  </g>
  <g id="pane3d_3">
   <g id="patch_5">
    <path d="M 1058.369247 755.391958 
L 661.063784 581.893746 
L 263.758321 755.391958 
L 661.063784 954.570688 
" style="fill: #ececec; opacity: 0.5; stroke: #ececec; stroke-linejoin: miter"/>
   </g>
  </g>
  <g id="grid3d_1">
   <g id="Line3DCollection_1">
    <path d="M 621.865483 934.919643 
L 1019.338788 738.347856 
L 1036.281504 219.647136 
" style="fill: none; stroke: #b0b0b0; stroke-width: 0.8"/>
    <path d="M 535.915197 891.830709 
L 933.628335 700.919198 
L 946.329024 188.072349 
" style="fill: none; stroke: #b0b0b0; stroke-width: 0.8"/>
    <path d="M 452.506845 850.016107 
L 850.283947 664.52377 
L 858.97375 157.409225 
" style="fill: none; stroke: #b0b0b0; stroke-width: 0.8"/>
    <path d="M 371.529304 809.420129 
L 769.208985 629.119372 
L 774.104799 127.61884 
" style="fill: none; stroke: #b0b0b0; stroke-width: 0.8"/>
    <path d="M 292.877837 769.990267 
L 690.312001 594.666068 
L 691.617511 98.664458 
" style="fill: none; stroke: #b0b0b0; stroke-width: 0.8"/>
   </g>
  </g>
  <g id="grid3d_2">
   <g id="Line3DCollection_2">
    <path d="M 650.309276 91.714609 
L 650.767295 586.390091 
L 1048.120388 760.529955 
" style="fill: none; stroke: #b0b0b0; stroke-width: 0.8"/>
    <path d="M 602.955727 108.336476 
L 605.449884 606.179624 
L 1002.982607 783.158605 
" style="fill: none; stroke: #b0b0b0; stroke-width: 0.8"/>
    <path d="M 554.819385 125.233117 
L 559.415747 626.282143 
L 957.080821 806.170268 
" style="fill: none; stroke: #b0b0b0; stroke-width: 0.8"/>
    <path d="M 505.880677 142.411401 
L 512.647746 646.705131 
L 910.395467 829.574752 
" style="fill: none; stroke: #b0b0b0; stroke-width: 0.8"/>
    <path d="M 456.119372 159.87843 
L 465.12819 667.456312 
L 862.906308 853.382204 
" style="fill: none; stroke: #b0b0b0; stroke-width: 0.8"/>
    <path d="M 405.514556 177.641545 
L 416.838818 688.543663 
L 814.592404 877.603119 
" style="fill: none; stroke: #b0b0b0; stroke-width: 0.8"/>
    <path d="M 354.044597 195.708339 
L 367.760771 709.975419 
L 765.432083 902.248364 
" style="fill: none; stroke: #b0b0b0; stroke-width: 0.8"/>
    <path d="M 301.687118 214.086668 
L 317.874566 731.760086 
L 715.402906 927.329187 
" style="fill: none; stroke: #b0b0b0; stroke-width: 0.8"/>
    <path d="M 248.418963 232.784658 
L 267.160078 753.906454 
L 664.481631 952.85724 
" style="fill: none; stroke: #b0b0b0; stroke-width: 0.8"/>
   </g>
  </g>
  <g id="grid3d_3">
   <g id="Line3DCollection_3">
    <path d="M 1058.369247 755.391958 
L 661.063784 581.893746 
L 263.758321 755.391958 
" style="fill: none; stroke: #b0b0b0; stroke-width: 0.8"/>
    <path d="M 1060.638941 692.828933 
L 661.063784 522.458548 
L 261.488627 692.828933 
" style="fill: none; stroke: #b0b0b0; stroke-width: 0.8"/>
    <path d="M 1062.934716 629.546992 
L 661.063784 462.384877 
L 259.192852 629.546992 
" style="fill: none; stroke: #b0b0b0; stroke-width: 0.8"/>
    <path d="M 1065.257025 565.533671 
L 661.063784 401.662389 
L 256.870543 565.533671 
" style="fill: none; stroke: #b0b0b0; stroke-width: 0.8"/>
    <path d="M 1067.606329 500.776216 
L 661.063784 340.280517 
L 254.521238 500.776216 
" style="fill: none; stroke: #b0b0b0; stroke-width: 0.8"/>
    <path d="M 1069.983103 435.261577 
L 661.063784 278.22846 
L 252.144464 435.261577 
" style="fill: none; stroke: #b0b0b0; stroke-width: 0.8"/>
    <path d="M 1072.387832 368.976396 
L 661.063784 215.495184 
L 249.739736 368.976396 
" style="fill: none; stroke: #b0b0b0; stroke-width: 0.8"/>
    <path d="M 1074.82101 301.906997 
L 661.063784 152.069408 
L 247.306557 301.906997 
" style="fill: none; stroke: #b0b0b0; stroke-width: 0.8"/>
    <path d="M 1077.283147 234.039381 
L 661.063784 87.939602 
L 244.84442 234.039381 
" style="fill: none; stroke: #b0b0b0; stroke-width: 0.8"/>
   </g>
  </g>
  <g id="axis3d_1">
   <g id="line2d_1">
    <path d="M 263.758321 755.391958 
L 661.063784 954.570688 
" style="fill: none; stroke: #000000; stroke-width: 0.8; stroke-linecap: square"/>
   </g>
   <g id="xtick_1">
    <g id="line2d_2">
     <path d="M 625.276993 933.232469 
L 615.030412 938.299951 
" style="fill: none; stroke: #000000; stroke-width: 0.8; stroke-linecap: square"/>
    </g>
    <g id="text_1">
     <!-- −1 -->
     <g transform="translate(604.786597 959.273505) scale(0.1 -0.1)">
      <defs>
       <path id="DejaVuSans-2212" d="M 678 2272 
L 4684 2272 
L 4684 1741 
L 678 1741 
L 678 2272 
z
" transform="scale(0.015625)"/>
       <path id="DejaVuSans-31" d="M 794 531 
L 1825 531 
L 1825 4091 
L 703 3866 
L 703 4441 
L 1819 4666 
L 2450 4666 
L 2450 531 
L 3481 531 
L 3481 0 
L 794 0 
L 794 531 
z
" transform="scale(0.015625)"/>
      </defs>
      <use xlink:href="#DejaVuSans-2212"/>
      <use xlink:href="#DejaVuSans-31" transform="translate(83.789062 0)"/>
     </g>
    </g>
   </g>
   <g id="xtick_2">
    <g id="line2d_3">
     <path d="M 539.325288 890.193787 
L 529.083152 895.110249 
" style="fill: none; stroke: #000000; stroke-width: 0.8; stroke-linecap: square"/>
    </g>
    <g id="text_2">
     <!-- 0 -->
     <g transform="translate(523.123514 915.908666) scale(0.1 -0.1)">
      <defs>
       <path id="DejaVuSans-30" d="M 2034 4250 
Q 1547 4250 1301 3770 
Q 1056 3291 1056 2328 
Q 1056 1369 1301 889 
Q 1547 409 2034 409 
Q 2525 409 2770 889 
Q 3016 1369 3016 2328 
Q 3016 3291 2770 3770 
Q 2525 4250 2034 4250 
z
M 2034 4750 
Q 2819 4750 3233 4129 
Q 3647 3509 3647 2328 
Q 3647 1150 3233 529 
Q 2819 -91 2034 -91 
Q 1250 -91 836 529 
Q 422 1150 422 2328 
Q 422 3509 836 4129 
Q 1250 4750 2034 4750 
z
" transform="scale(0.015625)"/>
      </defs>
      <use xlink:href="#DejaVuSans-30"/>
     </g>
    </g>
   </g>
   <g id="xtick_3">
    <g id="line2d_4">
     <path d="M 455.914108 848.427224 
L 445.680639 853.199319 
" style="fill: none; stroke: #000000; stroke-width: 0.8; stroke-linecap: square"/>
    </g>
    <g id="text_3">
     <!-- 1 -->
     <g transform="translate(439.81105 873.82703) scale(0.1 -0.1)">
      <use xlink:href="#DejaVuSans-31"/>
     </g>
    </g>
   </g>
   <g id="xtick_4">
    <g id="line2d_5">
     <path d="M 374.932456 807.877201 
L 364.711504 812.511196 
" style="fill: none; stroke: #000000; stroke-width: 0.8; stroke-linecap: square"/>
    </g>
    <g id="text_4">
     <!-- 2 -->
     <g transform="translate(358.927932 832.972472) scale(0.1 -0.1)">
      <defs>
       <path id="DejaVuSans-32" d="M 1228 531 
L 3431 531 
L 3431 0 
L 469 0 
L 469 531 
Q 828 903 1448 1529 
Q 2069 2156 2228 2338 
Q 2531 2678 2651 2914 
Q 2772 3150 2772 3378 
Q 2772 3750 2511 3984 
Q 2250 4219 1831 4219 
Q 1534 4219 1204 4116 
Q 875 4013 500 3803 
L 500 4441 
Q 881 4594 1212 4672 
Q 1544 4750 1819 4750 
Q 2544 4750 2975 4387 
Q 3406 4025 3406 3419 
Q 3406 3131 3298 2873 
Q 3191 2616 2906 2266 
Q 2828 2175 2409 1742 
Q 1991 1309 1228 531 
z
" transform="scale(0.015625)"/>
      </defs>
      <use xlink:href="#DejaVuSans-32"/>
     </g>
    </g>
   </g>
   <g id="xtick_5">
    <g id="line2d_6">
     <path d="M 296.275707 768.49133 
L 286.070784 772.993132 
" style="fill: none; stroke: #000000; stroke-width: 0.8; stroke-linecap: square"/>
    </g>
    <g id="text_5">
     <!-- 3 -->
     <g transform="translate(280.369428 793.29209) scale(0.1 -0.1)">
      <defs>
       <path id="DejaVuSans-33" d="M 2597 2516 
Q 3050 2419 3304 2112 
Q 3559 1806 3559 1356 
Q 3559 666 3084 287 
Q 2609 -91 1734 -91 
Q 1441 -91 1130 -33 
Q 819 25 488 141 
L 488 750 
Q 750 597 1062 519 
Q 1375 441 1716 441 
Q 2309 441 2620 675 
Q 2931 909 2931 1356 
Q 2931 1769 2642 2001 
Q 2353 2234 1838 2234 
L 1294 2234 
L 1294 2753 
L 1863 2753 
Q 2328 2753 2575 2939 
Q 2822 3125 2822 3475 
Q 2822 3834 2567 4026 
Q 2313 4219 1838 4219 
Q 1578 4219 1281 4162 
Q 984 4106 628 3988 
L 628 4550 
Q 988 4650 1302 4700 
Q 1616 4750 1894 4750 
Q 2613 4750 3031 4423 
Q 3450 4097 3450 3541 
Q 3450 3153 3228 2886 
Q 3006 2619 2597 2516 
z
" transform="scale(0.015625)"/>
      </defs>
      <use xlink:href="#DejaVuSans-33"/>
     </g>
    </g>
   </g>
   <g id="text_6">
    <!-- X (m) -->
    <g transform="translate(415.633159 881.518553) rotate(-333.374297) scale(0.14 -0.14)">
     <defs>
      <path id="DejaVuSans-58" d="M 403 4666 
L 1081 4666 
L 2241 2931 
L 3406 4666 
L 4084 4666 
L 2584 2425 
L 4184 0 
L 3506 0 
L 2194 1984 
L 872 0 
L 191 0 
L 1856 2491 
L 403 4666 
z
" transform="scale(0.015625)"/>
      <path id="DejaVuSans-20" transform="scale(0.015625)"/>
      <path id="DejaVuSans-28" d="M 1984 4856 
Q 1566 4138 1362 3434 
Q 1159 2731 1159 2009 
Q 1159 1288 1364 580 
Q 1569 -128 1984 -844 
L 1484 -844 
Q 1016 -109 783 600 
Q 550 1309 550 2009 
Q 550 2706 781 3412 
Q 1013 4119 1484 4856 
L 1984 4856 
z
" transform="scale(0.015625)"/>
      <path id="DejaVuSans-6d" d="M 3328 2828 
Q 3544 3216 3844 3400 
Q 4144 3584 4550 3584 
Q 5097 3584 5394 3201 
Q 5691 2819 5691 2113 
L 5691 0 
L 5113 0 
L 5113 2094 
Q 5113 2597 4934 2840 
Q 4756 3084 4391 3084 
Q 3944 3084 3684 2787 
Q 3425 2491 3425 1978 
L 3425 0 
L 2847 0 
L 2847 2094 
Q 2847 2600 2669 2842 
Q 2491 3084 2119 3084 
Q 1678 3084 1418 2786 
Q 1159 2488 1159 1978 
L 1159 0 
L 581 0 
L 581 3500 
L 1159 3500 
L 1159 2956 
Q 1356 3278 1631 3431 
Q 1906 3584 2284 3584 
Q 2666 3584 2933 3390 
Q 3200 3197 3328 2828 
z
" transform="scale(0.015625)"/>
      <path id="DejaVuSans-29" d="M 513 4856 
L 1013 4856 
Q 1481 4119 1714 3412 
Q 1947 2706 1947 2009 
Q 1947 1309 1714 600 
Q 1481 -109 1013 -844 
L 513 -844 
Q 928 -128 1133 580 
Q 1338 1288 1338 2009 
Q 1338 2731 1133 3434 
Q 928 4138 513 4856 
z
" transform="scale(0.015625)"/>
     </defs>
     <use xlink:href="#DejaVuSans-58"/>
     <use xlink:href="#DejaVuSans-20" transform="translate(68.505859 0)"/>
     <use xlink:href="#DejaVuSans-28" transform="translate(100.292969 0)"/>
     <use xlink:href="#DejaVuSans-6d" transform="translate(139.306641 0)"/>
     <use xlink:href="#DejaVuSans-29" transform="translate(236.71875 0)"/>
    </g>
   </g>
  </g>
  <g id="axis3d_2">
   <g id="line2d_7">
    <path d="M 1058.369247 755.391958 
L 661.063784 954.570688 
" style="fill: none; stroke: #000000; stroke-width: 0.8; stroke-linecap: square"/>
   </g>
   <g id="xtick_6">
    <g id="line2d_8">
     <path d="M 1044.723974 759.041478 
L 1054.924485 763.511849 
" style="fill: none; stroke: #000000; stroke-width: 0.8; stroke-linecap: square"/>
    </g>
    <g id="text_7">
     <!-- −1.5 -->
     <g transform="translate(1045.283653 783.771764) scale(0.1 -0.1)">
      <defs>
       <path id="DejaVuSans-2e" d="M 684 794 
L 1344 794 
L 1344 0 
L 684 0 
L 684 794 
z
" transform="scale(0.015625)"/>
       <path id="DejaVuSans-35" d="M 691 4666 
L 3169 4666 
L 3169 4134 
L 1269 4134 
L 1269 2991 
Q 1406 3038 1543 3061 
Q 1681 3084 1819 3084 
Q 2600 3084 3056 2656 
Q 3513 2228 3513 1497 
Q 3513 744 3044 326 
Q 2575 -91 1722 -91 
Q 1428 -91 1123 -41 
Q 819 9 494 109 
L 494 744 
Q 775 591 1075 516 
Q 1375 441 1709 441 
Q 2250 441 2565 725 
Q 2881 1009 2881 1497 
Q 2881 1984 2565 2268 
Q 2250 2553 1709 2553 
Q 1456 2553 1204 2497 
Q 953 2441 691 2322 
L 691 4666 
z
" transform="scale(0.015625)"/>
      </defs>
      <use xlink:href="#DejaVuSans-2212"/>
      <use xlink:href="#DejaVuSans-31" transform="translate(83.789062 0)"/>
      <use xlink:href="#DejaVuSans-2e" transform="translate(147.412109 0)"/>
      <use xlink:href="#DejaVuSans-35" transform="translate(179.199219 0)"/>
     </g>
    </g>
   </g>
   <g id="xtick_7">
    <g id="line2d_9">
     <path d="M 999.582832 781.645047 
L 1009.793532 786.190784 
" style="fill: none; stroke: #000000; stroke-width: 0.8; stroke-linecap: square"/>
    </g>
    <g id="text_8">
     <!-- −1.0 -->
     <g transform="translate(1000.199544 806.544024) scale(0.1 -0.1)">
      <use xlink:href="#DejaVuSans-2212"/>
      <use xlink:href="#DejaVuSans-31" transform="translate(83.789062 0)"/>
      <use xlink:href="#DejaVuSans-2e" transform="translate(147.412109 0)"/>
      <use xlink:href="#DejaVuSans-30" transform="translate(179.199219 0)"/>
     </g>
    </g>
   </g>
   <g id="xtick_8">
    <g id="line2d_10">
     <path d="M 953.678057 804.63099 
L 963.897831 809.254016 
" style="fill: none; stroke: #000000; stroke-width: 0.8; stroke-linecap: square"/>
    </g>
    <g id="text_9">
     <!-- −0.5 -->
     <g transform="translate(954.351922 829.701939) scale(0.1 -0.1)">
      <use xlink:href="#DejaVuSans-2212"/>
      <use xlink:href="#DejaVuSans-30" transform="translate(83.789062 0)"/>
      <use xlink:href="#DejaVuSans-2e" transform="translate(147.412109 0)"/>
      <use xlink:href="#DejaVuSans-35" transform="translate(179.199219 0)"/>
     </g>
    </g>
   </g>
   <g id="xtick_9">
    <g id="line2d_11">
     <path d="M 906.990106 828.009094 
L 917.217777 832.711397 
" style="fill: none; stroke: #000000; stroke-width: 0.8; stroke-linecap: square"/>
    </g>
    <g id="text_10">
     <!-- 0.0 -->
     <g transform="translate(911.911068 853.25539) scale(0.1 -0.1)">
      <use xlink:href="#DejaVuSans-30"/>
      <use xlink:href="#DejaVuSans-2e" transform="translate(63.623047 0)"/>
      <use xlink:href="#DejaVuSans-30" transform="translate(95.410156 0)"/>
     </g>
    </g>
   </g>
   <g id="xtick_10">
    <g id="line2d_12">
     <path d="M 859.498764 851.78948 
L 869.73309 856.573117 
" style="fill: none; stroke: #000000; stroke-width: 0.8; stroke-linecap: square"/>
    </g>
    <g id="text_11">
     <!-- 0.5 -->
     <g transform="translate(864.47706 877.214598) scale(0.1 -0.1)">
      <use xlink:href="#DejaVuSans-30"/>
      <use xlink:href="#DejaVuSans-2e" transform="translate(63.623047 0)"/>
      <use xlink:href="#DejaVuSans-35" transform="translate(95.410156 0)"/>
     </g>
    </g>
   </g>
   <g id="xtick_11">
    <g id="line2d_13">
     <path d="M 811.183116 875.982623 
L 821.422784 880.849722 
" style="fill: none; stroke: #000000; stroke-width: 0.8; stroke-linecap: square"/>
    </g>
    <g id="text_12">
     <!-- 1.0 -->
     <g transform="translate(816.218804 901.590138) scale(0.1 -0.1)">
      <use xlink:href="#DejaVuSans-31"/>
      <use xlink:href="#DejaVuSans-2e" transform="translate(63.623047 0)"/>
      <use xlink:href="#DejaVuSans-30" transform="translate(95.410156 0)"/>
     </g>
    </g>
   </g>
   <g id="xtick_12">
    <g id="line2d_14">
     <path d="M 762.021511 900.599362 
L 772.265139 905.552127 
" style="fill: none; stroke: #000000; stroke-width: 0.8; stroke-linecap: square"/>
    </g>
    <g id="text_13">
     <!-- 1.5 -->
     <g transform="translate(767.114628 926.392959) scale(0.1 -0.1)">
      <use xlink:href="#DejaVuSans-31"/>
      <use xlink:href="#DejaVuSans-2e" transform="translate(63.623047 0)"/>
      <use xlink:href="#DejaVuSans-35" transform="translate(95.410156 0)"/>
     </g>
    </g>
   </g>
   <g id="xtick_13">
    <g id="line2d_15">
     <path d="M 711.991535 925.65092 
L 722.237664 930.691633 
" style="fill: none; stroke: #000000; stroke-width: 0.8; stroke-linecap: square"/>
    </g>
    <g id="text_14">
     <!-- 2.0 -->
     <g transform="translate(717.142092 951.634393) scale(0.1 -0.1)">
      <use xlink:href="#DejaVuSans-32"/>
      <use xlink:href="#DejaVuSans-2e" transform="translate(63.623047 0)"/>
      <use xlink:href="#DejaVuSans-30" transform="translate(95.410156 0)"/>
     </g>
    </g>
   </g>
   <g id="xtick_14">
    <g id="line2d_16">
     <path d="M 661.069977 951.148923 
L 671.317066 956.279946 
" style="fill: none; stroke: #000000; stroke-width: 0.8; stroke-linecap: square"/>
    </g>
    <g id="text_15">
     <!-- 2.5 -->
     <g transform="translate(666.277956 977.326179) scale(0.1 -0.1)">
      <use xlink:href="#DejaVuSans-32"/>
      <use xlink:href="#DejaVuSans-2e" transform="translate(63.623047 0)"/>
      <use xlink:href="#DejaVuSans-35" transform="translate(95.410156 0)"/>
     </g>
    </g>
   </g>
   <g id="text_16">
    <!-- Y (m) -->
    <g transform="translate(872.45169 898.584982) rotate(-26.625703) scale(0.14 -0.14)">
     <defs>
      <path id="DejaVuSans-59" d="M -13 4666 
L 666 4666 
L 1959 2747 
L 3244 4666 
L 3922 4666 
L 2272 2222 
L 2272 0 
L 1638 0 
L 1638 2222 
L -13 4666 
z
" transform="scale(0.015625)"/>
     </defs>
     <use xlink:href="#DejaVuSans-59"/>
     <use xlink:href="#DejaVuSans-20" transform="translate(61.083984 0)"/>
     <use xlink:href="#DejaVuSans-28" transform="translate(92.871094 0)"/>
     <use xlink:href="#DejaVuSans-6d" transform="translate(131.884766 0)"/>
     <use xlink:href="#DejaVuSans-29" transform="translate(229.296875 0)"/>
    </g>
   </g>
  </g>
  <g id="axis3d_3">
   <g id="line2d_17">
    <path d="M 1058.369247 755.391958 
L 1077.283147 234.039381 
" style="fill: none; stroke: #000000; stroke-width: 0.8; stroke-linecap: square"/>
   </g>
   <g id="xtick_15">
    <g id="line2d_18">
     <path d="M 1054.973654 753.909146 
L 1065.171676 758.362492 
" style="fill: none; stroke: #000000; stroke-width: 0.8; stroke-linecap: square"/>
    </g>
    <g id="text_17">
     <!-- 0.00 -->
     <g transform="translate(1065.385442 762.990395) scale(0.1 -0.1)">
      <use xlink:href="#DejaVuSans-30"/>
      <use xlink:href="#DejaVuSans-2e" transform="translate(63.623047 0)"/>
      <use xlink:href="#DejaVuSans-30" transform="translate(95.410156 0)"/>
      <use xlink:href="#DejaVuSans-30" transform="translate(159.033203 0)"/>
     </g>
    </g>
   </g>
   <g id="xtick_16">
    <g id="line2d_19">
     <path d="M 1057.222703 691.372322 
L 1067.482793 695.747007 
" style="fill: none; stroke: #000000; stroke-width: 0.8; stroke-linecap: square"/>
    </g>
    <g id="text_18">
     <!-- 0.25 -->
     <g transform="translate(1067.758817 700.427371) scale(0.1 -0.1)">
      <use xlink:href="#DejaVuSans-30"/>
      <use xlink:href="#DejaVuSans-2e" transform="translate(63.623047 0)"/>
      <use xlink:href="#DejaVuSans-32" transform="translate(95.410156 0)"/>
      <use xlink:href="#DejaVuSans-35" transform="translate(159.033203 0)"/>
     </g>
    </g>
   </g>
   <g id="xtick_17">
    <g id="line2d_20">
     <path d="M 1059.497581 628.117283 
L 1069.820497 632.411199 
" style="fill: none; stroke: #000000; stroke-width: 0.8; stroke-linecap: square"/>
    </g>
    <g id="text_19">
     <!-- 0.50 -->
     <g transform="translate(1070.159463 637.14543) scale(0.1 -0.1)">
      <use xlink:href="#DejaVuSans-30"/>
      <use xlink:href="#DejaVuSans-2e" transform="translate(63.623047 0)"/>
      <use xlink:href="#DejaVuSans-35" transform="translate(95.410156 0)"/>
      <use xlink:href="#DejaVuSans-30" transform="translate(159.033203 0)"/>
     </g>
    </g>
   </g>
   <g id="xtick_18">
    <g id="line2d_21">
     <path d="M 1061.798737 564.131584 
L 1072.185249 568.342567 
" style="fill: none; stroke: #000000; stroke-width: 0.8; stroke-linecap: square"/>
    </g>
    <g id="text_20">
     <!-- 0.75 -->
     <g transform="translate(1072.587856 573.132108) scale(0.1 -0.1)">
      <defs>
       <path id="DejaVuSans-37" d="M 525 4666 
L 3525 4666 
L 3525 4397 
L 1831 0 
L 1172 0 
L 2766 4134 
L 525 4134 
L 525 4666 
z
" transform="scale(0.015625)"/>
      </defs>
      <use xlink:href="#DejaVuSans-30"/>
      <use xlink:href="#DejaVuSans-2e" transform="translate(63.623047 0)"/>
      <use xlink:href="#DejaVuSans-37" transform="translate(95.410156 0)"/>
      <use xlink:href="#DejaVuSans-35" transform="translate(159.033203 0)"/>
     </g>
    </g>
   </g>
   <g id="xtick_19">
    <g id="line2d_22">
     <path d="M 1064.126628 499.402493 
L 1074.577522 503.528318 
" style="fill: none; stroke: #000000; stroke-width: 0.8; stroke-linecap: square"/>
    </g>
    <g id="text_21">
     <!-- 1.00 -->
     <g transform="translate(1075.044477 508.374654) scale(0.1 -0.1)">
      <use xlink:href="#DejaVuSans-31"/>
      <use xlink:href="#DejaVuSans-2e" transform="translate(63.623047 0)"/>
      <use xlink:href="#DejaVuSans-30" transform="translate(95.410156 0)"/>
      <use xlink:href="#DejaVuSans-30" transform="translate(159.033203 0)"/>
     </g>
    </g>
   </g>
   <g id="xtick_20">
    <g id="line2d_23">
     <path d="M 1066.481723 433.916978 
L 1076.997798 437.955359 
" style="fill: none; stroke: #000000; stroke-width: 0.8; stroke-linecap: square"/>
    </g>
    <g id="text_22">
     <!-- 1.25 -->
     <g transform="translate(1077.529823 442.860015) scale(0.1 -0.1)">
      <use xlink:href="#DejaVuSans-31"/>
      <use xlink:href="#DejaVuSans-2e" transform="translate(63.623047 0)"/>
      <use xlink:href="#DejaVuSans-32" transform="translate(95.410156 0)"/>
      <use xlink:href="#DejaVuSans-35" transform="translate(159.033203 0)"/>
     </g>
    </g>
   </g>
   <g id="xtick_21">
    <g id="line2d_24">
     <path d="M 1068.864501 367.661702 
L 1079.446573 371.61029 
" style="fill: none; stroke: #000000; stroke-width: 0.8; stroke-linecap: square"/>
    </g>
    <g id="text_23">
     <!-- 1.50 -->
     <g transform="translate(1080.0444 376.574833) scale(0.1 -0.1)">
      <use xlink:href="#DejaVuSans-31"/>
      <use xlink:href="#DejaVuSans-2e" transform="translate(63.623047 0)"/>
      <use xlink:href="#DejaVuSans-35" transform="translate(95.410156 0)"/>
      <use xlink:href="#DejaVuSans-30" transform="translate(159.033203 0)"/>
     </g>
    </g>
   </g>
   <g id="xtick_22">
    <g id="line2d_25">
     <path d="M 1071.275453 300.623012 
L 1081.924352 304.479393 
" style="fill: none; stroke: #000000; stroke-width: 0.8; stroke-linecap: square"/>
    </g>
    <g id="text_24">
     <!-- 1.75 -->
     <g transform="translate(1082.588727 309.505434) scale(0.1 -0.1)">
      <use xlink:href="#DejaVuSans-31"/>
      <use xlink:href="#DejaVuSans-2e" transform="translate(63.623047 0)"/>
      <use xlink:href="#DejaVuSans-37" transform="translate(95.410156 0)"/>
      <use xlink:href="#DejaVuSans-35" transform="translate(159.033203 0)"/>
     </g>
    </g>
   </g>
   <g id="xtick_23">
    <g id="line2d_26">
     <path d="M 1073.715082 232.786932 
L 1084.431655 236.548624 
" style="fill: none; stroke: #000000; stroke-width: 0.8; stroke-linecap: square"/>
    </g>
    <g id="text_25">
     <!-- 2.00 -->
     <g transform="translate(1085.163334 241.637818) scale(0.1 -0.1)">
      <use xlink:href="#DejaVuSans-32"/>
      <use xlink:href="#DejaVuSans-2e" transform="translate(63.623047 0)"/>
      <use xlink:href="#DejaVuSans-30" transform="translate(95.410156 0)"/>
      <use xlink:href="#DejaVuSans-30" transform="translate(159.033203 0)"/>
     </g>
    </g>
   </g>
   <g id="text_26">
    <!-- Z (m) -->
    <g transform="translate(1111.138841 520.203897) rotate(-87.922305) scale(0.14 -0.14)">
     <defs>
      <path id="DejaVuSans-5a" d="M 359 4666 
L 4025 4666 
L 4025 4184 
L 1075 531 
L 4097 531 
L 4097 0 
L 288 0 
L 288 481 
L 3238 4134 
L 359 4134 
L 359 4666 
z
" transform="scale(0.015625)"/>
     </defs>
     <use xlink:href="#DejaVuSans-5a"/>
     <use xlink:href="#DejaVuSans-20" transform="translate(68.505859 0)"/>
     <use xlink:href="#DejaVuSans-28" transform="translate(100.292969 0)"/>
     <use xlink:href="#DejaVuSans-6d" transform="translate(139.306641 0)"/>
     <use xlink:href="#DejaVuSans-29" transform="translate(236.71875 0)"/>
    </g>
   </g>
  </g>
  <g id="axes_1">
   <g id="line2d_27">
    <path d="M 777.947135 769.415196 
L 777.341242 768.953351 
L 777.668501 769.395002 
L 777.41812 769.043776 
L 777.072047 769.885843 
L 777.36054 770.373033 
L 777.996475 770.555576 
L 778.911357 770.998258 
L 778.801828 770.761143 
L 778.162247 770.837323 
L 779.221326 771.133585 
L 778.15464 770.397387 
L 778.195055 770.630435 
L 778.947561 770.726912 
L 779.389436 771.018297 
L 779.605429 771.569989 
L 779.876354 771.27763 
L 777.986689 770.222663 
L 778.429529 769.847117 
L 777.66812 770.140595 
L 777.066446 770.77061 
L 777.761832 770.941412 
L 778.848388 770.984745 
L 778.660337 770.444129 
L 778.499997 770.781074 
L 780.657084 771.440266 
L 780.593428 771.012938 
L 780.042541 771.195951 
L 779.347239 771.138244 
L 778.064573 770.583558 
L 777.736795 770.88607 
L 775.521186 770.91351 
L 775.873575 771.525056 
L 776.199991 771.1105 
L 776.758212 771.620577 
L 778.053548 771.54016 
L 778.650172 771.005252 
L 777.109089 770.729714 
L 777.442339 771.310061 
L 774.658824 771.106668 
L 775.027058 771.09595 
L 774.640631 770.752311 
L 775.803451 770.720721 
L 774.983445 770.13675 
L 774.826649 770.709073 
L 774.313693 771.01843 
L 773.766467 770.632199 
L 773.795154 770.652232 
L 774.390959 770.60378 
L 774.769582 770.449656 
L 774.95983 770.901266 
L 774.733126 770.483405 
L 775.112684 770.740368 
L 775.431632 771.244508 
L 774.91852 771.944674 
L 774.901578 771.661631 
L 773.604572 770.790024 
L 772.691105 770.829559 
L 772.982274 770.609481 
L 773.695623 771.369389 
L 785.361452 772.090724 
L 785.717961 766.119203 
L 785.621608 766.232094 
L 785.401445 766.684453 
L 783.953623 765.838624 
L 784.47843 765.525236 
L 782.949282 766.212534 
L 783.454838 766.614916 
L 783.820585 766.571396 
L 784.005493 767.224861 
L 784.475109 767.459869 
L 784.308971 766.968603 
L 783.160555 766.344465 
L 783.751771 766.790394 
L 784.262631 767.394351 
L 783.539683 767.988525 
L 782.854544 767.839446 
L 783.131978 768.246515 
L 782.704461 768.253127 
L 781.501659 768.495787 
L 782.392636 769.082693 
L 782.155579 769.082217 
L 781.443097 768.944837 
L 781.781042 769.308225 
L 781.90542 769.243744 
L 781.45414 768.890509 
L 781.719051 769.030063 
L 784.230624 767.21729 
L 785.762512 765.23834 
L 785.384615 762.475341 
L 783.625375 759.015698 
L 781.504648 753.384719 
L 778.792265 745.340646 
L 779.871989 739.114543 
L 780.755454 733.324542 
L 780.840773 727.614053 
L 782.380465 719.695968 
L 783.103001 711.471189 
L 782.507166 696.36285 
L 781.059046 690.365819 
L 780.256389 683.928032 
L 779.585834 677.365352 
L 779.528962 670.356856 
L 778.638251 663.140586 
L 778.838189 656.494537 
L 779.332831 650.156465 
L 780.628668 644.488744 
L 781.133406 630.781541 
L 778.638313 624.068978 
L 777.742974 617.14203 
L 777.283479 609.618621 
L 777.595543 602.491257 
L 779.239388 597.548196 
L 780.389814 592.046254 
L 782.338806 580.539122 
L 782.583445 575.901236 
L 782.063019 569.817368 
L 783.164878 563.663337 
L 779.91783 556.490286 
L 778.811812 551.569624 
L 777.769468 539.858772 
L 778.031726 533.38958 
L 776.770966 527.097583 
L 777.559353 523.53326 
L 775.759623 516.51947 
L 775.545487 510.113493 
L 775.821512 502.301878 
L 775.258799 496.997981 
L 774.396566 492.976411 
L 775.18243 488.795528 
L 774.938979 482.226493 
L 774.537779 477.653913 
L 781.406676 473.26645 
L 781.826612 468.077543 
L 780.723951 461.104383 
L 780.996492 455.076918 
L 778.795454 448.804027 
L 774.975564 444.512759 
L 773.025276 438.515682 
L 771.286074 431.470029 
L 770.7045 426.062877 
L 769.143297 419.767011 
L 768.340982 417.999488 
L 768.405847 413.620223 
L 766.941649 406.806342 
L 765.969912 400.600841 
L 765.964276 392.778608 
L 766.154515 388.480383 
L 762.485663 377.72083 
L 761.380541 374.856059 
L 758.053133 368.965633 
L 755.167648 362.253681 
L 755.113821 360.266566 
L 753.879729 357.759769 
L 755.537145 353.357581 
L 755.603095 352.500798 
L 755.609951 350.226532 
L 756.009523 352.557021 
L 754.893245 352.32665 
L 754.578388 356.06943 
L 752.600816 355.333953 
L 751.224248 355.941657 
L 750.002661 359.959206 
L 749.905105 356.969482 
L 747.571659 357.392085 
L 749.224167 360.238888 
L 742.328874 359.369928 
L 743.207662 352.101834 
L 742.140941 351.555433 
L 742.059447 356.832069 
L 740.475273 359.861433 
L 739.06365 365.074835 
L 739.853395 361.926847 
L 739.917169 357.917772 
L 740.206754 355.892253 
L 739.408529 361.931774 
L 738.748947 360.420696 
L 736.442512 358.628533 
L 735.183886 359.598908 
L 737.841056 361.276161 
L 734.835536 363.823039 
L 732.116439 369.014306 
L 727.557695 365.197649 
L 720.856017 367.684792 
L 715.577036 362.966344 
L 708.936709 359.794328 
L 704.887786 367.334641 
L 699.819119 367.925363 
L 694.836533 374.722371 
L 688.95852 378.577292 
L 684.809859 377.54977 
L 681.754459 379.734318 
L 679.265787 382.729915 
L 677.177055 378.470089 
L 674.124312 380.037496 
L 670.717686 380.124922 
L 666.296395 378.121199 
L 664.25074 380.395945 
L 660.67782 382.647546 
L 657.764569 387.134757 
L 656.115367 385.99965 
L 653.394381 390.895731 
L 650.960881 392.353996 
L 650.514235 394.647867 
L 644.383182 390.515509 
L 641.540971 390.344475 
L 637.800229 394.34658 
L 635.696675 395.864157 
L 631.410127 397.431686 
L 627.458964 396.134881 
L 624.007599 399.786851 
L 618.569563 399.798942 
L 614.625298 401.384776 
L 613.114503 405.749239 
L 609.451996 404.137996 
L 605.791837 410.251614 
L 601.008463 405.191917 
L 599.063588 406.896516 
L 592.684022 410.810192 
L 591.527198 410.053899 
L 588.154606 409.408423 
L 584.715359 413.815765 
L 578.450259 417.688411 
L 574.011165 417.205169 
L 571.892111 416.214709 
L 569.170358 413.688832 
L 567.340621 414.990629 
L 566.47193 418.22679 
L 565.863479 417.702164 
L 568.03891 423.143883 
L 568.04711 420.401451 
L 568.472818 420.897404 
L 568.241345 418.164117 
L 568.567856 420.286147 
L 562.503376 418.782999 
L 560.679444 419.073613 
L 565.197906 418.403742 
L 560.553939 415.871889 
L 560.527584 414.699374 
L 558.301236 415.8215 
L 558.241492 413.905763 
L 557.908313 418.878274 
L 557.947818 418.720119 
L 558.045296 420.342268 
L 558.210344 418.945187 
L 558.483194 419.837453 
L 558.835674 424.552582 
L 558.904254 420.336943 
L 559.231927 419.321743 
L 559.411444 416.28965 
L 559.407324 417.567464 
L 559.469361 421.271311 
L 559.28827 418.998866 
L 560.089237 421.036319 
L 560.040236 418.708834 
L 560.543627 414.79482 
L 560.946575 409.280635 
L 559.2287 421.815083 
L 559.602585 423.56228 
L 559.145062 421.999822 
L 560.094745 421.529687 
L 559.447673 420.673751 
L 561.095584 425.406347 
L 561.247575 425.378317 
L 561.438451 419.119171 
L 562.557665 413.32179 
L 561.342979 414.567188 
L 536.420026 424.352931 
L 498.164505 418.607516 
L 441.113849 413.631191 
L 447.165211 413.863023 
L 446.471393 410.446349 
L 444.017288 406.743674 
L 444.300167 410.086449 
L 443.252343 413.38886 
L 443.626027 413.518709 
L 442.410202 411.945446 
L 442.252102 410.580577 
L 437.564106 412.067349 
L 436.664886 415.222528 
L 430.93755 410.832207 
L 429.790576 410.221257 
L 427.340514 408.439712 
L 425.286187 408.459656 
L 423.173393 407.192158 
L 423.397266 404.307275 
L 421.176693 405.474632 
L 420.42653 408.534144 
L 417.648814 411.183798 
L 416.906447 408.39269 
L 416.101066 409.305221 
L 415.319154 411.903293 
L 414.556977 411.590938 
L 413.53283 412.853179 
L 412.951332 413.123971 
L 412.971488 411.603989 
L 412.444687 409.88338 
L 411.969695 409.129117 
L 411.072633 409.267444 
L 410.204053 407.989268 
L 409.972097 408.414529 
L 407.982516 406.960173 
L 407.223227 409.39103 
L 406.373145 408.243831 
L 405.722925 408.671186 
L 405.280893 408.093616 
L 405.05062 407.084252 
L 404.582959 410.441365 
L 403.871476 411.393301 
L 403.777747 410.546304 
L 403.545368 409.69289 
L 402.986591 409.172188 
L 402.549014 406.582295 
L 401.386243 407.103052 
L 401.360888 405.778667 
L 400.412558 405.7956 
L 396.653686 406.352153 
L 397.437215 405.466959 
L 399.100512 404.140609 
L 406.129133 402.023254 
L 411.144034 404.386934 
L 417.444147 409.356779 
L 423.656936 407.272897 
L 426.411179 399.721072 
L 427.924491 391.591748 
L 429.368826 384.236951 
L 429.586185 386.814288 
L 430.832008 387.569861 
L 429.952989 388.794375 
L 429.542627 393.16271 
L 431.507435 395.65329 
L 432.760913 389.601053 
L 436.198435 389.813077 
L 439.806918 386.652345 
L 441.063079 381.68785 
L 443.110974 378.569408 
L 446.941955 377.265268 
L 447.781571 381.090986 
L 447.21586 384.255441 
L 448.430902 383.670805 
L 447.438152 381.094468 
L 448.287937 379.048751 
L 455.310585 376.425992 
L 457.4872 376.680578 
L 460.467253 375.130002 
L 464.460504 370.530545 
L 464.343173 371.904659 
L 465.042608 371.305943 
L 466.849255 371.657245 
L 468.645065 368.262098 
L 471.340915 368.079753 
L 471.510307 367.297089 
L 470.8793 368.233091 
L 475.12761 366.5608 
L 476.20072 365.155216 
L 479.047093 363.223024 
L 480.202423 362.823702 
L 480.113487 362.613207 
L 486.026513 360.37985 
L 487.772708 360.826407 
L 488.221265 355.278834 
L 493.971239 355.727129 
L 494.432768 348.611055 
L 498.030859 351.374977 
L 495.85014 349.176841 
L 496.083303 349.439292 
L 497.852398 350.97196 
L 499.571774 351.543727 
L 502.962112 350.511393 
L 506.371487 350.649094 
L 508.935883 349.062656 
L 514.061566 347.48461 
L 514.951659 343.792038 
L 520.227717 344.138995 
L 518.720055 343.322374 
L 520.925442 340.955289 
L 523.705697 337.373692 
L 524.64374 337.243306 
L 523.50023 332.012087 
L 523.822884 333.087056 
L 524.786454 331.150574 
L 528.296786 328.783341 
L 532.806607 326.593821 
L 536.783742 325.406278 
L 540.100818 325.886875 
L 545.11079 322.354531 
L 546.228762 321.882619 
L 547.669292 320.974939 
L 547.789535 319.764199 
L 549.103736 316.939456 
L 549.681962 313.799665 
L 548.944976 313.672494 
L 551.598792 311.68616 
L 553.547507 310.917263 
L 556.33122 311.964087 
L 559.820047 310.17156 
L 566.505962 308.15002 
L 568.396 308.696667 
L 570.84054 307.868325 
L 573.548961 304.781278 
L 573.518252 305.246971 
L 577.197175 306.2618 
L 580.465853 305.510674 
L 581.408759 305.856899 
L 582.296923 305.883978 
L 581.685832 305.826132 
L 584.989671 301.345431 
L 585.819317 301.696233 
L 588.583164 298.74317 
L 592.71575 297.210924 
L 595.096719 293.688221 
L 598.317556 290.069326 
L 603.321707 290.55539 
L 604.669645 289.429616 
L 604.874308 288.312514 
L 602.684239 286.931511 
L 601.833244 286.975197 
L 601.214363 284.475026 
L 602.555739 285.21259 
L 606.978606 283.338212 
L 611.538332 283.010324 
L 615.6765 282.567873 
L 618.367125 280.462656 
L 620.083601 279.425294 
L 623.705582 276.843147 
L 626.431693 275.819939 
L 630.555901 275.784864 
L 633.052559 272.654819 
L 634.91262 270.759559 
L 635.249766 270.103933 
L 640.767495 268.217672 
L 639.64773 267.444258 
L 645.051327 263.648577 
L 650.816807 261.070509 
L 653.24932 260.538137 
L 654.903625 260.93773 
L 655.980643 260.006972 
L 657.332569 258.204592 
L 659.276309 255.813197 
L 661.620985 256.428052 
L 663.686643 255.367153 
L 665.145047 255.84784 
L 667.30729 255.846296 
L 670.675369 254.52842 
L 669.235908 254.171174 
L 671.294134 252.405635 
L 672.118243 250.504126 
L 670.9712 249.051533 
L 670.498561 250.829412 
L 667.607706 251.620683 
L 664.392449 252.108768 
L 663.773882 251.393715 
L 662.598793 251.335522 
L 660.685695 250.92351 
L 661.868263 250.306404 
L 658.595972 247.714138 
L 659.86681 247.663173 
L 661.94975 246.322124 
L 662.446491 245.830233 
L 664.951474 245.663078 
L 666.991339 242.421428 
L 669.670613 244.532319 
L 669.049253 243.778749 
L 668.821074 244.063361 
L 668.329765 243.442335 
L 667.066291 243.371753 
L 663.894358 243.332116 
L 662.377513 243.841956 
L 661.258186 245.515915 
L 663.074652 242.750951 
L 668.080922 241.332985 
L 672.132156 240.004385 
L 675.082202 240.93459 
L 674.67078 241.400898 
L 674.73748 240.957266 
L 672.76504 240.697156 
L 668.40121 242.562565 
L 665.40735 241.028313 
L 663.650068 240.327414 
L 662.317788 240.249984 
L 661.599047 239.909865 
L 663.442053 238.199638 
L 665.869358 237.340823 
L 668.337402 237.006678 
L 668.480624 236.327339 
L 669.477465 236.925731 
L 669.107702 237.765959 
L 667.571777 237.941901 
L 665.892076 238.619728 
L 664.653068 239.323121 
L 663.217518 237.918346 
L 660.572192 235.4853 
L 661.284345 234.700509 
L 658.358249 235.230629 
L 658.733996 241.554068 
L 659.827589 242.619093 
L 665.133332 239.285305 
L 668.589579 233.827507 
L 672.162123 233.058375 
L 675.240364 234.379532 
L 677.606979 238.121699 
L 680.045064 246.987344 
L 682.839029 247.590863 
L 683.549962 248.403006 
L 686.691057 250.540798 
L 688.449063 249.160666 
L 690.863189 251.002829 
L 692.435327 252.661952 
L 694.520014 252.908541 
L 695.518386 253.270097 
L 698.39692 255.252397 
L 700.058192 254.803469 
L 701.324279 254.78026 
L 702.963761 257.23443 
L 704.521619 257.284293 
L 707.796054 255.764685 
L 709.903463 255.301456 
L 712.055795 255.488966 
L 712.282568 257.494615 
L 710.400893 260.602666 
L 708.856517 260.128195 
L 713.61516 259.893719 
L 716.487491 261.582741 
L 718.650619 261.350899 
L 717.757641 259.279043 
L 715.100479 260.330602 
L 713.594999 262.297201 
L 712.186806 261.678337 
L 712.932365 260.8885 
L 715.179447 261.222898 
L 716.74857 263.499998 
L 720.137191 265.988302 
L 722.053537 266.840709 
L 725.613979 269.598228 
L 727.429189 271.570643 
L 729.311466 270.081511 
L 730.830559 272.348778 
L 730.106312 271.173059 
L 730.889754 270.06809 
L 732.764017 271.820819 
L 734.527623 274.282551 
L 738.369983 278.428695 
L 741.397931 275.826763 
L 743.127576 278.449603 
L 744.74253 280.23842 
L 746.648827 280.771613 
L 747.321763 280.527874 
L 747.602651 281.057296 
L 750.455123 283.05575 
L 750.420753 286.566148 
L 753.325601 282.22596 
L 755.923086 281.841352 
L 757.848709 283.081926 
L 759.897694 281.288086 
L 761.831835 285.776853 
L 762.020971 287.008766 
L 763.953042 289.954052 
L 765.277367 289.559451 
L 769.710007 291.549989 
L 770.496113 295.382058 
L 771.61924 290.715374 
L 775.794314 286.637791 
L 774.95475 290.847701 
L 776.282646 291.746764 
L 778.110492 299.347336 
L 776.933576 296.404932 
L 782.687463 293.250998 
L 784.367227 292.904558 
L 784.563719 291.866385 
L 787.745066 292.100607 
L 790.261184 296.312681 
L 791.957153 300.170625 
L 795.2979 303.706967 
L 797.79602 305.685442 
L 799.562644 305.032663 
L 802.862129 304.039256 
L 805.810034 305.467435 
L 807.645899 305.502513 
L 812.326831 310.528075 
L 814.104437 309.164067 
L 816.91031 309.66313 
L 820.340953 310.964438 
L 823.597446 307.344914 
L 825.07805 310.350471 
L 826.045411 311.366228 
L 827.258014 314.358542 
L 830.571376 311.607136 
L 831.964954 314.732498 
L 834.320183 315.392294 
L 836.547018 316.32375 
L 838.494731 316.971686 
L 840.03632 317.661358 
L 840.538723 322.691636 
L 842.541122 324.048943 
L 844.851299 321.628272 
L 847.776613 322.107655 
L 850.043765 321.435913 
L 852.094884 318.736053 
L 853.555756 322.896629 
L 856.534948 325.502058 
L 858.919041 322.042235 
L 861.604838 324.83777 
L 862.537398 327.028673 
L 864.852914 324.508556 
L 865.59817 324.813005 
L 867.33742 327.976635 
L 869.017496 326.137156 
L 871.094004 329.107358 
L 871.197215 326.745304 
L 871.757958 327.88425 
L 871.013436 336.363621 
L 876.206819 337.467117 
L 879.826531 341.108388 
L 880.326487 339.944293 
L 882.108291 338.415123 
L 882.749253 337.596434 
L 882.951624 337.080011 
L 885.144081 335.826619 
L 887.747878 341.604785 
L 890.122715 341.695321 
L 892.269027 340.344674 
L 894.471784 340.922655 
L 897.129471 347.350143 
L 899.486882 349.836636 
L 901.689085 352.815953 
L 903.026823 351.494072 
L 906.759273 349.049401 
L 908.570309 349.100605 
L 909.36316 348.751801 
L 910.909383 349.716871 
L 912.609747 348.674384 
L 914.301734 352.362164 
L 916.255391 355.283144 
L 919.484566 358.812467 
L 921.879977 358.011019 
L 925.114455 356.459715 
L 926.62339 355.899155 
L 929.77215 357.880938 
L 930.417634 361.148552 
L 931.948597 362.71335 
L 934.547181 363.241273 
L 936.831342 365.727653 
L 939.426044 367.588058 
L 946.28758 370.029981 
L 947.291442 374.024727 
L 948.448127 375.153111 
L 950.856792 373.633353 
L 952.999044 372.108594 
L 954.303996 376.657788 
L 956.918884 376.863766 
L 958.419552 374.910255 
L 959.493423 372.041721 
L 960.168926 373.109893 
L 960.685317 373.304031 
L 961.718141 375.736634 
L 963.348293 373.391425 
L 963.961148 377.603541 
L 966.706212 379.807116 
L 968.768741 381.075587 
L 971.102312 382.230227 
L 973.923742 382.760322 
L 977.654341 380.614454 
L 978.436651 380.55761 
L 979.670835 382.904672 
L 976.238827 382.813789 
L 973.414554 387.227668 
L 970.885426 390.662363 
L 970.348559 386.053281 
L 969.849452 386.574632 
L 969.969444 384.989312 
L 970.828122 382.373931 
L 972.801767 379.641614 
L 973.046093 378.515138 
L 974.115455 380.925102 
L 972.712998 381.572758 
L 972.670839 382.020883 
L 973.359323 382.135344 
L 972.725718 382.454901 
L 971.035522 382.988734 
L 972.434586 384.236541 
L 971.488377 384.464801 
L 973.495537 384.535183 
L 973.204553 383.725601 
L 973.989473 380.952357 
L 975.611422 380.515577 
L 975.925744 381.499851 
L 978.235836 385.554444 
L 979.444233 383.275972 
L 978.766532 384.962714 
L 978.766532 384.962714 
" clip-path="url(#p904869d2ad)" style="fill: none; stroke: #0000ff; stroke-width: 2; stroke-linecap: square"/>
   </g>
   <g id="line2d_28">
    <path d="M 785.363553 772.089725 
L 789.777542 383.784533 
L 670.206913 432.989517 
L 566.76206 390.555311 
L 686.345498 343.079688 
L 789.777542 383.784533 
" clip-path="url(#p904869d2ad)" style="fill: none; stroke-dasharray: 7.4,3.2; stroke-dashoffset: 0; stroke: #008000; stroke-width: 2"/>
   </g>
   <g id="Path3DCollection_1">
    <path d="M 780.891417 776.561861 
L 789.835689 767.617589 
M 780.891417 767.617589 
L 789.835689 776.561861 
" clip-path="url(#p904869d2ad)" style="fill-opacity: 0.3; stroke: #000000; stroke-opacity: 0.3; stroke-width: 1.5"/>
    <path d="M 681.873362 347.551824 
L 690.817634 338.607552 
M 681.873362 338.607552 
L 690.817634 347.551824 
" clip-path="url(#p904869d2ad)" style="fill-opacity: 0.511188; stroke: #000000; stroke-opacity: 0.511188; stroke-width: 1.5"/>
    <path d="M 785.305406 388.256669 
L 794.249678 379.312397 
M 785.305406 379.312397 
L 794.249678 388.256669 
" clip-path="url(#p904869d2ad)" style="fill-opacity: 0.732488; stroke: #000000; stroke-opacity: 0.732488; stroke-width: 1.5"/>
    <path d="M 562.289924 395.027447 
L 571.234196 386.083175 
M 562.289924 386.083175 
L 571.234196 395.027447 
" clip-path="url(#p904869d2ad)" style="fill-opacity: 0.769298; stroke: #000000; stroke-opacity: 0.769298; stroke-width: 1.5"/>
    <path d="M 665.734777 437.461653 
L 674.679049 428.517382 
M 665.734777 428.517382 
L 674.679049 437.461653 
" clip-path="url(#p904869d2ad)" style="stroke: #000000; stroke-width: 1.5"/>
   </g>
   <g id="text_27">
    <!-- Takeoff / Landing -->
    <g transform="translate(785.591309 752.053665) scale(0.14 -0.14)">
     <defs>
      <path id="DejaVuSans-Bold-54" d="M 31 4666 
L 4331 4666 
L 4331 3756 
L 2784 3756 
L 2784 0 
L 1581 0 
L 1581 3756 
L 31 3756 
L 31 4666 
z
" transform="scale(0.015625)"/>
      <path id="DejaVuSans-Bold-61" d="M 2106 1575 
Q 1756 1575 1579 1456 
Q 1403 1338 1403 1106 
Q 1403 894 1545 773 
Q 1688 653 1941 653 
Q 2256 653 2472 879 
Q 2688 1106 2688 1447 
L 2688 1575 
L 2106 1575 
z
M 3816 1997 
L 3816 0 
L 2688 0 
L 2688 519 
Q 2463 200 2181 54 
Q 1900 -91 1497 -91 
Q 953 -91 614 226 
Q 275 544 275 1050 
Q 275 1666 698 1953 
Q 1122 2241 2028 2241 
L 2688 2241 
L 2688 2328 
Q 2688 2594 2478 2717 
Q 2269 2841 1825 2841 
Q 1466 2841 1156 2769 
Q 847 2697 581 2553 
L 581 3406 
Q 941 3494 1303 3539 
Q 1666 3584 2028 3584 
Q 2975 3584 3395 3211 
Q 3816 2838 3816 1997 
z
" transform="scale(0.015625)"/>
      <path id="DejaVuSans-Bold-6b" d="M 538 4863 
L 1656 4863 
L 1656 2216 
L 2944 3500 
L 4244 3500 
L 2534 1894 
L 4378 0 
L 3022 0 
L 1656 1459 
L 1656 0 
L 538 0 
L 538 4863 
z
" transform="scale(0.015625)"/>
      <path id="DejaVuSans-Bold-65" d="M 4031 1759 
L 4031 1441 
L 1416 1441 
Q 1456 1047 1700 850 
Q 1944 653 2381 653 
Q 2734 653 3104 758 
Q 3475 863 3866 1075 
L 3866 213 
Q 3469 63 3072 -14 
Q 2675 -91 2278 -91 
Q 1328 -91 801 392 
Q 275 875 275 1747 
Q 275 2603 792 3093 
Q 1309 3584 2216 3584 
Q 3041 3584 3536 3087 
Q 4031 2591 4031 1759 
z
M 2881 2131 
Q 2881 2450 2695 2645 
Q 2509 2841 2209 2841 
Q 1884 2841 1681 2658 
Q 1478 2475 1428 2131 
L 2881 2131 
z
" transform="scale(0.015625)"/>
      <path id="DejaVuSans-Bold-6f" d="M 2203 2784 
Q 1831 2784 1636 2517 
Q 1441 2250 1441 1747 
Q 1441 1244 1636 976 
Q 1831 709 2203 709 
Q 2569 709 2762 976 
Q 2956 1244 2956 1747 
Q 2956 2250 2762 2517 
Q 2569 2784 2203 2784 
z
M 2203 3584 
Q 3106 3584 3614 3096 
Q 4122 2609 4122 1747 
Q 4122 884 3614 396 
Q 3106 -91 2203 -91 
Q 1297 -91 786 396 
Q 275 884 275 1747 
Q 275 2609 786 3096 
Q 1297 3584 2203 3584 
z
" transform="scale(0.015625)"/>
      <path id="DejaVuSans-Bold-66" d="M 2841 4863 
L 2841 4128 
L 2222 4128 
Q 1984 4128 1890 4042 
Q 1797 3956 1797 3744 
L 1797 3500 
L 2753 3500 
L 2753 2700 
L 1797 2700 
L 1797 0 
L 678 0 
L 678 2700 
L 122 2700 
L 122 3500 
L 678 3500 
L 678 3744 
Q 678 4316 997 4589 
Q 1316 4863 1984 4863 
L 2841 4863 
z
" transform="scale(0.015625)"/>
      <path id="DejaVuSans-Bold-20" transform="scale(0.015625)"/>
      <path id="DejaVuSans-Bold-2f" d="M 1644 4666 
L 2338 4666 
L 691 -594 
L 0 -594 
L 1644 4666 
z
" transform="scale(0.015625)"/>
      <path id="DejaVuSans-Bold-4c" d="M 588 4666 
L 1791 4666 
L 1791 909 
L 3903 909 
L 3903 0 
L 588 0 
L 588 4666 
z
" transform="scale(0.015625)"/>
      <path id="DejaVuSans-Bold-6e" d="M 4056 2131 
L 4056 0 
L 2931 0 
L 2931 347 
L 2931 1631 
Q 2931 2084 2911 2256 
Q 2891 2428 2841 2509 
Q 2775 2619 2662 2680 
Q 2550 2741 2406 2741 
Q 2056 2741 1856 2470 
Q 1656 2200 1656 1722 
L 1656 0 
L 538 0 
L 538 3500 
L 1656 3500 
L 1656 2988 
Q 1909 3294 2193 3439 
Q 2478 3584 2822 3584 
Q 3428 3584 3742 3212 
Q 4056 2841 4056 2131 
z
" transform="scale(0.015625)"/>
      <path id="DejaVuSans-Bold-64" d="M 2919 2988 
L 2919 4863 
L 4044 4863 
L 4044 0 
L 2919 0 
L 2919 506 
Q 2688 197 2409 53 
Q 2131 -91 1766 -91 
Q 1119 -91 703 423 
Q 288 938 288 1747 
Q 288 2556 703 3070 
Q 1119 3584 1766 3584 
Q 2128 3584 2408 3439 
Q 2688 3294 2919 2988 
z
M 2181 722 
Q 2541 722 2730 984 
Q 2919 1247 2919 1747 
Q 2919 2247 2730 2509 
Q 2541 2772 2181 2772 
Q 1825 2772 1636 2509 
Q 1447 2247 1447 1747 
Q 1447 1247 1636 984 
Q 1825 722 2181 722 
z
" transform="scale(0.015625)"/>
      <path id="DejaVuSans-Bold-69" d="M 538 3500 
L 1656 3500 
L 1656 0 
L 538 0 
L 538 3500 
z
M 538 4863 
L 1656 4863 
L 1656 3950 
L 538 3950 
L 538 4863 
z
" transform="scale(0.015625)"/>
      <path id="DejaVuSans-Bold-67" d="M 2919 594 
Q 2688 288 2409 144 
Q 2131 0 1766 0 
Q 1125 0 706 504 
Q 288 1009 288 1791 
Q 288 2575 706 3076 
Q 1125 3578 1766 3578 
Q 2131 3578 2409 3434 
Q 2688 3291 2919 2981 
L 2919 3500 
L 4044 3500 
L 4044 353 
Q 4044 -491 3511 -936 
Q 2978 -1381 1966 -1381 
Q 1638 -1381 1331 -1331 
Q 1025 -1281 716 -1178 
L 716 -306 
Q 1009 -475 1290 -558 
Q 1572 -641 1856 -641 
Q 2406 -641 2662 -400 
Q 2919 -159 2919 353 
L 2919 594 
z
M 2181 2772 
Q 1834 2772 1640 2515 
Q 1447 2259 1447 1791 
Q 1447 1309 1634 1061 
Q 1822 813 2181 813 
Q 2531 813 2725 1069 
Q 2919 1325 2919 1791 
Q 2919 2259 2725 2515 
Q 2531 2772 2181 2772 
z
" transform="scale(0.015625)"/>
     </defs>
     <use xlink:href="#DejaVuSans-Bold-54"/>
     <use xlink:href="#DejaVuSans-Bold-61" transform="translate(55.337891 0)"/>
     <use xlink:href="#DejaVuSans-Bold-6b" transform="translate(122.818359 0)"/>
     <use xlink:href="#DejaVuSans-Bold-65" transform="translate(186.697266 0)"/>
     <use xlink:href="#DejaVuSans-Bold-6f" transform="translate(254.519531 0)"/>
     <use xlink:href="#DejaVuSans-Bold-66" transform="translate(323.220703 0)"/>
     <use xlink:href="#DejaVuSans-Bold-66" transform="translate(366.726562 0)"/>
     <use xlink:href="#DejaVuSans-Bold-20" transform="translate(410.232422 0)"/>
     <use xlink:href="#DejaVuSans-Bold-2f" transform="translate(445.046875 0)"/>
     <use xlink:href="#DejaVuSans-Bold-20" transform="translate(481.570312 0)"/>
     <use xlink:href="#DejaVuSans-Bold-4c" transform="translate(516.384766 0)"/>
     <use xlink:href="#DejaVuSans-Bold-61" transform="translate(580.105469 0)"/>
     <use xlink:href="#DejaVuSans-Bold-6e" transform="translate(647.585938 0)"/>
     <use xlink:href="#DejaVuSans-Bold-64" transform="translate(718.777344 0)"/>
     <use xlink:href="#DejaVuSans-Bold-69" transform="translate(790.359375 0)"/>
     <use xlink:href="#DejaVuSans-Bold-6e" transform="translate(824.636719 0)"/>
     <use xlink:href="#DejaVuSans-Bold-67" transform="translate(895.828125 0)"/>
    </g>
   </g>
   <g id="text_28">
    <!-- Hover / Return-to-Home -->
    <g transform="translate(790.021777 362.298815) scale(0.14 -0.14)">
     <defs>
      <path id="DejaVuSans-Bold-48" d="M 588 4666 
L 1791 4666 
L 1791 2888 
L 3566 2888 
L 3566 4666 
L 4769 4666 
L 4769 0 
L 3566 0 
L 3566 1978 
L 1791 1978 
L 1791 0 
L 588 0 
L 588 4666 
z
" transform="scale(0.015625)"/>
      <path id="DejaVuSans-Bold-76" d="M 97 3500 
L 1216 3500 
L 2088 1081 
L 2956 3500 
L 4078 3500 
L 2700 0 
L 1472 0 
L 97 3500 
z
" transform="scale(0.015625)"/>
      <path id="DejaVuSans-Bold-72" d="M 3138 2547 
Q 2991 2616 2845 2648 
Q 2700 2681 2553 2681 
Q 2122 2681 1889 2404 
Q 1656 2128 1656 1613 
L 1656 0 
L 538 0 
L 538 3500 
L 1656 3500 
L 1656 2925 
Q 1872 3269 2151 3426 
Q 2431 3584 2822 3584 
Q 2878 3584 2943 3579 
Q 3009 3575 3134 3559 
L 3138 2547 
z
" transform="scale(0.015625)"/>
      <path id="DejaVuSans-Bold-52" d="M 2297 2597 
Q 2675 2597 2839 2737 
Q 3003 2878 3003 3200 
Q 3003 3519 2839 3656 
Q 2675 3794 2297 3794 
L 1791 3794 
L 1791 2597 
L 2297 2597 
z
M 1791 1766 
L 1791 0 
L 588 0 
L 588 4666 
L 2425 4666 
Q 3347 4666 3776 4356 
Q 4206 4047 4206 3378 
Q 4206 2916 3982 2619 
Q 3759 2322 3309 2181 
Q 3556 2125 3751 1926 
Q 3947 1728 4147 1325 
L 4800 0 
L 3519 0 
L 2950 1159 
Q 2778 1509 2601 1637 
Q 2425 1766 2131 1766 
L 1791 1766 
z
" transform="scale(0.015625)"/>
      <path id="DejaVuSans-Bold-74" d="M 1759 4494 
L 1759 3500 
L 2913 3500 
L 2913 2700 
L 1759 2700 
L 1759 1216 
Q 1759 972 1856 886 
Q 1953 800 2241 800 
L 2816 800 
L 2816 0 
L 1856 0 
Q 1194 0 917 276 
Q 641 553 641 1216 
L 641 2700 
L 84 2700 
L 84 3500 
L 641 3500 
L 641 4494 
L 1759 4494 
z
" transform="scale(0.015625)"/>
      <path id="DejaVuSans-Bold-75" d="M 500 1363 
L 500 3500 
L 1625 3500 
L 1625 3150 
Q 1625 2866 1622 2436 
Q 1619 2006 1619 1863 
Q 1619 1441 1641 1255 
Q 1663 1069 1716 984 
Q 1784 875 1895 815 
Q 2006 756 2150 756 
Q 2500 756 2700 1025 
Q 2900 1294 2900 1772 
L 2900 3500 
L 4019 3500 
L 4019 0 
L 2900 0 
L 2900 506 
Q 2647 200 2364 54 
Q 2081 -91 1741 -91 
Q 1134 -91 817 281 
Q 500 653 500 1363 
z
" transform="scale(0.015625)"/>
      <path id="DejaVuSans-Bold-2d" d="M 347 2297 
L 2309 2297 
L 2309 1388 
L 347 1388 
L 347 2297 
z
" transform="scale(0.015625)"/>
      <path id="DejaVuSans-Bold-6d" d="M 3781 2919 
Q 3994 3244 4286 3414 
Q 4578 3584 4928 3584 
Q 5531 3584 5847 3212 
Q 6163 2841 6163 2131 
L 6163 0 
L 5038 0 
L 5038 1825 
Q 5041 1866 5042 1909 
Q 5044 1953 5044 2034 
Q 5044 2406 4934 2573 
Q 4825 2741 4581 2741 
Q 4263 2741 4089 2478 
Q 3916 2216 3909 1719 
L 3909 0 
L 2784 0 
L 2784 1825 
Q 2784 2406 2684 2573 
Q 2584 2741 2328 2741 
Q 2006 2741 1831 2477 
Q 1656 2213 1656 1722 
L 1656 0 
L 531 0 
L 531 3500 
L 1656 3500 
L 1656 2988 
Q 1863 3284 2130 3434 
Q 2397 3584 2719 3584 
Q 3081 3584 3359 3409 
Q 3638 3234 3781 2919 
z
" transform="scale(0.015625)"/>
     </defs>
     <use xlink:href="#DejaVuSans-Bold-48"/>
     <use xlink:href="#DejaVuSans-Bold-6f" transform="translate(83.691406 0)"/>
     <use xlink:href="#DejaVuSans-Bold-76" transform="translate(152.392578 0)"/>
     <use xlink:href="#DejaVuSans-Bold-65" transform="translate(217.578125 0)"/>
     <use xlink:href="#DejaVuSans-Bold-72" transform="translate(285.400391 0)"/>
     <use xlink:href="#DejaVuSans-Bold-20" transform="translate(334.716797 0)"/>
     <use xlink:href="#DejaVuSans-Bold-2f" transform="translate(369.53125 0)"/>
     <use xlink:href="#DejaVuSans-Bold-20" transform="translate(406.054688 0)"/>
     <use xlink:href="#DejaVuSans-Bold-52" transform="translate(440.869141 0)"/>
     <use xlink:href="#DejaVuSans-Bold-65" transform="translate(517.871094 0)"/>
     <use xlink:href="#DejaVuSans-Bold-74" transform="translate(585.693359 0)"/>
     <use xlink:href="#DejaVuSans-Bold-75" transform="translate(633.496094 0)"/>
     <use xlink:href="#DejaVuSans-Bold-72" transform="translate(704.6875 0)"/>
     <use xlink:href="#DejaVuSans-Bold-6e" transform="translate(754.003906 0)"/>
     <use xlink:href="#DejaVuSans-Bold-2d" transform="translate(825.195312 0)"/>
     <use xlink:href="#DejaVuSans-Bold-74" transform="translate(866.699219 0)"/>
     <use xlink:href="#DejaVuSans-Bold-6f" transform="translate(914.501953 0)"/>
     <use xlink:href="#DejaVuSans-Bold-2d" transform="translate(983.203125 0)"/>
     <use xlink:href="#DejaVuSans-Bold-48" transform="translate(1024.707031 0)"/>
     <use xlink:href="#DejaVuSans-Bold-6f" transform="translate(1108.398438 0)"/>
     <use xlink:href="#DejaVuSans-Bold-6d" transform="translate(1177.099609 0)"/>
     <use xlink:href="#DejaVuSans-Bold-65" transform="translate(1281.298828 0)"/>
    </g>
   </g>
   <g id="text_29">
    <!-- Coord 1 -->
    <g transform="translate(670.224631 411.142518) scale(0.14 -0.14)">
     <defs>
      <path id="DejaVuSans-Bold-43" d="M 4288 256 
Q 3956 84 3597 -3 
Q 3238 -91 2847 -91 
Q 1681 -91 1000 561 
Q 319 1213 319 2328 
Q 319 3447 1000 4098 
Q 1681 4750 2847 4750 
Q 3238 4750 3597 4662 
Q 3956 4575 4288 4403 
L 4288 3438 
Q 3953 3666 3628 3772 
Q 3303 3878 2944 3878 
Q 2300 3878 1931 3465 
Q 1563 3053 1563 2328 
Q 1563 1606 1931 1193 
Q 2300 781 2944 781 
Q 3303 781 3628 887 
Q 3953 994 4288 1222 
L 4288 256 
z
" transform="scale(0.015625)"/>
      <path id="DejaVuSans-Bold-31" d="M 750 831 
L 1813 831 
L 1813 3847 
L 722 3622 
L 722 4441 
L 1806 4666 
L 2950 4666 
L 2950 831 
L 4013 831 
L 4013 0 
L 750 0 
L 750 831 
z
" transform="scale(0.015625)"/>
     </defs>
     <use xlink:href="#DejaVuSans-Bold-43"/>
     <use xlink:href="#DejaVuSans-Bold-6f" transform="translate(73.388672 0)"/>
     <use xlink:href="#DejaVuSans-Bold-6f" transform="translate(142.089844 0)"/>
     <use xlink:href="#DejaVuSans-Bold-72" transform="translate(210.791016 0)"/>
     <use xlink:href="#DejaVuSans-Bold-64" transform="translate(260.107422 0)"/>
     <use xlink:href="#DejaVuSans-Bold-20" transform="translate(331.689453 0)"/>
     <use xlink:href="#DejaVuSans-Bold-31" transform="translate(366.503906 0)"/>
    </g>
   </g>
   <g id="text_30">
    <!-- Coord 2 -->
    <g transform="translate(566.582599 369.019646) scale(0.14 -0.14)">
     <defs>
      <path id="DejaVuSans-Bold-32" d="M 1844 884 
L 3897 884 
L 3897 0 
L 506 0 
L 506 884 
L 2209 2388 
Q 2438 2594 2547 2791 
Q 2656 2988 2656 3200 
Q 2656 3528 2436 3728 
Q 2216 3928 1850 3928 
Q 1569 3928 1234 3808 
Q 900 3688 519 3450 
L 519 4475 
Q 925 4609 1322 4679 
Q 1719 4750 2100 4750 
Q 2938 4750 3402 4381 
Q 3866 4013 3866 3353 
Q 3866 2972 3669 2642 
Q 3472 2313 2841 1759 
L 1844 884 
z
" transform="scale(0.015625)"/>
     </defs>
     <use xlink:href="#DejaVuSans-Bold-43"/>
     <use xlink:href="#DejaVuSans-Bold-6f" transform="translate(73.388672 0)"/>
     <use xlink:href="#DejaVuSans-Bold-6f" transform="translate(142.089844 0)"/>
     <use xlink:href="#DejaVuSans-Bold-72" transform="translate(210.791016 0)"/>
     <use xlink:href="#DejaVuSans-Bold-64" transform="translate(260.107422 0)"/>
     <use xlink:href="#DejaVuSans-Bold-20" transform="translate(331.689453 0)"/>
     <use xlink:href="#DejaVuSans-Bold-32" transform="translate(366.503906 0)"/>
    </g>
   </g>
   <g id="text_31">
    <!-- Coord 3 -->
    <g transform="translate(686.392626 321.895812) scale(0.14 -0.14)">
     <defs>
      <path id="DejaVuSans-Bold-33" d="M 2981 2516 
Q 3453 2394 3698 2092 
Q 3944 1791 3944 1325 
Q 3944 631 3412 270 
Q 2881 -91 1863 -91 
Q 1503 -91 1142 -33 
Q 781 25 428 141 
L 428 1069 
Q 766 900 1098 814 
Q 1431 728 1753 728 
Q 2231 728 2486 893 
Q 2741 1059 2741 1369 
Q 2741 1688 2480 1852 
Q 2219 2016 1709 2016 
L 1228 2016 
L 1228 2791 
L 1734 2791 
Q 2188 2791 2409 2933 
Q 2631 3075 2631 3366 
Q 2631 3634 2415 3781 
Q 2200 3928 1806 3928 
Q 1516 3928 1219 3862 
Q 922 3797 628 3669 
L 628 4550 
Q 984 4650 1334 4700 
Q 1684 4750 2022 4750 
Q 2931 4750 3382 4451 
Q 3834 4153 3834 3553 
Q 3834 3144 3618 2883 
Q 3403 2622 2981 2516 
z
" transform="scale(0.015625)"/>
     </defs>
     <use xlink:href="#DejaVuSans-Bold-43"/>
     <use xlink:href="#DejaVuSans-Bold-6f" transform="translate(73.388672 0)"/>
     <use xlink:href="#DejaVuSans-Bold-6f" transform="translate(142.089844 0)"/>
     <use xlink:href="#DejaVuSans-Bold-72" transform="translate(210.791016 0)"/>
     <use xlink:href="#DejaVuSans-Bold-64" transform="translate(260.107422 0)"/>
     <use xlink:href="#DejaVuSans-Bold-20" transform="translate(331.689453 0)"/>
     <use xlink:href="#DejaVuSans-Bold-33" transform="translate(366.503906 0)"/>
    </g>
   </g>
   <g id="text_32">
    <!-- 3D Flight Visualization: State Estimate Flight Path vs. Ideal -->
    <g transform="translate(384.201563 24.48) scale(0.18 -0.18)">
     <defs>
      <path id="DejaVuSans-44" d="M 1259 4147 
L 1259 519 
L 2022 519 
Q 2988 519 3436 956 
Q 3884 1394 3884 2338 
Q 3884 3275 3436 3711 
Q 2988 4147 2022 4147 
L 1259 4147 
z
M 628 4666 
L 1925 4666 
Q 3281 4666 3915 4102 
Q 4550 3538 4550 2338 
Q 4550 1131 3912 565 
Q 3275 0 1925 0 
L 628 0 
L 628 4666 
z
" transform="scale(0.015625)"/>
      <path id="DejaVuSans-46" d="M 628 4666 
L 3309 4666 
L 3309 4134 
L 1259 4134 
L 1259 2759 
L 3109 2759 
L 3109 2228 
L 1259 2228 
L 1259 0 
L 628 0 
L 628 4666 
z
" transform="scale(0.015625)"/>
      <path id="DejaVuSans-6c" d="M 603 4863 
L 1178 4863 
L 1178 0 
L 603 0 
L 603 4863 
z
" transform="scale(0.015625)"/>
      <path id="DejaVuSans-69" d="M 603 3500 
L 1178 3500 
L 1178 0 
L 603 0 
L 603 3500 
z
M 603 4863 
L 1178 4863 
L 1178 4134 
L 603 4134 
L 603 4863 
z
" transform="scale(0.015625)"/>
      <path id="DejaVuSans-67" d="M 2906 1791 
Q 2906 2416 2648 2759 
Q 2391 3103 1925 3103 
Q 1463 3103 1205 2759 
Q 947 2416 947 1791 
Q 947 1169 1205 825 
Q 1463 481 1925 481 
Q 2391 481 2648 825 
Q 2906 1169 2906 1791 
z
M 3481 434 
Q 3481 -459 3084 -895 
Q 2688 -1331 1869 -1331 
Q 1566 -1331 1297 -1286 
Q 1028 -1241 775 -1147 
L 775 -588 
Q 1028 -725 1275 -790 
Q 1522 -856 1778 -856 
Q 2344 -856 2625 -561 
Q 2906 -266 2906 331 
L 2906 616 
Q 2728 306 2450 153 
Q 2172 0 1784 0 
Q 1141 0 747 490 
Q 353 981 353 1791 
Q 353 2603 747 3093 
Q 1141 3584 1784 3584 
Q 2172 3584 2450 3431 
Q 2728 3278 2906 2969 
L 2906 3500 
L 3481 3500 
L 3481 434 
z
" transform="scale(0.015625)"/>
      <path id="DejaVuSans-68" d="M 3513 2113 
L 3513 0 
L 2938 0 
L 2938 2094 
Q 2938 2591 2744 2837 
Q 2550 3084 2163 3084 
Q 1697 3084 1428 2787 
Q 1159 2491 1159 1978 
L 1159 0 
L 581 0 
L 581 4863 
L 1159 4863 
L 1159 2956 
Q 1366 3272 1645 3428 
Q 1925 3584 2291 3584 
Q 2894 3584 3203 3211 
Q 3513 2838 3513 2113 
z
" transform="scale(0.015625)"/>
      <path id="DejaVuSans-74" d="M 1172 4494 
L 1172 3500 
L 2356 3500 
L 2356 3053 
L 1172 3053 
L 1172 1153 
Q 1172 725 1289 603 
Q 1406 481 1766 481 
L 2356 481 
L 2356 0 
L 1766 0 
Q 1100 0 847 248 
Q 594 497 594 1153 
L 594 3053 
L 172 3053 
L 172 3500 
L 594 3500 
L 594 4494 
L 1172 4494 
z
" transform="scale(0.015625)"/>
      <path id="DejaVuSans-56" d="M 1831 0 
L 50 4666 
L 709 4666 
L 2188 738 
L 3669 4666 
L 4325 4666 
L 2547 0 
L 1831 0 
z
" transform="scale(0.015625)"/>
      <path id="DejaVuSans-73" d="M 2834 3397 
L 2834 2853 
Q 2591 2978 2328 3040 
Q 2066 3103 1784 3103 
Q 1356 3103 1142 2972 
Q 928 2841 928 2578 
Q 928 2378 1081 2264 
Q 1234 2150 1697 2047 
L 1894 2003 
Q 2506 1872 2764 1633 
Q 3022 1394 3022 966 
Q 3022 478 2636 193 
Q 2250 -91 1575 -91 
Q 1294 -91 989 -36 
Q 684 19 347 128 
L 347 722 
Q 666 556 975 473 
Q 1284 391 1588 391 
Q 1994 391 2212 530 
Q 2431 669 2431 922 
Q 2431 1156 2273 1281 
Q 2116 1406 1581 1522 
L 1381 1569 
Q 847 1681 609 1914 
Q 372 2147 372 2553 
Q 372 3047 722 3315 
Q 1072 3584 1716 3584 
Q 2034 3584 2315 3537 
Q 2597 3491 2834 3397 
z
" transform="scale(0.015625)"/>
      <path id="DejaVuSans-75" d="M 544 1381 
L 544 3500 
L 1119 3500 
L 1119 1403 
Q 1119 906 1312 657 
Q 1506 409 1894 409 
Q 2359 409 2629 706 
Q 2900 1003 2900 1516 
L 2900 3500 
L 3475 3500 
L 3475 0 
L 2900 0 
L 2900 538 
Q 2691 219 2414 64 
Q 2138 -91 1772 -91 
Q 1169 -91 856 284 
Q 544 659 544 1381 
z
M 1991 3584 
L 1991 3584 
z
" transform="scale(0.015625)"/>
      <path id="DejaVuSans-61" d="M 2194 1759 
Q 1497 1759 1228 1600 
Q 959 1441 959 1056 
Q 959 750 1161 570 
Q 1363 391 1709 391 
Q 2188 391 2477 730 
Q 2766 1069 2766 1631 
L 2766 1759 
L 2194 1759 
z
M 3341 1997 
L 3341 0 
L 2766 0 
L 2766 531 
Q 2569 213 2275 61 
Q 1981 -91 1556 -91 
Q 1019 -91 701 211 
Q 384 513 384 1019 
Q 384 1609 779 1909 
Q 1175 2209 1959 2209 
L 2766 2209 
L 2766 2266 
Q 2766 2663 2505 2880 
Q 2244 3097 1772 3097 
Q 1472 3097 1187 3025 
Q 903 2953 641 2809 
L 641 3341 
Q 956 3463 1253 3523 
Q 1550 3584 1831 3584 
Q 2591 3584 2966 3190 
Q 3341 2797 3341 1997 
z
" transform="scale(0.015625)"/>
      <path id="DejaVuSans-7a" d="M 353 3500 
L 3084 3500 
L 3084 2975 
L 922 459 
L 3084 459 
L 3084 0 
L 275 0 
L 275 525 
L 2438 3041 
L 353 3041 
L 353 3500 
z
" transform="scale(0.015625)"/>
      <path id="DejaVuSans-6f" d="M 1959 3097 
Q 1497 3097 1228 2736 
Q 959 2375 959 1747 
Q 959 1119 1226 758 
Q 1494 397 1959 397 
Q 2419 397 2687 759 
Q 2956 1122 2956 1747 
Q 2956 2369 2687 2733 
Q 2419 3097 1959 3097 
z
M 1959 3584 
Q 2709 3584 3137 3096 
Q 3566 2609 3566 1747 
Q 3566 888 3137 398 
Q 2709 -91 1959 -91 
Q 1206 -91 779 398 
Q 353 888 353 1747 
Q 353 2609 779 3096 
Q 1206 3584 1959 3584 
z
" transform="scale(0.015625)"/>
      <path id="DejaVuSans-6e" d="M 3513 2113 
L 3513 0 
L 2938 0 
L 2938 2094 
Q 2938 2591 2744 2837 
Q 2550 3084 2163 3084 
Q 1697 3084 1428 2787 
Q 1159 2491 1159 1978 
L 1159 0 
L 581 0 
L 581 3500 
L 1159 3500 
L 1159 2956 
Q 1366 3272 1645 3428 
Q 1925 3584 2291 3584 
Q 2894 3584 3203 3211 
Q 3513 2838 3513 2113 
z
" transform="scale(0.015625)"/>
      <path id="DejaVuSans-3a" d="M 750 794 
L 1409 794 
L 1409 0 
L 750 0 
L 750 794 
z
M 750 3309 
L 1409 3309 
L 1409 2516 
L 750 2516 
L 750 3309 
z
" transform="scale(0.015625)"/>
      <path id="DejaVuSans-53" d="M 3425 4513 
L 3425 3897 
Q 3066 4069 2747 4153 
Q 2428 4238 2131 4238 
Q 1616 4238 1336 4038 
Q 1056 3838 1056 3469 
Q 1056 3159 1242 3001 
Q 1428 2844 1947 2747 
L 2328 2669 
Q 3034 2534 3370 2195 
Q 3706 1856 3706 1288 
Q 3706 609 3251 259 
Q 2797 -91 1919 -91 
Q 1588 -91 1214 -16 
Q 841 59 441 206 
L 441 856 
Q 825 641 1194 531 
Q 1563 422 1919 422 
Q 2459 422 2753 634 
Q 3047 847 3047 1241 
Q 3047 1584 2836 1778 
Q 2625 1972 2144 2069 
L 1759 2144 
Q 1053 2284 737 2584 
Q 422 2884 422 3419 
Q 422 4038 858 4394 
Q 1294 4750 2059 4750 
Q 2388 4750 2728 4690 
Q 3069 4631 3425 4513 
z
" transform="scale(0.015625)"/>
      <path id="DejaVuSans-65" d="M 3597 1894 
L 3597 1613 
L 953 1613 
Q 991 1019 1311 708 
Q 1631 397 2203 397 
Q 2534 397 2845 478 
Q 3156 559 3463 722 
L 3463 178 
Q 3153 47 2828 -22 
Q 2503 -91 2169 -91 
Q 1331 -91 842 396 
Q 353 884 353 1716 
Q 353 2575 817 3079 
Q 1281 3584 2069 3584 
Q 2775 3584 3186 3129 
Q 3597 2675 3597 1894 
z
M 3022 2063 
Q 3016 2534 2758 2815 
Q 2500 3097 2075 3097 
Q 1594 3097 1305 2825 
Q 1016 2553 972 2059 
L 3022 2063 
z
" transform="scale(0.015625)"/>
      <path id="DejaVuSans-45" d="M 628 4666 
L 3578 4666 
L 3578 4134 
L 1259 4134 
L 1259 2753 
L 3481 2753 
L 3481 2222 
L 1259 2222 
L 1259 531 
L 3634 531 
L 3634 0 
L 628 0 
L 628 4666 
z
" transform="scale(0.015625)"/>
      <path id="DejaVuSans-50" d="M 1259 4147 
L 1259 2394 
L 2053 2394 
Q 2494 2394 2734 2622 
Q 2975 2850 2975 3272 
Q 2975 3691 2734 3919 
Q 2494 4147 2053 4147 
L 1259 4147 
z
M 628 4666 
L 2053 4666 
Q 2838 4666 3239 4311 
Q 3641 3956 3641 3272 
Q 3641 2581 3239 2228 
Q 2838 1875 2053 1875 
L 1259 1875 
L 1259 0 
L 628 0 
L 628 4666 
z
" transform="scale(0.015625)"/>
      <path id="DejaVuSans-76" d="M 191 3500 
L 800 3500 
L 1894 563 
L 2988 3500 
L 3597 3500 
L 2284 0 
L 1503 0 
L 191 3500 
z
" transform="scale(0.015625)"/>
      <path id="DejaVuSans-49" d="M 628 4666 
L 1259 4666 
L 1259 0 
L 628 0 
L 628 4666 
z
" transform="scale(0.015625)"/>
      <path id="DejaVuSans-64" d="M 2906 2969 
L 2906 4863 
L 3481 4863 
L 3481 0 
L 2906 0 
L 2906 525 
Q 2725 213 2448 61 
Q 2172 -91 1784 -91 
Q 1150 -91 751 415 
Q 353 922 353 1747 
Q 353 2572 751 3078 
Q 1150 3584 1784 3584 
Q 2172 3584 2448 3432 
Q 2725 3281 2906 2969 
z
M 947 1747 
Q 947 1113 1208 752 
Q 1469 391 1925 391 
Q 2381 391 2643 752 
Q 2906 1113 2906 1747 
Q 2906 2381 2643 2742 
Q 2381 3103 1925 3103 
Q 1469 3103 1208 2742 
Q 947 2381 947 1747 
z
" transform="scale(0.015625)"/>
     </defs>
     <use xlink:href="#DejaVuSans-33"/>
     <use xlink:href="#DejaVuSans-44" transform="translate(63.623047 0)"/>
     <use xlink:href="#DejaVuSans-20" transform="translate(140.625 0)"/>
     <use xlink:href="#DejaVuSans-46" transform="translate(172.412109 0)"/>
     <use xlink:href="#DejaVuSans-6c" transform="translate(229.931641 0)"/>
     <use xlink:href="#DejaVuSans-69" transform="translate(257.714844 0)"/>
     <use xlink:href="#DejaVuSans-67" transform="translate(285.498047 0)"/>
     <use xlink:href="#DejaVuSans-68" transform="translate(348.974609 0)"/>
     <use xlink:href="#DejaVuSans-74" transform="translate(412.353516 0)"/>
     <use xlink:href="#DejaVuSans-20" transform="translate(451.5625 0)"/>
     <use xlink:href="#DejaVuSans-56" transform="translate(483.349609 0)"/>
     <use xlink:href="#DejaVuSans-69" transform="translate(549.507812 0)"/>
     <use xlink:href="#DejaVuSans-73" transform="translate(577.291016 0)"/>
     <use xlink:href="#DejaVuSans-75" transform="translate(629.390625 0)"/>
     <use xlink:href="#DejaVuSans-61" transform="translate(692.769531 0)"/>
     <use xlink:href="#DejaVuSans-6c" transform="translate(754.048828 0)"/>
     <use xlink:href="#DejaVuSans-69" transform="translate(781.832031 0)"/>
     <use xlink:href="#DejaVuSans-7a" transform="translate(809.615234 0)"/>
     <use xlink:href="#DejaVuSans-61" transform="translate(862.105469 0)"/>
     <use xlink:href="#DejaVuSans-74" transform="translate(923.384766 0)"/>
     <use xlink:href="#DejaVuSans-69" transform="translate(962.59375 0)"/>
     <use xlink:href="#DejaVuSans-6f" transform="translate(990.376953 0)"/>
     <use xlink:href="#DejaVuSans-6e" transform="translate(1051.558594 0)"/>
     <use xlink:href="#DejaVuSans-3a" transform="translate(1114.9375 0)"/>
     <use xlink:href="#DejaVuSans-20" transform="translate(1148.628906 0)"/>
     <use xlink:href="#DejaVuSans-53" transform="translate(1180.416016 0)"/>
     <use xlink:href="#DejaVuSans-74" transform="translate(1243.892578 0)"/>
     <use xlink:href="#DejaVuSans-61" transform="translate(1283.101562 0)"/>
     <use xlink:href="#DejaVuSans-74" transform="translate(1344.380859 0)"/>
     <use xlink:href="#DejaVuSans-65" transform="translate(1383.589844 0)"/>
     <use xlink:href="#DejaVuSans-20" transform="translate(1445.113281 0)"/>
     <use xlink:href="#DejaVuSans-45" transform="translate(1476.900391 0)"/>
     <use xlink:href="#DejaVuSans-73" transform="translate(1540.083984 0)"/>
     <use xlink:href="#DejaVuSans-74" transform="translate(1592.183594 0)"/>
     <use xlink:href="#DejaVuSans-69" transform="translate(1631.392578 0)"/>
     <use xlink:href="#DejaVuSans-6d" transform="translate(1659.175781 0)"/>
     <use xlink:href="#DejaVuSans-61" transform="translate(1756.587891 0)"/>
     <use xlink:href="#DejaVuSans-74" transform="translate(1817.867188 0)"/>
     <use xlink:href="#DejaVuSans-65" transform="translate(1857.076172 0)"/>
     <use xlink:href="#DejaVuSans-20" transform="translate(1918.599609 0)"/>
     <use xlink:href="#DejaVuSans-46" transform="translate(1950.386719 0)"/>
     <use xlink:href="#DejaVuSans-6c" transform="translate(2007.90625 0)"/>
     <use xlink:href="#DejaVuSans-69" transform="translate(2035.689453 0)"/>
     <use xlink:href="#DejaVuSans-67" transform="translate(2063.472656 0)"/>
     <use xlink:href="#DejaVuSans-68" transform="translate(2126.949219 0)"/>
     <use xlink:href="#DejaVuSans-74" transform="translate(2190.328125 0)"/>
     <use xlink:href="#DejaVuSans-20" transform="translate(2229.537109 0)"/>
     <use xlink:href="#DejaVuSans-50" transform="translate(2261.324219 0)"/>
     <use xlink:href="#DejaVuSans-61" transform="translate(2317.126953 0)"/>
     <use xlink:href="#DejaVuSans-74" transform="translate(2378.40625 0)"/>
     <use xlink:href="#DejaVuSans-68" transform="translate(2417.615234 0)"/>
     <use xlink:href="#DejaVuSans-20" transform="translate(2480.994141 0)"/>
     <use xlink:href="#DejaVuSans-76" transform="translate(2512.78125 0)"/>
     <use xlink:href="#DejaVuSans-73" transform="translate(2571.960938 0)"/>
     <use xlink:href="#DejaVuSans-2e" transform="translate(2624.060547 0)"/>
     <use xlink:href="#DejaVuSans-20" transform="translate(2655.847656 0)"/>
     <use xlink:href="#DejaVuSans-49" transform="translate(2687.634766 0)"/>
     <use xlink:href="#DejaVuSans-64" transform="translate(2717.126953 0)"/>
     <use xlink:href="#DejaVuSans-65" transform="translate(2780.603516 0)"/>
     <use xlink:href="#DejaVuSans-61" transform="translate(2842.126953 0)"/>
     <use xlink:href="#DejaVuSans-6c" transform="translate(2903.40625 0)"/>
    </g>
   </g>
   <g id="legend_1">
    <g id="patch_6">
     <path d="M 928.49625 75.3075 
L 1122.96 75.3075 
Q 1125.36 75.3075 1125.36 72.9075 
L 1125.36 38.88 
Q 1125.36 36.48 1122.96 36.48 
L 928.49625 36.48 
Q 926.09625 36.48 926.09625 38.88 
L 926.09625 72.9075 
Q 926.09625 75.3075 928.49625 75.3075 
z
" style="fill: #ffffff; opacity: 0.8; stroke: #cccccc; stroke-linejoin: miter"/>
    </g>
    <g id="line2d_29">
     <path d="M 930.89625 46.198125 
L 942.89625 46.198125 
L 954.89625 46.198125 
" style="fill: none; stroke: #0000ff; stroke-width: 2; stroke-linecap: square"/>
    </g>
    <g id="text_33">
     <!-- State Estimate Flight Path -->
     <g transform="translate(964.49625 50.398125) scale(0.12 -0.12)">
      <use xlink:href="#DejaVuSans-53"/>
      <use xlink:href="#DejaVuSans-74" transform="translate(63.476562 0)"/>
      <use xlink:href="#DejaVuSans-61" transform="translate(102.685547 0)"/>
      <use xlink:href="#DejaVuSans-74" transform="translate(163.964844 0)"/>
      <use xlink:href="#DejaVuSans-65" transform="translate(203.173828 0)"/>
      <use xlink:href="#DejaVuSans-20" transform="translate(264.697266 0)"/>
      <use xlink:href="#DejaVuSans-45" transform="translate(296.484375 0)"/>
      <use xlink:href="#DejaVuSans-73" transform="translate(359.667969 0)"/>
      <use xlink:href="#DejaVuSans-74" transform="translate(411.767578 0)"/>
      <use xlink:href="#DejaVuSans-69" transform="translate(450.976562 0)"/>
      <use xlink:href="#DejaVuSans-6d" transform="translate(478.759766 0)"/>
      <use xlink:href="#DejaVuSans-61" transform="translate(576.171875 0)"/>
      <use xlink:href="#DejaVuSans-74" transform="translate(637.451172 0)"/>
      <use xlink:href="#DejaVuSans-65" transform="translate(676.660156 0)"/>
      <use xlink:href="#DejaVuSans-20" transform="translate(738.183594 0)"/>
      <use xlink:href="#DejaVuSans-46" transform="translate(769.970703 0)"/>
      <use xlink:href="#DejaVuSans-6c" transform="translate(827.490234 0)"/>
      <use xlink:href="#DejaVuSans-69" transform="translate(855.273438 0)"/>
      <use xlink:href="#DejaVuSans-67" transform="translate(883.056641 0)"/>
      <use xlink:href="#DejaVuSans-68" transform="translate(946.533203 0)"/>
      <use xlink:href="#DejaVuSans-74" transform="translate(1009.912109 0)"/>
      <use xlink:href="#DejaVuSans-20" transform="translate(1049.121094 0)"/>
      <use xlink:href="#DejaVuSans-50" transform="translate(1080.908203 0)"/>
      <use xlink:href="#DejaVuSans-61" transform="translate(1136.710938 0)"/>
      <use xlink:href="#DejaVuSans-74" transform="translate(1197.990234 0)"/>
      <use xlink:href="#DejaVuSans-68" transform="translate(1237.199219 0)"/>
     </g>
    </g>
    <g id="line2d_30">
     <path d="M 930.89625 63.811875 
L 942.89625 63.811875 
L 954.89625 63.811875 
" style="fill: none; stroke-dasharray: 7.4,3.2; stroke-dashoffset: 0; stroke: #008000; stroke-width: 2"/>
    </g>
    <g id="text_34">
     <!-- Ideal Waypoints Path -->
     <g transform="translate(964.49625 68.011875) scale(0.12 -0.12)">
      <defs>
       <path id="DejaVuSans-57" d="M 213 4666 
L 850 4666 
L 1831 722 
L 2809 4666 
L 3519 4666 
L 4500 722 
L 5478 4666 
L 6119 4666 
L 4947 0 
L 4153 0 
L 3169 4050 
L 2175 0 
L 1381 0 
L 213 4666 
z
" transform="scale(0.015625)"/>
       <path id="DejaVuSans-79" d="M 2059 -325 
Q 1816 -950 1584 -1140 
Q 1353 -1331 966 -1331 
L 506 -1331 
L 506 -850 
L 844 -850 
Q 1081 -850 1212 -737 
Q 1344 -625 1503 -206 
L 1606 56 
L 191 3500 
L 800 3500 
L 1894 763 
L 2988 3500 
L 3597 3500 
L 2059 -325 
z
" transform="scale(0.015625)"/>
       <path id="DejaVuSans-70" d="M 1159 525 
L 1159 -1331 
L 581 -1331 
L 581 3500 
L 1159 3500 
L 1159 2969 
Q 1341 3281 1617 3432 
Q 1894 3584 2278 3584 
Q 2916 3584 3314 3078 
Q 3713 2572 3713 1747 
Q 3713 922 3314 415 
Q 2916 -91 2278 -91 
Q 1894 -91 1617 61 
Q 1341 213 1159 525 
z
M 3116 1747 
Q 3116 2381 2855 2742 
Q 2594 3103 2138 3103 
Q 1681 3103 1420 2742 
Q 1159 2381 1159 1747 
Q 1159 1113 1420 752 
Q 1681 391 2138 391 
Q 2594 391 2855 752 
Q 3116 1113 3116 1747 
z
" transform="scale(0.015625)"/>
      </defs>
      <use xlink:href="#DejaVuSans-49"/>
      <use xlink:href="#DejaVuSans-64" transform="translate(29.492188 0)"/>
      <use xlink:href="#DejaVuSans-65" transform="translate(92.96875 0)"/>
      <use xlink:href="#DejaVuSans-61" transform="translate(154.492188 0)"/>
      <use xlink:href="#DejaVuSans-6c" transform="translate(215.771484 0)"/>
      <use xlink:href="#DejaVuSans-20" transform="translate(243.554688 0)"/>
      <use xlink:href="#DejaVuSans-57" transform="translate(275.341797 0)"/>
      <use xlink:href="#DejaVuSans-61" transform="translate(367.84375 0)"/>
      <use xlink:href="#DejaVuSans-79" transform="translate(429.123047 0)"/>
      <use xlink:href="#DejaVuSans-70" transform="translate(488.302734 0)"/>
      <use xlink:href="#DejaVuSans-6f" transform="translate(551.779297 0)"/>
      <use xlink:href="#DejaVuSans-69" transform="translate(612.960938 0)"/>
      <use xlink:href="#DejaVuSans-6e" transform="translate(640.744141 0)"/>
      <use xlink:href="#DejaVuSans-74" transform="translate(704.123047 0)"/>
      <use xlink:href="#DejaVuSans-73" transform="translate(743.332031 0)"/>
      <use xlink:href="#DejaVuSans-20" transform="translate(795.431641 0)"/>
      <use xlink:href="#DejaVuSans-50" transform="translate(827.21875 0)"/>
      <use xlink:href="#DejaVuSans-61" transform="translate(883.021484 0)"/>
      <use xlink:href="#DejaVuSans-74" transform="translate(944.300781 0)"/>
      <use xlink:href="#DejaVuSans-68" transform="translate(983.509766 0)"/>
     </g>
    </g>
   </g>
  </g>
 </g>
 <defs>
  <clipPath id="p904869d2ad">
   <rect x="164.64" y="30.48" width="966.72" height="966.72"/>
  </clipPath>
 </defs>
</svg>
