<?xml version="1.0" encoding="utf-8" standalone="no"?>
<!DOCTYPE svg PUBLIC "-//W3C//DTD SVG 1.1//EN"
  "http://www.w3.org/Graphics/SVG/1.1/DTD/svg11.dtd">
<svg xmlns:xlink="http://www.w3.org/1999/xlink" width="1296pt" height="1008pt" viewBox="0 0 1296 1008" xmlns="http://www.w3.org/2000/svg" version="1.1">
 <metadata>
  <rdf:RDF xmlns:dc="http://purl.org/dc/elements/1.1/" xmlns:cc="http://creativecommons.org/ns#" xmlns:rdf="http://www.w3.org/1999/02/22-rdf-syntax-ns#">
   <cc:Work>
    <dc:type rdf:resource="http://purl.org/dc/dcmitype/StillImage"/>
    <dc:date>2025-08-28T06:02:23.695961</dc:date>
    <dc:format>image/svg+xml</dc:format>
    <dc:creator>
     <cc:Agent>
      <dc:title>Matplotlib v3.10.3, https://matplotlib.org/</dc:title>
     </cc:Agent>
    </dc:creator>
   </cc:Work>
  </rdf:RDF>
 </metadata>
 <defs>
  <style type="text/css">*{stroke-linejoin: round; stroke-linecap: butt}</style>
 </defs>
 <g id="figure_1">
  <g id="patch_1">
   <path d="M 0 1008 
L 1296 1008 
L 1296 0 
L 0 0 
z
" style="fill: #ffffff"/>
  </g>
  <g id="patch_2">
   <path d="M 164.64 997.2 
L 1131.36 997.2 
L 1131.36 30.48 
L 164.64 30.48 
z
" style="fill: #ffffff"/>
  </g>
  <g id="pane3d_1">
   <g id="patch_3">
    <path d="M 661.063784 581.893746 
L 263.758321 755.391958 
L 244.84442 234.039381 
L 661.063784 87.939602 
" style="fill: #f2f2f2; opacity: 0.5; stroke: #f2f2f2; stroke-linejoin: miter"/>
   </g>
  </g>
  <g id="pane3d_2">
   <g id="patch_4">
    <path d="M 1058.369247 755.391958 
L 661.063784 581.893746 
L 661.063784 87.939602 
L 1077.283147 234.039381 
" style="fill: #e6e6e6; opacity: 0.5; stroke: #e6e6e6; stroke-linejoin: miter"/>
   </g>
  </g>
  <g id="pane3d_3">
   <g id="patch_5">
    <path d="M 1058.369247 755.391958 
L 661.063784 581.893746 
L 263.758321 755.391958 
L 661.063784 954.570688 
" style="fill: #ececec; opacity: 0.5; stroke: #ececec; stroke-linejoin: miter"/>
   </g>
  </g>
  <g id="grid3d_1">
   <g id="Line3DCollection_1">
    <path d="M 602.905913 925.414757 
L 1000.44727 730.098172 
L 1016.444768 212.684118 
" style="fill: none; stroke: #b0b0b0; stroke-width: 0.8"/>
    <path d="M 518.030138 882.864501 
L 915.77101 693.121132 
L 927.602871 181.499165 
" style="fill: none; stroke: #b0b0b0; stroke-width: 0.8"/>
    <path d="M 435.641709 841.561211 
L 833.411495 657.155786 
L 841.302989 151.2065 
" style="fill: none; stroke: #b0b0b0; stroke-width: 0.8"/>
    <path d="M 355.632867 801.450865 
L 753.27493 622.161174 
L 757.437562 121.768368 
" style="fill: none; stroke: #b0b0b0; stroke-width: 0.8"/>
    <path d="M 277.901985 762.482515 
L 675.272514 588.098517 
L 675.905009 93.149114 
" style="fill: none; stroke: #b0b0b0; stroke-width: 0.8"/>
   </g>
  </g>
  <g id="grid3d_2">
   <g id="Line3DCollection_2">
    <path d="M 625.093364 100.565805 
L 626.631695 596.929799 
L 1024.086546 772.578696 
" style="fill: none; stroke: #b0b0b0; stroke-width: 0.8"/>
    <path d="M 577.815741 117.161021 
L 581.403734 616.68027 
L 979.011899 795.175694 
" style="fill: none; stroke: #b0b0b0; stroke-width: 0.8"/>
    <path d="M 529.761261 134.028927 
L 535.464879 636.74118 
L 933.178809 818.152918 
" style="fill: none; stroke: #b0b0b0; stroke-width: 0.8"/>
    <path d="M 480.910619 151.176298 
L 488.798237 657.119906 
L 886.567971 841.520046 
" style="fill: none; stroke: #b0b0b0; stroke-width: 0.8"/>
    <path d="M 431.243864 168.610139 
L 441.386375 677.824059 
L 839.159419 865.287087 
" style="fill: none; stroke: #b0b0b0; stroke-width: 0.8"/>
    <path d="M 380.740371 186.337688 
L 393.211298 698.861499 
L 790.932498 889.464396 
" style="fill: none; stroke: #b0b0b0; stroke-width: 0.8"/>
    <path d="M 329.378816 204.366431 
L 344.254428 720.240338 
L 741.865833 914.062689 
" style="fill: none; stroke: #b0b0b0; stroke-width: 0.8"/>
    <path d="M 277.137144 222.704109 
L 294.496579 741.968954 
L 691.937298 939.093057 
" style="fill: none; stroke: #b0b0b0; stroke-width: 0.8"/>
   </g>
  </g>
  <g id="grid3d_3">
   <g id="Line3DCollection_3">
    <path d="M 1058.369247 755.391958 
L 661.063784 581.893746 
L 263.758321 755.391958 
" style="fill: none; stroke: #b0b0b0; stroke-width: 0.8"/>
    <path d="M 1060.638941 692.828933 
L 661.063784 522.458548 
L 261.488627 692.828933 
" style="fill: none; stroke: #b0b0b0; stroke-width: 0.8"/>
    <path d="M 1062.934716 629.546992 
L 661.063784 462.384877 
L 259.192852 629.546992 
" style="fill: none; stroke: #b0b0b0; stroke-width: 0.8"/>
    <path d="M 1065.257025 565.533671 
L 661.063784 401.662389 
L 256.870543 565.533671 
" style="fill: none; stroke: #b0b0b0; stroke-width: 0.8"/>
    <path d="M 1067.606329 500.776216 
L 661.063784 340.280517 
L 254.521238 500.776216 
" style="fill: none; stroke: #b0b0b0; stroke-width: 0.8"/>
    <path d="M 1069.983103 435.261577 
L 661.063784 278.22846 
L 252.144464 435.261577 
" style="fill: none; stroke: #b0b0b0; stroke-width: 0.8"/>
    <path d="M 1072.387832 368.976396 
L 661.063784 215.495184 
L 249.739736 368.976396 
" style="fill: none; stroke: #b0b0b0; stroke-width: 0.8"/>
    <path d="M 1074.82101 301.906997 
L 661.063784 152.069408 
L 247.306557 301.906997 
" style="fill: none; stroke: #b0b0b0; stroke-width: 0.8"/>
    <path d="M 1077.283147 234.039381 
L 661.063784 87.939602 
L 244.84442 234.039381 
" style="fill: none; stroke: #b0b0b0; stroke-width: 0.8"/>
   </g>
  </g>
  <g id="axis3d_1">
   <g id="line2d_1">
    <path d="M 263.758321 755.391958 
L 661.063784 954.570688 
" style="fill: none; stroke: #000000; stroke-width: 0.8; stroke-linecap: square"/>
   </g>
   <g id="xtick_1">
    <g id="line2d_2">
     <path d="M 606.31724 923.738733 
L 596.071248 928.772705 
" style="fill: none; stroke: #000000; stroke-width: 0.8; stroke-linecap: square"/>
    </g>
    <g id="text_1">
     <!-- −4 -->
     <g transform="translate(585.848377 949.707694) scale(0.1 -0.1)">
      <defs>
       <path id="DejaVuSans-2212" d="M 678 2272 
L 4684 2272 
L 4684 1741 
L 678 1741 
L 678 2272 
z
" transform="scale(0.015625)"/>
       <path id="DejaVuSans-34" d="M 2419 4116 
L 825 1625 
L 2419 1625 
L 2419 4116 
z
M 2253 4666 
L 3047 4666 
L 3047 1625 
L 3713 1625 
L 3713 1100 
L 3047 1100 
L 3047 0 
L 2419 0 
L 2419 1100 
L 313 1100 
L 313 1709 
L 2253 4666 
z
" transform="scale(0.015625)"/>
      </defs>
      <use xlink:href="#DejaVuSans-2212"/>
      <use xlink:href="#DejaVuSans-34" transform="translate(83.789062 0)"/>
     </g>
    </g>
   </g>
   <g id="xtick_2">
    <g id="line2d_3">
     <path d="M 521.439742 881.23794 
L 511.199103 886.123264 
" style="fill: none; stroke: #000000; stroke-width: 0.8; stroke-linecap: square"/>
    </g>
    <g id="text_2">
     <!-- −2 -->
     <g transform="translate(501.069055 906.88514) scale(0.1 -0.1)">
      <defs>
       <path id="DejaVuSans-32" d="M 1228 531 
L 3431 531 
L 3431 0 
L 469 0 
L 469 531 
Q 828 903 1448 1529 
Q 2069 2156 2228 2338 
Q 2531 2678 2651 2914 
Q 2772 3150 2772 3378 
Q 2772 3750 2511 3984 
Q 2250 4219 1831 4219 
Q 1534 4219 1204 4116 
Q 875 4013 500 3803 
L 500 4441 
Q 881 4594 1212 4672 
Q 1544 4750 1819 4750 
Q 2544 4750 2975 4387 
Q 3406 4025 3406 3419 
Q 3406 3131 3298 2873 
Q 3191 2616 2906 2266 
Q 2828 2175 2409 1742 
Q 1991 1309 1228 531 
z
" transform="scale(0.015625)"/>
      </defs>
      <use xlink:href="#DejaVuSans-2212"/>
      <use xlink:href="#DejaVuSans-32" transform="translate(83.789062 0)"/>
     </g>
    </g>
   </g>
   <g id="xtick_3">
    <g id="line2d_4">
     <path d="M 439.048227 839.981955 
L 428.817032 844.72512 
" style="fill: none; stroke: #000000; stroke-width: 0.8; stroke-linecap: square"/>
    </g>
    <g id="text_3">
     <!-- 0 -->
     <g transform="translate(422.965472 865.318226) scale(0.1 -0.1)">
      <defs>
       <path id="DejaVuSans-30" d="M 2034 4250 
Q 1547 4250 1301 3770 
Q 1056 3291 1056 2328 
Q 1056 1369 1301 889 
Q 1547 409 2034 409 
Q 2525 409 2770 889 
Q 3016 1369 3016 2328 
Q 3016 3291 2770 3770 
Q 2525 4250 2034 4250 
z
M 2034 4750 
Q 2819 4750 3233 4129 
Q 3647 3509 3647 2328 
Q 3647 1150 3233 529 
Q 2819 -91 2034 -91 
Q 1250 -91 836 529 
Q 422 1150 422 2328 
Q 422 3509 836 4129 
Q 1250 4750 2034 4750 
z
" transform="scale(0.015625)"/>
      </defs>
      <use xlink:href="#DejaVuSans-30"/>
     </g>
    </g>
   </g>
   <g id="xtick_4">
    <g id="line2d_5">
     <path d="M 359.035054 799.91688 
L 348.817034 804.524002 
" style="fill: none; stroke: #000000; stroke-width: 0.8; stroke-linecap: square"/>
    </g>
    <g id="text_4">
     <!-- 2 -->
     <g transform="translate(343.050184 824.952524) scale(0.1 -0.1)">
      <use xlink:href="#DejaVuSans-32"/>
     </g>
    </g>
   </g>
   <g id="xtick_5">
    <g id="line2d_6">
     <path d="M 281.298706 760.991882 
L 271.097267 765.46873 
" style="fill: none; stroke: #000000; stroke-width: 0.8; stroke-linecap: square"/>
    </g>
    <g id="text_5">
     <!-- 4 -->
     <g transform="translate(265.411417 785.736707) scale(0.1 -0.1)">
      <use xlink:href="#DejaVuSans-34"/>
     </g>
    </g>
   </g>
   <g id="text_6">
    <!-- X (m) -->
    <g transform="translate(415.633159 881.518553) rotate(-333.374297) scale(0.14 -0.14)">
     <defs>
      <path id="DejaVuSans-58" d="M 403 4666 
L 1081 4666 
L 2241 2931 
L 3406 4666 
L 4084 4666 
L 2584 2425 
L 4184 0 
L 3506 0 
L 2194 1984 
L 872 0 
L 191 0 
L 1856 2491 
L 403 4666 
z
" transform="scale(0.015625)"/>
      <path id="DejaVuSans-20" transform="scale(0.015625)"/>
      <path id="DejaVuSans-28" d="M 1984 4856 
Q 1566 4138 1362 3434 
Q 1159 2731 1159 2009 
Q 1159 1288 1364 580 
Q 1569 -128 1984 -844 
L 1484 -844 
Q 1016 -109 783 600 
Q 550 1309 550 2009 
Q 550 2706 781 3412 
Q 1013 4119 1484 4856 
L 1984 4856 
z
" transform="scale(0.015625)"/>
      <path id="DejaVuSans-6d" d="M 3328 2828 
Q 3544 3216 3844 3400 
Q 4144 3584 4550 3584 
Q 5097 3584 5394 3201 
Q 5691 2819 5691 2113 
L 5691 0 
L 5113 0 
L 5113 2094 
Q 5113 2597 4934 2840 
Q 4756 3084 4391 3084 
Q 3944 3084 3684 2787 
Q 3425 2491 3425 1978 
L 3425 0 
L 2847 0 
L 2847 2094 
Q 2847 2600 2669 2842 
Q 2491 3084 2119 3084 
Q 1678 3084 1418 2786 
Q 1159 2488 1159 1978 
L 1159 0 
L 581 0 
L 581 3500 
L 1159 3500 
L 1159 2956 
Q 1356 3278 1631 3431 
Q 1906 3584 2284 3584 
Q 2666 3584 2933 3390 
Q 3200 3197 3328 2828 
z
" transform="scale(0.015625)"/>
      <path id="DejaVuSans-29" d="M 513 4856 
L 1013 4856 
Q 1481 4119 1714 3412 
Q 1947 2706 1947 2009 
Q 1947 1309 1714 600 
Q 1481 -109 1013 -844 
L 513 -844 
Q 928 -128 1133 580 
Q 1338 1288 1338 2009 
Q 1338 2731 1133 3434 
Q 928 4138 513 4856 
z
" transform="scale(0.015625)"/>
     </defs>
     <use xlink:href="#DejaVuSans-58"/>
     <use xlink:href="#DejaVuSans-20" transform="translate(68.505859 0)"/>
     <use xlink:href="#DejaVuSans-28" transform="translate(100.292969 0)"/>
     <use xlink:href="#DejaVuSans-6d" transform="translate(139.306641 0)"/>
     <use xlink:href="#DejaVuSans-29" transform="translate(236.71875 0)"/>
    </g>
   </g>
  </g>
  <g id="axis3d_2">
   <g id="line2d_7">
    <path d="M 1058.369247 755.391958 
L 661.063784 954.570688 
" style="fill: none; stroke: #000000; stroke-width: 0.8; stroke-linecap: square"/>
   </g>
   <g id="xtick_6">
    <g id="line2d_8">
     <path d="M 1020.688289 771.07689 
L 1030.894382 775.587312 
" style="fill: none; stroke: #000000; stroke-width: 0.8; stroke-linecap: square"/>
    </g>
    <g id="text_7">
     <!-- −5 -->
     <g transform="translate(1026.048751 795.896945) scale(0.1 -0.1)">
      <defs>
       <path id="DejaVuSans-35" d="M 691 4666 
L 3169 4666 
L 3169 4134 
L 1269 4134 
L 1269 2991 
Q 1406 3038 1543 3061 
Q 1681 3084 1819 3084 
Q 2600 3084 3056 2656 
Q 3513 2228 3513 1497 
Q 3513 744 3044 326 
Q 2575 -91 1722 -91 
Q 1428 -91 1123 -41 
Q 819 9 494 109 
L 494 744 
Q 775 591 1075 516 
Q 1375 441 1709 441 
Q 2250 441 2565 725 
Q 2881 1009 2881 1497 
Q 2881 1984 2565 2268 
Q 2250 2553 1709 2553 
Q 1456 2553 1204 2497 
Q 953 2441 691 2322 
L 691 4666 
z
" transform="scale(0.015625)"/>
      </defs>
      <use xlink:href="#DejaVuSans-2212"/>
      <use xlink:href="#DejaVuSans-35" transform="translate(83.789062 0)"/>
     </g>
    </g>
   </g>
   <g id="xtick_7">
    <g id="line2d_9">
     <path d="M 975.610508 793.648732 
L 985.826109 798.23475 
" style="fill: none; stroke: #000000; stroke-width: 0.8; stroke-linecap: square"/>
    </g>
    <g id="text_8">
     <!-- −4 -->
     <g transform="translate(981.027485 818.637462) scale(0.1 -0.1)">
      <use xlink:href="#DejaVuSans-2212"/>
      <use xlink:href="#DejaVuSans-34" transform="translate(83.789062 0)"/>
     </g>
    </g>
   </g>
   <g id="xtick_8">
    <g id="line2d_10">
     <path d="M 929.774659 816.600162 
L 939.998644 821.263692 
" style="fill: none; stroke: #000000; stroke-width: 0.8; stroke-linecap: square"/>
    </g>
    <g id="text_9">
     <!-- −3 -->
     <g transform="translate(935.248259 841.76083) scale(0.1 -0.1)">
      <defs>
       <path id="DejaVuSans-33" d="M 2597 2516 
Q 3050 2419 3304 2112 
Q 3559 1806 3559 1356 
Q 3559 666 3084 287 
Q 2609 -91 1734 -91 
Q 1441 -91 1130 -33 
Q 819 25 488 141 
L 488 750 
Q 750 597 1062 519 
Q 1375 441 1716 441 
Q 2309 441 2620 675 
Q 2931 909 2931 1356 
Q 2931 1769 2642 2001 
Q 2353 2234 1838 2234 
L 1294 2234 
L 1294 2753 
L 1863 2753 
Q 2328 2753 2575 2939 
Q 2822 3125 2822 3475 
Q 2822 3834 2567 4026 
Q 2313 4219 1838 4219 
Q 1578 4219 1281 4162 
Q 984 4106 628 3988 
L 628 4550 
Q 988 4650 1302 4700 
Q 1616 4750 1894 4750 
Q 2613 4750 3031 4423 
Q 3450 4097 3450 3541 
Q 3450 3153 3228 2886 
Q 3006 2619 2597 2516 
z
" transform="scale(0.015625)"/>
      </defs>
      <use xlink:href="#DejaVuSans-2212"/>
      <use xlink:href="#DejaVuSans-33" transform="translate(83.789062 0)"/>
     </g>
    </g>
   </g>
   <g id="xtick_9">
    <g id="line2d_11">
     <path d="M 883.161457 839.940837 
L 893.39264 844.683862 
" style="fill: none; stroke: #000000; stroke-width: 0.8; stroke-linecap: square"/>
    </g>
    <g id="text_10">
     <!-- −2 -->
     <g transform="translate(888.691769 865.276798) scale(0.1 -0.1)">
      <use xlink:href="#DejaVuSans-2212"/>
      <use xlink:href="#DejaVuSans-32" transform="translate(83.789062 0)"/>
     </g>
    </g>
   </g>
   <g id="xtick_10">
    <g id="line2d_12">
     <path d="M 835.750958 863.680743 
L 845.988089 868.505312 
" style="fill: none; stroke: #000000; stroke-width: 0.8; stroke-linecap: square"/>
    </g>
    <g id="text_11">
     <!-- −1 -->
     <g transform="translate(841.33805 889.195452) scale(0.1 -0.1)">
      <defs>
       <path id="DejaVuSans-31" d="M 794 531 
L 1825 531 
L 1825 4091 
L 703 3866 
L 703 4441 
L 1819 4666 
L 2450 4666 
L 2450 531 
L 3481 531 
L 3481 0 
L 794 0 
L 794 531 
z
" transform="scale(0.015625)"/>
      </defs>
      <use xlink:href="#DejaVuSans-2212"/>
      <use xlink:href="#DejaVuSans-31" transform="translate(83.789062 0)"/>
     </g>
    </g>
   </g>
   <g id="xtick_11">
    <g id="line2d_13">
     <path d="M 787.522529 887.830211 
L 797.764289 892.738447 
" style="fill: none; stroke: #000000; stroke-width: 0.8; stroke-linecap: square"/>
    </g>
    <g id="text_12">
     <!-- 0 -->
     <g transform="translate(797.356292 913.527223) scale(0.1 -0.1)">
      <use xlink:href="#DejaVuSans-30"/>
     </g>
    </g>
   </g>
   <g id="xtick_12">
    <g id="line2d_14">
     <path d="M 738.45482 912.399934 
L 748.699819 917.39403 
" style="fill: none; stroke: #000000; stroke-width: 0.8; stroke-linecap: square"/>
    </g>
    <g id="text_13">
     <!-- 1 -->
     <g transform="translate(748.345433 938.282908) scale(0.1 -0.1)">
      <use xlink:href="#DejaVuSans-31"/>
     </g>
    </g>
   </g>
   <g id="xtick_13">
    <g id="line2d_15">
     <path d="M 688.525731 937.400976 
L 698.772501 942.483206 
" style="fill: none; stroke: #000000; stroke-width: 0.8; stroke-linecap: square"/>
    </g>
    <g id="text_14">
     <!-- 2 -->
     <g transform="translate(698.473192 963.473683) scale(0.1 -0.1)">
      <use xlink:href="#DejaVuSans-32"/>
     </g>
    </g>
   </g>
   <g id="text_15">
    <!-- Y (m) -->
    <g transform="translate(872.45169 898.584982) rotate(-26.625703) scale(0.14 -0.14)">
     <defs>
      <path id="DejaVuSans-59" d="M -13 4666 
L 666 4666 
L 1959 2747 
L 3244 4666 
L 3922 4666 
L 2272 2222 
L 2272 0 
L 1638 0 
L 1638 2222 
L -13 4666 
z
" transform="scale(0.015625)"/>
     </defs>
     <use xlink:href="#DejaVuSans-59"/>
     <use xlink:href="#DejaVuSans-20" transform="translate(61.083984 0)"/>
     <use xlink:href="#DejaVuSans-28" transform="translate(92.871094 0)"/>
     <use xlink:href="#DejaVuSans-6d" transform="translate(131.884766 0)"/>
     <use xlink:href="#DejaVuSans-29" transform="translate(229.296875 0)"/>
    </g>
   </g>
  </g>
  <g id="axis3d_3">
   <g id="line2d_16">
    <path d="M 1058.369247 755.391958 
L 1077.283147 234.039381 
" style="fill: none; stroke: #000000; stroke-width: 0.8; stroke-linecap: square"/>
   </g>
   <g id="xtick_14">
    <g id="line2d_17">
     <path d="M 1054.973654 753.909146 
L 1065.171676 758.362492 
" style="fill: none; stroke: #000000; stroke-width: 0.8; stroke-linecap: square"/>
    </g>
    <g id="text_16">
     <!-- 0.00 -->
     <g transform="translate(1065.385442 762.990395) scale(0.1 -0.1)">
      <defs>
       <path id="DejaVuSans-2e" d="M 684 794 
L 1344 794 
L 1344 0 
L 684 0 
L 684 794 
z
" transform="scale(0.015625)"/>
      </defs>
      <use xlink:href="#DejaVuSans-30"/>
      <use xlink:href="#DejaVuSans-2e" transform="translate(63.623047 0)"/>
      <use xlink:href="#DejaVuSans-30" transform="translate(95.410156 0)"/>
      <use xlink:href="#DejaVuSans-30" transform="translate(159.033203 0)"/>
     </g>
    </g>
   </g>
   <g id="xtick_15">
    <g id="line2d_18">
     <path d="M 1057.222703 691.372322 
L 1067.482793 695.747007 
" style="fill: none; stroke: #000000; stroke-width: 0.8; stroke-linecap: square"/>
    </g>
    <g id="text_17">
     <!-- 0.25 -->
     <g transform="translate(1067.758817 700.427371) scale(0.1 -0.1)">
      <use xlink:href="#DejaVuSans-30"/>
      <use xlink:href="#DejaVuSans-2e" transform="translate(63.623047 0)"/>
      <use xlink:href="#DejaVuSans-32" transform="translate(95.410156 0)"/>
      <use xlink:href="#DejaVuSans-35" transform="translate(159.033203 0)"/>
     </g>
    </g>
   </g>
   <g id="xtick_16">
    <g id="line2d_19">
     <path d="M 1059.497581 628.117283 
L 1069.820497 632.411199 
" style="fill: none; stroke: #000000; stroke-width: 0.8; stroke-linecap: square"/>
    </g>
    <g id="text_18">
     <!-- 0.50 -->
     <g transform="translate(1070.159463 637.14543) scale(0.1 -0.1)">
      <use xlink:href="#DejaVuSans-30"/>
      <use xlink:href="#DejaVuSans-2e" transform="translate(63.623047 0)"/>
      <use xlink:href="#DejaVuSans-35" transform="translate(95.410156 0)"/>
      <use xlink:href="#DejaVuSans-30" transform="translate(159.033203 0)"/>
     </g>
    </g>
   </g>
   <g id="xtick_17">
    <g id="line2d_20">
     <path d="M 1061.798737 564.131584 
L 1072.185249 568.342567 
" style="fill: none; stroke: #000000; stroke-width: 0.8; stroke-linecap: square"/>
    </g>
    <g id="text_19">
     <!-- 0.75 -->
     <g transform="translate(1072.587856 573.132108) scale(0.1 -0.1)">
      <defs>
       <path id="DejaVuSans-37" d="M 525 4666 
L 3525 4666 
L 3525 4397 
L 1831 0 
L 1172 0 
L 2766 4134 
L 525 4134 
L 525 4666 
z
" transform="scale(0.015625)"/>
      </defs>
      <use xlink:href="#DejaVuSans-30"/>
      <use xlink:href="#DejaVuSans-2e" transform="translate(63.623047 0)"/>
      <use xlink:href="#DejaVuSans-37" transform="translate(95.410156 0)"/>
      <use xlink:href="#DejaVuSans-35" transform="translate(159.033203 0)"/>
     </g>
    </g>
   </g>
   <g id="xtick_18">
    <g id="line2d_21">
     <path d="M 1064.126628 499.402493 
L 1074.577522 503.528318 
" style="fill: none; stroke: #000000; stroke-width: 0.8; stroke-linecap: square"/>
    </g>
    <g id="text_20">
     <!-- 1.00 -->
     <g transform="translate(1075.044477 508.374654) scale(0.1 -0.1)">
      <use xlink:href="#DejaVuSans-31"/>
      <use xlink:href="#DejaVuSans-2e" transform="translate(63.623047 0)"/>
      <use xlink:href="#DejaVuSans-30" transform="translate(95.410156 0)"/>
      <use xlink:href="#DejaVuSans-30" transform="translate(159.033203 0)"/>
     </g>
    </g>
   </g>
   <g id="xtick_19">
    <g id="line2d_22">
     <path d="M 1066.481723 433.916978 
L 1076.997798 437.955359 
" style="fill: none; stroke: #000000; stroke-width: 0.8; stroke-linecap: square"/>
    </g>
    <g id="text_21">
     <!-- 1.25 -->
     <g transform="translate(1077.529823 442.860015) scale(0.1 -0.1)">
      <use xlink:href="#DejaVuSans-31"/>
      <use xlink:href="#DejaVuSans-2e" transform="translate(63.623047 0)"/>
      <use xlink:href="#DejaVuSans-32" transform="translate(95.410156 0)"/>
      <use xlink:href="#DejaVuSans-35" transform="translate(159.033203 0)"/>
     </g>
    </g>
   </g>
   <g id="xtick_20">
    <g id="line2d_23">
     <path d="M 1068.864501 367.661702 
L 1079.446573 371.61029 
" style="fill: none; stroke: #000000; stroke-width: 0.8; stroke-linecap: square"/>
    </g>
    <g id="text_22">
     <!-- 1.50 -->
     <g transform="translate(1080.0444 376.574833) scale(0.1 -0.1)">
      <use xlink:href="#DejaVuSans-31"/>
      <use xlink:href="#DejaVuSans-2e" transform="translate(63.623047 0)"/>
      <use xlink:href="#DejaVuSans-35" transform="translate(95.410156 0)"/>
      <use xlink:href="#DejaVuSans-30" transform="translate(159.033203 0)"/>
     </g>
    </g>
   </g>
   <g id="xtick_21">
    <g id="line2d_24">
     <path d="M 1071.275453 300.623012 
L 1081.924352 304.479393 
" style="fill: none; stroke: #000000; stroke-width: 0.8; stroke-linecap: square"/>
    </g>
    <g id="text_23">
     <!-- 1.75 -->
     <g transform="translate(1082.588727 309.505434) scale(0.1 -0.1)">
      <use xlink:href="#DejaVuSans-31"/>
      <use xlink:href="#DejaVuSans-2e" transform="translate(63.623047 0)"/>
      <use xlink:href="#DejaVuSans-37" transform="translate(95.410156 0)"/>
      <use xlink:href="#DejaVuSans-35" transform="translate(159.033203 0)"/>
     </g>
    </g>
   </g>
   <g id="xtick_22">
    <g id="line2d_25">
     <path d="M 1073.715082 232.786932 
L 1084.431655 236.548624 
" style="fill: none; stroke: #000000; stroke-width: 0.8; stroke-linecap: square"/>
    </g>
    <g id="text_24">
     <!-- 2.00 -->
     <g transform="translate(1085.163334 241.637818) scale(0.1 -0.1)">
      <use xlink:href="#DejaVuSans-32"/>
      <use xlink:href="#DejaVuSans-2e" transform="translate(63.623047 0)"/>
      <use xlink:href="#DejaVuSans-30" transform="translate(95.410156 0)"/>
      <use xlink:href="#DejaVuSans-30" transform="translate(159.033203 0)"/>
     </g>
    </g>
   </g>
   <g id="text_25">
    <!-- Z (m) -->
    <g transform="translate(1111.138841 520.203897) rotate(-87.922305) scale(0.14 -0.14)">
     <defs>
      <path id="DejaVuSans-5a" d="M 359 4666 
L 4025 4666 
L 4025 4184 
L 1075 531 
L 4097 531 
L 4097 0 
L 288 0 
L 288 481 
L 3238 4134 
L 359 4134 
L 359 4666 
z
" transform="scale(0.015625)"/>
     </defs>
     <use xlink:href="#DejaVuSans-5a"/>
     <use xlink:href="#DejaVuSans-20" transform="translate(68.505859 0)"/>
     <use xlink:href="#DejaVuSans-28" transform="translate(100.292969 0)"/>
     <use xlink:href="#DejaVuSans-6d" transform="translate(139.306641 0)"/>
     <use xlink:href="#DejaVuSans-29" transform="translate(236.71875 0)"/>
    </g>
   </g>
  </g>
  <g id="axes_1">
   <g id="line2d_26">
    <path d="M 561.307162 791.775812 
L 561.232089 791.925264 
L 561.461497 792.096146 
L 561.292278 792.127253 
L 560.928361 791.918974 
L 559.80921 792.034286 
L 559.817821 792.037476 
L 560.144883 792.588707 
L 560.1738 792.417037 
L 560.322906 792.134394 
L 559.354448 791.984871 
L 559.132236 791.756866 
L 559.683742 791.89955 
L 560.164585 792.357643 
L 560.118933 792.395599 
L 559.878169 792.414141 
L 560.093147 792.383518 
L 559.744074 792.191192 
L 560.327228 792.333338 
L 559.650755 792.108362 
L 559.839094 791.880955 
L 559.990996 792.046785 
L 560.49731 792.324311 
L 560.708616 792.637166 
L 560.675128 792.529407 
L 560.377888 792.370098 
L 560.310433 792.47286 
L 559.795275 792.3401 
L 559.025651 792.300743 
L 559.234737 792.617604 
L 559.809861 792.953867 
L 559.851851 792.801161 
L 558.73606 792.979095 
L 558.59636 793.274293 
L 558.674354 794.695302 
L 558.887216 794.693343 
L 558.543611 794.429835 
L 558.172088 794.775725 
L 557.6648 794.758358 
L 557.710436 794.950083 
L 557.224273 795.47775 
L 557.748768 796.037827 
L 558.337846 796.131913 
L 558.34824 795.837433 
L 558.018955 795.850916 
L 557.682923 796.074759 
L 556.916202 795.621033 
L 556.594275 795.918301 
L 556.666173 796.612086 
L 556.12487 797.282442 
L 555.772751 796.597908 
L 555.442741 796.852475 
L 556.121451 797.567069 
L 556.208963 797.484939 
L 556.529185 797.878217 
L 556.468849 797.830839 
L 556.129452 797.973245 
L 555.341678 797.963664 
L 555.242284 797.84451 
L 555.575229 798.137976 
L 565.188941 781.419339 
L 564.937726 781.268929 
L 564.852186 781.548886 
L 563.749061 781.38567 
L 563.683998 781.511484 
L 564.039778 782.474084 
L 564.724473 783.127239 
L 564.992047 782.704186 
L 565.361728 782.868861 
L 565.306728 782.948546 
L 564.280648 782.928519 
L 564.41355 783.328523 
L 564.781126 783.859977 
L 564.361647 783.501187 
L 564.361732 783.687663 
L 564.085498 784.1894 
L 564.403968 784.211724 
L 564.714521 784.625026 
L 565.082394 784.713204 
L 565.057718 785.153384 
L 564.601181 784.95792 
L 565.059855 785.442104 
L 565.416491 785.534534 
L 565.122773 785.160406 
L 564.502936 785.080984 
L 564.2256 784.728929 
L 564.567691 782.998511 
L 565.773253 782.618676 
L 566.51528 779.861862 
L 566.242951 773.543103 
L 565.563414 766.753978 
L 564.897193 764.114992 
L 564.238597 762.205231 
L 564.376255 755.751745 
L 564.18458 749.773773 
L 564.141396 734.301161 
L 564.281861 726.264553 
L 563.999512 718.582618 
L 564.012801 710.335777 
L 563.886079 702.804094 
L 563.594233 695.618549 
L 563.775145 680.921903 
L 564.250354 667.328007 
L 565.48755 647.465563 
L 565.586688 640.456379 
L 565.400717 634.35574 
L 566.922662 627.789103 
L 567.056077 615.480978 
L 566.875177 609.141354 
L 566.411558 602.379683 
L 564.933767 596.712373 
L 564.454305 591.862265 
L 564.510585 585.463349 
L 564.430056 571.93498 
L 563.949491 565.408829 
L 566.006311 560.029288 
L 566.999153 548.314368 
L 567.1206 542.438081 
L 566.049242 528.11739 
L 565.332325 516.138236 
L 565.567622 508.777568 
L 565.331171 503.947177 
L 565.811258 497.889601 
L 564.322272 492.99681 
L 565.047826 486.523212 
L 567.472531 481.941972 
L 568.015221 477.510783 
L 568.350048 472.255895 
L 567.963018 467.618586 
L 567.980599 462.009108 
L 566.769761 456.839443 
L 566.689229 450.907615 
L 566.249508 445.076447 
L 566.317411 439.938607 
L 566.610736 433.932949 
L 566.049403 426.980879 
L 566.551628 421.933959 
L 566.185675 417.281133 
L 567.128506 411.822637 
L 566.911369 403.710501 
L 567.365076 399.284492 
L 566.915415 397.443356 
L 566.722811 393.376216 
L 566.101816 387.701681 
L 563.620728 384.527217 
L 564.370481 377.808616 
L 564.085749 373.169148 
L 564.152928 368.454527 
L 564.889499 367.27884 
L 564.998503 368.462501 
L 565.680347 372.906317 
L 566.065674 372.989877 
L 567.252602 375.089078 
L 565.549388 374.452558 
L 566.231843 375.075682 
L 565.91967 374.561804 
L 565.259893 374.367406 
L 565.502392 376.792557 
L 565.173628 376.225013 
L 564.7361 376.249714 
L 564.620121 377.285622 
L 565.019649 376.77908 
L 564.713285 377.28375 
L 565.042931 377.29554 
L 564.867158 381.104215 
L 564.154291 382.820976 
L 564.041823 381.609782 
L 563.772924 381.024631 
L 563.916912 379.891662 
L 563.598324 379.812861 
L 563.981282 380.193383 
L 564.180655 381.833831 
L 565.329664 383.63814 
L 565.569115 385.864427 
L 565.624103 384.80082 
L 564.669374 384.380689 
L 563.693809 383.451967 
L 561.436803 384.867989 
L 558.551756 387.960854 
L 556.581002 391.28452 
L 555.435563 394.989167 
L 555.603158 394.072792 
L 555.311669 392.227325 
L 556.158287 391.673716 
L 556.517065 391.877547 
L 556.519717 393.643162 
L 556.109482 394.126719 
L 555.320773 396.891961 
L 554.168719 395.210316 
L 552.800965 398.130504 
L 551.433796 395.433436 
L 550.531035 394.973106 
L 550.34917 397.111419 
L 550.963215 399.239946 
L 550.953008 399.950465 
L 551.549555 399.083304 
L 552.107302 401.524585 
L 551.828295 399.837324 
L 551.290955 402.787293 
L 550.999602 401.177723 
L 550.291415 400.255917 
L 548.031 404.278532 
L 546.788768 406.103631 
L 545.552936 407.660864 
L 545.058272 407.244901 
L 544.051403 406.188156 
L 544.355348 405.259368 
L 544.59603 405.047715 
L 543.980301 406.788517 
L 543.556771 406.767558 
L 544.26213 408.870674 
L 542.635884 411.021209 
L 541.645244 412.827715 
L 541.402911 410.174383 
L 538.388764 410.021764 
L 538.485198 409.081479 
L 536.471148 410.107315 
L 535.07363 409.720909 
L 533.983507 412.40633 
L 532.825892 414.091911 
L 530.691929 412.481078 
L 529.973944 413.967469 
L 529.496663 413.375286 
L 527.983247 415.869538 
L 527.043558 414.861285 
L 525.852702 418.526589 
L 525.163994 421.699272 
L 524.784296 417.721692 
L 523.358982 413.890277 
L 523.035669 416.575852 
L 522.31198 417.655549 
L 521.290572 414.305392 
L 518.695778 419.384287 
L 517.613687 421.143885 
L 516.279258 421.073713 
L 515.640221 421.922613 
L 514.205308 423.507487 
L 513.310558 424.302257 
L 512.714144 423.75297 
L 512.285134 419.758061 
L 510.477406 419.783984 
L 509.744605 418.985535 
L 509.13096 422.617862 
L 508.184178 427.057106 
L 506.596684 430.987622 
L 505.793805 429.69193 
L 504.377164 428.021736 
L 502.442928 426.506168 
L 502.26718 425.263179 
L 499.942175 426.726264 
L 498.708678 427.113535 
L 498.018414 425.291144 
L 496.065994 426.239921 
L 495.10913 427.726324 
L 493.999662 431.59293 
L 492.159115 429.928302 
L 491.657514 429.908516 
L 491.350283 432.791245 
L 490.582758 430.490874 
L 490.105896 429.988818 
L 489.730572 428.368977 
L 486.916473 432.463071 
L 484.653517 430.562909 
L 483.948894 432.991988 
L 483.406622 431.018676 
L 481.070564 435.45036 
L 480.110337 434.735139 
L 479.609601 434.584456 
L 479.721054 433.167774 
L 479.669325 434.123243 
L 479.701196 437.659155 
L 481.417648 437.069721 
L 481.323822 436.125629 
L 483.560532 435.793221 
L 483.035239 434.770932 
L 483.793037 435.148902 
L 483.912433 434.488693 
L 483.323539 435.497823 
L 482.458232 435.436082 
L 482.434463 435.088562 
L 480.331435 434.40263 
L 479.885457 434.843169 
L 479.823855 434.25408 
L 479.365227 436.261858 
L 479.456275 434.706587 
L 479.182188 430.901684 
L 480.349568 433.425869 
L 479.87603 438.770503 
L 479.85799 435.403002 
L 479.556932 435.380414 
L 478.938836 436.237002 
L 478.947465 436.585791 
L 478.380236 436.564639 
L 478.167133 438.189608 
L 478.456011 437.898527 
L 478.362412 433.609955 
L 478.751094 435.92358 
L 478.151548 435.396784 
L 479.084424 437.209358 
L 478.450293 437.406366 
L 478.788481 438.061844 
L 478.123188 434.636622 
L 478.949034 437.999834 
L 478.479143 438.506429 
L 479.229021 440.707288 
L 478.917953 438.249007 
L 478.097583 435.000591 
L 477.685307 438.991048 
L 477.776076 440.199212 
L 478.113706 437.479806 
L 477.89204 435.724282 
L 479.066328 437.799362 
L 478.899337 435.779941 
L 478.767599 435.644726 
L 478.613675 440.55407 
L 478.862447 442.411805 
L 479.821899 441.396093 
L 479.884127 439.553329 
L 479.499278 436.550881 
L 478.414753 436.320625 
L 476.98748 436.633024 
L 475.4057 437.846857 
L 474.967261 439.293364 
L 474.430517 438.884474 
L 474.326626 436.289686 
L 472.548875 434.679132 
L 471.140826 435.400959 
L 470.752785 432.744252 
L 469.997693 433.239395 
L 469.602446 434.039221 
L 468.463749 434.739447 
L 467.457776 434.170059 
L 466.241393 432.114087 
L 465.784489 431.044762 
L 465.040269 431.748207 
L 464.184317 432.048248 
L 465.003263 433.085416 
L 464.376288 434.306147 
L 463.618786 431.864018 
L 463.01265 431.040462 
L 461.515709 428.517002 
L 461.506449 432.361254 
L 460.658194 434.103284 
L 459.273841 431.097142 
L 460.023413 426.916609 
L 458.099698 428.018911 
L 457.810133 433.810312 
L 456.990733 436.433095 
L 455.744118 433.439903 
L 454.920254 425.756256 
L 453.397781 424.368349 
L 452.669436 422.344504 
L 452.109874 424.431803 
L 451.800487 426.226527 
L 451.201286 428.989285 
L 450.103947 427.530952 
L 449.065783 425.530103 
L 448.41382 427.286569 
L 447.309796 427.183399 
L 446.8625 425.823101 
L 446.046042 425.262118 
L 445.748798 422.858246 
L 444.079273 424.247447 
L 444.660174 424.830896 
L 443.494393 430.429084 
L 442.372663 430.283086 
L 441.671918 428.731007 
L 440.431069 423.904468 
L 438.872357 420.29654 
L 437.970126 420.18476 
L 436.468099 417.11452 
L 435.953289 418.877294 
L 435.116473 422.277297 
L 434.339623 420.919902 
L 433.354474 422.395328 
L 431.563189 420.479358 
L 432.30771 418.20227 
L 431.445016 418.291768 
L 430.397751 419.199226 
L 430.3104 420.071377 
L 430.040652 417.429476 
L 428.430679 417.033013 
L 428.389777 420.686928 
L 427.269195 422.247714 
L 426.04739 420.24686 
L 425.29828 414.081041 
L 425.576071 415.439272 
L 424.713003 415.97941 
L 423.914917 415.284001 
L 422.474385 414.466616 
L 420.518205 411.848251 
L 419.426306 412.170851 
L 419.030914 410.177618 
L 418.364375 412.414388 
L 417.126769 413.082446 
L 416.015569 410.018193 
L 414.132948 412.891079 
L 414.023216 416.34072 
L 413.123979 414.728635 
L 412.486458 410.590303 
L 411.403626 409.937797 
L 410.534988 408.000814 
L 409.561745 407.279806 
L 408.40265 410.506118 
L 407.35694 410.339745 
L 406.112669 409.254623 
L 405.339521 407.152686 
L 404.471753 406.389396 
L 402.989015 404.145934 
L 401.988395 407.177229 
L 400.731404 407.988253 
L 399.210111 403.938106 
L 398.486888 405.669399 
L 395.725202 405.529518 
L 395.129417 405.6154 
L 394.580686 403.267692 
L 395.059243 404.503295 
L 395.083677 405.670711 
L 394.963776 408.67457 
L 395.63496 404.152649 
L 395.397553 400.627228 
L 394.876859 399.672803 
L 394.664604 405.131426 
L 393.911586 408.189609 
L 392.582418 408.594458 
L 392.701667 405.926374 
L 392.313642 401.994524 
L 392.266153 404.405538 
L 391.679062 403.662175 
L 391.940149 404.7505 
L 391.192434 407.078797 
L 390.928684 407.388535 
L 390.108041 405.38306 
L 389.785255 403.509468 
L 389.305231 403.429979 
L 388.895875 404.09649 
L 388.513505 405.889666 
L 388.908023 406.482761 
L 388.87032 403.43979 
L 388.665646 404.721978 
L 388.853349 408.910254 
L 388.721792 404.206335 
L 386.562538 403.547659 
L 386.945146 405.30735 
L 387.304056 404.2944 
L 387.351272 401.437397 
L 387.564117 403.705326 
L 387.079561 405.483908 
L 388.486925 403.285587 
L 389.75436 405.052923 
L 389.566344 403.692041 
L 390.12982 405.971354 
L 390.169787 407.917614 
L 390.866879 408.227849 
L 389.779753 405.346111 
L 390.890601 405.346962 
L 390.966499 406.229979 
L 391.340754 404.802938 
L 392.037973 405.044217 
L 393.901013 403.994349 
L 394.808383 403.018466 
L 396.889858 404.403156 
L 397.970045 405.80014 
L 400.158433 404.959291 
L 402.633063 403.625049 
L 404.257905 402.139505 
L 405.013388 396.452917 
L 405.66499 397.000475 
L 406.373866 399.341023 
L 406.646097 399.03845 
L 407.144998 398.047298 
L 409.783876 395.321491 
L 410.069796 395.82035 
L 411.243325 397.495042 
L 413.055967 398.062249 
L 414.114252 399.079599 
L 415.599663 400.09152 
L 417.049701 399.282287 
L 418.569948 398.657612 
L 418.674616 398.982374 
L 421.771886 394.307541 
L 422.583599 395.291616 
L 423.464235 397.525735 
L 424.479012 396.951073 
L 425.145917 395.697051 
L 427.041276 397.00284 
L 428.803875 394.981435 
L 429.692377 396.282847 
L 431.818923 397.398525 
L 433.712093 396.453852 
L 433.883187 393.829445 
L 435.549424 393.600753 
L 436.148316 393.279638 
L 437.559458 391.864838 
L 439.109898 394.130359 
L 439.49274 393.491361 
L 439.940822 391.514582 
L 440.938872 393.821875 
L 442.215276 390.990008 
L 442.638409 391.130824 
L 444.138361 392.310222 
L 444.851552 387.201389 
L 445.742622 386.507451 
L 445.686599 389.121699 
L 447.772148 391.521673 
L 449.042889 393.188076 
L 449.702294 395.763302 
L 450.152714 394.988753 
L 450.839472 391.292334 
L 451.660836 390.275416 
L 452.767052 390.297456 
L 455.083428 390.920637 
L 455.52548 388.213156 
L 456.47212 388.558867 
L 457.876405 389.812585 
L 458.918251 388.627838 
L 458.454433 387.69303 
L 458.929096 386.662636 
L 459.855766 383.118636 
L 460.098976 383.780058 
L 461.292844 384.965953 
L 462.019708 387.237037 
L 463.060481 393.461894 
L 463.175537 390.028229 
L 464.070903 384.347539 
L 465.378236 385.775221 
L 466.393259 388.062792 
L 467.34126 388.157382 
L 468.799576 388.094663 
L 469.639167 386.602838 
L 471.155349 385.61021 
L 472.226843 383.962959 
L 474.555096 381.5893 
L 475.209634 379.145167 
L 475.351448 379.98593 
L 477.2132 382.642233 
L 477.876367 384.757638 
L 478.850526 384.826662 
L 479.503605 382.538796 
L 479.947591 382.901465 
L 481.146444 380.685989 
L 484.087287 377.23861 
L 484.354199 376.621141 
L 486.75719 374.490588 
L 488.225107 378.642828 
L 489.119773 381.824099 
L 489.224503 384.577079 
L 490.811627 379.650927 
L 491.373341 379.987875 
L 492.127727 377.545955 
L 492.627546 379.138291 
L 493.041236 376.148335 
L 494.05775 374.900519 
L 495.102525 376.180637 
L 498.031334 374.761652 
L 497.457277 375.932304 
L 498.753511 377.669506 
L 501.232704 377.415407 
L 501.26146 375.188178 
L 500.559996 374.589148 
L 499.052104 374.790134 
L 498.238049 378.617897 
L 499.588447 380.60813 
L 498.141167 379.957012 
L 498.882062 379.116566 
L 499.397443 374.463266 
L 499.870326 375.880634 
L 500.895175 375.51029 
L 502.21314 376.391076 
L 502.815672 377.121263 
L 503.437068 379.797896 
L 503.610583 381.968982 
L 504.303288 383.488884 
L 504.863747 378.077979 
L 504.413407 376.358852 
L 505.028052 374.031957 
L 505.882649 380.718315 
L 506.416327 381.977918 
L 506.707078 381.935109 
L 505.737557 379.594731 
L 504.917019 382.058073 
L 504.181929 380.8793 
L 503.228467 378.025465 
L 500.791099 373.483998 
L 499.995793 371.499176 
L 499.639303 374.254485 
L 498.835138 375.073389 
L 498.685415 374.603141 
L 498.51147 376.095383 
L 498.777433 374.374351 
L 498.540504 375.042505 
L 498.216777 374.824955 
L 498.655041 376.443452 
L 497.651178 375.948374 
L 497.022215 374.797731 
L 496.527956 372.769712 
L 496.950167 374.507966 
L 496.285661 372.308157 
L 496.024387 370.11177 
L 496.690711 373.04014 
L 497.402148 373.650941 
L 497.630449 375.468757 
L 498.733203 372.607866 
L 499.708526 374.938163 
L 499.799104 375.680001 
L 500.187894 377.404976 
L 500.437413 375.542431 
L 500.48273 371.939963 
L 499.665511 372.300572 
L 498.98723 371.862049 
L 498.668124 374.752404 
L 499.416401 374.492384 
L 499.861212 374.710156 
L 500.264504 374.7719 
L 500.456574 374.599058 
L 500.410396 377.080218 
L 500.526836 374.373642 
L 500.610084 375.909218 
L 501.713598 374.603054 
L 501.807242 371.742061 
L 501.280034 374.184188 
L 501.355662 379.11875 
L 500.522991 378.189291 
L 500.617154 378.237331 
L 499.655426 376.689913 
L 498.950659 372.604244 
L 499.563025 373.532294 
L 500.024527 375.794211 
L 500.367571 378.9791 
L 500.294507 377.851958 
L 500.133413 375.33907 
L 499.844886 377.143461 
L 499.298415 377.98772 
L 498.626497 376.942873 
L 498.039063 375.224668 
L 497.43979 372.696309 
L 499.682214 375.067922 
L 497.102849 374.023122 
L 497.187842 378.283214 
L 497.815569 375.249164 
L 499.730602 377.729541 
L 499.759117 380.030601 
L 499.472542 381.822859 
L 499.116263 380.741016 
L 499.207202 375.908418 
L 501.452837 374.062458 
L 502.007796 380.988497 
L 502.179946 380.518578 
L 500.599541 381.806147 
L 501.972967 381.593162 
L 502.135665 381.03738 
L 502.334749 376.796138 
L 505.010224 379.802391 
L 504.412664 376.312342 
L 504.79704 376.260218 
L 504.777143 374.853848 
L 504.20151 376.443161 
L 505.027297 379.774554 
L 504.883662 380.136016 
L 504.956782 381.749047 
L 505.365423 382.591751 
L 505.993004 380.006791 
L 507.412973 377.772818 
L 507.382648 376.163978 
L 506.225987 377.582236 
L 505.045622 380.619052 
L 502.844987 378.101045 
L 501.667891 372.608263 
L 500.715866 372.060473 
L 499.509139 377.290468 
L 498.796936 376.784327 
L 498.019995 377.66405 
L 497.824801 374.893182 
L 497.61229 375.748131 
L 497.265782 374.728937 
L 496.46577 376.877729 
L 495.616684 375.781806 
L 495.462412 378.635166 
L 494.053027 378.628461 
L 493.177278 372.46901 
L 492.34795 372.678268 
L 491.776209 372.626598 
L 491.42707 370.792248 
L 492.289184 372.222757 
L 491.992415 374.012702 
L 494.150708 375.441784 
L 494.550988 377.805412 
L 495.436704 373.178533 
L 495.281374 376.955617 
L 495.53132 378.535599 
L 495.285395 375.320002 
L 494.255768 371.018275 
L 493.825966 370.721131 
L 493.82091 371.305363 
L 493.622837 368.40234 
L 494.367517 372.746751 
L 495.090788 375.286618 
L 497.029163 379.53396 
L 497.308526 378.74672 
L 497.029613 371.924357 
L 496.048917 371.148552 
L 496.403495 374.428601 
L 495.458853 376.197377 
L 493.879602 377.729476 
L 493.723881 374.853655 
L 493.528695 374.16949 
L 492.88518 373.904519 
L 493.317235 377.099031 
L 493.642442 376.806395 
L 493.560577 380.494066 
L 493.701507 376.395775 
L 494.035793 376.733312 
L 493.777332 374.561589 
L 493.135999 375.114414 
L 491.679644 372.277007 
L 491.94962 374.313235 
L 491.363145 375.961303 
L 491.222889 377.493776 
L 491.262295 376.590398 
L 491.440038 377.994835 
L 491.205042 378.014234 
L 490.941099 377.03579 
L 490.730788 374.925726 
L 490.190209 376.836168 
L 487.681869 380.712213 
L 487.712205 380.462907 
L 488.288092 379.455048 
L 487.791266 376.331513 
L 487.554099 378.008376 
L 487.372076 377.485045 
L 488.15246 376.150964 
L 487.175341 374.692302 
L 488.550042 373.851175 
L 488.445041 375.878613 
L 487.248225 378.873365 
L 486.237333 374.857795 
L 484.759892 374.573192 
L 482.810773 377.324544 
L 483.187815 376.613455 
L 481.841784 377.537107 
L 481.625423 375.207635 
L 480.613031 374.997699 
L 479.902818 374.400035 
L 479.316129 373.202666 
L 478.2063 373.599721 
L 477.343531 372.875466 
L 476.507181 376.981437 
L 475.632655 376.537032 
L 475.72333 375.026253 
L 475.512445 376.750464 
L 476.352166 376.690611 
L 476.891494 372.536981 
L 477.462899 373.787019 
L 478.417685 374.507803 
L 478.158507 375.795188 
L 477.45893 375.800364 
L 477.041833 376.359322 
L 476.358619 375.345057 
L 476.000057 374.534921 
L 475.721603 374.776754 
L 475.659162 377.362609 
L 476.109071 377.983534 
L 476.492289 377.982345 
L 476.88288 372.020354 
L 476.214672 373.508431 
L 475.733545 376.265241 
L 474.881982 379.272009 
L 474.367889 381.785515 
L 473.811047 379.040023 
L 473.306345 375.657303 
L 472.610729 377.161059 
L 472.318613 375.996885 
L 472.370079 374.667736 
L 472.637294 377.963199 
L 472.725101 376.670176 
L 471.803024 373.390707 
L 472.00452 375.815011 
L 472.43968 378.073599 
L 473.897543 379.674872 
L 475.178162 376.488535 
L 476.873544 377.812318 
L 478.043827 381.419743 
L 479.299394 380.788059 
L 480.172257 382.897992 
L 479.718374 379.216676 
L 480.371689 381.912675 
L 481.186562 379.448313 
L 482.343728 378.701831 
L 483.084825 381.957622 
L 483.606903 385.885546 
L 485.27489 387.958932 
L 485.099397 385.848676 
L 485.444028 386.430299 
L 485.863142 383.22038 
L 485.388284 386.322073 
L 484.698986 387.111203 
L 483.94211 388.575817 
L 482.747307 387.713468 
L 481.673936 379.176215 
L 481.011326 381.055304 
L 481.340586 380.882721 
L 481.434925 382.069018 
L 481.784065 384.578904 
L 482.481279 385.559651 
L 482.161398 381.878561 
L 480.488655 386.407355 
L 479.505213 386.682995 
L 479.278908 383.843613 
L 478.247545 386.607748 
L 477.863209 384.844216 
L 478.252311 383.926615 
L 479.173017 384.245247 
L 479.32163 384.767059 
L 477.858142 385.118486 
L 477.302488 386.95949 
L 475.716401 387.400283 
L 474.237386 385.775451 
L 472.795325 383.869461 
L 471.364249 383.933408 
L 470.649846 385.381613 
L 469.342186 383.988348 
L 468.765912 382.105485 
L 468.588009 379.452472 
L 467.241943 383.186473 
L 466.39947 379.751039 
L 467.08613 380.525406 
L 465.36791 381.183758 
L 465.156868 378.979592 
L 465.691077 381.335948 
L 466.128211 379.497021 
L 468.592175 381.699624 
L 470.12481 382.193169 
L 470.422394 380.120021 
L 470.772295 381.15663 
L 470.487482 380.502515 
L 470.302076 380.454211 
L 469.586686 381.625195 
L 468.904448 381.420869 
L 468.583205 380.41779 
L 468.738238 382.060096 
L 469.697759 378.511699 
L 470.047561 378.290621 
L 471.173103 380.888176 
L 472.685434 381.341696 
L 472.90239 380.78882 
L 472.221029 381.61762 
L 471.438915 379.604839 
L 471.200247 380.697726 
L 471.940251 381.575228 
L 473.031373 384.721865 
L 474.191886 389.224348 
L 475.433528 384.983318 
L 476.98959 383.564106 
L 478.084638 379.568684 
L 478.303246 382.220625 
L 479.126649 381.479613 
L 480.224419 386.053381 
L 480.992579 383.514285 
L 480.930229 383.846685 
L 481.659008 383.926334 
L 482.987037 386.139628 
L 483.000396 387.512087 
L 483.704076 386.330607 
L 483.382354 385.245563 
L 482.646212 384.053695 
L 481.256983 384.708612 
L 480.675398 387.644583 
L 480.291047 387.177179 
L 478.924358 387.121584 
L 479.047528 389.682113 
L 478.419005 387.43162 
L 478.769951 383.525585 
L 479.282706 384.58853 
L 479.27816 381.26373 
L 480.13587 387.203789 
L 479.981843 389.552854 
L 480.173625 388.674017 
L 480.081044 385.404674 
L 480.095772 385.595826 
L 480.585294 386.690304 
L 480.058379 383.088135 
L 479.759938 382.846388 
L 479.961483 382.148095 
L 478.530651 388.378947 
L 477.597164 388.095596 
L 476.771184 387.29445 
L 475.064086 384.308579 
L 474.4728 386.228972 
L 473.508294 381.125471 
L 473.527671 380.806784 
L 472.539577 380.037231 
L 471.793064 377.184585 
L 470.980092 376.737173 
L 471.348218 375.033023 
L 472.401466 383.496558 
L 473.88533 381.687013 
L 474.980392 378.617974 
L 475.94089 378.228845 
L 476.556711 376.244042 
L 476.529906 379.706916 
L 476.719635 381.164469 
L 476.672008 382.511866 
L 475.678657 381.265155 
L 475.830867 379.115911 
L 475.186291 379.994977 
L 475.701386 384.907998 
L 476.401859 384.711651 
L 477.025298 381.529497 
L 477.82934 379.193008 
L 478.132902 379.864835 
L 476.237819 381.242395 
L 476.630509 381.165387 
L 477.484966 382.79808 
L 478.472219 382.741689 
L 480.183296 383.453699 
L 481.899964 385.01759 
L 483.590703 387.643255 
L 483.792759 386.750188 
L 486.618068 384.536273 
L 487.406926 385.045 
L 486.910639 385.707881 
L 486.857645 383.270983 
L 484.689173 386.168582 
L 484.067384 385.28005 
L 483.248552 386.395501 
L 483.379026 388.607317 
L 484.002193 386.010528 
L 484.951783 386.072575 
L 486.039753 384.075047 
L 486.579137 380.735884 
L 487.127188 381.022637 
L 487.4585 381.957092 
L 487.610266 389.054658 
L 487.361352 384.355949 
L 487.355628 381.630815 
L 486.766496 382.563929 
L 486.91867 384.330971 
L 488.350321 383.567268 
L 488.261801 382.912014 
L 488.375379 384.058901 
L 486.561407 385.86791 
L 485.934127 383.493333 
L 484.531779 383.36758 
L 484.175817 381.667477 
L 483.32675 380.393887 
L 482.670707 378.171945 
L 482.332052 379.92073 
L 482.968277 379.891875 
L 482.990613 380.377141 
L 482.59337 380.912451 
L 482.05923 380.078364 
L 482.222218 378.447354 
L 482.370077 380.733948 
L 482.147311 378.885016 
L 481.032977 376.596601 
L 480.073728 377.549794 
L 478.918044 377.587861 
L 479.295696 377.4908 
L 479.724997 378.955844 
L 481.430735 379.688809 
L 481.829505 376.307521 
L 482.356121 376.301271 
L 482.555527 381.334925 
L 482.14642 378.88814 
L 481.43639 380.166814 
L 481.095748 379.765992 
L 480.829057 379.072216 
L 480.440477 381.351983 
L 480.564091 380.986139 
L 480.530606 378.030682 
L 480.512371 378.132006 
L 480.69278 379.575956 
L 480.389175 380.93526 
L 480.528193 380.041323 
L 479.449106 378.099965 
L 479.380965 372.28733 
L 480.176282 376.999197 
L 481.33514 379.64772 
L 483.130549 384.090143 
L 486.283707 388.230419 
L 486.782838 384.251859 
L 487.938791 383.596145 
L 488.420061 382.811866 
L 488.390993 381.478542 
L 488.065415 382.532271 
L 486.602783 386.777351 
L 486.538016 384.974163 
L 484.908054 382.860443 
L 484.284989 384.474683 
L 484.590725 382.333464 
L 484.093414 381.103783 
L 484.753028 380.265267 
L 485.380419 378.635111 
L 485.614292 381.346385 
L 486.410034 383.877045 
L 487.020999 383.258533 
L 487.618978 384.507685 
L 487.255612 381.033673 
L 486.606594 383.27744 
L 486.495797 379.282015 
L 486.055386 380.292653 
L 486.098256 381.366164 
L 487.551933 380.042041 
L 487.881825 382.981541 
L 487.359745 381.929224 
L 486.500505 380.891961 
L 485.218063 382.29229 
L 483.015602 382.681208 
L 481.942784 381.898925 
L 480.412842 381.843345 
L 479.049789 380.10197 
L 478.436861 377.085227 
L 478.482249 378.924089 
L 478.182676 379.79874 
L 477.888889 380.179538 
L 477.806731 379.356376 
L 476.715489 380.328547 
L 476.589008 378.084316 
L 475.901369 375.533123 
L 475.210701 375.341763 
L 475.55492 378.033595 
L 476.154134 376.689725 
L 477.287409 377.399858 
L 478.348401 378.77922 
L 479.255157 382.077725 
L 479.426567 380.030832 
L 479.970166 377.708824 
L 480.13011 376.482446 
L 479.068749 376.015654 
L 479.736345 380.273216 
L 479.631033 380.524974 
L 479.499938 374.944371 
L 479.282093 371.427433 
L 479.816077 372.854427 
L 480.113994 377.657638 
L 480.811564 377.12378 
L 481.311686 380.562142 
L 481.265395 377.595088 
L 479.885575 378.725096 
L 480.05406 376.260188 
L 481.028077 375.678704 
L 483.043556 376.287267 
L 484.168801 379.051086 
L 486.09031 381.969704 
L 487.603025 378.451048 
L 488.399109 377.720682 
L 489.284525 375.900176 
L 515.628856 471.080696 
L 521.47968 722.15525 
L 491.293133 793.301858 
L 465.251315 839.190556 
L 816.426777 769.118352 
L 980.913759 738.521214 
L 987.221536 766.707601 
L 1006.623362 792.653104 
L 968.964961 850.669114 
L 957.292302 932.951665 
L 499.65894 773.098269 
L 580.919268 745.987472 
L 493.693902 713.589439 
L 450.269319 712.608517 
L 459.136804 716.531525 
L 466.341204 715.960307 
L 463.142897 716.227807 
L 453.189953 719.681139 
L 443.42137 720.123795 
L 445.82339 693.355917 
L 461.17013 665.80275 
L 489.025954 659.772635 
L 506.625489 664.325688 
L 521.617735 674.068104 
L 529.878009 679.731206 
L 533.031549 679.784252 
L 536.492339 676.091056 
L 543.062897 673.560008 
L 551.331506 675.562017 
L 554.473896 680.97255 
L 555.826958 681.978987 
L 556.229792 683.360287 
L 554.692482 683.951131 
L 555.402413 674.71452 
L 553.463243 674.078209 
L 552.133105 673.152242 
L 553.169785 674.382841 
L 551.587088 675.542448 
L 548.781583 674.247408 
L 546.530965 671.983761 
L 544.399928 669.630774 
L 541.843133 666.01178 
L 539.615542 666.17463 
L 538.79002 669.767284 
L 537.562685 668.018695 
L 535.485932 669.524326 
L 534.891225 678.866494 
L 536.083053 679.177714 
L 534.813026 682.753784 
L 534.627379 682.189859 
L 535.086125 680.617314 
L 535.422438 679.002843 
L 535.422438 679.002843 
" clip-path="url(#pe30e44f02b)" style="fill: none; stroke: #0000ff; stroke-width: 2; stroke-linecap: square"/>
   </g>
   <g id="line2d_27">
    <path d="M 565.426202 781.393332 
L 562.017947 392.038096 
L 500.886094 416.303776 
L 450.882698 395.321097 
L 511.986093 371.484209 
L 562.017947 392.038096 
" clip-path="url(#pe30e44f02b)" style="fill: none; stroke-dasharray: 7.4,3.2; stroke-dashoffset: 0; stroke: #008000; stroke-width: 2"/>
   </g>
   <g id="Path3DCollection_1">
    <path d="M 560.954066 785.865468 
L 569.898338 776.921196 
M 560.954066 776.921196 
L 569.898338 785.865468 
" clip-path="url(#pe30e44f02b)" style="fill-opacity: 0.3; stroke: #000000; stroke-opacity: 0.3; stroke-width: 1.5"/>
    <path d="M 507.513957 375.956345 
L 516.458228 367.012074 
M 507.513957 367.012074 
L 516.458228 375.956345 
" clip-path="url(#pe30e44f02b)" style="fill-opacity: 0.699407; stroke: #000000; stroke-opacity: 0.699407; stroke-width: 1.5"/>
    <path d="M 557.545812 396.510232 
L 566.490083 387.56596 
M 557.545812 387.56596 
L 566.490083 396.510232 
" clip-path="url(#pe30e44f02b)" style="fill-opacity: 0.837257; stroke: #000000; stroke-opacity: 0.837257; stroke-width: 1.5"/>
    <path d="M 446.410562 399.793233 
L 455.354833 390.848961 
M 446.410562 390.848961 
L 455.354833 399.793233 
" clip-path="url(#pe30e44f02b)" style="fill-opacity: 0.859275; stroke: #000000; stroke-opacity: 0.859275; stroke-width: 1.5"/>
    <path d="M 496.413958 420.775912 
L 505.35823 411.83164 
M 496.413958 411.83164 
L 505.35823 420.775912 
" clip-path="url(#pe30e44f02b)" style="stroke: #000000; stroke-width: 1.5"/>
   </g>
   <g id="text_26">
    <!-- Takeoff / Landing -->
    <g transform="translate(565.25036 761.305416) scale(0.14 -0.14)">
     <defs>
      <path id="DejaVuSans-Bold-54" d="M 31 4666 
L 4331 4666 
L 4331 3756 
L 2784 3756 
L 2784 0 
L 1581 0 
L 1581 3756 
L 31 3756 
L 31 4666 
z
" transform="scale(0.015625)"/>
      <path id="DejaVuSans-Bold-61" d="M 2106 1575 
Q 1756 1575 1579 1456 
Q 1403 1338 1403 1106 
Q 1403 894 1545 773 
Q 1688 653 1941 653 
Q 2256 653 2472 879 
Q 2688 1106 2688 1447 
L 2688 1575 
L 2106 1575 
z
M 3816 1997 
L 3816 0 
L 2688 0 
L 2688 519 
Q 2463 200 2181 54 
Q 1900 -91 1497 -91 
Q 953 -91 614 226 
Q 275 544 275 1050 
Q 275 1666 698 1953 
Q 1122 2241 2028 2241 
L 2688 2241 
L 2688 2328 
Q 2688 2594 2478 2717 
Q 2269 2841 1825 2841 
Q 1466 2841 1156 2769 
Q 847 2697 581 2553 
L 581 3406 
Q 941 3494 1303 3539 
Q 1666 3584 2028 3584 
Q 2975 3584 3395 3211 
Q 3816 2838 3816 1997 
z
" transform="scale(0.015625)"/>
      <path id="DejaVuSans-Bold-6b" d="M 538 4863 
L 1656 4863 
L 1656 2216 
L 2944 3500 
L 4244 3500 
L 2534 1894 
L 4378 0 
L 3022 0 
L 1656 1459 
L 1656 0 
L 538 0 
L 538 4863 
z
" transform="scale(0.015625)"/>
      <path id="DejaVuSans-Bold-65" d="M 4031 1759 
L 4031 1441 
L 1416 1441 
Q 1456 1047 1700 850 
Q 1944 653 2381 653 
Q 2734 653 3104 758 
Q 3475 863 3866 1075 
L 3866 213 
Q 3469 63 3072 -14 
Q 2675 -91 2278 -91 
Q 1328 -91 801 392 
Q 275 875 275 1747 
Q 275 2603 792 3093 
Q 1309 3584 2216 3584 
Q 3041 3584 3536 3087 
Q 4031 2591 4031 1759 
z
M 2881 2131 
Q 2881 2450 2695 2645 
Q 2509 2841 2209 2841 
Q 1884 2841 1681 2658 
Q 1478 2475 1428 2131 
L 2881 2131 
z
" transform="scale(0.015625)"/>
      <path id="DejaVuSans-Bold-6f" d="M 2203 2784 
Q 1831 2784 1636 2517 
Q 1441 2250 1441 1747 
Q 1441 1244 1636 976 
Q 1831 709 2203 709 
Q 2569 709 2762 976 
Q 2956 1244 2956 1747 
Q 2956 2250 2762 2517 
Q 2569 2784 2203 2784 
z
M 2203 3584 
Q 3106 3584 3614 3096 
Q 4122 2609 4122 1747 
Q 4122 884 3614 396 
Q 3106 -91 2203 -91 
Q 1297 -91 786 396 
Q 275 884 275 1747 
Q 275 2609 786 3096 
Q 1297 3584 2203 3584 
z
" transform="scale(0.015625)"/>
      <path id="DejaVuSans-Bold-66" d="M 2841 4863 
L 2841 4128 
L 2222 4128 
Q 1984 4128 1890 4042 
Q 1797 3956 1797 3744 
L 1797 3500 
L 2753 3500 
L 2753 2700 
L 1797 2700 
L 1797 0 
L 678 0 
L 678 2700 
L 122 2700 
L 122 3500 
L 678 3500 
L 678 3744 
Q 678 4316 997 4589 
Q 1316 4863 1984 4863 
L 2841 4863 
z
" transform="scale(0.015625)"/>
      <path id="DejaVuSans-Bold-20" transform="scale(0.015625)"/>
      <path id="DejaVuSans-Bold-2f" d="M 1644 4666 
L 2338 4666 
L 691 -594 
L 0 -594 
L 1644 4666 
z
" transform="scale(0.015625)"/>
      <path id="DejaVuSans-Bold-4c" d="M 588 4666 
L 1791 4666 
L 1791 909 
L 3903 909 
L 3903 0 
L 588 0 
L 588 4666 
z
" transform="scale(0.015625)"/>
      <path id="DejaVuSans-Bold-6e" d="M 4056 2131 
L 4056 0 
L 2931 0 
L 2931 347 
L 2931 1631 
Q 2931 2084 2911 2256 
Q 2891 2428 2841 2509 
Q 2775 2619 2662 2680 
Q 2550 2741 2406 2741 
Q 2056 2741 1856 2470 
Q 1656 2200 1656 1722 
L 1656 0 
L 538 0 
L 538 3500 
L 1656 3500 
L 1656 2988 
Q 1909 3294 2193 3439 
Q 2478 3584 2822 3584 
Q 3428 3584 3742 3212 
Q 4056 2841 4056 2131 
z
" transform="scale(0.015625)"/>
      <path id="DejaVuSans-Bold-64" d="M 2919 2988 
L 2919 4863 
L 4044 4863 
L 4044 0 
L 2919 0 
L 2919 506 
Q 2688 197 2409 53 
Q 2131 -91 1766 -91 
Q 1119 -91 703 423 
Q 288 938 288 1747 
Q 288 2556 703 3070 
Q 1119 3584 1766 3584 
Q 2128 3584 2408 3439 
Q 2688 3294 2919 2988 
z
M 2181 722 
Q 2541 722 2730 984 
Q 2919 1247 2919 1747 
Q 2919 2247 2730 2509 
Q 2541 2772 2181 2772 
Q 1825 2772 1636 2509 
Q 1447 2247 1447 1747 
Q 1447 1247 1636 984 
Q 1825 722 2181 722 
z
" transform="scale(0.015625)"/>
      <path id="DejaVuSans-Bold-69" d="M 538 3500 
L 1656 3500 
L 1656 0 
L 538 0 
L 538 3500 
z
M 538 4863 
L 1656 4863 
L 1656 3950 
L 538 3950 
L 538 4863 
z
" transform="scale(0.015625)"/>
      <path id="DejaVuSans-Bold-67" d="M 2919 594 
Q 2688 288 2409 144 
Q 2131 0 1766 0 
Q 1125 0 706 504 
Q 288 1009 288 1791 
Q 288 2575 706 3076 
Q 1125 3578 1766 3578 
Q 2131 3578 2409 3434 
Q 2688 3291 2919 2981 
L 2919 3500 
L 4044 3500 
L 4044 353 
Q 4044 -491 3511 -936 
Q 2978 -1381 1966 -1381 
Q 1638 -1381 1331 -1331 
Q 1025 -1281 716 -1178 
L 716 -306 
Q 1009 -475 1290 -558 
Q 1572 -641 1856 -641 
Q 2406 -641 2662 -400 
Q 2919 -159 2919 353 
L 2919 594 
z
M 2181 2772 
Q 1834 2772 1640 2515 
Q 1447 2259 1447 1791 
Q 1447 1309 1634 1061 
Q 1822 813 2181 813 
Q 2531 813 2725 1069 
Q 2919 1325 2919 1791 
Q 2919 2259 2725 2515 
Q 2531 2772 2181 2772 
z
" transform="scale(0.015625)"/>
     </defs>
     <use xlink:href="#DejaVuSans-Bold-54"/>
     <use xlink:href="#DejaVuSans-Bold-61" transform="translate(55.337891 0)"/>
     <use xlink:href="#DejaVuSans-Bold-6b" transform="translate(122.818359 0)"/>
     <use xlink:href="#DejaVuSans-Bold-65" transform="translate(186.697266 0)"/>
     <use xlink:href="#DejaVuSans-Bold-6f" transform="translate(254.519531 0)"/>
     <use xlink:href="#DejaVuSans-Bold-66" transform="translate(323.220703 0)"/>
     <use xlink:href="#DejaVuSans-Bold-66" transform="translate(366.726562 0)"/>
     <use xlink:href="#DejaVuSans-Bold-20" transform="translate(410.232422 0)"/>
     <use xlink:href="#DejaVuSans-Bold-2f" transform="translate(445.046875 0)"/>
     <use xlink:href="#DejaVuSans-Bold-20" transform="translate(481.570312 0)"/>
     <use xlink:href="#DejaVuSans-Bold-4c" transform="translate(516.384766 0)"/>
     <use xlink:href="#DejaVuSans-Bold-61" transform="translate(580.105469 0)"/>
     <use xlink:href="#DejaVuSans-Bold-6e" transform="translate(647.585938 0)"/>
     <use xlink:href="#DejaVuSans-Bold-64" transform="translate(718.777344 0)"/>
     <use xlink:href="#DejaVuSans-Bold-69" transform="translate(790.359375 0)"/>
     <use xlink:href="#DejaVuSans-Bold-6e" transform="translate(824.636719 0)"/>
     <use xlink:href="#DejaVuSans-Bold-67" transform="translate(895.828125 0)"/>
    </g>
   </g>
   <g id="text_27">
    <!-- Hover / Return-to-Home -->
    <g transform="translate(561.829338 370.491503) scale(0.14 -0.14)">
     <defs>
      <path id="DejaVuSans-Bold-48" d="M 588 4666 
L 1791 4666 
L 1791 2888 
L 3566 2888 
L 3566 4666 
L 4769 4666 
L 4769 0 
L 3566 0 
L 3566 1978 
L 1791 1978 
L 1791 0 
L 588 0 
L 588 4666 
z
" transform="scale(0.015625)"/>
      <path id="DejaVuSans-Bold-76" d="M 97 3500 
L 1216 3500 
L 2088 1081 
L 2956 3500 
L 4078 3500 
L 2700 0 
L 1472 0 
L 97 3500 
z
" transform="scale(0.015625)"/>
      <path id="DejaVuSans-Bold-72" d="M 3138 2547 
Q 2991 2616 2845 2648 
Q 2700 2681 2553 2681 
Q 2122 2681 1889 2404 
Q 1656 2128 1656 1613 
L 1656 0 
L 538 0 
L 538 3500 
L 1656 3500 
L 1656 2925 
Q 1872 3269 2151 3426 
Q 2431 3584 2822 3584 
Q 2878 3584 2943 3579 
Q 3009 3575 3134 3559 
L 3138 2547 
z
" transform="scale(0.015625)"/>
      <path id="DejaVuSans-Bold-52" d="M 2297 2597 
Q 2675 2597 2839 2737 
Q 3003 2878 3003 3200 
Q 3003 3519 2839 3656 
Q 2675 3794 2297 3794 
L 1791 3794 
L 1791 2597 
L 2297 2597 
z
M 1791 1766 
L 1791 0 
L 588 0 
L 588 4666 
L 2425 4666 
Q 3347 4666 3776 4356 
Q 4206 4047 4206 3378 
Q 4206 2916 3982 2619 
Q 3759 2322 3309 2181 
Q 3556 2125 3751 1926 
Q 3947 1728 4147 1325 
L 4800 0 
L 3519 0 
L 2950 1159 
Q 2778 1509 2601 1637 
Q 2425 1766 2131 1766 
L 1791 1766 
z
" transform="scale(0.015625)"/>
      <path id="DejaVuSans-Bold-74" d="M 1759 4494 
L 1759 3500 
L 2913 3500 
L 2913 2700 
L 1759 2700 
L 1759 1216 
Q 1759 972 1856 886 
Q 1953 800 2241 800 
L 2816 800 
L 2816 0 
L 1856 0 
Q 1194 0 917 276 
Q 641 553 641 1216 
L 641 2700 
L 84 2700 
L 84 3500 
L 641 3500 
L 641 4494 
L 1759 4494 
z
" transform="scale(0.015625)"/>
      <path id="DejaVuSans-Bold-75" d="M 500 1363 
L 500 3500 
L 1625 3500 
L 1625 3150 
Q 1625 2866 1622 2436 
Q 1619 2006 1619 1863 
Q 1619 1441 1641 1255 
Q 1663 1069 1716 984 
Q 1784 875 1895 815 
Q 2006 756 2150 756 
Q 2500 756 2700 1025 
Q 2900 1294 2900 1772 
L 2900 3500 
L 4019 3500 
L 4019 0 
L 2900 0 
L 2900 506 
Q 2647 200 2364 54 
Q 2081 -91 1741 -91 
Q 1134 -91 817 281 
Q 500 653 500 1363 
z
" transform="scale(0.015625)"/>
      <path id="DejaVuSans-Bold-2d" d="M 347 2297 
L 2309 2297 
L 2309 1388 
L 347 1388 
L 347 2297 
z
" transform="scale(0.015625)"/>
      <path id="DejaVuSans-Bold-6d" d="M 3781 2919 
Q 3994 3244 4286 3414 
Q 4578 3584 4928 3584 
Q 5531 3584 5847 3212 
Q 6163 2841 6163 2131 
L 6163 0 
L 5038 0 
L 5038 1825 
Q 5041 1866 5042 1909 
Q 5044 1953 5044 2034 
Q 5044 2406 4934 2573 
Q 4825 2741 4581 2741 
Q 4263 2741 4089 2478 
Q 3916 2216 3909 1719 
L 3909 0 
L 2784 0 
L 2784 1825 
Q 2784 2406 2684 2573 
Q 2584 2741 2328 2741 
Q 2006 2741 1831 2477 
Q 1656 2213 1656 1722 
L 1656 0 
L 531 0 
L 531 3500 
L 1656 3500 
L 1656 2988 
Q 1863 3284 2130 3434 
Q 2397 3584 2719 3584 
Q 3081 3584 3359 3409 
Q 3638 3234 3781 2919 
z
" transform="scale(0.015625)"/>
     </defs>
     <use xlink:href="#DejaVuSans-Bold-48"/>
     <use xlink:href="#DejaVuSans-Bold-6f" transform="translate(83.691406 0)"/>
     <use xlink:href="#DejaVuSans-Bold-76" transform="translate(152.392578 0)"/>
     <use xlink:href="#DejaVuSans-Bold-65" transform="translate(217.578125 0)"/>
     <use xlink:href="#DejaVuSans-Bold-72" transform="translate(285.400391 0)"/>
     <use xlink:href="#DejaVuSans-Bold-20" transform="translate(334.716797 0)"/>
     <use xlink:href="#DejaVuSans-Bold-2f" transform="translate(369.53125 0)"/>
     <use xlink:href="#DejaVuSans-Bold-20" transform="translate(406.054688 0)"/>
     <use xlink:href="#DejaVuSans-Bold-52" transform="translate(440.869141 0)"/>
     <use xlink:href="#DejaVuSans-Bold-65" transform="translate(517.871094 0)"/>
     <use xlink:href="#DejaVuSans-Bold-74" transform="translate(585.693359 0)"/>
     <use xlink:href="#DejaVuSans-Bold-75" transform="translate(633.496094 0)"/>
     <use xlink:href="#DejaVuSans-Bold-72" transform="translate(704.6875 0)"/>
     <use xlink:href="#DejaVuSans-Bold-6e" transform="translate(754.003906 0)"/>
     <use xlink:href="#DejaVuSans-Bold-2d" transform="translate(825.195312 0)"/>
     <use xlink:href="#DejaVuSans-Bold-74" transform="translate(866.699219 0)"/>
     <use xlink:href="#DejaVuSans-Bold-6f" transform="translate(914.501953 0)"/>
     <use xlink:href="#DejaVuSans-Bold-2d" transform="translate(983.203125 0)"/>
     <use xlink:href="#DejaVuSans-Bold-48" transform="translate(1024.707031 0)"/>
     <use xlink:href="#DejaVuSans-Bold-6f" transform="translate(1108.398438 0)"/>
     <use xlink:href="#DejaVuSans-Bold-6d" transform="translate(1177.099609 0)"/>
     <use xlink:href="#DejaVuSans-Bold-65" transform="translate(1281.298828 0)"/>
    </g>
   </g>
   <g id="text_28">
    <!-- Coord 1 -->
    <g transform="translate(500.577887 394.578849) scale(0.14 -0.14)">
     <defs>
      <path id="DejaVuSans-Bold-43" d="M 4288 256 
Q 3956 84 3597 -3 
Q 3238 -91 2847 -91 
Q 1681 -91 1000 561 
Q 319 1213 319 2328 
Q 319 3447 1000 4098 
Q 1681 4750 2847 4750 
Q 3238 4750 3597 4662 
Q 3956 4575 4288 4403 
L 4288 3438 
Q 3953 3666 3628 3772 
Q 3303 3878 2944 3878 
Q 2300 3878 1931 3465 
Q 1563 3053 1563 2328 
Q 1563 1606 1931 1193 
Q 2300 781 2944 781 
Q 3303 781 3628 887 
Q 3953 994 4288 1222 
L 4288 256 
z
" transform="scale(0.015625)"/>
      <path id="DejaVuSans-Bold-31" d="M 750 831 
L 1813 831 
L 1813 3847 
L 722 3622 
L 722 4441 
L 1806 4666 
L 2950 4666 
L 2950 831 
L 4013 831 
L 4013 0 
L 750 0 
L 750 831 
z
" transform="scale(0.015625)"/>
     </defs>
     <use xlink:href="#DejaVuSans-Bold-43"/>
     <use xlink:href="#DejaVuSans-Bold-6f" transform="translate(73.388672 0)"/>
     <use xlink:href="#DejaVuSans-Bold-6f" transform="translate(142.089844 0)"/>
     <use xlink:href="#DejaVuSans-Bold-72" transform="translate(210.791016 0)"/>
     <use xlink:href="#DejaVuSans-Bold-64" transform="translate(260.107422 0)"/>
     <use xlink:href="#DejaVuSans-Bold-20" transform="translate(331.689453 0)"/>
     <use xlink:href="#DejaVuSans-Bold-31" transform="translate(366.503906 0)"/>
    </g>
   </g>
   <g id="text_29">
    <!-- Coord 2 -->
    <g transform="translate(450.481891 373.75032) scale(0.14 -0.14)">
     <defs>
      <path id="DejaVuSans-Bold-32" d="M 1844 884 
L 3897 884 
L 3897 0 
L 506 0 
L 506 884 
L 2209 2388 
Q 2438 2594 2547 2791 
Q 2656 2988 2656 3200 
Q 2656 3528 2436 3728 
Q 2216 3928 1850 3928 
Q 1569 3928 1234 3808 
Q 900 3688 519 3450 
L 519 4475 
Q 925 4609 1322 4679 
Q 1719 4750 2100 4750 
Q 2938 4750 3402 4381 
Q 3866 4013 3866 3353 
Q 3866 2972 3669 2642 
Q 3472 2313 2841 1759 
L 1844 884 
z
" transform="scale(0.015625)"/>
     </defs>
     <use xlink:href="#DejaVuSans-Bold-43"/>
     <use xlink:href="#DejaVuSans-Bold-6f" transform="translate(73.388672 0)"/>
     <use xlink:href="#DejaVuSans-Bold-6f" transform="translate(142.089844 0)"/>
     <use xlink:href="#DejaVuSans-Bold-72" transform="translate(210.791016 0)"/>
     <use xlink:href="#DejaVuSans-Bold-64" transform="translate(260.107422 0)"/>
     <use xlink:href="#DejaVuSans-Bold-20" transform="translate(331.689453 0)"/>
     <use xlink:href="#DejaVuSans-Bold-32" transform="translate(366.503906 0)"/>
    </g>
   </g>
   <g id="text_30">
    <!-- Coord 3 -->
    <g transform="translate(511.70472 350.08942) scale(0.14 -0.14)">
     <defs>
      <path id="DejaVuSans-Bold-33" d="M 2981 2516 
Q 3453 2394 3698 2092 
Q 3944 1791 3944 1325 
Q 3944 631 3412 270 
Q 2881 -91 1863 -91 
Q 1503 -91 1142 -33 
Q 781 25 428 141 
L 428 1069 
Q 766 900 1098 814 
Q 1431 728 1753 728 
Q 2231 728 2486 893 
Q 2741 1059 2741 1369 
Q 2741 1688 2480 1852 
Q 2219 2016 1709 2016 
L 1228 2016 
L 1228 2791 
L 1734 2791 
Q 2188 2791 2409 2933 
Q 2631 3075 2631 3366 
Q 2631 3634 2415 3781 
Q 2200 3928 1806 3928 
Q 1516 3928 1219 3862 
Q 922 3797 628 3669 
L 628 4550 
Q 984 4650 1334 4700 
Q 1684 4750 2022 4750 
Q 2931 4750 3382 4451 
Q 3834 4153 3834 3553 
Q 3834 3144 3618 2883 
Q 3403 2622 2981 2516 
z
" transform="scale(0.015625)"/>
     </defs>
     <use xlink:href="#DejaVuSans-Bold-43"/>
     <use xlink:href="#DejaVuSans-Bold-6f" transform="translate(73.388672 0)"/>
     <use xlink:href="#DejaVuSans-Bold-6f" transform="translate(142.089844 0)"/>
     <use xlink:href="#DejaVuSans-Bold-72" transform="translate(210.791016 0)"/>
     <use xlink:href="#DejaVuSans-Bold-64" transform="translate(260.107422 0)"/>
     <use xlink:href="#DejaVuSans-Bold-20" transform="translate(331.689453 0)"/>
     <use xlink:href="#DejaVuSans-Bold-33" transform="translate(366.503906 0)"/>
    </g>
   </g>
   <g id="text_31">
    <!-- 3D Flight Visualization: State Estimate Flight Path vs. Ideal -->
    <g transform="translate(384.201563 24.48) scale(0.18 -0.18)">
     <defs>
      <path id="DejaVuSans-44" d="M 1259 4147 
L 1259 519 
L 2022 519 
Q 2988 519 3436 956 
Q 3884 1394 3884 2338 
Q 3884 3275 3436 3711 
Q 2988 4147 2022 4147 
L 1259 4147 
z
M 628 4666 
L 1925 4666 
Q 3281 4666 3915 4102 
Q 4550 3538 4550 2338 
Q 4550 1131 3912 565 
Q 3275 0 1925 0 
L 628 0 
L 628 4666 
z
" transform="scale(0.015625)"/>
      <path id="DejaVuSans-46" d="M 628 4666 
L 3309 4666 
L 3309 4134 
L 1259 4134 
L 1259 2759 
L 3109 2759 
L 3109 2228 
L 1259 2228 
L 1259 0 
L 628 0 
L 628 4666 
z
" transform="scale(0.015625)"/>
      <path id="DejaVuSans-6c" d="M 603 4863 
L 1178 4863 
L 1178 0 
L 603 0 
L 603 4863 
z
" transform="scale(0.015625)"/>
      <path id="DejaVuSans-69" d="M 603 3500 
L 1178 3500 
L 1178 0 
L 603 0 
L 603 3500 
z
M 603 4863 
L 1178 4863 
L 1178 4134 
L 603 4134 
L 603 4863 
z
" transform="scale(0.015625)"/>
      <path id="DejaVuSans-67" d="M 2906 1791 
Q 2906 2416 2648 2759 
Q 2391 3103 1925 3103 
Q 1463 3103 1205 2759 
Q 947 2416 947 1791 
Q 947 1169 1205 825 
Q 1463 481 1925 481 
Q 2391 481 2648 825 
Q 2906 1169 2906 1791 
z
M 3481 434 
Q 3481 -459 3084 -895 
Q 2688 -1331 1869 -1331 
Q 1566 -1331 1297 -1286 
Q 1028 -1241 775 -1147 
L 775 -588 
Q 1028 -725 1275 -790 
Q 1522 -856 1778 -856 
Q 2344 -856 2625 -561 
Q 2906 -266 2906 331 
L 2906 616 
Q 2728 306 2450 153 
Q 2172 0 1784 0 
Q 1141 0 747 490 
Q 353 981 353 1791 
Q 353 2603 747 3093 
Q 1141 3584 1784 3584 
Q 2172 3584 2450 3431 
Q 2728 3278 2906 2969 
L 2906 3500 
L 3481 3500 
L 3481 434 
z
" transform="scale(0.015625)"/>
      <path id="DejaVuSans-68" d="M 3513 2113 
L 3513 0 
L 2938 0 
L 2938 2094 
Q 2938 2591 2744 2837 
Q 2550 3084 2163 3084 
Q 1697 3084 1428 2787 
Q 1159 2491 1159 1978 
L 1159 0 
L 581 0 
L 581 4863 
L 1159 4863 
L 1159 2956 
Q 1366 3272 1645 3428 
Q 1925 3584 2291 3584 
Q 2894 3584 3203 3211 
Q 3513 2838 3513 2113 
z
" transform="scale(0.015625)"/>
      <path id="DejaVuSans-74" d="M 1172 4494 
L 1172 3500 
L 2356 3500 
L 2356 3053 
L 1172 3053 
L 1172 1153 
Q 1172 725 1289 603 
Q 1406 481 1766 481 
L 2356 481 
L 2356 0 
L 1766 0 
Q 1100 0 847 248 
Q 594 497 594 1153 
L 594 3053 
L 172 3053 
L 172 3500 
L 594 3500 
L 594 4494 
L 1172 4494 
z
" transform="scale(0.015625)"/>
      <path id="DejaVuSans-56" d="M 1831 0 
L 50 4666 
L 709 4666 
L 2188 738 
L 3669 4666 
L 4325 4666 
L 2547 0 
L 1831 0 
z
" transform="scale(0.015625)"/>
      <path id="DejaVuSans-73" d="M 2834 3397 
L 2834 2853 
Q 2591 2978 2328 3040 
Q 2066 3103 1784 3103 
Q 1356 3103 1142 2972 
Q 928 2841 928 2578 
Q 928 2378 1081 2264 
Q 1234 2150 1697 2047 
L 1894 2003 
Q 2506 1872 2764 1633 
Q 3022 1394 3022 966 
Q 3022 478 2636 193 
Q 2250 -91 1575 -91 
Q 1294 -91 989 -36 
Q 684 19 347 128 
L 347 722 
Q 666 556 975 473 
Q 1284 391 1588 391 
Q 1994 391 2212 530 
Q 2431 669 2431 922 
Q 2431 1156 2273 1281 
Q 2116 1406 1581 1522 
L 1381 1569 
Q 847 1681 609 1914 
Q 372 2147 372 2553 
Q 372 3047 722 3315 
Q 1072 3584 1716 3584 
Q 2034 3584 2315 3537 
Q 2597 3491 2834 3397 
z
" transform="scale(0.015625)"/>
      <path id="DejaVuSans-75" d="M 544 1381 
L 544 3500 
L 1119 3500 
L 1119 1403 
Q 1119 906 1312 657 
Q 1506 409 1894 409 
Q 2359 409 2629 706 
Q 2900 1003 2900 1516 
L 2900 3500 
L 3475 3500 
L 3475 0 
L 2900 0 
L 2900 538 
Q 2691 219 2414 64 
Q 2138 -91 1772 -91 
Q 1169 -91 856 284 
Q 544 659 544 1381 
z
M 1991 3584 
L 1991 3584 
z
" transform="scale(0.015625)"/>
      <path id="DejaVuSans-61" d="M 2194 1759 
Q 1497 1759 1228 1600 
Q 959 1441 959 1056 
Q 959 750 1161 570 
Q 1363 391 1709 391 
Q 2188 391 2477 730 
Q 2766 1069 2766 1631 
L 2766 1759 
L 2194 1759 
z
M 3341 1997 
L 3341 0 
L 2766 0 
L 2766 531 
Q 2569 213 2275 61 
Q 1981 -91 1556 -91 
Q 1019 -91 701 211 
Q 384 513 384 1019 
Q 384 1609 779 1909 
Q 1175 2209 1959 2209 
L 2766 2209 
L 2766 2266 
Q 2766 2663 2505 2880 
Q 2244 3097 1772 3097 
Q 1472 3097 1187 3025 
Q 903 2953 641 2809 
L 641 3341 
Q 956 3463 1253 3523 
Q 1550 3584 1831 3584 
Q 2591 3584 2966 3190 
Q 3341 2797 3341 1997 
z
" transform="scale(0.015625)"/>
      <path id="DejaVuSans-7a" d="M 353 3500 
L 3084 3500 
L 3084 2975 
L 922 459 
L 3084 459 
L 3084 0 
L 275 0 
L 275 525 
L 2438 3041 
L 353 3041 
L 353 3500 
z
" transform="scale(0.015625)"/>
      <path id="DejaVuSans-6f" d="M 1959 3097 
Q 1497 3097 1228 2736 
Q 959 2375 959 1747 
Q 959 1119 1226 758 
Q 1494 397 1959 397 
Q 2419 397 2687 759 
Q 2956 1122 2956 1747 
Q 2956 2369 2687 2733 
Q 2419 3097 1959 3097 
z
M 1959 3584 
Q 2709 3584 3137 3096 
Q 3566 2609 3566 1747 
Q 3566 888 3137 398 
Q 2709 -91 1959 -91 
Q 1206 -91 779 398 
Q 353 888 353 1747 
Q 353 2609 779 3096 
Q 1206 3584 1959 3584 
z
" transform="scale(0.015625)"/>
      <path id="DejaVuSans-6e" d="M 3513 2113 
L 3513 0 
L 2938 0 
L 2938 2094 
Q 2938 2591 2744 2837 
Q 2550 3084 2163 3084 
Q 1697 3084 1428 2787 
Q 1159 2491 1159 1978 
L 1159 0 
L 581 0 
L 581 3500 
L 1159 3500 
L 1159 2956 
Q 1366 3272 1645 3428 
Q 1925 3584 2291 3584 
Q 2894 3584 3203 3211 
Q 3513 2838 3513 2113 
z
" transform="scale(0.015625)"/>
      <path id="DejaVuSans-3a" d="M 750 794 
L 1409 794 
L 1409 0 
L 750 0 
L 750 794 
z
M 750 3309 
L 1409 3309 
L 1409 2516 
L 750 2516 
L 750 3309 
z
" transform="scale(0.015625)"/>
      <path id="DejaVuSans-53" d="M 3425 4513 
L 3425 3897 
Q 3066 4069 2747 4153 
Q 2428 4238 2131 4238 
Q 1616 4238 1336 4038 
Q 1056 3838 1056 3469 
Q 1056 3159 1242 3001 
Q 1428 2844 1947 2747 
L 2328 2669 
Q 3034 2534 3370 2195 
Q 3706 1856 3706 1288 
Q 3706 609 3251 259 
Q 2797 -91 1919 -91 
Q 1588 -91 1214 -16 
Q 841 59 441 206 
L 441 856 
Q 825 641 1194 531 
Q 1563 422 1919 422 
Q 2459 422 2753 634 
Q 3047 847 3047 1241 
Q 3047 1584 2836 1778 
Q 2625 1972 2144 2069 
L 1759 2144 
Q 1053 2284 737 2584 
Q 422 2884 422 3419 
Q 422 4038 858 4394 
Q 1294 4750 2059 4750 
Q 2388 4750 2728 4690 
Q 3069 4631 3425 4513 
z
" transform="scale(0.015625)"/>
      <path id="DejaVuSans-65" d="M 3597 1894 
L 3597 1613 
L 953 1613 
Q 991 1019 1311 708 
Q 1631 397 2203 397 
Q 2534 397 2845 478 
Q 3156 559 3463 722 
L 3463 178 
Q 3153 47 2828 -22 
Q 2503 -91 2169 -91 
Q 1331 -91 842 396 
Q 353 884 353 1716 
Q 353 2575 817 3079 
Q 1281 3584 2069 3584 
Q 2775 3584 3186 3129 
Q 3597 2675 3597 1894 
z
M 3022 2063 
Q 3016 2534 2758 2815 
Q 2500 3097 2075 3097 
Q 1594 3097 1305 2825 
Q 1016 2553 972 2059 
L 3022 2063 
z
" transform="scale(0.015625)"/>
      <path id="DejaVuSans-45" d="M 628 4666 
L 3578 4666 
L 3578 4134 
L 1259 4134 
L 1259 2753 
L 3481 2753 
L 3481 2222 
L 1259 2222 
L 1259 531 
L 3634 531 
L 3634 0 
L 628 0 
L 628 4666 
z
" transform="scale(0.015625)"/>
      <path id="DejaVuSans-50" d="M 1259 4147 
L 1259 2394 
L 2053 2394 
Q 2494 2394 2734 2622 
Q 2975 2850 2975 3272 
Q 2975 3691 2734 3919 
Q 2494 4147 2053 4147 
L 1259 4147 
z
M 628 4666 
L 2053 4666 
Q 2838 4666 3239 4311 
Q 3641 3956 3641 3272 
Q 3641 2581 3239 2228 
Q 2838 1875 2053 1875 
L 1259 1875 
L 1259 0 
L 628 0 
L 628 4666 
z
" transform="scale(0.015625)"/>
      <path id="DejaVuSans-76" d="M 191 3500 
L 800 3500 
L 1894 563 
L 2988 3500 
L 3597 3500 
L 2284 0 
L 1503 0 
L 191 3500 
z
" transform="scale(0.015625)"/>
      <path id="DejaVuSans-49" d="M 628 4666 
L 1259 4666 
L 1259 0 
L 628 0 
L 628 4666 
z
" transform="scale(0.015625)"/>
      <path id="DejaVuSans-64" d="M 2906 2969 
L 2906 4863 
L 3481 4863 
L 3481 0 
L 2906 0 
L 2906 525 
Q 2725 213 2448 61 
Q 2172 -91 1784 -91 
Q 1150 -91 751 415 
Q 353 922 353 1747 
Q 353 2572 751 3078 
Q 1150 3584 1784 3584 
Q 2172 3584 2448 3432 
Q 2725 3281 2906 2969 
z
M 947 1747 
Q 947 1113 1208 752 
Q 1469 391 1925 391 
Q 2381 391 2643 752 
Q 2906 1113 2906 1747 
Q 2906 2381 2643 2742 
Q 2381 3103 1925 3103 
Q 1469 3103 1208 2742 
Q 947 2381 947 1747 
z
" transform="scale(0.015625)"/>
     </defs>
     <use xlink:href="#DejaVuSans-33"/>
     <use xlink:href="#DejaVuSans-44" transform="translate(63.623047 0)"/>
     <use xlink:href="#DejaVuSans-20" transform="translate(140.625 0)"/>
     <use xlink:href="#DejaVuSans-46" transform="translate(172.412109 0)"/>
     <use xlink:href="#DejaVuSans-6c" transform="translate(229.931641 0)"/>
     <use xlink:href="#DejaVuSans-69" transform="translate(257.714844 0)"/>
     <use xlink:href="#DejaVuSans-67" transform="translate(285.498047 0)"/>
     <use xlink:href="#DejaVuSans-68" transform="translate(348.974609 0)"/>
     <use xlink:href="#DejaVuSans-74" transform="translate(412.353516 0)"/>
     <use xlink:href="#DejaVuSans-20" transform="translate(451.5625 0)"/>
     <use xlink:href="#DejaVuSans-56" transform="translate(483.349609 0)"/>
     <use xlink:href="#DejaVuSans-69" transform="translate(549.507812 0)"/>
     <use xlink:href="#DejaVuSans-73" transform="translate(577.291016 0)"/>
     <use xlink:href="#DejaVuSans-75" transform="translate(629.390625 0)"/>
     <use xlink:href="#DejaVuSans-61" transform="translate(692.769531 0)"/>
     <use xlink:href="#DejaVuSans-6c" transform="translate(754.048828 0)"/>
     <use xlink:href="#DejaVuSans-69" transform="translate(781.832031 0)"/>
     <use xlink:href="#DejaVuSans-7a" transform="translate(809.615234 0)"/>
     <use xlink:href="#DejaVuSans-61" transform="translate(862.105469 0)"/>
     <use xlink:href="#DejaVuSans-74" transform="translate(923.384766 0)"/>
     <use xlink:href="#DejaVuSans-69" transform="translate(962.59375 0)"/>
     <use xlink:href="#DejaVuSans-6f" transform="translate(990.376953 0)"/>
     <use xlink:href="#DejaVuSans-6e" transform="translate(1051.558594 0)"/>
     <use xlink:href="#DejaVuSans-3a" transform="translate(1114.9375 0)"/>
     <use xlink:href="#DejaVuSans-20" transform="translate(1148.628906 0)"/>
     <use xlink:href="#DejaVuSans-53" transform="translate(1180.416016 0)"/>
     <use xlink:href="#DejaVuSans-74" transform="translate(1243.892578 0)"/>
     <use xlink:href="#DejaVuSans-61" transform="translate(1283.101562 0)"/>
     <use xlink:href="#DejaVuSans-74" transform="translate(1344.380859 0)"/>
     <use xlink:href="#DejaVuSans-65" transform="translate(1383.589844 0)"/>
     <use xlink:href="#DejaVuSans-20" transform="translate(1445.113281 0)"/>
     <use xlink:href="#DejaVuSans-45" transform="translate(1476.900391 0)"/>
     <use xlink:href="#DejaVuSans-73" transform="translate(1540.083984 0)"/>
     <use xlink:href="#DejaVuSans-74" transform="translate(1592.183594 0)"/>
     <use xlink:href="#DejaVuSans-69" transform="translate(1631.392578 0)"/>
     <use xlink:href="#DejaVuSans-6d" transform="translate(1659.175781 0)"/>
     <use xlink:href="#DejaVuSans-61" transform="translate(1756.587891 0)"/>
     <use xlink:href="#DejaVuSans-74" transform="translate(1817.867188 0)"/>
     <use xlink:href="#DejaVuSans-65" transform="translate(1857.076172 0)"/>
     <use xlink:href="#DejaVuSans-20" transform="translate(1918.599609 0)"/>
     <use xlink:href="#DejaVuSans-46" transform="translate(1950.386719 0)"/>
     <use xlink:href="#DejaVuSans-6c" transform="translate(2007.90625 0)"/>
     <use xlink:href="#DejaVuSans-69" transform="translate(2035.689453 0)"/>
     <use xlink:href="#DejaVuSans-67" transform="translate(2063.472656 0)"/>
     <use xlink:href="#DejaVuSans-68" transform="translate(2126.949219 0)"/>
     <use xlink:href="#DejaVuSans-74" transform="translate(2190.328125 0)"/>
     <use xlink:href="#DejaVuSans-20" transform="translate(2229.537109 0)"/>
     <use xlink:href="#DejaVuSans-50" transform="translate(2261.324219 0)"/>
     <use xlink:href="#DejaVuSans-61" transform="translate(2317.126953 0)"/>
     <use xlink:href="#DejaVuSans-74" transform="translate(2378.40625 0)"/>
     <use xlink:href="#DejaVuSans-68" transform="translate(2417.615234 0)"/>
     <use xlink:href="#DejaVuSans-20" transform="translate(2480.994141 0)"/>
     <use xlink:href="#DejaVuSans-76" transform="translate(2512.78125 0)"/>
     <use xlink:href="#DejaVuSans-73" transform="translate(2571.960938 0)"/>
     <use xlink:href="#DejaVuSans-2e" transform="translate(2624.060547 0)"/>
     <use xlink:href="#DejaVuSans-20" transform="translate(2655.847656 0)"/>
     <use xlink:href="#DejaVuSans-49" transform="translate(2687.634766 0)"/>
     <use xlink:href="#DejaVuSans-64" transform="translate(2717.126953 0)"/>
     <use xlink:href="#DejaVuSans-65" transform="translate(2780.603516 0)"/>
     <use xlink:href="#DejaVuSans-61" transform="translate(2842.126953 0)"/>
     <use xlink:href="#DejaVuSans-6c" transform="translate(2903.40625 0)"/>
    </g>
   </g>
   <g id="legend_1">
    <g id="patch_6">
     <path d="M 928.49625 75.3075 
L 1122.96 75.3075 
Q 1125.36 75.3075 1125.36 72.9075 
L 1125.36 38.88 
Q 1125.36 36.48 1122.96 36.48 
L 928.49625 36.48 
Q 926.09625 36.48 926.09625 38.88 
L 926.09625 72.9075 
Q 926.09625 75.3075 928.49625 75.3075 
z
" style="fill: #ffffff; opacity: 0.8; stroke: #cccccc; stroke-linejoin: miter"/>
    </g>
    <g id="line2d_28">
     <path d="M 930.89625 46.198125 
L 942.89625 46.198125 
L 954.89625 46.198125 
" style="fill: none; stroke: #0000ff; stroke-width: 2; stroke-linecap: square"/>
    </g>
    <g id="text_32">
     <!-- State Estimate Flight Path -->
     <g transform="translate(964.49625 50.398125) scale(0.12 -0.12)">
      <use xlink:href="#DejaVuSans-53"/>
      <use xlink:href="#DejaVuSans-74" transform="translate(63.476562 0)"/>
      <use xlink:href="#DejaVuSans-61" transform="translate(102.685547 0)"/>
      <use xlink:href="#DejaVuSans-74" transform="translate(163.964844 0)"/>
      <use xlink:href="#DejaVuSans-65" transform="translate(203.173828 0)"/>
      <use xlink:href="#DejaVuSans-20" transform="translate(264.697266 0)"/>
      <use xlink:href="#DejaVuSans-45" transform="translate(296.484375 0)"/>
      <use xlink:href="#DejaVuSans-73" transform="translate(359.667969 0)"/>
      <use xlink:href="#DejaVuSans-74" transform="translate(411.767578 0)"/>
      <use xlink:href="#DejaVuSans-69" transform="translate(450.976562 0)"/>
      <use xlink:href="#DejaVuSans-6d" transform="translate(478.759766 0)"/>
      <use xlink:href="#DejaVuSans-61" transform="translate(576.171875 0)"/>
      <use xlink:href="#DejaVuSans-74" transform="translate(637.451172 0)"/>
      <use xlink:href="#DejaVuSans-65" transform="translate(676.660156 0)"/>
      <use xlink:href="#DejaVuSans-20" transform="translate(738.183594 0)"/>
      <use xlink:href="#DejaVuSans-46" transform="translate(769.970703 0)"/>
      <use xlink:href="#DejaVuSans-6c" transform="translate(827.490234 0)"/>
      <use xlink:href="#DejaVuSans-69" transform="translate(855.273438 0)"/>
      <use xlink:href="#DejaVuSans-67" transform="translate(883.056641 0)"/>
      <use xlink:href="#DejaVuSans-68" transform="translate(946.533203 0)"/>
      <use xlink:href="#DejaVuSans-74" transform="translate(1009.912109 0)"/>
      <use xlink:href="#DejaVuSans-20" transform="translate(1049.121094 0)"/>
      <use xlink:href="#DejaVuSans-50" transform="translate(1080.908203 0)"/>
      <use xlink:href="#DejaVuSans-61" transform="translate(1136.710938 0)"/>
      <use xlink:href="#DejaVuSans-74" transform="translate(1197.990234 0)"/>
      <use xlink:href="#DejaVuSans-68" transform="translate(1237.199219 0)"/>
     </g>
    </g>
    <g id="line2d_29">
     <path d="M 930.89625 63.811875 
L 942.89625 63.811875 
L 954.89625 63.811875 
" style="fill: none; stroke-dasharray: 7.4,3.2; stroke-dashoffset: 0; stroke: #008000; stroke-width: 2"/>
    </g>
    <g id="text_33">
     <!-- Ideal Waypoints Path -->
     <g transform="translate(964.49625 68.011875) scale(0.12 -0.12)">
      <defs>
       <path id="DejaVuSans-57" d="M 213 4666 
L 850 4666 
L 1831 722 
L 2809 4666 
L 3519 4666 
L 4500 722 
L 5478 4666 
L 6119 4666 
L 4947 0 
L 4153 0 
L 3169 4050 
L 2175 0 
L 1381 0 
L 213 4666 
z
" transform="scale(0.015625)"/>
       <path id="DejaVuSans-79" d="M 2059 -325 
Q 1816 -950 1584 -1140 
Q 1353 -1331 966 -1331 
L 506 -1331 
L 506 -850 
L 844 -850 
Q 1081 -850 1212 -737 
Q 1344 -625 1503 -206 
L 1606 56 
L 191 3500 
L 800 3500 
L 1894 763 
L 2988 3500 
L 3597 3500 
L 2059 -325 
z
" transform="scale(0.015625)"/>
       <path id="DejaVuSans-70" d="M 1159 525 
L 1159 -1331 
L 581 -1331 
L 581 3500 
L 1159 3500 
L 1159 2969 
Q 1341 3281 1617 3432 
Q 1894 3584 2278 3584 
Q 2916 3584 3314 3078 
Q 3713 2572 3713 1747 
Q 3713 922 3314 415 
Q 2916 -91 2278 -91 
Q 1894 -91 1617 61 
Q 1341 213 1159 525 
z
M 3116 1747 
Q 3116 2381 2855 2742 
Q 2594 3103 2138 3103 
Q 1681 3103 1420 2742 
Q 1159 2381 1159 1747 
Q 1159 1113 1420 752 
Q 1681 391 2138 391 
Q 2594 391 2855 752 
Q 3116 1113 3116 1747 
z
" transform="scale(0.015625)"/>
      </defs>
      <use xlink:href="#DejaVuSans-49"/>
      <use xlink:href="#DejaVuSans-64" transform="translate(29.492188 0)"/>
      <use xlink:href="#DejaVuSans-65" transform="translate(92.96875 0)"/>
      <use xlink:href="#DejaVuSans-61" transform="translate(154.492188 0)"/>
      <use xlink:href="#DejaVuSans-6c" transform="translate(215.771484 0)"/>
      <use xlink:href="#DejaVuSans-20" transform="translate(243.554688 0)"/>
      <use xlink:href="#DejaVuSans-57" transform="translate(275.341797 0)"/>
      <use xlink:href="#DejaVuSans-61" transform="translate(367.84375 0)"/>
      <use xlink:href="#DejaVuSans-79" transform="translate(429.123047 0)"/>
      <use xlink:href="#DejaVuSans-70" transform="translate(488.302734 0)"/>
      <use xlink:href="#DejaVuSans-6f" transform="translate(551.779297 0)"/>
      <use xlink:href="#DejaVuSans-69" transform="translate(612.960938 0)"/>
      <use xlink:href="#DejaVuSans-6e" transform="translate(640.744141 0)"/>
      <use xlink:href="#DejaVuSans-74" transform="translate(704.123047 0)"/>
      <use xlink:href="#DejaVuSans-73" transform="translate(743.332031 0)"/>
      <use xlink:href="#DejaVuSans-20" transform="translate(795.431641 0)"/>
      <use xlink:href="#DejaVuSans-50" transform="translate(827.21875 0)"/>
      <use xlink:href="#DejaVuSans-61" transform="translate(883.021484 0)"/>
      <use xlink:href="#DejaVuSans-74" transform="translate(944.300781 0)"/>
      <use xlink:href="#DejaVuSans-68" transform="translate(983.509766 0)"/>
     </g>
    </g>
   </g>
  </g>
 </g>
 <defs>
  <clipPath id="pe30e44f02b">
   <rect x="164.64" y="30.48" width="966.72" height="966.72"/>
  </clipPath>
 </defs>
</svg>
