<?xml version="1.0" encoding="utf-8" standalone="no"?>
<!DOCTYPE svg PUBLIC "-//W3C//DTD SVG 1.1//EN"
  "http://www.w3.org/Graphics/SVG/1.1/DTD/svg11.dtd">
<svg xmlns:xlink="http://www.w3.org/1999/xlink" width="1296pt" height="1008pt" viewBox="0 0 1296 1008" xmlns="http://www.w3.org/2000/svg" version="1.1">
 <metadata>
  <rdf:RDF xmlns:dc="http://purl.org/dc/elements/1.1/" xmlns:cc="http://creativecommons.org/ns#" xmlns:rdf="http://www.w3.org/1999/02/22-rdf-syntax-ns#">
   <cc:Work>
    <dc:type rdf:resource="http://purl.org/dc/dcmitype/StillImage"/>
    <dc:date>2025-08-06T00:19:50.789625</dc:date>
    <dc:format>image/svg+xml</dc:format>
    <dc:creator>
     <cc:Agent>
      <dc:title>Matplotlib v3.10.3, https://matplotlib.org/</dc:title>
     </cc:Agent>
    </dc:creator>
   </cc:Work>
  </rdf:RDF>
 </metadata>
 <defs>
  <style type="text/css">*{stroke-linejoin: round; stroke-linecap: butt}</style>
 </defs>
 <g id="figure_1">
  <g id="patch_1">
   <path d="M 0 1008 
L 1296 1008 
L 1296 0 
L 0 0 
z
" style="fill: #ffffff"/>
  </g>
  <g id="patch_2">
   <path d="M 164.64 997.2 
L 1131.36 997.2 
L 1131.36 30.48 
L 164.64 30.48 
z
" style="fill: #ffffff"/>
  </g>
  <g id="pane3d_1">
   <g id="patch_3">
    <path d="M 661.063784 581.893746 
L 263.758321 755.391958 
L 244.84442 234.039381 
L 661.063784 87.939602 
" style="fill: #f2f2f2; opacity: 0.5; stroke: #f2f2f2; stroke-linejoin: miter"/>
   </g>
  </g>
  <g id="pane3d_2">
   <g id="patch_4">
    <path d="M 1058.369247 755.391958 
L 661.063784 581.893746 
L 661.063784 87.939602 
L 1077.283147 234.039381 
" style="fill: #e6e6e6; opacity: 0.5; stroke: #e6e6e6; stroke-linejoin: miter"/>
   </g>
  </g>
  <g id="pane3d_3">
   <g id="patch_5">
    <path d="M 1058.369247 755.391958 
L 661.063784 581.893746 
L 263.758321 755.391958 
L 661.063784 954.570688 
" style="fill: #ececec; opacity: 0.5; stroke: #ececec; stroke-linejoin: miter"/>
   </g>
  </g>
  <g id="grid3d_1">
   <g id="Line3DCollection_1">
    <path d="M 615.986191 931.972213 
L 1013.481515 735.79006 
L 1030.130549 217.488051 
" style="fill: none; stroke: #b0b0b0; stroke-width: 0.8"/>
    <path d="M 558.249649 903.027504 
L 955.917419 710.652556 
L 969.7098 196.279383 
" style="fill: none; stroke: #b0b0b0; stroke-width: 0.8"/>
    <path d="M 501.666894 874.661215 
L 899.42644 685.983668 
L 910.467598 175.484405 
" style="fill: none; stroke: #b0b0b0; stroke-width: 0.8"/>
    <path d="M 446.203683 846.856181 
L 843.978849 661.770414 
L 852.369792 155.091128 
" style="fill: none; stroke: #b0b0b0; stroke-width: 0.8"/>
    <path d="M 391.827115 819.595907 
L 789.546001 638.000286 
L 795.38354 135.088025 
" style="fill: none; stroke: #b0b0b0; stroke-width: 0.8"/>
    <path d="M 338.505565 792.864539 
L 736.100295 614.66123 
L 739.477244 115.464004 
" style="fill: none; stroke: #b0b0b0; stroke-width: 0.8"/>
    <path d="M 286.208624 766.646832 
L 683.615118 591.741625 
L 684.620493 96.208391 
" style="fill: none; stroke: #b0b0b0; stroke-width: 0.8"/>
   </g>
  </g>
  <g id="grid3d_2">
   <g id="Line3DCollection_2">
    <path d="M 613.282359 104.71166 
L 615.329788 601.865197 
L 1012.827519 778.223115 
" style="fill: none; stroke: #b0b0b0; stroke-width: 0.8"/>
    <path d="M 539.071476 130.76089 
L 544.362666 632.855631 
L 942.060046 813.700542 
" style="fill: none; stroke: #b0b0b0; stroke-width: 0.8"/>
    <path d="M 462.941449 157.48377 
L 471.640873 664.612307 
L 869.418021 850.117726 
" style="fill: none; stroke: #b0b0b0; stroke-width: 0.8"/>
    <path d="M 384.816859 184.906774 
L 397.098516 697.164001 
L 794.825965 887.512508 
" style="fill: none; stroke: #b0b0b0; stroke-width: 0.8"/>
    <path d="M 304.618281 213.057782 
L 320.666363 730.540944 
L 718.204286 925.924788 
" style="fill: none; stroke: #b0b0b0; stroke-width: 0.8"/>
   </g>
  </g>
  <g id="grid3d_3">
   <g id="Line3DCollection_3">
    <path d="M 1058.369247 755.391958 
L 661.063784 581.893746 
L 263.758321 755.391958 
" style="fill: none; stroke: #b0b0b0; stroke-width: 0.8"/>
    <path d="M 1060.638941 692.828933 
L 661.063784 522.458548 
L 261.488627 692.828933 
" style="fill: none; stroke: #b0b0b0; stroke-width: 0.8"/>
    <path d="M 1062.934716 629.546992 
L 661.063784 462.384877 
L 259.192852 629.546992 
" style="fill: none; stroke: #b0b0b0; stroke-width: 0.8"/>
    <path d="M 1065.257025 565.533671 
L 661.063784 401.662389 
L 256.870543 565.533671 
" style="fill: none; stroke: #b0b0b0; stroke-width: 0.8"/>
    <path d="M 1067.606329 500.776216 
L 661.063784 340.280517 
L 254.521238 500.776216 
" style="fill: none; stroke: #b0b0b0; stroke-width: 0.8"/>
    <path d="M 1069.983103 435.261577 
L 661.063784 278.22846 
L 252.144464 435.261577 
" style="fill: none; stroke: #b0b0b0; stroke-width: 0.8"/>
    <path d="M 1072.387832 368.976396 
L 661.063784 215.495184 
L 249.739736 368.976396 
" style="fill: none; stroke: #b0b0b0; stroke-width: 0.8"/>
    <path d="M 1074.82101 301.906997 
L 661.063784 152.069408 
L 247.306557 301.906997 
" style="fill: none; stroke: #b0b0b0; stroke-width: 0.8"/>
    <path d="M 1077.283147 234.039381 
L 661.063784 87.939602 
L 244.84442 234.039381 
" style="fill: none; stroke: #b0b0b0; stroke-width: 0.8"/>
   </g>
  </g>
  <g id="axis3d_1">
   <g id="line2d_1">
    <path d="M 263.758321 755.391958 
L 661.063784 954.570688 
" style="fill: none; stroke: #000000; stroke-width: 0.8; stroke-linecap: square"/>
   </g>
   <g id="xtick_1">
    <g id="line2d_2">
     <path d="M 619.397652 930.288501 
L 609.15123 935.34558 
" style="fill: none; stroke: #000000; stroke-width: 0.8; stroke-linecap: square"/>
    </g>
    <g id="text_1">
     <!-- −0.5 -->
     <g transform="translate(594.143606 956.307179) scale(0.1 -0.1)">
      <defs>
       <path id="DejaVuSans-2212" d="M 678 2272 
L 4684 2272 
L 4684 1741 
L 678 1741 
L 678 2272 
z
" transform="scale(0.015625)"/>
       <path id="DejaVuSans-30" d="M 2034 4250 
Q 1547 4250 1301 3770 
Q 1056 3291 1056 2328 
Q 1056 1369 1301 889 
Q 1547 409 2034 409 
Q 2525 409 2770 889 
Q 3016 1369 3016 2328 
Q 3016 3291 2770 3770 
Q 2525 4250 2034 4250 
z
M 2034 4750 
Q 2819 4750 3233 4129 
Q 3647 3509 3647 2328 
Q 3647 1150 3233 529 
Q 2819 -91 2034 -91 
Q 1250 -91 836 529 
Q 422 1150 422 2328 
Q 422 3509 836 4129 
Q 1250 4750 2034 4750 
z
" transform="scale(0.015625)"/>
       <path id="DejaVuSans-2e" d="M 684 794 
L 1344 794 
L 1344 0 
L 684 0 
L 684 794 
z
" transform="scale(0.015625)"/>
       <path id="DejaVuSans-35" d="M 691 4666 
L 3169 4666 
L 3169 4134 
L 1269 4134 
L 1269 2991 
Q 1406 3038 1543 3061 
Q 1681 3084 1819 3084 
Q 2600 3084 3056 2656 
Q 3513 2228 3513 1497 
Q 3513 744 3044 326 
Q 2575 -91 1722 -91 
Q 1428 -91 1123 -41 
Q 819 9 494 109 
L 494 744 
Q 775 591 1075 516 
Q 1375 441 1709 441 
Q 2250 441 2565 725 
Q 2881 1009 2881 1497 
Q 2881 1984 2565 2268 
Q 2250 2553 1709 2553 
Q 1456 2553 1204 2497 
Q 953 2441 691 2322 
L 691 4666 
z
" transform="scale(0.015625)"/>
      </defs>
      <use xlink:href="#DejaVuSans-2212"/>
      <use xlink:href="#DejaVuSans-30" transform="translate(83.789062 0)"/>
      <use xlink:href="#DejaVuSans-2e" transform="translate(147.412109 0)"/>
      <use xlink:href="#DejaVuSans-35" transform="translate(179.199219 0)"/>
     </g>
    </g>
   </g>
   <g id="xtick_2">
    <g id="line2d_3">
     <path d="M 561.660254 901.377596 
L 551.416525 906.333082 
" style="fill: none; stroke: #000000; stroke-width: 0.8; stroke-linecap: square"/>
    </g>
    <g id="text_2">
     <!-- 0.0 -->
     <g transform="translate(540.662212 927.177084) scale(0.1 -0.1)">
      <use xlink:href="#DejaVuSans-30"/>
      <use xlink:href="#DejaVuSans-2e" transform="translate(63.623047 0)"/>
      <use xlink:href="#DejaVuSans-30" transform="translate(95.410156 0)"/>
     </g>
    </g>
   </g>
   <g id="xtick_3">
    <g id="line2d_4">
     <path d="M 505.075996 873.044105 
L 494.8369 877.901028 
" style="fill: none; stroke: #000000; stroke-width: 0.8; stroke-linecap: square"/>
    </g>
    <g id="text_3">
     <!-- 0.5 -->
     <g transform="translate(484.144103 898.629441) scale(0.1 -0.1)">
      <use xlink:href="#DejaVuSans-30"/>
      <use xlink:href="#DejaVuSans-2e" transform="translate(63.623047 0)"/>
      <use xlink:href="#DejaVuSans-35" transform="translate(95.410156 0)"/>
     </g>
    </g>
   </g>
   <g id="xtick_4">
    <g id="line2d_5">
     <path d="M 449.610674 845.2709 
L 439.378035 850.032172 
" style="fill: none; stroke: #000000; stroke-width: 0.8; stroke-linecap: square"/>
    </g>
    <g id="text_4">
     <!-- 1.0 -->
     <g transform="translate(428.744879 870.646953) scale(0.1 -0.1)">
      <defs>
       <path id="DejaVuSans-31" d="M 794 531 
L 1825 531 
L 1825 4091 
L 703 3866 
L 703 4441 
L 1819 4666 
L 2450 4666 
L 2450 531 
L 3481 531 
L 3481 0 
L 794 0 
L 794 531 
z
" transform="scale(0.015625)"/>
      </defs>
      <use xlink:href="#DejaVuSans-31"/>
      <use xlink:href="#DejaVuSans-2e" transform="translate(63.623047 0)"/>
      <use xlink:href="#DejaVuSans-30" transform="translate(95.410156 0)"/>
     </g>
    </g>
   </g>
   <g id="xtick_5">
    <g id="line2d_6">
     <path d="M 395.231424 818.041524 
L 385.006955 822.709944 
" style="fill: none; stroke: #000000; stroke-width: 0.8; stroke-linecap: square"/>
    </g>
    <g id="text_5">
     <!-- 1.5 -->
     <g transform="translate(374.43164 843.213004) scale(0.1 -0.1)">
      <use xlink:href="#DejaVuSans-31"/>
      <use xlink:href="#DejaVuSans-2e" transform="translate(63.623047 0)"/>
      <use xlink:href="#DejaVuSans-35" transform="translate(95.410156 0)"/>
     </g>
    </g>
   </g>
   <g id="xtick_6">
    <g id="line2d_7">
     <path d="M 341.906654 791.340159 
L 331.691968 795.918416 
" style="fill: none; stroke: #000000; stroke-width: 0.8; stroke-linecap: square"/>
    </g>
    <g id="text_6">
     <!-- 2.0 -->
     <g transform="translate(321.172763 816.311619) scale(0.1 -0.1)">
      <defs>
       <path id="DejaVuSans-32" d="M 1228 531 
L 3431 531 
L 3431 0 
L 469 0 
L 469 531 
Q 828 903 1448 1529 
Q 2069 2156 2228 2338 
Q 2531 2678 2651 2914 
Q 2772 3150 2772 3378 
Q 2772 3750 2511 3984 
Q 2250 4219 1831 4219 
Q 1534 4219 1204 4116 
Q 875 4013 500 3803 
L 500 4441 
Q 881 4594 1212 4672 
Q 1544 4750 1819 4750 
Q 2544 4750 2975 4387 
Q 3406 4025 3406 3419 
Q 3406 3131 3298 2873 
Q 3191 2616 2906 2266 
Q 2828 2175 2409 1742 
Q 1991 1309 1228 531 
z
" transform="scale(0.015625)"/>
      </defs>
      <use xlink:href="#DejaVuSans-32"/>
      <use xlink:href="#DejaVuSans-2e" transform="translate(63.623047 0)"/>
      <use xlink:href="#DejaVuSans-30" transform="translate(95.410156 0)"/>
     </g>
    </g>
   </g>
   <g id="xtick_7">
    <g id="line2d_8">
     <path d="M 289.605988 765.151595 
L 279.402599 769.642276 
" style="fill: none; stroke: #000000; stroke-width: 0.8; stroke-linecap: square"/>
    </g>
    <g id="text_7">
     <!-- 2.5 -->
     <g transform="translate(268.937842 789.92744) scale(0.1 -0.1)">
      <use xlink:href="#DejaVuSans-32"/>
      <use xlink:href="#DejaVuSans-2e" transform="translate(63.623047 0)"/>
      <use xlink:href="#DejaVuSans-35" transform="translate(95.410156 0)"/>
     </g>
    </g>
   </g>
   <g id="text_8">
    <!-- X (m) -->
    <g transform="translate(415.633159 881.518553) rotate(-333.374297) scale(0.14 -0.14)">
     <defs>
      <path id="DejaVuSans-58" d="M 403 4666 
L 1081 4666 
L 2241 2931 
L 3406 4666 
L 4084 4666 
L 2584 2425 
L 4184 0 
L 3506 0 
L 2194 1984 
L 872 0 
L 191 0 
L 1856 2491 
L 403 4666 
z
" transform="scale(0.015625)"/>
      <path id="DejaVuSans-20" transform="scale(0.015625)"/>
      <path id="DejaVuSans-28" d="M 1984 4856 
Q 1566 4138 1362 3434 
Q 1159 2731 1159 2009 
Q 1159 1288 1364 580 
Q 1569 -128 1984 -844 
L 1484 -844 
Q 1016 -109 783 600 
Q 550 1309 550 2009 
Q 550 2706 781 3412 
Q 1013 4119 1484 4856 
L 1984 4856 
z
" transform="scale(0.015625)"/>
      <path id="DejaVuSans-6d" d="M 3328 2828 
Q 3544 3216 3844 3400 
Q 4144 3584 4550 3584 
Q 5097 3584 5394 3201 
Q 5691 2819 5691 2113 
L 5691 0 
L 5113 0 
L 5113 2094 
Q 5113 2597 4934 2840 
Q 4756 3084 4391 3084 
Q 3944 3084 3684 2787 
Q 3425 2491 3425 1978 
L 3425 0 
L 2847 0 
L 2847 2094 
Q 2847 2600 2669 2842 
Q 2491 3084 2119 3084 
Q 1678 3084 1418 2786 
Q 1159 2488 1159 1978 
L 1159 0 
L 581 0 
L 581 3500 
L 1159 3500 
L 1159 2956 
Q 1356 3278 1631 3431 
Q 1906 3584 2284 3584 
Q 2666 3584 2933 3390 
Q 3200 3197 3328 2828 
z
" transform="scale(0.015625)"/>
      <path id="DejaVuSans-29" d="M 513 4856 
L 1013 4856 
Q 1481 4119 1714 3412 
Q 1947 2706 1947 2009 
Q 1947 1309 1714 600 
Q 1481 -109 1013 -844 
L 513 -844 
Q 928 -128 1133 580 
Q 1338 1288 1338 2009 
Q 1338 2731 1133 3434 
Q 928 4138 513 4856 
z
" transform="scale(0.015625)"/>
     </defs>
     <use xlink:href="#DejaVuSans-58"/>
     <use xlink:href="#DejaVuSans-20" transform="translate(68.505859 0)"/>
     <use xlink:href="#DejaVuSans-28" transform="translate(100.292969 0)"/>
     <use xlink:href="#DejaVuSans-6d" transform="translate(139.306641 0)"/>
     <use xlink:href="#DejaVuSans-29" transform="translate(236.71875 0)"/>
    </g>
   </g>
  </g>
  <g id="axis3d_2">
   <g id="line2d_9">
    <path d="M 1058.369247 755.391958 
L 661.063784 954.570688 
" style="fill: none; stroke: #000000; stroke-width: 0.8; stroke-linecap: square"/>
   </g>
   <g id="xtick_8">
    <g id="line2d_10">
     <path d="M 1009.428441 776.715045 
L 1019.637026 781.24429 
" style="fill: none; stroke: #000000; stroke-width: 0.8; stroke-linecap: square"/>
    </g>
    <g id="text_9">
     <!-- −2 -->
     <g transform="translate(1014.803097 801.577194) scale(0.1 -0.1)">
      <use xlink:href="#DejaVuSans-2212"/>
      <use xlink:href="#DejaVuSans-32" transform="translate(83.789062 0)"/>
     </g>
    </g>
   </g>
   <g id="xtick_9">
    <g id="line2d_11">
     <path d="M 938.656397 812.152801 
L 948.878858 816.80126 
" style="fill: none; stroke: #000000; stroke-width: 0.8; stroke-linecap: square"/>
    </g>
    <g id="text_10">
     <!-- 0 -->
     <g transform="translate(948.308935 837.280118) scale(0.1 -0.1)">
      <use xlink:href="#DejaVuSans-30"/>
     </g>
    </g>
   </g>
   <g id="xtick_10">
    <g id="line2d_12">
     <path d="M 866.010749 848.528727 
L 876.244245 853.301171 
" style="fill: none; stroke: #000000; stroke-width: 0.8; stroke-linecap: square"/>
    </g>
    <g id="text_11">
     <!-- 2 -->
     <g transform="translate(875.75155 873.929298) scale(0.1 -0.1)">
      <use xlink:href="#DejaVuSans-32"/>
     </g>
    </g>
   </g>
   <g id="xtick_11">
    <g id="line2d_13">
     <path d="M 791.4161 885.88058 
L 801.65754 890.782034 
" style="fill: none; stroke: #000000; stroke-width: 0.8; stroke-linecap: square"/>
    </g>
    <g id="text_12">
     <!-- 4 -->
     <g transform="translate(801.24531 911.562856) scale(0.1 -0.1)">
      <defs>
       <path id="DejaVuSans-34" d="M 2419 4116 
L 825 1625 
L 2419 1625 
L 2419 4116 
z
M 2253 4666 
L 3047 4666 
L 3047 1625 
L 3713 1625 
L 3713 1100 
L 3047 1100 
L 3047 0 
L 2419 0 
L 2419 1100 
L 313 1100 
L 313 1709 
L 2253 4666 
z
" transform="scale(0.015625)"/>
      </defs>
      <use xlink:href="#DejaVuSans-34"/>
     </g>
    </g>
   </g>
   <g id="xtick_12">
    <g id="line2d_14">
     <path d="M 714.792947 924.248167 
L 725.038976 929.283935 
" style="fill: none; stroke: #000000; stroke-width: 0.8; stroke-linecap: square"/>
    </g>
    <g id="text_13">
     <!-- 6 -->
     <g transform="translate(724.710626 950.220994) scale(0.1 -0.1)">
      <defs>
       <path id="DejaVuSans-36" d="M 2113 2584 
Q 1688 2584 1439 2293 
Q 1191 2003 1191 1497 
Q 1191 994 1439 701 
Q 1688 409 2113 409 
Q 2538 409 2786 701 
Q 3034 994 3034 1497 
Q 3034 2003 2786 2293 
Q 2538 2584 2113 2584 
z
M 3366 4563 
L 3366 3988 
Q 3128 4100 2886 4159 
Q 2644 4219 2406 4219 
Q 1781 4219 1451 3797 
Q 1122 3375 1075 2522 
Q 1259 2794 1537 2939 
Q 1816 3084 2150 3084 
Q 2853 3084 3261 2657 
Q 3669 2231 3669 1497 
Q 3669 778 3244 343 
Q 2819 -91 2113 -91 
Q 1303 -91 875 529 
Q 447 1150 447 2328 
Q 447 3434 972 4092 
Q 1497 4750 2381 4750 
Q 2619 4750 2861 4703 
Q 3103 4656 3366 4563 
z
" transform="scale(0.015625)"/>
      </defs>
      <use xlink:href="#DejaVuSans-36"/>
     </g>
    </g>
   </g>
   <g id="text_14">
    <!-- Y (m) -->
    <g transform="translate(872.45169 898.584982) rotate(-26.625703) scale(0.14 -0.14)">
     <defs>
      <path id="DejaVuSans-59" d="M -13 4666 
L 666 4666 
L 1959 2747 
L 3244 4666 
L 3922 4666 
L 2272 2222 
L 2272 0 
L 1638 0 
L 1638 2222 
L -13 4666 
z
" transform="scale(0.015625)"/>
     </defs>
     <use xlink:href="#DejaVuSans-59"/>
     <use xlink:href="#DejaVuSans-20" transform="translate(61.083984 0)"/>
     <use xlink:href="#DejaVuSans-28" transform="translate(92.871094 0)"/>
     <use xlink:href="#DejaVuSans-6d" transform="translate(131.884766 0)"/>
     <use xlink:href="#DejaVuSans-29" transform="translate(229.296875 0)"/>
    </g>
   </g>
  </g>
  <g id="axis3d_3">
   <g id="line2d_15">
    <path d="M 1058.369247 755.391958 
L 1077.283147 234.039381 
" style="fill: none; stroke: #000000; stroke-width: 0.8; stroke-linecap: square"/>
   </g>
   <g id="xtick_13">
    <g id="line2d_16">
     <path d="M 1054.973654 753.909146 
L 1065.171676 758.362492 
" style="fill: none; stroke: #000000; stroke-width: 0.8; stroke-linecap: square"/>
    </g>
    <g id="text_15">
     <!-- 0.00 -->
     <g transform="translate(1065.385442 762.990395) scale(0.1 -0.1)">
      <use xlink:href="#DejaVuSans-30"/>
      <use xlink:href="#DejaVuSans-2e" transform="translate(63.623047 0)"/>
      <use xlink:href="#DejaVuSans-30" transform="translate(95.410156 0)"/>
      <use xlink:href="#DejaVuSans-30" transform="translate(159.033203 0)"/>
     </g>
    </g>
   </g>
   <g id="xtick_14">
    <g id="line2d_17">
     <path d="M 1057.222703 691.372322 
L 1067.482793 695.747007 
" style="fill: none; stroke: #000000; stroke-width: 0.8; stroke-linecap: square"/>
    </g>
    <g id="text_16">
     <!-- 0.25 -->
     <g transform="translate(1067.758817 700.427371) scale(0.1 -0.1)">
      <use xlink:href="#DejaVuSans-30"/>
      <use xlink:href="#DejaVuSans-2e" transform="translate(63.623047 0)"/>
      <use xlink:href="#DejaVuSans-32" transform="translate(95.410156 0)"/>
      <use xlink:href="#DejaVuSans-35" transform="translate(159.033203 0)"/>
     </g>
    </g>
   </g>
   <g id="xtick_15">
    <g id="line2d_18">
     <path d="M 1059.497581 628.117283 
L 1069.820497 632.411199 
" style="fill: none; stroke: #000000; stroke-width: 0.8; stroke-linecap: square"/>
    </g>
    <g id="text_17">
     <!-- 0.50 -->
     <g transform="translate(1070.159463 637.14543) scale(0.1 -0.1)">
      <use xlink:href="#DejaVuSans-30"/>
      <use xlink:href="#DejaVuSans-2e" transform="translate(63.623047 0)"/>
      <use xlink:href="#DejaVuSans-35" transform="translate(95.410156 0)"/>
      <use xlink:href="#DejaVuSans-30" transform="translate(159.033203 0)"/>
     </g>
    </g>
   </g>
   <g id="xtick_16">
    <g id="line2d_19">
     <path d="M 1061.798737 564.131584 
L 1072.185249 568.342567 
" style="fill: none; stroke: #000000; stroke-width: 0.8; stroke-linecap: square"/>
    </g>
    <g id="text_18">
     <!-- 0.75 -->
     <g transform="translate(1072.587856 573.132108) scale(0.1 -0.1)">
      <defs>
       <path id="DejaVuSans-37" d="M 525 4666 
L 3525 4666 
L 3525 4397 
L 1831 0 
L 1172 0 
L 2766 4134 
L 525 4134 
L 525 4666 
z
" transform="scale(0.015625)"/>
      </defs>
      <use xlink:href="#DejaVuSans-30"/>
      <use xlink:href="#DejaVuSans-2e" transform="translate(63.623047 0)"/>
      <use xlink:href="#DejaVuSans-37" transform="translate(95.410156 0)"/>
      <use xlink:href="#DejaVuSans-35" transform="translate(159.033203 0)"/>
     </g>
    </g>
   </g>
   <g id="xtick_17">
    <g id="line2d_20">
     <path d="M 1064.126628 499.402493 
L 1074.577522 503.528318 
" style="fill: none; stroke: #000000; stroke-width: 0.8; stroke-linecap: square"/>
    </g>
    <g id="text_19">
     <!-- 1.00 -->
     <g transform="translate(1075.044477 508.374654) scale(0.1 -0.1)">
      <use xlink:href="#DejaVuSans-31"/>
      <use xlink:href="#DejaVuSans-2e" transform="translate(63.623047 0)"/>
      <use xlink:href="#DejaVuSans-30" transform="translate(95.410156 0)"/>
      <use xlink:href="#DejaVuSans-30" transform="translate(159.033203 0)"/>
     </g>
    </g>
   </g>
   <g id="xtick_18">
    <g id="line2d_21">
     <path d="M 1066.481723 433.916978 
L 1076.997798 437.955359 
" style="fill: none; stroke: #000000; stroke-width: 0.8; stroke-linecap: square"/>
    </g>
    <g id="text_20">
     <!-- 1.25 -->
     <g transform="translate(1077.529823 442.860015) scale(0.1 -0.1)">
      <use xlink:href="#DejaVuSans-31"/>
      <use xlink:href="#DejaVuSans-2e" transform="translate(63.623047 0)"/>
      <use xlink:href="#DejaVuSans-32" transform="translate(95.410156 0)"/>
      <use xlink:href="#DejaVuSans-35" transform="translate(159.033203 0)"/>
     </g>
    </g>
   </g>
   <g id="xtick_19">
    <g id="line2d_22">
     <path d="M 1068.864501 367.661702 
L 1079.446573 371.61029 
" style="fill: none; stroke: #000000; stroke-width: 0.8; stroke-linecap: square"/>
    </g>
    <g id="text_21">
     <!-- 1.50 -->
     <g transform="translate(1080.0444 376.574833) scale(0.1 -0.1)">
      <use xlink:href="#DejaVuSans-31"/>
      <use xlink:href="#DejaVuSans-2e" transform="translate(63.623047 0)"/>
      <use xlink:href="#DejaVuSans-35" transform="translate(95.410156 0)"/>
      <use xlink:href="#DejaVuSans-30" transform="translate(159.033203 0)"/>
     </g>
    </g>
   </g>
   <g id="xtick_20">
    <g id="line2d_23">
     <path d="M 1071.275453 300.623012 
L 1081.924352 304.479393 
" style="fill: none; stroke: #000000; stroke-width: 0.8; stroke-linecap: square"/>
    </g>
    <g id="text_22">
     <!-- 1.75 -->
     <g transform="translate(1082.588727 309.505434) scale(0.1 -0.1)">
      <use xlink:href="#DejaVuSans-31"/>
      <use xlink:href="#DejaVuSans-2e" transform="translate(63.623047 0)"/>
      <use xlink:href="#DejaVuSans-37" transform="translate(95.410156 0)"/>
      <use xlink:href="#DejaVuSans-35" transform="translate(159.033203 0)"/>
     </g>
    </g>
   </g>
   <g id="xtick_21">
    <g id="line2d_24">
     <path d="M 1073.715082 232.786932 
L 1084.431655 236.548624 
" style="fill: none; stroke: #000000; stroke-width: 0.8; stroke-linecap: square"/>
    </g>
    <g id="text_23">
     <!-- 2.00 -->
     <g transform="translate(1085.163334 241.637818) scale(0.1 -0.1)">
      <use xlink:href="#DejaVuSans-32"/>
      <use xlink:href="#DejaVuSans-2e" transform="translate(63.623047 0)"/>
      <use xlink:href="#DejaVuSans-30" transform="translate(95.410156 0)"/>
      <use xlink:href="#DejaVuSans-30" transform="translate(159.033203 0)"/>
     </g>
    </g>
   </g>
   <g id="text_24">
    <!-- Z (m) -->
    <g transform="translate(1111.138841 520.203897) rotate(-87.922305) scale(0.14 -0.14)">
     <defs>
      <path id="DejaVuSans-5a" d="M 359 4666 
L 4025 4666 
L 4025 4184 
L 1075 531 
L 4097 531 
L 4097 0 
L 288 0 
L 288 481 
L 3238 4134 
L 359 4134 
L 359 4666 
z
" transform="scale(0.015625)"/>
     </defs>
     <use xlink:href="#DejaVuSans-5a"/>
     <use xlink:href="#DejaVuSans-20" transform="translate(68.505859 0)"/>
     <use xlink:href="#DejaVuSans-28" transform="translate(100.292969 0)"/>
     <use xlink:href="#DejaVuSans-6d" transform="translate(139.306641 0)"/>
     <use xlink:href="#DejaVuSans-29" transform="translate(236.71875 0)"/>
    </g>
   </g>
  </g>
  <g id="axes_1">
   <g id="line2d_25">
    <path d="M 831.88962 759.481131 
L 832.029796 759.452214 
L 831.32947 758.913395 
L 831.212622 759.038703 
L 831.786931 759.803826 
L 831.102216 759.424507 
L 832.148953 759.479983 
L 832.168155 759.112937 
L 832.050916 759.007457 
L 831.225099 758.997392 
L 830.158944 758.570843 
L 831.41966 759.531489 
L 830.926224 759.550124 
L 830.9851 759.180677 
L 830.650506 759.302901 
L 830.041922 759.191126 
L 830.091596 759.455926 
L 829.391346 758.99636 
L 829.399189 758.746542 
L 829.511429 758.836507 
L 829.334893 758.849918 
L 829.877339 759.222256 
L 829.510698 759.275813 
L 829.682382 759.289381 
L 828.234204 758.569175 
L 828.304782 758.710753 
L 827.32789 758.481891 
L 826.599447 757.850217 
L 826.411216 758.074649 
L 826.635409 758.413725 
L 826.801849 758.433569 
L 826.5152 758.104933 
L 826.046789 758.008745 
L 825.872036 757.74425 
L 825.978835 757.864547 
L 825.073119 757.410118 
L 825.90492 757.526556 
L 825.426295 757.664982 
L 823.953081 757.005282 
L 824.043778 756.825428 
L 823.172134 756.414747 
L 823.272585 756.406088 
L 823.199771 756.289443 
L 823.048349 756.314516 
L 823.235459 756.818802 
L 823.603912 756.768972 
L 823.147164 756.373921 
L 822.904254 756.48899 
L 822.677508 756.326678 
L 822.733494 756.558976 
L 822.585423 756.674862 
L 822.77345 756.748259 
L 822.720309 756.688354 
L 823.768524 756.891126 
L 823.12546 756.629444 
L 823.059147 757.03551 
L 822.798302 757.00708 
L 823.106088 757.176858 
L 839.460806 761.279388 
L 839.407118 761.530664 
L 840.67401 762.313253 
L 841.621411 762.430095 
L 841.360704 762.393912 
L 841.317722 762.704757 
L 841.54142 762.505692 
L 842.290612 763.502483 
L 841.853628 762.718438 
L 841.750929 763.119761 
L 841.351468 763.140365 
L 841.066144 762.925928 
L 841.025662 763.100039 
L 841.118358 763.281852 
L 841.924387 763.824667 
L 843.415308 764.184155 
L 843.583645 764.383724 
L 843.306687 764.112882 
L 842.479241 763.527991 
L 842.555037 763.767061 
L 842.951414 763.836441 
L 842.165635 763.443688 
L 841.299999 761.743992 
L 842.278755 760.828798 
L 842.213142 759.94234 
L 843.067293 758.460711 
L 843.713245 756.361354 
L 843.874766 751.034586 
L 843.10399 738.215543 
L 843.157371 733.717942 
L 843.559932 728.659909 
L 842.542482 721.5247 
L 842.604392 714.911533 
L 841.99284 707.669868 
L 841.863748 699.413973 
L 842.180483 692.07362 
L 843.017599 685.181525 
L 844.058601 678.439122 
L 845.453137 664.077485 
L 845.727144 657.389342 
L 845.744429 651.186606 
L 846.027712 644.860903 
L 843.958335 637.140575 
L 843.581019 629.885961 
L 844.797564 623.372458 
L 842.620222 615.240516 
L 843.18919 608.264023 
L 844.827071 601.81858 
L 846.03258 596.152199 
L 847.571854 590.966013 
L 848.109013 585.605513 
L 849.749125 581.376279 
L 850.416088 575.474108 
L 850.223705 568.732586 
L 850.862702 562.787161 
L 850.14834 557.440097 
L 849.325268 552.145938 
L 850.204029 545.747889 
L 847.026034 538.392889 
L 847.19366 532.651096 
L 847.578274 528.017608 
L 847.135004 522.532657 
L 846.418691 516.476764 
L 847.866572 510.172951 
L 848.067639 504.461296 
L 846.367572 496.569475 
L 846.882118 490.88108 
L 854.151957 489.537979 
L 855.383159 484.573327 
L 857.147216 480.948554 
L 857.314706 475.775694 
L 857.68038 470.830851 
L 855.751802 466.381732 
L 852.962954 459.215459 
L 850.064729 444.993893 
L 848.930624 440.558892 
L 850.285216 429.42812 
L 850.099999 424.511654 
L 851.136786 417.27082 
L 853.777447 412.891782 
L 854.452072 406.327792 
L 854.894437 399.599516 
L 855.329004 395.092298 
L 852.924315 391.328395 
L 853.355685 387.292004 
L 853.061655 383.738731 
L 853.010115 377.133141 
L 850.013661 369.230142 
L 853.291898 365.757043 
L 852.575214 362.037735 
L 853.411311 360.98395 
L 852.318608 359.076119 
L 843.856863 353.076898 
L 842.218171 353.684175 
L 839.450468 354.147073 
L 839.287786 353.379389 
L 840.771675 354.261375 
L 841.393405 353.938149 
L 844.564706 357.345033 
L 845.911918 356.473335 
L 848.695123 358.470824 
L 847.855545 359.839964 
L 846.063016 358.85408 
L 844.887638 359.997704 
L 844.504465 359.308891 
L 844.165322 360.333938 
L 842.243869 359.223169 
L 841.870557 359.690102 
L 841.389917 362.989684 
L 842.810402 363.33097 
L 844.799348 363.993759 
L 844.781395 362.186321 
L 844.514657 363.464782 
L 846.245719 361.895213 
L 844.618216 361.531951 
L 843.052091 360.18228 
L 842.196234 364.908435 
L 840.011831 366.516687 
L 839.476162 367.487876 
L 835.549378 365.876905 
L 833.711452 366.192352 
L 833.477586 367.324868 
L 830.846722 370.541713 
L 828.794164 372.262911 
L 828.722343 370.370246 
L 828.414216 372.707466 
L 829.00618 374.237756 
L 826.865296 374.696071 
L 825.948079 372.527152 
L 824.166569 380.62837 
L 823.213657 372.39269 
L 824.062246 373.876788 
L 821.781596 374.571529 
L 821.634032 379.322885 
L 820.167746 378.37974 
L 818.000151 379.733966 
L 817.700701 380.618628 
L 816.471226 380.581481 
L 816.410247 377.007032 
L 815.490432 376.923369 
L 813.356654 379.533469 
L 811.387195 378.659363 
L 809.243602 383.143002 
L 807.618037 380.032126 
L 805.813224 380.693833 
L 804.390037 384.292791 
L 802.915928 382.350755 
L 803.102033 382.883278 
L 801.546055 382.884196 
L 801.240472 383.827762 
L 799.550243 385.125588 
L 798.84608 387.312378 
L 797.445251 389.503822 
L 795.192438 382.006611 
L 795.383517 388.552726 
L 793.327981 394.64551 
L 791.678997 391.856999 
L 790.640154 389.397755 
L 789.560962 387.520143 
L 788.41944 386.149166 
L 787.183216 385.941627 
L 784.587237 391.430672 
L 783.37849 391.234829 
L 782.250458 393.194113 
L 781.222822 395.592216 
L 780.254098 401.178549 
L 779.150206 398.260476 
L 778.173228 398.044488 
L 777.184304 397.229147 
L 776.105342 399.122976 
L 774.98339 401.556207 
L 774.044765 399.77881 
L 773.022363 400.658066 
L 772.063818 400.949738 
L 771.016431 402.183671 
L 768.922382 402.739984 
L 768.05747 399.836786 
L 766.758659 398.423649 
L 771.960436 405.33835 
L 766.41797 407.174878 
L 765.730857 407.902647 
L 765.478978 406.812096 
L 766.49701 402.082557 
L 766.183154 402.375229 
L 766.125126 401.286441 
L 766.048744 404.027615 
L 765.907249 403.527023 
L 765.761434 401.809205 
L 765.860183 402.045167 
L 765.835248 400.047289 
L 766.263095 402.324304 
L 766.654284 405.297022 
L 766.10026 403.833942 
L 765.691139 404.943052 
L 765.647161 403.534483 
L 766.171442 402.530252 
L 767.679004 398.630208 
L 768.487768 408.614943 
L 767.492442 409.223551 
L 766.114837 406.281916 
L 766.1442 404.576983 
L 767.509459 402.842982 
L 712.900803 387.008142 
L 692.183322 376.974022 
L 699.798138 380.577888 
L 700.400727 381.221898 
L 712.455236 384.554349 
L 721.736733 393.040779 
L 731.415488 393.909318 
L 731.415327 395.595338 
L 731.25278 395.232866 
L 729.81409 390.253024 
L 731.382877 392.448957 
L 731.356281 395.268851 
L 727.111169 394.697458 
L 723.84979 394.432453 
L 718.02578 394.531183 
L 717.661879 393.091106 
L 709.825439 392.061715 
L 705.950079 388.710448 
L 702.264086 386.838194 
L 699.654772 383.798038 
L 700.561436 381.615832 
L 699.113058 383.410292 
L 699.387935 384.966607 
L 700.050541 386.221098 
L 696.28184 384.758216 
L 688.959565 380.493478 
L 686.553963 377.946697 
L 682.769278 374.569376 
L 679.334532 373.395972 
L 677.455214 371.63223 
L 674.090499 369.473755 
L 670.605526 371.914046 
L 671.590356 372.65199 
L 666.40147 377.196435 
L 664.465909 373.045965 
L 661.669091 368.444796 
L 658.329796 365.846444 
L 654.136009 360.433924 
L 651.405485 363.880466 
L 647.217981 361.564094 
L 643.521836 360.78056 
L 639.764263 364.58066 
L 636.639215 361.796426 
L 633.492509 359.309974 
L 630.325233 357.548331 
L 627.027423 359.073721 
L 623.571355 357.63094 
L 620.079627 355.613588 
L 616.778315 352.770536 
L 613.273368 348.100425 
L 609.78796 346.375522 
L 606.675426 345.461951 
L 605.869725 347.071031 
L 601.883482 343.132769 
L 599.357678 342.024426 
L 600.839988 344.502526 
L 598.46534 340.746859 
L 599.653547 345.246087 
L 598.288908 344.228274 
L 598.178142 337.030769 
L 596.710024 336.82233 
L 588.459842 345.313909 
L 592.052527 348.426219 
L 594.265212 346.659088 
L 591.626742 342.867428 
L 590.474044 338.618235 
L 589.639145 340.339659 
L 589.396861 341.39248 
L 590.933551 340.02855 
L 591.406625 343.484224 
L 592.041083 346.108625 
L 589.930095 346.319907 
L 588.177529 338.552477 
L 587.82799 335.742627 
L 583.456326 339.705966 
L 583.49495 341.781787 
L 586.443622 341.212977 
L 588.689406 342.158037 
L 578.717723 340.711142 
L 575.312529 341.084105 
L 567.593935 341.022709 
L 578.512797 342.36339 
L 577.514497 341.525035 
L 576.49291 339.475045 
L 567.991097 333.035254 
L 565.860081 336.224601 
L 564.584859 336.683974 
L 568.567793 338.687754 
L 562.848218 334.822489 
L 563.478303 333.725755 
L 563.492143 332.50491 
L 559.325687 333.947427 
L 558.524582 331.440652 
L 563.011339 335.972946 
L 557.969051 336.208606 
L 588.667177 332.211321 
L 598.226345 330.657897 
L 486.550472 381.333579 
L 600.644611 318.023898 
L 731.173083 257.542477 
L 506.7655 357.721072 
L 412.758272 411.680757 
L 613.774144 304.967948 
L 635.586655 297.078269 
L 707.153353 258.686833 
L 542.970154 341.975231 
L 609.110869 330.368376 
L 605.019006 344.224742 
L 607.241546 344.878125 
L 612.519483 338.85235 
L 615.865686 333.847766 
L 617.201271 333.435902 
L 618.28745 335.743353 
L 619.672355 337.048791 
L 620.407807 335.950209 
L 622.042215 338.06 
L 622.557235 333.847478 
L 623.829306 332.599474 
L 625.114823 333.27162 
L 626.299449 331.369737 
L 627.506473 329.86937 
L 628.683173 333.334836 
L 629.751593 331.235746 
L 630.868571 331.387007 
L 632.365374 334.118663 
L 633.684758 336.772094 
L 634.409991 336.005094 
L 634.976918 335.603857 
L 637.266325 329.320335 
L 638.487718 326.631322 
L 639.045523 328.382099 
L 640.22286 331.170784 
L 641.4182 333.141506 
L 642.804106 333.124864 
L 643.925146 332.398457 
L 644.085584 330.309 
L 645.41965 326.300167 
L 642.907773 330.663944 
L 649.325557 328.02575 
L 647.268205 321.626096 
L 648.703115 323.974632 
L 650.367444 324.013312 
L 650.34993 330.651171 
L 602.34882 326.088821 
L 549.3667 307.985562 
L 526.840266 297.405697 
L 526.849781 297.867703 
L 521.853289 293.881701 
L 519.877505 296.426236 
L 528.703171 296.660578 
L 513.328444 301.761075 
L 510.881942 303.702593 
L 515.245355 301.088012 
L 515.468167 296.122553 
L 515.409067 291.587707 
L 512.165804 284.85012 
L 518.617377 287.278872 
L 526.075907 290.943338 
L 524.989625 289.031234 
L 531.045064 293.571821 
L 530.390051 289.904158 
L 531.628731 290.013716 
L 534.812912 284.784236 
L 535.781662 282.482875 
L 540.056677 280.571529 
L 542.578567 282.041267 
L 543.313165 280.22708 
L 546.200586 281.745722 
L 543.803362 283.861992 
L 548.067916 282.291382 
L 547.396776 284.063726 
L 551.366648 281.602579 
L 551.786892 281.912877 
L 553.890564 281.729471 
L 553.280214 282.234593 
L 557.01245 277.674194 
L 558.889719 281.538035 
L 560.993709 285.172237 
L 564.582637 279.232794 
L 562.635896 276.794843 
L 565.009702 282.072548 
L 567.659955 283.846367 
L 569.662242 284.285967 
L 571.418023 282.166438 
L 572.949393 281.860673 
L 573.006029 276.498099 
L 574.885961 278.221265 
L 576.258041 275.770467 
L 577.830909 276.195556 
L 579.36908 277.932637 
L 580.616905 273.7098 
L 581.834091 277.86838 
L 583.081252 277.733051 
L 584.212811 276.01083 
L 585.231353 275.523926 
L 586.452371 278.71545 
L 587.596474 278.128935 
L 588.78858 275.49104 
L 589.726341 276.974563 
L 590.520136 277.880189 
L 591.029871 273.308623 
L 592.455023 274.332476 
L 593.104252 271.667127 
L 594.815156 272.161307 
L 595.777179 271.694257 
L 596.421371 273.298279 
L 597.249368 270.447247 
L 595.069511 272.366522 
L 595.267404 269.678236 
L 594.491463 267.444194 
L 594.925631 273.472984 
L 593.730457 277.795772 
L 594.426707 279.062231 
L 594.014307 275.518762 
L 595.982054 274.882598 
L 596.184012 271.565904 
L 597.72914 268.402788 
L 597.31199 270.041603 
L 597.449901 271.525974 
L 596.102151 278.741288 
L 595.634534 279.478645 
L 596.037697 275.386357 
L 596.797348 274.620686 
L 597.63206 273.496801 
L 598.673092 273.50133 
L 598.132259 275.877942 
L 598.002421 272.589892 
L 596.540533 268.154627 
L 593.203459 268.116869 
L 593.134328 264.049124 
L 592.704976 266.602599 
L 592.698671 266.558834 
L 592.82191 268.683993 
L 593.356172 269.297808 
L 592.791722 269.161764 
L 593.578484 267.409614 
L 593.387042 266.195774 
L 592.921273 264.497047 
L 593.580563 267.12197 
L 593.072915 267.901251 
L 591.99769 265.453818 
L 595.301831 263.978408 
L 591.995253 263.542126 
L 593.716822 262.492604 
L 596.833965 267.488895 
L 603.979945 269.728511 
L 609.503322 273.198533 
L 613.805835 278.963161 
L 618.103622 282.331269 
L 622.166217 278.250811 
L 624.260279 276.768097 
L 627.127788 275.710422 
L 625.945729 272.201728 
L 625.519103 268.729197 
L 627.200299 268.547348 
L 628.924434 273.486407 
L 628.812556 280.776002 
L 632.755332 280.985425 
L 637.766107 279.765153 
L 640.159292 280.453044 
L 643.048047 280.520737 
L 647.357198 285.654786 
L 654.612911 285.172152 
L 658.121766 287.367902 
L 660.162772 286.545061 
L 663.17522 288.389479 
L 663.915919 286.8647 
L 667.088802 286.348705 
L 668.911107 292.060065 
L 670.208393 295.02053 
L 673.012741 295.607098 
L 676.606351 292.725714 
L 679.910843 297.557682 
L 683.440979 297.543176 
L 685.728721 300.666665 
L 688.913825 304.029554 
L 691.016826 301.948456 
L 695.504013 305.423309 
L 699.128176 304.752037 
L 702.543695 309.236642 
L 706.223807 305.686833 
L 708.777039 305.876398 
L 711.938947 306.480215 
L 715.234941 309.178855 
L 717.980537 312.982177 
L 720.76698 315.758593 
L 722.943908 316.41552 
L 726.159343 317.193224 
L 727.078285 312.529799 
L 728.648806 310.811985 
L 731.793304 314.133896 
L 734.198653 315.561293 
L 739.200007 315.765889 
L 742.394331 317.866512 
L 745.337976 320.775948 
L 747.385072 320.198314 
L 751.687667 324.084033 
L 754.235812 323.664556 
L 759.430255 325.107699 
L 761.735782 323.825222 
L 767.051018 326.421574 
L 769.886626 333.378061 
L 774.315063 333.903308 
L 775.488226 334.436571 
L 779.909002 337.330135 
L 783.597398 338.31617 
L 787.03807 338.125518 
L 793.266378 340.432389 
L 795.667491 339.878125 
L 797.676079 343.034161 
L 802.413249 340.18072 
L 805.570232 345.198545 
L 809.271661 347.985631 
L 812.970793 345.665092 
L 815.779576 346.283138 
L 819.148767 348.674963 
L 821.021253 348.684027 
L 825.496357 351.960701 
L 827.791966 352.89953 
L 833.075676 353.598141 
L 838.811795 359.503541 
L 841.874204 360.725172 
L 847.975725 361.905227 
L 852.003552 365.032893 
L 855.006613 364.17809 
L 857.330019 365.279843 
L 860.342056 366.277941 
L 863.051527 366.743327 
L 865.5008 369.110832 
L 873.474794 372.013758 
L 878.172781 373.317004 
L 882.340159 376.586511 
L 884.747098 377.171517 
L 887.37638 377.058997 
L 891.008598 378.757101 
L 893.538722 378.224468 
L 897.545157 379.830389 
L 901.122374 383.652522 
L 902.385441 383.847143 
L 907.976475 380.250589 
L 910.08414 377.233156 
L 908.321523 378.247718 
L 905.947949 383.002756 
L 900.808973 386.409204 
L 899.241547 388.137204 
L 902.44086 389.072392 
L 904.248316 386.556184 
L 908.871326 384.172844 
L 912.61259 386.832691 
L 914.174374 387.753286 
L 914.309874 389.023272 
L 914.324122 387.646557 
L 914.207513 386.371417 
L 913.752198 387.716882 
L 913.786399 388.712048 
L 915.994158 388.915827 
L 916.254931 388.174727 
L 917.615388 389.502259 
L 919.810085 390.723171 
L 922.546119 394.871961 
L 923.713069 397.847746 
L 925.112281 396.354139 
L 925.675545 392.045321 
L 925.093632 388.745072 
L 924.724101 386.558692 
L 925.807561 389.173012 
L 923.944245 392.132984 
L 926.254373 396.491685 
L 926.969647 396.437219 
L 928.533561 394.636802 
L 932.264306 396.907765 
L 933.073204 401.357966 
L 934.310252 401.871619 
L 934.736286 412.578249 
L 935.207652 419.34806 
L 937.406269 422.724891 
L 936.856218 428.277371 
L 938.279937 435.640897 
L 940.143599 443.706612 
L 929.834054 444.282676 
L 928.580217 449.804193 
L 928.19117 454.577411 
L 930.862376 459.542731 
L 931.264477 468.103294 
L 934.159259 478.849827 
L 937.940829 486.961685 
L 939.319694 493.731576 
L 941.639927 498.998073 
L 943.71998 504.155813 
L 945.640895 510.600422 
L 944.284124 514.763317 
L 941.399111 521.106852 
L 939.232409 525.22633 
L 938.025895 532.166673 
L 937.072368 538.812453 
L 937.051676 549.451401 
L 940.692678 554.064693 
L 941.635899 560.716901 
L 941.417355 568.403482 
L 941.454252 573.522135 
L 941.126536 579.327039 
L 937.877164 585.945747 
L 937.063578 592.501285 
L 936.154871 597.070763 
L 935.423693 601.431984 
L 933.957338 604.163546 
L 932.628152 605.416217 
L 931.301716 609.033327 
L 929.727575 610.854022 
L 928.883987 614.997574 
L 928.504644 624.860195 
L 928.627032 630.785661 
L 929.726215 637.365912 
L 930.211353 642.812042 
L 930.21267 655.531593 
L 929.965011 661.98166 
L 929.237222 667.622109 
L 928.706229 673.350707 
L 928.337035 678.887227 
L 927.641521 684.397418 
L 927.380072 689.657945 
L 928.416469 700.508539 
L 928.456058 705.378856 
L 928.163715 709.962893 
L 926.645866 726.52421 
L 926.198135 732.086154 
L 925.925119 737.561701 
L 925.742842 743.464136 
L 926.031082 748.817206 
L 926.648132 754.517784 
L 926.475337 760.294493 
L 926.841475 765.303435 
L 925.795608 768.326858 
L 925.008783 771.281124 
L 924.814948 774.775854 
L 926.962321 771.225557 
L 926.962321 771.225557 
" clip-path="url(#p35e7ff7829)" style="fill: none; stroke: #0000ff; stroke-width: 2; stroke-linecap: square"/>
   </g>
   <g id="line2d_26">
    <path d="M 839.400895 767.018351 
L 845.721515 379.286384 
L 800.810067 397.917134 
L 661.998222 343.058713 
L 706.944501 325.290192 
L 845.721515 379.286384 
" clip-path="url(#p35e7ff7829)" style="fill: none; stroke-dasharray: 7.4,3.2; stroke-dashoffset: 0; stroke: #008000; stroke-width: 2"/>
   </g>
   <g id="Path3DCollection_1">
    <path d="M 834.928759 771.490487 
L 843.873031 762.546215 
M 834.928759 762.546215 
L 843.873031 771.490487 
" clip-path="url(#p35e7ff7829)" style="fill-opacity: 0.3; stroke: #000000; stroke-opacity: 0.3; stroke-width: 1.5"/>
    <path d="M 702.472365 329.762328 
L 711.416637 320.818056 
M 702.472365 320.818056 
L 711.416637 329.762328 
" clip-path="url(#p35e7ff7829)" style="fill-opacity: 0.480587; stroke: #000000; stroke-opacity: 0.480587; stroke-width: 1.5"/>
    <path d="M 657.526086 347.530849 
L 666.470358 338.586577 
M 657.526086 338.586577 
L 666.470358 347.530849 
" clip-path="url(#p35e7ff7829)" style="fill-opacity: 0.607664; stroke: #000000; stroke-opacity: 0.607664; stroke-width: 1.5"/>
    <path d="M 841.249379 383.75852 
L 850.193651 374.814248 
M 841.249379 374.814248 
L 850.193651 383.75852 
" clip-path="url(#p35e7ff7829)" style="fill-opacity: 0.866757; stroke: #000000; stroke-opacity: 0.866757; stroke-width: 1.5"/>
    <path d="M 796.337931 402.38927 
L 805.282203 393.444998 
M 796.337931 393.444998 
L 805.282203 402.38927 
" clip-path="url(#p35e7ff7829)" style="stroke: #000000; stroke-width: 1.5"/>
   </g>
   <g id="text_25">
    <!-- Takeoff / Landing -->
    <g transform="translate(839.727052 747.010607) scale(0.14 -0.14)">
     <defs>
      <path id="DejaVuSans-Bold-54" d="M 31 4666 
L 4331 4666 
L 4331 3756 
L 2784 3756 
L 2784 0 
L 1581 0 
L 1581 3756 
L 31 3756 
L 31 4666 
z
" transform="scale(0.015625)"/>
      <path id="DejaVuSans-Bold-61" d="M 2106 1575 
Q 1756 1575 1579 1456 
Q 1403 1338 1403 1106 
Q 1403 894 1545 773 
Q 1688 653 1941 653 
Q 2256 653 2472 879 
Q 2688 1106 2688 1447 
L 2688 1575 
L 2106 1575 
z
M 3816 1997 
L 3816 0 
L 2688 0 
L 2688 519 
Q 2463 200 2181 54 
Q 1900 -91 1497 -91 
Q 953 -91 614 226 
Q 275 544 275 1050 
Q 275 1666 698 1953 
Q 1122 2241 2028 2241 
L 2688 2241 
L 2688 2328 
Q 2688 2594 2478 2717 
Q 2269 2841 1825 2841 
Q 1466 2841 1156 2769 
Q 847 2697 581 2553 
L 581 3406 
Q 941 3494 1303 3539 
Q 1666 3584 2028 3584 
Q 2975 3584 3395 3211 
Q 3816 2838 3816 1997 
z
" transform="scale(0.015625)"/>
      <path id="DejaVuSans-Bold-6b" d="M 538 4863 
L 1656 4863 
L 1656 2216 
L 2944 3500 
L 4244 3500 
L 2534 1894 
L 4378 0 
L 3022 0 
L 1656 1459 
L 1656 0 
L 538 0 
L 538 4863 
z
" transform="scale(0.015625)"/>
      <path id="DejaVuSans-Bold-65" d="M 4031 1759 
L 4031 1441 
L 1416 1441 
Q 1456 1047 1700 850 
Q 1944 653 2381 653 
Q 2734 653 3104 758 
Q 3475 863 3866 1075 
L 3866 213 
Q 3469 63 3072 -14 
Q 2675 -91 2278 -91 
Q 1328 -91 801 392 
Q 275 875 275 1747 
Q 275 2603 792 3093 
Q 1309 3584 2216 3584 
Q 3041 3584 3536 3087 
Q 4031 2591 4031 1759 
z
M 2881 2131 
Q 2881 2450 2695 2645 
Q 2509 2841 2209 2841 
Q 1884 2841 1681 2658 
Q 1478 2475 1428 2131 
L 2881 2131 
z
" transform="scale(0.015625)"/>
      <path id="DejaVuSans-Bold-6f" d="M 2203 2784 
Q 1831 2784 1636 2517 
Q 1441 2250 1441 1747 
Q 1441 1244 1636 976 
Q 1831 709 2203 709 
Q 2569 709 2762 976 
Q 2956 1244 2956 1747 
Q 2956 2250 2762 2517 
Q 2569 2784 2203 2784 
z
M 2203 3584 
Q 3106 3584 3614 3096 
Q 4122 2609 4122 1747 
Q 4122 884 3614 396 
Q 3106 -91 2203 -91 
Q 1297 -91 786 396 
Q 275 884 275 1747 
Q 275 2609 786 3096 
Q 1297 3584 2203 3584 
z
" transform="scale(0.015625)"/>
      <path id="DejaVuSans-Bold-66" d="M 2841 4863 
L 2841 4128 
L 2222 4128 
Q 1984 4128 1890 4042 
Q 1797 3956 1797 3744 
L 1797 3500 
L 2753 3500 
L 2753 2700 
L 1797 2700 
L 1797 0 
L 678 0 
L 678 2700 
L 122 2700 
L 122 3500 
L 678 3500 
L 678 3744 
Q 678 4316 997 4589 
Q 1316 4863 1984 4863 
L 2841 4863 
z
" transform="scale(0.015625)"/>
      <path id="DejaVuSans-Bold-20" transform="scale(0.015625)"/>
      <path id="DejaVuSans-Bold-2f" d="M 1644 4666 
L 2338 4666 
L 691 -594 
L 0 -594 
L 1644 4666 
z
" transform="scale(0.015625)"/>
      <path id="DejaVuSans-Bold-4c" d="M 588 4666 
L 1791 4666 
L 1791 909 
L 3903 909 
L 3903 0 
L 588 0 
L 588 4666 
z
" transform="scale(0.015625)"/>
      <path id="DejaVuSans-Bold-6e" d="M 4056 2131 
L 4056 0 
L 2931 0 
L 2931 347 
L 2931 1631 
Q 2931 2084 2911 2256 
Q 2891 2428 2841 2509 
Q 2775 2619 2662 2680 
Q 2550 2741 2406 2741 
Q 2056 2741 1856 2470 
Q 1656 2200 1656 1722 
L 1656 0 
L 538 0 
L 538 3500 
L 1656 3500 
L 1656 2988 
Q 1909 3294 2193 3439 
Q 2478 3584 2822 3584 
Q 3428 3584 3742 3212 
Q 4056 2841 4056 2131 
z
" transform="scale(0.015625)"/>
      <path id="DejaVuSans-Bold-64" d="M 2919 2988 
L 2919 4863 
L 4044 4863 
L 4044 0 
L 2919 0 
L 2919 506 
Q 2688 197 2409 53 
Q 2131 -91 1766 -91 
Q 1119 -91 703 423 
Q 288 938 288 1747 
Q 288 2556 703 3070 
Q 1119 3584 1766 3584 
Q 2128 3584 2408 3439 
Q 2688 3294 2919 2988 
z
M 2181 722 
Q 2541 722 2730 984 
Q 2919 1247 2919 1747 
Q 2919 2247 2730 2509 
Q 2541 2772 2181 2772 
Q 1825 2772 1636 2509 
Q 1447 2247 1447 1747 
Q 1447 1247 1636 984 
Q 1825 722 2181 722 
z
" transform="scale(0.015625)"/>
      <path id="DejaVuSans-Bold-69" d="M 538 3500 
L 1656 3500 
L 1656 0 
L 538 0 
L 538 3500 
z
M 538 4863 
L 1656 4863 
L 1656 3950 
L 538 3950 
L 538 4863 
z
" transform="scale(0.015625)"/>
      <path id="DejaVuSans-Bold-67" d="M 2919 594 
Q 2688 288 2409 144 
Q 2131 0 1766 0 
Q 1125 0 706 504 
Q 288 1009 288 1791 
Q 288 2575 706 3076 
Q 1125 3578 1766 3578 
Q 2131 3578 2409 3434 
Q 2688 3291 2919 2981 
L 2919 3500 
L 4044 3500 
L 4044 353 
Q 4044 -491 3511 -936 
Q 2978 -1381 1966 -1381 
Q 1638 -1381 1331 -1331 
Q 1025 -1281 716 -1178 
L 716 -306 
Q 1009 -475 1290 -558 
Q 1572 -641 1856 -641 
Q 2406 -641 2662 -400 
Q 2919 -159 2919 353 
L 2919 594 
z
M 2181 2772 
Q 1834 2772 1640 2515 
Q 1447 2259 1447 1791 
Q 1447 1309 1634 1061 
Q 1822 813 2181 813 
Q 2531 813 2725 1069 
Q 2919 1325 2919 1791 
Q 2919 2259 2725 2515 
Q 2531 2772 2181 2772 
z
" transform="scale(0.015625)"/>
     </defs>
     <use xlink:href="#DejaVuSans-Bold-54"/>
     <use xlink:href="#DejaVuSans-Bold-61" transform="translate(55.337891 0)"/>
     <use xlink:href="#DejaVuSans-Bold-6b" transform="translate(122.818359 0)"/>
     <use xlink:href="#DejaVuSans-Bold-65" transform="translate(186.697266 0)"/>
     <use xlink:href="#DejaVuSans-Bold-6f" transform="translate(254.519531 0)"/>
     <use xlink:href="#DejaVuSans-Bold-66" transform="translate(323.220703 0)"/>
     <use xlink:href="#DejaVuSans-Bold-66" transform="translate(366.726562 0)"/>
     <use xlink:href="#DejaVuSans-Bold-20" transform="translate(410.232422 0)"/>
     <use xlink:href="#DejaVuSans-Bold-2f" transform="translate(445.046875 0)"/>
     <use xlink:href="#DejaVuSans-Bold-20" transform="translate(481.570312 0)"/>
     <use xlink:href="#DejaVuSans-Bold-4c" transform="translate(516.384766 0)"/>
     <use xlink:href="#DejaVuSans-Bold-61" transform="translate(580.105469 0)"/>
     <use xlink:href="#DejaVuSans-Bold-6e" transform="translate(647.585938 0)"/>
     <use xlink:href="#DejaVuSans-Bold-64" transform="translate(718.777344 0)"/>
     <use xlink:href="#DejaVuSans-Bold-69" transform="translate(790.359375 0)"/>
     <use xlink:href="#DejaVuSans-Bold-6e" transform="translate(824.636719 0)"/>
     <use xlink:href="#DejaVuSans-Bold-67" transform="translate(895.828125 0)"/>
    </g>
   </g>
   <g id="text_26">
    <!-- Hover / Return-to-Home -->
    <g transform="translate(846.071223 357.833889) scale(0.14 -0.14)">
     <defs>
      <path id="DejaVuSans-Bold-48" d="M 588 4666 
L 1791 4666 
L 1791 2888 
L 3566 2888 
L 3566 4666 
L 4769 4666 
L 4769 0 
L 3566 0 
L 3566 1978 
L 1791 1978 
L 1791 0 
L 588 0 
L 588 4666 
z
" transform="scale(0.015625)"/>
      <path id="DejaVuSans-Bold-76" d="M 97 3500 
L 1216 3500 
L 2088 1081 
L 2956 3500 
L 4078 3500 
L 2700 0 
L 1472 0 
L 97 3500 
z
" transform="scale(0.015625)"/>
      <path id="DejaVuSans-Bold-72" d="M 3138 2547 
Q 2991 2616 2845 2648 
Q 2700 2681 2553 2681 
Q 2122 2681 1889 2404 
Q 1656 2128 1656 1613 
L 1656 0 
L 538 0 
L 538 3500 
L 1656 3500 
L 1656 2925 
Q 1872 3269 2151 3426 
Q 2431 3584 2822 3584 
Q 2878 3584 2943 3579 
Q 3009 3575 3134 3559 
L 3138 2547 
z
" transform="scale(0.015625)"/>
      <path id="DejaVuSans-Bold-52" d="M 2297 2597 
Q 2675 2597 2839 2737 
Q 3003 2878 3003 3200 
Q 3003 3519 2839 3656 
Q 2675 3794 2297 3794 
L 1791 3794 
L 1791 2597 
L 2297 2597 
z
M 1791 1766 
L 1791 0 
L 588 0 
L 588 4666 
L 2425 4666 
Q 3347 4666 3776 4356 
Q 4206 4047 4206 3378 
Q 4206 2916 3982 2619 
Q 3759 2322 3309 2181 
Q 3556 2125 3751 1926 
Q 3947 1728 4147 1325 
L 4800 0 
L 3519 0 
L 2950 1159 
Q 2778 1509 2601 1637 
Q 2425 1766 2131 1766 
L 1791 1766 
z
" transform="scale(0.015625)"/>
      <path id="DejaVuSans-Bold-74" d="M 1759 4494 
L 1759 3500 
L 2913 3500 
L 2913 2700 
L 1759 2700 
L 1759 1216 
Q 1759 972 1856 886 
Q 1953 800 2241 800 
L 2816 800 
L 2816 0 
L 1856 0 
Q 1194 0 917 276 
Q 641 553 641 1216 
L 641 2700 
L 84 2700 
L 84 3500 
L 641 3500 
L 641 4494 
L 1759 4494 
z
" transform="scale(0.015625)"/>
      <path id="DejaVuSans-Bold-75" d="M 500 1363 
L 500 3500 
L 1625 3500 
L 1625 3150 
Q 1625 2866 1622 2436 
Q 1619 2006 1619 1863 
Q 1619 1441 1641 1255 
Q 1663 1069 1716 984 
Q 1784 875 1895 815 
Q 2006 756 2150 756 
Q 2500 756 2700 1025 
Q 2900 1294 2900 1772 
L 2900 3500 
L 4019 3500 
L 4019 0 
L 2900 0 
L 2900 506 
Q 2647 200 2364 54 
Q 2081 -91 1741 -91 
Q 1134 -91 817 281 
Q 500 653 500 1363 
z
" transform="scale(0.015625)"/>
      <path id="DejaVuSans-Bold-2d" d="M 347 2297 
L 2309 2297 
L 2309 1388 
L 347 1388 
L 347 2297 
z
" transform="scale(0.015625)"/>
      <path id="DejaVuSans-Bold-6d" d="M 3781 2919 
Q 3994 3244 4286 3414 
Q 4578 3584 4928 3584 
Q 5531 3584 5847 3212 
Q 6163 2841 6163 2131 
L 6163 0 
L 5038 0 
L 5038 1825 
Q 5041 1866 5042 1909 
Q 5044 1953 5044 2034 
Q 5044 2406 4934 2573 
Q 4825 2741 4581 2741 
Q 4263 2741 4089 2478 
Q 3916 2216 3909 1719 
L 3909 0 
L 2784 0 
L 2784 1825 
Q 2784 2406 2684 2573 
Q 2584 2741 2328 2741 
Q 2006 2741 1831 2477 
Q 1656 2213 1656 1722 
L 1656 0 
L 531 0 
L 531 3500 
L 1656 3500 
L 1656 2988 
Q 1863 3284 2130 3434 
Q 2397 3584 2719 3584 
Q 3081 3584 3359 3409 
Q 3638 3234 3781 2919 
z
" transform="scale(0.015625)"/>
     </defs>
     <use xlink:href="#DejaVuSans-Bold-48"/>
     <use xlink:href="#DejaVuSans-Bold-6f" transform="translate(83.691406 0)"/>
     <use xlink:href="#DejaVuSans-Bold-76" transform="translate(152.392578 0)"/>
     <use xlink:href="#DejaVuSans-Bold-65" transform="translate(217.578125 0)"/>
     <use xlink:href="#DejaVuSans-Bold-72" transform="translate(285.400391 0)"/>
     <use xlink:href="#DejaVuSans-Bold-20" transform="translate(334.716797 0)"/>
     <use xlink:href="#DejaVuSans-Bold-2f" transform="translate(369.53125 0)"/>
     <use xlink:href="#DejaVuSans-Bold-20" transform="translate(406.054688 0)"/>
     <use xlink:href="#DejaVuSans-Bold-52" transform="translate(440.869141 0)"/>
     <use xlink:href="#DejaVuSans-Bold-65" transform="translate(517.871094 0)"/>
     <use xlink:href="#DejaVuSans-Bold-74" transform="translate(585.693359 0)"/>
     <use xlink:href="#DejaVuSans-Bold-75" transform="translate(633.496094 0)"/>
     <use xlink:href="#DejaVuSans-Bold-72" transform="translate(704.6875 0)"/>
     <use xlink:href="#DejaVuSans-Bold-6e" transform="translate(754.003906 0)"/>
     <use xlink:href="#DejaVuSans-Bold-2d" transform="translate(825.195312 0)"/>
     <use xlink:href="#DejaVuSans-Bold-74" transform="translate(866.699219 0)"/>
     <use xlink:href="#DejaVuSans-Bold-6f" transform="translate(914.501953 0)"/>
     <use xlink:href="#DejaVuSans-Bold-2d" transform="translate(983.203125 0)"/>
     <use xlink:href="#DejaVuSans-Bold-48" transform="translate(1024.707031 0)"/>
     <use xlink:href="#DejaVuSans-Bold-6f" transform="translate(1108.398438 0)"/>
     <use xlink:href="#DejaVuSans-Bold-6d" transform="translate(1177.099609 0)"/>
     <use xlink:href="#DejaVuSans-Bold-65" transform="translate(1281.298828 0)"/>
    </g>
   </g>
   <g id="text_27">
    <!-- Coord 1 -->
    <g transform="translate(801.076855 376.327246) scale(0.14 -0.14)">
     <defs>
      <path id="DejaVuSans-Bold-43" d="M 4288 256 
Q 3956 84 3597 -3 
Q 3238 -91 2847 -91 
Q 1681 -91 1000 561 
Q 319 1213 319 2328 
Q 319 3447 1000 4098 
Q 1681 4750 2847 4750 
Q 3238 4750 3597 4662 
Q 3956 4575 4288 4403 
L 4288 3438 
Q 3953 3666 3628 3772 
Q 3303 3878 2944 3878 
Q 2300 3878 1931 3465 
Q 1563 3053 1563 2328 
Q 1563 1606 1931 1193 
Q 2300 781 2944 781 
Q 3303 781 3628 887 
Q 3953 994 4288 1222 
L 4288 256 
z
" transform="scale(0.015625)"/>
      <path id="DejaVuSans-Bold-31" d="M 750 831 
L 1813 831 
L 1813 3847 
L 722 3622 
L 722 4441 
L 1806 4666 
L 2950 4666 
L 2950 831 
L 4013 831 
L 4013 0 
L 750 0 
L 750 831 
z
" transform="scale(0.015625)"/>
     </defs>
     <use xlink:href="#DejaVuSans-Bold-43"/>
     <use xlink:href="#DejaVuSans-Bold-6f" transform="translate(73.388672 0)"/>
     <use xlink:href="#DejaVuSans-Bold-6f" transform="translate(142.089844 0)"/>
     <use xlink:href="#DejaVuSans-Bold-72" transform="translate(210.791016 0)"/>
     <use xlink:href="#DejaVuSans-Bold-64" transform="translate(260.107422 0)"/>
     <use xlink:href="#DejaVuSans-Bold-20" transform="translate(331.689453 0)"/>
     <use xlink:href="#DejaVuSans-Bold-31" transform="translate(366.503906 0)"/>
    </g>
   </g>
   <g id="text_28">
    <!-- Coord 2 -->
    <g transform="translate(661.999964 321.874994) scale(0.14 -0.14)">
     <defs>
      <path id="DejaVuSans-Bold-32" d="M 1844 884 
L 3897 884 
L 3897 0 
L 506 0 
L 506 884 
L 2209 2388 
Q 2438 2594 2547 2791 
Q 2656 2988 2656 3200 
Q 2656 3528 2436 3728 
Q 2216 3928 1850 3928 
Q 1569 3928 1234 3808 
Q 900 3688 519 3450 
L 519 4475 
Q 925 4609 1322 4679 
Q 1719 4750 2100 4750 
Q 2938 4750 3402 4381 
Q 3866 4013 3866 3353 
Q 3866 2972 3669 2642 
Q 3472 2313 2841 1759 
L 1844 884 
z
" transform="scale(0.015625)"/>
     </defs>
     <use xlink:href="#DejaVuSans-Bold-43"/>
     <use xlink:href="#DejaVuSans-Bold-6f" transform="translate(73.388672 0)"/>
     <use xlink:href="#DejaVuSans-Bold-6f" transform="translate(142.089844 0)"/>
     <use xlink:href="#DejaVuSans-Bold-72" transform="translate(210.791016 0)"/>
     <use xlink:href="#DejaVuSans-Bold-64" transform="translate(260.107422 0)"/>
     <use xlink:href="#DejaVuSans-Bold-20" transform="translate(331.689453 0)"/>
     <use xlink:href="#DejaVuSans-Bold-32" transform="translate(366.503906 0)"/>
    </g>
   </g>
   <g id="text_29">
    <!-- Coord 3 -->
    <g transform="translate(707.029361 304.239077) scale(0.14 -0.14)">
     <defs>
      <path id="DejaVuSans-Bold-33" d="M 2981 2516 
Q 3453 2394 3698 2092 
Q 3944 1791 3944 1325 
Q 3944 631 3412 270 
Q 2881 -91 1863 -91 
Q 1503 -91 1142 -33 
Q 781 25 428 141 
L 428 1069 
Q 766 900 1098 814 
Q 1431 728 1753 728 
Q 2231 728 2486 893 
Q 2741 1059 2741 1369 
Q 2741 1688 2480 1852 
Q 2219 2016 1709 2016 
L 1228 2016 
L 1228 2791 
L 1734 2791 
Q 2188 2791 2409 2933 
Q 2631 3075 2631 3366 
Q 2631 3634 2415 3781 
Q 2200 3928 1806 3928 
Q 1516 3928 1219 3862 
Q 922 3797 628 3669 
L 628 4550 
Q 984 4650 1334 4700 
Q 1684 4750 2022 4750 
Q 2931 4750 3382 4451 
Q 3834 4153 3834 3553 
Q 3834 3144 3618 2883 
Q 3403 2622 2981 2516 
z
" transform="scale(0.015625)"/>
     </defs>
     <use xlink:href="#DejaVuSans-Bold-43"/>
     <use xlink:href="#DejaVuSans-Bold-6f" transform="translate(73.388672 0)"/>
     <use xlink:href="#DejaVuSans-Bold-6f" transform="translate(142.089844 0)"/>
     <use xlink:href="#DejaVuSans-Bold-72" transform="translate(210.791016 0)"/>
     <use xlink:href="#DejaVuSans-Bold-64" transform="translate(260.107422 0)"/>
     <use xlink:href="#DejaVuSans-Bold-20" transform="translate(331.689453 0)"/>
     <use xlink:href="#DejaVuSans-Bold-33" transform="translate(366.503906 0)"/>
    </g>
   </g>
   <g id="text_30">
    <!-- 3D Flight Visualization: State Estimate Flight Path vs. Ideal -->
    <g transform="translate(384.201563 24.48) scale(0.18 -0.18)">
     <defs>
      <path id="DejaVuSans-33" d="M 2597 2516 
Q 3050 2419 3304 2112 
Q 3559 1806 3559 1356 
Q 3559 666 3084 287 
Q 2609 -91 1734 -91 
Q 1441 -91 1130 -33 
Q 819 25 488 141 
L 488 750 
Q 750 597 1062 519 
Q 1375 441 1716 441 
Q 2309 441 2620 675 
Q 2931 909 2931 1356 
Q 2931 1769 2642 2001 
Q 2353 2234 1838 2234 
L 1294 2234 
L 1294 2753 
L 1863 2753 
Q 2328 2753 2575 2939 
Q 2822 3125 2822 3475 
Q 2822 3834 2567 4026 
Q 2313 4219 1838 4219 
Q 1578 4219 1281 4162 
Q 984 4106 628 3988 
L 628 4550 
Q 988 4650 1302 4700 
Q 1616 4750 1894 4750 
Q 2613 4750 3031 4423 
Q 3450 4097 3450 3541 
Q 3450 3153 3228 2886 
Q 3006 2619 2597 2516 
z
" transform="scale(0.015625)"/>
      <path id="DejaVuSans-44" d="M 1259 4147 
L 1259 519 
L 2022 519 
Q 2988 519 3436 956 
Q 3884 1394 3884 2338 
Q 3884 3275 3436 3711 
Q 2988 4147 2022 4147 
L 1259 4147 
z
M 628 4666 
L 1925 4666 
Q 3281 4666 3915 4102 
Q 4550 3538 4550 2338 
Q 4550 1131 3912 565 
Q 3275 0 1925 0 
L 628 0 
L 628 4666 
z
" transform="scale(0.015625)"/>
      <path id="DejaVuSans-46" d="M 628 4666 
L 3309 4666 
L 3309 4134 
L 1259 4134 
L 1259 2759 
L 3109 2759 
L 3109 2228 
L 1259 2228 
L 1259 0 
L 628 0 
L 628 4666 
z
" transform="scale(0.015625)"/>
      <path id="DejaVuSans-6c" d="M 603 4863 
L 1178 4863 
L 1178 0 
L 603 0 
L 603 4863 
z
" transform="scale(0.015625)"/>
      <path id="DejaVuSans-69" d="M 603 3500 
L 1178 3500 
L 1178 0 
L 603 0 
L 603 3500 
z
M 603 4863 
L 1178 4863 
L 1178 4134 
L 603 4134 
L 603 4863 
z
" transform="scale(0.015625)"/>
      <path id="DejaVuSans-67" d="M 2906 1791 
Q 2906 2416 2648 2759 
Q 2391 3103 1925 3103 
Q 1463 3103 1205 2759 
Q 947 2416 947 1791 
Q 947 1169 1205 825 
Q 1463 481 1925 481 
Q 2391 481 2648 825 
Q 2906 1169 2906 1791 
z
M 3481 434 
Q 3481 -459 3084 -895 
Q 2688 -1331 1869 -1331 
Q 1566 -1331 1297 -1286 
Q 1028 -1241 775 -1147 
L 775 -588 
Q 1028 -725 1275 -790 
Q 1522 -856 1778 -856 
Q 2344 -856 2625 -561 
Q 2906 -266 2906 331 
L 2906 616 
Q 2728 306 2450 153 
Q 2172 0 1784 0 
Q 1141 0 747 490 
Q 353 981 353 1791 
Q 353 2603 747 3093 
Q 1141 3584 1784 3584 
Q 2172 3584 2450 3431 
Q 2728 3278 2906 2969 
L 2906 3500 
L 3481 3500 
L 3481 434 
z
" transform="scale(0.015625)"/>
      <path id="DejaVuSans-68" d="M 3513 2113 
L 3513 0 
L 2938 0 
L 2938 2094 
Q 2938 2591 2744 2837 
Q 2550 3084 2163 3084 
Q 1697 3084 1428 2787 
Q 1159 2491 1159 1978 
L 1159 0 
L 581 0 
L 581 4863 
L 1159 4863 
L 1159 2956 
Q 1366 3272 1645 3428 
Q 1925 3584 2291 3584 
Q 2894 3584 3203 3211 
Q 3513 2838 3513 2113 
z
" transform="scale(0.015625)"/>
      <path id="DejaVuSans-74" d="M 1172 4494 
L 1172 3500 
L 2356 3500 
L 2356 3053 
L 1172 3053 
L 1172 1153 
Q 1172 725 1289 603 
Q 1406 481 1766 481 
L 2356 481 
L 2356 0 
L 1766 0 
Q 1100 0 847 248 
Q 594 497 594 1153 
L 594 3053 
L 172 3053 
L 172 3500 
L 594 3500 
L 594 4494 
L 1172 4494 
z
" transform="scale(0.015625)"/>
      <path id="DejaVuSans-56" d="M 1831 0 
L 50 4666 
L 709 4666 
L 2188 738 
L 3669 4666 
L 4325 4666 
L 2547 0 
L 1831 0 
z
" transform="scale(0.015625)"/>
      <path id="DejaVuSans-73" d="M 2834 3397 
L 2834 2853 
Q 2591 2978 2328 3040 
Q 2066 3103 1784 3103 
Q 1356 3103 1142 2972 
Q 928 2841 928 2578 
Q 928 2378 1081 2264 
Q 1234 2150 1697 2047 
L 1894 2003 
Q 2506 1872 2764 1633 
Q 3022 1394 3022 966 
Q 3022 478 2636 193 
Q 2250 -91 1575 -91 
Q 1294 -91 989 -36 
Q 684 19 347 128 
L 347 722 
Q 666 556 975 473 
Q 1284 391 1588 391 
Q 1994 391 2212 530 
Q 2431 669 2431 922 
Q 2431 1156 2273 1281 
Q 2116 1406 1581 1522 
L 1381 1569 
Q 847 1681 609 1914 
Q 372 2147 372 2553 
Q 372 3047 722 3315 
Q 1072 3584 1716 3584 
Q 2034 3584 2315 3537 
Q 2597 3491 2834 3397 
z
" transform="scale(0.015625)"/>
      <path id="DejaVuSans-75" d="M 544 1381 
L 544 3500 
L 1119 3500 
L 1119 1403 
Q 1119 906 1312 657 
Q 1506 409 1894 409 
Q 2359 409 2629 706 
Q 2900 1003 2900 1516 
L 2900 3500 
L 3475 3500 
L 3475 0 
L 2900 0 
L 2900 538 
Q 2691 219 2414 64 
Q 2138 -91 1772 -91 
Q 1169 -91 856 284 
Q 544 659 544 1381 
z
M 1991 3584 
L 1991 3584 
z
" transform="scale(0.015625)"/>
      <path id="DejaVuSans-61" d="M 2194 1759 
Q 1497 1759 1228 1600 
Q 959 1441 959 1056 
Q 959 750 1161 570 
Q 1363 391 1709 391 
Q 2188 391 2477 730 
Q 2766 1069 2766 1631 
L 2766 1759 
L 2194 1759 
z
M 3341 1997 
L 3341 0 
L 2766 0 
L 2766 531 
Q 2569 213 2275 61 
Q 1981 -91 1556 -91 
Q 1019 -91 701 211 
Q 384 513 384 1019 
Q 384 1609 779 1909 
Q 1175 2209 1959 2209 
L 2766 2209 
L 2766 2266 
Q 2766 2663 2505 2880 
Q 2244 3097 1772 3097 
Q 1472 3097 1187 3025 
Q 903 2953 641 2809 
L 641 3341 
Q 956 3463 1253 3523 
Q 1550 3584 1831 3584 
Q 2591 3584 2966 3190 
Q 3341 2797 3341 1997 
z
" transform="scale(0.015625)"/>
      <path id="DejaVuSans-7a" d="M 353 3500 
L 3084 3500 
L 3084 2975 
L 922 459 
L 3084 459 
L 3084 0 
L 275 0 
L 275 525 
L 2438 3041 
L 353 3041 
L 353 3500 
z
" transform="scale(0.015625)"/>
      <path id="DejaVuSans-6f" d="M 1959 3097 
Q 1497 3097 1228 2736 
Q 959 2375 959 1747 
Q 959 1119 1226 758 
Q 1494 397 1959 397 
Q 2419 397 2687 759 
Q 2956 1122 2956 1747 
Q 2956 2369 2687 2733 
Q 2419 3097 1959 3097 
z
M 1959 3584 
Q 2709 3584 3137 3096 
Q 3566 2609 3566 1747 
Q 3566 888 3137 398 
Q 2709 -91 1959 -91 
Q 1206 -91 779 398 
Q 353 888 353 1747 
Q 353 2609 779 3096 
Q 1206 3584 1959 3584 
z
" transform="scale(0.015625)"/>
      <path id="DejaVuSans-6e" d="M 3513 2113 
L 3513 0 
L 2938 0 
L 2938 2094 
Q 2938 2591 2744 2837 
Q 2550 3084 2163 3084 
Q 1697 3084 1428 2787 
Q 1159 2491 1159 1978 
L 1159 0 
L 581 0 
L 581 3500 
L 1159 3500 
L 1159 2956 
Q 1366 3272 1645 3428 
Q 1925 3584 2291 3584 
Q 2894 3584 3203 3211 
Q 3513 2838 3513 2113 
z
" transform="scale(0.015625)"/>
      <path id="DejaVuSans-3a" d="M 750 794 
L 1409 794 
L 1409 0 
L 750 0 
L 750 794 
z
M 750 3309 
L 1409 3309 
L 1409 2516 
L 750 2516 
L 750 3309 
z
" transform="scale(0.015625)"/>
      <path id="DejaVuSans-53" d="M 3425 4513 
L 3425 3897 
Q 3066 4069 2747 4153 
Q 2428 4238 2131 4238 
Q 1616 4238 1336 4038 
Q 1056 3838 1056 3469 
Q 1056 3159 1242 3001 
Q 1428 2844 1947 2747 
L 2328 2669 
Q 3034 2534 3370 2195 
Q 3706 1856 3706 1288 
Q 3706 609 3251 259 
Q 2797 -91 1919 -91 
Q 1588 -91 1214 -16 
Q 841 59 441 206 
L 441 856 
Q 825 641 1194 531 
Q 1563 422 1919 422 
Q 2459 422 2753 634 
Q 3047 847 3047 1241 
Q 3047 1584 2836 1778 
Q 2625 1972 2144 2069 
L 1759 2144 
Q 1053 2284 737 2584 
Q 422 2884 422 3419 
Q 422 4038 858 4394 
Q 1294 4750 2059 4750 
Q 2388 4750 2728 4690 
Q 3069 4631 3425 4513 
z
" transform="scale(0.015625)"/>
      <path id="DejaVuSans-65" d="M 3597 1894 
L 3597 1613 
L 953 1613 
Q 991 1019 1311 708 
Q 1631 397 2203 397 
Q 2534 397 2845 478 
Q 3156 559 3463 722 
L 3463 178 
Q 3153 47 2828 -22 
Q 2503 -91 2169 -91 
Q 1331 -91 842 396 
Q 353 884 353 1716 
Q 353 2575 817 3079 
Q 1281 3584 2069 3584 
Q 2775 3584 3186 3129 
Q 3597 2675 3597 1894 
z
M 3022 2063 
Q 3016 2534 2758 2815 
Q 2500 3097 2075 3097 
Q 1594 3097 1305 2825 
Q 1016 2553 972 2059 
L 3022 2063 
z
" transform="scale(0.015625)"/>
      <path id="DejaVuSans-45" d="M 628 4666 
L 3578 4666 
L 3578 4134 
L 1259 4134 
L 1259 2753 
L 3481 2753 
L 3481 2222 
L 1259 2222 
L 1259 531 
L 3634 531 
L 3634 0 
L 628 0 
L 628 4666 
z
" transform="scale(0.015625)"/>
      <path id="DejaVuSans-50" d="M 1259 4147 
L 1259 2394 
L 2053 2394 
Q 2494 2394 2734 2622 
Q 2975 2850 2975 3272 
Q 2975 3691 2734 3919 
Q 2494 4147 2053 4147 
L 1259 4147 
z
M 628 4666 
L 2053 4666 
Q 2838 4666 3239 4311 
Q 3641 3956 3641 3272 
Q 3641 2581 3239 2228 
Q 2838 1875 2053 1875 
L 1259 1875 
L 1259 0 
L 628 0 
L 628 4666 
z
" transform="scale(0.015625)"/>
      <path id="DejaVuSans-76" d="M 191 3500 
L 800 3500 
L 1894 563 
L 2988 3500 
L 3597 3500 
L 2284 0 
L 1503 0 
L 191 3500 
z
" transform="scale(0.015625)"/>
      <path id="DejaVuSans-49" d="M 628 4666 
L 1259 4666 
L 1259 0 
L 628 0 
L 628 4666 
z
" transform="scale(0.015625)"/>
      <path id="DejaVuSans-64" d="M 2906 2969 
L 2906 4863 
L 3481 4863 
L 3481 0 
L 2906 0 
L 2906 525 
Q 2725 213 2448 61 
Q 2172 -91 1784 -91 
Q 1150 -91 751 415 
Q 353 922 353 1747 
Q 353 2572 751 3078 
Q 1150 3584 1784 3584 
Q 2172 3584 2448 3432 
Q 2725 3281 2906 2969 
z
M 947 1747 
Q 947 1113 1208 752 
Q 1469 391 1925 391 
Q 2381 391 2643 752 
Q 2906 1113 2906 1747 
Q 2906 2381 2643 2742 
Q 2381 3103 1925 3103 
Q 1469 3103 1208 2742 
Q 947 2381 947 1747 
z
" transform="scale(0.015625)"/>
     </defs>
     <use xlink:href="#DejaVuSans-33"/>
     <use xlink:href="#DejaVuSans-44" transform="translate(63.623047 0)"/>
     <use xlink:href="#DejaVuSans-20" transform="translate(140.625 0)"/>
     <use xlink:href="#DejaVuSans-46" transform="translate(172.412109 0)"/>
     <use xlink:href="#DejaVuSans-6c" transform="translate(229.931641 0)"/>
     <use xlink:href="#DejaVuSans-69" transform="translate(257.714844 0)"/>
     <use xlink:href="#DejaVuSans-67" transform="translate(285.498047 0)"/>
     <use xlink:href="#DejaVuSans-68" transform="translate(348.974609 0)"/>
     <use xlink:href="#DejaVuSans-74" transform="translate(412.353516 0)"/>
     <use xlink:href="#DejaVuSans-20" transform="translate(451.5625 0)"/>
     <use xlink:href="#DejaVuSans-56" transform="translate(483.349609 0)"/>
     <use xlink:href="#DejaVuSans-69" transform="translate(549.507812 0)"/>
     <use xlink:href="#DejaVuSans-73" transform="translate(577.291016 0)"/>
     <use xlink:href="#DejaVuSans-75" transform="translate(629.390625 0)"/>
     <use xlink:href="#DejaVuSans-61" transform="translate(692.769531 0)"/>
     <use xlink:href="#DejaVuSans-6c" transform="translate(754.048828 0)"/>
     <use xlink:href="#DejaVuSans-69" transform="translate(781.832031 0)"/>
     <use xlink:href="#DejaVuSans-7a" transform="translate(809.615234 0)"/>
     <use xlink:href="#DejaVuSans-61" transform="translate(862.105469 0)"/>
     <use xlink:href="#DejaVuSans-74" transform="translate(923.384766 0)"/>
     <use xlink:href="#DejaVuSans-69" transform="translate(962.59375 0)"/>
     <use xlink:href="#DejaVuSans-6f" transform="translate(990.376953 0)"/>
     <use xlink:href="#DejaVuSans-6e" transform="translate(1051.558594 0)"/>
     <use xlink:href="#DejaVuSans-3a" transform="translate(1114.9375 0)"/>
     <use xlink:href="#DejaVuSans-20" transform="translate(1148.628906 0)"/>
     <use xlink:href="#DejaVuSans-53" transform="translate(1180.416016 0)"/>
     <use xlink:href="#DejaVuSans-74" transform="translate(1243.892578 0)"/>
     <use xlink:href="#DejaVuSans-61" transform="translate(1283.101562 0)"/>
     <use xlink:href="#DejaVuSans-74" transform="translate(1344.380859 0)"/>
     <use xlink:href="#DejaVuSans-65" transform="translate(1383.589844 0)"/>
     <use xlink:href="#DejaVuSans-20" transform="translate(1445.113281 0)"/>
     <use xlink:href="#DejaVuSans-45" transform="translate(1476.900391 0)"/>
     <use xlink:href="#DejaVuSans-73" transform="translate(1540.083984 0)"/>
     <use xlink:href="#DejaVuSans-74" transform="translate(1592.183594 0)"/>
     <use xlink:href="#DejaVuSans-69" transform="translate(1631.392578 0)"/>
     <use xlink:href="#DejaVuSans-6d" transform="translate(1659.175781 0)"/>
     <use xlink:href="#DejaVuSans-61" transform="translate(1756.587891 0)"/>
     <use xlink:href="#DejaVuSans-74" transform="translate(1817.867188 0)"/>
     <use xlink:href="#DejaVuSans-65" transform="translate(1857.076172 0)"/>
     <use xlink:href="#DejaVuSans-20" transform="translate(1918.599609 0)"/>
     <use xlink:href="#DejaVuSans-46" transform="translate(1950.386719 0)"/>
     <use xlink:href="#DejaVuSans-6c" transform="translate(2007.90625 0)"/>
     <use xlink:href="#DejaVuSans-69" transform="translate(2035.689453 0)"/>
     <use xlink:href="#DejaVuSans-67" transform="translate(2063.472656 0)"/>
     <use xlink:href="#DejaVuSans-68" transform="translate(2126.949219 0)"/>
     <use xlink:href="#DejaVuSans-74" transform="translate(2190.328125 0)"/>
     <use xlink:href="#DejaVuSans-20" transform="translate(2229.537109 0)"/>
     <use xlink:href="#DejaVuSans-50" transform="translate(2261.324219 0)"/>
     <use xlink:href="#DejaVuSans-61" transform="translate(2317.126953 0)"/>
     <use xlink:href="#DejaVuSans-74" transform="translate(2378.40625 0)"/>
     <use xlink:href="#DejaVuSans-68" transform="translate(2417.615234 0)"/>
     <use xlink:href="#DejaVuSans-20" transform="translate(2480.994141 0)"/>
     <use xlink:href="#DejaVuSans-76" transform="translate(2512.78125 0)"/>
     <use xlink:href="#DejaVuSans-73" transform="translate(2571.960938 0)"/>
     <use xlink:href="#DejaVuSans-2e" transform="translate(2624.060547 0)"/>
     <use xlink:href="#DejaVuSans-20" transform="translate(2655.847656 0)"/>
     <use xlink:href="#DejaVuSans-49" transform="translate(2687.634766 0)"/>
     <use xlink:href="#DejaVuSans-64" transform="translate(2717.126953 0)"/>
     <use xlink:href="#DejaVuSans-65" transform="translate(2780.603516 0)"/>
     <use xlink:href="#DejaVuSans-61" transform="translate(2842.126953 0)"/>
     <use xlink:href="#DejaVuSans-6c" transform="translate(2903.40625 0)"/>
    </g>
   </g>
   <g id="legend_1">
    <g id="patch_6">
     <path d="M 928.49625 75.3075 
L 1122.96 75.3075 
Q 1125.36 75.3075 1125.36 72.9075 
L 1125.36 38.88 
Q 1125.36 36.48 1122.96 36.48 
L 928.49625 36.48 
Q 926.09625 36.48 926.09625 38.88 
L 926.09625 72.9075 
Q 926.09625 75.3075 928.49625 75.3075 
z
" style="fill: #ffffff; opacity: 0.8; stroke: #cccccc; stroke-linejoin: miter"/>
    </g>
    <g id="line2d_27">
     <path d="M 930.89625 46.198125 
L 942.89625 46.198125 
L 954.89625 46.198125 
" style="fill: none; stroke: #0000ff; stroke-width: 2; stroke-linecap: square"/>
    </g>
    <g id="text_31">
     <!-- State Estimate Flight Path -->
     <g transform="translate(964.49625 50.398125) scale(0.12 -0.12)">
      <use xlink:href="#DejaVuSans-53"/>
      <use xlink:href="#DejaVuSans-74" transform="translate(63.476562 0)"/>
      <use xlink:href="#DejaVuSans-61" transform="translate(102.685547 0)"/>
      <use xlink:href="#DejaVuSans-74" transform="translate(163.964844 0)"/>
      <use xlink:href="#DejaVuSans-65" transform="translate(203.173828 0)"/>
      <use xlink:href="#DejaVuSans-20" transform="translate(264.697266 0)"/>
      <use xlink:href="#DejaVuSans-45" transform="translate(296.484375 0)"/>
      <use xlink:href="#DejaVuSans-73" transform="translate(359.667969 0)"/>
      <use xlink:href="#DejaVuSans-74" transform="translate(411.767578 0)"/>
      <use xlink:href="#DejaVuSans-69" transform="translate(450.976562 0)"/>
      <use xlink:href="#DejaVuSans-6d" transform="translate(478.759766 0)"/>
      <use xlink:href="#DejaVuSans-61" transform="translate(576.171875 0)"/>
      <use xlink:href="#DejaVuSans-74" transform="translate(637.451172 0)"/>
      <use xlink:href="#DejaVuSans-65" transform="translate(676.660156 0)"/>
      <use xlink:href="#DejaVuSans-20" transform="translate(738.183594 0)"/>
      <use xlink:href="#DejaVuSans-46" transform="translate(769.970703 0)"/>
      <use xlink:href="#DejaVuSans-6c" transform="translate(827.490234 0)"/>
      <use xlink:href="#DejaVuSans-69" transform="translate(855.273438 0)"/>
      <use xlink:href="#DejaVuSans-67" transform="translate(883.056641 0)"/>
      <use xlink:href="#DejaVuSans-68" transform="translate(946.533203 0)"/>
      <use xlink:href="#DejaVuSans-74" transform="translate(1009.912109 0)"/>
      <use xlink:href="#DejaVuSans-20" transform="translate(1049.121094 0)"/>
      <use xlink:href="#DejaVuSans-50" transform="translate(1080.908203 0)"/>
      <use xlink:href="#DejaVuSans-61" transform="translate(1136.710938 0)"/>
      <use xlink:href="#DejaVuSans-74" transform="translate(1197.990234 0)"/>
      <use xlink:href="#DejaVuSans-68" transform="translate(1237.199219 0)"/>
     </g>
    </g>
    <g id="line2d_28">
     <path d="M 930.89625 63.811875 
L 942.89625 63.811875 
L 954.89625 63.811875 
" style="fill: none; stroke-dasharray: 7.4,3.2; stroke-dashoffset: 0; stroke: #008000; stroke-width: 2"/>
    </g>
    <g id="text_32">
     <!-- Ideal Waypoints Path -->
     <g transform="translate(964.49625 68.011875) scale(0.12 -0.12)">
      <defs>
       <path id="DejaVuSans-57" d="M 213 4666 
L 850 4666 
L 1831 722 
L 2809 4666 
L 3519 4666 
L 4500 722 
L 5478 4666 
L 6119 4666 
L 4947 0 
L 4153 0 
L 3169 4050 
L 2175 0 
L 1381 0 
L 213 4666 
z
" transform="scale(0.015625)"/>
       <path id="DejaVuSans-79" d="M 2059 -325 
Q 1816 -950 1584 -1140 
Q 1353 -1331 966 -1331 
L 506 -1331 
L 506 -850 
L 844 -850 
Q 1081 -850 1212 -737 
Q 1344 -625 1503 -206 
L 1606 56 
L 191 3500 
L 800 3500 
L 1894 763 
L 2988 3500 
L 3597 3500 
L 2059 -325 
z
" transform="scale(0.015625)"/>
       <path id="DejaVuSans-70" d="M 1159 525 
L 1159 -1331 
L 581 -1331 
L 581 3500 
L 1159 3500 
L 1159 2969 
Q 1341 3281 1617 3432 
Q 1894 3584 2278 3584 
Q 2916 3584 3314 3078 
Q 3713 2572 3713 1747 
Q 3713 922 3314 415 
Q 2916 -91 2278 -91 
Q 1894 -91 1617 61 
Q 1341 213 1159 525 
z
M 3116 1747 
Q 3116 2381 2855 2742 
Q 2594 3103 2138 3103 
Q 1681 3103 1420 2742 
Q 1159 2381 1159 1747 
Q 1159 1113 1420 752 
Q 1681 391 2138 391 
Q 2594 391 2855 752 
Q 3116 1113 3116 1747 
z
" transform="scale(0.015625)"/>
      </defs>
      <use xlink:href="#DejaVuSans-49"/>
      <use xlink:href="#DejaVuSans-64" transform="translate(29.492188 0)"/>
      <use xlink:href="#DejaVuSans-65" transform="translate(92.96875 0)"/>
      <use xlink:href="#DejaVuSans-61" transform="translate(154.492188 0)"/>
      <use xlink:href="#DejaVuSans-6c" transform="translate(215.771484 0)"/>
      <use xlink:href="#DejaVuSans-20" transform="translate(243.554688 0)"/>
      <use xlink:href="#DejaVuSans-57" transform="translate(275.341797 0)"/>
      <use xlink:href="#DejaVuSans-61" transform="translate(367.84375 0)"/>
      <use xlink:href="#DejaVuSans-79" transform="translate(429.123047 0)"/>
      <use xlink:href="#DejaVuSans-70" transform="translate(488.302734 0)"/>
      <use xlink:href="#DejaVuSans-6f" transform="translate(551.779297 0)"/>
      <use xlink:href="#DejaVuSans-69" transform="translate(612.960938 0)"/>
      <use xlink:href="#DejaVuSans-6e" transform="translate(640.744141 0)"/>
      <use xlink:href="#DejaVuSans-74" transform="translate(704.123047 0)"/>
      <use xlink:href="#DejaVuSans-73" transform="translate(743.332031 0)"/>
      <use xlink:href="#DejaVuSans-20" transform="translate(795.431641 0)"/>
      <use xlink:href="#DejaVuSans-50" transform="translate(827.21875 0)"/>
      <use xlink:href="#DejaVuSans-61" transform="translate(883.021484 0)"/>
      <use xlink:href="#DejaVuSans-74" transform="translate(944.300781 0)"/>
      <use xlink:href="#DejaVuSans-68" transform="translate(983.509766 0)"/>
     </g>
    </g>
   </g>
  </g>
 </g>
 <defs>
  <clipPath id="p35e7ff7829">
   <rect x="164.64" y="30.48" width="966.72" height="966.72"/>
  </clipPath>
 </defs>
</svg>
