<?xml version="1.0" encoding="utf-8" standalone="no"?>
<!DOCTYPE svg PUBLIC "-//W3C//DTD SVG 1.1//EN"
  "http://www.w3.org/Graphics/SVG/1.1/DTD/svg11.dtd">
<svg xmlns:xlink="http://www.w3.org/1999/xlink" width="1296pt" height="1008pt" viewBox="0 0 1296 1008" xmlns="http://www.w3.org/2000/svg" version="1.1">
 <metadata>
  <rdf:RDF xmlns:dc="http://purl.org/dc/elements/1.1/" xmlns:cc="http://creativecommons.org/ns#" xmlns:rdf="http://www.w3.org/1999/02/22-rdf-syntax-ns#">
   <cc:Work>
    <dc:type rdf:resource="http://purl.org/dc/dcmitype/StillImage"/>
    <dc:date>2025-08-06T00:44:33.132216</dc:date>
    <dc:format>image/svg+xml</dc:format>
    <dc:creator>
     <cc:Agent>
      <dc:title>Matplotlib v3.10.3, https://matplotlib.org/</dc:title>
     </cc:Agent>
    </dc:creator>
   </cc:Work>
  </rdf:RDF>
 </metadata>
 <defs>
  <style type="text/css">*{stroke-linejoin: round; stroke-linecap: butt}</style>
 </defs>
 <g id="figure_1">
  <g id="patch_1">
   <path d="M 0 1008 
L 1296 1008 
L 1296 0 
L 0 0 
z
" style="fill: #ffffff"/>
  </g>
  <g id="patch_2">
   <path d="M 164.64 997.2 
L 1131.36 997.2 
L 1131.36 30.48 
L 164.64 30.48 
z
" style="fill: #ffffff"/>
  </g>
  <g id="pane3d_1">
   <g id="patch_3">
    <path d="M 661.063784 581.893746 
L 263.758321 755.391958 
L 244.84442 234.039381 
L 661.063784 87.939602 
" style="fill: #f2f2f2; opacity: 0.5; stroke: #f2f2f2; stroke-linejoin: miter"/>
   </g>
  </g>
  <g id="pane3d_2">
   <g id="patch_4">
    <path d="M 1058.369247 755.391958 
L 661.063784 581.893746 
L 661.063784 87.939602 
L 1077.283147 234.039381 
" style="fill: #e6e6e6; opacity: 0.5; stroke: #e6e6e6; stroke-linejoin: miter"/>
   </g>
  </g>
  <g id="pane3d_3">
   <g id="patch_5">
    <path d="M 1058.369247 755.391958 
L 661.063784 581.893746 
L 263.758321 755.391958 
L 661.063784 954.570688 
" style="fill: #ececec; opacity: 0.5; stroke: #ececec; stroke-linejoin: miter"/>
   </g>
  </g>
  <g id="grid3d_1">
   <g id="Line3DCollection_1">
    <path d="M 602.588387 925.255573 
L 1000.130811 729.959978 
L 1016.112524 212.567495 
" style="fill: none; stroke: #b0b0b0; stroke-width: 0.8"/>
    <path d="M 545.160402 896.465551 
L 942.856205 704.948891 
L 956.007888 191.469789 
" style="fill: none; stroke: #b0b0b0; stroke-width: 0.8"/>
    <path d="M 488.876619 868.249145 
L 886.646303 680.402745 
L 897.072204 170.782403 
" style="fill: none; stroke: #b0b0b0; stroke-width: 0.8"/>
    <path d="M 433.70318 840.58938 
L 831.471688 656.308697 
L 839.271697 150.493483 
" style="fill: none; stroke: #b0b0b0; stroke-width: 0.8"/>
    <path d="M 379.60755 813.469947 
L 777.30402 632.65437 
L 782.573883 130.591627 
" style="fill: none; stroke: #b0b0b0; stroke-width: 0.8"/>
    <path d="M 326.55845 786.875164 
L 724.115983 609.427834 
L 726.947505 111.065862 
" style="fill: none; stroke: #b0b0b0; stroke-width: 0.8"/>
    <path d="M 274.525803 760.789954 
L 671.881239 586.61759 
L 672.362478 91.905627 
" style="fill: none; stroke: #b0b0b0; stroke-width: 0.8"/>
   </g>
  </g>
  <g id="grid3d_2">
   <g id="Line3DCollection_2">
    <path d="M 592.052272 112.163767 
L 595.019742 610.734334 
L 992.586882 788.370231 
" style="fill: none; stroke: #b0b0b0; stroke-width: 0.8"/>
    <path d="M 508.757221 141.401687 
L 515.395766 645.505105 
L 913.140077 828.198814 
" style="fill: none; stroke: #b0b0b0; stroke-width: 0.8"/>
    <path d="M 423.04953 171.486483 
L 433.567399 681.238506 
L 831.335814 869.209247 
" style="fill: none; stroke: #b0b0b0; stroke-width: 0.8"/>
    <path d="M 334.822837 202.45549 
L 349.441814 717.975072 
L 747.067582 911.454927 
" style="fill: none; stroke: #b0b0b0; stroke-width: 0.8"/>
   </g>
  </g>
  <g id="grid3d_3">
   <g id="Line3DCollection_3">
    <path d="M 1058.369247 755.391958 
L 661.063784 581.893746 
L 263.758321 755.391958 
" style="fill: none; stroke: #b0b0b0; stroke-width: 0.8"/>
    <path d="M 1060.638941 692.828933 
L 661.063784 522.458548 
L 261.488627 692.828933 
" style="fill: none; stroke: #b0b0b0; stroke-width: 0.8"/>
    <path d="M 1062.934716 629.546992 
L 661.063784 462.384877 
L 259.192852 629.546992 
" style="fill: none; stroke: #b0b0b0; stroke-width: 0.8"/>
    <path d="M 1065.257025 565.533671 
L 661.063784 401.662389 
L 256.870543 565.533671 
" style="fill: none; stroke: #b0b0b0; stroke-width: 0.8"/>
    <path d="M 1067.606329 500.776216 
L 661.063784 340.280517 
L 254.521238 500.776216 
" style="fill: none; stroke: #b0b0b0; stroke-width: 0.8"/>
    <path d="M 1069.983103 435.261577 
L 661.063784 278.22846 
L 252.144464 435.261577 
" style="fill: none; stroke: #b0b0b0; stroke-width: 0.8"/>
    <path d="M 1072.387832 368.976396 
L 661.063784 215.495184 
L 249.739736 368.976396 
" style="fill: none; stroke: #b0b0b0; stroke-width: 0.8"/>
    <path d="M 1074.82101 301.906997 
L 661.063784 152.069408 
L 247.306557 301.906997 
" style="fill: none; stroke: #b0b0b0; stroke-width: 0.8"/>
    <path d="M 1077.283147 234.039381 
L 661.063784 87.939602 
L 244.84442 234.039381 
" style="fill: none; stroke: #b0b0b0; stroke-width: 0.8"/>
   </g>
  </g>
  <g id="axis3d_1">
   <g id="line2d_1">
    <path d="M 263.758321 755.391958 
L 661.063784 954.570688 
" style="fill: none; stroke: #000000; stroke-width: 0.8; stroke-linecap: square"/>
   </g>
   <g id="xtick_1">
    <g id="line2d_2">
     <path d="M 605.999711 923.579736 
L 595.75373 928.613148 
" style="fill: none; stroke: #000000; stroke-width: 0.8; stroke-linecap: square"/>
    </g>
    <g id="text_1">
     <!-- −1.0 -->
     <g transform="translate(580.760896 949.547491) scale(0.1 -0.1)">
      <defs>
       <path id="DejaVuSans-2212" d="M 678 2272 
L 4684 2272 
L 4684 1741 
L 678 1741 
L 678 2272 
z
" transform="scale(0.015625)"/>
       <path id="DejaVuSans-31" d="M 794 531 
L 1825 531 
L 1825 4091 
L 703 3866 
L 703 4441 
L 1819 4666 
L 2450 4666 
L 2450 531 
L 3481 531 
L 3481 0 
L 794 0 
L 794 531 
z
" transform="scale(0.015625)"/>
       <path id="DejaVuSans-2e" d="M 684 794 
L 1344 794 
L 1344 0 
L 684 0 
L 684 794 
z
" transform="scale(0.015625)"/>
       <path id="DejaVuSans-30" d="M 2034 4250 
Q 1547 4250 1301 3770 
Q 1056 3291 1056 2328 
Q 1056 1369 1301 889 
Q 1547 409 2034 409 
Q 2525 409 2770 889 
Q 3016 1369 3016 2328 
Q 3016 3291 2770 3770 
Q 2525 4250 2034 4250 
z
M 2034 4750 
Q 2819 4750 3233 4129 
Q 3647 3509 3647 2328 
Q 3647 1150 3233 529 
Q 2819 -91 2034 -91 
Q 1250 -91 836 529 
Q 422 1150 422 2328 
Q 422 3509 836 4129 
Q 1250 4750 2034 4750 
z
" transform="scale(0.015625)"/>
      </defs>
      <use xlink:href="#DejaVuSans-2212"/>
      <use xlink:href="#DejaVuSans-31" transform="translate(83.789062 0)"/>
      <use xlink:href="#DejaVuSans-2e" transform="translate(147.412109 0)"/>
      <use xlink:href="#DejaVuSans-30" transform="translate(179.199219 0)"/>
     </g>
    </g>
   </g>
   <g id="xtick_2">
    <g id="line2d_3">
     <path d="M 548.570718 894.82326 
L 538.327885 899.755857 
" style="fill: none; stroke: #000000; stroke-width: 0.8; stroke-linecap: square"/>
    </g>
    <g id="text_2">
     <!-- −0.5 -->
     <g transform="translate(523.398019 920.57315) scale(0.1 -0.1)">
      <defs>
       <path id="DejaVuSans-35" d="M 691 4666 
L 3169 4666 
L 3169 4134 
L 1269 4134 
L 1269 2991 
Q 1406 3038 1543 3061 
Q 1681 3084 1819 3084 
Q 2600 3084 3056 2656 
Q 3513 2228 3513 1497 
Q 3513 744 3044 326 
Q 2575 -91 1722 -91 
Q 1428 -91 1123 -41 
Q 819 9 494 109 
L 494 744 
Q 775 591 1075 516 
Q 1375 441 1709 441 
Q 2250 441 2565 725 
Q 2881 1009 2881 1497 
Q 2881 1984 2565 2268 
Q 2250 2553 1709 2553 
Q 1456 2553 1204 2497 
Q 953 2441 691 2322 
L 691 4666 
z
" transform="scale(0.015625)"/>
      </defs>
      <use xlink:href="#DejaVuSans-2212"/>
      <use xlink:href="#DejaVuSans-30" transform="translate(83.789062 0)"/>
      <use xlink:href="#DejaVuSans-2e" transform="translate(147.412109 0)"/>
      <use xlink:href="#DejaVuSans-35" transform="translate(179.199219 0)"/>
     </g>
    </g>
   </g>
   <g id="xtick_3">
    <g id="line2d_4">
     <path d="M 492.285291 866.639402 
L 482.047515 871.474184 
" style="fill: none; stroke: #000000; stroke-width: 0.8; stroke-linecap: square"/>
    </g>
    <g id="text_3">
     <!-- 0.0 -->
     <g transform="translate(471.36853 892.176421) scale(0.1 -0.1)">
      <use xlink:href="#DejaVuSans-30"/>
      <use xlink:href="#DejaVuSans-2e" transform="translate(63.623047 0)"/>
      <use xlink:href="#DejaVuSans-30" transform="translate(95.410156 0)"/>
     </g>
    </g>
   </g>
   <g id="xtick_4">
    <g id="line2d_5">
     <path d="M 437.109609 839.011229 
L 426.878686 843.751075 
" style="fill: none; stroke: #000000; stroke-width: 0.8; stroke-linecap: square"/>
    </g>
    <g id="text_4">
     <!-- 0.5 -->
     <g transform="translate(416.258883 864.3402) scale(0.1 -0.1)">
      <use xlink:href="#DejaVuSans-30"/>
      <use xlink:href="#DejaVuSans-2e" transform="translate(63.623047 0)"/>
      <use xlink:href="#DejaVuSans-35" transform="translate(95.410156 0)"/>
     </g>
    </g>
   </g>
   <g id="xtick_5">
    <g id="line2d_6">
     <path d="M 383.011172 811.922465 
L 372.788791 816.570145 
" style="fill: none; stroke: #000000; stroke-width: 0.8; stroke-linecap: square"/>
    </g>
    <g id="text_5">
     <!-- 1.0 -->
     <g transform="translate(362.226387 837.048056) scale(0.1 -0.1)">
      <use xlink:href="#DejaVuSans-31"/>
      <use xlink:href="#DejaVuSans-2e" transform="translate(63.623047 0)"/>
      <use xlink:href="#DejaVuSans-30" transform="translate(95.410156 0)"/>
     </g>
    </g>
   </g>
   <g id="xtick_6">
    <g id="line2d_7">
     <path d="M 329.958737 785.357467 
L 319.746483 789.915643 
" style="fill: none; stroke: #000000; stroke-width: 0.8; stroke-linecap: square"/>
    </g>
    <g id="text_6">
     <!-- 1.5 -->
     <g transform="translate(309.239768 810.28419) scale(0.1 -0.1)">
      <use xlink:href="#DejaVuSans-31"/>
      <use xlink:href="#DejaVuSans-2e" transform="translate(63.623047 0)"/>
      <use xlink:href="#DejaVuSans-35" transform="translate(95.410156 0)"/>
     </g>
    </g>
   </g>
   <g id="xtick_7">
    <g id="line2d_8">
     <path d="M 277.922258 759.301189 
L 267.721623 763.772422 
" style="fill: none; stroke: #000000; stroke-width: 0.8; stroke-linecap: square"/>
    </g>
    <g id="text_7">
     <!-- 2.0 -->
     <g transform="translate(257.26895 784.033411) scale(0.1 -0.1)">
      <defs>
       <path id="DejaVuSans-32" d="M 1228 531 
L 3431 531 
L 3431 0 
L 469 0 
L 469 531 
Q 828 903 1448 1529 
Q 2069 2156 2228 2338 
Q 2531 2678 2651 2914 
Q 2772 3150 2772 3378 
Q 2772 3750 2511 3984 
Q 2250 4219 1831 4219 
Q 1534 4219 1204 4116 
Q 875 4013 500 3803 
L 500 4441 
Q 881 4594 1212 4672 
Q 1544 4750 1819 4750 
Q 2544 4750 2975 4387 
Q 3406 4025 3406 3419 
Q 3406 3131 3298 2873 
Q 3191 2616 2906 2266 
Q 2828 2175 2409 1742 
Q 1991 1309 1228 531 
z
" transform="scale(0.015625)"/>
      </defs>
      <use xlink:href="#DejaVuSans-32"/>
      <use xlink:href="#DejaVuSans-2e" transform="translate(63.623047 0)"/>
      <use xlink:href="#DejaVuSans-30" transform="translate(95.410156 0)"/>
     </g>
    </g>
   </g>
   <g id="text_8">
    <!-- X (m) -->
    <g transform="translate(415.633159 881.518553) rotate(-333.374297) scale(0.14 -0.14)">
     <defs>
      <path id="DejaVuSans-58" d="M 403 4666 
L 1081 4666 
L 2241 2931 
L 3406 4666 
L 4084 4666 
L 2584 2425 
L 4184 0 
L 3506 0 
L 2194 1984 
L 872 0 
L 191 0 
L 1856 2491 
L 403 4666 
z
" transform="scale(0.015625)"/>
      <path id="DejaVuSans-20" transform="scale(0.015625)"/>
      <path id="DejaVuSans-28" d="M 1984 4856 
Q 1566 4138 1362 3434 
Q 1159 2731 1159 2009 
Q 1159 1288 1364 580 
Q 1569 -128 1984 -844 
L 1484 -844 
Q 1016 -109 783 600 
Q 550 1309 550 2009 
Q 550 2706 781 3412 
Q 1013 4119 1484 4856 
L 1984 4856 
z
" transform="scale(0.015625)"/>
      <path id="DejaVuSans-6d" d="M 3328 2828 
Q 3544 3216 3844 3400 
Q 4144 3584 4550 3584 
Q 5097 3584 5394 3201 
Q 5691 2819 5691 2113 
L 5691 0 
L 5113 0 
L 5113 2094 
Q 5113 2597 4934 2840 
Q 4756 3084 4391 3084 
Q 3944 3084 3684 2787 
Q 3425 2491 3425 1978 
L 3425 0 
L 2847 0 
L 2847 2094 
Q 2847 2600 2669 2842 
Q 2491 3084 2119 3084 
Q 1678 3084 1418 2786 
Q 1159 2488 1159 1978 
L 1159 0 
L 581 0 
L 581 3500 
L 1159 3500 
L 1159 2956 
Q 1356 3278 1631 3431 
Q 1906 3584 2284 3584 
Q 2666 3584 2933 3390 
Q 3200 3197 3328 2828 
z
" transform="scale(0.015625)"/>
      <path id="DejaVuSans-29" d="M 513 4856 
L 1013 4856 
Q 1481 4119 1714 3412 
Q 1947 2706 1947 2009 
Q 1947 1309 1714 600 
Q 1481 -109 1013 -844 
L 513 -844 
Q 928 -128 1133 580 
Q 1338 1288 1338 2009 
Q 1338 2731 1133 3434 
Q 928 4138 513 4856 
z
" transform="scale(0.015625)"/>
     </defs>
     <use xlink:href="#DejaVuSans-58"/>
     <use xlink:href="#DejaVuSans-20" transform="translate(68.505859 0)"/>
     <use xlink:href="#DejaVuSans-28" transform="translate(100.292969 0)"/>
     <use xlink:href="#DejaVuSans-6d" transform="translate(139.306641 0)"/>
     <use xlink:href="#DejaVuSans-29" transform="translate(236.71875 0)"/>
    </g>
   </g>
  </g>
  <g id="axis3d_2">
   <g id="line2d_9">
    <path d="M 1058.369247 755.391958 
L 661.063784 954.570688 
" style="fill: none; stroke: #000000; stroke-width: 0.8; stroke-linecap: square"/>
   </g>
   <g id="xtick_8">
    <g id="line2d_10">
     <path d="M 989.186391 786.850867 
L 999.399261 791.414051 
" style="fill: none; stroke: #000000; stroke-width: 0.8; stroke-linecap: square"/>
    </g>
    <g id="text_9">
     <!-- −1 -->
     <g transform="translate(994.586435 811.788754) scale(0.1 -0.1)">
      <use xlink:href="#DejaVuSans-2212"/>
      <use xlink:href="#DejaVuSans-31" transform="translate(83.789062 0)"/>
     </g>
    </g>
   </g>
   <g id="xtick_9">
    <g id="line2d_11">
     <path d="M 909.734856 826.634712 
L 919.9621 831.332336 
" style="fill: none; stroke: #000000; stroke-width: 0.8; stroke-linecap: square"/>
    </g>
    <g id="text_10">
     <!-- 0 -->
     <g transform="translate(919.422789 851.870687) scale(0.1 -0.1)">
      <use xlink:href="#DejaVuSans-30"/>
     </g>
    </g>
   </g>
   <g id="xtick_10">
    <g id="line2d_12">
     <path d="M 827.927076 867.598403 
L 838.165056 872.436496 
" style="fill: none; stroke: #000000; stroke-width: 0.8; stroke-linecap: square"/>
    </g>
    <g id="text_11">
     <!-- 1 -->
     <g transform="translate(837.713294 893.142654) scale(0.1 -0.1)">
      <use xlink:href="#DejaVuSans-31"/>
     </g>
    </g>
   </g>
   <g id="xtick_11">
    <g id="line2d_13">
     <path d="M 743.656657 909.795213 
L 753.901383 914.780171 
" style="fill: none; stroke: #000000; stroke-width: 0.8; stroke-linecap: square"/>
    </g>
    <g id="text_12">
     <!-- 2 -->
     <g transform="translate(753.541289 935.658449) scale(0.1 -0.1)">
      <use xlink:href="#DejaVuSans-32"/>
     </g>
    </g>
   </g>
   <g id="text_13">
    <!-- Y (m) -->
    <g transform="translate(872.45169 898.584982) rotate(-26.625703) scale(0.14 -0.14)">
     <defs>
      <path id="DejaVuSans-59" d="M -13 4666 
L 666 4666 
L 1959 2747 
L 3244 4666 
L 3922 4666 
L 2272 2222 
L 2272 0 
L 1638 0 
L 1638 2222 
L -13 4666 
z
" transform="scale(0.015625)"/>
     </defs>
     <use xlink:href="#DejaVuSans-59"/>
     <use xlink:href="#DejaVuSans-20" transform="translate(61.083984 0)"/>
     <use xlink:href="#DejaVuSans-28" transform="translate(92.871094 0)"/>
     <use xlink:href="#DejaVuSans-6d" transform="translate(131.884766 0)"/>
     <use xlink:href="#DejaVuSans-29" transform="translate(229.296875 0)"/>
    </g>
   </g>
  </g>
  <g id="axis3d_3">
   <g id="line2d_14">
    <path d="M 1058.369247 755.391958 
L 1077.283147 234.039381 
" style="fill: none; stroke: #000000; stroke-width: 0.8; stroke-linecap: square"/>
   </g>
   <g id="xtick_12">
    <g id="line2d_15">
     <path d="M 1054.973654 753.909146 
L 1065.171676 758.362492 
" style="fill: none; stroke: #000000; stroke-width: 0.8; stroke-linecap: square"/>
    </g>
    <g id="text_14">
     <!-- 0.00 -->
     <g transform="translate(1065.385442 762.990395) scale(0.1 -0.1)">
      <use xlink:href="#DejaVuSans-30"/>
      <use xlink:href="#DejaVuSans-2e" transform="translate(63.623047 0)"/>
      <use xlink:href="#DejaVuSans-30" transform="translate(95.410156 0)"/>
      <use xlink:href="#DejaVuSans-30" transform="translate(159.033203 0)"/>
     </g>
    </g>
   </g>
   <g id="xtick_13">
    <g id="line2d_16">
     <path d="M 1057.222703 691.372322 
L 1067.482793 695.747007 
" style="fill: none; stroke: #000000; stroke-width: 0.8; stroke-linecap: square"/>
    </g>
    <g id="text_15">
     <!-- 0.25 -->
     <g transform="translate(1067.758817 700.427371) scale(0.1 -0.1)">
      <use xlink:href="#DejaVuSans-30"/>
      <use xlink:href="#DejaVuSans-2e" transform="translate(63.623047 0)"/>
      <use xlink:href="#DejaVuSans-32" transform="translate(95.410156 0)"/>
      <use xlink:href="#DejaVuSans-35" transform="translate(159.033203 0)"/>
     </g>
    </g>
   </g>
   <g id="xtick_14">
    <g id="line2d_17">
     <path d="M 1059.497581 628.117283 
L 1069.820497 632.411199 
" style="fill: none; stroke: #000000; stroke-width: 0.8; stroke-linecap: square"/>
    </g>
    <g id="text_16">
     <!-- 0.50 -->
     <g transform="translate(1070.159463 637.14543) scale(0.1 -0.1)">
      <use xlink:href="#DejaVuSans-30"/>
      <use xlink:href="#DejaVuSans-2e" transform="translate(63.623047 0)"/>
      <use xlink:href="#DejaVuSans-35" transform="translate(95.410156 0)"/>
      <use xlink:href="#DejaVuSans-30" transform="translate(159.033203 0)"/>
     </g>
    </g>
   </g>
   <g id="xtick_15">
    <g id="line2d_18">
     <path d="M 1061.798737 564.131584 
L 1072.185249 568.342567 
" style="fill: none; stroke: #000000; stroke-width: 0.8; stroke-linecap: square"/>
    </g>
    <g id="text_17">
     <!-- 0.75 -->
     <g transform="translate(1072.587856 573.132108) scale(0.1 -0.1)">
      <defs>
       <path id="DejaVuSans-37" d="M 525 4666 
L 3525 4666 
L 3525 4397 
L 1831 0 
L 1172 0 
L 2766 4134 
L 525 4134 
L 525 4666 
z
" transform="scale(0.015625)"/>
      </defs>
      <use xlink:href="#DejaVuSans-30"/>
      <use xlink:href="#DejaVuSans-2e" transform="translate(63.623047 0)"/>
      <use xlink:href="#DejaVuSans-37" transform="translate(95.410156 0)"/>
      <use xlink:href="#DejaVuSans-35" transform="translate(159.033203 0)"/>
     </g>
    </g>
   </g>
   <g id="xtick_16">
    <g id="line2d_19">
     <path d="M 1064.126628 499.402493 
L 1074.577522 503.528318 
" style="fill: none; stroke: #000000; stroke-width: 0.8; stroke-linecap: square"/>
    </g>
    <g id="text_18">
     <!-- 1.00 -->
     <g transform="translate(1075.044477 508.374654) scale(0.1 -0.1)">
      <use xlink:href="#DejaVuSans-31"/>
      <use xlink:href="#DejaVuSans-2e" transform="translate(63.623047 0)"/>
      <use xlink:href="#DejaVuSans-30" transform="translate(95.410156 0)"/>
      <use xlink:href="#DejaVuSans-30" transform="translate(159.033203 0)"/>
     </g>
    </g>
   </g>
   <g id="xtick_17">
    <g id="line2d_20">
     <path d="M 1066.481723 433.916978 
L 1076.997798 437.955359 
" style="fill: none; stroke: #000000; stroke-width: 0.8; stroke-linecap: square"/>
    </g>
    <g id="text_19">
     <!-- 1.25 -->
     <g transform="translate(1077.529823 442.860015) scale(0.1 -0.1)">
      <use xlink:href="#DejaVuSans-31"/>
      <use xlink:href="#DejaVuSans-2e" transform="translate(63.623047 0)"/>
      <use xlink:href="#DejaVuSans-32" transform="translate(95.410156 0)"/>
      <use xlink:href="#DejaVuSans-35" transform="translate(159.033203 0)"/>
     </g>
    </g>
   </g>
   <g id="xtick_18">
    <g id="line2d_21">
     <path d="M 1068.864501 367.661702 
L 1079.446573 371.61029 
" style="fill: none; stroke: #000000; stroke-width: 0.8; stroke-linecap: square"/>
    </g>
    <g id="text_20">
     <!-- 1.50 -->
     <g transform="translate(1080.0444 376.574833) scale(0.1 -0.1)">
      <use xlink:href="#DejaVuSans-31"/>
      <use xlink:href="#DejaVuSans-2e" transform="translate(63.623047 0)"/>
      <use xlink:href="#DejaVuSans-35" transform="translate(95.410156 0)"/>
      <use xlink:href="#DejaVuSans-30" transform="translate(159.033203 0)"/>
     </g>
    </g>
   </g>
   <g id="xtick_19">
    <g id="line2d_22">
     <path d="M 1071.275453 300.623012 
L 1081.924352 304.479393 
" style="fill: none; stroke: #000000; stroke-width: 0.8; stroke-linecap: square"/>
    </g>
    <g id="text_21">
     <!-- 1.75 -->
     <g transform="translate(1082.588727 309.505434) scale(0.1 -0.1)">
      <use xlink:href="#DejaVuSans-31"/>
      <use xlink:href="#DejaVuSans-2e" transform="translate(63.623047 0)"/>
      <use xlink:href="#DejaVuSans-37" transform="translate(95.410156 0)"/>
      <use xlink:href="#DejaVuSans-35" transform="translate(159.033203 0)"/>
     </g>
    </g>
   </g>
   <g id="xtick_20">
    <g id="line2d_23">
     <path d="M 1073.715082 232.786932 
L 1084.431655 236.548624 
" style="fill: none; stroke: #000000; stroke-width: 0.8; stroke-linecap: square"/>
    </g>
    <g id="text_22">
     <!-- 2.00 -->
     <g transform="translate(1085.163334 241.637818) scale(0.1 -0.1)">
      <use xlink:href="#DejaVuSans-32"/>
      <use xlink:href="#DejaVuSans-2e" transform="translate(63.623047 0)"/>
      <use xlink:href="#DejaVuSans-30" transform="translate(95.410156 0)"/>
      <use xlink:href="#DejaVuSans-30" transform="translate(159.033203 0)"/>
     </g>
    </g>
   </g>
   <g id="text_23">
    <!-- Z (m) -->
    <g transform="translate(1111.138841 520.203897) rotate(-87.922305) scale(0.14 -0.14)">
     <defs>
      <path id="DejaVuSans-5a" d="M 359 4666 
L 4025 4666 
L 4025 4184 
L 1075 531 
L 4097 531 
L 4097 0 
L 288 0 
L 288 481 
L 3238 4134 
L 359 4134 
L 359 4666 
z
" transform="scale(0.015625)"/>
     </defs>
     <use xlink:href="#DejaVuSans-5a"/>
     <use xlink:href="#DejaVuSans-20" transform="translate(68.505859 0)"/>
     <use xlink:href="#DejaVuSans-28" transform="translate(100.292969 0)"/>
     <use xlink:href="#DejaVuSans-6d" transform="translate(139.306641 0)"/>
     <use xlink:href="#DejaVuSans-29" transform="translate(236.71875 0)"/>
    </g>
   </g>
  </g>
  <g id="axes_1">
   <g id="line2d_24">
    <path d="M 733.929815 740.551403 
L 734.418211 741.170042 
L 734.845515 741.301908 
L 734.132346 741.145374 
L 734.249484 742.379486 
L 732.989128 741.316948 
L 733.585523 740.277645 
L 733.523229 740.028356 
L 733.132727 739.865317 
L 732.969917 740.400305 
L 733.393453 740.183215 
L 732.848473 739.591427 
L 733.527507 740.120795 
L 733.178668 740.339588 
L 731.544996 740.26263 
L 731.518183 740.544362 
L 731.63818 740.85222 
L 730.455173 740.827697 
L 729.959834 740.942828 
L 730.062649 740.649743 
L 729.07404 740.630413 
L 728.378386 741.310471 
L 728.969991 741.964179 
L 730.189011 742.148268 
L 730.1613 742.25746 
L 730.992142 742.488153 
L 730.430336 742.87523 
L 730.30543 742.556055 
L 729.707125 741.956255 
L 730.719104 741.856205 
L 732.296773 741.817265 
L 730.494335 741.16755 
L 730.710312 741.358931 
L 730.32658 741.958451 
L 730.814004 741.952923 
L 729.121521 742.606376 
L 729.456664 742.533358 
L 729.920465 742.90502 
L 729.060393 743.733873 
L 729.099118 742.46993 
L 730.066413 742.126925 
L 729.898125 742.286342 
L 729.769454 741.722499 
L 729.954739 741.99725 
L 729.842365 742.996415 
L 730.483113 743.62056 
L 730.593904 743.891548 
L 731.444279 743.522419 
L 732.520413 744.944405 
L 733.656194 744.941197 
L 733.957058 745.532195 
L 733.944259 745.363127 
L 731.913567 745.039574 
L 731.549438 745.620848 
L 731.385114 745.41161 
L 731.621518 745.508242 
L 729.938258 746.03588 
L 730.171021 746.770613 
L 729.796082 746.561644 
L 728.617562 746.280773 
L 728.257124 745.944063 
L 728.420021 744.926547 
L 729.345972 745.961901 
L 731.171746 747.402463 
L 731.691399 748.105552 
L 732.016391 748.175408 
L 732.029484 747.732566 
L 731.912489 748.759678 
L 741.307726 743.889575 
L 742.439461 744.266727 
L 741.044339 744.346366 
L 741.274483 744.640319 
L 740.256843 745.169624 
L 739.043341 745.001011 
L 740.106952 744.459094 
L 739.96765 744.80359 
L 738.931144 744.442225 
L 737.109782 743.989252 
L 737.615204 744.976999 
L 737.598346 744.759538 
L 738.1573 744.875555 
L 737.156144 744.573339 
L 737.295357 745.083884 
L 738.071849 744.560853 
L 738.540273 744.078629 
L 739.832716 743.668333 
L 739.522641 743.07345 
L 739.243933 743.196804 
L 739.335835 743.264736 
L 740.460069 743.720254 
L 740.869916 743.567404 
L 741.775066 743.011927 
L 744.334672 745.446766 
L 745.527067 744.82779 
L 744.99804 742.201866 
L 743.031459 738.189033 
L 741.686406 733.209961 
L 741.356205 727.130297 
L 741.718455 722.922188 
L 743.34044 717.284433 
L 743.825602 714.030604 
L 744.436711 708.782144 
L 744.867373 702.34422 
L 744.630406 688.51115 
L 743.290778 681.019593 
L 742.985756 673.153656 
L 742.985733 666.324279 
L 741.741457 659.99636 
L 741.633433 652.628596 
L 741.325161 644.794558 
L 741.78561 636.301988 
L 742.022394 621.571615 
L 741.693395 613.89809 
L 742.236913 606.737646 
L 741.776448 601.172021 
L 741.712969 594.213947 
L 741.793806 588.198549 
L 742.556752 577.127239 
L 743.144868 572.207342 
L 745.879538 567.657101 
L 746.518819 562.315993 
L 747.883834 557.489056 
L 747.89336 552.31992 
L 747.619099 545.715847 
L 744.702831 538.818113 
L 741.28964 524.687799 
L 740.039503 518.57261 
L 740.046225 512.870721 
L 739.465553 508.358193 
L 739.668051 503.78665 
L 739.814943 497.628833 
L 741.210694 492.393884 
L 738.842893 486.873299 
L 748.734293 485.197166 
L 749.432939 480.411396 
L 749.220305 472.608106 
L 747.742122 466.037009 
L 742.527251 459.451884 
L 738.939707 452.578891 
L 733.456834 435.618206 
L 732.279165 430.465616 
L 730.603188 424.780733 
L 730.77834 414.823407 
L 731.987653 411.273249 
L 731.619934 405.71685 
L 733.055809 399.74036 
L 734.804372 396.422312 
L 735.009117 391.10006 
L 733.025305 384.943739 
L 733.034857 380.907096 
L 728.777591 374.51154 
L 727.550853 370.797394 
L 725.424122 361.844736 
L 725.161931 357.36704 
L 724.492675 351.598879 
L 724.69215 349.445113 
L 724.803333 343.434394 
L 723.817353 338.271511 
L 723.435004 337.16807 
L 723.178869 336.986185 
L 720.017272 338.155822 
L 721.634518 339.883527 
L 718.30609 344.928127 
L 717.821742 342.897599 
L 717.442385 345.163543 
L 717.179625 342.306165 
L 715.807179 339.791228 
L 715.357298 340.651533 
L 714.911493 342.546021 
L 713.171377 343.938565 
L 714.019598 341.101954 
L 712.94977 340.93878 
L 711.215815 344.047006 
L 711.103819 342.192001 
L 709.994346 347.319184 
L 709.056046 347.761534 
L 706.059659 349.659985 
L 704.635161 351.090873 
L 705.896207 351.580633 
L 704.974099 351.963683 
L 704.457328 352.989882 
L 705.079668 348.265269 
L 703.422468 346.916192 
L 702.975006 348.569461 
L 702.372526 351.990978 
L 702.53815 355.828478 
L 696.757691 360.968053 
L 696.277016 363.147196 
L 691.8908 367.885487 
L 688.317242 370.851108 
L 687.257196 369.19143 
L 681.903399 367.540182 
L 678.897822 369.168138 
L 677.476209 365.064785 
L 674.766041 365.187063 
L 669.845415 368.115019 
L 666.805982 370.593113 
L 660.74808 373.919037 
L 658.059999 376.259366 
L 654.524978 377.649117 
L 654.972926 374.052782 
L 651.746084 377.981117 
L 649.796496 377.160767 
L 646.089567 383.755297 
L 644.429987 385.219004 
L 641.382783 387.233937 
L 641.309274 391.310729 
L 638.979313 386.538664 
L 636.100632 387.620987 
L 633.980038 387.69896 
L 631.904236 388.858132 
L 627.23801 387.242594 
L 624.818836 389.11618 
L 618.417055 389.13363 
L 614.655893 391.952244 
L 614.038167 391.046979 
L 611.354262 392.382011 
L 609.518737 401.090151 
L 606.473948 400.764018 
L 606.729676 398.132573 
L 604.447922 400.136929 
L 601.27011 400.531365 
L 599.951432 398.628449 
L 597.410433 401.505835 
L 594.396468 398.515467 
L 592.119016 403.246727 
L 589.25885 396.184185 
L 589.352554 399.386072 
L 590.640234 407.817804 
L 590.344394 409.627438 
L 590.527 409.991762 
L 590.807893 408.444913 
L 591.329311 412.321782 
L 591.566602 406.335988 
L 591.566294 407.582581 
L 592.14608 402.967704 
L 592.031761 403.07467 
L 591.533611 404.356966 
L 591.461473 403.399019 
L 590.670707 405.248385 
L 590.440201 408.380885 
L 590.218276 409.629161 
L 588.835168 406.692472 
L 588.534658 400.289449 
L 588.971478 401.146645 
L 588.856077 404.615369 
L 589.486666 403.919218 
L 589.649804 403.95887 
L 589.669287 405.004753 
L 590.324308 410.065062 
L 589.332711 408.565522 
L 587.314669 403.35247 
L 587.430317 406.642484 
L 589.005272 403.986762 
L 586.762195 405.550371 
L 586.068104 406.650655 
L 587.331292 404.118708 
L 588.051497 404.415873 
L 584.009679 401.956277 
L 533.084621 406.446152 
L 511.063995 406.705774 
L 514.71925 409.830281 
L 502.734749 413.452089 
L 496.18746 410.856358 
L 492.966992 413.714108 
L 481.194367 417.318521 
L 479.29111 421.318722 
L 474.514759 421.756075 
L 468.533062 418.728231 
L 465.597579 418.889849 
L 466.237542 418.425644 
L 458.763883 413.095472 
L 454.665707 410.844275 
L 453.86557 405.709068 
L 450.302746 410.638862 
L 443.786429 408.256379 
L 439.702115 404.950588 
L 435.669446 404.049535 
L 431.653884 401.613072 
L 426.816095 399.664803 
L 422.400788 401.172743 
L 417.480662 398.314586 
L 413.998041 398.386114 
L 409.845982 399.028492 
L 406.391604 397.027764 
L 401.146875 392.789556 
L 397.648453 391.273221 
L 394.950213 391.337586 
L 394.414024 391.464761 
L 395.911294 392.650263 
L 396.912957 395.267188 
L 399.447291 394.529609 
L 399.617231 398.061586 
L 400.883186 398.459457 
L 401.574472 400.486387 
L 400.541144 401.108593 
L 398.797552 400.248348 
L 396.997787 396.094317 
L 396.251787 395.963153 
L 395.296457 395.464706 
L 394.731435 396.364878 
L 394.05423 397.182726 
L 394.190037 399.891478 
L 393.724851 399.967533 
L 394.049373 400.316629 
L 394.464984 399.191013 
L 394.023697 398.550344 
L 393.130757 399.627214 
L 389.923955 397.851118 
L 388.259985 397.949042 
L 386.316529 398.732393 
L 385.14607 397.714177 
L 385.271463 397.708508 
L 385.416049 398.59043 
L 385.923616 397.012049 
L 388.636709 399.562194 
L 388.103571 398.660026 
L 389.174096 397.725192 
L 387.345951 398.616454 
L 384.363086 396.053111 
L 381.270682 395.223419 
L 377.781792 394.725941 
L 375.935259 394.162507 
L 373.974778 394.793979 
L 374.248099 395.259062 
L 370.718391 396.281975 
L 374.316096 394.702228 
L 376.219825 395.772525 
L 380.645012 397.307076 
L 386.078884 397.595597 
L 391.702197 396.319415 
L 394.59105 392.879433 
L 396.798243 386.669344 
L 397.624601 383.526152 
L 398.450561 381.354592 
L 395.895706 379.028518 
L 396.050757 377.926385 
L 396.578649 376.727118 
L 394.27926 378.066584 
L 395.885989 377.946601 
L 398.526727 376.119598 
L 401.339855 376.4734 
L 407.092751 379.195978 
L 409.163757 379.687714 
L 411.628431 380.434527 
L 412.110436 380.319466 
L 413.400156 380.329692 
L 417.537986 376.489542 
L 418.324377 375.44341 
L 419.195905 376.359975 
L 419.376819 374.769655 
L 418.950229 369.381338 
L 421.81568 365.864131 
L 422.465357 362.27267 
L 421.722773 363.423188 
L 423.694847 364.717353 
L 427.412192 364.827351 
L 428.331296 361.935198 
L 431.31076 360.468633 
L 433.564841 364.738851 
L 434.467732 365.635096 
L 436.638293 363.142954 
L 437.260368 361.480371 
L 440.478062 360.718702 
L 443.204253 359.276171 
L 446.012788 363.132248 
L 448.716125 360.414979 
L 451.613502 357.77833 
L 454.668116 358.148347 
L 457.633185 359.624495 
L 460.450835 356.880114 
L 463.250605 351.23304 
L 465.989457 345.976661 
L 468.241691 345.531767 
L 469.04434 349.858266 
L 470.934283 350.91606 
L 473.502576 347.094564 
L 475.378243 341.491727 
L 477.620074 338.97326 
L 480.294124 340.715144 
L 481.881814 339.133886 
L 484.674405 340.584841 
L 487.16846 340.314007 
L 488.403314 333.555824 
L 490.920928 330.31244 
L 493.712138 327.807835 
L 496.292208 328.224523 
L 499.043327 336.065609 
L 500.98698 333.306889 
L 503.50432 328.455342 
L 506.397582 327.683324 
L 509.97419 333.041155 
L 511.49205 329.352411 
L 514.429284 329.146699 
L 517.262672 328.192826 
L 520.222674 325.615548 
L 522.922322 324.658974 
L 525.587864 326.321796 
L 528.586164 323.446236 
L 531.48973 322.674817 
L 534.56099 323.683632 
L 537.245207 323.782618 
L 539.231187 319.834714 
L 541.116224 322.276561 
L 544.710134 319.658261 
L 546.682413 322.929363 
L 549.465714 319.271571 
L 555.097277 313.802451 
L 557.62645 313.381026 
L 560.106999 314.514758 
L 563.32855 311.773479 
L 566.163902 313.927218 
L 568.790263 314.734187 
L 571.306297 312.787644 
L 574.300719 313.003045 
L 576.777763 311.869818 
L 579.208453 311.86305 
L 581.924022 311.667344 
L 581.775307 315.3912 
L 586.120892 312.528949 
L 587.159653 305.541305 
L 475.963312 299.038249 
L 511.605973 307.681198 
L 469.011819 319.876468 
L 447.220637 320.102034 
L 456.919987 321.204887 
L 454.81812 323.166599 
L 474.480947 319.138634 
L 470.483691 323.98647 
L 474.722126 322.722909 
L 480.752084 314.097107 
L 484.376672 314.086132 
L 471.320638 308.884662 
L 471.899414 307.149735 
L 470.93606 306.958945 
L 472.509322 310.543867 
L 475.351954 309.182812 
L 475.176939 310.89148 
L 479.734487 310.766212 
L 484.421678 307.656063 
L 487.772379 303.367491 
L 491.010276 301.215655 
L 492.299437 297.726379 
L 494.997459 301.448873 
L 498.974543 305.686637 
L 499.787819 302.709241 
L 502.134509 300.139995 
L 504.204331 296.516129 
L 506.48112 297.904561 
L 509.342687 296.903547 
L 513.360054 292.326978 
L 515.134541 295.372787 
L 521.451115 293.251179 
L 523.74903 288.612536 
L 526.70512 286.958917 
L 529.830168 282.984708 
L 532.982954 286.416891 
L 535.605576 287.512908 
L 538.440456 290.663962 
L 540.591478 289.805214 
L 543.499268 286.548627 
L 546.267209 282.765612 
L 548.882335 282.634659 
L 551.538262 280.941121 
L 554.073452 280.718082 
L 556.574175 283.415141 
L 558.83774 282.207601 
L 561.2213 277.238369 
L 564.204941 274.130425 
L 566.184229 273.271969 
L 569.263572 271.674904 
L 571.818797 270.168782 
L 574.511939 276.19823 
L 578.823512 276.390633 
L 582.040666 273.906493 
L 583.203818 271.925468 
L 584.683879 268.027272 
L 587.345773 266.151188 
L 589.430979 267.13701 
L 592.540284 266.878515 
L 593.718865 264.5084 
L 597.925874 265.903527 
L 600.667474 265.90162 
L 602.886343 265.167674 
L 604.550633 265.386329 
L 605.970629 260.472321 
L 606.835299 260.541007 
L 608.914429 254.219781 
L 611.832859 251.202468 
L 612.499787 259.749863 
L 613.058189 261.940906 
L 618.133432 256.99526 
L 620.293354 254.51781 
L 623.500096 254.376614 
L 626.349086 253.69723 
L 627.322729 254.437582 
L 628.877272 252.475703 
L 629.936618 250.951241 
L 631.891097 246.905743 
L 632.879164 244.065187 
L 633.473759 248.292648 
L 634.500203 248.670601 
L 638.529203 249.964891 
L 640.946462 251.924268 
L 642.159958 247.719344 
L 648.537206 244.689682 
L 651.603553 244.517953 
L 655.132451 241.266099 
L 657.694022 238.535076 
L 659.514225 238.940125 
L 660.379071 240.925176 
L 662.62453 238.54629 
L 663.655053 238.392084 
L 664.051614 238.713587 
L 661.590954 236.199999 
L 660.513322 239.726024 
L 655.435419 247.345476 
L 652.971887 248.32857 
L 652.240783 245.318682 
L 653.126742 242.923853 
L 652.72779 240.262073 
L 654.079729 239.672811 
L 655.678622 243.772199 
L 655.531292 245.162721 
L 654.849436 245.531401 
L 655.786696 241.938015 
L 656.818475 242.962182 
L 656.712527 241.892572 
L 655.894561 240.525766 
L 656.748277 239.601278 
L 656.185398 236.474678 
L 657.345212 239.395234 
L 656.005486 238.979023 
L 656.670627 240.115161 
L 658.115386 238.8869 
L 657.807968 239.060556 
L 657.677593 240.64754 
L 657.855845 241.934002 
L 657.426602 241.87217 
L 658.568777 241.51087 
L 658.359016 240.345988 
L 657.520983 237.974842 
L 660.777273 234.328561 
L 661.068244 235.929998 
L 660.859772 233.967081 
L 662.133313 232.962928 
L 660.644752 234.082052 
L 660.793544 234.982545 
L 661.230633 233.432841 
L 661.668717 233.208237 
L 658.434564 231.321399 
L 659.034757 227.559172 
L 661.979085 232.019282 
L 667.032152 239.965502 
L 672.264837 249.697088 
L 677.666366 255.066373 
L 681.008111 253.88292 
L 686.106299 250.806473 
L 687.37575 246.995423 
L 689.866155 246.007624 
L 691.413216 242.401589 
L 693.053421 243.139803 
L 694.03339 242.989856 
L 694.36632 245.11843 
L 697.230618 247.588726 
L 698.010275 247.868592 
L 703.974735 247.880237 
L 707.796897 252.021148 
L 709.877359 253.980962 
L 713.139852 255.287162 
L 715.698017 263.280701 
L 717.616083 258.121632 
L 718.735392 257.439275 
L 722.154604 258.950658 
L 724.900553 259.282122 
L 727.422482 260.403279 
L 728.578784 257.581347 
L 731.650266 259.610979 
L 734.28687 254.255875 
L 734.136985 262.643841 
L 736.79402 265.684453 
L 739.207318 267.491786 
L 741.37031 267.200089 
L 746.528964 267.828867 
L 749.507156 263.074553 
L 749.385723 266.681097 
L 752.149272 267.415282 
L 755.78586 270.317778 
L 757.137001 269.743352 
L 759.278974 278.299137 
L 760.936586 276.511522 
L 764.492234 277.427078 
L 766.927935 282.055367 
L 770.952257 284.063088 
L 774.233931 284.671307 
L 777.656421 284.455707 
L 781.352272 286.553482 
L 783.805712 283.752322 
L 785.6008 283.698999 
L 786.917215 282.24092 
L 790.184727 285.624822 
L 792.425941 291.250162 
L 796.308866 293.908783 
L 798.484325 293.430524 
L 803.227298 297.288111 
L 807.919019 296.13155 
L 810.998036 299.365896 
L 813.858719 299.121671 
L 817.154124 300.011009 
L 819.948864 298.966441 
L 822.663655 302.006541 
L 826.680186 305.517748 
L 829.636841 308.464526 
L 833.179064 306.767164 
L 836.564403 308.126959 
L 840.682507 309.289783 
L 842.843249 311.737968 
L 846.02097 313.480379 
L 845.862982 315.80696 
L 850.734486 314.175174 
L 853.352562 311.332686 
L 857.951556 314.63707 
L 859.740188 320.617663 
L 865.215508 324.272187 
L 868.735352 325.505239 
L 872.313506 324.863082 
L 876.385894 323.203511 
L 878.293801 325.240158 
L 880.266294 325.894489 
L 884.308291 324.620698 
L 887.471631 325.329597 
L 889.057763 327.782739 
L 893.65687 331.229713 
L 898.188389 334.390475 
L 900.860313 331.986717 
L 906.087381 335.474555 
L 906.579123 341.401602 
L 909.110472 340.853535 
L 912.901585 342.379666 
L 916.965798 343.154993 
L 920.772335 340.992888 
L 922.367823 340.362408 
L 926.525925 341.001138 
L 928.753811 340.753554 
L 932.23833 347.90784 
L 934.899447 352.305358 
L 939.889956 355.46616 
L 943.990802 356.848774 
L 946.713678 359.799425 
L 949.12652 360.059668 
L 953.610595 359.202762 
L 955.164122 357.933009 
L 960.378715 359.725931 
L 963.217278 362.214725 
L 968.467199 358.486053 
L 970.032932 358.213708 
L 972.004784 365.187938 
L 978.01559 370.705328 
L 979.7161 368.880705 
L 979.493975 370.016298 
L 978.073949 370.800422 
L 971.41584 367.139034 
L 967.805495 365.678136 
L 966.995486 366.700083 
L 966.229076 364.28555 
L 965.612391 365.577318 
L 966.752445 364.494856 
L 969.136469 366.951249 
L 970.273902 363.444758 
L 972.779199 371.629191 
L 973.807917 372.495082 
L 974.591287 371.759062 
L 972.655836 370.17593 
L 971.178216 369.577678 
L 970.62353 367.404098 
L 970.951562 367.042367 
L 972.389253 371.518815 
L 971.073984 372.754569 
L 973.944108 375.290354 
L 973.48761 373.744642 
L 973.09809 376.165868 
L 974.543224 375.479854 
L 974.599114 372.657344 
L 974.412969 374.676782 
L 976.448992 371.552947 
L 976.256964 372.677972 
L 979.025958 371.549654 
L 980.10671 370.259671 
L 980.895416 379.296012 
L 980.34461 386.158472 
L 979.253083 386.673353 
L 980.992113 391.255922 
L 979.708438 393.740279 
L 981.328559 399.381688 
L 980.812751 407.746692 
L 980.087834 412.578431 
L 985.823755 419.90392 
L 986.962269 428.589551 
L 987.301912 433.854797 
L 987.178366 436.043839 
L 984.891741 440.371528 
L 984.317105 446.759967 
L 982.980448 455.157282 
L 977.366797 460.303218 
L 978.099127 467.389437 
L 977.487855 474.69647 
L 976.725867 477.94419 
L 979.730954 484.141956 
L 979.166171 488.841072 
L 981.923827 493.903908 
L 982.504262 500.910445 
L 982.17498 506.953188 
L 981.802511 521.664879 
L 979.475427 527.610309 
L 979.168258 531.78961 
L 977.988868 537.519512 
L 977.59492 542.998835 
L 977.629218 548.921984 
L 977.629218 548.921984 
" clip-path="url(#p34ac940f8e)" style="fill: none; stroke: #0000ff; stroke-width: 2; stroke-linecap: square"/>
   </g>
   <g id="line2d_25">
    <path d="M 741.057356 749.157003 
L 743.873092 363.448692 
L 641.814997 404.74257 
L 506.447237 349.604286 
L 608.475477 310.216619 
L 743.873092 363.448692 
" clip-path="url(#p34ac940f8e)" style="fill: none; stroke-dasharray: 7.4,3.2; stroke-dashoffset: 0; stroke: #008000; stroke-width: 2"/>
   </g>
   <g id="Path3DCollection_1">
    <path d="M 736.58522 753.629139 
L 745.529492 744.684867 
M 736.58522 744.684867 
L 745.529492 753.629139 
" clip-path="url(#p34ac940f8e)" style="fill-opacity: 0.3; stroke: #000000; stroke-opacity: 0.3; stroke-width: 1.5"/>
    <path d="M 604.003341 314.688755 
L 612.947613 305.744483 
M 604.003341 305.744483 
L 612.947613 314.688755 
" clip-path="url(#p34ac940f8e)" style="fill-opacity: 0.446192; stroke: #000000; stroke-opacity: 0.446192; stroke-width: 1.5"/>
    <path d="M 501.975101 354.076422 
L 510.919373 345.13215 
M 501.975101 345.13215 
L 510.919373 354.076422 
" clip-path="url(#p34ac940f8e)" style="fill-opacity: 0.676956; stroke: #000000; stroke-opacity: 0.676956; stroke-width: 1.5"/>
    <path d="M 739.400956 367.920828 
L 748.345228 358.976556 
M 739.400956 358.976556 
L 748.345228 367.920828 
" clip-path="url(#p34ac940f8e)" style="fill-opacity: 0.758068; stroke: #000000; stroke-opacity: 0.758068; stroke-width: 1.5"/>
    <path d="M 637.342861 409.214706 
L 646.287133 400.270434 
M 637.342861 400.270434 
L 646.287133 409.214706 
" clip-path="url(#p34ac940f8e)" style="stroke: #000000; stroke-width: 1.5"/>
   </g>
   <g id="text_24">
    <!-- Takeoff / Landing -->
    <g transform="translate(741.202686 729.249264) scale(0.14 -0.14)">
     <defs>
      <path id="DejaVuSans-Bold-54" d="M 31 4666 
L 4331 4666 
L 4331 3756 
L 2784 3756 
L 2784 0 
L 1581 0 
L 1581 3756 
L 31 3756 
L 31 4666 
z
" transform="scale(0.015625)"/>
      <path id="DejaVuSans-Bold-61" d="M 2106 1575 
Q 1756 1575 1579 1456 
Q 1403 1338 1403 1106 
Q 1403 894 1545 773 
Q 1688 653 1941 653 
Q 2256 653 2472 879 
Q 2688 1106 2688 1447 
L 2688 1575 
L 2106 1575 
z
M 3816 1997 
L 3816 0 
L 2688 0 
L 2688 519 
Q 2463 200 2181 54 
Q 1900 -91 1497 -91 
Q 953 -91 614 226 
Q 275 544 275 1050 
Q 275 1666 698 1953 
Q 1122 2241 2028 2241 
L 2688 2241 
L 2688 2328 
Q 2688 2594 2478 2717 
Q 2269 2841 1825 2841 
Q 1466 2841 1156 2769 
Q 847 2697 581 2553 
L 581 3406 
Q 941 3494 1303 3539 
Q 1666 3584 2028 3584 
Q 2975 3584 3395 3211 
Q 3816 2838 3816 1997 
z
" transform="scale(0.015625)"/>
      <path id="DejaVuSans-Bold-6b" d="M 538 4863 
L 1656 4863 
L 1656 2216 
L 2944 3500 
L 4244 3500 
L 2534 1894 
L 4378 0 
L 3022 0 
L 1656 1459 
L 1656 0 
L 538 0 
L 538 4863 
z
" transform="scale(0.015625)"/>
      <path id="DejaVuSans-Bold-65" d="M 4031 1759 
L 4031 1441 
L 1416 1441 
Q 1456 1047 1700 850 
Q 1944 653 2381 653 
Q 2734 653 3104 758 
Q 3475 863 3866 1075 
L 3866 213 
Q 3469 63 3072 -14 
Q 2675 -91 2278 -91 
Q 1328 -91 801 392 
Q 275 875 275 1747 
Q 275 2603 792 3093 
Q 1309 3584 2216 3584 
Q 3041 3584 3536 3087 
Q 4031 2591 4031 1759 
z
M 2881 2131 
Q 2881 2450 2695 2645 
Q 2509 2841 2209 2841 
Q 1884 2841 1681 2658 
Q 1478 2475 1428 2131 
L 2881 2131 
z
" transform="scale(0.015625)"/>
      <path id="DejaVuSans-Bold-6f" d="M 2203 2784 
Q 1831 2784 1636 2517 
Q 1441 2250 1441 1747 
Q 1441 1244 1636 976 
Q 1831 709 2203 709 
Q 2569 709 2762 976 
Q 2956 1244 2956 1747 
Q 2956 2250 2762 2517 
Q 2569 2784 2203 2784 
z
M 2203 3584 
Q 3106 3584 3614 3096 
Q 4122 2609 4122 1747 
Q 4122 884 3614 396 
Q 3106 -91 2203 -91 
Q 1297 -91 786 396 
Q 275 884 275 1747 
Q 275 2609 786 3096 
Q 1297 3584 2203 3584 
z
" transform="scale(0.015625)"/>
      <path id="DejaVuSans-Bold-66" d="M 2841 4863 
L 2841 4128 
L 2222 4128 
Q 1984 4128 1890 4042 
Q 1797 3956 1797 3744 
L 1797 3500 
L 2753 3500 
L 2753 2700 
L 1797 2700 
L 1797 0 
L 678 0 
L 678 2700 
L 122 2700 
L 122 3500 
L 678 3500 
L 678 3744 
Q 678 4316 997 4589 
Q 1316 4863 1984 4863 
L 2841 4863 
z
" transform="scale(0.015625)"/>
      <path id="DejaVuSans-Bold-20" transform="scale(0.015625)"/>
      <path id="DejaVuSans-Bold-2f" d="M 1644 4666 
L 2338 4666 
L 691 -594 
L 0 -594 
L 1644 4666 
z
" transform="scale(0.015625)"/>
      <path id="DejaVuSans-Bold-4c" d="M 588 4666 
L 1791 4666 
L 1791 909 
L 3903 909 
L 3903 0 
L 588 0 
L 588 4666 
z
" transform="scale(0.015625)"/>
      <path id="DejaVuSans-Bold-6e" d="M 4056 2131 
L 4056 0 
L 2931 0 
L 2931 347 
L 2931 1631 
Q 2931 2084 2911 2256 
Q 2891 2428 2841 2509 
Q 2775 2619 2662 2680 
Q 2550 2741 2406 2741 
Q 2056 2741 1856 2470 
Q 1656 2200 1656 1722 
L 1656 0 
L 538 0 
L 538 3500 
L 1656 3500 
L 1656 2988 
Q 1909 3294 2193 3439 
Q 2478 3584 2822 3584 
Q 3428 3584 3742 3212 
Q 4056 2841 4056 2131 
z
" transform="scale(0.015625)"/>
      <path id="DejaVuSans-Bold-64" d="M 2919 2988 
L 2919 4863 
L 4044 4863 
L 4044 0 
L 2919 0 
L 2919 506 
Q 2688 197 2409 53 
Q 2131 -91 1766 -91 
Q 1119 -91 703 423 
Q 288 938 288 1747 
Q 288 2556 703 3070 
Q 1119 3584 1766 3584 
Q 2128 3584 2408 3439 
Q 2688 3294 2919 2988 
z
M 2181 722 
Q 2541 722 2730 984 
Q 2919 1247 2919 1747 
Q 2919 2247 2730 2509 
Q 2541 2772 2181 2772 
Q 1825 2772 1636 2509 
Q 1447 2247 1447 1747 
Q 1447 1247 1636 984 
Q 1825 722 2181 722 
z
" transform="scale(0.015625)"/>
      <path id="DejaVuSans-Bold-69" d="M 538 3500 
L 1656 3500 
L 1656 0 
L 538 0 
L 538 3500 
z
M 538 4863 
L 1656 4863 
L 1656 3950 
L 538 3950 
L 538 4863 
z
" transform="scale(0.015625)"/>
      <path id="DejaVuSans-Bold-67" d="M 2919 594 
Q 2688 288 2409 144 
Q 2131 0 1766 0 
Q 1125 0 706 504 
Q 288 1009 288 1791 
Q 288 2575 706 3076 
Q 1125 3578 1766 3578 
Q 2131 3578 2409 3434 
Q 2688 3291 2919 2981 
L 2919 3500 
L 4044 3500 
L 4044 353 
Q 4044 -491 3511 -936 
Q 2978 -1381 1966 -1381 
Q 1638 -1381 1331 -1331 
Q 1025 -1281 716 -1178 
L 716 -306 
Q 1009 -475 1290 -558 
Q 1572 -641 1856 -641 
Q 2406 -641 2662 -400 
Q 2919 -159 2919 353 
L 2919 594 
z
M 2181 2772 
Q 1834 2772 1640 2515 
Q 1447 2259 1447 1791 
Q 1447 1309 1634 1061 
Q 1822 813 2181 813 
Q 2531 813 2725 1069 
Q 2919 1325 2919 1791 
Q 2919 2259 2725 2515 
Q 2531 2772 2181 2772 
z
" transform="scale(0.015625)"/>
     </defs>
     <use xlink:href="#DejaVuSans-Bold-54"/>
     <use xlink:href="#DejaVuSans-Bold-61" transform="translate(55.337891 0)"/>
     <use xlink:href="#DejaVuSans-Bold-6b" transform="translate(122.818359 0)"/>
     <use xlink:href="#DejaVuSans-Bold-65" transform="translate(186.697266 0)"/>
     <use xlink:href="#DejaVuSans-Bold-6f" transform="translate(254.519531 0)"/>
     <use xlink:href="#DejaVuSans-Bold-66" transform="translate(323.220703 0)"/>
     <use xlink:href="#DejaVuSans-Bold-66" transform="translate(366.726562 0)"/>
     <use xlink:href="#DejaVuSans-Bold-20" transform="translate(410.232422 0)"/>
     <use xlink:href="#DejaVuSans-Bold-2f" transform="translate(445.046875 0)"/>
     <use xlink:href="#DejaVuSans-Bold-20" transform="translate(481.570312 0)"/>
     <use xlink:href="#DejaVuSans-Bold-4c" transform="translate(516.384766 0)"/>
     <use xlink:href="#DejaVuSans-Bold-61" transform="translate(580.105469 0)"/>
     <use xlink:href="#DejaVuSans-Bold-6e" transform="translate(647.585938 0)"/>
     <use xlink:href="#DejaVuSans-Bold-64" transform="translate(718.777344 0)"/>
     <use xlink:href="#DejaVuSans-Bold-69" transform="translate(790.359375 0)"/>
     <use xlink:href="#DejaVuSans-Bold-6e" transform="translate(824.636719 0)"/>
     <use xlink:href="#DejaVuSans-Bold-67" transform="translate(895.828125 0)"/>
    </g>
   </g>
   <g id="text_25">
    <!-- Hover / Return-to-Home -->
    <g transform="translate(744.028843 342.113436) scale(0.14 -0.14)">
     <defs>
      <path id="DejaVuSans-Bold-48" d="M 588 4666 
L 1791 4666 
L 1791 2888 
L 3566 2888 
L 3566 4666 
L 4769 4666 
L 4769 0 
L 3566 0 
L 3566 1978 
L 1791 1978 
L 1791 0 
L 588 0 
L 588 4666 
z
" transform="scale(0.015625)"/>
      <path id="DejaVuSans-Bold-76" d="M 97 3500 
L 1216 3500 
L 2088 1081 
L 2956 3500 
L 4078 3500 
L 2700 0 
L 1472 0 
L 97 3500 
z
" transform="scale(0.015625)"/>
      <path id="DejaVuSans-Bold-72" d="M 3138 2547 
Q 2991 2616 2845 2648 
Q 2700 2681 2553 2681 
Q 2122 2681 1889 2404 
Q 1656 2128 1656 1613 
L 1656 0 
L 538 0 
L 538 3500 
L 1656 3500 
L 1656 2925 
Q 1872 3269 2151 3426 
Q 2431 3584 2822 3584 
Q 2878 3584 2943 3579 
Q 3009 3575 3134 3559 
L 3138 2547 
z
" transform="scale(0.015625)"/>
      <path id="DejaVuSans-Bold-52" d="M 2297 2597 
Q 2675 2597 2839 2737 
Q 3003 2878 3003 3200 
Q 3003 3519 2839 3656 
Q 2675 3794 2297 3794 
L 1791 3794 
L 1791 2597 
L 2297 2597 
z
M 1791 1766 
L 1791 0 
L 588 0 
L 588 4666 
L 2425 4666 
Q 3347 4666 3776 4356 
Q 4206 4047 4206 3378 
Q 4206 2916 3982 2619 
Q 3759 2322 3309 2181 
Q 3556 2125 3751 1926 
Q 3947 1728 4147 1325 
L 4800 0 
L 3519 0 
L 2950 1159 
Q 2778 1509 2601 1637 
Q 2425 1766 2131 1766 
L 1791 1766 
z
" transform="scale(0.015625)"/>
      <path id="DejaVuSans-Bold-74" d="M 1759 4494 
L 1759 3500 
L 2913 3500 
L 2913 2700 
L 1759 2700 
L 1759 1216 
Q 1759 972 1856 886 
Q 1953 800 2241 800 
L 2816 800 
L 2816 0 
L 1856 0 
Q 1194 0 917 276 
Q 641 553 641 1216 
L 641 2700 
L 84 2700 
L 84 3500 
L 641 3500 
L 641 4494 
L 1759 4494 
z
" transform="scale(0.015625)"/>
      <path id="DejaVuSans-Bold-75" d="M 500 1363 
L 500 3500 
L 1625 3500 
L 1625 3150 
Q 1625 2866 1622 2436 
Q 1619 2006 1619 1863 
Q 1619 1441 1641 1255 
Q 1663 1069 1716 984 
Q 1784 875 1895 815 
Q 2006 756 2150 756 
Q 2500 756 2700 1025 
Q 2900 1294 2900 1772 
L 2900 3500 
L 4019 3500 
L 4019 0 
L 2900 0 
L 2900 506 
Q 2647 200 2364 54 
Q 2081 -91 1741 -91 
Q 1134 -91 817 281 
Q 500 653 500 1363 
z
" transform="scale(0.015625)"/>
      <path id="DejaVuSans-Bold-2d" d="M 347 2297 
L 2309 2297 
L 2309 1388 
L 347 1388 
L 347 2297 
z
" transform="scale(0.015625)"/>
      <path id="DejaVuSans-Bold-6d" d="M 3781 2919 
Q 3994 3244 4286 3414 
Q 4578 3584 4928 3584 
Q 5531 3584 5847 3212 
Q 6163 2841 6163 2131 
L 6163 0 
L 5038 0 
L 5038 1825 
Q 5041 1866 5042 1909 
Q 5044 1953 5044 2034 
Q 5044 2406 4934 2573 
Q 4825 2741 4581 2741 
Q 4263 2741 4089 2478 
Q 3916 2216 3909 1719 
L 3909 0 
L 2784 0 
L 2784 1825 
Q 2784 2406 2684 2573 
Q 2584 2741 2328 2741 
Q 2006 2741 1831 2477 
Q 1656 2213 1656 1722 
L 1656 0 
L 531 0 
L 531 3500 
L 1656 3500 
L 1656 2988 
Q 1863 3284 2130 3434 
Q 2397 3584 2719 3584 
Q 3081 3584 3359 3409 
Q 3638 3234 3781 2919 
z
" transform="scale(0.015625)"/>
     </defs>
     <use xlink:href="#DejaVuSans-Bold-48"/>
     <use xlink:href="#DejaVuSans-Bold-6f" transform="translate(83.691406 0)"/>
     <use xlink:href="#DejaVuSans-Bold-76" transform="translate(152.392578 0)"/>
     <use xlink:href="#DejaVuSans-Bold-65" transform="translate(217.578125 0)"/>
     <use xlink:href="#DejaVuSans-Bold-72" transform="translate(285.400391 0)"/>
     <use xlink:href="#DejaVuSans-Bold-20" transform="translate(334.716797 0)"/>
     <use xlink:href="#DejaVuSans-Bold-2f" transform="translate(369.53125 0)"/>
     <use xlink:href="#DejaVuSans-Bold-20" transform="translate(406.054688 0)"/>
     <use xlink:href="#DejaVuSans-Bold-52" transform="translate(440.869141 0)"/>
     <use xlink:href="#DejaVuSans-Bold-65" transform="translate(517.871094 0)"/>
     <use xlink:href="#DejaVuSans-Bold-74" transform="translate(585.693359 0)"/>
     <use xlink:href="#DejaVuSans-Bold-75" transform="translate(633.496094 0)"/>
     <use xlink:href="#DejaVuSans-Bold-72" transform="translate(704.6875 0)"/>
     <use xlink:href="#DejaVuSans-Bold-6e" transform="translate(754.003906 0)"/>
     <use xlink:href="#DejaVuSans-Bold-2d" transform="translate(825.195312 0)"/>
     <use xlink:href="#DejaVuSans-Bold-74" transform="translate(866.699219 0)"/>
     <use xlink:href="#DejaVuSans-Bold-6f" transform="translate(914.501953 0)"/>
     <use xlink:href="#DejaVuSans-Bold-2d" transform="translate(983.203125 0)"/>
     <use xlink:href="#DejaVuSans-Bold-48" transform="translate(1024.707031 0)"/>
     <use xlink:href="#DejaVuSans-Bold-6f" transform="translate(1108.398438 0)"/>
     <use xlink:href="#DejaVuSans-Bold-6d" transform="translate(1177.099609 0)"/>
     <use xlink:href="#DejaVuSans-Bold-65" transform="translate(1281.298828 0)"/>
    </g>
   </g>
   <g id="text_26">
    <!-- Coord 1 -->
    <g transform="translate(641.778142 383.10249) scale(0.14 -0.14)">
     <defs>
      <path id="DejaVuSans-Bold-43" d="M 4288 256 
Q 3956 84 3597 -3 
Q 3238 -91 2847 -91 
Q 1681 -91 1000 561 
Q 319 1213 319 2328 
Q 319 3447 1000 4098 
Q 1681 4750 2847 4750 
Q 3238 4750 3597 4662 
Q 3956 4575 4288 4403 
L 4288 3438 
Q 3953 3666 3628 3772 
Q 3303 3878 2944 3878 
Q 2300 3878 1931 3465 
Q 1563 3053 1563 2328 
Q 1563 1606 1931 1193 
Q 2300 781 2944 781 
Q 3303 781 3628 887 
Q 3953 994 4288 1222 
L 4288 256 
z
" transform="scale(0.015625)"/>
      <path id="DejaVuSans-Bold-31" d="M 750 831 
L 1813 831 
L 1813 3847 
L 722 3622 
L 722 4441 
L 1806 4666 
L 2950 4666 
L 2950 831 
L 4013 831 
L 4013 0 
L 750 0 
L 750 831 
z
" transform="scale(0.015625)"/>
     </defs>
     <use xlink:href="#DejaVuSans-Bold-43"/>
     <use xlink:href="#DejaVuSans-Bold-6f" transform="translate(73.388672 0)"/>
     <use xlink:href="#DejaVuSans-Bold-6f" transform="translate(142.089844 0)"/>
     <use xlink:href="#DejaVuSans-Bold-72" transform="translate(210.791016 0)"/>
     <use xlink:href="#DejaVuSans-Bold-64" transform="translate(260.107422 0)"/>
     <use xlink:href="#DejaVuSans-Bold-20" transform="translate(331.689453 0)"/>
     <use xlink:href="#DejaVuSans-Bold-31" transform="translate(366.503906 0)"/>
    </g>
   </g>
   <g id="text_27">
    <!-- Coord 2 -->
    <g transform="translate(506.158182 328.371847) scale(0.14 -0.14)">
     <defs>
      <path id="DejaVuSans-Bold-32" d="M 1844 884 
L 3897 884 
L 3897 0 
L 506 0 
L 506 884 
L 2209 2388 
Q 2438 2594 2547 2791 
Q 2656 2988 2656 3200 
Q 2656 3528 2436 3728 
Q 2216 3928 1850 3928 
Q 1569 3928 1234 3808 
Q 900 3688 519 3450 
L 519 4475 
Q 925 4609 1322 4679 
Q 1719 4750 2100 4750 
Q 2938 4750 3402 4381 
Q 3866 4013 3866 3353 
Q 3866 2972 3669 2642 
Q 3472 2313 2841 1759 
L 1844 884 
z
" transform="scale(0.015625)"/>
     </defs>
     <use xlink:href="#DejaVuSans-Bold-43"/>
     <use xlink:href="#DejaVuSans-Bold-6f" transform="translate(73.388672 0)"/>
     <use xlink:href="#DejaVuSans-Bold-6f" transform="translate(142.089844 0)"/>
     <use xlink:href="#DejaVuSans-Bold-72" transform="translate(210.791016 0)"/>
     <use xlink:href="#DejaVuSans-Bold-64" transform="translate(260.107422 0)"/>
     <use xlink:href="#DejaVuSans-Bold-20" transform="translate(331.689453 0)"/>
     <use xlink:href="#DejaVuSans-Bold-32" transform="translate(366.503906 0)"/>
    </g>
   </g>
   <g id="text_28">
    <!-- Coord 3 -->
    <g transform="translate(608.378861 289.278398) scale(0.14 -0.14)">
     <defs>
      <path id="DejaVuSans-Bold-33" d="M 2981 2516 
Q 3453 2394 3698 2092 
Q 3944 1791 3944 1325 
Q 3944 631 3412 270 
Q 2881 -91 1863 -91 
Q 1503 -91 1142 -33 
Q 781 25 428 141 
L 428 1069 
Q 766 900 1098 814 
Q 1431 728 1753 728 
Q 2231 728 2486 893 
Q 2741 1059 2741 1369 
Q 2741 1688 2480 1852 
Q 2219 2016 1709 2016 
L 1228 2016 
L 1228 2791 
L 1734 2791 
Q 2188 2791 2409 2933 
Q 2631 3075 2631 3366 
Q 2631 3634 2415 3781 
Q 2200 3928 1806 3928 
Q 1516 3928 1219 3862 
Q 922 3797 628 3669 
L 628 4550 
Q 984 4650 1334 4700 
Q 1684 4750 2022 4750 
Q 2931 4750 3382 4451 
Q 3834 4153 3834 3553 
Q 3834 3144 3618 2883 
Q 3403 2622 2981 2516 
z
" transform="scale(0.015625)"/>
     </defs>
     <use xlink:href="#DejaVuSans-Bold-43"/>
     <use xlink:href="#DejaVuSans-Bold-6f" transform="translate(73.388672 0)"/>
     <use xlink:href="#DejaVuSans-Bold-6f" transform="translate(142.089844 0)"/>
     <use xlink:href="#DejaVuSans-Bold-72" transform="translate(210.791016 0)"/>
     <use xlink:href="#DejaVuSans-Bold-64" transform="translate(260.107422 0)"/>
     <use xlink:href="#DejaVuSans-Bold-20" transform="translate(331.689453 0)"/>
     <use xlink:href="#DejaVuSans-Bold-33" transform="translate(366.503906 0)"/>
    </g>
   </g>
   <g id="text_29">
    <!-- 3D Flight Visualization: State Estimate Flight Path vs. Ideal -->
    <g transform="translate(384.201563 24.48) scale(0.18 -0.18)">
     <defs>
      <path id="DejaVuSans-33" d="M 2597 2516 
Q 3050 2419 3304 2112 
Q 3559 1806 3559 1356 
Q 3559 666 3084 287 
Q 2609 -91 1734 -91 
Q 1441 -91 1130 -33 
Q 819 25 488 141 
L 488 750 
Q 750 597 1062 519 
Q 1375 441 1716 441 
Q 2309 441 2620 675 
Q 2931 909 2931 1356 
Q 2931 1769 2642 2001 
Q 2353 2234 1838 2234 
L 1294 2234 
L 1294 2753 
L 1863 2753 
Q 2328 2753 2575 2939 
Q 2822 3125 2822 3475 
Q 2822 3834 2567 4026 
Q 2313 4219 1838 4219 
Q 1578 4219 1281 4162 
Q 984 4106 628 3988 
L 628 4550 
Q 988 4650 1302 4700 
Q 1616 4750 1894 4750 
Q 2613 4750 3031 4423 
Q 3450 4097 3450 3541 
Q 3450 3153 3228 2886 
Q 3006 2619 2597 2516 
z
" transform="scale(0.015625)"/>
      <path id="DejaVuSans-44" d="M 1259 4147 
L 1259 519 
L 2022 519 
Q 2988 519 3436 956 
Q 3884 1394 3884 2338 
Q 3884 3275 3436 3711 
Q 2988 4147 2022 4147 
L 1259 4147 
z
M 628 4666 
L 1925 4666 
Q 3281 4666 3915 4102 
Q 4550 3538 4550 2338 
Q 4550 1131 3912 565 
Q 3275 0 1925 0 
L 628 0 
L 628 4666 
z
" transform="scale(0.015625)"/>
      <path id="DejaVuSans-46" d="M 628 4666 
L 3309 4666 
L 3309 4134 
L 1259 4134 
L 1259 2759 
L 3109 2759 
L 3109 2228 
L 1259 2228 
L 1259 0 
L 628 0 
L 628 4666 
z
" transform="scale(0.015625)"/>
      <path id="DejaVuSans-6c" d="M 603 4863 
L 1178 4863 
L 1178 0 
L 603 0 
L 603 4863 
z
" transform="scale(0.015625)"/>
      <path id="DejaVuSans-69" d="M 603 3500 
L 1178 3500 
L 1178 0 
L 603 0 
L 603 3500 
z
M 603 4863 
L 1178 4863 
L 1178 4134 
L 603 4134 
L 603 4863 
z
" transform="scale(0.015625)"/>
      <path id="DejaVuSans-67" d="M 2906 1791 
Q 2906 2416 2648 2759 
Q 2391 3103 1925 3103 
Q 1463 3103 1205 2759 
Q 947 2416 947 1791 
Q 947 1169 1205 825 
Q 1463 481 1925 481 
Q 2391 481 2648 825 
Q 2906 1169 2906 1791 
z
M 3481 434 
Q 3481 -459 3084 -895 
Q 2688 -1331 1869 -1331 
Q 1566 -1331 1297 -1286 
Q 1028 -1241 775 -1147 
L 775 -588 
Q 1028 -725 1275 -790 
Q 1522 -856 1778 -856 
Q 2344 -856 2625 -561 
Q 2906 -266 2906 331 
L 2906 616 
Q 2728 306 2450 153 
Q 2172 0 1784 0 
Q 1141 0 747 490 
Q 353 981 353 1791 
Q 353 2603 747 3093 
Q 1141 3584 1784 3584 
Q 2172 3584 2450 3431 
Q 2728 3278 2906 2969 
L 2906 3500 
L 3481 3500 
L 3481 434 
z
" transform="scale(0.015625)"/>
      <path id="DejaVuSans-68" d="M 3513 2113 
L 3513 0 
L 2938 0 
L 2938 2094 
Q 2938 2591 2744 2837 
Q 2550 3084 2163 3084 
Q 1697 3084 1428 2787 
Q 1159 2491 1159 1978 
L 1159 0 
L 581 0 
L 581 4863 
L 1159 4863 
L 1159 2956 
Q 1366 3272 1645 3428 
Q 1925 3584 2291 3584 
Q 2894 3584 3203 3211 
Q 3513 2838 3513 2113 
z
" transform="scale(0.015625)"/>
      <path id="DejaVuSans-74" d="M 1172 4494 
L 1172 3500 
L 2356 3500 
L 2356 3053 
L 1172 3053 
L 1172 1153 
Q 1172 725 1289 603 
Q 1406 481 1766 481 
L 2356 481 
L 2356 0 
L 1766 0 
Q 1100 0 847 248 
Q 594 497 594 1153 
L 594 3053 
L 172 3053 
L 172 3500 
L 594 3500 
L 594 4494 
L 1172 4494 
z
" transform="scale(0.015625)"/>
      <path id="DejaVuSans-56" d="M 1831 0 
L 50 4666 
L 709 4666 
L 2188 738 
L 3669 4666 
L 4325 4666 
L 2547 0 
L 1831 0 
z
" transform="scale(0.015625)"/>
      <path id="DejaVuSans-73" d="M 2834 3397 
L 2834 2853 
Q 2591 2978 2328 3040 
Q 2066 3103 1784 3103 
Q 1356 3103 1142 2972 
Q 928 2841 928 2578 
Q 928 2378 1081 2264 
Q 1234 2150 1697 2047 
L 1894 2003 
Q 2506 1872 2764 1633 
Q 3022 1394 3022 966 
Q 3022 478 2636 193 
Q 2250 -91 1575 -91 
Q 1294 -91 989 -36 
Q 684 19 347 128 
L 347 722 
Q 666 556 975 473 
Q 1284 391 1588 391 
Q 1994 391 2212 530 
Q 2431 669 2431 922 
Q 2431 1156 2273 1281 
Q 2116 1406 1581 1522 
L 1381 1569 
Q 847 1681 609 1914 
Q 372 2147 372 2553 
Q 372 3047 722 3315 
Q 1072 3584 1716 3584 
Q 2034 3584 2315 3537 
Q 2597 3491 2834 3397 
z
" transform="scale(0.015625)"/>
      <path id="DejaVuSans-75" d="M 544 1381 
L 544 3500 
L 1119 3500 
L 1119 1403 
Q 1119 906 1312 657 
Q 1506 409 1894 409 
Q 2359 409 2629 706 
Q 2900 1003 2900 1516 
L 2900 3500 
L 3475 3500 
L 3475 0 
L 2900 0 
L 2900 538 
Q 2691 219 2414 64 
Q 2138 -91 1772 -91 
Q 1169 -91 856 284 
Q 544 659 544 1381 
z
M 1991 3584 
L 1991 3584 
z
" transform="scale(0.015625)"/>
      <path id="DejaVuSans-61" d="M 2194 1759 
Q 1497 1759 1228 1600 
Q 959 1441 959 1056 
Q 959 750 1161 570 
Q 1363 391 1709 391 
Q 2188 391 2477 730 
Q 2766 1069 2766 1631 
L 2766 1759 
L 2194 1759 
z
M 3341 1997 
L 3341 0 
L 2766 0 
L 2766 531 
Q 2569 213 2275 61 
Q 1981 -91 1556 -91 
Q 1019 -91 701 211 
Q 384 513 384 1019 
Q 384 1609 779 1909 
Q 1175 2209 1959 2209 
L 2766 2209 
L 2766 2266 
Q 2766 2663 2505 2880 
Q 2244 3097 1772 3097 
Q 1472 3097 1187 3025 
Q 903 2953 641 2809 
L 641 3341 
Q 956 3463 1253 3523 
Q 1550 3584 1831 3584 
Q 2591 3584 2966 3190 
Q 3341 2797 3341 1997 
z
" transform="scale(0.015625)"/>
      <path id="DejaVuSans-7a" d="M 353 3500 
L 3084 3500 
L 3084 2975 
L 922 459 
L 3084 459 
L 3084 0 
L 275 0 
L 275 525 
L 2438 3041 
L 353 3041 
L 353 3500 
z
" transform="scale(0.015625)"/>
      <path id="DejaVuSans-6f" d="M 1959 3097 
Q 1497 3097 1228 2736 
Q 959 2375 959 1747 
Q 959 1119 1226 758 
Q 1494 397 1959 397 
Q 2419 397 2687 759 
Q 2956 1122 2956 1747 
Q 2956 2369 2687 2733 
Q 2419 3097 1959 3097 
z
M 1959 3584 
Q 2709 3584 3137 3096 
Q 3566 2609 3566 1747 
Q 3566 888 3137 398 
Q 2709 -91 1959 -91 
Q 1206 -91 779 398 
Q 353 888 353 1747 
Q 353 2609 779 3096 
Q 1206 3584 1959 3584 
z
" transform="scale(0.015625)"/>
      <path id="DejaVuSans-6e" d="M 3513 2113 
L 3513 0 
L 2938 0 
L 2938 2094 
Q 2938 2591 2744 2837 
Q 2550 3084 2163 3084 
Q 1697 3084 1428 2787 
Q 1159 2491 1159 1978 
L 1159 0 
L 581 0 
L 581 3500 
L 1159 3500 
L 1159 2956 
Q 1366 3272 1645 3428 
Q 1925 3584 2291 3584 
Q 2894 3584 3203 3211 
Q 3513 2838 3513 2113 
z
" transform="scale(0.015625)"/>
      <path id="DejaVuSans-3a" d="M 750 794 
L 1409 794 
L 1409 0 
L 750 0 
L 750 794 
z
M 750 3309 
L 1409 3309 
L 1409 2516 
L 750 2516 
L 750 3309 
z
" transform="scale(0.015625)"/>
      <path id="DejaVuSans-53" d="M 3425 4513 
L 3425 3897 
Q 3066 4069 2747 4153 
Q 2428 4238 2131 4238 
Q 1616 4238 1336 4038 
Q 1056 3838 1056 3469 
Q 1056 3159 1242 3001 
Q 1428 2844 1947 2747 
L 2328 2669 
Q 3034 2534 3370 2195 
Q 3706 1856 3706 1288 
Q 3706 609 3251 259 
Q 2797 -91 1919 -91 
Q 1588 -91 1214 -16 
Q 841 59 441 206 
L 441 856 
Q 825 641 1194 531 
Q 1563 422 1919 422 
Q 2459 422 2753 634 
Q 3047 847 3047 1241 
Q 3047 1584 2836 1778 
Q 2625 1972 2144 2069 
L 1759 2144 
Q 1053 2284 737 2584 
Q 422 2884 422 3419 
Q 422 4038 858 4394 
Q 1294 4750 2059 4750 
Q 2388 4750 2728 4690 
Q 3069 4631 3425 4513 
z
" transform="scale(0.015625)"/>
      <path id="DejaVuSans-65" d="M 3597 1894 
L 3597 1613 
L 953 1613 
Q 991 1019 1311 708 
Q 1631 397 2203 397 
Q 2534 397 2845 478 
Q 3156 559 3463 722 
L 3463 178 
Q 3153 47 2828 -22 
Q 2503 -91 2169 -91 
Q 1331 -91 842 396 
Q 353 884 353 1716 
Q 353 2575 817 3079 
Q 1281 3584 2069 3584 
Q 2775 3584 3186 3129 
Q 3597 2675 3597 1894 
z
M 3022 2063 
Q 3016 2534 2758 2815 
Q 2500 3097 2075 3097 
Q 1594 3097 1305 2825 
Q 1016 2553 972 2059 
L 3022 2063 
z
" transform="scale(0.015625)"/>
      <path id="DejaVuSans-45" d="M 628 4666 
L 3578 4666 
L 3578 4134 
L 1259 4134 
L 1259 2753 
L 3481 2753 
L 3481 2222 
L 1259 2222 
L 1259 531 
L 3634 531 
L 3634 0 
L 628 0 
L 628 4666 
z
" transform="scale(0.015625)"/>
      <path id="DejaVuSans-50" d="M 1259 4147 
L 1259 2394 
L 2053 2394 
Q 2494 2394 2734 2622 
Q 2975 2850 2975 3272 
Q 2975 3691 2734 3919 
Q 2494 4147 2053 4147 
L 1259 4147 
z
M 628 4666 
L 2053 4666 
Q 2838 4666 3239 4311 
Q 3641 3956 3641 3272 
Q 3641 2581 3239 2228 
Q 2838 1875 2053 1875 
L 1259 1875 
L 1259 0 
L 628 0 
L 628 4666 
z
" transform="scale(0.015625)"/>
      <path id="DejaVuSans-76" d="M 191 3500 
L 800 3500 
L 1894 563 
L 2988 3500 
L 3597 3500 
L 2284 0 
L 1503 0 
L 191 3500 
z
" transform="scale(0.015625)"/>
      <path id="DejaVuSans-49" d="M 628 4666 
L 1259 4666 
L 1259 0 
L 628 0 
L 628 4666 
z
" transform="scale(0.015625)"/>
      <path id="DejaVuSans-64" d="M 2906 2969 
L 2906 4863 
L 3481 4863 
L 3481 0 
L 2906 0 
L 2906 525 
Q 2725 213 2448 61 
Q 2172 -91 1784 -91 
Q 1150 -91 751 415 
Q 353 922 353 1747 
Q 353 2572 751 3078 
Q 1150 3584 1784 3584 
Q 2172 3584 2448 3432 
Q 2725 3281 2906 2969 
z
M 947 1747 
Q 947 1113 1208 752 
Q 1469 391 1925 391 
Q 2381 391 2643 752 
Q 2906 1113 2906 1747 
Q 2906 2381 2643 2742 
Q 2381 3103 1925 3103 
Q 1469 3103 1208 2742 
Q 947 2381 947 1747 
z
" transform="scale(0.015625)"/>
     </defs>
     <use xlink:href="#DejaVuSans-33"/>
     <use xlink:href="#DejaVuSans-44" transform="translate(63.623047 0)"/>
     <use xlink:href="#DejaVuSans-20" transform="translate(140.625 0)"/>
     <use xlink:href="#DejaVuSans-46" transform="translate(172.412109 0)"/>
     <use xlink:href="#DejaVuSans-6c" transform="translate(229.931641 0)"/>
     <use xlink:href="#DejaVuSans-69" transform="translate(257.714844 0)"/>
     <use xlink:href="#DejaVuSans-67" transform="translate(285.498047 0)"/>
     <use xlink:href="#DejaVuSans-68" transform="translate(348.974609 0)"/>
     <use xlink:href="#DejaVuSans-74" transform="translate(412.353516 0)"/>
     <use xlink:href="#DejaVuSans-20" transform="translate(451.5625 0)"/>
     <use xlink:href="#DejaVuSans-56" transform="translate(483.349609 0)"/>
     <use xlink:href="#DejaVuSans-69" transform="translate(549.507812 0)"/>
     <use xlink:href="#DejaVuSans-73" transform="translate(577.291016 0)"/>
     <use xlink:href="#DejaVuSans-75" transform="translate(629.390625 0)"/>
     <use xlink:href="#DejaVuSans-61" transform="translate(692.769531 0)"/>
     <use xlink:href="#DejaVuSans-6c" transform="translate(754.048828 0)"/>
     <use xlink:href="#DejaVuSans-69" transform="translate(781.832031 0)"/>
     <use xlink:href="#DejaVuSans-7a" transform="translate(809.615234 0)"/>
     <use xlink:href="#DejaVuSans-61" transform="translate(862.105469 0)"/>
     <use xlink:href="#DejaVuSans-74" transform="translate(923.384766 0)"/>
     <use xlink:href="#DejaVuSans-69" transform="translate(962.59375 0)"/>
     <use xlink:href="#DejaVuSans-6f" transform="translate(990.376953 0)"/>
     <use xlink:href="#DejaVuSans-6e" transform="translate(1051.558594 0)"/>
     <use xlink:href="#DejaVuSans-3a" transform="translate(1114.9375 0)"/>
     <use xlink:href="#DejaVuSans-20" transform="translate(1148.628906 0)"/>
     <use xlink:href="#DejaVuSans-53" transform="translate(1180.416016 0)"/>
     <use xlink:href="#DejaVuSans-74" transform="translate(1243.892578 0)"/>
     <use xlink:href="#DejaVuSans-61" transform="translate(1283.101562 0)"/>
     <use xlink:href="#DejaVuSans-74" transform="translate(1344.380859 0)"/>
     <use xlink:href="#DejaVuSans-65" transform="translate(1383.589844 0)"/>
     <use xlink:href="#DejaVuSans-20" transform="translate(1445.113281 0)"/>
     <use xlink:href="#DejaVuSans-45" transform="translate(1476.900391 0)"/>
     <use xlink:href="#DejaVuSans-73" transform="translate(1540.083984 0)"/>
     <use xlink:href="#DejaVuSans-74" transform="translate(1592.183594 0)"/>
     <use xlink:href="#DejaVuSans-69" transform="translate(1631.392578 0)"/>
     <use xlink:href="#DejaVuSans-6d" transform="translate(1659.175781 0)"/>
     <use xlink:href="#DejaVuSans-61" transform="translate(1756.587891 0)"/>
     <use xlink:href="#DejaVuSans-74" transform="translate(1817.867188 0)"/>
     <use xlink:href="#DejaVuSans-65" transform="translate(1857.076172 0)"/>
     <use xlink:href="#DejaVuSans-20" transform="translate(1918.599609 0)"/>
     <use xlink:href="#DejaVuSans-46" transform="translate(1950.386719 0)"/>
     <use xlink:href="#DejaVuSans-6c" transform="translate(2007.90625 0)"/>
     <use xlink:href="#DejaVuSans-69" transform="translate(2035.689453 0)"/>
     <use xlink:href="#DejaVuSans-67" transform="translate(2063.472656 0)"/>
     <use xlink:href="#DejaVuSans-68" transform="translate(2126.949219 0)"/>
     <use xlink:href="#DejaVuSans-74" transform="translate(2190.328125 0)"/>
     <use xlink:href="#DejaVuSans-20" transform="translate(2229.537109 0)"/>
     <use xlink:href="#DejaVuSans-50" transform="translate(2261.324219 0)"/>
     <use xlink:href="#DejaVuSans-61" transform="translate(2317.126953 0)"/>
     <use xlink:href="#DejaVuSans-74" transform="translate(2378.40625 0)"/>
     <use xlink:href="#DejaVuSans-68" transform="translate(2417.615234 0)"/>
     <use xlink:href="#DejaVuSans-20" transform="translate(2480.994141 0)"/>
     <use xlink:href="#DejaVuSans-76" transform="translate(2512.78125 0)"/>
     <use xlink:href="#DejaVuSans-73" transform="translate(2571.960938 0)"/>
     <use xlink:href="#DejaVuSans-2e" transform="translate(2624.060547 0)"/>
     <use xlink:href="#DejaVuSans-20" transform="translate(2655.847656 0)"/>
     <use xlink:href="#DejaVuSans-49" transform="translate(2687.634766 0)"/>
     <use xlink:href="#DejaVuSans-64" transform="translate(2717.126953 0)"/>
     <use xlink:href="#DejaVuSans-65" transform="translate(2780.603516 0)"/>
     <use xlink:href="#DejaVuSans-61" transform="translate(2842.126953 0)"/>
     <use xlink:href="#DejaVuSans-6c" transform="translate(2903.40625 0)"/>
    </g>
   </g>
   <g id="legend_1">
    <g id="patch_6">
     <path d="M 928.49625 75.3075 
L 1122.96 75.3075 
Q 1125.36 75.3075 1125.36 72.9075 
L 1125.36 38.88 
Q 1125.36 36.48 1122.96 36.48 
L 928.49625 36.48 
Q 926.09625 36.48 926.09625 38.88 
L 926.09625 72.9075 
Q 926.09625 75.3075 928.49625 75.3075 
z
" style="fill: #ffffff; opacity: 0.8; stroke: #cccccc; stroke-linejoin: miter"/>
    </g>
    <g id="line2d_26">
     <path d="M 930.89625 46.198125 
L 942.89625 46.198125 
L 954.89625 46.198125 
" style="fill: none; stroke: #0000ff; stroke-width: 2; stroke-linecap: square"/>
    </g>
    <g id="text_30">
     <!-- State Estimate Flight Path -->
     <g transform="translate(964.49625 50.398125) scale(0.12 -0.12)">
      <use xlink:href="#DejaVuSans-53"/>
      <use xlink:href="#DejaVuSans-74" transform="translate(63.476562 0)"/>
      <use xlink:href="#DejaVuSans-61" transform="translate(102.685547 0)"/>
      <use xlink:href="#DejaVuSans-74" transform="translate(163.964844 0)"/>
      <use xlink:href="#DejaVuSans-65" transform="translate(203.173828 0)"/>
      <use xlink:href="#DejaVuSans-20" transform="translate(264.697266 0)"/>
      <use xlink:href="#DejaVuSans-45" transform="translate(296.484375 0)"/>
      <use xlink:href="#DejaVuSans-73" transform="translate(359.667969 0)"/>
      <use xlink:href="#DejaVuSans-74" transform="translate(411.767578 0)"/>
      <use xlink:href="#DejaVuSans-69" transform="translate(450.976562 0)"/>
      <use xlink:href="#DejaVuSans-6d" transform="translate(478.759766 0)"/>
      <use xlink:href="#DejaVuSans-61" transform="translate(576.171875 0)"/>
      <use xlink:href="#DejaVuSans-74" transform="translate(637.451172 0)"/>
      <use xlink:href="#DejaVuSans-65" transform="translate(676.660156 0)"/>
      <use xlink:href="#DejaVuSans-20" transform="translate(738.183594 0)"/>
      <use xlink:href="#DejaVuSans-46" transform="translate(769.970703 0)"/>
      <use xlink:href="#DejaVuSans-6c" transform="translate(827.490234 0)"/>
      <use xlink:href="#DejaVuSans-69" transform="translate(855.273438 0)"/>
      <use xlink:href="#DejaVuSans-67" transform="translate(883.056641 0)"/>
      <use xlink:href="#DejaVuSans-68" transform="translate(946.533203 0)"/>
      <use xlink:href="#DejaVuSans-74" transform="translate(1009.912109 0)"/>
      <use xlink:href="#DejaVuSans-20" transform="translate(1049.121094 0)"/>
      <use xlink:href="#DejaVuSans-50" transform="translate(1080.908203 0)"/>
      <use xlink:href="#DejaVuSans-61" transform="translate(1136.710938 0)"/>
      <use xlink:href="#DejaVuSans-74" transform="translate(1197.990234 0)"/>
      <use xlink:href="#DejaVuSans-68" transform="translate(1237.199219 0)"/>
     </g>
    </g>
    <g id="line2d_27">
     <path d="M 930.89625 63.811875 
L 942.89625 63.811875 
L 954.89625 63.811875 
" style="fill: none; stroke-dasharray: 7.4,3.2; stroke-dashoffset: 0; stroke: #008000; stroke-width: 2"/>
    </g>
    <g id="text_31">
     <!-- Ideal Waypoints Path -->
     <g transform="translate(964.49625 68.011875) scale(0.12 -0.12)">
      <defs>
       <path id="DejaVuSans-57" d="M 213 4666 
L 850 4666 
L 1831 722 
L 2809 4666 
L 3519 4666 
L 4500 722 
L 5478 4666 
L 6119 4666 
L 4947 0 
L 4153 0 
L 3169 4050 
L 2175 0 
L 1381 0 
L 213 4666 
z
" transform="scale(0.015625)"/>
       <path id="DejaVuSans-79" d="M 2059 -325 
Q 1816 -950 1584 -1140 
Q 1353 -1331 966 -1331 
L 506 -1331 
L 506 -850 
L 844 -850 
Q 1081 -850 1212 -737 
Q 1344 -625 1503 -206 
L 1606 56 
L 191 3500 
L 800 3500 
L 1894 763 
L 2988 3500 
L 3597 3500 
L 2059 -325 
z
" transform="scale(0.015625)"/>
       <path id="DejaVuSans-70" d="M 1159 525 
L 1159 -1331 
L 581 -1331 
L 581 3500 
L 1159 3500 
L 1159 2969 
Q 1341 3281 1617 3432 
Q 1894 3584 2278 3584 
Q 2916 3584 3314 3078 
Q 3713 2572 3713 1747 
Q 3713 922 3314 415 
Q 2916 -91 2278 -91 
Q 1894 -91 1617 61 
Q 1341 213 1159 525 
z
M 3116 1747 
Q 3116 2381 2855 2742 
Q 2594 3103 2138 3103 
Q 1681 3103 1420 2742 
Q 1159 2381 1159 1747 
Q 1159 1113 1420 752 
Q 1681 391 2138 391 
Q 2594 391 2855 752 
Q 3116 1113 3116 1747 
z
" transform="scale(0.015625)"/>
      </defs>
      <use xlink:href="#DejaVuSans-49"/>
      <use xlink:href="#DejaVuSans-64" transform="translate(29.492188 0)"/>
      <use xlink:href="#DejaVuSans-65" transform="translate(92.96875 0)"/>
      <use xlink:href="#DejaVuSans-61" transform="translate(154.492188 0)"/>
      <use xlink:href="#DejaVuSans-6c" transform="translate(215.771484 0)"/>
      <use xlink:href="#DejaVuSans-20" transform="translate(243.554688 0)"/>
      <use xlink:href="#DejaVuSans-57" transform="translate(275.341797 0)"/>
      <use xlink:href="#DejaVuSans-61" transform="translate(367.84375 0)"/>
      <use xlink:href="#DejaVuSans-79" transform="translate(429.123047 0)"/>
      <use xlink:href="#DejaVuSans-70" transform="translate(488.302734 0)"/>
      <use xlink:href="#DejaVuSans-6f" transform="translate(551.779297 0)"/>
      <use xlink:href="#DejaVuSans-69" transform="translate(612.960938 0)"/>
      <use xlink:href="#DejaVuSans-6e" transform="translate(640.744141 0)"/>
      <use xlink:href="#DejaVuSans-74" transform="translate(704.123047 0)"/>
      <use xlink:href="#DejaVuSans-73" transform="translate(743.332031 0)"/>
      <use xlink:href="#DejaVuSans-20" transform="translate(795.431641 0)"/>
      <use xlink:href="#DejaVuSans-50" transform="translate(827.21875 0)"/>
      <use xlink:href="#DejaVuSans-61" transform="translate(883.021484 0)"/>
      <use xlink:href="#DejaVuSans-74" transform="translate(944.300781 0)"/>
      <use xlink:href="#DejaVuSans-68" transform="translate(983.509766 0)"/>
     </g>
    </g>
   </g>
  </g>
 </g>
 <defs>
  <clipPath id="p34ac940f8e">
   <rect x="164.64" y="30.48" width="966.72" height="966.72"/>
  </clipPath>
 </defs>
</svg>
