<?xml version="1.0" encoding="utf-8" standalone="no"?>
<!DOCTYPE svg PUBLIC "-//W3C//DTD SVG 1.1//EN"
  "http://www.w3.org/Graphics/SVG/1.1/DTD/svg11.dtd">
<svg xmlns:xlink="http://www.w3.org/1999/xlink" width="1296pt" height="1008pt" viewBox="0 0 1296 1008" xmlns="http://www.w3.org/2000/svg" version="1.1">
 <metadata>
  <rdf:RDF xmlns:dc="http://purl.org/dc/elements/1.1/" xmlns:cc="http://creativecommons.org/ns#" xmlns:rdf="http://www.w3.org/1999/02/22-rdf-syntax-ns#">
   <cc:Work>
    <dc:type rdf:resource="http://purl.org/dc/dcmitype/StillImage"/>
    <dc:date>2025-08-06T00:34:24.647676</dc:date>
    <dc:format>image/svg+xml</dc:format>
    <dc:creator>
     <cc:Agent>
      <dc:title>Matplotlib v3.10.3, https://matplotlib.org/</dc:title>
     </cc:Agent>
    </dc:creator>
   </cc:Work>
  </rdf:RDF>
 </metadata>
 <defs>
  <style type="text/css">*{stroke-linejoin: round; stroke-linecap: butt}</style>
 </defs>
 <g id="figure_1">
  <g id="patch_1">
   <path d="M 0 1008 
L 1296 1008 
L 1296 0 
L 0 0 
z
" style="fill: #ffffff"/>
  </g>
  <g id="patch_2">
   <path d="M 164.64 997.2 
L 1131.36 997.2 
L 1131.36 30.48 
L 164.64 30.48 
z
" style="fill: #ffffff"/>
  </g>
  <g id="pane3d_1">
   <g id="patch_3">
    <path d="M 661.063784 581.893746 
L 263.758321 755.391958 
L 244.84442 234.039381 
L 661.063784 87.939602 
" style="fill: #f2f2f2; opacity: 0.5; stroke: #f2f2f2; stroke-linejoin: miter"/>
   </g>
  </g>
  <g id="pane3d_2">
   <g id="patch_4">
    <path d="M 1058.369247 755.391958 
L 661.063784 581.893746 
L 661.063784 87.939602 
L 1077.283147 234.039381 
" style="fill: #e6e6e6; opacity: 0.5; stroke: #e6e6e6; stroke-linejoin: miter"/>
   </g>
  </g>
  <g id="pane3d_3">
   <g id="patch_5">
    <path d="M 1058.369247 755.391958 
L 661.063784 581.893746 
L 263.758321 755.391958 
L 661.063784 954.570688 
" style="fill: #ececec; opacity: 0.5; stroke: #ececec; stroke-linejoin: miter"/>
   </g>
  </g>
  <g id="grid3d_1">
   <g id="Line3DCollection_1">
    <path d="M 627.962528 937.976237 
L 1025.412129 741.000006 
L 1042.659947 221.886074 
" style="fill: none; stroke: #b0b0b0; stroke-width: 0.8"/>
    <path d="M 579.05313 913.456786 
L 976.667929 719.714038 
L 991.483878 203.922439 
" style="fill: none; stroke: #b0b0b0; stroke-width: 0.8"/>
    <path d="M 530.97124 889.352185 
L 928.692809 698.763917 
L 941.152849 186.255428 
" style="fill: none; stroke: #b0b0b0; stroke-width: 0.8"/>
    <path d="M 483.696034 865.651993 
L 881.468709 678.141756 
L 891.646104 168.877754 
" style="fill: none; stroke: #b0b0b0; stroke-width: 0.8"/>
    <path d="M 437.207379 842.346119 
L 834.978131 657.839916 
L 842.943556 151.782365 
" style="fill: none; stroke: #b0b0b0; stroke-width: 0.8"/>
    <path d="M 391.485807 819.424801 
L 789.204116 637.850989 
L 795.025768 134.962441 
" style="fill: none; stroke: #b0b0b0; stroke-width: 0.8"/>
    <path d="M 346.512487 796.878601 
L 744.130224 618.167797 
L 747.873924 118.411375 
" style="fill: none; stroke: #b0b0b0; stroke-width: 0.8"/>
    <path d="M 302.269202 774.698384 
L 699.740514 598.783379 
L 701.469805 102.122774 
" style="fill: none; stroke: #b0b0b0; stroke-width: 0.8"/>
   </g>
  </g>
  <g id="grid3d_2">
   <g id="Line3DCollection_2">
    <path d="M 655.550996 89.87468 
L 655.785574 584.198673 
L 1053.115768 758.025652 
" style="fill: none; stroke: #b0b0b0; stroke-width: 0.8"/>
    <path d="M 596.653776 110.548564 
L 599.421293 608.812233 
L 996.974225 786.17075 
" style="fill: none; stroke: #b0b0b0; stroke-width: 0.8"/>
    <path d="M 536.542032 131.648766 
L 541.945152 633.911328 
L 939.647215 814.910152 
" style="fill: none; stroke: #b0b0b0; stroke-width: 0.8"/>
    <path d="M 475.177805 153.188609 
L 483.323925 659.510468 
L 881.09679 844.26288 
" style="fill: none; stroke: #b0b0b0; stroke-width: 0.8"/>
    <path d="M 412.521538 175.18198 
L 423.523048 685.624746 
L 821.283364 874.248781 
" style="fill: none; stroke: #b0b0b0; stroke-width: 0.8"/>
    <path d="M 348.531991 197.643354 
L 362.50655 712.26987 
L 760.165625 904.888565 
" style="fill: none; stroke: #b0b0b0; stroke-width: 0.8"/>
    <path d="M 283.16615 220.587829 
L 300.236985 739.462192 
L 697.700439 936.203857 
" style="fill: none; stroke: #b0b0b0; stroke-width: 0.8"/>
   </g>
  </g>
  <g id="grid3d_3">
   <g id="Line3DCollection_3">
    <path d="M 1058.369247 755.391958 
L 661.063784 581.893746 
L 263.758321 755.391958 
" style="fill: none; stroke: #b0b0b0; stroke-width: 0.8"/>
    <path d="M 1060.638941 692.828933 
L 661.063784 522.458548 
L 261.488627 692.828933 
" style="fill: none; stroke: #b0b0b0; stroke-width: 0.8"/>
    <path d="M 1062.934716 629.546992 
L 661.063784 462.384877 
L 259.192852 629.546992 
" style="fill: none; stroke: #b0b0b0; stroke-width: 0.8"/>
    <path d="M 1065.257025 565.533671 
L 661.063784 401.662389 
L 256.870543 565.533671 
" style="fill: none; stroke: #b0b0b0; stroke-width: 0.8"/>
    <path d="M 1067.606329 500.776216 
L 661.063784 340.280517 
L 254.521238 500.776216 
" style="fill: none; stroke: #b0b0b0; stroke-width: 0.8"/>
    <path d="M 1069.983103 435.261577 
L 661.063784 278.22846 
L 252.144464 435.261577 
" style="fill: none; stroke: #b0b0b0; stroke-width: 0.8"/>
    <path d="M 1072.387832 368.976396 
L 661.063784 215.495184 
L 249.739736 368.976396 
" style="fill: none; stroke: #b0b0b0; stroke-width: 0.8"/>
    <path d="M 1074.82101 301.906997 
L 661.063784 152.069408 
L 247.306557 301.906997 
" style="fill: none; stroke: #b0b0b0; stroke-width: 0.8"/>
    <path d="M 1077.283147 234.039381 
L 661.063784 87.939602 
L 244.84442 234.039381 
" style="fill: none; stroke: #b0b0b0; stroke-width: 0.8"/>
   </g>
  </g>
  <g id="axis3d_1">
   <g id="line2d_1">
    <path d="M 263.758321 755.391958 
L 661.063784 954.570688 
" style="fill: none; stroke: #000000; stroke-width: 0.8; stroke-linecap: square"/>
   </g>
   <g id="xtick_1">
    <g id="line2d_2">
     <path d="M 631.374081 936.28547 
L 621.127358 941.363751 
" style="fill: none; stroke: #000000; stroke-width: 0.8; stroke-linecap: square"/>
    </g>
    <g id="text_1">
     <!-- 0.0 -->
     <g transform="translate(610.296323 962.3497) scale(0.1 -0.1)">
      <defs>
       <path id="DejaVuSans-30" d="M 2034 4250 
Q 1547 4250 1301 3770 
Q 1056 3291 1056 2328 
Q 1056 1369 1301 889 
Q 1547 409 2034 409 
Q 2525 409 2770 889 
Q 3016 1369 3016 2328 
Q 3016 3291 2770 3770 
Q 2525 4250 2034 4250 
z
M 2034 4750 
Q 2819 4750 3233 4129 
Q 3647 3509 3647 2328 
Q 3647 1150 3233 529 
Q 2819 -91 2034 -91 
Q 1250 -91 836 529 
Q 422 1150 422 2328 
Q 422 3509 836 4129 
Q 1250 4750 2034 4750 
z
" transform="scale(0.015625)"/>
       <path id="DejaVuSans-2e" d="M 684 794 
L 1344 794 
L 1344 0 
L 684 0 
L 684 794 
z
" transform="scale(0.015625)"/>
      </defs>
      <use xlink:href="#DejaVuSans-30"/>
      <use xlink:href="#DejaVuSans-2e" transform="translate(63.623047 0)"/>
      <use xlink:href="#DejaVuSans-30" transform="translate(95.410156 0)"/>
     </g>
    </g>
   </g>
   <g id="xtick_2">
    <g id="line2d_3">
     <path d="M 582.464123 911.794738 
L 572.219186 916.78671 
" style="fill: none; stroke: #000000; stroke-width: 0.8; stroke-linecap: square"/>
    </g>
    <g id="text_2">
     <!-- 0.5 -->
     <g transform="translate(561.442086 937.673126) scale(0.1 -0.1)">
      <defs>
       <path id="DejaVuSans-35" d="M 691 4666 
L 3169 4666 
L 3169 4134 
L 1269 4134 
L 1269 2991 
Q 1406 3038 1543 3061 
Q 1681 3084 1819 3084 
Q 2600 3084 3056 2656 
Q 3513 2228 3513 1497 
Q 3513 744 3044 326 
Q 2575 -91 1722 -91 
Q 1428 -91 1123 -41 
Q 819 9 494 109 
L 494 744 
Q 775 591 1075 516 
Q 1375 441 1709 441 
Q 2250 441 2565 725 
Q 2881 1009 2881 1497 
Q 2881 1984 2565 2268 
Q 2250 2553 1709 2553 
Q 1456 2553 1204 2497 
Q 953 2441 691 2322 
L 691 4666 
z
" transform="scale(0.015625)"/>
      </defs>
      <use xlink:href="#DejaVuSans-30"/>
      <use xlink:href="#DejaVuSans-2e" transform="translate(63.623047 0)"/>
      <use xlink:href="#DejaVuSans-35" transform="translate(95.410156 0)"/>
     </g>
    </g>
   </g>
   <g id="xtick_3">
    <g id="line2d_4">
     <path d="M 534.381203 887.71813 
L 524.139461 892.625975 
" style="fill: none; stroke: #000000; stroke-width: 0.8; stroke-linecap: square"/>
    </g>
    <g id="text_3">
     <!-- 1.0 -->
     <g transform="translate(513.41489 913.414295) scale(0.1 -0.1)">
      <defs>
       <path id="DejaVuSans-31" d="M 794 531 
L 1825 531 
L 1825 4091 
L 703 3866 
L 703 4441 
L 1819 4666 
L 2450 4666 
L 2450 531 
L 3481 531 
L 3481 0 
L 794 0 
L 794 531 
z
" transform="scale(0.015625)"/>
      </defs>
      <use xlink:href="#DejaVuSans-31"/>
      <use xlink:href="#DejaVuSans-2e" transform="translate(63.623047 0)"/>
      <use xlink:href="#DejaVuSans-30" transform="translate(95.410156 0)"/>
     </g>
    </g>
   </g>
   <g id="xtick_4">
    <g id="line2d_5">
     <path d="M 487.104522 864.045231 
L 476.867309 868.871058 
" style="fill: none; stroke: #000000; stroke-width: 0.8; stroke-linecap: square"/>
    </g>
    <g id="text_4">
     <!-- 1.5 -->
     <g transform="translate(466.193908 889.562688) scale(0.1 -0.1)">
      <use xlink:href="#DejaVuSans-31"/>
      <use xlink:href="#DejaVuSans-2e" transform="translate(63.623047 0)"/>
      <use xlink:href="#DejaVuSans-35" transform="translate(95.410156 0)"/>
     </g>
    </g>
   </g>
   <g id="xtick_5">
    <g id="line2d_6">
     <path d="M 440.613968 840.76597 
L 430.382554 845.511817 
" style="fill: none; stroke: #000000; stroke-width: 0.8; stroke-linecap: square"/>
    </g>
    <g id="text_5">
     <!-- 2.0 -->
     <g transform="translate(419.759011 866.108137) scale(0.1 -0.1)">
      <defs>
       <path id="DejaVuSans-32" d="M 1228 531 
L 3431 531 
L 3431 0 
L 469 0 
L 469 531 
Q 828 903 1448 1529 
Q 2069 2156 2228 2338 
Q 2531 2678 2651 2914 
Q 2772 3150 2772 3378 
Q 2772 3750 2511 3984 
Q 2250 4219 1831 4219 
Q 1534 4219 1204 4116 
Q 875 4013 500 3803 
L 500 4441 
Q 881 4594 1212 4672 
Q 1544 4750 1819 4750 
Q 2544 4750 2975 4387 
Q 3406 4025 3406 3419 
Q 3406 3131 3298 2873 
Q 3191 2616 2906 2266 
Q 2828 2175 2409 1742 
Q 1991 1309 1228 531 
z
" transform="scale(0.015625)"/>
      </defs>
      <use xlink:href="#DejaVuSans-32"/>
      <use xlink:href="#DejaVuSans-2e" transform="translate(63.623047 0)"/>
      <use xlink:href="#DejaVuSans-30" transform="translate(95.410156 0)"/>
     </g>
    </g>
   </g>
   <g id="xtick_6">
    <g id="line2d_7">
     <path d="M 394.890097 817.870611 
L 384.665685 822.538451 
" style="fill: none; stroke: #000000; stroke-width: 0.8; stroke-linecap: square"/>
    </g>
    <g id="text_6">
     <!-- 2.5 -->
     <g transform="translate(374.090731 843.040808) scale(0.1 -0.1)">
      <use xlink:href="#DejaVuSans-32"/>
      <use xlink:href="#DejaVuSans-2e" transform="translate(63.623047 0)"/>
      <use xlink:href="#DejaVuSans-35" transform="translate(95.410156 0)"/>
     </g>
    </g>
   </g>
   <g id="xtick_7">
    <g id="line2d_8">
     <path d="M 349.914097 795.349734 
L 339.69783 799.941474 
" style="fill: none; stroke: #000000; stroke-width: 0.8; stroke-linecap: square"/>
    </g>
    <g id="text_7">
     <!-- 3.0 -->
     <g transform="translate(329.170238 820.351192) scale(0.1 -0.1)">
      <defs>
       <path id="DejaVuSans-33" d="M 2597 2516 
Q 3050 2419 3304 2112 
Q 3559 1806 3559 1356 
Q 3559 666 3084 287 
Q 2609 -91 1734 -91 
Q 1441 -91 1130 -33 
Q 819 25 488 141 
L 488 750 
Q 750 597 1062 519 
Q 1375 441 1716 441 
Q 2309 441 2620 675 
Q 2931 909 2931 1356 
Q 2931 1769 2642 2001 
Q 2353 2234 1838 2234 
L 1294 2234 
L 1294 2753 
L 1863 2753 
Q 2328 2753 2575 2939 
Q 2822 3125 2822 3475 
Q 2822 3834 2567 4026 
Q 2313 4219 1838 4219 
Q 1578 4219 1281 4162 
Q 984 4106 628 3988 
L 628 4550 
Q 988 4650 1302 4700 
Q 1616 4750 1894 4750 
Q 2613 4750 3031 4423 
Q 3450 4097 3450 3541 
Q 3450 3153 3228 2886 
Q 3006 2619 2597 2516 
z
" transform="scale(0.015625)"/>
      </defs>
      <use xlink:href="#DejaVuSans-33"/>
      <use xlink:href="#DejaVuSans-2e" transform="translate(63.623047 0)"/>
      <use xlink:href="#DejaVuSans-30" transform="translate(95.410156 0)"/>
     </g>
    </g>
   </g>
   <g id="xtick_8">
    <g id="line2d_9">
     <path d="M 305.66777 773.194227 
L 295.460732 777.711713 
" style="fill: none; stroke: #000000; stroke-width: 0.8; stroke-linecap: square"/>
    </g>
    <g id="text_8">
     <!-- 3.5 -->
     <g transform="translate(284.979316 798.030087) scale(0.1 -0.1)">
      <use xlink:href="#DejaVuSans-33"/>
      <use xlink:href="#DejaVuSans-2e" transform="translate(63.623047 0)"/>
      <use xlink:href="#DejaVuSans-35" transform="translate(95.410156 0)"/>
     </g>
    </g>
   </g>
   <g id="text_9">
    <!-- X (m) -->
    <g transform="translate(415.633159 881.518553) rotate(-333.374297) scale(0.14 -0.14)">
     <defs>
      <path id="DejaVuSans-58" d="M 403 4666 
L 1081 4666 
L 2241 2931 
L 3406 4666 
L 4084 4666 
L 2584 2425 
L 4184 0 
L 3506 0 
L 2194 1984 
L 872 0 
L 191 0 
L 1856 2491 
L 403 4666 
z
" transform="scale(0.015625)"/>
      <path id="DejaVuSans-20" transform="scale(0.015625)"/>
      <path id="DejaVuSans-28" d="M 1984 4856 
Q 1566 4138 1362 3434 
Q 1159 2731 1159 2009 
Q 1159 1288 1364 580 
Q 1569 -128 1984 -844 
L 1484 -844 
Q 1016 -109 783 600 
Q 550 1309 550 2009 
Q 550 2706 781 3412 
Q 1013 4119 1484 4856 
L 1984 4856 
z
" transform="scale(0.015625)"/>
      <path id="DejaVuSans-6d" d="M 3328 2828 
Q 3544 3216 3844 3400 
Q 4144 3584 4550 3584 
Q 5097 3584 5394 3201 
Q 5691 2819 5691 2113 
L 5691 0 
L 5113 0 
L 5113 2094 
Q 5113 2597 4934 2840 
Q 4756 3084 4391 3084 
Q 3944 3084 3684 2787 
Q 3425 2491 3425 1978 
L 3425 0 
L 2847 0 
L 2847 2094 
Q 2847 2600 2669 2842 
Q 2491 3084 2119 3084 
Q 1678 3084 1418 2786 
Q 1159 2488 1159 1978 
L 1159 0 
L 581 0 
L 581 3500 
L 1159 3500 
L 1159 2956 
Q 1356 3278 1631 3431 
Q 1906 3584 2284 3584 
Q 2666 3584 2933 3390 
Q 3200 3197 3328 2828 
z
" transform="scale(0.015625)"/>
      <path id="DejaVuSans-29" d="M 513 4856 
L 1013 4856 
Q 1481 4119 1714 3412 
Q 1947 2706 1947 2009 
Q 1947 1309 1714 600 
Q 1481 -109 1013 -844 
L 513 -844 
Q 928 -128 1133 580 
Q 1338 1288 1338 2009 
Q 1338 2731 1133 3434 
Q 928 4138 513 4856 
z
" transform="scale(0.015625)"/>
     </defs>
     <use xlink:href="#DejaVuSans-58"/>
     <use xlink:href="#DejaVuSans-20" transform="translate(68.505859 0)"/>
     <use xlink:href="#DejaVuSans-28" transform="translate(100.292969 0)"/>
     <use xlink:href="#DejaVuSans-6d" transform="translate(139.306641 0)"/>
     <use xlink:href="#DejaVuSans-29" transform="translate(236.71875 0)"/>
    </g>
   </g>
  </g>
  <g id="axis3d_2">
   <g id="line2d_10">
    <path d="M 1058.369247 755.391958 
L 661.063784 954.570688 
" style="fill: none; stroke: #000000; stroke-width: 0.8; stroke-linecap: square"/>
   </g>
   <g id="xtick_9">
    <g id="line2d_11">
     <path d="M 1049.719751 756.539937 
L 1059.919057 761.002006 
" style="fill: none; stroke: #000000; stroke-width: 0.8; stroke-linecap: square"/>
    </g>
    <g id="text_10">
     <!-- −10 -->
     <g transform="translate(1051.862131 781.25158) scale(0.1 -0.1)">
      <defs>
       <path id="DejaVuSans-2212" d="M 678 2272 
L 4684 2272 
L 4684 1741 
L 678 1741 
L 678 2272 
z
" transform="scale(0.015625)"/>
      </defs>
      <use xlink:href="#DejaVuSans-2212"/>
      <use xlink:href="#DejaVuSans-31" transform="translate(83.789062 0)"/>
      <use xlink:href="#DejaVuSans-30" transform="translate(147.412109 0)"/>
     </g>
    </g>
   </g>
   <g id="xtick_10">
    <g id="line2d_12">
     <path d="M 993.574034 784.653838 
L 1003.785996 789.209655 
" style="fill: none; stroke: #000000; stroke-width: 0.8; stroke-linecap: square"/>
    </g>
    <g id="text_11">
     <!-- −8 -->
     <g transform="translate(998.968588 809.575301) scale(0.1 -0.1)">
      <defs>
       <path id="DejaVuSans-38" d="M 2034 2216 
Q 1584 2216 1326 1975 
Q 1069 1734 1069 1313 
Q 1069 891 1326 650 
Q 1584 409 2034 409 
Q 2484 409 2743 651 
Q 3003 894 3003 1313 
Q 3003 1734 2745 1975 
Q 2488 2216 2034 2216 
z
M 1403 2484 
Q 997 2584 770 2862 
Q 544 3141 544 3541 
Q 544 4100 942 4425 
Q 1341 4750 2034 4750 
Q 2731 4750 3128 4425 
Q 3525 4100 3525 3541 
Q 3525 3141 3298 2862 
Q 3072 2584 2669 2484 
Q 3125 2378 3379 2068 
Q 3634 1759 3634 1313 
Q 3634 634 3220 271 
Q 2806 -91 2034 -91 
Q 1263 -91 848 271 
Q 434 634 434 1313 
Q 434 1759 690 2068 
Q 947 2378 1403 2484 
z
M 1172 3481 
Q 1172 3119 1398 2916 
Q 1625 2713 2034 2713 
Q 2441 2713 2670 2916 
Q 2900 3119 2900 3481 
Q 2900 3844 2670 4047 
Q 2441 4250 2034 4250 
Q 1625 4250 1398 4047 
Q 1172 3844 1172 3481 
z
" transform="scale(0.015625)"/>
      </defs>
      <use xlink:href="#DejaVuSans-2212"/>
      <use xlink:href="#DejaVuSans-38" transform="translate(83.789062 0)"/>
     </g>
    </g>
   </g>
   <g id="xtick_11">
    <g id="line2d_13">
     <path d="M 936.243428 813.361049 
L 946.466309 818.0136 
" style="fill: none; stroke: #000000; stroke-width: 0.8; stroke-linecap: square"/>
    </g>
    <g id="text_12">
     <!-- −6 -->
     <g transform="translate(941.709089 838.497425) scale(0.1 -0.1)">
      <defs>
       <path id="DejaVuSans-36" d="M 2113 2584 
Q 1688 2584 1439 2293 
Q 1191 2003 1191 1497 
Q 1191 994 1439 701 
Q 1688 409 2113 409 
Q 2538 409 2786 701 
Q 3034 994 3034 1497 
Q 3034 2003 2786 2293 
Q 2538 2584 2113 2584 
z
M 3366 4563 
L 3366 3988 
Q 3128 4100 2886 4159 
Q 2644 4219 2406 4219 
Q 1781 4219 1451 3797 
Q 1122 3375 1075 2522 
Q 1259 2794 1537 2939 
Q 1816 3084 2150 3084 
Q 2853 3084 3261 2657 
Q 3669 2231 3669 1497 
Q 3669 778 3244 343 
Q 2819 -91 2113 -91 
Q 1303 -91 875 529 
Q 447 1150 447 2328 
Q 447 3434 972 4092 
Q 1497 4750 2381 4750 
Q 2619 4750 2861 4703 
Q 3103 4656 3366 4563 
z
" transform="scale(0.015625)"/>
      </defs>
      <use xlink:href="#DejaVuSans-2212"/>
      <use xlink:href="#DejaVuSans-36" transform="translate(83.789062 0)"/>
     </g>
    </g>
   </g>
   <g id="xtick_12">
    <g id="line2d_14">
     <path d="M 877.690028 842.680551 
L 887.921969 847.432951 
" style="fill: none; stroke: #000000; stroke-width: 0.8; stroke-linecap: square"/>
    </g>
    <g id="text_13">
     <!-- −4 -->
     <g transform="translate(883.226939 868.037117) scale(0.1 -0.1)">
      <defs>
       <path id="DejaVuSans-34" d="M 2419 4116 
L 825 1625 
L 2419 1625 
L 2419 4116 
z
M 2253 4666 
L 3047 4666 
L 3047 1625 
L 3713 1625 
L 3713 1100 
L 3047 1100 
L 3047 0 
L 2419 0 
L 2419 1100 
L 313 1100 
L 313 1709 
L 2253 4666 
z
" transform="scale(0.015625)"/>
      </defs>
      <use xlink:href="#DejaVuSans-2212"/>
      <use xlink:href="#DejaVuSans-34" transform="translate(83.789062 0)"/>
     </g>
    </g>
   </g>
   <g id="xtick_13">
    <g id="line2d_15">
     <path d="M 817.874289 872.632145 
L 828.113303 877.487642 
" style="fill: none; stroke: #000000; stroke-width: 0.8; stroke-linecap: square"/>
    </g>
    <g id="text_14">
     <!-- −2 -->
     <g transform="translate(823.482554 898.214372) scale(0.1 -0.1)">
      <use xlink:href="#DejaVuSans-2212"/>
      <use xlink:href="#DejaVuSans-32" transform="translate(83.789062 0)"/>
     </g>
    </g>
   </g>
   <g id="xtick_14">
    <g id="line2d_16">
     <path d="M 756.754944 903.236494 
L 766.998909 908.198481 
" style="fill: none; stroke: #000000; stroke-width: 0.8; stroke-linecap: square"/>
    </g>
    <g id="text_15">
     <!-- 0 -->
     <g transform="translate(766.624468 929.050055) scale(0.1 -0.1)">
      <use xlink:href="#DejaVuSans-30"/>
     </g>
    </g>
   </g>
   <g id="xtick_15">
    <g id="line2d_17">
     <path d="M 694.28891 934.515173 
L 704.535554 939.587191 
" style="fill: none; stroke: #000000; stroke-width: 0.8; stroke-linecap: square"/>
    </g>
    <g id="text_16">
     <!-- 2 -->
     <g transform="translate(704.22986 960.565954) scale(0.1 -0.1)">
      <use xlink:href="#DejaVuSans-32"/>
     </g>
    </g>
   </g>
   <g id="text_17">
    <!-- Y (m) -->
    <g transform="translate(872.45169 898.584982) rotate(-26.625703) scale(0.14 -0.14)">
     <defs>
      <path id="DejaVuSans-59" d="M -13 4666 
L 666 4666 
L 1959 2747 
L 3244 4666 
L 3922 4666 
L 2272 2222 
L 2272 0 
L 1638 0 
L 1638 2222 
L -13 4666 
z
" transform="scale(0.015625)"/>
     </defs>
     <use xlink:href="#DejaVuSans-59"/>
     <use xlink:href="#DejaVuSans-20" transform="translate(61.083984 0)"/>
     <use xlink:href="#DejaVuSans-28" transform="translate(92.871094 0)"/>
     <use xlink:href="#DejaVuSans-6d" transform="translate(131.884766 0)"/>
     <use xlink:href="#DejaVuSans-29" transform="translate(229.296875 0)"/>
    </g>
   </g>
  </g>
  <g id="axis3d_3">
   <g id="line2d_18">
    <path d="M 1058.369247 755.391958 
L 1077.283147 234.039381 
" style="fill: none; stroke: #000000; stroke-width: 0.8; stroke-linecap: square"/>
   </g>
   <g id="xtick_16">
    <g id="line2d_19">
     <path d="M 1054.973654 753.909146 
L 1065.171676 758.362492 
" style="fill: none; stroke: #000000; stroke-width: 0.8; stroke-linecap: square"/>
    </g>
    <g id="text_18">
     <!-- 0.00 -->
     <g transform="translate(1065.385442 762.990395) scale(0.1 -0.1)">
      <use xlink:href="#DejaVuSans-30"/>
      <use xlink:href="#DejaVuSans-2e" transform="translate(63.623047 0)"/>
      <use xlink:href="#DejaVuSans-30" transform="translate(95.410156 0)"/>
      <use xlink:href="#DejaVuSans-30" transform="translate(159.033203 0)"/>
     </g>
    </g>
   </g>
   <g id="xtick_17">
    <g id="line2d_20">
     <path d="M 1057.222703 691.372322 
L 1067.482793 695.747007 
" style="fill: none; stroke: #000000; stroke-width: 0.8; stroke-linecap: square"/>
    </g>
    <g id="text_19">
     <!-- 0.25 -->
     <g transform="translate(1067.758817 700.427371) scale(0.1 -0.1)">
      <use xlink:href="#DejaVuSans-30"/>
      <use xlink:href="#DejaVuSans-2e" transform="translate(63.623047 0)"/>
      <use xlink:href="#DejaVuSans-32" transform="translate(95.410156 0)"/>
      <use xlink:href="#DejaVuSans-35" transform="translate(159.033203 0)"/>
     </g>
    </g>
   </g>
   <g id="xtick_18">
    <g id="line2d_21">
     <path d="M 1059.497581 628.117283 
L 1069.820497 632.411199 
" style="fill: none; stroke: #000000; stroke-width: 0.8; stroke-linecap: square"/>
    </g>
    <g id="text_20">
     <!-- 0.50 -->
     <g transform="translate(1070.159463 637.14543) scale(0.1 -0.1)">
      <use xlink:href="#DejaVuSans-30"/>
      <use xlink:href="#DejaVuSans-2e" transform="translate(63.623047 0)"/>
      <use xlink:href="#DejaVuSans-35" transform="translate(95.410156 0)"/>
      <use xlink:href="#DejaVuSans-30" transform="translate(159.033203 0)"/>
     </g>
    </g>
   </g>
   <g id="xtick_19">
    <g id="line2d_22">
     <path d="M 1061.798737 564.131584 
L 1072.185249 568.342567 
" style="fill: none; stroke: #000000; stroke-width: 0.8; stroke-linecap: square"/>
    </g>
    <g id="text_21">
     <!-- 0.75 -->
     <g transform="translate(1072.587856 573.132108) scale(0.1 -0.1)">
      <defs>
       <path id="DejaVuSans-37" d="M 525 4666 
L 3525 4666 
L 3525 4397 
L 1831 0 
L 1172 0 
L 2766 4134 
L 525 4134 
L 525 4666 
z
" transform="scale(0.015625)"/>
      </defs>
      <use xlink:href="#DejaVuSans-30"/>
      <use xlink:href="#DejaVuSans-2e" transform="translate(63.623047 0)"/>
      <use xlink:href="#DejaVuSans-37" transform="translate(95.410156 0)"/>
      <use xlink:href="#DejaVuSans-35" transform="translate(159.033203 0)"/>
     </g>
    </g>
   </g>
   <g id="xtick_20">
    <g id="line2d_23">
     <path d="M 1064.126628 499.402493 
L 1074.577522 503.528318 
" style="fill: none; stroke: #000000; stroke-width: 0.8; stroke-linecap: square"/>
    </g>
    <g id="text_22">
     <!-- 1.00 -->
     <g transform="translate(1075.044477 508.374654) scale(0.1 -0.1)">
      <use xlink:href="#DejaVuSans-31"/>
      <use xlink:href="#DejaVuSans-2e" transform="translate(63.623047 0)"/>
      <use xlink:href="#DejaVuSans-30" transform="translate(95.410156 0)"/>
      <use xlink:href="#DejaVuSans-30" transform="translate(159.033203 0)"/>
     </g>
    </g>
   </g>
   <g id="xtick_21">
    <g id="line2d_24">
     <path d="M 1066.481723 433.916978 
L 1076.997798 437.955359 
" style="fill: none; stroke: #000000; stroke-width: 0.8; stroke-linecap: square"/>
    </g>
    <g id="text_23">
     <!-- 1.25 -->
     <g transform="translate(1077.529823 442.860015) scale(0.1 -0.1)">
      <use xlink:href="#DejaVuSans-31"/>
      <use xlink:href="#DejaVuSans-2e" transform="translate(63.623047 0)"/>
      <use xlink:href="#DejaVuSans-32" transform="translate(95.410156 0)"/>
      <use xlink:href="#DejaVuSans-35" transform="translate(159.033203 0)"/>
     </g>
    </g>
   </g>
   <g id="xtick_22">
    <g id="line2d_25">
     <path d="M 1068.864501 367.661702 
L 1079.446573 371.61029 
" style="fill: none; stroke: #000000; stroke-width: 0.8; stroke-linecap: square"/>
    </g>
    <g id="text_24">
     <!-- 1.50 -->
     <g transform="translate(1080.0444 376.574833) scale(0.1 -0.1)">
      <use xlink:href="#DejaVuSans-31"/>
      <use xlink:href="#DejaVuSans-2e" transform="translate(63.623047 0)"/>
      <use xlink:href="#DejaVuSans-35" transform="translate(95.410156 0)"/>
      <use xlink:href="#DejaVuSans-30" transform="translate(159.033203 0)"/>
     </g>
    </g>
   </g>
   <g id="xtick_23">
    <g id="line2d_26">
     <path d="M 1071.275453 300.623012 
L 1081.924352 304.479393 
" style="fill: none; stroke: #000000; stroke-width: 0.8; stroke-linecap: square"/>
    </g>
    <g id="text_25">
     <!-- 1.75 -->
     <g transform="translate(1082.588727 309.505434) scale(0.1 -0.1)">
      <use xlink:href="#DejaVuSans-31"/>
      <use xlink:href="#DejaVuSans-2e" transform="translate(63.623047 0)"/>
      <use xlink:href="#DejaVuSans-37" transform="translate(95.410156 0)"/>
      <use xlink:href="#DejaVuSans-35" transform="translate(159.033203 0)"/>
     </g>
    </g>
   </g>
   <g id="xtick_24">
    <g id="line2d_27">
     <path d="M 1073.715082 232.786932 
L 1084.431655 236.548624 
" style="fill: none; stroke: #000000; stroke-width: 0.8; stroke-linecap: square"/>
    </g>
    <g id="text_26">
     <!-- 2.00 -->
     <g transform="translate(1085.163334 241.637818) scale(0.1 -0.1)">
      <use xlink:href="#DejaVuSans-32"/>
      <use xlink:href="#DejaVuSans-2e" transform="translate(63.623047 0)"/>
      <use xlink:href="#DejaVuSans-30" transform="translate(95.410156 0)"/>
      <use xlink:href="#DejaVuSans-30" transform="translate(159.033203 0)"/>
     </g>
    </g>
   </g>
   <g id="text_27">
    <!-- Z (m) -->
    <g transform="translate(1111.138841 520.203897) rotate(-87.922305) scale(0.14 -0.14)">
     <defs>
      <path id="DejaVuSans-5a" d="M 359 4666 
L 4025 4666 
L 4025 4184 
L 1075 531 
L 4097 531 
L 4097 0 
L 288 0 
L 288 481 
L 3238 4134 
L 359 4134 
L 359 4666 
z
" transform="scale(0.015625)"/>
     </defs>
     <use xlink:href="#DejaVuSans-5a"/>
     <use xlink:href="#DejaVuSans-20" transform="translate(68.505859 0)"/>
     <use xlink:href="#DejaVuSans-28" transform="translate(100.292969 0)"/>
     <use xlink:href="#DejaVuSans-6d" transform="translate(139.306641 0)"/>
     <use xlink:href="#DejaVuSans-29" transform="translate(236.71875 0)"/>
    </g>
   </g>
  </g>
  <g id="axes_1">
   <g id="line2d_28">
    <path d="M 734.132497 885.688013 
L 732.902199 884.949303 
L 732.661328 884.621662 
L 732.92249 885.109554 
L 732.972112 885.241442 
L 732.953904 885.752714 
L 732.985483 884.794235 
L 732.993881 885.04204 
L 732.178044 885.146886 
L 732.503353 885.074464 
L 732.206421 884.642828 
L 730.893613 884.118174 
L 731.225819 884.639794 
L 731.01192 884.505203 
L 731.13586 884.976168 
L 731.115469 884.681922 
L 731.568347 884.620521 
L 731.566004 884.467867 
L 731.626408 884.651468 
L 731.389355 884.611386 
L 731.73286 884.830612 
L 731.706725 884.650342 
L 730.504894 883.476993 
L 729.062215 882.896759 
L 729.270201 883.189953 
L 729.131709 882.992565 
L 728.327371 882.837964 
L 728.337563 882.411513 
L 727.703683 882.220536 
L 727.783231 882.105105 
L 728.6176 882.548838 
L 727.571379 882.159329 
L 727.697719 882.668752 
L 728.09399 882.824274 
L 728.942393 883.035759 
L 728.867065 883.147636 
L 729.111495 883.096009 
L 728.231219 882.728201 
L 728.204145 882.418584 
L 727.789948 882.565702 
L 727.616947 882.362109 
L 727.620263 881.901857 
L 728.182888 882.330024 
L 727.989648 882.364511 
L 728.099103 882.430244 
L 728.082918 882.914081 
L 728.344622 882.968973 
L 729.106066 883.396893 
L 729.126616 883.794543 
L 728.651571 883.628792 
L 729.116064 884.105325 
L 728.647535 883.089898 
L 728.853256 883.140533 
L 727.393088 882.263761 
L 727.835038 882.180775 
L 728.107415 882.713231 
L 726.939098 882.660058 
L 726.625799 882.381947 
L 726.948748 882.488617 
L 727.650901 883.030217 
L 727.382568 882.327142 
L 727.253398 883.487212 
L 726.644041 883.100982 
L 726.721979 882.839285 
L 725.421813 882.116037 
L 724.406613 881.844175 
L 724.523282 881.758338 
L 723.511113 881.696851 
L 721.939698 880.864372 
L 721.756519 880.476267 
L 721.824455 880.573985 
L 721.030258 880.191086 
L 720.456308 880.232556 
L 720.711451 880.274335 
L 721.115783 881.402162 
L 721.676468 881.311736 
L 722.852018 881.795792 
L 723.659301 882.310501 
L 723.753625 881.777725 
L 723.357156 881.913596 
L 722.165319 881.700559 
L 723.235153 882.165546 
L 724.048611 883.038294 
L 725.448469 883.136902 
L 725.56434 882.88089 
L 723.341339 881.853485 
L 721.575213 879.707754 
L 722.346332 878.446931 
L 724.541726 876.074192 
L 725.059138 871.164903 
L 726.087856 865.228733 
L 726.003598 860.566666 
L 726.095951 857.799677 
L 726.29813 855.474084 
L 727.291202 848.025637 
L 727.458208 844.202789 
L 727.05619 838.178187 
L 726.990216 830.761168 
L 726.635593 823.102082 
L 727.095615 814.40788 
L 727.214221 806.807979 
L 728.167389 799.928569 
L 728.720012 793.577169 
L 729.069935 786.512033 
L 728.560219 779.192744 
L 730.794129 773.218775 
L 731.592417 765.335572 
L 731.892969 757.108984 
L 731.445237 749.208437 
L 729.380581 740.660409 
L 728.601005 734.145578 
L 728.111361 727.838845 
L 728.050931 720.573319 
L 728.170456 713.15834 
L 728.692263 707.538462 
L 730.577447 702.687867 
L 730.682319 695.420595 
L 731.455359 689.407686 
L 732.324698 679.22671 
L 732.235891 672.988098 
L 731.545298 666.082906 
L 729.940034 659.511408 
L 728.980386 651.709594 
L 728.024934 645.622784 
L 727.496138 639.850304 
L 727.57786 633.39329 
L 727.217638 626.784474 
L 727.490897 622.033897 
L 728.914529 617.95728 
L 728.215757 612.41887 
L 731.304289 607.005164 
L 731.741344 601.074218 
L 732.937618 594.190192 
L 731.97388 587.774871 
L 731.159006 583.568493 
L 729.612285 576.68733 
L 729.182712 572.970012 
L 727.128201 566.040181 
L 727.652766 558.512459 
L 728.826302 552.233593 
L 728.841119 542.397988 
L 735.630002 537.751068 
L 736.690663 533.213991 
L 737.006982 526.290221 
L 735.711055 521.954665 
L 735.163866 516.259431 
L 735.011984 511.240902 
L 733.99835 505.852257 
L 734.141269 500.444622 
L 733.467254 494.071974 
L 730.047768 486.964281 
L 730.303443 480.860067 
L 729.313793 472.433413 
L 729.403028 461.565607 
L 726.632192 460.067018 
L 726.806742 459.387504 
L 725.078916 455.892013 
L 727.375758 459.587602 
L 727.799728 457.638556 
L 728.284167 456.273637 
L 729.292299 456.98135 
L 729.254167 459.651867 
L 731.160949 459.24562 
L 730.614261 463.542288 
L 730.383594 463.836083 
L 729.96612 465.255123 
L 730.745098 462.196918 
L 732.34702 461.085062 
L 732.589138 458.509014 
L 732.876537 462.539599 
L 731.776571 465.531275 
L 729.959603 463.147652 
L 729.261224 463.897197 
L 729.687978 464.102051 
L 728.968488 465.054242 
L 727.404676 466.756007 
L 728.354764 465.693468 
L 728.163945 462.627748 
L 728.648575 463.077063 
L 730.709561 466.902589 
L 730.447719 464.768728 
L 726.916606 468.259636 
L 726.581283 469.986656 
L 725.05327 473.254384 
L 723.543754 473.99782 
L 723.8582 475.000855 
L 723.409686 475.186945 
L 724.057981 474.046718 
L 722.371704 473.358847 
L 719.699647 474.080945 
L 717.029337 478.611928 
L 717.054311 478.417101 
L 715.263056 477.726869 
L 714.206877 476.598902 
L 714.767435 478.00866 
L 714.016292 479.646375 
L 713.081814 479.149909 
L 713.173979 480.275758 
L 712.399325 481.988469 
L 711.403976 482.19191 
L 710.464296 486.736762 
L 708.96605 486.827843 
L 707.637774 483.571487 
L 706.920741 480.764916 
L 705.724371 480.11715 
L 703.68032 481.380338 
L 703.246641 484.461408 
L 700.161066 484.283901 
L 701.099121 488.573299 
L 699.637952 487.093806 
L 699.220214 483.283422 
L 700.545143 484.690523 
L 698.346603 487.437964 
L 696.855637 493.493195 
L 695.670054 492.313059 
L 693.99026 493.05054 
L 694.352463 487.299668 
L 694.023123 486.696753 
L 693.45534 488.762594 
L 691.658826 488.477674 
L 690.842482 489.51701 
L 690.620474 491.776306 
L 688.228691 489.241815 
L 686.130401 495.96854 
L 685.17184 494.8156 
L 684.379021 494.752688 
L 684.784624 496.674653 
L 684.095704 493.01049 
L 683.316427 493.341685 
L 683.210026 493.240416 
L 681.662762 491.049176 
L 680.658187 495.324033 
L 679.505149 504.167584 
L 678.684051 503.490771 
L 677.923959 505.335487 
L 677.253277 505.200525 
L 676.546176 503.91341 
L 675.768341 502.886 
L 674.879486 499.925994 
L 673.486633 501.721366 
L 671.58409 507.819436 
L 670.542471 508.579249 
L 669.637999 506.405584 
L 668.831169 506.295914 
L 667.25582 501.596266 
L 666.064281 498.924095 
L 665.089376 501.890681 
L 664.015019 504.070271 
L 663.018426 504.488649 
L 661.995419 507.964262 
L 660.936059 505.959148 
L 659.602488 507.829034 
L 659.390514 507.924761 
L 661.685025 513.109688 
L 664.488908 516.718088 
L 657.583086 512.244347 
L 656.883302 509.169915 
L 656.124346 507.674829 
L 650.864376 513.595284 
L 655.304067 511.883489 
L 654.910034 511.638849 
L 652.897825 507.983103 
L 652.617936 505.905985 
L 652.708248 508.068312 
L 652.349289 511.310259 
L 652.37395 507.358609 
L 652.026023 503.00882 
L 652.656351 507.122083 
L 652.952861 510.782047 
L 653.026417 510.536189 
L 629.39238 505.379196 
L 624.978397 502.233388 
L 630.354828 501.425258 
L 618.036338 503.655159 
L 620.680718 503.86308 
L 621.155669 504.406852 
L 616.075629 494.005646 
L 641.636949 494.570007 
L 647.554603 499.141422 
L 653.952394 503.573225 
L 657.790525 503.59894 
L 659.124836 504.740528 
L 660.84336 508.646855 
L 659.607716 509.995127 
L 655.842328 504.839764 
L 651.850957 500.037116 
L 648.940489 499.181816 
L 648.934359 501.508717 
L 644.642162 505.186415 
L 639.703598 499.481216 
L 635.420528 496.752657 
L 632.040269 495.707698 
L 626.839487 490.676384 
L 624.319418 493.795963 
L 620.147916 491.987061 
L 617.214011 497.59487 
L 616.242384 491.261329 
L 612.606084 491.565832 
L 610.455608 490.317888 
L 607.682585 490.727666 
L 605.282646 486.410524 
L 602.620122 486.01346 
L 599.720477 484.143176 
L 596.512599 480.355764 
L 593.775383 481.676251 
L 590.282352 479.515191 
L 587.440259 482.107999 
L 584.198345 477.377812 
L 581.146943 474.880797 
L 578.320017 471.699897 
L 572.374184 473.248745 
L 569.614194 472.13909 
L 566.785716 471.774799 
L 563.900625 469.552695 
L 561.095909 465.83486 
L 558.361474 466.231378 
L 555.60341 464.132223 
L 552.982499 467.064259 
L 549.837417 465.291851 
L 547.548026 462.329387 
L 544.581734 463.929259 
L 541.718057 465.08373 
L 538.100876 457.606595 
L 535.483677 457.412408 
L 529.561299 452.325738 
L 526.047788 451.839579 
L 522.855463 450.866479 
L 520.234824 452.786508 
L 517.191877 453.080054 
L 515.739476 452.831904 
L 513.005302 450.316829 
L 510.368275 447.566387 
L 508.36282 447.474579 
L 504.733249 442.572427 
L 503.073766 443.026149 
L 499.891518 442.870558 
L 495.73387 441.945289 
L 492.281 439.440821 
L 489.543402 440.463139 
L 487.956926 437.655709 
L 484.114885 436.663991 
L 482.024492 434.850874 
L 481.07355 429.152375 
L 480.652362 434.266052 
L 479.989795 437.700876 
L 479.009899 441.607445 
L 481.41607 434.263281 
L 483.610684 429.175324 
L 485.138406 429.528268 
L 484.683742 429.403796 
L 482.763237 431.66405 
L 479.80725 434.460765 
L 478.897285 430.937136 
L 478.271179 429.818648 
L 479.60136 434.594643 
L 478.770333 436.224636 
L 478.167478 438.467496 
L 478.337586 434.973829 
L 477.087643 433.727309 
L 475.222728 425.974948 
L 473.742872 430.046097 
L 471.232073 428.645149 
L 468.551553 428.522362 
L 468.83349 428.007903 
L 468.590544 430.660197 
L 467.910585 432.289105 
L 468.903713 429.50103 
L 470.990245 427.677111 
L 471.438993 427.484615 
L 470.188481 426.823792 
L 470.793201 430.230253 
L 468.850417 427.79639 
L 468.622983 425.27592 
L 468.285639 428.100044 
L 467.812318 422.610228 
L 467.664232 422.664021 
L 467.059259 427.92634 
L 466.575877 428.2115 
L 465.816564 430.968826 
L 466.033563 428.800222 
L 468.518717 426.199978 
L 472.065811 427.971283 
L 471.652671 424.595578 
L 472.735121 425.414322 
L 471.939794 425.758767 
L 469.582241 427.25157 
L 468.518979 424.564237 
L 469.236346 419.795479 
L 470.432294 416.51742 
L 470.213057 415.195937 
L 470.599605 416.237371 
L 470.746599 412.335935 
L 472.314102 412.35351 
L 473.152808 414.473366 
L 473.894323 417.945611 
L 474.364707 419.305925 
L 474.83633 422.192399 
L 475.155134 420.637498 
L 476.040818 414.220987 
L 476.998155 411.345551 
L 478.278112 410.027179 
L 477.791065 410.747183 
L 476.865648 411.142908 
L 476.295706 414.572571 
L 476.627508 413.6831 
L 477.986199 408.530777 
L 479.801586 411.815804 
L 483.037411 414.922493 
L 484.563451 411.786627 
L 487.338353 414.838993 
L 488.829078 413.071108 
L 490.854417 416.386638 
L 491.011386 411.876192 
L 491.346522 408.560049 
L 490.485671 409.064803 
L 489.342351 415.440343 
L 487.744513 419.012732 
L 486.977654 415.299179 
L 487.777694 412.540198 
L 488.119506 410.482272 
L 488.569012 410.885457 
L 489.16674 414.692018 
L 488.452083 413.111195 
L 488.966158 409.768272 
L 490.637064 413.057192 
L 490.260154 416.398099 
L 489.676566 413.909814 
L 491.548799 413.776725 
L 491.637206 414.466176 
L 491.411031 415.276596 
L 491.043353 411.618277 
L 491.732774 407.248108 
L 491.249642 408.345721 
L 489.714242 409.877274 
L 488.652455 415.451611 
L 488.34607 415.279027 
L 488.600715 411.319961 
L 489.500401 408.366797 
L 490.023556 400.749526 
L 491.74269 399.183386 
L 493.039116 404.041825 
L 491.642769 410.415335 
L 491.09596 406.614387 
L 489.580271 408.385723 
L 489.639923 408.318271 
L 491.210589 407.674071 
L 492.713973 409.952153 
L 493.003428 408.192123 
L 493.003171 408.327309 
L 495.275858 408.252234 
L 494.254141 409.773174 
L 494.548496 411.272956 
L 496.745374 410.614198 
L 502.461304 413.064893 
L 505.383458 413.738689 
L 508.31483 416.259429 
L 513.485153 416.028133 
L 516.002432 419.279312 
L 520.229098 425.396802 
L 523.36403 426.546554 
L 525.531782 424.516434 
L 528.152481 425.513682 
L 530.078998 421.049347 
L 532.147012 419.831219 
L 534.513984 423.814833 
L 537.0337 425.48814 
L 539.996959 429.157434 
L 543.30889 431.878399 
L 546.466503 438.025068 
L 548.17184 440.65142 
L 551.22501 438.461354 
L 552.814493 439.391516 
L 555.66638 438.230199 
L 558.22005 435.505124 
L 561.568889 442.331813 
L 563.676326 441.106784 
L 566.231943 438.542193 
L 569.904504 437.409569 
L 572.342255 441.811096 
L 574.452631 443.889026 
L 576.918863 445.615262 
L 579.380515 446.198408 
L 582.162888 445.747636 
L 585.165433 447.125622 
L 587.992436 448.012243 
L 592.361946 448.147627 
L 595.436776 455.775225 
L 598.779578 460.684317 
L 600.877936 458.733776 
L 604.882187 458.660084 
L 607.970074 457.973791 
L 613.77792 455.562803 
L 616.210137 460.280739 
L 617.953178 464.25051 
L 620.479595 465.12272 
L 625.547681 467.546235 
L 627.039269 467.244093 
L 630.749867 469.982918 
L 633.207333 465.892633 
L 636.135708 466.534518 
L 639.236663 469.931939 
L 641.397395 470.994772 
L 645.059606 474.898645 
L 646.647102 475.199088 
L 650.225444 474.926049 
L 653.212051 478.780315 
L 656.358496 480.111413 
L 659.877054 482.848255 
L 663.89625 483.09823 
L 667.132924 482.014452 
L 669.618944 483.831624 
L 672.509518 481.222329 
L 675.598749 482.718813 
L 679.708905 480.911375 
L 681.326998 484.703834 
L 681.72806 489.075022 
L 679.146895 491.000023 
L 676.103086 489.036981 
L 675.666434 485.190586 
L 674.1437 485.981139 
L 674.053279 487.84236 
L 675.223101 485.115503 
L 678.380916 486.242675 
L 680.702529 486.328623 
L 681.462677 484.80056 
L 682.607658 488.37038 
L 683.469807 491.444044 
L 683.703007 489.916599 
L 683.627602 492.931603 
L 684.193641 491.974032 
L 684.227847 487.659209 
L 685.077518 486.753772 
L 686.40193 490.281265 
L 688.214275 490.862033 
L 688.819715 491.974898 
L 689.271493 492.145935 
L 689.773859 494.763145 
L 691.852018 491.359459 
L 692.268754 488.068209 
L 693.934878 492.910083 
L 693.321512 497.751023 
L 692.037669 494.891414 
L 693.633606 494.416325 
L 694.943392 495.444485 
L 695.169277 496.178545 
L 694.49907 500.733914 
L 695.097973 500.343665 
L 696.795797 506.176 
L 697.664465 512.72142 
L 698.163515 517.510717 
L 698.589259 524.849528 
L 699.157946 532.065969 
L 699.151605 536.359662 
L 701.078723 541.417837 
L 704.501855 548.210186 
L 706.084885 555.392241 
L 706.113182 560.785031 
L 705.99014 566.112612 
L 703.205654 573.36905 
L 703.807201 579.160138 
L 700.977027 585.482901 
L 700.150132 592.071819 
L 699.744295 597.342156 
L 700.77514 601.123199 
L 701.121571 608.181592 
L 701.228434 614.172744 
L 699.466062 618.068128 
L 698.469469 623.73154 
L 700.369674 629.358694 
L 704.795119 638.01001 
L 705.231358 644.823695 
L 703.712132 659.025542 
L 704.507335 663.867648 
L 703.732105 668.893771 
L 703.481918 672.981141 
L 703.742118 676.832271 
L 703.915464 682.502596 
L 703.272111 689.43122 
L 704.407082 696.211567 
L 700.634289 700.202583 
L 700.356782 706.032813 
L 699.374047 711.519469 
L 698.979847 716.528525 
L 699.155712 722.936968 
L 699.41283 727.682581 
L 700.947136 734.864173 
L 701.771803 740.744134 
L 701.89683 746.174993 
L 701.858147 750.99408 
L 701.600219 755.413919 
L 702.934719 760.913046 
L 702.70063 766.230318 
L 702.694664 772.100006 
L 702.24678 777.989128 
L 701.538098 783.621781 
L 700.943758 789.778931 
L 700.557468 794.954222 
L 700.564351 799.964541 
L 701.908754 810.289509 
L 702.308975 815.444532 
L 702.554615 820.765889 
L 703.114271 826.330585 
L 703.009245 831.921039 
L 703.331582 837.193121 
L 703.434861 853.822037 
L 703.71957 864.9618 
L 703.741254 870.061396 
L 704.418881 881.776888 
L 704.010889 884.869764 
L 702.556579 887.453768 
L 701.914845 891.682792 
L 701.926203 885.717256 
L 701.787063 886.079745 
L 701.599558 886.040194 
L 701.368276 886.228154 
L 701.061044 885.279109 
L 700.685164 884.641354 
L 700.244082 883.130259 
L 699.737745 880.965899 
L 698.522325 876.905325 
L 696.948698 872.725801 
L 696.181945 870.194379 
L 695.261969 867.96715 
L 694.284348 865.134448 
L 693.232561 862.435968 
L 692.120461 859.214264 
L 690.927662 856.363714 
L 685.950648 843.201575 
L 682.360355 831.854109 
L 681.218631 828.941789 
L 678.955711 822.219262 
L 676.720449 814.470285 
L 672.516697 800.072117 
L 667.683513 781.975021 
L 665.10483 770.984561 
L 662.736272 760.609982 
L 660.529003 749.451642 
L 658.630421 738.953847 
L 656.725861 727.225087 
L 654.056171 707.414922 
L 653.262067 700.387738 
L 653.009975 697.04237 
L 652.56127 693.187429 
L 652.359092 689.926028 
L 652.380178 687.260833 
L 651.883022 677.710887 
L 651.360372 658.699856 
L 651.397966 655.571489 
L 651.251625 652.005948 
L 651.946627 650.407699 
L 652.18726 647.940779 
L 652.184577 644.868795 
L 652.481103 642.379527 
L 652.351348 635.828001 
L 653.089331 630.636428 
L 653.799577 628.808666 
L 654.634047 627.216352 
L 654.021744 622.774047 
L 653.830251 618.87432 
L 654.425375 616.452913 
L 654.784129 613.596502 
L 656.036115 612.646166 
L 656.543132 610.250806 
L 656.756742 607.209317 
L 657.873292 605.870689 
L 659.282586 605.125435 
L 660.125402 603.358822 
L 660.170598 600.21181 
L 660.052163 596.561959 
L 661.063784 594.946701 
L 661.063784 594.946701 
" clip-path="url(#pe5c6b1f4de)" style="fill: none; stroke: #0000ff; stroke-width: 2; stroke-linecap: square"/>
   </g>
   <g id="line2d_29">
    <path d="M 727.070883 888.858084 
L 729.519671 487.520129 
L 690.823068 503.980484 
L 570.534221 453.338754 
L 609.227733 437.552388 
L 729.519671 487.520129 
" clip-path="url(#pe5c6b1f4de)" style="fill: none; stroke-dasharray: 7.4,3.2; stroke-dashoffset: 0; stroke: #008000; stroke-width: 2"/>
   </g>
   <g id="Path3DCollection_1">
    <path d="M 722.598747 893.33022 
L 731.543019 884.385948 
M 722.598747 884.385948 
L 731.543019 893.33022 
" clip-path="url(#pe5c6b1f4de)" style="fill-opacity: 0.3; stroke: #000000; stroke-opacity: 0.3; stroke-width: 1.5"/>
    <path d="M 604.755597 442.024524 
L 613.699869 433.080252 
M 604.755597 433.080252 
L 613.699869 442.024524 
" clip-path="url(#pe5c6b1f4de)" style="fill-opacity: 0.549208; stroke: #000000; stroke-opacity: 0.549208; stroke-width: 1.5"/>
    <path d="M 566.062085 457.81089 
L 575.006357 448.866618 
M 566.062085 448.866618 
L 575.006357 457.81089 
" clip-path="url(#pe5c6b1f4de)" style="fill-opacity: 0.656337; stroke: #000000; stroke-opacity: 0.656337; stroke-width: 1.5"/>
    <path d="M 725.047535 491.992265 
L 733.991807 483.047993 
M 725.047535 483.047993 
L 733.991807 491.992265 
" clip-path="url(#pe5c6b1f4de)" style="fill-opacity: 0.888297; stroke: #000000; stroke-opacity: 0.888297; stroke-width: 1.5"/>
    <path d="M 686.350932 508.45262 
L 695.295204 499.508348 
M 686.350932 499.508348 
L 695.295204 508.45262 
" clip-path="url(#pe5c6b1f4de)" style="stroke: #000000; stroke-width: 1.5"/>
   </g>
   <g id="text_28">
    <!-- Takeoff / Landing -->
    <g transform="translate(727.197054 868.179626) scale(0.14 -0.14)">
     <defs>
      <path id="DejaVuSans-Bold-54" d="M 31 4666 
L 4331 4666 
L 4331 3756 
L 2784 3756 
L 2784 0 
L 1581 0 
L 1581 3756 
L 31 3756 
L 31 4666 
z
" transform="scale(0.015625)"/>
      <path id="DejaVuSans-Bold-61" d="M 2106 1575 
Q 1756 1575 1579 1456 
Q 1403 1338 1403 1106 
Q 1403 894 1545 773 
Q 1688 653 1941 653 
Q 2256 653 2472 879 
Q 2688 1106 2688 1447 
L 2688 1575 
L 2106 1575 
z
M 3816 1997 
L 3816 0 
L 2688 0 
L 2688 519 
Q 2463 200 2181 54 
Q 1900 -91 1497 -91 
Q 953 -91 614 226 
Q 275 544 275 1050 
Q 275 1666 698 1953 
Q 1122 2241 2028 2241 
L 2688 2241 
L 2688 2328 
Q 2688 2594 2478 2717 
Q 2269 2841 1825 2841 
Q 1466 2841 1156 2769 
Q 847 2697 581 2553 
L 581 3406 
Q 941 3494 1303 3539 
Q 1666 3584 2028 3584 
Q 2975 3584 3395 3211 
Q 3816 2838 3816 1997 
z
" transform="scale(0.015625)"/>
      <path id="DejaVuSans-Bold-6b" d="M 538 4863 
L 1656 4863 
L 1656 2216 
L 2944 3500 
L 4244 3500 
L 2534 1894 
L 4378 0 
L 3022 0 
L 1656 1459 
L 1656 0 
L 538 0 
L 538 4863 
z
" transform="scale(0.015625)"/>
      <path id="DejaVuSans-Bold-65" d="M 4031 1759 
L 4031 1441 
L 1416 1441 
Q 1456 1047 1700 850 
Q 1944 653 2381 653 
Q 2734 653 3104 758 
Q 3475 863 3866 1075 
L 3866 213 
Q 3469 63 3072 -14 
Q 2675 -91 2278 -91 
Q 1328 -91 801 392 
Q 275 875 275 1747 
Q 275 2603 792 3093 
Q 1309 3584 2216 3584 
Q 3041 3584 3536 3087 
Q 4031 2591 4031 1759 
z
M 2881 2131 
Q 2881 2450 2695 2645 
Q 2509 2841 2209 2841 
Q 1884 2841 1681 2658 
Q 1478 2475 1428 2131 
L 2881 2131 
z
" transform="scale(0.015625)"/>
      <path id="DejaVuSans-Bold-6f" d="M 2203 2784 
Q 1831 2784 1636 2517 
Q 1441 2250 1441 1747 
Q 1441 1244 1636 976 
Q 1831 709 2203 709 
Q 2569 709 2762 976 
Q 2956 1244 2956 1747 
Q 2956 2250 2762 2517 
Q 2569 2784 2203 2784 
z
M 2203 3584 
Q 3106 3584 3614 3096 
Q 4122 2609 4122 1747 
Q 4122 884 3614 396 
Q 3106 -91 2203 -91 
Q 1297 -91 786 396 
Q 275 884 275 1747 
Q 275 2609 786 3096 
Q 1297 3584 2203 3584 
z
" transform="scale(0.015625)"/>
      <path id="DejaVuSans-Bold-66" d="M 2841 4863 
L 2841 4128 
L 2222 4128 
Q 1984 4128 1890 4042 
Q 1797 3956 1797 3744 
L 1797 3500 
L 2753 3500 
L 2753 2700 
L 1797 2700 
L 1797 0 
L 678 0 
L 678 2700 
L 122 2700 
L 122 3500 
L 678 3500 
L 678 3744 
Q 678 4316 997 4589 
Q 1316 4863 1984 4863 
L 2841 4863 
z
" transform="scale(0.015625)"/>
      <path id="DejaVuSans-Bold-20" transform="scale(0.015625)"/>
      <path id="DejaVuSans-Bold-2f" d="M 1644 4666 
L 2338 4666 
L 691 -594 
L 0 -594 
L 1644 4666 
z
" transform="scale(0.015625)"/>
      <path id="DejaVuSans-Bold-4c" d="M 588 4666 
L 1791 4666 
L 1791 909 
L 3903 909 
L 3903 0 
L 588 0 
L 588 4666 
z
" transform="scale(0.015625)"/>
      <path id="DejaVuSans-Bold-6e" d="M 4056 2131 
L 4056 0 
L 2931 0 
L 2931 347 
L 2931 1631 
Q 2931 2084 2911 2256 
Q 2891 2428 2841 2509 
Q 2775 2619 2662 2680 
Q 2550 2741 2406 2741 
Q 2056 2741 1856 2470 
Q 1656 2200 1656 1722 
L 1656 0 
L 538 0 
L 538 3500 
L 1656 3500 
L 1656 2988 
Q 1909 3294 2193 3439 
Q 2478 3584 2822 3584 
Q 3428 3584 3742 3212 
Q 4056 2841 4056 2131 
z
" transform="scale(0.015625)"/>
      <path id="DejaVuSans-Bold-64" d="M 2919 2988 
L 2919 4863 
L 4044 4863 
L 4044 0 
L 2919 0 
L 2919 506 
Q 2688 197 2409 53 
Q 2131 -91 1766 -91 
Q 1119 -91 703 423 
Q 288 938 288 1747 
Q 288 2556 703 3070 
Q 1119 3584 1766 3584 
Q 2128 3584 2408 3439 
Q 2688 3294 2919 2988 
z
M 2181 722 
Q 2541 722 2730 984 
Q 2919 1247 2919 1747 
Q 2919 2247 2730 2509 
Q 2541 2772 2181 2772 
Q 1825 2772 1636 2509 
Q 1447 2247 1447 1747 
Q 1447 1247 1636 984 
Q 1825 722 2181 722 
z
" transform="scale(0.015625)"/>
      <path id="DejaVuSans-Bold-69" d="M 538 3500 
L 1656 3500 
L 1656 0 
L 538 0 
L 538 3500 
z
M 538 4863 
L 1656 4863 
L 1656 3950 
L 538 3950 
L 538 4863 
z
" transform="scale(0.015625)"/>
      <path id="DejaVuSans-Bold-67" d="M 2919 594 
Q 2688 288 2409 144 
Q 2131 0 1766 0 
Q 1125 0 706 504 
Q 288 1009 288 1791 
Q 288 2575 706 3076 
Q 1125 3578 1766 3578 
Q 2131 3578 2409 3434 
Q 2688 3291 2919 2981 
L 2919 3500 
L 4044 3500 
L 4044 353 
Q 4044 -491 3511 -936 
Q 2978 -1381 1966 -1381 
Q 1638 -1381 1331 -1331 
Q 1025 -1281 716 -1178 
L 716 -306 
Q 1009 -475 1290 -558 
Q 1572 -641 1856 -641 
Q 2406 -641 2662 -400 
Q 2919 -159 2919 353 
L 2919 594 
z
M 2181 2772 
Q 1834 2772 1640 2515 
Q 1447 2259 1447 1791 
Q 1447 1309 1634 1061 
Q 1822 813 2181 813 
Q 2531 813 2725 1069 
Q 2919 1325 2919 1791 
Q 2919 2259 2725 2515 
Q 2531 2772 2181 2772 
z
" transform="scale(0.015625)"/>
     </defs>
     <use xlink:href="#DejaVuSans-Bold-54"/>
     <use xlink:href="#DejaVuSans-Bold-61" transform="translate(55.337891 0)"/>
     <use xlink:href="#DejaVuSans-Bold-6b" transform="translate(122.818359 0)"/>
     <use xlink:href="#DejaVuSans-Bold-65" transform="translate(186.697266 0)"/>
     <use xlink:href="#DejaVuSans-Bold-6f" transform="translate(254.519531 0)"/>
     <use xlink:href="#DejaVuSans-Bold-66" transform="translate(323.220703 0)"/>
     <use xlink:href="#DejaVuSans-Bold-66" transform="translate(366.726562 0)"/>
     <use xlink:href="#DejaVuSans-Bold-20" transform="translate(410.232422 0)"/>
     <use xlink:href="#DejaVuSans-Bold-2f" transform="translate(445.046875 0)"/>
     <use xlink:href="#DejaVuSans-Bold-20" transform="translate(481.570312 0)"/>
     <use xlink:href="#DejaVuSans-Bold-4c" transform="translate(516.384766 0)"/>
     <use xlink:href="#DejaVuSans-Bold-61" transform="translate(580.105469 0)"/>
     <use xlink:href="#DejaVuSans-Bold-6e" transform="translate(647.585938 0)"/>
     <use xlink:href="#DejaVuSans-Bold-64" transform="translate(718.777344 0)"/>
     <use xlink:href="#DejaVuSans-Bold-69" transform="translate(790.359375 0)"/>
     <use xlink:href="#DejaVuSans-Bold-6e" transform="translate(824.636719 0)"/>
     <use xlink:href="#DejaVuSans-Bold-67" transform="translate(895.828125 0)"/>
    </g>
   </g>
   <g id="text_29">
    <!-- Hover / Return-to-Home -->
    <g transform="translate(729.655386 465.277339) scale(0.14 -0.14)">
     <defs>
      <path id="DejaVuSans-Bold-48" d="M 588 4666 
L 1791 4666 
L 1791 2888 
L 3566 2888 
L 3566 4666 
L 4769 4666 
L 4769 0 
L 3566 0 
L 3566 1978 
L 1791 1978 
L 1791 0 
L 588 0 
L 588 4666 
z
" transform="scale(0.015625)"/>
      <path id="DejaVuSans-Bold-76" d="M 97 3500 
L 1216 3500 
L 2088 1081 
L 2956 3500 
L 4078 3500 
L 2700 0 
L 1472 0 
L 97 3500 
z
" transform="scale(0.015625)"/>
      <path id="DejaVuSans-Bold-72" d="M 3138 2547 
Q 2991 2616 2845 2648 
Q 2700 2681 2553 2681 
Q 2122 2681 1889 2404 
Q 1656 2128 1656 1613 
L 1656 0 
L 538 0 
L 538 3500 
L 1656 3500 
L 1656 2925 
Q 1872 3269 2151 3426 
Q 2431 3584 2822 3584 
Q 2878 3584 2943 3579 
Q 3009 3575 3134 3559 
L 3138 2547 
z
" transform="scale(0.015625)"/>
      <path id="DejaVuSans-Bold-52" d="M 2297 2597 
Q 2675 2597 2839 2737 
Q 3003 2878 3003 3200 
Q 3003 3519 2839 3656 
Q 2675 3794 2297 3794 
L 1791 3794 
L 1791 2597 
L 2297 2597 
z
M 1791 1766 
L 1791 0 
L 588 0 
L 588 4666 
L 2425 4666 
Q 3347 4666 3776 4356 
Q 4206 4047 4206 3378 
Q 4206 2916 3982 2619 
Q 3759 2322 3309 2181 
Q 3556 2125 3751 1926 
Q 3947 1728 4147 1325 
L 4800 0 
L 3519 0 
L 2950 1159 
Q 2778 1509 2601 1637 
Q 2425 1766 2131 1766 
L 1791 1766 
z
" transform="scale(0.015625)"/>
      <path id="DejaVuSans-Bold-74" d="M 1759 4494 
L 1759 3500 
L 2913 3500 
L 2913 2700 
L 1759 2700 
L 1759 1216 
Q 1759 972 1856 886 
Q 1953 800 2241 800 
L 2816 800 
L 2816 0 
L 1856 0 
Q 1194 0 917 276 
Q 641 553 641 1216 
L 641 2700 
L 84 2700 
L 84 3500 
L 641 3500 
L 641 4494 
L 1759 4494 
z
" transform="scale(0.015625)"/>
      <path id="DejaVuSans-Bold-75" d="M 500 1363 
L 500 3500 
L 1625 3500 
L 1625 3150 
Q 1625 2866 1622 2436 
Q 1619 2006 1619 1863 
Q 1619 1441 1641 1255 
Q 1663 1069 1716 984 
Q 1784 875 1895 815 
Q 2006 756 2150 756 
Q 2500 756 2700 1025 
Q 2900 1294 2900 1772 
L 2900 3500 
L 4019 3500 
L 4019 0 
L 2900 0 
L 2900 506 
Q 2647 200 2364 54 
Q 2081 -91 1741 -91 
Q 1134 -91 817 281 
Q 500 653 500 1363 
z
" transform="scale(0.015625)"/>
      <path id="DejaVuSans-Bold-2d" d="M 347 2297 
L 2309 2297 
L 2309 1388 
L 347 1388 
L 347 2297 
z
" transform="scale(0.015625)"/>
      <path id="DejaVuSans-Bold-6d" d="M 3781 2919 
Q 3994 3244 4286 3414 
Q 4578 3584 4928 3584 
Q 5531 3584 5847 3212 
Q 6163 2841 6163 2131 
L 6163 0 
L 5038 0 
L 5038 1825 
Q 5041 1866 5042 1909 
Q 5044 1953 5044 2034 
Q 5044 2406 4934 2573 
Q 4825 2741 4581 2741 
Q 4263 2741 4089 2478 
Q 3916 2216 3909 1719 
L 3909 0 
L 2784 0 
L 2784 1825 
Q 2784 2406 2684 2573 
Q 2584 2741 2328 2741 
Q 2006 2741 1831 2477 
Q 1656 2213 1656 1722 
L 1656 0 
L 531 0 
L 531 3500 
L 1656 3500 
L 1656 2988 
Q 1863 3284 2130 3434 
Q 2397 3584 2719 3584 
Q 3081 3584 3359 3409 
Q 3638 3234 3781 2919 
z
" transform="scale(0.015625)"/>
     </defs>
     <use xlink:href="#DejaVuSans-Bold-48"/>
     <use xlink:href="#DejaVuSans-Bold-6f" transform="translate(83.691406 0)"/>
     <use xlink:href="#DejaVuSans-Bold-76" transform="translate(152.392578 0)"/>
     <use xlink:href="#DejaVuSans-Bold-65" transform="translate(217.578125 0)"/>
     <use xlink:href="#DejaVuSans-Bold-72" transform="translate(285.400391 0)"/>
     <use xlink:href="#DejaVuSans-Bold-20" transform="translate(334.716797 0)"/>
     <use xlink:href="#DejaVuSans-Bold-2f" transform="translate(369.53125 0)"/>
     <use xlink:href="#DejaVuSans-Bold-20" transform="translate(406.054688 0)"/>
     <use xlink:href="#DejaVuSans-Bold-52" transform="translate(440.869141 0)"/>
     <use xlink:href="#DejaVuSans-Bold-65" transform="translate(517.871094 0)"/>
     <use xlink:href="#DejaVuSans-Bold-74" transform="translate(585.693359 0)"/>
     <use xlink:href="#DejaVuSans-Bold-75" transform="translate(633.496094 0)"/>
     <use xlink:href="#DejaVuSans-Bold-72" transform="translate(704.6875 0)"/>
     <use xlink:href="#DejaVuSans-Bold-6e" transform="translate(754.003906 0)"/>
     <use xlink:href="#DejaVuSans-Bold-2d" transform="translate(825.195312 0)"/>
     <use xlink:href="#DejaVuSans-Bold-74" transform="translate(866.699219 0)"/>
     <use xlink:href="#DejaVuSans-Bold-6f" transform="translate(914.501953 0)"/>
     <use xlink:href="#DejaVuSans-Bold-2d" transform="translate(983.203125 0)"/>
     <use xlink:href="#DejaVuSans-Bold-48" transform="translate(1024.707031 0)"/>
     <use xlink:href="#DejaVuSans-Bold-6f" transform="translate(1108.398438 0)"/>
     <use xlink:href="#DejaVuSans-Bold-6d" transform="translate(1177.099609 0)"/>
     <use xlink:href="#DejaVuSans-Bold-65" transform="translate(1281.298828 0)"/>
    </g>
   </g>
   <g id="text_30">
    <!-- Coord 1 -->
    <g transform="translate(690.882468 481.619171) scale(0.14 -0.14)">
     <defs>
      <path id="DejaVuSans-Bold-43" d="M 4288 256 
Q 3956 84 3597 -3 
Q 3238 -91 2847 -91 
Q 1681 -91 1000 561 
Q 319 1213 319 2328 
Q 319 3447 1000 4098 
Q 1681 4750 2847 4750 
Q 3238 4750 3597 4662 
Q 3956 4575 4288 4403 
L 4288 3438 
Q 3953 3666 3628 3772 
Q 3303 3878 2944 3878 
Q 2300 3878 1931 3465 
Q 1563 3053 1563 2328 
Q 1563 1606 1931 1193 
Q 2300 781 2944 781 
Q 3303 781 3628 887 
Q 3953 994 4288 1222 
L 4288 256 
z
" transform="scale(0.015625)"/>
      <path id="DejaVuSans-Bold-31" d="M 750 831 
L 1813 831 
L 1813 3847 
L 722 3622 
L 722 4441 
L 1806 4666 
L 2950 4666 
L 2950 831 
L 4013 831 
L 4013 0 
L 750 0 
L 750 831 
z
" transform="scale(0.015625)"/>
     </defs>
     <use xlink:href="#DejaVuSans-Bold-43"/>
     <use xlink:href="#DejaVuSans-Bold-6f" transform="translate(73.388672 0)"/>
     <use xlink:href="#DejaVuSans-Bold-6f" transform="translate(142.089844 0)"/>
     <use xlink:href="#DejaVuSans-Bold-72" transform="translate(210.791016 0)"/>
     <use xlink:href="#DejaVuSans-Bold-64" transform="translate(260.107422 0)"/>
     <use xlink:href="#DejaVuSans-Bold-20" transform="translate(331.689453 0)"/>
     <use xlink:href="#DejaVuSans-Bold-31" transform="translate(366.503906 0)"/>
    </g>
   </g>
   <g id="text_31">
    <!-- Coord 2 -->
    <g transform="translate(570.35728 431.343492) scale(0.14 -0.14)">
     <defs>
      <path id="DejaVuSans-Bold-32" d="M 1844 884 
L 3897 884 
L 3897 0 
L 506 0 
L 506 884 
L 2209 2388 
Q 2438 2594 2547 2791 
Q 2656 2988 2656 3200 
Q 2656 3528 2436 3728 
Q 2216 3928 1850 3928 
Q 1569 3928 1234 3808 
Q 900 3688 519 3450 
L 519 4475 
Q 925 4609 1322 4679 
Q 1719 4750 2100 4750 
Q 2938 4750 3402 4381 
Q 3866 4013 3866 3353 
Q 3866 2972 3669 2642 
Q 3472 2313 2841 1759 
L 1844 884 
z
" transform="scale(0.015625)"/>
     </defs>
     <use xlink:href="#DejaVuSans-Bold-43"/>
     <use xlink:href="#DejaVuSans-Bold-6f" transform="translate(73.388672 0)"/>
     <use xlink:href="#DejaVuSans-Bold-6f" transform="translate(142.089844 0)"/>
     <use xlink:href="#DejaVuSans-Bold-72" transform="translate(210.791016 0)"/>
     <use xlink:href="#DejaVuSans-Bold-64" transform="translate(260.107422 0)"/>
     <use xlink:href="#DejaVuSans-Bold-20" transform="translate(331.689453 0)"/>
     <use xlink:href="#DejaVuSans-Bold-32" transform="translate(366.503906 0)"/>
    </g>
   </g>
   <g id="text_32">
    <!-- Coord 3 -->
    <g transform="translate(609.127089 415.672086) scale(0.14 -0.14)">
     <defs>
      <path id="DejaVuSans-Bold-33" d="M 2981 2516 
Q 3453 2394 3698 2092 
Q 3944 1791 3944 1325 
Q 3944 631 3412 270 
Q 2881 -91 1863 -91 
Q 1503 -91 1142 -33 
Q 781 25 428 141 
L 428 1069 
Q 766 900 1098 814 
Q 1431 728 1753 728 
Q 2231 728 2486 893 
Q 2741 1059 2741 1369 
Q 2741 1688 2480 1852 
Q 2219 2016 1709 2016 
L 1228 2016 
L 1228 2791 
L 1734 2791 
Q 2188 2791 2409 2933 
Q 2631 3075 2631 3366 
Q 2631 3634 2415 3781 
Q 2200 3928 1806 3928 
Q 1516 3928 1219 3862 
Q 922 3797 628 3669 
L 628 4550 
Q 984 4650 1334 4700 
Q 1684 4750 2022 4750 
Q 2931 4750 3382 4451 
Q 3834 4153 3834 3553 
Q 3834 3144 3618 2883 
Q 3403 2622 2981 2516 
z
" transform="scale(0.015625)"/>
     </defs>
     <use xlink:href="#DejaVuSans-Bold-43"/>
     <use xlink:href="#DejaVuSans-Bold-6f" transform="translate(73.388672 0)"/>
     <use xlink:href="#DejaVuSans-Bold-6f" transform="translate(142.089844 0)"/>
     <use xlink:href="#DejaVuSans-Bold-72" transform="translate(210.791016 0)"/>
     <use xlink:href="#DejaVuSans-Bold-64" transform="translate(260.107422 0)"/>
     <use xlink:href="#DejaVuSans-Bold-20" transform="translate(331.689453 0)"/>
     <use xlink:href="#DejaVuSans-Bold-33" transform="translate(366.503906 0)"/>
    </g>
   </g>
   <g id="text_33">
    <!-- 3D Flight Visualization: State Estimate Flight Path vs. Ideal -->
    <g transform="translate(384.201563 24.48) scale(0.18 -0.18)">
     <defs>
      <path id="DejaVuSans-44" d="M 1259 4147 
L 1259 519 
L 2022 519 
Q 2988 519 3436 956 
Q 3884 1394 3884 2338 
Q 3884 3275 3436 3711 
Q 2988 4147 2022 4147 
L 1259 4147 
z
M 628 4666 
L 1925 4666 
Q 3281 4666 3915 4102 
Q 4550 3538 4550 2338 
Q 4550 1131 3912 565 
Q 3275 0 1925 0 
L 628 0 
L 628 4666 
z
" transform="scale(0.015625)"/>
      <path id="DejaVuSans-46" d="M 628 4666 
L 3309 4666 
L 3309 4134 
L 1259 4134 
L 1259 2759 
L 3109 2759 
L 3109 2228 
L 1259 2228 
L 1259 0 
L 628 0 
L 628 4666 
z
" transform="scale(0.015625)"/>
      <path id="DejaVuSans-6c" d="M 603 4863 
L 1178 4863 
L 1178 0 
L 603 0 
L 603 4863 
z
" transform="scale(0.015625)"/>
      <path id="DejaVuSans-69" d="M 603 3500 
L 1178 3500 
L 1178 0 
L 603 0 
L 603 3500 
z
M 603 4863 
L 1178 4863 
L 1178 4134 
L 603 4134 
L 603 4863 
z
" transform="scale(0.015625)"/>
      <path id="DejaVuSans-67" d="M 2906 1791 
Q 2906 2416 2648 2759 
Q 2391 3103 1925 3103 
Q 1463 3103 1205 2759 
Q 947 2416 947 1791 
Q 947 1169 1205 825 
Q 1463 481 1925 481 
Q 2391 481 2648 825 
Q 2906 1169 2906 1791 
z
M 3481 434 
Q 3481 -459 3084 -895 
Q 2688 -1331 1869 -1331 
Q 1566 -1331 1297 -1286 
Q 1028 -1241 775 -1147 
L 775 -588 
Q 1028 -725 1275 -790 
Q 1522 -856 1778 -856 
Q 2344 -856 2625 -561 
Q 2906 -266 2906 331 
L 2906 616 
Q 2728 306 2450 153 
Q 2172 0 1784 0 
Q 1141 0 747 490 
Q 353 981 353 1791 
Q 353 2603 747 3093 
Q 1141 3584 1784 3584 
Q 2172 3584 2450 3431 
Q 2728 3278 2906 2969 
L 2906 3500 
L 3481 3500 
L 3481 434 
z
" transform="scale(0.015625)"/>
      <path id="DejaVuSans-68" d="M 3513 2113 
L 3513 0 
L 2938 0 
L 2938 2094 
Q 2938 2591 2744 2837 
Q 2550 3084 2163 3084 
Q 1697 3084 1428 2787 
Q 1159 2491 1159 1978 
L 1159 0 
L 581 0 
L 581 4863 
L 1159 4863 
L 1159 2956 
Q 1366 3272 1645 3428 
Q 1925 3584 2291 3584 
Q 2894 3584 3203 3211 
Q 3513 2838 3513 2113 
z
" transform="scale(0.015625)"/>
      <path id="DejaVuSans-74" d="M 1172 4494 
L 1172 3500 
L 2356 3500 
L 2356 3053 
L 1172 3053 
L 1172 1153 
Q 1172 725 1289 603 
Q 1406 481 1766 481 
L 2356 481 
L 2356 0 
L 1766 0 
Q 1100 0 847 248 
Q 594 497 594 1153 
L 594 3053 
L 172 3053 
L 172 3500 
L 594 3500 
L 594 4494 
L 1172 4494 
z
" transform="scale(0.015625)"/>
      <path id="DejaVuSans-56" d="M 1831 0 
L 50 4666 
L 709 4666 
L 2188 738 
L 3669 4666 
L 4325 4666 
L 2547 0 
L 1831 0 
z
" transform="scale(0.015625)"/>
      <path id="DejaVuSans-73" d="M 2834 3397 
L 2834 2853 
Q 2591 2978 2328 3040 
Q 2066 3103 1784 3103 
Q 1356 3103 1142 2972 
Q 928 2841 928 2578 
Q 928 2378 1081 2264 
Q 1234 2150 1697 2047 
L 1894 2003 
Q 2506 1872 2764 1633 
Q 3022 1394 3022 966 
Q 3022 478 2636 193 
Q 2250 -91 1575 -91 
Q 1294 -91 989 -36 
Q 684 19 347 128 
L 347 722 
Q 666 556 975 473 
Q 1284 391 1588 391 
Q 1994 391 2212 530 
Q 2431 669 2431 922 
Q 2431 1156 2273 1281 
Q 2116 1406 1581 1522 
L 1381 1569 
Q 847 1681 609 1914 
Q 372 2147 372 2553 
Q 372 3047 722 3315 
Q 1072 3584 1716 3584 
Q 2034 3584 2315 3537 
Q 2597 3491 2834 3397 
z
" transform="scale(0.015625)"/>
      <path id="DejaVuSans-75" d="M 544 1381 
L 544 3500 
L 1119 3500 
L 1119 1403 
Q 1119 906 1312 657 
Q 1506 409 1894 409 
Q 2359 409 2629 706 
Q 2900 1003 2900 1516 
L 2900 3500 
L 3475 3500 
L 3475 0 
L 2900 0 
L 2900 538 
Q 2691 219 2414 64 
Q 2138 -91 1772 -91 
Q 1169 -91 856 284 
Q 544 659 544 1381 
z
M 1991 3584 
L 1991 3584 
z
" transform="scale(0.015625)"/>
      <path id="DejaVuSans-61" d="M 2194 1759 
Q 1497 1759 1228 1600 
Q 959 1441 959 1056 
Q 959 750 1161 570 
Q 1363 391 1709 391 
Q 2188 391 2477 730 
Q 2766 1069 2766 1631 
L 2766 1759 
L 2194 1759 
z
M 3341 1997 
L 3341 0 
L 2766 0 
L 2766 531 
Q 2569 213 2275 61 
Q 1981 -91 1556 -91 
Q 1019 -91 701 211 
Q 384 513 384 1019 
Q 384 1609 779 1909 
Q 1175 2209 1959 2209 
L 2766 2209 
L 2766 2266 
Q 2766 2663 2505 2880 
Q 2244 3097 1772 3097 
Q 1472 3097 1187 3025 
Q 903 2953 641 2809 
L 641 3341 
Q 956 3463 1253 3523 
Q 1550 3584 1831 3584 
Q 2591 3584 2966 3190 
Q 3341 2797 3341 1997 
z
" transform="scale(0.015625)"/>
      <path id="DejaVuSans-7a" d="M 353 3500 
L 3084 3500 
L 3084 2975 
L 922 459 
L 3084 459 
L 3084 0 
L 275 0 
L 275 525 
L 2438 3041 
L 353 3041 
L 353 3500 
z
" transform="scale(0.015625)"/>
      <path id="DejaVuSans-6f" d="M 1959 3097 
Q 1497 3097 1228 2736 
Q 959 2375 959 1747 
Q 959 1119 1226 758 
Q 1494 397 1959 397 
Q 2419 397 2687 759 
Q 2956 1122 2956 1747 
Q 2956 2369 2687 2733 
Q 2419 3097 1959 3097 
z
M 1959 3584 
Q 2709 3584 3137 3096 
Q 3566 2609 3566 1747 
Q 3566 888 3137 398 
Q 2709 -91 1959 -91 
Q 1206 -91 779 398 
Q 353 888 353 1747 
Q 353 2609 779 3096 
Q 1206 3584 1959 3584 
z
" transform="scale(0.015625)"/>
      <path id="DejaVuSans-6e" d="M 3513 2113 
L 3513 0 
L 2938 0 
L 2938 2094 
Q 2938 2591 2744 2837 
Q 2550 3084 2163 3084 
Q 1697 3084 1428 2787 
Q 1159 2491 1159 1978 
L 1159 0 
L 581 0 
L 581 3500 
L 1159 3500 
L 1159 2956 
Q 1366 3272 1645 3428 
Q 1925 3584 2291 3584 
Q 2894 3584 3203 3211 
Q 3513 2838 3513 2113 
z
" transform="scale(0.015625)"/>
      <path id="DejaVuSans-3a" d="M 750 794 
L 1409 794 
L 1409 0 
L 750 0 
L 750 794 
z
M 750 3309 
L 1409 3309 
L 1409 2516 
L 750 2516 
L 750 3309 
z
" transform="scale(0.015625)"/>
      <path id="DejaVuSans-53" d="M 3425 4513 
L 3425 3897 
Q 3066 4069 2747 4153 
Q 2428 4238 2131 4238 
Q 1616 4238 1336 4038 
Q 1056 3838 1056 3469 
Q 1056 3159 1242 3001 
Q 1428 2844 1947 2747 
L 2328 2669 
Q 3034 2534 3370 2195 
Q 3706 1856 3706 1288 
Q 3706 609 3251 259 
Q 2797 -91 1919 -91 
Q 1588 -91 1214 -16 
Q 841 59 441 206 
L 441 856 
Q 825 641 1194 531 
Q 1563 422 1919 422 
Q 2459 422 2753 634 
Q 3047 847 3047 1241 
Q 3047 1584 2836 1778 
Q 2625 1972 2144 2069 
L 1759 2144 
Q 1053 2284 737 2584 
Q 422 2884 422 3419 
Q 422 4038 858 4394 
Q 1294 4750 2059 4750 
Q 2388 4750 2728 4690 
Q 3069 4631 3425 4513 
z
" transform="scale(0.015625)"/>
      <path id="DejaVuSans-65" d="M 3597 1894 
L 3597 1613 
L 953 1613 
Q 991 1019 1311 708 
Q 1631 397 2203 397 
Q 2534 397 2845 478 
Q 3156 559 3463 722 
L 3463 178 
Q 3153 47 2828 -22 
Q 2503 -91 2169 -91 
Q 1331 -91 842 396 
Q 353 884 353 1716 
Q 353 2575 817 3079 
Q 1281 3584 2069 3584 
Q 2775 3584 3186 3129 
Q 3597 2675 3597 1894 
z
M 3022 2063 
Q 3016 2534 2758 2815 
Q 2500 3097 2075 3097 
Q 1594 3097 1305 2825 
Q 1016 2553 972 2059 
L 3022 2063 
z
" transform="scale(0.015625)"/>
      <path id="DejaVuSans-45" d="M 628 4666 
L 3578 4666 
L 3578 4134 
L 1259 4134 
L 1259 2753 
L 3481 2753 
L 3481 2222 
L 1259 2222 
L 1259 531 
L 3634 531 
L 3634 0 
L 628 0 
L 628 4666 
z
" transform="scale(0.015625)"/>
      <path id="DejaVuSans-50" d="M 1259 4147 
L 1259 2394 
L 2053 2394 
Q 2494 2394 2734 2622 
Q 2975 2850 2975 3272 
Q 2975 3691 2734 3919 
Q 2494 4147 2053 4147 
L 1259 4147 
z
M 628 4666 
L 2053 4666 
Q 2838 4666 3239 4311 
Q 3641 3956 3641 3272 
Q 3641 2581 3239 2228 
Q 2838 1875 2053 1875 
L 1259 1875 
L 1259 0 
L 628 0 
L 628 4666 
z
" transform="scale(0.015625)"/>
      <path id="DejaVuSans-76" d="M 191 3500 
L 800 3500 
L 1894 563 
L 2988 3500 
L 3597 3500 
L 2284 0 
L 1503 0 
L 191 3500 
z
" transform="scale(0.015625)"/>
      <path id="DejaVuSans-49" d="M 628 4666 
L 1259 4666 
L 1259 0 
L 628 0 
L 628 4666 
z
" transform="scale(0.015625)"/>
      <path id="DejaVuSans-64" d="M 2906 2969 
L 2906 4863 
L 3481 4863 
L 3481 0 
L 2906 0 
L 2906 525 
Q 2725 213 2448 61 
Q 2172 -91 1784 -91 
Q 1150 -91 751 415 
Q 353 922 353 1747 
Q 353 2572 751 3078 
Q 1150 3584 1784 3584 
Q 2172 3584 2448 3432 
Q 2725 3281 2906 2969 
z
M 947 1747 
Q 947 1113 1208 752 
Q 1469 391 1925 391 
Q 2381 391 2643 752 
Q 2906 1113 2906 1747 
Q 2906 2381 2643 2742 
Q 2381 3103 1925 3103 
Q 1469 3103 1208 2742 
Q 947 2381 947 1747 
z
" transform="scale(0.015625)"/>
     </defs>
     <use xlink:href="#DejaVuSans-33"/>
     <use xlink:href="#DejaVuSans-44" transform="translate(63.623047 0)"/>
     <use xlink:href="#DejaVuSans-20" transform="translate(140.625 0)"/>
     <use xlink:href="#DejaVuSans-46" transform="translate(172.412109 0)"/>
     <use xlink:href="#DejaVuSans-6c" transform="translate(229.931641 0)"/>
     <use xlink:href="#DejaVuSans-69" transform="translate(257.714844 0)"/>
     <use xlink:href="#DejaVuSans-67" transform="translate(285.498047 0)"/>
     <use xlink:href="#DejaVuSans-68" transform="translate(348.974609 0)"/>
     <use xlink:href="#DejaVuSans-74" transform="translate(412.353516 0)"/>
     <use xlink:href="#DejaVuSans-20" transform="translate(451.5625 0)"/>
     <use xlink:href="#DejaVuSans-56" transform="translate(483.349609 0)"/>
     <use xlink:href="#DejaVuSans-69" transform="translate(549.507812 0)"/>
     <use xlink:href="#DejaVuSans-73" transform="translate(577.291016 0)"/>
     <use xlink:href="#DejaVuSans-75" transform="translate(629.390625 0)"/>
     <use xlink:href="#DejaVuSans-61" transform="translate(692.769531 0)"/>
     <use xlink:href="#DejaVuSans-6c" transform="translate(754.048828 0)"/>
     <use xlink:href="#DejaVuSans-69" transform="translate(781.832031 0)"/>
     <use xlink:href="#DejaVuSans-7a" transform="translate(809.615234 0)"/>
     <use xlink:href="#DejaVuSans-61" transform="translate(862.105469 0)"/>
     <use xlink:href="#DejaVuSans-74" transform="translate(923.384766 0)"/>
     <use xlink:href="#DejaVuSans-69" transform="translate(962.59375 0)"/>
     <use xlink:href="#DejaVuSans-6f" transform="translate(990.376953 0)"/>
     <use xlink:href="#DejaVuSans-6e" transform="translate(1051.558594 0)"/>
     <use xlink:href="#DejaVuSans-3a" transform="translate(1114.9375 0)"/>
     <use xlink:href="#DejaVuSans-20" transform="translate(1148.628906 0)"/>
     <use xlink:href="#DejaVuSans-53" transform="translate(1180.416016 0)"/>
     <use xlink:href="#DejaVuSans-74" transform="translate(1243.892578 0)"/>
     <use xlink:href="#DejaVuSans-61" transform="translate(1283.101562 0)"/>
     <use xlink:href="#DejaVuSans-74" transform="translate(1344.380859 0)"/>
     <use xlink:href="#DejaVuSans-65" transform="translate(1383.589844 0)"/>
     <use xlink:href="#DejaVuSans-20" transform="translate(1445.113281 0)"/>
     <use xlink:href="#DejaVuSans-45" transform="translate(1476.900391 0)"/>
     <use xlink:href="#DejaVuSans-73" transform="translate(1540.083984 0)"/>
     <use xlink:href="#DejaVuSans-74" transform="translate(1592.183594 0)"/>
     <use xlink:href="#DejaVuSans-69" transform="translate(1631.392578 0)"/>
     <use xlink:href="#DejaVuSans-6d" transform="translate(1659.175781 0)"/>
     <use xlink:href="#DejaVuSans-61" transform="translate(1756.587891 0)"/>
     <use xlink:href="#DejaVuSans-74" transform="translate(1817.867188 0)"/>
     <use xlink:href="#DejaVuSans-65" transform="translate(1857.076172 0)"/>
     <use xlink:href="#DejaVuSans-20" transform="translate(1918.599609 0)"/>
     <use xlink:href="#DejaVuSans-46" transform="translate(1950.386719 0)"/>
     <use xlink:href="#DejaVuSans-6c" transform="translate(2007.90625 0)"/>
     <use xlink:href="#DejaVuSans-69" transform="translate(2035.689453 0)"/>
     <use xlink:href="#DejaVuSans-67" transform="translate(2063.472656 0)"/>
     <use xlink:href="#DejaVuSans-68" transform="translate(2126.949219 0)"/>
     <use xlink:href="#DejaVuSans-74" transform="translate(2190.328125 0)"/>
     <use xlink:href="#DejaVuSans-20" transform="translate(2229.537109 0)"/>
     <use xlink:href="#DejaVuSans-50" transform="translate(2261.324219 0)"/>
     <use xlink:href="#DejaVuSans-61" transform="translate(2317.126953 0)"/>
     <use xlink:href="#DejaVuSans-74" transform="translate(2378.40625 0)"/>
     <use xlink:href="#DejaVuSans-68" transform="translate(2417.615234 0)"/>
     <use xlink:href="#DejaVuSans-20" transform="translate(2480.994141 0)"/>
     <use xlink:href="#DejaVuSans-76" transform="translate(2512.78125 0)"/>
     <use xlink:href="#DejaVuSans-73" transform="translate(2571.960938 0)"/>
     <use xlink:href="#DejaVuSans-2e" transform="translate(2624.060547 0)"/>
     <use xlink:href="#DejaVuSans-20" transform="translate(2655.847656 0)"/>
     <use xlink:href="#DejaVuSans-49" transform="translate(2687.634766 0)"/>
     <use xlink:href="#DejaVuSans-64" transform="translate(2717.126953 0)"/>
     <use xlink:href="#DejaVuSans-65" transform="translate(2780.603516 0)"/>
     <use xlink:href="#DejaVuSans-61" transform="translate(2842.126953 0)"/>
     <use xlink:href="#DejaVuSans-6c" transform="translate(2903.40625 0)"/>
    </g>
   </g>
   <g id="legend_1">
    <g id="patch_6">
     <path d="M 928.49625 75.3075 
L 1122.96 75.3075 
Q 1125.36 75.3075 1125.36 72.9075 
L 1125.36 38.88 
Q 1125.36 36.48 1122.96 36.48 
L 928.49625 36.48 
Q 926.09625 36.48 926.09625 38.88 
L 926.09625 72.9075 
Q 926.09625 75.3075 928.49625 75.3075 
z
" style="fill: #ffffff; opacity: 0.8; stroke: #cccccc; stroke-linejoin: miter"/>
    </g>
    <g id="line2d_30">
     <path d="M 930.89625 46.198125 
L 942.89625 46.198125 
L 954.89625 46.198125 
" style="fill: none; stroke: #0000ff; stroke-width: 2; stroke-linecap: square"/>
    </g>
    <g id="text_34">
     <!-- State Estimate Flight Path -->
     <g transform="translate(964.49625 50.398125) scale(0.12 -0.12)">
      <use xlink:href="#DejaVuSans-53"/>
      <use xlink:href="#DejaVuSans-74" transform="translate(63.476562 0)"/>
      <use xlink:href="#DejaVuSans-61" transform="translate(102.685547 0)"/>
      <use xlink:href="#DejaVuSans-74" transform="translate(163.964844 0)"/>
      <use xlink:href="#DejaVuSans-65" transform="translate(203.173828 0)"/>
      <use xlink:href="#DejaVuSans-20" transform="translate(264.697266 0)"/>
      <use xlink:href="#DejaVuSans-45" transform="translate(296.484375 0)"/>
      <use xlink:href="#DejaVuSans-73" transform="translate(359.667969 0)"/>
      <use xlink:href="#DejaVuSans-74" transform="translate(411.767578 0)"/>
      <use xlink:href="#DejaVuSans-69" transform="translate(450.976562 0)"/>
      <use xlink:href="#DejaVuSans-6d" transform="translate(478.759766 0)"/>
      <use xlink:href="#DejaVuSans-61" transform="translate(576.171875 0)"/>
      <use xlink:href="#DejaVuSans-74" transform="translate(637.451172 0)"/>
      <use xlink:href="#DejaVuSans-65" transform="translate(676.660156 0)"/>
      <use xlink:href="#DejaVuSans-20" transform="translate(738.183594 0)"/>
      <use xlink:href="#DejaVuSans-46" transform="translate(769.970703 0)"/>
      <use xlink:href="#DejaVuSans-6c" transform="translate(827.490234 0)"/>
      <use xlink:href="#DejaVuSans-69" transform="translate(855.273438 0)"/>
      <use xlink:href="#DejaVuSans-67" transform="translate(883.056641 0)"/>
      <use xlink:href="#DejaVuSans-68" transform="translate(946.533203 0)"/>
      <use xlink:href="#DejaVuSans-74" transform="translate(1009.912109 0)"/>
      <use xlink:href="#DejaVuSans-20" transform="translate(1049.121094 0)"/>
      <use xlink:href="#DejaVuSans-50" transform="translate(1080.908203 0)"/>
      <use xlink:href="#DejaVuSans-61" transform="translate(1136.710938 0)"/>
      <use xlink:href="#DejaVuSans-74" transform="translate(1197.990234 0)"/>
      <use xlink:href="#DejaVuSans-68" transform="translate(1237.199219 0)"/>
     </g>
    </g>
    <g id="line2d_31">
     <path d="M 930.89625 63.811875 
L 942.89625 63.811875 
L 954.89625 63.811875 
" style="fill: none; stroke-dasharray: 7.4,3.2; stroke-dashoffset: 0; stroke: #008000; stroke-width: 2"/>
    </g>
    <g id="text_35">
     <!-- Ideal Waypoints Path -->
     <g transform="translate(964.49625 68.011875) scale(0.12 -0.12)">
      <defs>
       <path id="DejaVuSans-57" d="M 213 4666 
L 850 4666 
L 1831 722 
L 2809 4666 
L 3519 4666 
L 4500 722 
L 5478 4666 
L 6119 4666 
L 4947 0 
L 4153 0 
L 3169 4050 
L 2175 0 
L 1381 0 
L 213 4666 
z
" transform="scale(0.015625)"/>
       <path id="DejaVuSans-79" d="M 2059 -325 
Q 1816 -950 1584 -1140 
Q 1353 -1331 966 -1331 
L 506 -1331 
L 506 -850 
L 844 -850 
Q 1081 -850 1212 -737 
Q 1344 -625 1503 -206 
L 1606 56 
L 191 3500 
L 800 3500 
L 1894 763 
L 2988 3500 
L 3597 3500 
L 2059 -325 
z
" transform="scale(0.015625)"/>
       <path id="DejaVuSans-70" d="M 1159 525 
L 1159 -1331 
L 581 -1331 
L 581 3500 
L 1159 3500 
L 1159 2969 
Q 1341 3281 1617 3432 
Q 1894 3584 2278 3584 
Q 2916 3584 3314 3078 
Q 3713 2572 3713 1747 
Q 3713 922 3314 415 
Q 2916 -91 2278 -91 
Q 1894 -91 1617 61 
Q 1341 213 1159 525 
z
M 3116 1747 
Q 3116 2381 2855 2742 
Q 2594 3103 2138 3103 
Q 1681 3103 1420 2742 
Q 1159 2381 1159 1747 
Q 1159 1113 1420 752 
Q 1681 391 2138 391 
Q 2594 391 2855 752 
Q 3116 1113 3116 1747 
z
" transform="scale(0.015625)"/>
      </defs>
      <use xlink:href="#DejaVuSans-49"/>
      <use xlink:href="#DejaVuSans-64" transform="translate(29.492188 0)"/>
      <use xlink:href="#DejaVuSans-65" transform="translate(92.96875 0)"/>
      <use xlink:href="#DejaVuSans-61" transform="translate(154.492188 0)"/>
      <use xlink:href="#DejaVuSans-6c" transform="translate(215.771484 0)"/>
      <use xlink:href="#DejaVuSans-20" transform="translate(243.554688 0)"/>
      <use xlink:href="#DejaVuSans-57" transform="translate(275.341797 0)"/>
      <use xlink:href="#DejaVuSans-61" transform="translate(367.84375 0)"/>
      <use xlink:href="#DejaVuSans-79" transform="translate(429.123047 0)"/>
      <use xlink:href="#DejaVuSans-70" transform="translate(488.302734 0)"/>
      <use xlink:href="#DejaVuSans-6f" transform="translate(551.779297 0)"/>
      <use xlink:href="#DejaVuSans-69" transform="translate(612.960938 0)"/>
      <use xlink:href="#DejaVuSans-6e" transform="translate(640.744141 0)"/>
      <use xlink:href="#DejaVuSans-74" transform="translate(704.123047 0)"/>
      <use xlink:href="#DejaVuSans-73" transform="translate(743.332031 0)"/>
      <use xlink:href="#DejaVuSans-20" transform="translate(795.431641 0)"/>
      <use xlink:href="#DejaVuSans-50" transform="translate(827.21875 0)"/>
      <use xlink:href="#DejaVuSans-61" transform="translate(883.021484 0)"/>
      <use xlink:href="#DejaVuSans-74" transform="translate(944.300781 0)"/>
      <use xlink:href="#DejaVuSans-68" transform="translate(983.509766 0)"/>
     </g>
    </g>
   </g>
  </g>
 </g>
 <defs>
  <clipPath id="pe5c6b1f4de">
   <rect x="164.64" y="30.48" width="966.72" height="966.72"/>
  </clipPath>
 </defs>
</svg>
