<?xml version="1.0" encoding="utf-8" standalone="no"?>
<!DOCTYPE svg PUBLIC "-//W3C//DTD SVG 1.1//EN"
  "http://www.w3.org/Graphics/SVG/1.1/DTD/svg11.dtd">
<svg xmlns:xlink="http://www.w3.org/1999/xlink" width="1296pt" height="1008pt" viewBox="0 0 1296 1008" xmlns="http://www.w3.org/2000/svg" version="1.1">
 <metadata>
  <rdf:RDF xmlns:dc="http://purl.org/dc/elements/1.1/" xmlns:cc="http://creativecommons.org/ns#" xmlns:rdf="http://www.w3.org/1999/02/22-rdf-syntax-ns#">
   <cc:Work>
    <dc:type rdf:resource="http://purl.org/dc/dcmitype/StillImage"/>
    <dc:date>2025-07-30T18:41:02.597606</dc:date>
    <dc:format>image/svg+xml</dc:format>
    <dc:creator>
     <cc:Agent>
      <dc:title>Matplotlib v3.10.3, https://matplotlib.org/</dc:title>
     </cc:Agent>
    </dc:creator>
   </cc:Work>
  </rdf:RDF>
 </metadata>
 <defs>
  <style type="text/css">*{stroke-linejoin: round; stroke-linecap: butt}</style>
 </defs>
 <g id="figure_1">
  <g id="patch_1">
   <path d="M 0 1008 
L 1296 1008 
L 1296 0 
L 0 0 
z
" style="fill: #ffffff"/>
  </g>
  <g id="patch_2">
   <path d="M 164.64 997.2 
L 1131.36 997.2 
L 1131.36 30.48 
L 164.64 30.48 
z
" style="fill: #ffffff"/>
  </g>
  <g id="pane3d_1">
   <g id="patch_3">
    <path d="M 661.063784 524.082082 
L 229.328797 708.286308 
L 212.724536 285.285415 
L 661.063784 125.027125 
" style="fill: #f2f2f2; opacity: 0.5; stroke: #f2f2f2; stroke-linejoin: miter"/>
   </g>
  </g>
  <g id="pane3d_2">
   <g id="patch_4">
    <path d="M 1092.798771 708.286308 
L 661.063784 524.082082 
L 661.063784 125.027125 
L 1109.403032 285.285415 
" style="fill: #e6e6e6; opacity: 0.5; stroke: #e6e6e6; stroke-linejoin: miter"/>
   </g>
  </g>
  <g id="pane3d_3">
   <g id="patch_5">
    <path d="M 1092.798771 708.286308 
L 661.063784 524.082082 
L 229.328797 708.286308 
L 661.063784 922.309689 
" style="fill: #ececec; opacity: 0.5; stroke: #ececec; stroke-linejoin: miter"/>
   </g>
  </g>
  <g id="grid3d_1">
   <g id="Line3DCollection_1">
    <path d="M 655.160803 919.383412 
L 1086.928437 705.781669 
L 1103.290819 283.100612 
" style="fill: none; stroke: #b0b0b0; stroke-width: 0.8"/>
    <path d="M 601.884348 892.97275 
L 1033.905889 683.159047 
L 1048.103715 263.374053 
" style="fill: none; stroke: #b0b0b0; stroke-width: 0.8"/>
    <path d="M 549.584441 867.04619 
L 981.783763 660.920599 
L 993.889164 243.995131 
" style="fill: none; stroke: #b0b0b0; stroke-width: 0.8"/>
    <path d="M 498.234477 841.590544 
L 930.539316 639.056623 
L 940.621684 224.954738 
" style="fill: none; stroke: #b0b0b0; stroke-width: 0.8"/>
    <path d="M 447.808806 816.593097 
L 880.150565 617.557738 
L 888.276672 206.244081 
" style="fill: none; stroke: #b0b0b0; stroke-width: 0.8"/>
    <path d="M 398.282695 792.041587 
L 830.596255 596.414875 
L 836.830371 187.854667 
" style="fill: none; stroke: #b0b0b0; stroke-width: 0.8"/>
    <path d="M 349.632287 767.924188 
L 781.855826 575.619264 
L 786.259834 169.778293 
" style="fill: none; stroke: #b0b0b0; stroke-width: 0.8"/>
    <path d="M 301.834558 744.229487 
L 733.909394 555.16242 
L 736.542887 152.007034 
" style="fill: none; stroke: #b0b0b0; stroke-width: 0.8"/>
    <path d="M 254.867286 720.946467 
L 686.737711 535.03613 
L 687.6581 134.533229 
" style="fill: none; stroke: #b0b0b0; stroke-width: 0.8"/>
   </g>
  </g>
  <g id="grid3d_2">
   <g id="Line3DCollection_2">
    <path d="M 603.150493 145.728157 
L 605.165244 547.931776 
L 1037.17327 735.861459 
" style="fill: none; stroke: #b0b0b0; stroke-width: 0.8"/>
    <path d="M 523.351014 174.252378 
L 528.205251 580.767558 
L 960.456823 773.891996 
" style="fill: none; stroke: #b0b0b0; stroke-width: 0.8"/>
    <path d="M 441.334215 203.569178 
L 449.183223 614.483128 
L 881.524854 813.020831 
" style="fill: none; stroke: #b0b0b0; stroke-width: 0.8"/>
    <path d="M 357.006377 233.712056 
L 368.015161 649.114327 
L 800.279982 853.296237 
" style="fill: none; stroke: #b0b0b0; stroke-width: 0.8"/>
    <path d="M 270.268424 264.716426 
L 284.612439 684.698966 
L 716.619036 894.769362 
" style="fill: none; stroke: #b0b0b0; stroke-width: 0.8"/>
   </g>
  </g>
  <g id="grid3d_3">
   <g id="Line3DCollection_3">
    <path d="M 1093.818677 682.303744 
L 661.063784 499.508754 
L 228.308891 682.303744 
" style="fill: none; stroke: #b0b0b0; stroke-width: 0.8"/>
    <path d="M 1095.57534 637.551978 
L 661.063784 457.203178 
L 226.552228 637.551978 
" style="fill: none; stroke: #b0b0b0; stroke-width: 0.8"/>
    <path d="M 1097.346323 592.435413 
L 661.063784 414.577002 
L 224.781245 592.435413 
" style="fill: none; stroke: #b0b0b0; stroke-width: 0.8"/>
    <path d="M 1099.131801 546.949571 
L 661.063784 371.626569 
L 222.995767 546.949571 
" style="fill: none; stroke: #b0b0b0; stroke-width: 0.8"/>
    <path d="M 1100.931953 501.0899 
L 661.063784 328.348165 
L 221.195615 501.0899 
" style="fill: none; stroke: #b0b0b0; stroke-width: 0.8"/>
    <path d="M 1102.746961 454.851771 
L 661.063784 284.738018 
L 219.380607 454.851771 
" style="fill: none; stroke: #b0b0b0; stroke-width: 0.8"/>
    <path d="M 1104.577009 408.23048 
L 661.063784 240.792301 
L 217.550559 408.23048 
" style="fill: none; stroke: #b0b0b0; stroke-width: 0.8"/>
    <path d="M 1106.422285 361.221245 
L 661.063784 196.507124 
L 215.705282 361.221245 
" style="fill: none; stroke: #b0b0b0; stroke-width: 0.8"/>
    <path d="M 1108.282981 313.819204 
L 661.063784 151.878538 
L 213.844587 313.819204 
" style="fill: none; stroke: #b0b0b0; stroke-width: 0.8"/>
   </g>
  </g>
  <g id="axis3d_1">
   <g id="line2d_1">
    <path d="M 229.328797 708.286308 
L 661.063784 922.309689 
" style="fill: none; stroke: #000000; stroke-width: 0.8; stroke-linecap: square"/>
   </g>
   <g id="xtick_1">
    <g id="line2d_2">
     <path d="M 658.891824 917.537622 
L 647.684261 923.082167 
" style="fill: none; stroke: #000000; stroke-width: 0.8; stroke-linecap: square"/>
    </g>
    <g id="text_1">
     <!-- −0.4 -->
     <g transform="translate(632.355824 942.122652) scale(0.1 -0.1)">
      <defs>
       <path id="DejaVuSans-2212" d="M 678 2272 
L 4684 2272 
L 4684 1741 
L 678 1741 
L 678 2272 
z
" transform="scale(0.015625)"/>
       <path id="DejaVuSans-30" d="M 2034 4250 
Q 1547 4250 1301 3770 
Q 1056 3291 1056 2328 
Q 1056 1369 1301 889 
Q 1547 409 2034 409 
Q 2525 409 2770 889 
Q 3016 1369 3016 2328 
Q 3016 3291 2770 3770 
Q 2525 4250 2034 4250 
z
M 2034 4750 
Q 2819 4750 3233 4129 
Q 3647 3509 3647 2328 
Q 3647 1150 3233 529 
Q 2819 -91 2034 -91 
Q 1250 -91 836 529 
Q 422 1150 422 2328 
Q 422 3509 836 4129 
Q 1250 4750 2034 4750 
z
" transform="scale(0.015625)"/>
       <path id="DejaVuSans-2e" d="M 684 794 
L 1344 794 
L 1344 0 
L 684 0 
L 684 794 
z
" transform="scale(0.015625)"/>
       <path id="DejaVuSans-34" d="M 2419 4116 
L 825 1625 
L 2419 1625 
L 2419 4116 
z
M 2253 4666 
L 3047 4666 
L 3047 1625 
L 3713 1625 
L 3713 1100 
L 3047 1100 
L 3047 0 
L 2419 0 
L 2419 1100 
L 313 1100 
L 313 1709 
L 2253 4666 
z
" transform="scale(0.015625)"/>
      </defs>
      <use xlink:href="#DejaVuSans-2212"/>
      <use xlink:href="#DejaVuSans-30" transform="translate(83.789062 0)"/>
      <use xlink:href="#DejaVuSans-2e" transform="translate(147.412109 0)"/>
      <use xlink:href="#DejaVuSans-34" transform="translate(179.199219 0)"/>
     </g>
    </g>
   </g>
   <g id="xtick_2">
    <g id="line2d_3">
     <path d="M 605.615002 891.160937 
L 594.408676 896.603353 
" style="fill: none; stroke: #000000; stroke-width: 0.8; stroke-linecap: square"/>
    </g>
    <g id="text_2">
     <!-- −0.2 -->
     <g transform="translate(579.128782 915.547367) scale(0.1 -0.1)">
      <defs>
       <path id="DejaVuSans-32" d="M 1228 531 
L 3431 531 
L 3431 0 
L 469 0 
L 469 531 
Q 828 903 1448 1529 
Q 2069 2156 2228 2338 
Q 2531 2678 2651 2914 
Q 2772 3150 2772 3378 
Q 2772 3750 2511 3984 
Q 2250 4219 1831 4219 
Q 1534 4219 1204 4116 
Q 875 4013 500 3803 
L 500 4441 
Q 881 4594 1212 4672 
Q 1544 4750 1819 4750 
Q 2544 4750 2975 4387 
Q 3406 4025 3406 3419 
Q 3406 3131 3298 2873 
Q 3191 2616 2906 2266 
Q 2828 2175 2409 1742 
Q 1991 1309 1228 531 
z
" transform="scale(0.015625)"/>
      </defs>
      <use xlink:href="#DejaVuSans-2212"/>
      <use xlink:href="#DejaVuSans-30" transform="translate(83.789062 0)"/>
      <use xlink:href="#DejaVuSans-2e" transform="translate(147.412109 0)"/>
      <use xlink:href="#DejaVuSans-32" transform="translate(179.199219 0)"/>
     </g>
    </g>
   </g>
   <g id="xtick_3">
    <g id="line2d_4">
     <path d="M 553.314116 865.267425 
L 542.110864 870.610508 
" style="fill: none; stroke: #000000; stroke-width: 0.8; stroke-linecap: square"/>
    </g>
    <g id="text_3">
     <!-- 0.0 -->
     <g transform="translate(531.068121 889.459648) scale(0.1 -0.1)">
      <use xlink:href="#DejaVuSans-30"/>
      <use xlink:href="#DejaVuSans-2e" transform="translate(63.623047 0)"/>
      <use xlink:href="#DejaVuSans-30" transform="translate(95.410156 0)"/>
     </g>
    </g>
   </g>
   <g id="xtick_4">
    <g id="line2d_5">
     <path d="M 501.962592 839.84393 
L 490.764154 845.090375 
" style="fill: none; stroke: #000000; stroke-width: 0.8; stroke-linecap: square"/>
    </g>
    <g id="text_4">
     <!-- 0.2 -->
     <g transform="translate(479.767524 863.846201) scale(0.1 -0.1)">
      <use xlink:href="#DejaVuSans-30"/>
      <use xlink:href="#DejaVuSans-2e" transform="translate(63.623047 0)"/>
      <use xlink:href="#DejaVuSans-32" transform="translate(95.410156 0)"/>
     </g>
    </g>
   </g>
   <g id="xtick_5">
    <g id="line2d_6">
     <path d="M 451.534813 814.87777 
L 440.342832 820.030176 
" style="fill: none; stroke: #000000; stroke-width: 0.8; stroke-linecap: square"/>
    </g>
    <g id="text_5">
     <!-- 0.4 -->
     <g transform="translate(429.391163 838.694208) scale(0.1 -0.1)">
      <use xlink:href="#DejaVuSans-30"/>
      <use xlink:href="#DejaVuSans-2e" transform="translate(63.623047 0)"/>
      <use xlink:href="#DejaVuSans-34" transform="translate(95.410156 0)"/>
     </g>
    </g>
   </g>
   <g id="xtick_6">
    <g id="line2d_7">
     <path d="M 402.006078 790.356715 
L 390.822107 795.417587 
" style="fill: none; stroke: #000000; stroke-width: 0.8; stroke-linecap: square"/>
    </g>
    <g id="text_6">
     <!-- 0.6 -->
     <g transform="translate(379.914285 813.991311) scale(0.1 -0.1)">
      <defs>
       <path id="DejaVuSans-36" d="M 2113 2584 
Q 1688 2584 1439 2293 
Q 1191 2003 1191 1497 
Q 1191 994 1439 701 
Q 1688 409 2113 409 
Q 2538 409 2786 701 
Q 3034 994 3034 1497 
Q 3034 2003 2786 2293 
Q 2538 2584 2113 2584 
z
M 3366 4563 
L 3366 3988 
Q 3128 4100 2886 4159 
Q 2644 4219 2406 4219 
Q 1781 4219 1451 3797 
Q 1122 3375 1075 2522 
Q 1259 2794 1537 2939 
Q 1816 3084 2150 3084 
Q 2853 3084 3261 2657 
Q 3669 2231 3669 1497 
Q 3669 778 3244 343 
Q 2819 -91 2113 -91 
Q 1303 -91 875 529 
Q 447 1150 447 2328 
Q 447 3434 972 4092 
Q 1497 4750 2381 4750 
Q 2619 4750 2861 4703 
Q 3103 4656 3366 4563 
z
" transform="scale(0.015625)"/>
      </defs>
      <use xlink:href="#DejaVuSans-30"/>
      <use xlink:href="#DejaVuSans-2e" transform="translate(63.623047 0)"/>
      <use xlink:href="#DejaVuSans-36" transform="translate(95.410156 0)"/>
     </g>
    </g>
   </g>
   <g id="xtick_7">
    <g id="line2d_8">
     <path d="M 353.352554 766.268967 
L 342.178062 771.240722 
" style="fill: none; stroke: #000000; stroke-width: 0.8; stroke-linecap: square"/>
    </g>
    <g id="text_7">
     <!-- 0.8 -->
     <g transform="translate(331.313013 789.725587) scale(0.1 -0.1)">
      <defs>
       <path id="DejaVuSans-38" d="M 2034 2216 
Q 1584 2216 1326 1975 
Q 1069 1734 1069 1313 
Q 1069 891 1326 650 
Q 1584 409 2034 409 
Q 2484 409 2743 651 
Q 3003 894 3003 1313 
Q 3003 1734 2745 1975 
Q 2488 2216 2034 2216 
z
M 1403 2484 
Q 997 2584 770 2862 
Q 544 3141 544 3541 
Q 544 4100 942 4425 
Q 1341 4750 2034 4750 
Q 2731 4750 3128 4425 
Q 3525 4100 3525 3541 
Q 3525 3141 3298 2862 
Q 3072 2584 2669 2484 
Q 3125 2378 3379 2068 
Q 3634 1759 3634 1313 
Q 3634 634 3220 271 
Q 2806 -91 2034 -91 
Q 1263 -91 848 271 
Q 434 634 434 1313 
Q 434 1759 690 2068 
Q 947 2378 1403 2484 
z
M 1172 3481 
Q 1172 3119 1398 2916 
Q 1625 2713 2034 2713 
Q 2441 2713 2670 2916 
Q 2900 3119 2900 3481 
Q 2900 3844 2670 4047 
Q 2441 4250 2034 4250 
Q 1625 4250 1398 4047 
Q 1172 3844 1172 3481 
z
" transform="scale(0.015625)"/>
      </defs>
      <use xlink:href="#DejaVuSans-30"/>
      <use xlink:href="#DejaVuSans-2e" transform="translate(63.623047 0)"/>
      <use xlink:href="#DejaVuSans-38" transform="translate(95.410156 0)"/>
     </g>
    </g>
   </g>
   <g id="xtick_8">
    <g id="line2d_9">
     <path d="M 305.551247 742.60314 
L 294.387623 747.488113 
" style="fill: none; stroke: #000000; stroke-width: 0.8; stroke-linecap: square"/>
    </g>
    <g id="text_8">
     <!-- 1.0 -->
     <g transform="translate(283.564306 765.885534) scale(0.1 -0.1)">
      <defs>
       <path id="DejaVuSans-31" d="M 794 531 
L 1825 531 
L 1825 4091 
L 703 3866 
L 703 4441 
L 1819 4666 
L 2450 4666 
L 2450 531 
L 3481 531 
L 3481 0 
L 794 0 
L 794 531 
z
" transform="scale(0.015625)"/>
      </defs>
      <use xlink:href="#DejaVuSans-31"/>
      <use xlink:href="#DejaVuSans-2e" transform="translate(63.623047 0)"/>
      <use xlink:href="#DejaVuSans-30" transform="translate(95.410156 0)"/>
     </g>
    </g>
   </g>
   <g id="xtick_9">
    <g id="line2d_10">
     <path d="M 258.57996 719.348246 
L 247.428514 724.148688 
" style="fill: none; stroke: #000000; stroke-width: 0.8; stroke-linecap: square"/>
    </g>
    <g id="text_9">
     <!-- 1.2 -->
     <g transform="translate(236.645926 742.460047) scale(0.1 -0.1)">
      <use xlink:href="#DejaVuSans-31"/>
      <use xlink:href="#DejaVuSans-2e" transform="translate(63.623047 0)"/>
      <use xlink:href="#DejaVuSans-32" transform="translate(95.410156 0)"/>
     </g>
    </g>
   </g>
   <g id="text_10">
    <!-- X (m) -->
    <g transform="translate(395.039199 837.512161) rotate(-333.63107) scale(0.14 -0.14)">
     <defs>
      <path id="DejaVuSans-58" d="M 403 4666 
L 1081 4666 
L 2241 2931 
L 3406 4666 
L 4084 4666 
L 2584 2425 
L 4184 0 
L 3506 0 
L 2194 1984 
L 872 0 
L 191 0 
L 1856 2491 
L 403 4666 
z
" transform="scale(0.015625)"/>
      <path id="DejaVuSans-20" transform="scale(0.015625)"/>
      <path id="DejaVuSans-28" d="M 1984 4856 
Q 1566 4138 1362 3434 
Q 1159 2731 1159 2009 
Q 1159 1288 1364 580 
Q 1569 -128 1984 -844 
L 1484 -844 
Q 1016 -109 783 600 
Q 550 1309 550 2009 
Q 550 2706 781 3412 
Q 1013 4119 1484 4856 
L 1984 4856 
z
" transform="scale(0.015625)"/>
      <path id="DejaVuSans-6d" d="M 3328 2828 
Q 3544 3216 3844 3400 
Q 4144 3584 4550 3584 
Q 5097 3584 5394 3201 
Q 5691 2819 5691 2113 
L 5691 0 
L 5113 0 
L 5113 2094 
Q 5113 2597 4934 2840 
Q 4756 3084 4391 3084 
Q 3944 3084 3684 2787 
Q 3425 2491 3425 1978 
L 3425 0 
L 2847 0 
L 2847 2094 
Q 2847 2600 2669 2842 
Q 2491 3084 2119 3084 
Q 1678 3084 1418 2786 
Q 1159 2488 1159 1978 
L 1159 0 
L 581 0 
L 581 3500 
L 1159 3500 
L 1159 2956 
Q 1356 3278 1631 3431 
Q 1906 3584 2284 3584 
Q 2666 3584 2933 3390 
Q 3200 3197 3328 2828 
z
" transform="scale(0.015625)"/>
      <path id="DejaVuSans-29" d="M 513 4856 
L 1013 4856 
Q 1481 4119 1714 3412 
Q 1947 2706 1947 2009 
Q 1947 1309 1714 600 
Q 1481 -109 1013 -844 
L 513 -844 
Q 928 -128 1133 580 
Q 1338 1288 1338 2009 
Q 1338 2731 1133 3434 
Q 928 4138 513 4856 
z
" transform="scale(0.015625)"/>
     </defs>
     <use xlink:href="#DejaVuSans-58"/>
     <use xlink:href="#DejaVuSans-20" transform="translate(68.505859 0)"/>
     <use xlink:href="#DejaVuSans-28" transform="translate(100.292969 0)"/>
     <use xlink:href="#DejaVuSans-6d" transform="translate(139.306641 0)"/>
     <use xlink:href="#DejaVuSans-29" transform="translate(236.71875 0)"/>
    </g>
   </g>
  </g>
  <g id="axis3d_2">
   <g id="line2d_11">
    <path d="M 1092.798771 708.286308 
L 661.063784 922.309689 
" style="fill: none; stroke: #000000; stroke-width: 0.8; stroke-linecap: square"/>
   </g>
   <g id="xtick_10">
    <g id="line2d_12">
     <path d="M 1033.457967 734.245249 
L 1044.617386 739.099756 
" style="fill: none; stroke: #000000; stroke-width: 0.8; stroke-linecap: square"/>
    </g>
    <g id="text_11">
     <!-- −1.0 -->
     <g transform="translate(1035.333064 757.466261) scale(0.1 -0.1)">
      <use xlink:href="#DejaVuSans-2212"/>
      <use xlink:href="#DejaVuSans-31" transform="translate(83.789062 0)"/>
      <use xlink:href="#DejaVuSans-2e" transform="translate(147.412109 0)"/>
      <use xlink:href="#DejaVuSans-30" transform="translate(179.199219 0)"/>
     </g>
    </g>
   </g>
   <g id="xtick_11">
    <g id="line2d_13">
     <path d="M 956.735736 772.229462 
L 967.912722 777.223195 
" style="fill: none; stroke: #000000; stroke-width: 0.8; stroke-linecap: square"/>
    </g>
    <g id="text_12">
     <!-- −0.5 -->
     <g transform="translate(958.695359 795.730062) scale(0.1 -0.1)">
      <defs>
       <path id="DejaVuSans-35" d="M 691 4666 
L 3169 4666 
L 3169 4134 
L 1269 4134 
L 1269 2991 
Q 1406 3038 1543 3061 
Q 1681 3084 1819 3084 
Q 2600 3084 3056 2656 
Q 3513 2228 3513 1497 
Q 3513 744 3044 326 
Q 2575 -91 1722 -91 
Q 1428 -91 1123 -41 
Q 819 9 494 109 
L 494 744 
Q 775 591 1075 516 
Q 1375 441 1709 441 
Q 2250 441 2565 725 
Q 2881 1009 2881 1497 
Q 2881 1984 2565 2268 
Q 2250 2553 1709 2553 
Q 1456 2553 1204 2497 
Q 953 2441 691 2322 
L 691 4666 
z
" transform="scale(0.015625)"/>
      </defs>
      <use xlink:href="#DejaVuSans-2212"/>
      <use xlink:href="#DejaVuSans-30" transform="translate(83.789062 0)"/>
      <use xlink:href="#DejaVuSans-2e" transform="translate(147.412109 0)"/>
      <use xlink:href="#DejaVuSans-35" transform="translate(179.199219 0)"/>
     </g>
    </g>
   </g>
   <g id="xtick_12">
    <g id="line2d_14">
     <path d="M 877.799194 811.309952 
L 888.990113 816.448988 
" style="fill: none; stroke: #000000; stroke-width: 0.8; stroke-linecap: square"/>
    </g>
    <g id="text_13">
     <!-- 0.0 -->
     <g transform="translate(884.032258 835.09989) scale(0.1 -0.1)">
      <use xlink:href="#DejaVuSans-30"/>
      <use xlink:href="#DejaVuSans-2e" transform="translate(63.623047 0)"/>
      <use xlink:href="#DejaVuSans-30" transform="translate(95.410156 0)"/>
     </g>
    </g>
   </g>
   <g id="xtick_13">
    <g id="line2d_15">
     <path d="M 796.551077 851.534875 
L 807.751949 856.825649 
" style="fill: none; stroke: #000000; stroke-width: 0.8; stroke-linecap: square"/>
    </g>
    <g id="text_14">
     <!-- 0.5 -->
     <g transform="translate(802.866618 875.624406) scale(0.1 -0.1)">
      <use xlink:href="#DejaVuSans-30"/>
      <use xlink:href="#DejaVuSans-2e" transform="translate(63.623047 0)"/>
      <use xlink:href="#DejaVuSans-35" transform="translate(95.410156 0)"/>
     </g>
    </g>
   </g>
   <g id="xtick_14">
    <g id="line2d_16">
     <path d="M 712.888336 892.955247 
L 724.094808 898.40458 
" style="fill: none; stroke: #000000; stroke-width: 0.8; stroke-linecap: square"/>
    </g>
    <g id="text_15">
     <!-- 1.0 -->
     <g transform="translate(719.285023 917.355163) scale(0.1 -0.1)">
      <use xlink:href="#DejaVuSans-31"/>
      <use xlink:href="#DejaVuSans-2e" transform="translate(63.623047 0)"/>
      <use xlink:href="#DejaVuSans-30" transform="translate(95.410156 0)"/>
     </g>
    </g>
   </g>
   <g id="text_16">
    <!-- Y (m) -->
    <g transform="translate(892.969508 854.425856) rotate(-26.36893) scale(0.14 -0.14)">
     <defs>
      <path id="DejaVuSans-59" d="M -13 4666 
L 666 4666 
L 1959 2747 
L 3244 4666 
L 3922 4666 
L 2272 2222 
L 2272 0 
L 1638 0 
L 1638 2222 
L -13 4666 
z
" transform="scale(0.015625)"/>
     </defs>
     <use xlink:href="#DejaVuSans-59"/>
     <use xlink:href="#DejaVuSans-20" transform="translate(61.083984 0)"/>
     <use xlink:href="#DejaVuSans-28" transform="translate(92.871094 0)"/>
     <use xlink:href="#DejaVuSans-6d" transform="translate(131.884766 0)"/>
     <use xlink:href="#DejaVuSans-29" transform="translate(229.296875 0)"/>
    </g>
   </g>
  </g>
  <g id="axis3d_3">
   <g id="line2d_17">
    <path d="M 1092.798771 708.286308 
L 1109.403032 285.285415 
" style="fill: none; stroke: #000000; stroke-width: 0.8; stroke-linecap: square"/>
   </g>
   <g id="xtick_15">
    <g id="line2d_18">
     <path d="M 1090.099023 680.732568 
L 1101.271403 685.451764 
" style="fill: none; stroke: #000000; stroke-width: 0.8; stroke-linecap: square"/>
    </g>
    <g id="text_17">
     <!-- 0.0 -->
     <g transform="translate(1105.635461 689.902181) scale(0.1 -0.1)">
      <use xlink:href="#DejaVuSans-30"/>
      <use xlink:href="#DejaVuSans-2e" transform="translate(63.623047 0)"/>
      <use xlink:href="#DejaVuSans-30" transform="translate(95.410156 0)"/>
     </g>
    </g>
   </g>
   <g id="xtick_16">
    <g id="line2d_19">
     <path d="M 1091.839537 636.001392 
L 1103.060476 640.658766 
" style="fill: none; stroke: #000000; stroke-width: 0.8; stroke-linecap: square"/>
    </g>
    <g id="text_18">
     <!-- 0.2 -->
     <g transform="translate(1107.472369 645.150415) scale(0.1 -0.1)">
      <use xlink:href="#DejaVuSans-30"/>
      <use xlink:href="#DejaVuSans-2e" transform="translate(63.623047 0)"/>
      <use xlink:href="#DejaVuSans-32" transform="translate(95.410156 0)"/>
     </g>
    </g>
   </g>
   <g id="xtick_17">
    <g id="line2d_20">
     <path d="M 1093.594231 590.905806 
L 1104.86415 595.500191 
" style="fill: none; stroke: #000000; stroke-width: 0.8; stroke-linecap: square"/>
    </g>
    <g id="text_19">
     <!-- 0.4 -->
     <g transform="translate(1109.32425 600.033851) scale(0.1 -0.1)">
      <use xlink:href="#DejaVuSans-30"/>
      <use xlink:href="#DejaVuSans-2e" transform="translate(63.623047 0)"/>
      <use xlink:href="#DejaVuSans-34" transform="translate(95.410156 0)"/>
     </g>
    </g>
   </g>
   <g id="xtick_18">
    <g id="line2d_21">
     <path d="M 1095.363279 545.441338 
L 1106.682605 549.971544 
" style="fill: none; stroke: #000000; stroke-width: 0.8; stroke-linecap: square"/>
    </g>
    <g id="text_20">
     <!-- 0.6 -->
     <g transform="translate(1111.191289 554.548009) scale(0.1 -0.1)">
      <use xlink:href="#DejaVuSans-30"/>
      <use xlink:href="#DejaVuSans-2e" transform="translate(63.623047 0)"/>
      <use xlink:href="#DejaVuSans-36" transform="translate(95.410156 0)"/>
     </g>
    </g>
   </g>
   <g id="xtick_19">
    <g id="line2d_22">
     <path d="M 1097.146856 499.603445 
L 1108.516024 504.068259 
" style="fill: none; stroke: #000000; stroke-width: 0.8; stroke-linecap: square"/>
    </g>
    <g id="text_21">
     <!-- 0.8 -->
     <g transform="translate(1113.073673 508.688337) scale(0.1 -0.1)">
      <use xlink:href="#DejaVuSans-30"/>
      <use xlink:href="#DejaVuSans-2e" transform="translate(63.623047 0)"/>
      <use xlink:href="#DejaVuSans-38" transform="translate(95.410156 0)"/>
     </g>
    </g>
   </g>
   <g id="xtick_20">
    <g id="line2d_23">
     <path d="M 1098.945144 453.387505 
L 1110.364591 457.785692 
" style="fill: none; stroke: #000000; stroke-width: 0.8; stroke-linecap: square"/>
    </g>
    <g id="text_22">
     <!-- 1.0 -->
     <g transform="translate(1114.971591 462.450208) scale(0.1 -0.1)">
      <use xlink:href="#DejaVuSans-31"/>
      <use xlink:href="#DejaVuSans-2e" transform="translate(63.623047 0)"/>
      <use xlink:href="#DejaVuSans-30" transform="translate(95.410156 0)"/>
     </g>
    </g>
   </g>
   <g id="xtick_21">
    <g id="line2d_24">
     <path d="M 1100.758324 406.788824 
L 1112.228496 411.119122 
" style="fill: none; stroke: #000000; stroke-width: 0.8; stroke-linecap: square"/>
    </g>
    <g id="text_23">
     <!-- 1.2 -->
     <g transform="translate(1116.885236 415.828917) scale(0.1 -0.1)">
      <use xlink:href="#DejaVuSans-31"/>
      <use xlink:href="#DejaVuSans-2e" transform="translate(63.623047 0)"/>
      <use xlink:href="#DejaVuSans-32" transform="translate(95.410156 0)"/>
     </g>
    </g>
   </g>
   <g id="xtick_22">
    <g id="line2d_25">
     <path d="M 1102.586583 359.802625 
L 1114.10793 364.063751 
" style="fill: none; stroke: #000000; stroke-width: 0.8; stroke-linecap: square"/>
    </g>
    <g id="text_24">
     <!-- 1.4 -->
     <g transform="translate(1118.814805 368.819683) scale(0.1 -0.1)">
      <use xlink:href="#DejaVuSans-31"/>
      <use xlink:href="#DejaVuSans-2e" transform="translate(63.623047 0)"/>
      <use xlink:href="#DejaVuSans-34" transform="translate(95.410156 0)"/>
     </g>
    </g>
   </g>
   <g id="xtick_23">
    <g id="line2d_26">
     <path d="M 1104.430109 312.424057 
L 1116.003088 316.614699 
" style="fill: none; stroke: #000000; stroke-width: 0.8; stroke-linecap: square"/>
    </g>
    <g id="text_25">
     <!-- 1.6 -->
     <g transform="translate(1120.760498 321.417641) scale(0.1 -0.1)">
      <use xlink:href="#DejaVuSans-31"/>
      <use xlink:href="#DejaVuSans-2e" transform="translate(63.623047 0)"/>
      <use xlink:href="#DejaVuSans-36" transform="translate(95.410156 0)"/>
     </g>
    </g>
   </g>
   <g id="text_26">
    <!-- Z (m) -->
    <g transform="translate(1147.729669 520.213201) rotate(-87.752095) scale(0.14 -0.14)">
     <defs>
      <path id="DejaVuSans-5a" d="M 359 4666 
L 4025 4666 
L 4025 4184 
L 1075 531 
L 4097 531 
L 4097 0 
L 288 0 
L 288 481 
L 3238 4134 
L 359 4134 
L 359 4666 
z
" transform="scale(0.015625)"/>
     </defs>
     <use xlink:href="#DejaVuSans-5a"/>
     <use xlink:href="#DejaVuSans-20" transform="translate(68.505859 0)"/>
     <use xlink:href="#DejaVuSans-28" transform="translate(100.292969 0)"/>
     <use xlink:href="#DejaVuSans-6d" transform="translate(139.306641 0)"/>
     <use xlink:href="#DejaVuSans-29" transform="translate(236.71875 0)"/>
    </g>
   </g>
  </g>
  <g id="axes_1">
   <g id="line2d_27">
    <path d="M 791.472519 738.144092 
L 798.342314 740.364686 
L 802.56547 742.2979 
L 801.133928 741.397088 
L 797.778077 740.194927 
L 797.603142 739.770961 
L 794.715126 738.605298 
L 789.630336 736.041189 
L 789.694543 735.932038 
L 789.250222 735.512676 
L 789.360691 735.574441 
L 787.800695 735.060644 
L 788.098824 735.276888 
L 784.375433 734.17591 
L 787.404517 734.933644 
L 790.739327 736.347963 
L 793.398423 737.764241 
L 792.815179 737.121319 
L 792.972321 737.441817 
L 786.746667 735.492246 
L 786.599596 733.810399 
L 789.087041 735.650993 
L 788.949268 735.765373 
L 790.27072 736.993833 
L 785.610157 735.299486 
L 782.955214 734.48183 
L 783.066902 734.341272 
L 785.570845 735.543369 
L 782.582024 734.093785 
L 779.863696 733.266208 
L 777.529717 732.158074 
L 775.621211 730.913804 
L 774.499791 730.437816 
L 771.440373 729.707273 
L 772.090731 729.568443 
L 768.992246 728.132541 
L 765.031105 726.941717 
L 765.186096 727.448163 
L 763.701327 727.581083 
L 768.819055 730.452541 
L 766.348983 729.284383 
L 767.582812 729.854308 
L 774.055447 734.272473 
L 776.736843 733.820486 
L 778.375741 734.489106 
L 777.687112 734.294707 
L 777.895104 733.989419 
L 781.278756 736.11639 
L 783.170361 737.596691 
L 783.094741 737.353227 
L 777.908189 735.192393 
L 780.203787 735.883203 
L 785.279733 738.059791 
L 782.60354 736.797012 
L 778.505676 735.444022 
L 778.977484 735.419653 
L 778.511269 735.251908 
L 778.977852 736.103113 
L 779.456704 735.738588 
L 782.764329 736.93275 
L 783.375365 737.714454 
L 782.281426 737.752987 
L 781.052369 736.970797 
L 780.899526 737.228948 
L 780.87141 737.165867 
L 781.213401 738.437551 
L 770.390967 735.484734 
L 770.608615 730.017281 
L 773.203319 730.301149 
L 774.745898 730.800266 
L 775.682307 731.338716 
L 773.297662 730.000955 
L 768.355877 729.331941 
L 768.661919 729.223261 
L 769.010627 729.564666 
L 767.159431 728.834543 
L 763.390124 728.143332 
L 764.439424 728.278135 
L 763.701931 727.071785 
L 764.032909 726.977324 
L 764.038689 726.439435 
L 766.68601 728.989053 
L 763.446284 727.397017 
L 767.14968 728.147887 
L 768.870938 727.562782 
L 767.940855 728.024707 
L 768.591087 728.440077 
L 770.811642 731.758888 
L 766.319906 729.80489 
L 767.731984 729.963118 
L 773.5179 730.436154 
L 777.11935 729.699915 
L 773.689852 726.986367 
L 761.292353 723.588151 
L 753.996317 722.451817 
L 756.269277 720.460434 
L 762.072118 716.692003 
L 767.9685 713.469021 
L 772.32164 710.868298 
L 774.651395 708.067478 
L 775.414971 704.46688 
L 774.816692 699.795637 
L 775.082931 694.357659 
L 774.09995 687.574029 
L 772.736663 681.340724 
L 772.373794 675.34996 
L 768.005386 668.272759 
L 766.899933 660.690545 
L 763.772207 653.173328 
L 762.550858 645.832478 
L 759.724473 639.15637 
L 760.772967 633.560855 
L 757.800076 624.725955 
L 759.887204 619.269674 
L 760.116427 613.016305 
L 763.603371 609.041274 
L 767.368353 604.16077 
L 770.683413 599.658438 
L 772.643585 593.957901 
L 774.469003 587.820703 
L 772.681203 581.252072 
L 772.223265 574.920796 
L 773.85808 570.124363 
L 773.359637 565.991816 
L 775.722888 561.804668 
L 774.972159 556.329479 
L 776.208883 550.952226 
L 783.476739 548.998681 
L 785.367667 543.117098 
L 785.749088 538.018173 
L 785.36597 533.227424 
L 783.574563 527.324349 
L 779.507282 521.493244 
L 774.467004 515.827784 
L 772.638149 509.498178 
L 773.543044 504.039773 
L 775.109174 498.649391 
L 778.608398 494.958172 
L 790.38114 494.868466 
L 794.066855 490.66238 
L 797.271266 486.21119 
L 799.102003 481.710681 
L 797.599722 475.947925 
L 792.737916 469.86487 
L 794.64307 464.917457 
L 794.286179 460.174188 
L 793.042403 454.384971 
L 794.512225 447.922209 
L 796.164716 443.353554 
L 791.847406 437.71581 
L 797.200443 435.118402 
L 806.896646 428.828594 
L 810.296482 425.108701 
L 810.04211 418.731137 
L 804.327874 412.706291 
L 799.674618 407.093049 
L 802.492771 404.088365 
L 805.154659 399.119646 
L 804.440852 395.431036 
L 812.158064 392.183183 
L 790.933001 385.636134 
L 787.261886 380.349911 
L 781.492798 374.571769 
L 777.520102 364.786388 
L 772.980111 361.231456 
L 772.396707 360.441366 
L 771.965105 360.911228 
L 779.421369 363.834744 
L 780.098239 363.692715 
L 780.213827 362.612789 
L 782.691901 361.626506 
L 782.921894 360.569618 
L 780.449524 359.86066 
L 774.902373 360.55409 
L 772.606926 361.43885 
L 769.574162 360.476443 
L 765.568006 361.07469 
L 765.19563 361.410991 
L 773.977567 361.276912 
L 780.185862 365.388355 
L 789.988716 366.438894 
L 794.898177 374.165116 
L 808.783231 377.496143 
L 807.128242 379.348034 
L 801.698117 377.354712 
L 795.039094 372.94593 
L 780.089975 371.017101 
L 780.858952 363.866191 
L 779.588485 365.123579 
L 771.351988 364.176346 
L 763.82188 365.541029 
L 760.522693 367.704002 
L 765.123516 373.271461 
L 759.338153 378.473306 
L 745.450198 384.999302 
L 731.166547 391.836837 
L 724.204962 395.612499 
L 715.957347 395.536863 
L 703.140708 394.703939 
L 702.524159 391.029571 
L 699.419675 391.968126 
L 700.074474 393.984228 
L 703.175376 396.138749 
L 711.828397 400.596499 
L 712.465949 402.342476 
L 713.780691 407.874812 
L 700.935621 415.704335 
L 692.653649 419.68444 
L 688.099992 417.021807 
L 682.592862 415.156769 
L 677.380911 412.254765 
L 670.830654 412.859694 
L 662.243278 413.875076 
L 657.502294 416.200664 
L 656.096012 418.305731 
L 656.574708 420.382217 
L 657.154808 421.951052 
L 652.781348 422.496747 
L 653.619661 427.419762 
L 646.368019 431.699057 
L 644.896469 435.388804 
L 640.427019 437.962731 
L 627.234935 439.271983 
L 620.540576 439.720226 
L 616.636304 439.529641 
L 611.575315 439.612257 
L 603.679965 439.523992 
L 601.248259 441.017711 
L 602.153339 442.492437 
L 594.541851 448.563397 
L 586.70544 452.128302 
L 585.299694 454.03025 
L 585.453263 453.206322 
L 591.847842 454.63016 
L 599.853019 453.478294 
L 612.775996 447.33066 
L 622.605434 441.957482 
L 624.920253 440.04797 
L 624.392565 441.017165 
L 622.178815 440.067175 
L 609.876117 444.75512 
L 600.067322 447.393283 
L 590.796298 452.328675 
L 586.269672 455.322009 
L 585.092697 455.831488 
L 589.122121 456.650087 
L 599.388831 452.5744 
L 603.671284 449.555497 
L 605.064004 445.947407 
L 604.312427 446.473914 
L 601.845257 446.588358 
L 594.283041 446.680949 
L 583.264487 449.181827 
L 580.485762 449.656582 
L 576.758576 449.911244 
L 577.131483 450.655302 
L 579.298611 454.245718 
L 578.617323 452.498834 
L 584.135123 452.82903 
L 584.707956 452.344977 
L 591.058043 452.247067 
L 589.089866 447.127359 
L 615.613313 460.494739 
L 610.428562 455.578223 
L 619.310196 454.16831 
L 624.680172 447.222726 
L 623.405858 447.523558 
L 620.270743 451.214443 
L 609.022696 451.351184 
L 589.394229 448.850364 
L 589.060721 454.80913 
L 594.603095 456.280485 
L 598.614392 472.47937 
L 607.5054 473.719593 
L 605.110335 476.002185 
L 604.446672 474.933071 
L 602.316525 472.989506 
L 598.695636 468.995691 
L 591.143829 462.5481 
L 585.281505 460.043125 
L 580.661307 457.471646 
L 579.420895 458.395472 
L 581.508538 460.176817 
L 586.256363 460.714224 
L 589.117361 462.570473 
L 589.977682 464.673721 
L 594.912744 467.147093 
L 595.430869 465.137527 
L 592.138299 463.724453 
L 583.907637 458.018596 
L 582.364334 456.20284 
L 574.752255 451.563697 
L 578.85168 453.490346 
L 575.130115 453.482893 
L 579.989205 457.648396 
L 578.984469 458.509927 
L 582.48025 460.930392 
L 583.903228 460.688918 
L 584.0151 458.871015 
L 584.547031 457.906819 
L 587.134636 459.10658 
L 593.410212 462.457698 
L 588.033126 460.841483 
L 582.236299 458.370813 
L 561.680481 449.267647 
L 548.117337 443.781765 
L 538.123448 439.145198 
L 525.294803 433.948383 
L 506.563247 425.83794 
L 490.865281 418.13829 
L 481.629042 414.782395 
L 477.378918 411.775096 
L 471.584791 409.441435 
L 470.887224 409.633513 
L 469.276736 408.263911 
L 462.363811 404.711382 
L 460.546495 403.417073 
L 455.912897 402.008847 
L 447.231119 397.06512 
L 440.715846 394.834373 
L 428.23362 393.729966 
L 429.670273 391.51111 
L 422.626725 388.078592 
L 416.195844 384.474339 
L 408.964702 381.538758 
L 398.221608 378.263788 
L 396.306062 375.250595 
L 384.634747 370.705037 
L 383.145968 368.891422 
L 374.417664 365.801656 
L 365.438134 360.137625 
L 357.650565 356.14999 
L 350.669134 353.807294 
L 341.256184 351.742329 
L 334.103645 349.847186 
L 328.095231 348.802644 
L 323.270016 347.126986 
L 318.632137 344.206405 
L 319.963891 341.204455 
L 330.739671 343.462196 
L 325.9371 339.863272 
L 330.7368 342.523881 
L 338.906241 345.761366 
L 351.918648 353.027204 
L 360.902827 356.780154 
L 371.701266 362.380748 
L 371.617708 362.813539 
L 372.100438 362.627011 
L 369.205226 360.918118 
L 362.075366 357.726247 
L 358.901977 355.10299 
L 351.416398 349.293952 
L 348.448735 347.807179 
L 348.450897 346.673222 
L 350.814868 348.405628 
L 356.297969 351.636345 
L 362.571095 354.739754 
L 366.985267 356.536885 
L 366.197912 357.177572 
L 364.571754 356.377706 
L 358.24187 354.748425 
L 353.056918 353.056487 
L 347.280226 348.35337 
L 344.781758 344.742269 
L 343.587924 342.094474 
L 343.303231 341.857885 
L 348.969157 346.551032 
L 351.780709 349.28484 
L 352.148324 348.677677 
L 351.077668 349.543364 
L 346.976831 344.738605 
L 358.930377 338.603215 
L 364.652783 334.129609 
L 324.946916 337.859244 
L 312.017659 333.535671 
L 310.185222 327.97932 
L 313.503018 323.690266 
L 327.71644 325.853222 
L 317.514711 329.134197 
L 359.574917 327.848639 
L 363.959434 332.295297 
L 375.390547 326.812713 
L 370.399918 324.731206 
L 356.631734 321.461729 
L 346.109968 322.411801 
L 344.509619 325.500862 
L 339.958398 328.267197 
L 339.88022 330.288964 
L 341.255194 330.676928 
L 342.15447 333.551451 
L 343.73244 334.307134 
L 345.913672 332.971256 
L 347.279341 334.061456 
L 350.713199 332.538005 
L 351.572915 332.340107 
L 350.472349 332.151512 
L 350.391338 330.879841 
L 348.813095 331.211629 
L 341.755375 332.216055 
L 340.368936 333.129999 
L 338.051721 331.901734 
L 342.162631 330.659498 
L 343.770583 328.491847 
L 348.166024 328.186312 
L 355.391845 325.819352 
L 357.690307 326.547191 
L 358.978957 326.640516 
L 356.44227 325.748376 
L 352.033357 326.825622 
L 350.683511 329.091115 
L 349.956115 327.70539 
L 349.145236 327.188454 
L 357.256645 325.24985 
L 365.239093 323.469444 
L 373.019621 320.343867 
L 381.066769 316.213928 
L 390.327283 313.033399 
L 396.441812 308.474848 
L 403.496047 305.36082 
L 409.943989 303.999163 
L 414.034438 302.631034 
L 418.79442 301.509079 
L 422.550209 297.850737 
L 428.76386 297.383427 
L 431.144119 295.477916 
L 437.960672 289.806246 
L 446.038631 288.189275 
L 449.40004 286.998699 
L 461.537507 288.767906 
L 462.706608 287.904393 
L 464.537206 286.318571 
L 466.276036 284.173085 
L 469.783346 281.732725 
L 473.220564 278.768174 
L 474.283527 276.619409 
L 483.018306 275.49956 
L 486.14684 271.300352 
L 490.030306 271.421794 
L 493.62723 269.798884 
L 497.060959 269.045464 
L 505.963041 267.831877 
L 510.491959 266.012472 
L 515.710949 264.99044 
L 520.333477 263.765187 
L 524.416965 263.062895 
L 524.274914 261.11294 
L 528.13122 259.282666 
L 533.029921 257.621269 
L 530.900841 257.173076 
L 533.594486 255.547833 
L 531.833737 253.445292 
L 525.402771 256.19375 
L 520.336287 260.078473 
L 511.441149 264.039319 
L 504.527002 268.389745 
L 501.612848 269.255411 
L 503.009642 268.771785 
L 505.911464 265.48606 
L 511.142215 264.299561 
L 516.218479 263.964086 
L 520.911753 262.78752 
L 522.263024 262.060157 
L 525.038601 261.76664 
L 523.207816 261.990175 
L 519.244255 262.114457 
L 519.099489 264.897674 
L 517.790666 266.240205 
L 520.309109 267.346888 
L 521.747901 267.1175 
L 526.633145 266.064931 
L 527.362064 265.566422 
L 530.904737 262.63443 
L 537.390674 260.321891 
L 538.229868 260.258377 
L 537.033106 258.137538 
L 535.571298 257.22256 
L 537.747687 259.437424 
L 534.01783 258.756822 
L 559.113926 265.070863 
L 557.249839 262.811398 
L 541.331105 265.352222 
L 578.517147 286.125615 
L 570.48126 275.645287 
L 549.842759 256.408776 
L 550.41048 251.821744 
L 551.715287 247.443418 
L 549.573205 240.959649 
L 555.137295 237.409204 
L 563.619573 238.449926 
L 573.044554 240.252963 
L 580.861874 246.935755 
L 576.619244 250.075386 
L 572.335649 252.951869 
L 567.493842 255.785527 
L 561.594546 258.758348 
L 555.135328 259.57512 
L 552.531686 260.78435 
L 549.664629 261.765769 
L 553.912655 262.022882 
L 551.6817 264.344473 
L 551.183077 263.744062 
L 551.909186 262.173359 
L 550.650479 263.547257 
L 552.91346 265.509617 
L 549.662039 266.012456 
L 549.015869 267.392841 
L 546.400639 267.932038 
L 545.56544 269.222739 
L 545.106208 267.548661 
L 542.988871 266.427497 
L 542.463284 268.174559 
L 541.434219 269.05177 
L 536.307944 269.387802 
L 534.646709 269.335146 
L 531.696445 266.247201 
L 530.607572 264.938507 
L 529.659695 264.859761 
L 533.463763 265.919199 
L 523.51347 260.925325 
L 525.889474 259.126742 
L 540.906354 266.019391 
L 547.989638 270.942918 
L 560.902786 279.628624 
L 567.005462 284.16611 
L 575.164268 288.189599 
L 581.409114 290.110258 
L 593.953843 293.808244 
L 601.982439 295.453479 
L 609.722694 298.604514 
L 620.778003 305.372483 
L 628.101129 307.523415 
L 638.477648 311.861079 
L 645.994335 314.224607 
L 652.322657 314.638199 
L 658.544232 317.26789 
L 663.891535 320.21581 
L 668.186688 321.064579 
L 673.522926 324.499412 
L 681.787383 329.1937 
L 689.126621 333.220076 
L 697.762572 335.031546 
L 704.09276 337.735582 
L 704.465528 338.254895 
L 710.591468 339.756585 
L 708.381007 342.599015 
L 712.448256 341.456482 
L 710.855011 343.13321 
L 726.437529 346.078457 
L 734.000612 349.977554 
L 745.796141 352.285802 
L 749.916449 356.380506 
L 758.288364 361.354814 
L 770.666995 367.274487 
L 776.539098 369.307025 
L 784.557196 373.353577 
L 792.24402 375.206399 
L 797.798368 375.092447 
L 798.737267 373.574383 
L 798.167577 372.044902 
L 797.90273 372.720711 
L 786.534575 370.564829 
L 782.730207 368.985493 
L 771.395362 367.071774 
L 765.14085 362.891482 
L 768.011846 361.933713 
L 769.536839 361.803789 
L 777.797193 363.996189 
L 785.436702 367.074325 
L 787.319724 368.58374 
L 791.137425 368.448907 
L 790.465762 368.685669 
L 788.710456 367.260119 
L 789.127698 367.017742 
L 785.913456 365.670011 
L 786.07315 366.167545 
L 791.646533 363.360546 
L 796.717739 362.553663 
L 802.551319 363.223341 
L 805.21082 363.898332 
L 806.527472 366.165333 
L 813.213384 368.207044 
L 812.641722 369.471716 
L 814.944394 371.491217 
L 812.674644 372.384889 
L 811.274945 371.828931 
L 807.887326 370.897508 
L 811.597864 368.433256 
L 805.384182 366.690623 
L 796.285977 357.818773 
L 801.874867 357.622454 
L 823.260466 355.825403 
L 846.248326 355.73488 
L 872.528868 358.34265 
L 882.453744 359.097116 
L 864.303036 364.921254 
L 886.44745 366.323527 
L 911.42625 375.655246 
L 889.121368 367.689672 
L 887.830443 367.757446 
L 870.032928 360.170034 
L 855.554485 357.861809 
L 840.261649 357.341159 
L 829.012179 358.420764 
L 825.460732 358.251192 
L 825.994219 363.526827 
L 829.117829 369.03175 
L 836.468533 373.31682 
L 843.247667 374.890476 
L 843.313792 375.447456 
L 844.921718 375.546546 
L 843.808733 376.260939 
L 835.746652 374.619777 
L 833.206623 372.980745 
L 818.862553 366.934525 
L 816.248841 367.399386 
L 813.470466 368.611542 
L 819.908501 372.288848 
L 826.908367 376.503556 
L 831.588234 378.741871 
L 838.83394 380.824131 
L 846.524787 382.858952 
L 848.464404 382.442621 
L 850.581953 382.582205 
L 845.253108 378.828596 
L 839.381123 375.607852 
L 829.692979 374.628203 
L 833.465539 376.008808 
L 839.705148 377.859004 
L 842.577595 381.729888 
L 849.206334 385.076665 
L 857.309655 389.348261 
L 863.321519 393.396906 
L 867.983007 399.515627 
L 863.312976 403.153712 
L 865.202671 407.41291 
L 845.59996 409.547306 
L 851.221537 416.042524 
L 844.963536 420.76465 
L 846.356684 425.871868 
L 851.573524 431.657606 
L 852.263444 435.104937 
L 854.006687 442.140966 
L 851.06274 443.804236 
L 855.130248 449.937118 
L 850.01002 452.820609 
L 850.185797 457.960794 
L 848.169477 464.15183 
L 849.6689 470.652273 
L 854.021123 475.307343 
L 854.928831 482.519629 
L 852.84862 489.147462 
L 854.502052 494.50193 
L 867.982742 503.033858 
L 870.130282 509.353695 
L 868.974378 515.820035 
L 875.894598 523.728604 
L 876.181358 530.77123 
L 877.385846 536.033158 
L 877.578817 541.060235 
L 876.215017 546.294471 
L 876.088219 551.655741 
L 881.194197 557.734756 
L 875.824979 560.570575 
L 885.425559 569.671005 
L 885.808065 575.076337 
L 887.56301 581.594416 
L 886.919984 586.753091 
L 885.561629 590.252435 
L 877.877138 599.188578 
L 876.157596 603.352732 
L 874.632185 607.465946 
L 873.277906 612.040386 
L 872.532182 616.962469 
L 868.960428 620.601364 
L 868.436376 624.35369 
L 868.217232 628.62507 
L 868.241239 633.158986 
L 866.236253 636.943109 
L 864.895193 641.078956 
L 865.59054 646.330882 
L 867.41088 651.527313 
L 868.879161 657.218495 
L 871.242779 663.596172 
L 873.920515 673.434804 
L 874.496561 678.212266 
L 875.728503 682.814741 
L 876.230167 687.150023 
L 876.34774 691.813228 
L 876.328551 702.098287 
L 875.827405 706.864355 
L 875.617385 711.287407 
L 875.650107 716.139138 
L 875.961296 720.724838 
L 877.345983 731.178667 
L 876.881971 736.438044 
L 875.89364 739.832541 
L 875.767861 742.238266 
L 873.517203 742.69086 
L 871.594259 741.648733 
L 873.885501 741.876053 
L 874.155466 742.425832 
L 874.1639 742.63974 
L 874.663079 743.106215 
L 874.526414 743.142128 
L 874.565564 743.491969 
L 874.453278 743.136349 
L 872.657712 742.157206 
L 872.866628 742.01358 
L 873.39866 743.697013 
L 872.574092 742.606288 
L 872.902866 742.640556 
L 872.2818 742.632466 
L 872.476003 742.800093 
L 872.279589 743.096039 
L 872.567462 743.133891 
L 872.670645 742.772497 
L 872.896321 743.804654 
L 870.43054 742.265307 
L 872.073995 743.397405 
L 874.478186 743.458072 
L 873.832652 743.34401 
L 875.387727 744.952727 
L 875.264658 745.307711 
L 873.865043 744.35912 
L 873.482045 743.7124 
L 871.205522 741.459756 
L 873.648708 742.599156 
L 873.512311 743.102871 
L 874.122953 742.914721 
L 875.205934 744.53989 
L 874.722759 745.146203 
L 876.083477 745.898405 
L 874.540592 744.710046 
L 870.075153 741.760581 
L 867.599881 740.266366 
L 867.479375 739.85868 
L 867.944662 740.442376 
L 865.781821 739.885999 
L 865.789707 740.327143 
L 869.005285 742.892692 
L 867.634133 741.676594 
L 866.466072 740.077921 
L 865.70335 740.184315 
L 865.569388 740.532826 
L 863.817224 739.569894 
L 863.277951 738.458253 
L 865.177472 740.10979 
L 863.793065 739.095604 
L 863.710277 738.402459 
L 865.388559 739.887163 
L 866.164554 740.124663 
L 866.387126 740.731433 
L 865.043962 741.316629 
L 865.127895 741.43042 
L 864.24395 740.150085 
L 861.640157 738.449832 
L 861.465735 737.958513 
L 861.285421 738.186537 
L 863.854878 739.410265 
L 862.739713 739.110054 
L 859.170252 737.57106 
L 860.172982 738.184055 
" clip-path="url(#pf5b275bd50)" style="fill: none; stroke: #0000ff; stroke-width: 2; stroke-linecap: square"/>
   </g>
   <g id="line2d_28">
    <path d="M 770.389017 735.48372 
L 773.879212 385.221778 
L 468.75051 264.741487 
L 661.063784 193.708512 
L 965.993478 306.337572 
L 773.879212 385.221778 
" clip-path="url(#pf5b275bd50)" style="fill: none; stroke-dasharray: 7.4,3.2; stroke-dashoffset: 0; stroke: #008000; stroke-width: 2"/>
   </g>
   <g id="Path3DCollection_1">
    <path d="M 656.591648 198.180648 
L 665.53592 189.236376 
M 656.591648 189.236376 
L 665.53592 198.180648 
" clip-path="url(#pf5b275bd50)" style="fill-opacity: 0.3; stroke: #000000; stroke-opacity: 0.3; stroke-width: 1.5"/>
    <path d="M 464.278374 269.213623 
L 473.222646 260.269351 
M 464.278374 260.269351 
L 473.222646 269.213623 
" clip-path="url(#pf5b275bd50)" style="fill-opacity: 0.559633; stroke: #000000; stroke-opacity: 0.559633; stroke-width: 1.5"/>
    <path d="M 961.521342 310.809708 
L 970.465614 301.865436 
M 961.521342 301.865436 
L 970.465614 310.809708 
" clip-path="url(#pf5b275bd50)" style="fill-opacity: 0.71167; stroke: #000000; stroke-opacity: 0.71167; stroke-width: 1.5"/>
    <path d="M 765.916881 739.955856 
L 774.861153 731.011584 
M 765.916881 731.011584 
L 774.861153 739.955856 
" clip-path="url(#pf5b275bd50)" style="fill-opacity: 0.737529; stroke: #000000; stroke-opacity: 0.737529; stroke-width: 1.5"/>
    <path d="M 769.407076 389.693914 
L 778.351348 380.749642 
M 769.407076 380.749642 
L 778.351348 389.693914 
" clip-path="url(#pf5b275bd50)" style="stroke: #000000; stroke-width: 1.5"/>
   </g>
   <g id="text_27">
    <!-- Takeoff / Landing -->
    <g transform="translate(770.5697 717.351092) scale(0.14 -0.14)">
     <defs>
      <path id="DejaVuSans-Bold-54" d="M 31 4666 
L 4331 4666 
L 4331 3756 
L 2784 3756 
L 2784 0 
L 1581 0 
L 1581 3756 
L 31 3756 
L 31 4666 
z
" transform="scale(0.015625)"/>
      <path id="DejaVuSans-Bold-61" d="M 2106 1575 
Q 1756 1575 1579 1456 
Q 1403 1338 1403 1106 
Q 1403 894 1545 773 
Q 1688 653 1941 653 
Q 2256 653 2472 879 
Q 2688 1106 2688 1447 
L 2688 1575 
L 2106 1575 
z
M 3816 1997 
L 3816 0 
L 2688 0 
L 2688 519 
Q 2463 200 2181 54 
Q 1900 -91 1497 -91 
Q 953 -91 614 226 
Q 275 544 275 1050 
Q 275 1666 698 1953 
Q 1122 2241 2028 2241 
L 2688 2241 
L 2688 2328 
Q 2688 2594 2478 2717 
Q 2269 2841 1825 2841 
Q 1466 2841 1156 2769 
Q 847 2697 581 2553 
L 581 3406 
Q 941 3494 1303 3539 
Q 1666 3584 2028 3584 
Q 2975 3584 3395 3211 
Q 3816 2838 3816 1997 
z
" transform="scale(0.015625)"/>
      <path id="DejaVuSans-Bold-6b" d="M 538 4863 
L 1656 4863 
L 1656 2216 
L 2944 3500 
L 4244 3500 
L 2534 1894 
L 4378 0 
L 3022 0 
L 1656 1459 
L 1656 0 
L 538 0 
L 538 4863 
z
" transform="scale(0.015625)"/>
      <path id="DejaVuSans-Bold-65" d="M 4031 1759 
L 4031 1441 
L 1416 1441 
Q 1456 1047 1700 850 
Q 1944 653 2381 653 
Q 2734 653 3104 758 
Q 3475 863 3866 1075 
L 3866 213 
Q 3469 63 3072 -14 
Q 2675 -91 2278 -91 
Q 1328 -91 801 392 
Q 275 875 275 1747 
Q 275 2603 792 3093 
Q 1309 3584 2216 3584 
Q 3041 3584 3536 3087 
Q 4031 2591 4031 1759 
z
M 2881 2131 
Q 2881 2450 2695 2645 
Q 2509 2841 2209 2841 
Q 1884 2841 1681 2658 
Q 1478 2475 1428 2131 
L 2881 2131 
z
" transform="scale(0.015625)"/>
      <path id="DejaVuSans-Bold-6f" d="M 2203 2784 
Q 1831 2784 1636 2517 
Q 1441 2250 1441 1747 
Q 1441 1244 1636 976 
Q 1831 709 2203 709 
Q 2569 709 2762 976 
Q 2956 1244 2956 1747 
Q 2956 2250 2762 2517 
Q 2569 2784 2203 2784 
z
M 2203 3584 
Q 3106 3584 3614 3096 
Q 4122 2609 4122 1747 
Q 4122 884 3614 396 
Q 3106 -91 2203 -91 
Q 1297 -91 786 396 
Q 275 884 275 1747 
Q 275 2609 786 3096 
Q 1297 3584 2203 3584 
z
" transform="scale(0.015625)"/>
      <path id="DejaVuSans-Bold-66" d="M 2841 4863 
L 2841 4128 
L 2222 4128 
Q 1984 4128 1890 4042 
Q 1797 3956 1797 3744 
L 1797 3500 
L 2753 3500 
L 2753 2700 
L 1797 2700 
L 1797 0 
L 678 0 
L 678 2700 
L 122 2700 
L 122 3500 
L 678 3500 
L 678 3744 
Q 678 4316 997 4589 
Q 1316 4863 1984 4863 
L 2841 4863 
z
" transform="scale(0.015625)"/>
      <path id="DejaVuSans-Bold-20" transform="scale(0.015625)"/>
      <path id="DejaVuSans-Bold-2f" d="M 1644 4666 
L 2338 4666 
L 691 -594 
L 0 -594 
L 1644 4666 
z
" transform="scale(0.015625)"/>
      <path id="DejaVuSans-Bold-4c" d="M 588 4666 
L 1791 4666 
L 1791 909 
L 3903 909 
L 3903 0 
L 588 0 
L 588 4666 
z
" transform="scale(0.015625)"/>
      <path id="DejaVuSans-Bold-6e" d="M 4056 2131 
L 4056 0 
L 2931 0 
L 2931 347 
L 2931 1631 
Q 2931 2084 2911 2256 
Q 2891 2428 2841 2509 
Q 2775 2619 2662 2680 
Q 2550 2741 2406 2741 
Q 2056 2741 1856 2470 
Q 1656 2200 1656 1722 
L 1656 0 
L 538 0 
L 538 3500 
L 1656 3500 
L 1656 2988 
Q 1909 3294 2193 3439 
Q 2478 3584 2822 3584 
Q 3428 3584 3742 3212 
Q 4056 2841 4056 2131 
z
" transform="scale(0.015625)"/>
      <path id="DejaVuSans-Bold-64" d="M 2919 2988 
L 2919 4863 
L 4044 4863 
L 4044 0 
L 2919 0 
L 2919 506 
Q 2688 197 2409 53 
Q 2131 -91 1766 -91 
Q 1119 -91 703 423 
Q 288 938 288 1747 
Q 288 2556 703 3070 
Q 1119 3584 1766 3584 
Q 2128 3584 2408 3439 
Q 2688 3294 2919 2988 
z
M 2181 722 
Q 2541 722 2730 984 
Q 2919 1247 2919 1747 
Q 2919 2247 2730 2509 
Q 2541 2772 2181 2772 
Q 1825 2772 1636 2509 
Q 1447 2247 1447 1747 
Q 1447 1247 1636 984 
Q 1825 722 2181 722 
z
" transform="scale(0.015625)"/>
      <path id="DejaVuSans-Bold-69" d="M 538 3500 
L 1656 3500 
L 1656 0 
L 538 0 
L 538 3500 
z
M 538 4863 
L 1656 4863 
L 1656 3950 
L 538 3950 
L 538 4863 
z
" transform="scale(0.015625)"/>
      <path id="DejaVuSans-Bold-67" d="M 2919 594 
Q 2688 288 2409 144 
Q 2131 0 1766 0 
Q 1125 0 706 504 
Q 288 1009 288 1791 
Q 288 2575 706 3076 
Q 1125 3578 1766 3578 
Q 2131 3578 2409 3434 
Q 2688 3291 2919 2981 
L 2919 3500 
L 4044 3500 
L 4044 353 
Q 4044 -491 3511 -936 
Q 2978 -1381 1966 -1381 
Q 1638 -1381 1331 -1331 
Q 1025 -1281 716 -1178 
L 716 -306 
Q 1009 -475 1290 -558 
Q 1572 -641 1856 -641 
Q 2406 -641 2662 -400 
Q 2919 -159 2919 353 
L 2919 594 
z
M 2181 2772 
Q 1834 2772 1640 2515 
Q 1447 2259 1447 1791 
Q 1447 1309 1634 1061 
Q 1822 813 2181 813 
Q 2531 813 2725 1069 
Q 2919 1325 2919 1791 
Q 2919 2259 2725 2515 
Q 2531 2772 2181 2772 
z
" transform="scale(0.015625)"/>
     </defs>
     <use xlink:href="#DejaVuSans-Bold-54"/>
     <use xlink:href="#DejaVuSans-Bold-61" transform="translate(55.337891 0)"/>
     <use xlink:href="#DejaVuSans-Bold-6b" transform="translate(122.818359 0)"/>
     <use xlink:href="#DejaVuSans-Bold-65" transform="translate(186.697266 0)"/>
     <use xlink:href="#DejaVuSans-Bold-6f" transform="translate(254.519531 0)"/>
     <use xlink:href="#DejaVuSans-Bold-66" transform="translate(323.220703 0)"/>
     <use xlink:href="#DejaVuSans-Bold-66" transform="translate(366.726562 0)"/>
     <use xlink:href="#DejaVuSans-Bold-20" transform="translate(410.232422 0)"/>
     <use xlink:href="#DejaVuSans-Bold-2f" transform="translate(445.046875 0)"/>
     <use xlink:href="#DejaVuSans-Bold-20" transform="translate(481.570312 0)"/>
     <use xlink:href="#DejaVuSans-Bold-4c" transform="translate(516.384766 0)"/>
     <use xlink:href="#DejaVuSans-Bold-61" transform="translate(580.105469 0)"/>
     <use xlink:href="#DejaVuSans-Bold-6e" transform="translate(647.585938 0)"/>
     <use xlink:href="#DejaVuSans-Bold-64" transform="translate(718.777344 0)"/>
     <use xlink:href="#DejaVuSans-Bold-69" transform="translate(790.359375 0)"/>
     <use xlink:href="#DejaVuSans-Bold-6e" transform="translate(824.636719 0)"/>
     <use xlink:href="#DejaVuSans-Bold-67" transform="translate(895.828125 0)"/>
    </g>
   </g>
   <g id="text_28">
    <!-- Hover / Return-to-Home -->
    <g transform="translate(774.071626 365.911886) scale(0.14 -0.14)">
     <defs>
      <path id="DejaVuSans-Bold-48" d="M 588 4666 
L 1791 4666 
L 1791 2888 
L 3566 2888 
L 3566 4666 
L 4769 4666 
L 4769 0 
L 3566 0 
L 3566 1978 
L 1791 1978 
L 1791 0 
L 588 0 
L 588 4666 
z
" transform="scale(0.015625)"/>
      <path id="DejaVuSans-Bold-76" d="M 97 3500 
L 1216 3500 
L 2088 1081 
L 2956 3500 
L 4078 3500 
L 2700 0 
L 1472 0 
L 97 3500 
z
" transform="scale(0.015625)"/>
      <path id="DejaVuSans-Bold-72" d="M 3138 2547 
Q 2991 2616 2845 2648 
Q 2700 2681 2553 2681 
Q 2122 2681 1889 2404 
Q 1656 2128 1656 1613 
L 1656 0 
L 538 0 
L 538 3500 
L 1656 3500 
L 1656 2925 
Q 1872 3269 2151 3426 
Q 2431 3584 2822 3584 
Q 2878 3584 2943 3579 
Q 3009 3575 3134 3559 
L 3138 2547 
z
" transform="scale(0.015625)"/>
      <path id="DejaVuSans-Bold-52" d="M 2297 2597 
Q 2675 2597 2839 2737 
Q 3003 2878 3003 3200 
Q 3003 3519 2839 3656 
Q 2675 3794 2297 3794 
L 1791 3794 
L 1791 2597 
L 2297 2597 
z
M 1791 1766 
L 1791 0 
L 588 0 
L 588 4666 
L 2425 4666 
Q 3347 4666 3776 4356 
Q 4206 4047 4206 3378 
Q 4206 2916 3982 2619 
Q 3759 2322 3309 2181 
Q 3556 2125 3751 1926 
Q 3947 1728 4147 1325 
L 4800 0 
L 3519 0 
L 2950 1159 
Q 2778 1509 2601 1637 
Q 2425 1766 2131 1766 
L 1791 1766 
z
" transform="scale(0.015625)"/>
      <path id="DejaVuSans-Bold-74" d="M 1759 4494 
L 1759 3500 
L 2913 3500 
L 2913 2700 
L 1759 2700 
L 1759 1216 
Q 1759 972 1856 886 
Q 1953 800 2241 800 
L 2816 800 
L 2816 0 
L 1856 0 
Q 1194 0 917 276 
Q 641 553 641 1216 
L 641 2700 
L 84 2700 
L 84 3500 
L 641 3500 
L 641 4494 
L 1759 4494 
z
" transform="scale(0.015625)"/>
      <path id="DejaVuSans-Bold-75" d="M 500 1363 
L 500 3500 
L 1625 3500 
L 1625 3150 
Q 1625 2866 1622 2436 
Q 1619 2006 1619 1863 
Q 1619 1441 1641 1255 
Q 1663 1069 1716 984 
Q 1784 875 1895 815 
Q 2006 756 2150 756 
Q 2500 756 2700 1025 
Q 2900 1294 2900 1772 
L 2900 3500 
L 4019 3500 
L 4019 0 
L 2900 0 
L 2900 506 
Q 2647 200 2364 54 
Q 2081 -91 1741 -91 
Q 1134 -91 817 281 
Q 500 653 500 1363 
z
" transform="scale(0.015625)"/>
      <path id="DejaVuSans-Bold-2d" d="M 347 2297 
L 2309 2297 
L 2309 1388 
L 347 1388 
L 347 2297 
z
" transform="scale(0.015625)"/>
      <path id="DejaVuSans-Bold-6d" d="M 3781 2919 
Q 3994 3244 4286 3414 
Q 4578 3584 4928 3584 
Q 5531 3584 5847 3212 
Q 6163 2841 6163 2131 
L 6163 0 
L 5038 0 
L 5038 1825 
Q 5041 1866 5042 1909 
Q 5044 1953 5044 2034 
Q 5044 2406 4934 2573 
Q 4825 2741 4581 2741 
Q 4263 2741 4089 2478 
Q 3916 2216 3909 1719 
L 3909 0 
L 2784 0 
L 2784 1825 
Q 2784 2406 2684 2573 
Q 2584 2741 2328 2741 
Q 2006 2741 1831 2477 
Q 1656 2213 1656 1722 
L 1656 0 
L 531 0 
L 531 3500 
L 1656 3500 
L 1656 2988 
Q 1863 3284 2130 3434 
Q 2397 3584 2719 3584 
Q 3081 3584 3359 3409 
Q 3638 3234 3781 2919 
z
" transform="scale(0.015625)"/>
     </defs>
     <use xlink:href="#DejaVuSans-Bold-48"/>
     <use xlink:href="#DejaVuSans-Bold-6f" transform="translate(83.691406 0)"/>
     <use xlink:href="#DejaVuSans-Bold-76" transform="translate(152.392578 0)"/>
     <use xlink:href="#DejaVuSans-Bold-65" transform="translate(217.578125 0)"/>
     <use xlink:href="#DejaVuSans-Bold-72" transform="translate(285.400391 0)"/>
     <use xlink:href="#DejaVuSans-Bold-20" transform="translate(334.716797 0)"/>
     <use xlink:href="#DejaVuSans-Bold-2f" transform="translate(369.53125 0)"/>
     <use xlink:href="#DejaVuSans-Bold-20" transform="translate(406.054688 0)"/>
     <use xlink:href="#DejaVuSans-Bold-52" transform="translate(440.869141 0)"/>
     <use xlink:href="#DejaVuSans-Bold-65" transform="translate(517.871094 0)"/>
     <use xlink:href="#DejaVuSans-Bold-74" transform="translate(585.693359 0)"/>
     <use xlink:href="#DejaVuSans-Bold-75" transform="translate(633.496094 0)"/>
     <use xlink:href="#DejaVuSans-Bold-72" transform="translate(704.6875 0)"/>
     <use xlink:href="#DejaVuSans-Bold-6e" transform="translate(754.003906 0)"/>
     <use xlink:href="#DejaVuSans-Bold-2d" transform="translate(825.195312 0)"/>
     <use xlink:href="#DejaVuSans-Bold-74" transform="translate(866.699219 0)"/>
     <use xlink:href="#DejaVuSans-Bold-6f" transform="translate(914.501953 0)"/>
     <use xlink:href="#DejaVuSans-Bold-2d" transform="translate(983.203125 0)"/>
     <use xlink:href="#DejaVuSans-Bold-48" transform="translate(1024.707031 0)"/>
     <use xlink:href="#DejaVuSans-Bold-6f" transform="translate(1108.398438 0)"/>
     <use xlink:href="#DejaVuSans-Bold-6d" transform="translate(1177.099609 0)"/>
     <use xlink:href="#DejaVuSans-Bold-65" transform="translate(1281.298828 0)"/>
    </g>
   </g>
   <g id="text_29">
    <!-- Coord 1 -->
    <g transform="translate(468.43956 246.240703) scale(0.14 -0.14)">
     <defs>
      <path id="DejaVuSans-Bold-43" d="M 4288 256 
Q 3956 84 3597 -3 
Q 3238 -91 2847 -91 
Q 1681 -91 1000 561 
Q 319 1213 319 2328 
Q 319 3447 1000 4098 
Q 1681 4750 2847 4750 
Q 3238 4750 3597 4662 
Q 3956 4575 4288 4403 
L 4288 3438 
Q 3953 3666 3628 3772 
Q 3303 3878 2944 3878 
Q 2300 3878 1931 3465 
Q 1563 3053 1563 2328 
Q 1563 1606 1931 1193 
Q 2300 781 2944 781 
Q 3303 781 3628 887 
Q 3953 994 4288 1222 
L 4288 256 
z
" transform="scale(0.015625)"/>
      <path id="DejaVuSans-Bold-31" d="M 750 831 
L 1813 831 
L 1813 3847 
L 722 3622 
L 722 4441 
L 1806 4666 
L 2950 4666 
L 2950 831 
L 4013 831 
L 4013 0 
L 750 0 
L 750 831 
z
" transform="scale(0.015625)"/>
     </defs>
     <use xlink:href="#DejaVuSans-Bold-43"/>
     <use xlink:href="#DejaVuSans-Bold-6f" transform="translate(73.388672 0)"/>
     <use xlink:href="#DejaVuSans-Bold-6f" transform="translate(142.089844 0)"/>
     <use xlink:href="#DejaVuSans-Bold-72" transform="translate(210.791016 0)"/>
     <use xlink:href="#DejaVuSans-Bold-64" transform="translate(260.107422 0)"/>
     <use xlink:href="#DejaVuSans-Bold-20" transform="translate(331.689453 0)"/>
     <use xlink:href="#DejaVuSans-Bold-31" transform="translate(366.503906 0)"/>
    </g>
   </g>
   <g id="text_30">
    <!-- Coord 2 -->
    <g transform="translate(661.063784 175.694691) scale(0.14 -0.14)">
     <defs>
      <path id="DejaVuSans-Bold-32" d="M 1844 884 
L 3897 884 
L 3897 0 
L 506 0 
L 506 884 
L 2209 2388 
Q 2438 2594 2547 2791 
Q 2656 2988 2656 3200 
Q 2656 3528 2436 3728 
Q 2216 3928 1850 3928 
Q 1569 3928 1234 3808 
Q 900 3688 519 3450 
L 519 4475 
Q 925 4609 1322 4679 
Q 1719 4750 2100 4750 
Q 2938 4750 3402 4381 
Q 3866 4013 3866 3353 
Q 3866 2972 3669 2642 
Q 3472 2313 2841 1759 
L 1844 884 
z
" transform="scale(0.015625)"/>
     </defs>
     <use xlink:href="#DejaVuSans-Bold-43"/>
     <use xlink:href="#DejaVuSans-Bold-6f" transform="translate(73.388672 0)"/>
     <use xlink:href="#DejaVuSans-Bold-6f" transform="translate(142.089844 0)"/>
     <use xlink:href="#DejaVuSans-Bold-72" transform="translate(210.791016 0)"/>
     <use xlink:href="#DejaVuSans-Bold-64" transform="translate(260.107422 0)"/>
     <use xlink:href="#DejaVuSans-Bold-20" transform="translate(331.689453 0)"/>
     <use xlink:href="#DejaVuSans-Bold-32" transform="translate(366.503906 0)"/>
    </g>
   </g>
   <g id="text_31">
    <!-- Coord 3 -->
    <g transform="translate(966.495851 287.555047) scale(0.14 -0.14)">
     <defs>
      <path id="DejaVuSans-Bold-33" d="M 2981 2516 
Q 3453 2394 3698 2092 
Q 3944 1791 3944 1325 
Q 3944 631 3412 270 
Q 2881 -91 1863 -91 
Q 1503 -91 1142 -33 
Q 781 25 428 141 
L 428 1069 
Q 766 900 1098 814 
Q 1431 728 1753 728 
Q 2231 728 2486 893 
Q 2741 1059 2741 1369 
Q 2741 1688 2480 1852 
Q 2219 2016 1709 2016 
L 1228 2016 
L 1228 2791 
L 1734 2791 
Q 2188 2791 2409 2933 
Q 2631 3075 2631 3366 
Q 2631 3634 2415 3781 
Q 2200 3928 1806 3928 
Q 1516 3928 1219 3862 
Q 922 3797 628 3669 
L 628 4550 
Q 984 4650 1334 4700 
Q 1684 4750 2022 4750 
Q 2931 4750 3382 4451 
Q 3834 4153 3834 3553 
Q 3834 3144 3618 2883 
Q 3403 2622 2981 2516 
z
" transform="scale(0.015625)"/>
     </defs>
     <use xlink:href="#DejaVuSans-Bold-43"/>
     <use xlink:href="#DejaVuSans-Bold-6f" transform="translate(73.388672 0)"/>
     <use xlink:href="#DejaVuSans-Bold-6f" transform="translate(142.089844 0)"/>
     <use xlink:href="#DejaVuSans-Bold-72" transform="translate(210.791016 0)"/>
     <use xlink:href="#DejaVuSans-Bold-64" transform="translate(260.107422 0)"/>
     <use xlink:href="#DejaVuSans-Bold-20" transform="translate(331.689453 0)"/>
     <use xlink:href="#DejaVuSans-Bold-33" transform="translate(366.503906 0)"/>
    </g>
   </g>
   <g id="text_32">
    <!-- 3D Flight Visualization: State Estimate Flight Path vs. Ideal -->
    <g transform="translate(384.201563 24.48) scale(0.18 -0.18)">
     <defs>
      <path id="DejaVuSans-33" d="M 2597 2516 
Q 3050 2419 3304 2112 
Q 3559 1806 3559 1356 
Q 3559 666 3084 287 
Q 2609 -91 1734 -91 
Q 1441 -91 1130 -33 
Q 819 25 488 141 
L 488 750 
Q 750 597 1062 519 
Q 1375 441 1716 441 
Q 2309 441 2620 675 
Q 2931 909 2931 1356 
Q 2931 1769 2642 2001 
Q 2353 2234 1838 2234 
L 1294 2234 
L 1294 2753 
L 1863 2753 
Q 2328 2753 2575 2939 
Q 2822 3125 2822 3475 
Q 2822 3834 2567 4026 
Q 2313 4219 1838 4219 
Q 1578 4219 1281 4162 
Q 984 4106 628 3988 
L 628 4550 
Q 988 4650 1302 4700 
Q 1616 4750 1894 4750 
Q 2613 4750 3031 4423 
Q 3450 4097 3450 3541 
Q 3450 3153 3228 2886 
Q 3006 2619 2597 2516 
z
" transform="scale(0.015625)"/>
      <path id="DejaVuSans-44" d="M 1259 4147 
L 1259 519 
L 2022 519 
Q 2988 519 3436 956 
Q 3884 1394 3884 2338 
Q 3884 3275 3436 3711 
Q 2988 4147 2022 4147 
L 1259 4147 
z
M 628 4666 
L 1925 4666 
Q 3281 4666 3915 4102 
Q 4550 3538 4550 2338 
Q 4550 1131 3912 565 
Q 3275 0 1925 0 
L 628 0 
L 628 4666 
z
" transform="scale(0.015625)"/>
      <path id="DejaVuSans-46" d="M 628 4666 
L 3309 4666 
L 3309 4134 
L 1259 4134 
L 1259 2759 
L 3109 2759 
L 3109 2228 
L 1259 2228 
L 1259 0 
L 628 0 
L 628 4666 
z
" transform="scale(0.015625)"/>
      <path id="DejaVuSans-6c" d="M 603 4863 
L 1178 4863 
L 1178 0 
L 603 0 
L 603 4863 
z
" transform="scale(0.015625)"/>
      <path id="DejaVuSans-69" d="M 603 3500 
L 1178 3500 
L 1178 0 
L 603 0 
L 603 3500 
z
M 603 4863 
L 1178 4863 
L 1178 4134 
L 603 4134 
L 603 4863 
z
" transform="scale(0.015625)"/>
      <path id="DejaVuSans-67" d="M 2906 1791 
Q 2906 2416 2648 2759 
Q 2391 3103 1925 3103 
Q 1463 3103 1205 2759 
Q 947 2416 947 1791 
Q 947 1169 1205 825 
Q 1463 481 1925 481 
Q 2391 481 2648 825 
Q 2906 1169 2906 1791 
z
M 3481 434 
Q 3481 -459 3084 -895 
Q 2688 -1331 1869 -1331 
Q 1566 -1331 1297 -1286 
Q 1028 -1241 775 -1147 
L 775 -588 
Q 1028 -725 1275 -790 
Q 1522 -856 1778 -856 
Q 2344 -856 2625 -561 
Q 2906 -266 2906 331 
L 2906 616 
Q 2728 306 2450 153 
Q 2172 0 1784 0 
Q 1141 0 747 490 
Q 353 981 353 1791 
Q 353 2603 747 3093 
Q 1141 3584 1784 3584 
Q 2172 3584 2450 3431 
Q 2728 3278 2906 2969 
L 2906 3500 
L 3481 3500 
L 3481 434 
z
" transform="scale(0.015625)"/>
      <path id="DejaVuSans-68" d="M 3513 2113 
L 3513 0 
L 2938 0 
L 2938 2094 
Q 2938 2591 2744 2837 
Q 2550 3084 2163 3084 
Q 1697 3084 1428 2787 
Q 1159 2491 1159 1978 
L 1159 0 
L 581 0 
L 581 4863 
L 1159 4863 
L 1159 2956 
Q 1366 3272 1645 3428 
Q 1925 3584 2291 3584 
Q 2894 3584 3203 3211 
Q 3513 2838 3513 2113 
z
" transform="scale(0.015625)"/>
      <path id="DejaVuSans-74" d="M 1172 4494 
L 1172 3500 
L 2356 3500 
L 2356 3053 
L 1172 3053 
L 1172 1153 
Q 1172 725 1289 603 
Q 1406 481 1766 481 
L 2356 481 
L 2356 0 
L 1766 0 
Q 1100 0 847 248 
Q 594 497 594 1153 
L 594 3053 
L 172 3053 
L 172 3500 
L 594 3500 
L 594 4494 
L 1172 4494 
z
" transform="scale(0.015625)"/>
      <path id="DejaVuSans-56" d="M 1831 0 
L 50 4666 
L 709 4666 
L 2188 738 
L 3669 4666 
L 4325 4666 
L 2547 0 
L 1831 0 
z
" transform="scale(0.015625)"/>
      <path id="DejaVuSans-73" d="M 2834 3397 
L 2834 2853 
Q 2591 2978 2328 3040 
Q 2066 3103 1784 3103 
Q 1356 3103 1142 2972 
Q 928 2841 928 2578 
Q 928 2378 1081 2264 
Q 1234 2150 1697 2047 
L 1894 2003 
Q 2506 1872 2764 1633 
Q 3022 1394 3022 966 
Q 3022 478 2636 193 
Q 2250 -91 1575 -91 
Q 1294 -91 989 -36 
Q 684 19 347 128 
L 347 722 
Q 666 556 975 473 
Q 1284 391 1588 391 
Q 1994 391 2212 530 
Q 2431 669 2431 922 
Q 2431 1156 2273 1281 
Q 2116 1406 1581 1522 
L 1381 1569 
Q 847 1681 609 1914 
Q 372 2147 372 2553 
Q 372 3047 722 3315 
Q 1072 3584 1716 3584 
Q 2034 3584 2315 3537 
Q 2597 3491 2834 3397 
z
" transform="scale(0.015625)"/>
      <path id="DejaVuSans-75" d="M 544 1381 
L 544 3500 
L 1119 3500 
L 1119 1403 
Q 1119 906 1312 657 
Q 1506 409 1894 409 
Q 2359 409 2629 706 
Q 2900 1003 2900 1516 
L 2900 3500 
L 3475 3500 
L 3475 0 
L 2900 0 
L 2900 538 
Q 2691 219 2414 64 
Q 2138 -91 1772 -91 
Q 1169 -91 856 284 
Q 544 659 544 1381 
z
M 1991 3584 
L 1991 3584 
z
" transform="scale(0.015625)"/>
      <path id="DejaVuSans-61" d="M 2194 1759 
Q 1497 1759 1228 1600 
Q 959 1441 959 1056 
Q 959 750 1161 570 
Q 1363 391 1709 391 
Q 2188 391 2477 730 
Q 2766 1069 2766 1631 
L 2766 1759 
L 2194 1759 
z
M 3341 1997 
L 3341 0 
L 2766 0 
L 2766 531 
Q 2569 213 2275 61 
Q 1981 -91 1556 -91 
Q 1019 -91 701 211 
Q 384 513 384 1019 
Q 384 1609 779 1909 
Q 1175 2209 1959 2209 
L 2766 2209 
L 2766 2266 
Q 2766 2663 2505 2880 
Q 2244 3097 1772 3097 
Q 1472 3097 1187 3025 
Q 903 2953 641 2809 
L 641 3341 
Q 956 3463 1253 3523 
Q 1550 3584 1831 3584 
Q 2591 3584 2966 3190 
Q 3341 2797 3341 1997 
z
" transform="scale(0.015625)"/>
      <path id="DejaVuSans-7a" d="M 353 3500 
L 3084 3500 
L 3084 2975 
L 922 459 
L 3084 459 
L 3084 0 
L 275 0 
L 275 525 
L 2438 3041 
L 353 3041 
L 353 3500 
z
" transform="scale(0.015625)"/>
      <path id="DejaVuSans-6f" d="M 1959 3097 
Q 1497 3097 1228 2736 
Q 959 2375 959 1747 
Q 959 1119 1226 758 
Q 1494 397 1959 397 
Q 2419 397 2687 759 
Q 2956 1122 2956 1747 
Q 2956 2369 2687 2733 
Q 2419 3097 1959 3097 
z
M 1959 3584 
Q 2709 3584 3137 3096 
Q 3566 2609 3566 1747 
Q 3566 888 3137 398 
Q 2709 -91 1959 -91 
Q 1206 -91 779 398 
Q 353 888 353 1747 
Q 353 2609 779 3096 
Q 1206 3584 1959 3584 
z
" transform="scale(0.015625)"/>
      <path id="DejaVuSans-6e" d="M 3513 2113 
L 3513 0 
L 2938 0 
L 2938 2094 
Q 2938 2591 2744 2837 
Q 2550 3084 2163 3084 
Q 1697 3084 1428 2787 
Q 1159 2491 1159 1978 
L 1159 0 
L 581 0 
L 581 3500 
L 1159 3500 
L 1159 2956 
Q 1366 3272 1645 3428 
Q 1925 3584 2291 3584 
Q 2894 3584 3203 3211 
Q 3513 2838 3513 2113 
z
" transform="scale(0.015625)"/>
      <path id="DejaVuSans-3a" d="M 750 794 
L 1409 794 
L 1409 0 
L 750 0 
L 750 794 
z
M 750 3309 
L 1409 3309 
L 1409 2516 
L 750 2516 
L 750 3309 
z
" transform="scale(0.015625)"/>
      <path id="DejaVuSans-53" d="M 3425 4513 
L 3425 3897 
Q 3066 4069 2747 4153 
Q 2428 4238 2131 4238 
Q 1616 4238 1336 4038 
Q 1056 3838 1056 3469 
Q 1056 3159 1242 3001 
Q 1428 2844 1947 2747 
L 2328 2669 
Q 3034 2534 3370 2195 
Q 3706 1856 3706 1288 
Q 3706 609 3251 259 
Q 2797 -91 1919 -91 
Q 1588 -91 1214 -16 
Q 841 59 441 206 
L 441 856 
Q 825 641 1194 531 
Q 1563 422 1919 422 
Q 2459 422 2753 634 
Q 3047 847 3047 1241 
Q 3047 1584 2836 1778 
Q 2625 1972 2144 2069 
L 1759 2144 
Q 1053 2284 737 2584 
Q 422 2884 422 3419 
Q 422 4038 858 4394 
Q 1294 4750 2059 4750 
Q 2388 4750 2728 4690 
Q 3069 4631 3425 4513 
z
" transform="scale(0.015625)"/>
      <path id="DejaVuSans-65" d="M 3597 1894 
L 3597 1613 
L 953 1613 
Q 991 1019 1311 708 
Q 1631 397 2203 397 
Q 2534 397 2845 478 
Q 3156 559 3463 722 
L 3463 178 
Q 3153 47 2828 -22 
Q 2503 -91 2169 -91 
Q 1331 -91 842 396 
Q 353 884 353 1716 
Q 353 2575 817 3079 
Q 1281 3584 2069 3584 
Q 2775 3584 3186 3129 
Q 3597 2675 3597 1894 
z
M 3022 2063 
Q 3016 2534 2758 2815 
Q 2500 3097 2075 3097 
Q 1594 3097 1305 2825 
Q 1016 2553 972 2059 
L 3022 2063 
z
" transform="scale(0.015625)"/>
      <path id="DejaVuSans-45" d="M 628 4666 
L 3578 4666 
L 3578 4134 
L 1259 4134 
L 1259 2753 
L 3481 2753 
L 3481 2222 
L 1259 2222 
L 1259 531 
L 3634 531 
L 3634 0 
L 628 0 
L 628 4666 
z
" transform="scale(0.015625)"/>
      <path id="DejaVuSans-50" d="M 1259 4147 
L 1259 2394 
L 2053 2394 
Q 2494 2394 2734 2622 
Q 2975 2850 2975 3272 
Q 2975 3691 2734 3919 
Q 2494 4147 2053 4147 
L 1259 4147 
z
M 628 4666 
L 2053 4666 
Q 2838 4666 3239 4311 
Q 3641 3956 3641 3272 
Q 3641 2581 3239 2228 
Q 2838 1875 2053 1875 
L 1259 1875 
L 1259 0 
L 628 0 
L 628 4666 
z
" transform="scale(0.015625)"/>
      <path id="DejaVuSans-76" d="M 191 3500 
L 800 3500 
L 1894 563 
L 2988 3500 
L 3597 3500 
L 2284 0 
L 1503 0 
L 191 3500 
z
" transform="scale(0.015625)"/>
      <path id="DejaVuSans-49" d="M 628 4666 
L 1259 4666 
L 1259 0 
L 628 0 
L 628 4666 
z
" transform="scale(0.015625)"/>
      <path id="DejaVuSans-64" d="M 2906 2969 
L 2906 4863 
L 3481 4863 
L 3481 0 
L 2906 0 
L 2906 525 
Q 2725 213 2448 61 
Q 2172 -91 1784 -91 
Q 1150 -91 751 415 
Q 353 922 353 1747 
Q 353 2572 751 3078 
Q 1150 3584 1784 3584 
Q 2172 3584 2448 3432 
Q 2725 3281 2906 2969 
z
M 947 1747 
Q 947 1113 1208 752 
Q 1469 391 1925 391 
Q 2381 391 2643 752 
Q 2906 1113 2906 1747 
Q 2906 2381 2643 2742 
Q 2381 3103 1925 3103 
Q 1469 3103 1208 2742 
Q 947 2381 947 1747 
z
" transform="scale(0.015625)"/>
     </defs>
     <use xlink:href="#DejaVuSans-33"/>
     <use xlink:href="#DejaVuSans-44" transform="translate(63.623047 0)"/>
     <use xlink:href="#DejaVuSans-20" transform="translate(140.625 0)"/>
     <use xlink:href="#DejaVuSans-46" transform="translate(172.412109 0)"/>
     <use xlink:href="#DejaVuSans-6c" transform="translate(229.931641 0)"/>
     <use xlink:href="#DejaVuSans-69" transform="translate(257.714844 0)"/>
     <use xlink:href="#DejaVuSans-67" transform="translate(285.498047 0)"/>
     <use xlink:href="#DejaVuSans-68" transform="translate(348.974609 0)"/>
     <use xlink:href="#DejaVuSans-74" transform="translate(412.353516 0)"/>
     <use xlink:href="#DejaVuSans-20" transform="translate(451.5625 0)"/>
     <use xlink:href="#DejaVuSans-56" transform="translate(483.349609 0)"/>
     <use xlink:href="#DejaVuSans-69" transform="translate(549.507812 0)"/>
     <use xlink:href="#DejaVuSans-73" transform="translate(577.291016 0)"/>
     <use xlink:href="#DejaVuSans-75" transform="translate(629.390625 0)"/>
     <use xlink:href="#DejaVuSans-61" transform="translate(692.769531 0)"/>
     <use xlink:href="#DejaVuSans-6c" transform="translate(754.048828 0)"/>
     <use xlink:href="#DejaVuSans-69" transform="translate(781.832031 0)"/>
     <use xlink:href="#DejaVuSans-7a" transform="translate(809.615234 0)"/>
     <use xlink:href="#DejaVuSans-61" transform="translate(862.105469 0)"/>
     <use xlink:href="#DejaVuSans-74" transform="translate(923.384766 0)"/>
     <use xlink:href="#DejaVuSans-69" transform="translate(962.59375 0)"/>
     <use xlink:href="#DejaVuSans-6f" transform="translate(990.376953 0)"/>
     <use xlink:href="#DejaVuSans-6e" transform="translate(1051.558594 0)"/>
     <use xlink:href="#DejaVuSans-3a" transform="translate(1114.9375 0)"/>
     <use xlink:href="#DejaVuSans-20" transform="translate(1148.628906 0)"/>
     <use xlink:href="#DejaVuSans-53" transform="translate(1180.416016 0)"/>
     <use xlink:href="#DejaVuSans-74" transform="translate(1243.892578 0)"/>
     <use xlink:href="#DejaVuSans-61" transform="translate(1283.101562 0)"/>
     <use xlink:href="#DejaVuSans-74" transform="translate(1344.380859 0)"/>
     <use xlink:href="#DejaVuSans-65" transform="translate(1383.589844 0)"/>
     <use xlink:href="#DejaVuSans-20" transform="translate(1445.113281 0)"/>
     <use xlink:href="#DejaVuSans-45" transform="translate(1476.900391 0)"/>
     <use xlink:href="#DejaVuSans-73" transform="translate(1540.083984 0)"/>
     <use xlink:href="#DejaVuSans-74" transform="translate(1592.183594 0)"/>
     <use xlink:href="#DejaVuSans-69" transform="translate(1631.392578 0)"/>
     <use xlink:href="#DejaVuSans-6d" transform="translate(1659.175781 0)"/>
     <use xlink:href="#DejaVuSans-61" transform="translate(1756.587891 0)"/>
     <use xlink:href="#DejaVuSans-74" transform="translate(1817.867188 0)"/>
     <use xlink:href="#DejaVuSans-65" transform="translate(1857.076172 0)"/>
     <use xlink:href="#DejaVuSans-20" transform="translate(1918.599609 0)"/>
     <use xlink:href="#DejaVuSans-46" transform="translate(1950.386719 0)"/>
     <use xlink:href="#DejaVuSans-6c" transform="translate(2007.90625 0)"/>
     <use xlink:href="#DejaVuSans-69" transform="translate(2035.689453 0)"/>
     <use xlink:href="#DejaVuSans-67" transform="translate(2063.472656 0)"/>
     <use xlink:href="#DejaVuSans-68" transform="translate(2126.949219 0)"/>
     <use xlink:href="#DejaVuSans-74" transform="translate(2190.328125 0)"/>
     <use xlink:href="#DejaVuSans-20" transform="translate(2229.537109 0)"/>
     <use xlink:href="#DejaVuSans-50" transform="translate(2261.324219 0)"/>
     <use xlink:href="#DejaVuSans-61" transform="translate(2317.126953 0)"/>
     <use xlink:href="#DejaVuSans-74" transform="translate(2378.40625 0)"/>
     <use xlink:href="#DejaVuSans-68" transform="translate(2417.615234 0)"/>
     <use xlink:href="#DejaVuSans-20" transform="translate(2480.994141 0)"/>
     <use xlink:href="#DejaVuSans-76" transform="translate(2512.78125 0)"/>
     <use xlink:href="#DejaVuSans-73" transform="translate(2571.960938 0)"/>
     <use xlink:href="#DejaVuSans-2e" transform="translate(2624.060547 0)"/>
     <use xlink:href="#DejaVuSans-20" transform="translate(2655.847656 0)"/>
     <use xlink:href="#DejaVuSans-49" transform="translate(2687.634766 0)"/>
     <use xlink:href="#DejaVuSans-64" transform="translate(2717.126953 0)"/>
     <use xlink:href="#DejaVuSans-65" transform="translate(2780.603516 0)"/>
     <use xlink:href="#DejaVuSans-61" transform="translate(2842.126953 0)"/>
     <use xlink:href="#DejaVuSans-6c" transform="translate(2903.40625 0)"/>
    </g>
   </g>
   <g id="legend_1">
    <g id="patch_6">
     <path d="M 928.49625 75.3075 
L 1122.96 75.3075 
Q 1125.36 75.3075 1125.36 72.9075 
L 1125.36 38.88 
Q 1125.36 36.48 1122.96 36.48 
L 928.49625 36.48 
Q 926.09625 36.48 926.09625 38.88 
L 926.09625 72.9075 
Q 926.09625 75.3075 928.49625 75.3075 
z
" style="fill: #ffffff; opacity: 0.8; stroke: #cccccc; stroke-linejoin: miter"/>
    </g>
    <g id="line2d_29">
     <path d="M 930.89625 46.198125 
L 942.89625 46.198125 
L 954.89625 46.198125 
" style="fill: none; stroke: #0000ff; stroke-width: 2; stroke-linecap: square"/>
    </g>
    <g id="text_33">
     <!-- State Estimate Flight Path -->
     <g transform="translate(964.49625 50.398125) scale(0.12 -0.12)">
      <use xlink:href="#DejaVuSans-53"/>
      <use xlink:href="#DejaVuSans-74" transform="translate(63.476562 0)"/>
      <use xlink:href="#DejaVuSans-61" transform="translate(102.685547 0)"/>
      <use xlink:href="#DejaVuSans-74" transform="translate(163.964844 0)"/>
      <use xlink:href="#DejaVuSans-65" transform="translate(203.173828 0)"/>
      <use xlink:href="#DejaVuSans-20" transform="translate(264.697266 0)"/>
      <use xlink:href="#DejaVuSans-45" transform="translate(296.484375 0)"/>
      <use xlink:href="#DejaVuSans-73" transform="translate(359.667969 0)"/>
      <use xlink:href="#DejaVuSans-74" transform="translate(411.767578 0)"/>
      <use xlink:href="#DejaVuSans-69" transform="translate(450.976562 0)"/>
      <use xlink:href="#DejaVuSans-6d" transform="translate(478.759766 0)"/>
      <use xlink:href="#DejaVuSans-61" transform="translate(576.171875 0)"/>
      <use xlink:href="#DejaVuSans-74" transform="translate(637.451172 0)"/>
      <use xlink:href="#DejaVuSans-65" transform="translate(676.660156 0)"/>
      <use xlink:href="#DejaVuSans-20" transform="translate(738.183594 0)"/>
      <use xlink:href="#DejaVuSans-46" transform="translate(769.970703 0)"/>
      <use xlink:href="#DejaVuSans-6c" transform="translate(827.490234 0)"/>
      <use xlink:href="#DejaVuSans-69" transform="translate(855.273438 0)"/>
      <use xlink:href="#DejaVuSans-67" transform="translate(883.056641 0)"/>
      <use xlink:href="#DejaVuSans-68" transform="translate(946.533203 0)"/>
      <use xlink:href="#DejaVuSans-74" transform="translate(1009.912109 0)"/>
      <use xlink:href="#DejaVuSans-20" transform="translate(1049.121094 0)"/>
      <use xlink:href="#DejaVuSans-50" transform="translate(1080.908203 0)"/>
      <use xlink:href="#DejaVuSans-61" transform="translate(1136.710938 0)"/>
      <use xlink:href="#DejaVuSans-74" transform="translate(1197.990234 0)"/>
      <use xlink:href="#DejaVuSans-68" transform="translate(1237.199219 0)"/>
     </g>
    </g>
    <g id="line2d_30">
     <path d="M 930.89625 63.811875 
L 942.89625 63.811875 
L 954.89625 63.811875 
" style="fill: none; stroke-dasharray: 7.4,3.2; stroke-dashoffset: 0; stroke: #008000; stroke-width: 2"/>
    </g>
    <g id="text_34">
     <!-- Ideal Waypoints Path -->
     <g transform="translate(964.49625 68.011875) scale(0.12 -0.12)">
      <defs>
       <path id="DejaVuSans-57" d="M 213 4666 
L 850 4666 
L 1831 722 
L 2809 4666 
L 3519 4666 
L 4500 722 
L 5478 4666 
L 6119 4666 
L 4947 0 
L 4153 0 
L 3169 4050 
L 2175 0 
L 1381 0 
L 213 4666 
z
" transform="scale(0.015625)"/>
       <path id="DejaVuSans-79" d="M 2059 -325 
Q 1816 -950 1584 -1140 
Q 1353 -1331 966 -1331 
L 506 -1331 
L 506 -850 
L 844 -850 
Q 1081 -850 1212 -737 
Q 1344 -625 1503 -206 
L 1606 56 
L 191 3500 
L 800 3500 
L 1894 763 
L 2988 3500 
L 3597 3500 
L 2059 -325 
z
" transform="scale(0.015625)"/>
       <path id="DejaVuSans-70" d="M 1159 525 
L 1159 -1331 
L 581 -1331 
L 581 3500 
L 1159 3500 
L 1159 2969 
Q 1341 3281 1617 3432 
Q 1894 3584 2278 3584 
Q 2916 3584 3314 3078 
Q 3713 2572 3713 1747 
Q 3713 922 3314 415 
Q 2916 -91 2278 -91 
Q 1894 -91 1617 61 
Q 1341 213 1159 525 
z
M 3116 1747 
Q 3116 2381 2855 2742 
Q 2594 3103 2138 3103 
Q 1681 3103 1420 2742 
Q 1159 2381 1159 1747 
Q 1159 1113 1420 752 
Q 1681 391 2138 391 
Q 2594 391 2855 752 
Q 3116 1113 3116 1747 
z
" transform="scale(0.015625)"/>
      </defs>
      <use xlink:href="#DejaVuSans-49"/>
      <use xlink:href="#DejaVuSans-64" transform="translate(29.492188 0)"/>
      <use xlink:href="#DejaVuSans-65" transform="translate(92.96875 0)"/>
      <use xlink:href="#DejaVuSans-61" transform="translate(154.492188 0)"/>
      <use xlink:href="#DejaVuSans-6c" transform="translate(215.771484 0)"/>
      <use xlink:href="#DejaVuSans-20" transform="translate(243.554688 0)"/>
      <use xlink:href="#DejaVuSans-57" transform="translate(275.341797 0)"/>
      <use xlink:href="#DejaVuSans-61" transform="translate(367.84375 0)"/>
      <use xlink:href="#DejaVuSans-79" transform="translate(429.123047 0)"/>
      <use xlink:href="#DejaVuSans-70" transform="translate(488.302734 0)"/>
      <use xlink:href="#DejaVuSans-6f" transform="translate(551.779297 0)"/>
      <use xlink:href="#DejaVuSans-69" transform="translate(612.960938 0)"/>
      <use xlink:href="#DejaVuSans-6e" transform="translate(640.744141 0)"/>
      <use xlink:href="#DejaVuSans-74" transform="translate(704.123047 0)"/>
      <use xlink:href="#DejaVuSans-73" transform="translate(743.332031 0)"/>
      <use xlink:href="#DejaVuSans-20" transform="translate(795.431641 0)"/>
      <use xlink:href="#DejaVuSans-50" transform="translate(827.21875 0)"/>
      <use xlink:href="#DejaVuSans-61" transform="translate(883.021484 0)"/>
      <use xlink:href="#DejaVuSans-74" transform="translate(944.300781 0)"/>
      <use xlink:href="#DejaVuSans-68" transform="translate(983.509766 0)"/>
     </g>
    </g>
   </g>
  </g>
 </g>
 <defs>
  <clipPath id="pf5b275bd50">
   <rect x="164.64" y="30.48" width="966.72" height="966.72"/>
  </clipPath>
 </defs>
</svg>
