<?xml version="1.0" encoding="utf-8" standalone="no"?>
<!DOCTYPE svg PUBLIC "-//W3C//DTD SVG 1.1//EN"
  "http://www.w3.org/Graphics/SVG/1.1/DTD/svg11.dtd">
<svg xmlns:xlink="http://www.w3.org/1999/xlink" width="1296pt" height="1008pt" viewBox="0 0 1296 1008" xmlns="http://www.w3.org/2000/svg" version="1.1">
 <metadata>
  <rdf:RDF xmlns:dc="http://purl.org/dc/elements/1.1/" xmlns:cc="http://creativecommons.org/ns#" xmlns:rdf="http://www.w3.org/1999/02/22-rdf-syntax-ns#">
   <cc:Work>
    <dc:type rdf:resource="http://purl.org/dc/dcmitype/StillImage"/>
    <dc:date>2025-07-27T00:03:31.702706</dc:date>
    <dc:format>image/svg+xml</dc:format>
    <dc:creator>
     <cc:Agent>
      <dc:title>Matplotlib v3.10.3, https://matplotlib.org/</dc:title>
     </cc:Agent>
    </dc:creator>
   </cc:Work>
  </rdf:RDF>
 </metadata>
 <defs>
  <style type="text/css">*{stroke-linejoin: round; stroke-linecap: butt}</style>
 </defs>
 <g id="figure_1">
  <g id="patch_1">
   <path d="M 0 1008 
L 1296 1008 
L 1296 0 
L 0 0 
z
" style="fill: #ffffff"/>
  </g>
  <g id="patch_2">
   <path d="M 164.64 997.2 
L 1131.36 997.2 
L 1131.36 30.48 
L 164.64 30.48 
z
" style="fill: #ffffff"/>
  </g>
  <g id="pane3d_1">
   <g id="patch_3">
    <path d="M 661.063784 524.082082 
L 229.328797 708.286308 
L 212.724536 285.285415 
L 661.063784 125.027125 
" style="fill: #f2f2f2; opacity: 0.5; stroke: #f2f2f2; stroke-linejoin: miter"/>
   </g>
  </g>
  <g id="pane3d_2">
   <g id="patch_4">
    <path d="M 1092.798771 708.286308 
L 661.063784 524.082082 
L 661.063784 125.027125 
L 1109.403032 285.285415 
" style="fill: #e6e6e6; opacity: 0.5; stroke: #e6e6e6; stroke-linejoin: miter"/>
   </g>
  </g>
  <g id="pane3d_3">
   <g id="patch_5">
    <path d="M 1092.798771 708.286308 
L 661.063784 524.082082 
L 229.328797 708.286308 
L 661.063784 922.309689 
" style="fill: #ececec; opacity: 0.5; stroke: #ececec; stroke-linejoin: miter"/>
   </g>
  </g>
  <g id="grid3d_1">
   <g id="Line3DCollection_1">
    <path d="M 615.433229 899.689318 
L 1047.39716 688.915238 
L 1062.1423 268.392127 
" style="fill: none; stroke: #b0b0b0; stroke-width: 0.8"/>
    <path d="M 561.852412 873.127774 
L 994.016396 666.139779 
L 1006.609724 248.542079 
" style="fill: none; stroke: #b0b0b0; stroke-width: 0.8"/>
    <path d="M 509.266076 847.059224 
L 941.554023 643.756162 
L 952.068374 229.046343 
" style="fill: none; stroke: #b0b0b0; stroke-width: 0.8"/>
    <path d="M 457.64679 821.470067 
L 889.986543 621.75436 
L 898.491947 209.895518 
" style="fill: none; stroke: #b0b0b0; stroke-width: 0.8"/>
    <path d="M 406.968122 796.347202 
L 839.291251 600.124686 
L 845.855058 191.08053 
" style="fill: none; stroke: #b0b0b0; stroke-width: 0.8"/>
    <path d="M 357.204592 771.677997 
L 789.446206 578.857779 
L 794.13321 172.592621 
" style="fill: none; stroke: #b0b0b0; stroke-width: 0.8"/>
    <path d="M 308.331635 747.450274 
L 740.430196 557.944588 
L 743.302748 154.423338 
" style="fill: none; stroke: #b0b0b0; stroke-width: 0.8"/>
    <path d="M 260.325556 723.652288 
L 692.222707 537.376361 
L 693.340824 136.564512 
" style="fill: none; stroke: #b0b0b0; stroke-width: 0.8"/>
   </g>
  </g>
  <g id="grid3d_2">
   <g id="Line3DCollection_2">
    <path d="M 608.119215 143.952094 
L 609.959591 545.886218 
L 1041.947368 733.494802 
" style="fill: none; stroke: #b0b0b0; stroke-width: 0.8"/>
    <path d="M 550.338503 164.605735 
L 554.224242 569.666284 
L 986.410658 761.025938 
" style="fill: none; stroke: #b0b0b0; stroke-width: 0.8"/>
    <path d="M 491.398729 185.673682 
L 497.410475 593.90647 
L 929.716449 789.130879 
" style="fill: none; stroke: #b0b0b0; stroke-width: 0.8"/>
    <path d="M 431.264663 207.168527 
L 439.486684 618.620258 
L 871.828174 817.827753 
" style="fill: none; stroke: #b0b0b0; stroke-width: 0.8"/>
    <path d="M 369.899634 229.103377 
L 380.420018 643.821666 
L 812.707707 847.135459 
" style="fill: none; stroke: #b0b0b0; stroke-width: 0.8"/>
    <path d="M 307.265454 251.491885 
L 320.176315 669.525269 
L 752.315283 877.073711 
" style="fill: none; stroke: #b0b0b0; stroke-width: 0.8"/>
    <path d="M 243.322339 274.34827 
L 258.720038 695.746229 
L 690.609408 907.663078 
" style="fill: none; stroke: #b0b0b0; stroke-width: 0.8"/>
   </g>
  </g>
  <g id="grid3d_3">
   <g id="Line3DCollection_3">
    <path d="M 1093.818677 682.303752 
L 661.063784 499.508762 
L 228.308891 682.303752 
" style="fill: none; stroke: #b0b0b0; stroke-width: 0.8"/>
    <path d="M 1095.577931 637.485978 
L 661.063784 457.140803 
L 226.549637 637.485978 
" style="fill: none; stroke: #b0b0b0; stroke-width: 0.8"/>
    <path d="M 1097.351547 592.302326 
L 661.063784 414.451297 
L 224.776021 592.302326 
" style="fill: none; stroke: #b0b0b0; stroke-width: 0.8"/>
    <path d="M 1099.139701 546.748298 
L 661.063784 371.43657 
L 222.987866 546.748298 
" style="fill: none; stroke: #b0b0b0; stroke-width: 0.8"/>
    <path d="M 1100.942574 500.819321 
L 661.063784 328.092891 
L 221.184994 500.819321 
" style="fill: none; stroke: #b0b0b0; stroke-width: 0.8"/>
    <path d="M 1102.760347 454.510746 
L 661.063784 284.416471 
L 219.367221 454.510746 
" style="fill: none; stroke: #b0b0b0; stroke-width: 0.8"/>
    <path d="M 1104.593206 407.817848 
L 661.063784 240.403465 
L 217.534361 407.817848 
" style="fill: none; stroke: #b0b0b0; stroke-width: 0.8"/>
    <path d="M 1106.44134 360.735823 
L 661.063784 196.049968 
L 215.686228 360.735823 
" style="fill: none; stroke: #b0b0b0; stroke-width: 0.8"/>
    <path d="M 1108.30494 313.259786 
L 661.063784 151.352011 
L 213.822628 313.259786 
" style="fill: none; stroke: #b0b0b0; stroke-width: 0.8"/>
   </g>
  </g>
  <g id="axis3d_1">
   <g id="line2d_1">
    <path d="M 229.328797 708.286308 
L 661.063784 922.309689 
" style="fill: none; stroke: #000000; stroke-width: 0.8; stroke-linecap: square"/>
   </g>
   <g id="xtick_1">
    <g id="line2d_2">
     <path d="M 619.164037 897.868894 
L 607.957215 903.337192 
" style="fill: none; stroke: #000000; stroke-width: 0.8; stroke-linecap: square"/>
    </g>
    <g id="text_1">
     <!-- −0.6 -->
     <g transform="translate(592.66501 922.305757) scale(0.1 -0.1)">
      <defs>
       <path id="DejaVuSans-2212" d="M 678 2272 
L 4684 2272 
L 4684 1741 
L 678 1741 
L 678 2272 
z
" transform="scale(0.015625)"/>
       <path id="DejaVuSans-30" d="M 2034 4250 
Q 1547 4250 1301 3770 
Q 1056 3291 1056 2328 
Q 1056 1369 1301 889 
Q 1547 409 2034 409 
Q 2525 409 2770 889 
Q 3016 1369 3016 2328 
Q 3016 3291 2770 3770 
Q 2525 4250 2034 4250 
z
M 2034 4750 
Q 2819 4750 3233 4129 
Q 3647 3509 3647 2328 
Q 3647 1150 3233 529 
Q 2819 -91 2034 -91 
Q 1250 -91 836 529 
Q 422 1150 422 2328 
Q 422 3509 836 4129 
Q 1250 4750 2034 4750 
z
" transform="scale(0.015625)"/>
       <path id="DejaVuSans-2e" d="M 684 794 
L 1344 794 
L 1344 0 
L 684 0 
L 684 794 
z
" transform="scale(0.015625)"/>
       <path id="DejaVuSans-36" d="M 2113 2584 
Q 1688 2584 1439 2293 
Q 1191 2003 1191 1497 
Q 1191 994 1439 701 
Q 1688 409 2113 409 
Q 2538 409 2786 701 
Q 3034 994 3034 1497 
Q 3034 2003 2786 2293 
Q 2538 2584 2113 2584 
z
M 3366 4563 
L 3366 3988 
Q 3128 4100 2886 4159 
Q 2644 4219 2406 4219 
Q 1781 4219 1451 3797 
Q 1122 3375 1075 2522 
Q 1259 2794 1537 2939 
Q 1816 3084 2150 3084 
Q 2853 3084 3261 2657 
Q 3669 2231 3669 1497 
Q 3669 778 3244 343 
Q 2819 -91 2113 -91 
Q 1303 -91 875 529 
Q 447 1150 447 2328 
Q 447 3434 972 4092 
Q 1497 4750 2381 4750 
Q 2619 4750 2861 4703 
Q 3103 4656 3366 4563 
z
" transform="scale(0.015625)"/>
      </defs>
      <use xlink:href="#DejaVuSans-2212"/>
      <use xlink:href="#DejaVuSans-30" transform="translate(83.789062 0)"/>
      <use xlink:href="#DejaVuSans-2e" transform="translate(147.412109 0)"/>
      <use xlink:href="#DejaVuSans-36" transform="translate(179.199219 0)"/>
     </g>
    </g>
   </g>
   <g id="xtick_2">
    <g id="line2d_3">
     <path d="M 565.582371 871.341284 
L 554.378232 876.707585 
" style="fill: none; stroke: #000000; stroke-width: 0.8; stroke-linecap: square"/>
    </g>
    <g id="text_2">
     <!-- −0.4 -->
     <g transform="translate(539.13458 895.578995) scale(0.1 -0.1)">
      <defs>
       <path id="DejaVuSans-34" d="M 2419 4116 
L 825 1625 
L 2419 1625 
L 2419 4116 
z
M 2253 4666 
L 3047 4666 
L 3047 1625 
L 3713 1625 
L 3713 1100 
L 3047 1100 
L 3047 0 
L 2419 0 
L 2419 1100 
L 313 1100 
L 313 1709 
L 2253 4666 
z
" transform="scale(0.015625)"/>
      </defs>
      <use xlink:href="#DejaVuSans-2212"/>
      <use xlink:href="#DejaVuSans-30" transform="translate(83.789062 0)"/>
      <use xlink:href="#DejaVuSans-2e" transform="translate(147.412109 0)"/>
      <use xlink:href="#DejaVuSans-34" transform="translate(179.199219 0)"/>
     </g>
    </g>
   </g>
   <g id="xtick_3">
    <g id="line2d_4">
     <path d="M 512.994576 845.305727 
L 501.794954 850.572858 
" style="fill: none; stroke: #000000; stroke-width: 0.8; stroke-linecap: square"/>
    </g>
    <g id="text_3">
     <!-- −0.2 -->
     <g transform="translate(486.598602 869.348745) scale(0.1 -0.1)">
      <defs>
       <path id="DejaVuSans-32" d="M 1228 531 
L 3431 531 
L 3431 0 
L 469 0 
L 469 531 
Q 828 903 1448 1529 
Q 2069 2156 2228 2338 
Q 2531 2678 2651 2914 
Q 2772 3150 2772 3378 
Q 2772 3750 2511 3984 
Q 2250 4219 1831 4219 
Q 1534 4219 1204 4116 
Q 875 4013 500 3803 
L 500 4441 
Q 881 4594 1212 4672 
Q 1544 4750 1819 4750 
Q 2544 4750 2975 4387 
Q 3406 4025 3406 3419 
Q 3406 3131 3298 2873 
Q 3191 2616 2906 2266 
Q 2828 2175 2409 1742 
Q 1991 1309 1228 531 
z
" transform="scale(0.015625)"/>
      </defs>
      <use xlink:href="#DejaVuSans-2212"/>
      <use xlink:href="#DejaVuSans-30" transform="translate(83.789062 0)"/>
      <use xlink:href="#DejaVuSans-2e" transform="translate(147.412109 0)"/>
      <use xlink:href="#DejaVuSans-32" transform="translate(179.199219 0)"/>
     </g>
    </g>
   </g>
   <g id="xtick_4">
    <g id="line2d_5">
     <path d="M 461.373254 819.748659 
L 450.179878 824.919344 
" style="fill: none; stroke: #000000; stroke-width: 0.8; stroke-linecap: square"/>
    </g>
    <g id="text_4">
     <!-- 0.0 -->
     <g transform="translate(439.219462 843.601298) scale(0.1 -0.1)">
      <use xlink:href="#DejaVuSans-30"/>
      <use xlink:href="#DejaVuSans-2e" transform="translate(63.623047 0)"/>
      <use xlink:href="#DejaVuSans-30" transform="translate(95.410156 0)"/>
     </g>
    </g>
   </g>
   <g id="xtick_5">
    <g id="line2d_6">
     <path d="M 410.692004 794.657008 
L 399.506509 799.733873 
" style="fill: none; stroke: #000000; stroke-width: 0.8; stroke-linecap: square"/>
    </g>
    <g id="text_5">
     <!-- 0.2 -->
     <g transform="translate(388.59102 818.323445) scale(0.1 -0.1)">
      <use xlink:href="#DejaVuSans-30"/>
      <use xlink:href="#DejaVuSans-2e" transform="translate(63.623047 0)"/>
      <use xlink:href="#DejaVuSans-32" transform="translate(95.410156 0)"/>
     </g>
    </g>
   </g>
   <g id="xtick_6">
    <g id="line2d_7">
     <path d="M 360.925379 770.018177 
L 349.749307 775.003751 
" style="fill: none; stroke: #000000; stroke-width: 0.8; stroke-linecap: square"/>
    </g>
    <g id="text_6">
     <!-- 0.4 -->
     <g transform="translate(338.877619 793.502456) scale(0.1 -0.1)">
      <use xlink:href="#DejaVuSans-30"/>
      <use xlink:href="#DejaVuSans-2e" transform="translate(63.623047 0)"/>
      <use xlink:href="#DejaVuSans-34" transform="translate(95.410156 0)"/>
     </g>
    </g>
   </g>
   <g id="xtick_7">
    <g id="line2d_8">
     <path d="M 312.048841 745.820017 
L 300.883648 750.716741 
" style="fill: none; stroke: #000000; stroke-width: 0.8; stroke-linecap: square"/>
    </g>
    <g id="text_7">
     <!-- 0.6 -->
     <g transform="translate(290.054676 769.126056) scale(0.1 -0.1)">
      <use xlink:href="#DejaVuSans-30"/>
      <use xlink:href="#DejaVuSans-2e" transform="translate(63.623047 0)"/>
      <use xlink:href="#DejaVuSans-36" transform="translate(95.410156 0)"/>
     </g>
    </g>
   </g>
   <g id="xtick_8">
    <g id="line2d_9">
     <path d="M 264.038722 722.05081 
L 252.885784 726.861039 
" style="fill: none; stroke: #000000; stroke-width: 0.8; stroke-linecap: square"/>
    </g>
    <g id="text_8">
     <!-- 0.8 -->
     <g transform="translate(242.098477 745.182406) scale(0.1 -0.1)">
      <defs>
       <path id="DejaVuSans-38" d="M 2034 2216 
Q 1584 2216 1326 1975 
Q 1069 1734 1069 1313 
Q 1069 891 1326 650 
Q 1584 409 2034 409 
Q 2484 409 2743 651 
Q 3003 894 3003 1313 
Q 3003 1734 2745 1975 
Q 2488 2216 2034 2216 
z
M 1403 2484 
Q 997 2584 770 2862 
Q 544 3141 544 3541 
Q 544 4100 942 4425 
Q 1341 4750 2034 4750 
Q 2731 4750 3128 4425 
Q 3525 4100 3525 3541 
Q 3525 3141 3298 2862 
Q 3072 2584 2669 2484 
Q 3125 2378 3379 2068 
Q 3634 1759 3634 1313 
Q 3634 634 3220 271 
Q 2806 -91 2034 -91 
Q 1263 -91 848 271 
Q 434 634 434 1313 
Q 434 1759 690 2068 
Q 947 2378 1403 2484 
z
M 1172 3481 
Q 1172 3119 1398 2916 
Q 1625 2713 2034 2713 
Q 2441 2713 2670 2916 
Q 2900 3119 2900 3481 
Q 2900 3844 2670 4047 
Q 2441 4250 2034 4250 
Q 1625 4250 1398 4047 
Q 1172 3844 1172 3481 
z
" transform="scale(0.015625)"/>
      </defs>
      <use xlink:href="#DejaVuSans-30"/>
      <use xlink:href="#DejaVuSans-2e" transform="translate(63.623047 0)"/>
      <use xlink:href="#DejaVuSans-38" transform="translate(95.410156 0)"/>
     </g>
    </g>
   </g>
   <g id="text_9">
    <!-- X (m) -->
    <g transform="translate(395.039199 837.512161) rotate(-333.63107) scale(0.14 -0.14)">
     <defs>
      <path id="DejaVuSans-58" d="M 403 4666 
L 1081 4666 
L 2241 2931 
L 3406 4666 
L 4084 4666 
L 2584 2425 
L 4184 0 
L 3506 0 
L 2194 1984 
L 872 0 
L 191 0 
L 1856 2491 
L 403 4666 
z
" transform="scale(0.015625)"/>
      <path id="DejaVuSans-20" transform="scale(0.015625)"/>
      <path id="DejaVuSans-28" d="M 1984 4856 
Q 1566 4138 1362 3434 
Q 1159 2731 1159 2009 
Q 1159 1288 1364 580 
Q 1569 -128 1984 -844 
L 1484 -844 
Q 1016 -109 783 600 
Q 550 1309 550 2009 
Q 550 2706 781 3412 
Q 1013 4119 1484 4856 
L 1984 4856 
z
" transform="scale(0.015625)"/>
      <path id="DejaVuSans-6d" d="M 3328 2828 
Q 3544 3216 3844 3400 
Q 4144 3584 4550 3584 
Q 5097 3584 5394 3201 
Q 5691 2819 5691 2113 
L 5691 0 
L 5113 0 
L 5113 2094 
Q 5113 2597 4934 2840 
Q 4756 3084 4391 3084 
Q 3944 3084 3684 2787 
Q 3425 2491 3425 1978 
L 3425 0 
L 2847 0 
L 2847 2094 
Q 2847 2600 2669 2842 
Q 2491 3084 2119 3084 
Q 1678 3084 1418 2786 
Q 1159 2488 1159 1978 
L 1159 0 
L 581 0 
L 581 3500 
L 1159 3500 
L 1159 2956 
Q 1356 3278 1631 3431 
Q 1906 3584 2284 3584 
Q 2666 3584 2933 3390 
Q 3200 3197 3328 2828 
z
" transform="scale(0.015625)"/>
      <path id="DejaVuSans-29" d="M 513 4856 
L 1013 4856 
Q 1481 4119 1714 3412 
Q 1947 2706 1947 2009 
Q 1947 1309 1714 600 
Q 1481 -109 1013 -844 
L 513 -844 
Q 928 -128 1133 580 
Q 1338 1288 1338 2009 
Q 1338 2731 1133 3434 
Q 928 4138 513 4856 
z
" transform="scale(0.015625)"/>
     </defs>
     <use xlink:href="#DejaVuSans-58"/>
     <use xlink:href="#DejaVuSans-20" transform="translate(68.505859 0)"/>
     <use xlink:href="#DejaVuSans-28" transform="translate(100.292969 0)"/>
     <use xlink:href="#DejaVuSans-6d" transform="translate(139.306641 0)"/>
     <use xlink:href="#DejaVuSans-29" transform="translate(236.71875 0)"/>
    </g>
   </g>
  </g>
  <g id="axis3d_2">
   <g id="line2d_10">
    <path d="M 1092.798771 708.286308 
L 661.063784 922.309689 
" style="fill: none; stroke: #000000; stroke-width: 0.8; stroke-linecap: square"/>
   </g>
   <g id="xtick_9">
    <g id="line2d_11">
     <path d="M 1038.232469 731.881453 
L 1049.390663 736.727361 
" style="fill: none; stroke: #000000; stroke-width: 0.8; stroke-linecap: square"/>
    </g>
    <g id="text_10">
     <!-- −0.6 -->
     <g transform="translate(1040.102199 755.08512) scale(0.1 -0.1)">
      <use xlink:href="#DejaVuSans-2212"/>
      <use xlink:href="#DejaVuSans-30" transform="translate(83.789062 0)"/>
      <use xlink:href="#DejaVuSans-2e" transform="translate(147.412109 0)"/>
      <use xlink:href="#DejaVuSans-36" transform="translate(179.199219 0)"/>
     </g>
    </g>
   </g>
   <g id="xtick_10">
    <g id="line2d_12">
     <path d="M 982.691379 759.379149 
L 993.862866 764.32556 
" style="fill: none; stroke: #000000; stroke-width: 0.8; stroke-linecap: square"/>
    </g>
    <g id="text_11">
     <!-- −0.4 -->
     <g transform="translate(984.622768 782.784982) scale(0.1 -0.1)">
      <use xlink:href="#DejaVuSans-2212"/>
      <use xlink:href="#DejaVuSans-30" transform="translate(83.789062 0)"/>
      <use xlink:href="#DejaVuSans-2e" transform="translate(147.412109 0)"/>
      <use xlink:href="#DejaVuSans-34" transform="translate(179.199219 0)"/>
     </g>
    </g>
   </g>
   <g id="xtick_11">
    <g id="line2d_13">
     <path d="M 925.993415 787.449599 
L 937.176326 792.499673 
" style="fill: none; stroke: #000000; stroke-width: 0.8; stroke-linecap: square"/>
    </g>
    <g id="text_12">
     <!-- −0.2 -->
     <g transform="translate(927.986001 811.062681) scale(0.1 -0.1)">
      <use xlink:href="#DejaVuSans-2212"/>
      <use xlink:href="#DejaVuSans-30" transform="translate(83.789062 0)"/>
      <use xlink:href="#DejaVuSans-2e" transform="translate(147.412109 0)"/>
      <use xlink:href="#DejaVuSans-32" transform="translate(179.199219 0)"/>
     </g>
    </g>
   </g>
   <g id="xtick_12">
    <g id="line2d_14">
     <path d="M 868.102048 816.110887 
L 879.294389 821.267918 
" style="fill: none; stroke: #000000; stroke-width: 0.8; stroke-linecap: square"/>
    </g>
    <g id="text_13">
     <!-- 0.0 -->
     <g transform="translate(874.345146 839.936488) scale(0.1 -0.1)">
      <use xlink:href="#DejaVuSans-30"/>
      <use xlink:href="#DejaVuSans-2e" transform="translate(63.623047 0)"/>
      <use xlink:href="#DejaVuSans-30" transform="translate(95.410156 0)"/>
     </g>
    </g>
   </g>
   <g id="xtick_13">
    <g id="line2d_15">
     <path d="M 808.979202 845.381866 
L 820.17884 850.649287 
" style="fill: none; stroke: #000000; stroke-width: 0.8; stroke-linecap: square"/>
    </g>
    <g id="text_14">
     <!-- 0.2 -->
     <g transform="translate(815.282361 869.425453) scale(0.1 -0.1)">
      <use xlink:href="#DejaVuSans-30"/>
      <use xlink:href="#DejaVuSans-2e" transform="translate(63.623047 0)"/>
      <use xlink:href="#DejaVuSans-32" transform="translate(95.410156 0)"/>
     </g>
    </g>
   </g>
   <g id="xtick_14">
    <g id="line2d_16">
     <path d="M 748.585157 875.282199 
L 759.789817 880.663592 
" style="fill: none; stroke: #000000; stroke-width: 0.8; stroke-linecap: square"/>
    </g>
    <g id="text_15">
     <!-- 0.4 -->
     <g transform="translate(754.947691 899.549447) scale(0.1 -0.1)">
      <use xlink:href="#DejaVuSans-30"/>
      <use xlink:href="#DejaVuSans-2e" transform="translate(63.623047 0)"/>
      <use xlink:href="#DejaVuSans-34" transform="translate(95.410156 0)"/>
     </g>
    </g>
   </g>
   <g id="xtick_15">
    <g id="line2d_17">
     <path d="M 686.878471 905.832404 
L 698.085722 911.33151 
" style="fill: none; stroke: #000000; stroke-width: 0.8; stroke-linecap: square"/>
    </g>
    <g id="text_16">
     <!-- 0.6 -->
     <g transform="translate(693.299604 930.329206) scale(0.1 -0.1)">
      <use xlink:href="#DejaVuSans-30"/>
      <use xlink:href="#DejaVuSans-2e" transform="translate(63.623047 0)"/>
      <use xlink:href="#DejaVuSans-36" transform="translate(95.410156 0)"/>
     </g>
    </g>
   </g>
   <g id="text_17">
    <!-- Y (m) -->
    <g transform="translate(892.969508 854.425856) rotate(-26.36893) scale(0.14 -0.14)">
     <defs>
      <path id="DejaVuSans-59" d="M -13 4666 
L 666 4666 
L 1959 2747 
L 3244 4666 
L 3922 4666 
L 2272 2222 
L 2272 0 
L 1638 0 
L 1638 2222 
L -13 4666 
z
" transform="scale(0.015625)"/>
     </defs>
     <use xlink:href="#DejaVuSans-59"/>
     <use xlink:href="#DejaVuSans-20" transform="translate(61.083984 0)"/>
     <use xlink:href="#DejaVuSans-28" transform="translate(92.871094 0)"/>
     <use xlink:href="#DejaVuSans-6d" transform="translate(131.884766 0)"/>
     <use xlink:href="#DejaVuSans-29" transform="translate(229.296875 0)"/>
    </g>
   </g>
  </g>
  <g id="axis3d_3">
   <g id="line2d_18">
    <path d="M 1092.798771 708.286308 
L 1109.403032 285.285415 
" style="fill: none; stroke: #000000; stroke-width: 0.8; stroke-linecap: square"/>
   </g>
   <g id="xtick_16">
    <g id="line2d_19">
     <path d="M 1090.099022 680.732576 
L 1101.271403 685.451772 
" style="fill: none; stroke: #000000; stroke-width: 0.8; stroke-linecap: square"/>
    </g>
    <g id="text_18">
     <!-- 0.0 -->
     <g transform="translate(1105.635461 689.902189) scale(0.1 -0.1)">
      <use xlink:href="#DejaVuSans-30"/>
      <use xlink:href="#DejaVuSans-2e" transform="translate(63.623047 0)"/>
      <use xlink:href="#DejaVuSans-30" transform="translate(95.410156 0)"/>
     </g>
    </g>
   </g>
   <g id="xtick_17">
    <g id="line2d_20">
     <path d="M 1091.842104 635.935422 
L 1103.063114 640.592705 
" style="fill: none; stroke: #000000; stroke-width: 0.8; stroke-linecap: square"/>
    </g>
    <g id="text_19">
     <!-- 0.2 -->
     <g transform="translate(1107.475078 645.084415) scale(0.1 -0.1)">
      <use xlink:href="#DejaVuSans-30"/>
      <use xlink:href="#DejaVuSans-2e" transform="translate(63.623047 0)"/>
      <use xlink:href="#DejaVuSans-32" transform="translate(95.410156 0)"/>
     </g>
    </g>
   </g>
   <g id="xtick_18">
    <g id="line2d_21">
     <path d="M 1093.599407 590.772781 
L 1104.86947 595.366979 
" style="fill: none; stroke: #000000; stroke-width: 0.8; stroke-linecap: square"/>
    </g>
    <g id="text_20">
     <!-- 0.4 -->
     <g transform="translate(1109.329713 599.900764) scale(0.1 -0.1)">
      <use xlink:href="#DejaVuSans-30"/>
      <use xlink:href="#DejaVuSans-2e" transform="translate(63.623047 0)"/>
      <use xlink:href="#DejaVuSans-34" transform="translate(95.410156 0)"/>
     </g>
    </g>
   </g>
   <g id="xtick_19">
    <g id="line2d_22">
     <path d="M 1095.371106 545.24016 
L 1106.690652 549.770081 
" style="fill: none; stroke: #000000; stroke-width: 0.8; stroke-linecap: square"/>
    </g>
    <g id="text_21">
     <!-- 0.6 -->
     <g transform="translate(1111.199551 554.346736) scale(0.1 -0.1)">
      <use xlink:href="#DejaVuSans-30"/>
      <use xlink:href="#DejaVuSans-2e" transform="translate(63.623047 0)"/>
      <use xlink:href="#DejaVuSans-36" transform="translate(95.410156 0)"/>
     </g>
    </g>
   </g>
   <g id="xtick_20">
    <g id="line2d_23">
     <path d="M 1097.157379 499.332995 
L 1108.526841 503.797422 
" style="fill: none; stroke: #000000; stroke-width: 0.8; stroke-linecap: square"/>
    </g>
    <g id="text_22">
     <!-- 0.8 -->
     <g transform="translate(1113.084779 508.417759) scale(0.1 -0.1)">
      <use xlink:href="#DejaVuSans-30"/>
      <use xlink:href="#DejaVuSans-2e" transform="translate(63.623047 0)"/>
      <use xlink:href="#DejaVuSans-38" transform="translate(95.410156 0)"/>
     </g>
    </g>
   </g>
   <g id="xtick_21">
    <g id="line2d_24">
     <path d="M 1098.958407 453.046645 
L 1110.378225 457.444338 
" style="fill: none; stroke: #000000; stroke-width: 0.8; stroke-linecap: square"/>
    </g>
    <g id="text_23">
     <!-- 1.0 -->
     <g transform="translate(1114.985589 462.109184) scale(0.1 -0.1)">
      <defs>
       <path id="DejaVuSans-31" d="M 794 531 
L 1825 531 
L 1825 4091 
L 703 3866 
L 703 4441 
L 1819 4666 
L 2450 4666 
L 2450 531 
L 3481 531 
L 3481 0 
L 794 0 
L 794 531 
z
" transform="scale(0.015625)"/>
      </defs>
      <use xlink:href="#DejaVuSans-31"/>
      <use xlink:href="#DejaVuSans-2e" transform="translate(63.623047 0)"/>
      <use xlink:href="#DejaVuSans-30" transform="translate(95.410156 0)"/>
     </g>
    </g>
   </g>
   <g id="xtick_22">
    <g id="line2d_25">
     <path d="M 1100.774372 406.376393 
L 1112.244993 410.706088 
" style="fill: none; stroke: #000000; stroke-width: 0.8; stroke-linecap: square"/>
    </g>
    <g id="text_24">
     <!-- 1.2 -->
     <g transform="translate(1116.902173 415.416286) scale(0.1 -0.1)">
      <use xlink:href="#DejaVuSans-31"/>
      <use xlink:href="#DejaVuSans-2e" transform="translate(63.623047 0)"/>
      <use xlink:href="#DejaVuSans-32" transform="translate(95.410156 0)"/>
     </g>
    </g>
   </g>
   <g id="xtick_23">
    <g id="line2d_26">
     <path d="M 1102.605461 359.317442 
L 1114.127337 363.57785 
" style="fill: none; stroke: #000000; stroke-width: 0.8; stroke-linecap: square"/>
    </g>
    <g id="text_25">
     <!-- 1.4 -->
     <g transform="translate(1118.83473 368.334261) scale(0.1 -0.1)">
      <use xlink:href="#DejaVuSans-31"/>
      <use xlink:href="#DejaVuSans-2e" transform="translate(63.623047 0)"/>
      <use xlink:href="#DejaVuSans-34" transform="translate(95.410156 0)"/>
     </g>
    </g>
   </g>
   <g id="xtick_24">
    <g id="line2d_27">
     <path d="M 1104.451865 311.864917 
L 1116.025454 316.054723 
" style="fill: none; stroke: #000000; stroke-width: 0.8; stroke-linecap: square"/>
    </g>
    <g id="text_26">
     <!-- 1.6 -->
     <g transform="translate(1120.78346 320.858223) scale(0.1 -0.1)">
      <use xlink:href="#DejaVuSans-31"/>
      <use xlink:href="#DejaVuSans-2e" transform="translate(63.623047 0)"/>
      <use xlink:href="#DejaVuSans-36" transform="translate(95.410156 0)"/>
     </g>
    </g>
   </g>
   <g id="text_27">
    <!-- Z (m) -->
    <g transform="translate(1147.729669 520.213201) rotate(-87.752095) scale(0.14 -0.14)">
     <defs>
      <path id="DejaVuSans-5a" d="M 359 4666 
L 4025 4666 
L 4025 4184 
L 1075 531 
L 4097 531 
L 4097 0 
L 288 0 
L 288 481 
L 3238 4134 
L 359 4134 
L 359 4666 
z
" transform="scale(0.015625)"/>
     </defs>
     <use xlink:href="#DejaVuSans-5a"/>
     <use xlink:href="#DejaVuSans-20" transform="translate(68.505859 0)"/>
     <use xlink:href="#DejaVuSans-28" transform="translate(100.292969 0)"/>
     <use xlink:href="#DejaVuSans-6d" transform="translate(139.306641 0)"/>
     <use xlink:href="#DejaVuSans-29" transform="translate(236.71875 0)"/>
    </g>
   </g>
  </g>
  <g id="axes_1">
   <g id="line2d_28">
    <path d="M 667.67808 695.455075 
L 667.333929 695.390945 
L 667.496735 695.59297 
L 667.240062 695.338994 
L 667.274851 694.951991 
L 667.712317 695.355447 
L 667.229102 695.334093 
L 667.228425 695.636641 
L 667.447797 695.533605 
L 668.064022 694.85921 
L 669.756797 693.868221 
L 670.017869 694.006374 
L 669.400715 694.394312 
L 669.720393 694.241867 
L 669.473459 694.159135 
L 669.12535 694.317951 
L 669.178798 694.30496 
L 669.558091 694.398455 
L 668.654824 694.123119 
L 668.622391 694.037397 
L 668.912303 693.679857 
L 668.960054 694.003658 
L 668.828796 694.071432 
L 666.956264 694.884672 
L 665.340731 694.6295 
L 665.480378 694.729332 
L 666.016222 694.472522 
L 663.703751 695.20018 
L 663.124508 695.684576 
L 661.329029 696.061424 
L 662.150243 695.204933 
L 662.663429 695.448099 
L 660.914234 695.489312 
L 662.762993 694.595894 
L 662.439953 694.877898 
L 662.438233 694.960694 
L 661.642243 695.082823 
L 662.530254 694.561465 
L 662.136324 694.388716 
L 662.686552 694.126644 
L 662.381261 694.311923 
L 662.698195 694.301118 
L 662.511521 694.051378 
L 660.509431 695.096941 
L 661.165313 694.150859 
L 662.128764 693.835794 
L 663.260359 693.674254 
L 663.143913 694.008897 
L 661.809497 694.170307 
L 660.445217 694.553256 
L 660.880761 694.721747 
L 660.317326 694.796945 
L 660.224491 695.087755 
L 660.20087 694.882343 
L 659.131266 695.404275 
L 658.674366 695.321538 
L 660.676261 694.983302 
L 660.451677 694.698081 
L 661.226314 693.995557 
L 668.365991 691.797063 
L 667.881947 692.503791 
L 667.64329 692.524363 
L 668.210589 693.085838 
L 668.207925 692.731832 
L 667.202362 693.535462 
L 668.333218 692.628519 
L 666.894978 693.207489 
L 668.195266 692.40271 
L 667.852603 692.686596 
L 670.079185 691.546289 
L 669.728894 691.479092 
L 671.208214 691.575785 
L 671.382114 691.758951 
L 670.848696 691.840509 
L 669.524522 692.120763 
L 670.200677 691.942099 
L 672.398516 690.825859 
L 671.964396 690.814792 
L 672.26268 690.547586 
L 673.195813 691.39992 
L 673.933474 691.667267 
L 670.364148 692.15171 
L 665.602095 694.396688 
L 667.858684 697.880713 
L 675.303721 696.951459 
L 679.984748 692.208867 
L 681.22712 684.676336 
L 679.304455 677.286912 
L 677.087269 672.11116 
L 672.949949 665.621639 
L 671.429084 662.8137 
L 670.597769 659.426538 
L 674.338304 651.752299 
L 675.491885 646.182929 
L 678.054414 639.240578 
L 678.195099 631.828874 
L 679.150266 624.190051 
L 675.43328 618.547771 
L 675.283505 611.160198 
L 674.406333 605.731071 
L 670.307288 600.806511 
L 669.681695 594.302853 
L 671.500483 586.528083 
L 670.425244 582.372804 
L 669.596143 576.749677 
L 669.557352 569.407706 
L 669.073586 562.708024 
L 669.533927 557.686433 
L 671.046747 549.805898 
L 673.123569 542.59201 
L 675.573064 535.024457 
L 679.578482 526.269346 
L 681.676836 518.646843 
L 685.230594 512.138771 
L 684.405674 505.625455 
L 686.452649 498.93338 
L 680.309895 494.770607 
L 696.042624 479.084636 
L 700.155922 470.555696 
L 702.969514 462.820655 
L 702.625022 457.421477 
L 703.883594 452.024721 
L 704.585035 447.162417 
L 706.109426 441.449529 
L 699.692519 438.119603 
L 709.511533 430.101421 
L 706.452345 428.336925 
L 674.407463 433.975582 
L 669.244549 430.170676 
L 667.00855 425.561099 
L 669.223021 417.853592 
L 672.143177 410.0289 
L 680.45977 402.095358 
L 688.522064 395.373595 
L 701.478112 385.973581 
L 704.360891 381.393468 
L 709.250201 375.069143 
L 704.649264 372.422328 
L 703.525845 368.233657 
L 689.572736 368.92185 
L 679.143173 367.983174 
L 674.742616 364.704977 
L 674.926354 360.194208 
L 675.383345 356.200424 
L 690.527746 346.294206 
L 702.456697 337.496998 
L 709.117028 330.849085 
L 705.412875 327.199347 
L 708.87308 323.724417 
L 708.589837 319.525229 
L 693.343685 321.001795 
L 695.128063 318.531988 
L 691.078468 316.487575 
L 693.300714 318.57681 
L 691.717646 317.189004 
L 692.87313 316.987928 
L 706.238287 312.244758 
L 707.537675 316.111188 
L 709.881832 315.511416 
L 717.460154 314.768073 
L 718.529242 315.900222 
L 722.186157 317.709489 
L 722.677635 317.389118 
L 723.985458 319.084616 
L 723.255514 317.642352 
L 722.931079 318.424939 
L 722.721146 317.151146 
L 719.144016 316.847768 
L 717.376562 314.219918 
L 719.550533 317.178821 
L 724.796602 318.255513 
L 744.687787 312.821163 
L 752.213254 304.257097 
L 753.961929 307.256473 
L 751.406704 309.939473 
L 736.485 315.901992 
L 726.503461 312.074231 
L 734.606802 318.974177 
L 733.446182 319.894083 
L 728.527547 317.820134 
L 713.192543 313.439057 
L 699.504567 311.536486 
L 686.583849 306.136157 
L 667.24076 299.484555 
L 653.699535 293.003277 
L 642.398224 288.764924 
L 639.115935 287.71313 
L 629.842299 286.325475 
L 623.168856 283.341801 
L 613.713765 282.956227 
L 602.630803 277.777258 
L 596.96618 276.818598 
L 584.26169 270.750936 
L 580.701092 267.465723 
L 570.803335 263.55047 
L 561.602507 260.614681 
L 557.069844 257.61172 
L 550.394727 257.10026 
L 565.283291 264.832426 
L 568.854646 268.977661 
L 588.339356 278.732172 
L 606.61062 286.22454 
L 609.533728 288.222458 
L 616.569448 287.16104 
L 618.498849 284.014824 
L 618.835203 279.74944 
L 609.684294 274.468388 
L 602.974932 272.783662 
L 604.689796 271.881153 
L 604.714364 273.688633 
L 604.541411 274.953743 
L 606.894388 277.36176 
L 606.792805 281.404872 
L 609.012466 281.703748 
L 611.835721 284.360872 
L 616.458945 279.718782 
L 612.409901 279.509401 
L 616.246741 276.952567 
L 614.86818 275.303095 
L 615.315624 274.471778 
L 609.237834 272.929895 
L 605.541653 270.260656 
L 602.595939 271.382507 
L 601.083525 272.196257 
L 604.119757 274.313466 
L 604.075425 276.381932 
L 605.758362 276.397317 
L 582.225068 279.864079 
L 590.12082 280.237094 
L 600.91097 259.384817 
L 608.276778 255.826943 
L 595.183644 261.896712 
L 609.382896 245.23733 
L 615.52566 234.771278 
L 609.482852 233.101604 
L 576.533498 238.411869 
L 563.862801 241.992056 
L 552.784981 246.391127 
L 550.704412 250.245479 
L 558.617677 259.132801 
L 559.479649 264.381486 
L 553.356203 269.480457 
L 551.650231 277.333307 
L 541.524305 285.358271 
L 536.610243 292.472233 
L 524.856328 297.170544 
L 520.77155 303.072086 
L 513.286806 310.31253 
L 503.590769 313.079325 
L 497.224033 316.9975 
L 487.242002 321.476743 
L 478.785802 326.06623 
L 474.127452 329.12068 
L 459.996897 334.790348 
L 459.974956 337.208175 
L 450.480377 342.520095 
L 439.647546 345.562547 
L 440.911944 345.029042 
L 429.682429 347.4836 
L 427.84166 347.041103 
L 436.351449 343.328491 
L 445.69807 342.102222 
L 457.620361 339.363096 
L 462.732153 336.458999 
L 466.677138 333.953676 
L 470.059886 333.518555 
L 468.053625 332.699144 
L 463.339177 334.987312 
L 455.448284 337.488451 
L 446.013913 339.916422 
L 439.550798 343.604862 
L 436.877762 345.878676 
L 438.748579 344.593468 
L 442.100724 342.642507 
L 447.243938 340.840086 
L 448.790437 340.16647 
L 444.773788 340.962044 
L 446.629168 343.220903 
L 440.106846 345.50878 
L 438.768093 345.207722 
L 436.360654 347.118758 
L 434.081613 347.665776 
L 427.056985 345.47945 
L 427.01492 345.171441 
L 425.99724 346.734768 
L 423.624927 347.850921 
L 417.8287 354.943788 
L 420.624473 359.223706 
L 370.811246 347.161067 
L 370.251576 353.485832 
L 359.5187 355.005219 
L 388.452722 359.757377 
L 376.74725 359.186797 
L 413.496045 346.463874 
L 474.621188 341.447768 
L 440.374654 349.167907 
L 434.539975 359.436332 
L 428.078625 370.202213 
L 421.606736 372.017244 
L 420.257208 374.375009 
L 420.369845 379.851536 
L 424.138462 387.887196 
L 427.015175 390.919758 
L 445.061728 395.339608 
L 452.785322 396.200743 
L 464.933541 396.952078 
L 487.112503 403.621801 
L 494.400544 402.753389 
L 498.750981 405.30963 
L 499.983308 409.802432 
L 498.826963 412.726014 
L 501.35712 416.045421 
L 506.291465 416.615607 
L 514.79743 422.298668 
L 524.891036 423.56413 
L 528.619197 423.009728 
L 533.169067 421.966847 
L 543.484759 422.301767 
L 558.10335 426.708722 
L 560.202827 427.010899 
L 565.35639 430.820156 
L 567.389899 431.893246 
L 573.414464 437.670035 
L 579.317817 442.214913 
L 582.181032 445.537206 
L 593.677329 449.680884 
L 602.045486 454.561377 
L 610.881135 457.648312 
L 626.965168 456.906707 
L 636.69587 457.301507 
L 644.141927 454.312064 
L 643.237798 454.510035 
L 640.004176 459.884198 
L 635.225542 462.18304 
L 644.92201 465.479246 
L 641.815334 468.450065 
L 633.986756 473.788092 
L 647.943669 475.454486 
L 651.94776 474.783393 
L 648.985221 475.324503 
L 643.505718 474.045879 
L 634.889676 471.522484 
L 625.309715 466.432169 
L 615.283595 460.941854 
L 612.056585 458.606395 
L 613.373977 457.32337 
L 616.405868 459.166398 
L 620.620062 460.94144 
L 628.208295 465.863672 
L 635.282072 467.577416 
L 642.314167 468.867093 
L 648.364916 468.7263 
L 648.702971 466.487229 
L 647.207276 466.913489 
L 645.332541 466.1212 
L 643.274073 464.307245 
L 638.855004 463.138467 
L 639.359101 461.235844 
L 638.005419 465.304674 
L 636.97744 466.543475 
L 637.437026 470.152975 
L 642.047258 471.595001 
L 652.367555 472.11581 
L 653.825244 470.256058 
L 658.490454 467.922345 
L 657.171937 466.012761 
L 651.942464 463.07204 
L 648.882117 463.695063 
L 644.733656 472.013099 
L 703.779694 448.416387 
L 685.324454 458.231836 
L 677.287274 441.114904 
L 722.951977 413.082295 
L 712.98991 416.918475 
L 701.305167 421.59099 
L 722.386686 415.974911 
L 758.225493 426.458255 
L 754.661839 436.586276 
L 755.328948 442.825816 
L 741.462676 448.628034 
L 732.482536 450.752549 
L 729.053592 454.539439 
L 732.875763 453.056273 
L 737.66933 450.463615 
L 749.204272 446.181681 
L 754.147779 438.990041 
L 762.236523 435.907542 
L 765.164821 431.614674 
L 769.000501 427.216433 
L 772.516909 424.372512 
L 777.930832 422.255244 
L 785.754007 419.513382 
L 796.79084 413.281305 
L 806.973014 407.87855 
L 820.862855 402.226127 
L 831.162205 399.841099 
L 838.348605 396.025986 
L 845.38273 391.431587 
L 845.106453 388.360609 
L 848.517731 384.696267 
L 858.526614 378.686677 
L 866.459504 374.448344 
L 882.441547 368.50559 
L 890.35655 366.580539 
L 898.345346 363.919293 
L 913.30646 359.232416 
L 924.239116 356.468635 
L 934.227382 355.655146 
L 941.287103 351.499335 
L 942.246969 348.873822 
L 942.175025 344.72658 
L 943.961839 343.127382 
L 941.248618 342.352798 
L 942.191137 338.811918 
L 941.903129 338.071777 
L 966.863 330.479458 
L 971.673987 329.362615 
L 987.06309 328.121124 
L 985.436779 331.380955 
L 998.720035 325.217865 
L 1003.467358 323.15552 
L 992.320086 327.093439 
L 974.824893 333.540595 
L 965.129454 336.412395 
L 949.984538 341.024526 
L 936.548676 345.266759 
L 929.618272 347.624782 
L 932.751794 347.020504 
L 936.46452 344.100703 
L 953.950515 338.563342 
L 966.278831 333.687867 
L 975.275222 332.521303 
L 982.033374 331.036665 
L 984.656221 330.747503 
L 981.499039 330.102862 
L 978.043499 330.660028 
L 975.050579 331.622302 
L 968.620636 333.823683 
L 969.245815 332.496278 
L 972.820766 331.047976 
L 976.164348 327.896955 
L 985.005229 324.815994 
L 996.752193 322.095339 
L 1002.220097 322.007309 
L 1006.984199 321.075097 
L 1006.950783 320.35281 
L 1004.740847 320.105645 
L 1001.90384 320.266029 
L 997.975464 321.256971 
L 998.646217 320.245476 
L 986.444334 327.980841 
L 1041.602865 341.811275 
L 985.556348 335.562829 
L 980.088934 335.361612 
L 975.972142 332.402726 
L 993.386258 336.351194 
L 1015.085252 333.785369 
L 1020.033739 328.790129 
L 1010.117235 322.357464 
L 987.075876 326.523185 
L 993.514359 323.188033 
L 991.701809 319.782026 
L 995.775298 318.075179 
L 1002.861725 322.828439 
L 998.621836 322.454809 
L 984.119023 320.960937 
L 960.701682 310.718695 
L 946.500428 305.409489 
L 929.220621 299.645467 
L 918.313595 295.258598 
L 910.672199 292.543925 
L 894.463739 287.9713 
L 888.198119 284.495862 
L 874.129906 278.694525 
L 865.509605 275.188938 
L 855.270907 274.009046 
L 849.247358 272.165292 
L 830.358687 267.111112 
L 822.199537 263.883632 
L 811.630856 261.000905 
L 792.224705 255.430737 
L 784.285101 254.012003 
L 778.017714 251.638713 
L 776.917556 249.454119 
L 771.022867 249.242022 
L 769.253415 248.30533 
L 765.84667 247.154665 
L 764.309328 244.370892 
L 756.972065 244.326915 
L 748.367381 243.487848 
L 730.544284 236.538731 
L 718.769152 231.73221 
L 708.807081 233.283527 
L 701.004977 229.733941 
L 702.979206 229.623754 
L 708.922297 226.726865 
L 706.090113 226.271007 
L 708.48257 228.816557 
L 691.655573 223.078987 
L 686.207993 220.761557 
L 689.92475 222.511016 
L 701.245661 226.92183 
L 715.943474 232.956956 
L 724.446945 235.027385 
L 727.364093 236.757368 
L 735.172328 237.098816 
L 734.086332 234.020247 
L 733.375433 233.758954 
L 717.18744 228.672208 
L 703.452324 224.090627 
L 691.568228 218.482532 
L 687.538836 219.245899 
L 684.389031 218.965992 
L 689.652011 219.816476 
L 696.053039 221.129702 
L 704.809577 224.260951 
L 710.156132 224.414434 
L 708.628875 224.129658 
L 705.51718 223.435027 
L 703.105158 221.650215 
L 688.833867 216.731216 
L 686.644819 216.216716 
L 675.429822 214.214777 
L 672.100655 214.203074 
L 670.71892 213.270507 
L 673.197334 213.869243 
L 676.052441 214.16805 
L 678.645184 212.738718 
L 675.944512 208.802103 
L 660.714075 212.835495 
L 642.802276 217.882113 
L 661.782914 203.636639 
L 654.156729 198.620747 
L 661.063784 191.072316 
L 665.849495 197.841121 
L 674.57137 211.467953 
L 669.693919 211.791933 
L 672.082595 206.564171 
L 625.948292 217.312729 
L 624.197574 208.985312 
L 622.264743 208.848572 
L 621.836187 210.097852 
L 604.856196 214.150951 
L 603.406316 217.470045 
L 595.104315 223.12655 
L 589.211184 229.008459 
L 587.733687 234.64887 
L 585.669152 237.713117 
L 586.863781 240.755729 
L 583.907018 240.392641 
L 576.715233 243.115151 
L 568.69849 247.21737 
L 560.074502 253.017934 
L 553.735233 255.519487 
L 552.022117 258.213606 
L 545.118557 261.427262 
L 542.05855 261.292976 
L 536.462175 264.125195 
L 535.868146 267.185554 
L 522.276204 274.937864 
L 522.505095 277.988183 
L 525.263672 279.362777 
L 534.298857 277.388768 
L 541.514961 273.987585 
L 554.928099 269.751425 
L 560.157902 266.576711 
L 564.438543 262.724274 
L 564.397316 263.196065 
L 565.485678 262.395684 
L 564.075516 262.400197 
L 554.146704 267.89582 
L 548.283425 271.62759 
L 547.343987 273.640292 
L 547.4665 273.541367 
L 551.720176 272.74148 
L 554.243877 273.558209 
L 561.556455 273.685539 
L 560.978697 273.140608 
L 565.648247 272.534863 
L 564.273175 274.678861 
L 555.896151 274.930473 
L 552.589318 276.860395 
L 550.205173 277.826678 
L 545.158496 277.55459 
L 554.856841 281.732424 
L 557.922388 283.561066 
L 559.785031 284.914458 
L 559.323076 287.031593 
L 562.308023 286.078173 
L 560.825562 285.526985 
L 541.783263 288.140177 
L 560.352231 280.250143 
L 594.700617 287.377145 
L 597.273692 294.87517 
L 580.101353 303.353865 
L 550.916667 299.923641 
L 539.11792 302.48929 
L 522.963528 302.503319 
L 492.020658 304.249838 
L 499.83257 314.211384 
L 442.667567 315.741633 
L 440.628617 320.939438 
L 447.150894 314.136173 
L 463.906257 314.109517 
L 473.572325 313.805333 
L 497.839254 318.057216 
L 512.497283 318.883513 
L 533.69723 320.86655 
L 550.015246 323.217985 
L 569.020801 325.304714 
L 578.310973 326.493687 
L 596.313045 330.15401 
L 606.0188 333.727641 
L 618.655271 335.282177 
L 628.734283 338.255408 
L 639.717682 341.148049 
L 649.880233 343.235843 
L 656.647813 344.449009 
L 663.728831 344.655111 
L 673.74172 344.37125 
L 684.998623 346.545018 
L 688.266979 345.108653 
L 696.670533 348.047153 
L 695.602673 348.541124 
L 669.121807 343.995739 
L 662.353276 341.465758 
L 658.151185 338.489584 
L 657.178449 334.622607 
L 657.385269 335.197407 
L 663.756308 335.551332 
L 670.16102 341.094937 
L 677.397276 343.341281 
L 678.403835 345.479115 
L 677.804489 347.126489 
L 676.207098 347.042343 
L 671.585064 345.791998 
L 669.01336 342.919965 
L 667.801682 339.722103 
L 668.43101 339.316975 
L 670.201059 339.634801 
L 673.308664 341.229368 
L 676.680369 343.445021 
L 681.032573 347.443626 
L 680.560322 351.454168 
L 685.524567 351.246777 
L 685.726322 353.995267 
L 681.227205 352.177803 
L 682.542721 349.185041 
L 680.191239 346.89347 
L 684.304654 343.650221 
L 680.242571 341.759587 
L 666.740417 344.137426 
L 646.323148 339.85417 
L 632.601443 331.285062 
L 620.188971 326.480684 
L 611.76491 327.693028 
L 628.294926 313.520985 
L 620.122142 306.586555 
L 626.392498 308.197941 
L 622.84752 300.307635 
L 599.471362 300.283294 
L 596.636669 310.166965 
L 565.72601 320.629808 
L 564.188721 313.656721 
L 556.204323 310.031294 
L 548.486384 313.8254 
L 533.260142 311.813505 
L 513.530125 309.974127 
L 501.091163 309.384214 
L 489.95845 320.924694 
L 514.677088 315.301726 
L 546.334224 314.728122 
L 571.822126 313.495173 
L 594.210701 311.331148 
L 609.069253 310.485862 
L 633.092053 305.905336 
L 647.727456 302.17083 
L 652.671538 304.711011 
L 656.86895 308.52929 
L 655.901452 313.27219 
L 656.445512 317.555266 
L 659.86907 321.777572 
L 662.373985 326.629952 
L 667.942474 330.898786 
L 676.607161 335.097434 
L 680.563716 337.38858 
L 679.897749 335.723331 
L 679.507835 338.280675 
L 676.888549 338.420115 
L 671.098253 339.488471 
L 669.760911 341.556819 
L 664.529843 345.266749 
L 664.040117 347.135103 
L 669.832434 348.000622 
L 673.644919 350.561661 
L 674.317373 351.150791 
L 676.299346 350.383642 
L 674.651758 351.742106 
L 667.532838 349.121789 
L 660.451759 348.450152 
L 654.213478 345.779466 
L 647.278093 345.353838 
L 645.678471 346.648116 
L 644.627926 346.377832 
L 645.040687 349.585668 
L 644.728983 351.956969 
L 641.621704 352.925342 
L 635.12522 355.719084 
L 628.924883 356.582229 
L 630.45246 359.012218 
L 624.174321 362.963137 
L 618.565161 367.431348 
L 611.237596 375.238252 
L 608.878377 377.277869 
L 604.231205 385.997144 
L 607.534541 393.075638 
L 610.690872 400.50102 
L 617.131147 407.690071 
L 620.975813 414.633241 
L 622.235146 417.9824 
L 613.239017 421.480504 
L 613.822276 425.964774 
L 601.554221 433.010677 
L 597.692461 439.579318 
L 593.839182 446.364511 
L 583.355969 457.28685 
L 580.724089 463.798323 
L 581.572156 468.865115 
L 586.421087 471.034624 
L 589.653711 474.383848 
L 596.784723 473.010199 
L 601.271792 476.055857 
L 596.906825 482.839853 
L 597.087211 487.357238 
L 592.616752 496.650958 
L 583.918728 506.755772 
L 581.282525 515.048807 
L 578.950291 521.568295 
L 579.355018 525.896336 
L 580.440046 530.387852 
L 579.477231 535.192627 
L 579.411036 540.667687 
L 576.515864 547.49023 
L 577.927698 553.181632 
L 578.154021 557.08504 
L 576.960439 562.679561 
L 578.24151 567.299717 
L 579.351945 572.100207 
L 579.608788 576.762607 
L 580.214422 580.732136 
L 579.936204 585.874421 
L 580.456251 590.944072 
L 577.849241 595.072515 
L 571.630353 601.568354 
L 569.456575 606.182517 
L 568.730501 610.959053 
L 569.148947 614.776447 
L 571.919452 622.30142 
L 574.526499 630.961616 
L 574.623264 634.609347 
L 574.914036 638.877894 
L 574.914036 638.877894 
" clip-path="url(#p89cfdbb33a)" style="fill: none; stroke: #0000ff; stroke-width: 2; stroke-linecap: square"/>
   </g>
   <g id="line2d_29">
    <path d="M 668.438152 698.004081 
L 668.670522 351.106832 
L 481.062468 425.621705 
L 644.397609 494.676943 
L 1007.838152 341.906392 
L 690.235869 223.55151 
L 326.751896 360.381898 
L 481.062468 425.621705 
L 668.670522 351.106832 
L 668.438152 698.004081 
" clip-path="url(#p89cfdbb33a)" style="fill: none; stroke-dasharray: 7.4,3.2; stroke-dashoffset: 0; stroke: #008000; stroke-width: 2"/>
   </g>
   <g id="Path3DCollection_1">
    <path d="M 685.763733 228.023646 
L 694.708005 219.079374 
M 685.763733 219.079374 
L 694.708005 228.023646 
" clip-path="url(#p89cfdbb33a)" style="fill-opacity: 0.3; stroke: #000000; stroke-opacity: 0.3; stroke-width: 1.5"/>
    <path d="M 663.966016 702.476217 
L 672.910288 693.531945 
M 663.966016 693.531945 
L 672.910288 702.476217 
" clip-path="url(#p89cfdbb33a)" style="fill-opacity: 0.448949; stroke: #000000; stroke-opacity: 0.448949; stroke-width: 1.5"/>
    <path d="M 1003.366016 346.378528 
L 1012.310288 337.434256 
M 1003.366016 337.434256 
L 1012.310288 346.378528 
" clip-path="url(#p89cfdbb33a)" style="fill-opacity: 0.605572; stroke: #000000; stroke-opacity: 0.605572; stroke-width: 1.5"/>
    <path d="M 664.198386 355.578968 
L 673.142658 346.634696 
M 664.198386 346.634696 
L 673.142658 355.578968 
" clip-path="url(#p89cfdbb33a)" style="fill-opacity: 0.629326; stroke: #000000; stroke-opacity: 0.629326; stroke-width: 1.5"/>
    <path d="M 322.27976 364.854034 
L 331.224032 355.909762 
M 322.27976 355.909762 
L 331.224032 364.854034 
" clip-path="url(#p89cfdbb33a)" style="fill-opacity: 0.653273; stroke: #000000; stroke-opacity: 0.653273; stroke-width: 1.5"/>
    <path d="M 476.590332 430.093841 
L 485.534604 421.149569 
M 476.590332 421.149569 
L 485.534604 430.093841 
" clip-path="url(#p89cfdbb33a)" style="fill-opacity: 0.821711; stroke: #000000; stroke-opacity: 0.821711; stroke-width: 1.5"/>
    <path d="M 476.590332 430.093841 
L 485.534604 421.149569 
M 476.590332 421.149569 
L 485.534604 430.093841 
" clip-path="url(#p89cfdbb33a)" style="fill-opacity: 0.821711; stroke: #000000; stroke-opacity: 0.821711; stroke-width: 1.5"/>
    <path d="M 639.925473 499.149079 
L 648.869745 490.204807 
M 639.925473 490.204807 
L 648.869745 499.149079 
" clip-path="url(#p89cfdbb33a)" style="stroke: #000000; stroke-width: 1.5"/>
   </g>
   <g id="text_28">
    <!-- Start / Land (0,0,0) -->
    <g transform="translate(668.450186 680.038798) scale(0.12 -0.12)">
     <defs>
      <path id="DejaVuSans-Bold-53" d="M 3834 4519 
L 3834 3531 
Q 3450 3703 3084 3790 
Q 2719 3878 2394 3878 
Q 1963 3878 1756 3759 
Q 1550 3641 1550 3391 
Q 1550 3203 1689 3098 
Q 1828 2994 2194 2919 
L 2706 2816 
Q 3484 2659 3812 2340 
Q 4141 2022 4141 1434 
Q 4141 663 3683 286 
Q 3225 -91 2284 -91 
Q 1841 -91 1394 -6 
Q 947 78 500 244 
L 500 1259 
Q 947 1022 1364 901 
Q 1781 781 2169 781 
Q 2563 781 2772 912 
Q 2981 1044 2981 1288 
Q 2981 1506 2839 1625 
Q 2697 1744 2272 1838 
L 1806 1941 
Q 1106 2091 782 2419 
Q 459 2747 459 3303 
Q 459 4000 909 4375 
Q 1359 4750 2203 4750 
Q 2588 4750 2994 4692 
Q 3400 4634 3834 4519 
z
" transform="scale(0.015625)"/>
      <path id="DejaVuSans-Bold-74" d="M 1759 4494 
L 1759 3500 
L 2913 3500 
L 2913 2700 
L 1759 2700 
L 1759 1216 
Q 1759 972 1856 886 
Q 1953 800 2241 800 
L 2816 800 
L 2816 0 
L 1856 0 
Q 1194 0 917 276 
Q 641 553 641 1216 
L 641 2700 
L 84 2700 
L 84 3500 
L 641 3500 
L 641 4494 
L 1759 4494 
z
" transform="scale(0.015625)"/>
      <path id="DejaVuSans-Bold-61" d="M 2106 1575 
Q 1756 1575 1579 1456 
Q 1403 1338 1403 1106 
Q 1403 894 1545 773 
Q 1688 653 1941 653 
Q 2256 653 2472 879 
Q 2688 1106 2688 1447 
L 2688 1575 
L 2106 1575 
z
M 3816 1997 
L 3816 0 
L 2688 0 
L 2688 519 
Q 2463 200 2181 54 
Q 1900 -91 1497 -91 
Q 953 -91 614 226 
Q 275 544 275 1050 
Q 275 1666 698 1953 
Q 1122 2241 2028 2241 
L 2688 2241 
L 2688 2328 
Q 2688 2594 2478 2717 
Q 2269 2841 1825 2841 
Q 1466 2841 1156 2769 
Q 847 2697 581 2553 
L 581 3406 
Q 941 3494 1303 3539 
Q 1666 3584 2028 3584 
Q 2975 3584 3395 3211 
Q 3816 2838 3816 1997 
z
" transform="scale(0.015625)"/>
      <path id="DejaVuSans-Bold-72" d="M 3138 2547 
Q 2991 2616 2845 2648 
Q 2700 2681 2553 2681 
Q 2122 2681 1889 2404 
Q 1656 2128 1656 1613 
L 1656 0 
L 538 0 
L 538 3500 
L 1656 3500 
L 1656 2925 
Q 1872 3269 2151 3426 
Q 2431 3584 2822 3584 
Q 2878 3584 2943 3579 
Q 3009 3575 3134 3559 
L 3138 2547 
z
" transform="scale(0.015625)"/>
      <path id="DejaVuSans-Bold-20" transform="scale(0.015625)"/>
      <path id="DejaVuSans-Bold-2f" d="M 1644 4666 
L 2338 4666 
L 691 -594 
L 0 -594 
L 1644 4666 
z
" transform="scale(0.015625)"/>
      <path id="DejaVuSans-Bold-4c" d="M 588 4666 
L 1791 4666 
L 1791 909 
L 3903 909 
L 3903 0 
L 588 0 
L 588 4666 
z
" transform="scale(0.015625)"/>
      <path id="DejaVuSans-Bold-6e" d="M 4056 2131 
L 4056 0 
L 2931 0 
L 2931 347 
L 2931 1631 
Q 2931 2084 2911 2256 
Q 2891 2428 2841 2509 
Q 2775 2619 2662 2680 
Q 2550 2741 2406 2741 
Q 2056 2741 1856 2470 
Q 1656 2200 1656 1722 
L 1656 0 
L 538 0 
L 538 3500 
L 1656 3500 
L 1656 2988 
Q 1909 3294 2193 3439 
Q 2478 3584 2822 3584 
Q 3428 3584 3742 3212 
Q 4056 2841 4056 2131 
z
" transform="scale(0.015625)"/>
      <path id="DejaVuSans-Bold-64" d="M 2919 2988 
L 2919 4863 
L 4044 4863 
L 4044 0 
L 2919 0 
L 2919 506 
Q 2688 197 2409 53 
Q 2131 -91 1766 -91 
Q 1119 -91 703 423 
Q 288 938 288 1747 
Q 288 2556 703 3070 
Q 1119 3584 1766 3584 
Q 2128 3584 2408 3439 
Q 2688 3294 2919 2988 
z
M 2181 722 
Q 2541 722 2730 984 
Q 2919 1247 2919 1747 
Q 2919 2247 2730 2509 
Q 2541 2772 2181 2772 
Q 1825 2772 1636 2509 
Q 1447 2247 1447 1747 
Q 1447 1247 1636 984 
Q 1825 722 2181 722 
z
" transform="scale(0.015625)"/>
      <path id="DejaVuSans-Bold-28" d="M 2413 -844 
L 1484 -844 
Q 1006 -72 778 623 
Q 550 1319 550 2003 
Q 550 2688 779 3389 
Q 1009 4091 1484 4856 
L 2413 4856 
Q 2013 4116 1813 3408 
Q 1613 2700 1613 2009 
Q 1613 1319 1811 609 
Q 2009 -100 2413 -844 
z
" transform="scale(0.015625)"/>
      <path id="DejaVuSans-Bold-30" d="M 2944 2338 
Q 2944 3213 2780 3570 
Q 2616 3928 2228 3928 
Q 1841 3928 1675 3570 
Q 1509 3213 1509 2338 
Q 1509 1453 1675 1090 
Q 1841 728 2228 728 
Q 2613 728 2778 1090 
Q 2944 1453 2944 2338 
z
M 4147 2328 
Q 4147 1169 3647 539 
Q 3147 -91 2228 -91 
Q 1306 -91 806 539 
Q 306 1169 306 2328 
Q 306 3491 806 4120 
Q 1306 4750 2228 4750 
Q 3147 4750 3647 4120 
Q 4147 3491 4147 2328 
z
" transform="scale(0.015625)"/>
      <path id="DejaVuSans-Bold-2c" d="M 653 1209 
L 1778 1209 
L 1778 256 
L 1006 -909 
L 341 -909 
L 653 256 
L 653 1209 
z
" transform="scale(0.015625)"/>
      <path id="DejaVuSans-Bold-29" d="M 513 -844 
Q 913 -100 1113 609 
Q 1313 1319 1313 2009 
Q 1313 2700 1113 3408 
Q 913 4116 513 4856 
L 1441 4856 
Q 1916 4091 2145 3389 
Q 2375 2688 2375 2003 
Q 2375 1319 2147 623 
Q 1919 -72 1441 -844 
L 513 -844 
z
" transform="scale(0.015625)"/>
     </defs>
     <use xlink:href="#DejaVuSans-Bold-53"/>
     <use xlink:href="#DejaVuSans-Bold-74" transform="translate(72.021484 0)"/>
     <use xlink:href="#DejaVuSans-Bold-61" transform="translate(119.824219 0)"/>
     <use xlink:href="#DejaVuSans-Bold-72" transform="translate(187.304688 0)"/>
     <use xlink:href="#DejaVuSans-Bold-74" transform="translate(236.621094 0)"/>
     <use xlink:href="#DejaVuSans-Bold-20" transform="translate(284.423828 0)"/>
     <use xlink:href="#DejaVuSans-Bold-2f" transform="translate(319.238281 0)"/>
     <use xlink:href="#DejaVuSans-Bold-20" transform="translate(355.761719 0)"/>
     <use xlink:href="#DejaVuSans-Bold-4c" transform="translate(390.576172 0)"/>
     <use xlink:href="#DejaVuSans-Bold-61" transform="translate(454.296875 0)"/>
     <use xlink:href="#DejaVuSans-Bold-6e" transform="translate(521.777344 0)"/>
     <use xlink:href="#DejaVuSans-Bold-64" transform="translate(592.96875 0)"/>
     <use xlink:href="#DejaVuSans-Bold-20" transform="translate(664.550781 0)"/>
     <use xlink:href="#DejaVuSans-Bold-28" transform="translate(699.365234 0)"/>
     <use xlink:href="#DejaVuSans-Bold-30" transform="translate(745.068359 0)"/>
     <use xlink:href="#DejaVuSans-Bold-2c" transform="translate(814.648438 0)"/>
     <use xlink:href="#DejaVuSans-Bold-30" transform="translate(852.636719 0)"/>
     <use xlink:href="#DejaVuSans-Bold-2c" transform="translate(922.216797 0)"/>
     <use xlink:href="#DejaVuSans-Bold-30" transform="translate(960.205078 0)"/>
     <use xlink:href="#DejaVuSans-Bold-29" transform="translate(1029.785156 0)"/>
    </g>
   </g>
   <g id="text_29">
    <!-- Hover / RTH (0,0,1.5) -->
    <g transform="translate(668.683327 331.990537) scale(0.12 -0.12)">
     <defs>
      <path id="DejaVuSans-Bold-48" d="M 588 4666 
L 1791 4666 
L 1791 2888 
L 3566 2888 
L 3566 4666 
L 4769 4666 
L 4769 0 
L 3566 0 
L 3566 1978 
L 1791 1978 
L 1791 0 
L 588 0 
L 588 4666 
z
" transform="scale(0.015625)"/>
      <path id="DejaVuSans-Bold-6f" d="M 2203 2784 
Q 1831 2784 1636 2517 
Q 1441 2250 1441 1747 
Q 1441 1244 1636 976 
Q 1831 709 2203 709 
Q 2569 709 2762 976 
Q 2956 1244 2956 1747 
Q 2956 2250 2762 2517 
Q 2569 2784 2203 2784 
z
M 2203 3584 
Q 3106 3584 3614 3096 
Q 4122 2609 4122 1747 
Q 4122 884 3614 396 
Q 3106 -91 2203 -91 
Q 1297 -91 786 396 
Q 275 884 275 1747 
Q 275 2609 786 3096 
Q 1297 3584 2203 3584 
z
" transform="scale(0.015625)"/>
      <path id="DejaVuSans-Bold-76" d="M 97 3500 
L 1216 3500 
L 2088 1081 
L 2956 3500 
L 4078 3500 
L 2700 0 
L 1472 0 
L 97 3500 
z
" transform="scale(0.015625)"/>
      <path id="DejaVuSans-Bold-65" d="M 4031 1759 
L 4031 1441 
L 1416 1441 
Q 1456 1047 1700 850 
Q 1944 653 2381 653 
Q 2734 653 3104 758 
Q 3475 863 3866 1075 
L 3866 213 
Q 3469 63 3072 -14 
Q 2675 -91 2278 -91 
Q 1328 -91 801 392 
Q 275 875 275 1747 
Q 275 2603 792 3093 
Q 1309 3584 2216 3584 
Q 3041 3584 3536 3087 
Q 4031 2591 4031 1759 
z
M 2881 2131 
Q 2881 2450 2695 2645 
Q 2509 2841 2209 2841 
Q 1884 2841 1681 2658 
Q 1478 2475 1428 2131 
L 2881 2131 
z
" transform="scale(0.015625)"/>
      <path id="DejaVuSans-Bold-52" d="M 2297 2597 
Q 2675 2597 2839 2737 
Q 3003 2878 3003 3200 
Q 3003 3519 2839 3656 
Q 2675 3794 2297 3794 
L 1791 3794 
L 1791 2597 
L 2297 2597 
z
M 1791 1766 
L 1791 0 
L 588 0 
L 588 4666 
L 2425 4666 
Q 3347 4666 3776 4356 
Q 4206 4047 4206 3378 
Q 4206 2916 3982 2619 
Q 3759 2322 3309 2181 
Q 3556 2125 3751 1926 
Q 3947 1728 4147 1325 
L 4800 0 
L 3519 0 
L 2950 1159 
Q 2778 1509 2601 1637 
Q 2425 1766 2131 1766 
L 1791 1766 
z
" transform="scale(0.015625)"/>
      <path id="DejaVuSans-Bold-54" d="M 31 4666 
L 4331 4666 
L 4331 3756 
L 2784 3756 
L 2784 0 
L 1581 0 
L 1581 3756 
L 31 3756 
L 31 4666 
z
" transform="scale(0.015625)"/>
      <path id="DejaVuSans-Bold-31" d="M 750 831 
L 1813 831 
L 1813 3847 
L 722 3622 
L 722 4441 
L 1806 4666 
L 2950 4666 
L 2950 831 
L 4013 831 
L 4013 0 
L 750 0 
L 750 831 
z
" transform="scale(0.015625)"/>
      <path id="DejaVuSans-Bold-2e" d="M 653 1209 
L 1778 1209 
L 1778 0 
L 653 0 
L 653 1209 
z
" transform="scale(0.015625)"/>
      <path id="DejaVuSans-Bold-35" d="M 678 4666 
L 3669 4666 
L 3669 3781 
L 1638 3781 
L 1638 3059 
Q 1775 3097 1914 3117 
Q 2053 3138 2203 3138 
Q 3056 3138 3531 2711 
Q 4006 2284 4006 1522 
Q 4006 766 3489 337 
Q 2972 -91 2053 -91 
Q 1656 -91 1267 -14 
Q 878 63 494 219 
L 494 1166 
Q 875 947 1217 837 
Q 1559 728 1863 728 
Q 2300 728 2551 942 
Q 2803 1156 2803 1522 
Q 2803 1891 2551 2103 
Q 2300 2316 1863 2316 
Q 1603 2316 1309 2248 
Q 1016 2181 678 2041 
L 678 4666 
z
" transform="scale(0.015625)"/>
     </defs>
     <use xlink:href="#DejaVuSans-Bold-48"/>
     <use xlink:href="#DejaVuSans-Bold-6f" transform="translate(83.691406 0)"/>
     <use xlink:href="#DejaVuSans-Bold-76" transform="translate(152.392578 0)"/>
     <use xlink:href="#DejaVuSans-Bold-65" transform="translate(217.578125 0)"/>
     <use xlink:href="#DejaVuSans-Bold-72" transform="translate(285.400391 0)"/>
     <use xlink:href="#DejaVuSans-Bold-20" transform="translate(334.716797 0)"/>
     <use xlink:href="#DejaVuSans-Bold-2f" transform="translate(369.53125 0)"/>
     <use xlink:href="#DejaVuSans-Bold-20" transform="translate(406.054688 0)"/>
     <use xlink:href="#DejaVuSans-Bold-52" transform="translate(440.869141 0)"/>
     <use xlink:href="#DejaVuSans-Bold-54" transform="translate(513.371094 0)"/>
     <use xlink:href="#DejaVuSans-Bold-48" transform="translate(581.583984 0)"/>
     <use xlink:href="#DejaVuSans-Bold-20" transform="translate(665.275391 0)"/>
     <use xlink:href="#DejaVuSans-Bold-28" transform="translate(700.089844 0)"/>
     <use xlink:href="#DejaVuSans-Bold-30" transform="translate(745.792969 0)"/>
     <use xlink:href="#DejaVuSans-Bold-2c" transform="translate(815.373047 0)"/>
     <use xlink:href="#DejaVuSans-Bold-30" transform="translate(853.361328 0)"/>
     <use xlink:href="#DejaVuSans-Bold-2c" transform="translate(922.941406 0)"/>
     <use xlink:href="#DejaVuSans-Bold-31" transform="translate(960.929688 0)"/>
     <use xlink:href="#DejaVuSans-Bold-2e" transform="translate(1030.509766 0)"/>
     <use xlink:href="#DejaVuSans-Bold-35" transform="translate(1068.498047 0)"/>
     <use xlink:href="#DejaVuSans-Bold-29" transform="translate(1138.078125 0)"/>
    </g>
   </g>
   <g id="text_30">
    <!-- Coord 1 (0,0.6,1.5) -->
    <g transform="translate(480.749565 406.011021) scale(0.12 -0.12)">
     <defs>
      <path id="DejaVuSans-Bold-43" d="M 4288 256 
Q 3956 84 3597 -3 
Q 3238 -91 2847 -91 
Q 1681 -91 1000 561 
Q 319 1213 319 2328 
Q 319 3447 1000 4098 
Q 1681 4750 2847 4750 
Q 3238 4750 3597 4662 
Q 3956 4575 4288 4403 
L 4288 3438 
Q 3953 3666 3628 3772 
Q 3303 3878 2944 3878 
Q 2300 3878 1931 3465 
Q 1563 3053 1563 2328 
Q 1563 1606 1931 1193 
Q 2300 781 2944 781 
Q 3303 781 3628 887 
Q 3953 994 4288 1222 
L 4288 256 
z
" transform="scale(0.015625)"/>
      <path id="DejaVuSans-Bold-36" d="M 2316 2303 
Q 2000 2303 1842 2098 
Q 1684 1894 1684 1484 
Q 1684 1075 1842 870 
Q 2000 666 2316 666 
Q 2634 666 2792 870 
Q 2950 1075 2950 1484 
Q 2950 1894 2792 2098 
Q 2634 2303 2316 2303 
z
M 3803 4544 
L 3803 3681 
Q 3506 3822 3243 3889 
Q 2981 3956 2731 3956 
Q 2194 3956 1894 3657 
Q 1594 3359 1544 2772 
Q 1750 2925 1990 3001 
Q 2231 3078 2516 3078 
Q 3231 3078 3670 2659 
Q 4109 2241 4109 1563 
Q 4109 813 3618 361 
Q 3128 -91 2303 -91 
Q 1394 -91 895 523 
Q 397 1138 397 2266 
Q 397 3422 980 4083 
Q 1563 4744 2578 4744 
Q 2900 4744 3203 4694 
Q 3506 4644 3803 4544 
z
" transform="scale(0.015625)"/>
     </defs>
     <use xlink:href="#DejaVuSans-Bold-43"/>
     <use xlink:href="#DejaVuSans-Bold-6f" transform="translate(73.388672 0)"/>
     <use xlink:href="#DejaVuSans-Bold-6f" transform="translate(142.089844 0)"/>
     <use xlink:href="#DejaVuSans-Bold-72" transform="translate(210.791016 0)"/>
     <use xlink:href="#DejaVuSans-Bold-64" transform="translate(260.107422 0)"/>
     <use xlink:href="#DejaVuSans-Bold-20" transform="translate(331.689453 0)"/>
     <use xlink:href="#DejaVuSans-Bold-31" transform="translate(366.503906 0)"/>
     <use xlink:href="#DejaVuSans-Bold-20" transform="translate(436.083984 0)"/>
     <use xlink:href="#DejaVuSans-Bold-28" transform="translate(470.898438 0)"/>
     <use xlink:href="#DejaVuSans-Bold-30" transform="translate(516.601562 0)"/>
     <use xlink:href="#DejaVuSans-Bold-2c" transform="translate(586.181641 0)"/>
     <use xlink:href="#DejaVuSans-Bold-30" transform="translate(624.169922 0)"/>
     <use xlink:href="#DejaVuSans-Bold-2e" transform="translate(693.75 0)"/>
     <use xlink:href="#DejaVuSans-Bold-36" transform="translate(731.738281 0)"/>
     <use xlink:href="#DejaVuSans-Bold-2c" transform="translate(801.318359 0)"/>
     <use xlink:href="#DejaVuSans-Bold-31" transform="translate(839.306641 0)"/>
     <use xlink:href="#DejaVuSans-Bold-2e" transform="translate(908.886719 0)"/>
     <use xlink:href="#DejaVuSans-Bold-35" transform="translate(946.875 0)"/>
     <use xlink:href="#DejaVuSans-Bold-29" transform="translate(1016.455078 0)"/>
    </g>
   </g>
   <g id="text_31">
    <!-- Coord 2 (-0.6,0.6,1.5) -->
    <g transform="translate(644.367789 474.615343) scale(0.12 -0.12)">
     <defs>
      <path id="DejaVuSans-Bold-32" d="M 1844 884 
L 3897 884 
L 3897 0 
L 506 0 
L 506 884 
L 2209 2388 
Q 2438 2594 2547 2791 
Q 2656 2988 2656 3200 
Q 2656 3528 2436 3728 
Q 2216 3928 1850 3928 
Q 1569 3928 1234 3808 
Q 900 3688 519 3450 
L 519 4475 
Q 925 4609 1322 4679 
Q 1719 4750 2100 4750 
Q 2938 4750 3402 4381 
Q 3866 4013 3866 3353 
Q 3866 2972 3669 2642 
Q 3472 2313 2841 1759 
L 1844 884 
z
" transform="scale(0.015625)"/>
      <path id="DejaVuSans-Bold-2d" d="M 347 2297 
L 2309 2297 
L 2309 1388 
L 347 1388 
L 347 2297 
z
" transform="scale(0.015625)"/>
     </defs>
     <use xlink:href="#DejaVuSans-Bold-43"/>
     <use xlink:href="#DejaVuSans-Bold-6f" transform="translate(73.388672 0)"/>
     <use xlink:href="#DejaVuSans-Bold-6f" transform="translate(142.089844 0)"/>
     <use xlink:href="#DejaVuSans-Bold-72" transform="translate(210.791016 0)"/>
     <use xlink:href="#DejaVuSans-Bold-64" transform="translate(260.107422 0)"/>
     <use xlink:href="#DejaVuSans-Bold-20" transform="translate(331.689453 0)"/>
     <use xlink:href="#DejaVuSans-Bold-32" transform="translate(366.503906 0)"/>
     <use xlink:href="#DejaVuSans-Bold-20" transform="translate(436.083984 0)"/>
     <use xlink:href="#DejaVuSans-Bold-28" transform="translate(470.898438 0)"/>
     <use xlink:href="#DejaVuSans-Bold-2d" transform="translate(516.601562 0)"/>
     <use xlink:href="#DejaVuSans-Bold-30" transform="translate(558.105469 0)"/>
     <use xlink:href="#DejaVuSans-Bold-2e" transform="translate(627.685547 0)"/>
     <use xlink:href="#DejaVuSans-Bold-36" transform="translate(665.673828 0)"/>
     <use xlink:href="#DejaVuSans-Bold-2c" transform="translate(735.253906 0)"/>
     <use xlink:href="#DejaVuSans-Bold-30" transform="translate(773.242188 0)"/>
     <use xlink:href="#DejaVuSans-Bold-2e" transform="translate(842.822266 0)"/>
     <use xlink:href="#DejaVuSans-Bold-36" transform="translate(880.810547 0)"/>
     <use xlink:href="#DejaVuSans-Bold-2c" transform="translate(950.390625 0)"/>
     <use xlink:href="#DejaVuSans-Bold-31" transform="translate(988.378906 0)"/>
     <use xlink:href="#DejaVuSans-Bold-2e" transform="translate(1057.958984 0)"/>
     <use xlink:href="#DejaVuSans-Bold-35" transform="translate(1095.947266 0)"/>
     <use xlink:href="#DejaVuSans-Bold-29" transform="translate(1165.527344 0)"/>
    </g>
   </g>
   <g id="text_32">
    <!-- Coord 3 (-0.6,-0.6,1.5) -->
    <g transform="translate(1008.419557 322.851703) scale(0.12 -0.12)">
     <defs>
      <path id="DejaVuSans-Bold-33" d="M 2981 2516 
Q 3453 2394 3698 2092 
Q 3944 1791 3944 1325 
Q 3944 631 3412 270 
Q 2881 -91 1863 -91 
Q 1503 -91 1142 -33 
Q 781 25 428 141 
L 428 1069 
Q 766 900 1098 814 
Q 1431 728 1753 728 
Q 2231 728 2486 893 
Q 2741 1059 2741 1369 
Q 2741 1688 2480 1852 
Q 2219 2016 1709 2016 
L 1228 2016 
L 1228 2791 
L 1734 2791 
Q 2188 2791 2409 2933 
Q 2631 3075 2631 3366 
Q 2631 3634 2415 3781 
Q 2200 3928 1806 3928 
Q 1516 3928 1219 3862 
Q 922 3797 628 3669 
L 628 4550 
Q 984 4650 1334 4700 
Q 1684 4750 2022 4750 
Q 2931 4750 3382 4451 
Q 3834 4153 3834 3553 
Q 3834 3144 3618 2883 
Q 3403 2622 2981 2516 
z
" transform="scale(0.015625)"/>
     </defs>
     <use xlink:href="#DejaVuSans-Bold-43"/>
     <use xlink:href="#DejaVuSans-Bold-6f" transform="translate(73.388672 0)"/>
     <use xlink:href="#DejaVuSans-Bold-6f" transform="translate(142.089844 0)"/>
     <use xlink:href="#DejaVuSans-Bold-72" transform="translate(210.791016 0)"/>
     <use xlink:href="#DejaVuSans-Bold-64" transform="translate(260.107422 0)"/>
     <use xlink:href="#DejaVuSans-Bold-20" transform="translate(331.689453 0)"/>
     <use xlink:href="#DejaVuSans-Bold-33" transform="translate(366.503906 0)"/>
     <use xlink:href="#DejaVuSans-Bold-20" transform="translate(436.083984 0)"/>
     <use xlink:href="#DejaVuSans-Bold-28" transform="translate(470.898438 0)"/>
     <use xlink:href="#DejaVuSans-Bold-2d" transform="translate(516.601562 0)"/>
     <use xlink:href="#DejaVuSans-Bold-30" transform="translate(558.105469 0)"/>
     <use xlink:href="#DejaVuSans-Bold-2e" transform="translate(627.685547 0)"/>
     <use xlink:href="#DejaVuSans-Bold-36" transform="translate(665.673828 0)"/>
     <use xlink:href="#DejaVuSans-Bold-2c" transform="translate(735.253906 0)"/>
     <use xlink:href="#DejaVuSans-Bold-2d" transform="translate(773.242188 0)"/>
     <use xlink:href="#DejaVuSans-Bold-30" transform="translate(814.746094 0)"/>
     <use xlink:href="#DejaVuSans-Bold-2e" transform="translate(884.326172 0)"/>
     <use xlink:href="#DejaVuSans-Bold-36" transform="translate(922.314453 0)"/>
     <use xlink:href="#DejaVuSans-Bold-2c" transform="translate(991.894531 0)"/>
     <use xlink:href="#DejaVuSans-Bold-31" transform="translate(1029.882812 0)"/>
     <use xlink:href="#DejaVuSans-Bold-2e" transform="translate(1099.462891 0)"/>
     <use xlink:href="#DejaVuSans-Bold-35" transform="translate(1137.451172 0)"/>
     <use xlink:href="#DejaVuSans-Bold-29" transform="translate(1207.03125 0)"/>
    </g>
   </g>
   <g id="text_33">
    <!-- Coord 4 (0.6,-0.6,1.5) -->
    <g transform="translate(690.282234 205.30036) scale(0.12 -0.12)">
     <defs>
      <path id="DejaVuSans-Bold-34" d="M 2356 3675 
L 1038 1722 
L 2356 1722 
L 2356 3675 
z
M 2156 4666 
L 3494 4666 
L 3494 1722 
L 4159 1722 
L 4159 850 
L 3494 850 
L 3494 0 
L 2356 0 
L 2356 850 
L 288 850 
L 288 1881 
L 2156 4666 
z
" transform="scale(0.015625)"/>
     </defs>
     <use xlink:href="#DejaVuSans-Bold-43"/>
     <use xlink:href="#DejaVuSans-Bold-6f" transform="translate(73.388672 0)"/>
     <use xlink:href="#DejaVuSans-Bold-6f" transform="translate(142.089844 0)"/>
     <use xlink:href="#DejaVuSans-Bold-72" transform="translate(210.791016 0)"/>
     <use xlink:href="#DejaVuSans-Bold-64" transform="translate(260.107422 0)"/>
     <use xlink:href="#DejaVuSans-Bold-20" transform="translate(331.689453 0)"/>
     <use xlink:href="#DejaVuSans-Bold-34" transform="translate(366.503906 0)"/>
     <use xlink:href="#DejaVuSans-Bold-20" transform="translate(436.083984 0)"/>
     <use xlink:href="#DejaVuSans-Bold-28" transform="translate(470.898438 0)"/>
     <use xlink:href="#DejaVuSans-Bold-30" transform="translate(516.601562 0)"/>
     <use xlink:href="#DejaVuSans-Bold-2e" transform="translate(586.181641 0)"/>
     <use xlink:href="#DejaVuSans-Bold-36" transform="translate(624.169922 0)"/>
     <use xlink:href="#DejaVuSans-Bold-2c" transform="translate(693.75 0)"/>
     <use xlink:href="#DejaVuSans-Bold-2d" transform="translate(731.738281 0)"/>
     <use xlink:href="#DejaVuSans-Bold-30" transform="translate(773.242188 0)"/>
     <use xlink:href="#DejaVuSans-Bold-2e" transform="translate(842.822266 0)"/>
     <use xlink:href="#DejaVuSans-Bold-36" transform="translate(880.810547 0)"/>
     <use xlink:href="#DejaVuSans-Bold-2c" transform="translate(950.390625 0)"/>
     <use xlink:href="#DejaVuSans-Bold-31" transform="translate(988.378906 0)"/>
     <use xlink:href="#DejaVuSans-Bold-2e" transform="translate(1057.958984 0)"/>
     <use xlink:href="#DejaVuSans-Bold-35" transform="translate(1095.947266 0)"/>
     <use xlink:href="#DejaVuSans-Bold-29" transform="translate(1165.527344 0)"/>
    </g>
   </g>
   <g id="text_34">
    <!-- Coord 5 (0.6,0.6,1.5) -->
    <g transform="translate(326.186832 341.203622) scale(0.12 -0.12)">
     <use xlink:href="#DejaVuSans-Bold-43"/>
     <use xlink:href="#DejaVuSans-Bold-6f" transform="translate(73.388672 0)"/>
     <use xlink:href="#DejaVuSans-Bold-6f" transform="translate(142.089844 0)"/>
     <use xlink:href="#DejaVuSans-Bold-72" transform="translate(210.791016 0)"/>
     <use xlink:href="#DejaVuSans-Bold-64" transform="translate(260.107422 0)"/>
     <use xlink:href="#DejaVuSans-Bold-20" transform="translate(331.689453 0)"/>
     <use xlink:href="#DejaVuSans-Bold-35" transform="translate(366.503906 0)"/>
     <use xlink:href="#DejaVuSans-Bold-20" transform="translate(436.083984 0)"/>
     <use xlink:href="#DejaVuSans-Bold-28" transform="translate(470.898438 0)"/>
     <use xlink:href="#DejaVuSans-Bold-30" transform="translate(516.601562 0)"/>
     <use xlink:href="#DejaVuSans-Bold-2e" transform="translate(586.181641 0)"/>
     <use xlink:href="#DejaVuSans-Bold-36" transform="translate(624.169922 0)"/>
     <use xlink:href="#DejaVuSans-Bold-2c" transform="translate(693.75 0)"/>
     <use xlink:href="#DejaVuSans-Bold-30" transform="translate(731.738281 0)"/>
     <use xlink:href="#DejaVuSans-Bold-2e" transform="translate(801.318359 0)"/>
     <use xlink:href="#DejaVuSans-Bold-36" transform="translate(839.306641 0)"/>
     <use xlink:href="#DejaVuSans-Bold-2c" transform="translate(908.886719 0)"/>
     <use xlink:href="#DejaVuSans-Bold-31" transform="translate(946.875 0)"/>
     <use xlink:href="#DejaVuSans-Bold-2e" transform="translate(1016.455078 0)"/>
     <use xlink:href="#DejaVuSans-Bold-35" transform="translate(1054.443359 0)"/>
     <use xlink:href="#DejaVuSans-Bold-29" transform="translate(1124.023438 0)"/>
    </g>
   </g>
   <g id="text_35">
    <!-- 3D Flight Visualization: State Estimate Flight Path vs. Ideal -->
    <g transform="translate(384.201563 24.48) scale(0.18 -0.18)">
     <defs>
      <path id="DejaVuSans-33" d="M 2597 2516 
Q 3050 2419 3304 2112 
Q 3559 1806 3559 1356 
Q 3559 666 3084 287 
Q 2609 -91 1734 -91 
Q 1441 -91 1130 -33 
Q 819 25 488 141 
L 488 750 
Q 750 597 1062 519 
Q 1375 441 1716 441 
Q 2309 441 2620 675 
Q 2931 909 2931 1356 
Q 2931 1769 2642 2001 
Q 2353 2234 1838 2234 
L 1294 2234 
L 1294 2753 
L 1863 2753 
Q 2328 2753 2575 2939 
Q 2822 3125 2822 3475 
Q 2822 3834 2567 4026 
Q 2313 4219 1838 4219 
Q 1578 4219 1281 4162 
Q 984 4106 628 3988 
L 628 4550 
Q 988 4650 1302 4700 
Q 1616 4750 1894 4750 
Q 2613 4750 3031 4423 
Q 3450 4097 3450 3541 
Q 3450 3153 3228 2886 
Q 3006 2619 2597 2516 
z
" transform="scale(0.015625)"/>
      <path id="DejaVuSans-44" d="M 1259 4147 
L 1259 519 
L 2022 519 
Q 2988 519 3436 956 
Q 3884 1394 3884 2338 
Q 3884 3275 3436 3711 
Q 2988 4147 2022 4147 
L 1259 4147 
z
M 628 4666 
L 1925 4666 
Q 3281 4666 3915 4102 
Q 4550 3538 4550 2338 
Q 4550 1131 3912 565 
Q 3275 0 1925 0 
L 628 0 
L 628 4666 
z
" transform="scale(0.015625)"/>
      <path id="DejaVuSans-46" d="M 628 4666 
L 3309 4666 
L 3309 4134 
L 1259 4134 
L 1259 2759 
L 3109 2759 
L 3109 2228 
L 1259 2228 
L 1259 0 
L 628 0 
L 628 4666 
z
" transform="scale(0.015625)"/>
      <path id="DejaVuSans-6c" d="M 603 4863 
L 1178 4863 
L 1178 0 
L 603 0 
L 603 4863 
z
" transform="scale(0.015625)"/>
      <path id="DejaVuSans-69" d="M 603 3500 
L 1178 3500 
L 1178 0 
L 603 0 
L 603 3500 
z
M 603 4863 
L 1178 4863 
L 1178 4134 
L 603 4134 
L 603 4863 
z
" transform="scale(0.015625)"/>
      <path id="DejaVuSans-67" d="M 2906 1791 
Q 2906 2416 2648 2759 
Q 2391 3103 1925 3103 
Q 1463 3103 1205 2759 
Q 947 2416 947 1791 
Q 947 1169 1205 825 
Q 1463 481 1925 481 
Q 2391 481 2648 825 
Q 2906 1169 2906 1791 
z
M 3481 434 
Q 3481 -459 3084 -895 
Q 2688 -1331 1869 -1331 
Q 1566 -1331 1297 -1286 
Q 1028 -1241 775 -1147 
L 775 -588 
Q 1028 -725 1275 -790 
Q 1522 -856 1778 -856 
Q 2344 -856 2625 -561 
Q 2906 -266 2906 331 
L 2906 616 
Q 2728 306 2450 153 
Q 2172 0 1784 0 
Q 1141 0 747 490 
Q 353 981 353 1791 
Q 353 2603 747 3093 
Q 1141 3584 1784 3584 
Q 2172 3584 2450 3431 
Q 2728 3278 2906 2969 
L 2906 3500 
L 3481 3500 
L 3481 434 
z
" transform="scale(0.015625)"/>
      <path id="DejaVuSans-68" d="M 3513 2113 
L 3513 0 
L 2938 0 
L 2938 2094 
Q 2938 2591 2744 2837 
Q 2550 3084 2163 3084 
Q 1697 3084 1428 2787 
Q 1159 2491 1159 1978 
L 1159 0 
L 581 0 
L 581 4863 
L 1159 4863 
L 1159 2956 
Q 1366 3272 1645 3428 
Q 1925 3584 2291 3584 
Q 2894 3584 3203 3211 
Q 3513 2838 3513 2113 
z
" transform="scale(0.015625)"/>
      <path id="DejaVuSans-74" d="M 1172 4494 
L 1172 3500 
L 2356 3500 
L 2356 3053 
L 1172 3053 
L 1172 1153 
Q 1172 725 1289 603 
Q 1406 481 1766 481 
L 2356 481 
L 2356 0 
L 1766 0 
Q 1100 0 847 248 
Q 594 497 594 1153 
L 594 3053 
L 172 3053 
L 172 3500 
L 594 3500 
L 594 4494 
L 1172 4494 
z
" transform="scale(0.015625)"/>
      <path id="DejaVuSans-56" d="M 1831 0 
L 50 4666 
L 709 4666 
L 2188 738 
L 3669 4666 
L 4325 4666 
L 2547 0 
L 1831 0 
z
" transform="scale(0.015625)"/>
      <path id="DejaVuSans-73" d="M 2834 3397 
L 2834 2853 
Q 2591 2978 2328 3040 
Q 2066 3103 1784 3103 
Q 1356 3103 1142 2972 
Q 928 2841 928 2578 
Q 928 2378 1081 2264 
Q 1234 2150 1697 2047 
L 1894 2003 
Q 2506 1872 2764 1633 
Q 3022 1394 3022 966 
Q 3022 478 2636 193 
Q 2250 -91 1575 -91 
Q 1294 -91 989 -36 
Q 684 19 347 128 
L 347 722 
Q 666 556 975 473 
Q 1284 391 1588 391 
Q 1994 391 2212 530 
Q 2431 669 2431 922 
Q 2431 1156 2273 1281 
Q 2116 1406 1581 1522 
L 1381 1569 
Q 847 1681 609 1914 
Q 372 2147 372 2553 
Q 372 3047 722 3315 
Q 1072 3584 1716 3584 
Q 2034 3584 2315 3537 
Q 2597 3491 2834 3397 
z
" transform="scale(0.015625)"/>
      <path id="DejaVuSans-75" d="M 544 1381 
L 544 3500 
L 1119 3500 
L 1119 1403 
Q 1119 906 1312 657 
Q 1506 409 1894 409 
Q 2359 409 2629 706 
Q 2900 1003 2900 1516 
L 2900 3500 
L 3475 3500 
L 3475 0 
L 2900 0 
L 2900 538 
Q 2691 219 2414 64 
Q 2138 -91 1772 -91 
Q 1169 -91 856 284 
Q 544 659 544 1381 
z
M 1991 3584 
L 1991 3584 
z
" transform="scale(0.015625)"/>
      <path id="DejaVuSans-61" d="M 2194 1759 
Q 1497 1759 1228 1600 
Q 959 1441 959 1056 
Q 959 750 1161 570 
Q 1363 391 1709 391 
Q 2188 391 2477 730 
Q 2766 1069 2766 1631 
L 2766 1759 
L 2194 1759 
z
M 3341 1997 
L 3341 0 
L 2766 0 
L 2766 531 
Q 2569 213 2275 61 
Q 1981 -91 1556 -91 
Q 1019 -91 701 211 
Q 384 513 384 1019 
Q 384 1609 779 1909 
Q 1175 2209 1959 2209 
L 2766 2209 
L 2766 2266 
Q 2766 2663 2505 2880 
Q 2244 3097 1772 3097 
Q 1472 3097 1187 3025 
Q 903 2953 641 2809 
L 641 3341 
Q 956 3463 1253 3523 
Q 1550 3584 1831 3584 
Q 2591 3584 2966 3190 
Q 3341 2797 3341 1997 
z
" transform="scale(0.015625)"/>
      <path id="DejaVuSans-7a" d="M 353 3500 
L 3084 3500 
L 3084 2975 
L 922 459 
L 3084 459 
L 3084 0 
L 275 0 
L 275 525 
L 2438 3041 
L 353 3041 
L 353 3500 
z
" transform="scale(0.015625)"/>
      <path id="DejaVuSans-6f" d="M 1959 3097 
Q 1497 3097 1228 2736 
Q 959 2375 959 1747 
Q 959 1119 1226 758 
Q 1494 397 1959 397 
Q 2419 397 2687 759 
Q 2956 1122 2956 1747 
Q 2956 2369 2687 2733 
Q 2419 3097 1959 3097 
z
M 1959 3584 
Q 2709 3584 3137 3096 
Q 3566 2609 3566 1747 
Q 3566 888 3137 398 
Q 2709 -91 1959 -91 
Q 1206 -91 779 398 
Q 353 888 353 1747 
Q 353 2609 779 3096 
Q 1206 3584 1959 3584 
z
" transform="scale(0.015625)"/>
      <path id="DejaVuSans-6e" d="M 3513 2113 
L 3513 0 
L 2938 0 
L 2938 2094 
Q 2938 2591 2744 2837 
Q 2550 3084 2163 3084 
Q 1697 3084 1428 2787 
Q 1159 2491 1159 1978 
L 1159 0 
L 581 0 
L 581 3500 
L 1159 3500 
L 1159 2956 
Q 1366 3272 1645 3428 
Q 1925 3584 2291 3584 
Q 2894 3584 3203 3211 
Q 3513 2838 3513 2113 
z
" transform="scale(0.015625)"/>
      <path id="DejaVuSans-3a" d="M 750 794 
L 1409 794 
L 1409 0 
L 750 0 
L 750 794 
z
M 750 3309 
L 1409 3309 
L 1409 2516 
L 750 2516 
L 750 3309 
z
" transform="scale(0.015625)"/>
      <path id="DejaVuSans-53" d="M 3425 4513 
L 3425 3897 
Q 3066 4069 2747 4153 
Q 2428 4238 2131 4238 
Q 1616 4238 1336 4038 
Q 1056 3838 1056 3469 
Q 1056 3159 1242 3001 
Q 1428 2844 1947 2747 
L 2328 2669 
Q 3034 2534 3370 2195 
Q 3706 1856 3706 1288 
Q 3706 609 3251 259 
Q 2797 -91 1919 -91 
Q 1588 -91 1214 -16 
Q 841 59 441 206 
L 441 856 
Q 825 641 1194 531 
Q 1563 422 1919 422 
Q 2459 422 2753 634 
Q 3047 847 3047 1241 
Q 3047 1584 2836 1778 
Q 2625 1972 2144 2069 
L 1759 2144 
Q 1053 2284 737 2584 
Q 422 2884 422 3419 
Q 422 4038 858 4394 
Q 1294 4750 2059 4750 
Q 2388 4750 2728 4690 
Q 3069 4631 3425 4513 
z
" transform="scale(0.015625)"/>
      <path id="DejaVuSans-65" d="M 3597 1894 
L 3597 1613 
L 953 1613 
Q 991 1019 1311 708 
Q 1631 397 2203 397 
Q 2534 397 2845 478 
Q 3156 559 3463 722 
L 3463 178 
Q 3153 47 2828 -22 
Q 2503 -91 2169 -91 
Q 1331 -91 842 396 
Q 353 884 353 1716 
Q 353 2575 817 3079 
Q 1281 3584 2069 3584 
Q 2775 3584 3186 3129 
Q 3597 2675 3597 1894 
z
M 3022 2063 
Q 3016 2534 2758 2815 
Q 2500 3097 2075 3097 
Q 1594 3097 1305 2825 
Q 1016 2553 972 2059 
L 3022 2063 
z
" transform="scale(0.015625)"/>
      <path id="DejaVuSans-45" d="M 628 4666 
L 3578 4666 
L 3578 4134 
L 1259 4134 
L 1259 2753 
L 3481 2753 
L 3481 2222 
L 1259 2222 
L 1259 531 
L 3634 531 
L 3634 0 
L 628 0 
L 628 4666 
z
" transform="scale(0.015625)"/>
      <path id="DejaVuSans-50" d="M 1259 4147 
L 1259 2394 
L 2053 2394 
Q 2494 2394 2734 2622 
Q 2975 2850 2975 3272 
Q 2975 3691 2734 3919 
Q 2494 4147 2053 4147 
L 1259 4147 
z
M 628 4666 
L 2053 4666 
Q 2838 4666 3239 4311 
Q 3641 3956 3641 3272 
Q 3641 2581 3239 2228 
Q 2838 1875 2053 1875 
L 1259 1875 
L 1259 0 
L 628 0 
L 628 4666 
z
" transform="scale(0.015625)"/>
      <path id="DejaVuSans-76" d="M 191 3500 
L 800 3500 
L 1894 563 
L 2988 3500 
L 3597 3500 
L 2284 0 
L 1503 0 
L 191 3500 
z
" transform="scale(0.015625)"/>
      <path id="DejaVuSans-49" d="M 628 4666 
L 1259 4666 
L 1259 0 
L 628 0 
L 628 4666 
z
" transform="scale(0.015625)"/>
      <path id="DejaVuSans-64" d="M 2906 2969 
L 2906 4863 
L 3481 4863 
L 3481 0 
L 2906 0 
L 2906 525 
Q 2725 213 2448 61 
Q 2172 -91 1784 -91 
Q 1150 -91 751 415 
Q 353 922 353 1747 
Q 353 2572 751 3078 
Q 1150 3584 1784 3584 
Q 2172 3584 2448 3432 
Q 2725 3281 2906 2969 
z
M 947 1747 
Q 947 1113 1208 752 
Q 1469 391 1925 391 
Q 2381 391 2643 752 
Q 2906 1113 2906 1747 
Q 2906 2381 2643 2742 
Q 2381 3103 1925 3103 
Q 1469 3103 1208 2742 
Q 947 2381 947 1747 
z
" transform="scale(0.015625)"/>
     </defs>
     <use xlink:href="#DejaVuSans-33"/>
     <use xlink:href="#DejaVuSans-44" transform="translate(63.623047 0)"/>
     <use xlink:href="#DejaVuSans-20" transform="translate(140.625 0)"/>
     <use xlink:href="#DejaVuSans-46" transform="translate(172.412109 0)"/>
     <use xlink:href="#DejaVuSans-6c" transform="translate(229.931641 0)"/>
     <use xlink:href="#DejaVuSans-69" transform="translate(257.714844 0)"/>
     <use xlink:href="#DejaVuSans-67" transform="translate(285.498047 0)"/>
     <use xlink:href="#DejaVuSans-68" transform="translate(348.974609 0)"/>
     <use xlink:href="#DejaVuSans-74" transform="translate(412.353516 0)"/>
     <use xlink:href="#DejaVuSans-20" transform="translate(451.5625 0)"/>
     <use xlink:href="#DejaVuSans-56" transform="translate(483.349609 0)"/>
     <use xlink:href="#DejaVuSans-69" transform="translate(549.507812 0)"/>
     <use xlink:href="#DejaVuSans-73" transform="translate(577.291016 0)"/>
     <use xlink:href="#DejaVuSans-75" transform="translate(629.390625 0)"/>
     <use xlink:href="#DejaVuSans-61" transform="translate(692.769531 0)"/>
     <use xlink:href="#DejaVuSans-6c" transform="translate(754.048828 0)"/>
     <use xlink:href="#DejaVuSans-69" transform="translate(781.832031 0)"/>
     <use xlink:href="#DejaVuSans-7a" transform="translate(809.615234 0)"/>
     <use xlink:href="#DejaVuSans-61" transform="translate(862.105469 0)"/>
     <use xlink:href="#DejaVuSans-74" transform="translate(923.384766 0)"/>
     <use xlink:href="#DejaVuSans-69" transform="translate(962.59375 0)"/>
     <use xlink:href="#DejaVuSans-6f" transform="translate(990.376953 0)"/>
     <use xlink:href="#DejaVuSans-6e" transform="translate(1051.558594 0)"/>
     <use xlink:href="#DejaVuSans-3a" transform="translate(1114.9375 0)"/>
     <use xlink:href="#DejaVuSans-20" transform="translate(1148.628906 0)"/>
     <use xlink:href="#DejaVuSans-53" transform="translate(1180.416016 0)"/>
     <use xlink:href="#DejaVuSans-74" transform="translate(1243.892578 0)"/>
     <use xlink:href="#DejaVuSans-61" transform="translate(1283.101562 0)"/>
     <use xlink:href="#DejaVuSans-74" transform="translate(1344.380859 0)"/>
     <use xlink:href="#DejaVuSans-65" transform="translate(1383.589844 0)"/>
     <use xlink:href="#DejaVuSans-20" transform="translate(1445.113281 0)"/>
     <use xlink:href="#DejaVuSans-45" transform="translate(1476.900391 0)"/>
     <use xlink:href="#DejaVuSans-73" transform="translate(1540.083984 0)"/>
     <use xlink:href="#DejaVuSans-74" transform="translate(1592.183594 0)"/>
     <use xlink:href="#DejaVuSans-69" transform="translate(1631.392578 0)"/>
     <use xlink:href="#DejaVuSans-6d" transform="translate(1659.175781 0)"/>
     <use xlink:href="#DejaVuSans-61" transform="translate(1756.587891 0)"/>
     <use xlink:href="#DejaVuSans-74" transform="translate(1817.867188 0)"/>
     <use xlink:href="#DejaVuSans-65" transform="translate(1857.076172 0)"/>
     <use xlink:href="#DejaVuSans-20" transform="translate(1918.599609 0)"/>
     <use xlink:href="#DejaVuSans-46" transform="translate(1950.386719 0)"/>
     <use xlink:href="#DejaVuSans-6c" transform="translate(2007.90625 0)"/>
     <use xlink:href="#DejaVuSans-69" transform="translate(2035.689453 0)"/>
     <use xlink:href="#DejaVuSans-67" transform="translate(2063.472656 0)"/>
     <use xlink:href="#DejaVuSans-68" transform="translate(2126.949219 0)"/>
     <use xlink:href="#DejaVuSans-74" transform="translate(2190.328125 0)"/>
     <use xlink:href="#DejaVuSans-20" transform="translate(2229.537109 0)"/>
     <use xlink:href="#DejaVuSans-50" transform="translate(2261.324219 0)"/>
     <use xlink:href="#DejaVuSans-61" transform="translate(2317.126953 0)"/>
     <use xlink:href="#DejaVuSans-74" transform="translate(2378.40625 0)"/>
     <use xlink:href="#DejaVuSans-68" transform="translate(2417.615234 0)"/>
     <use xlink:href="#DejaVuSans-20" transform="translate(2480.994141 0)"/>
     <use xlink:href="#DejaVuSans-76" transform="translate(2512.78125 0)"/>
     <use xlink:href="#DejaVuSans-73" transform="translate(2571.960938 0)"/>
     <use xlink:href="#DejaVuSans-2e" transform="translate(2624.060547 0)"/>
     <use xlink:href="#DejaVuSans-20" transform="translate(2655.847656 0)"/>
     <use xlink:href="#DejaVuSans-49" transform="translate(2687.634766 0)"/>
     <use xlink:href="#DejaVuSans-64" transform="translate(2717.126953 0)"/>
     <use xlink:href="#DejaVuSans-65" transform="translate(2780.603516 0)"/>
     <use xlink:href="#DejaVuSans-61" transform="translate(2842.126953 0)"/>
     <use xlink:href="#DejaVuSans-6c" transform="translate(2903.40625 0)"/>
    </g>
   </g>
   <g id="legend_1">
    <g id="patch_6">
     <path d="M 928.49625 75.3075 
L 1122.96 75.3075 
Q 1125.36 75.3075 1125.36 72.9075 
L 1125.36 38.88 
Q 1125.36 36.48 1122.96 36.48 
L 928.49625 36.48 
Q 926.09625 36.48 926.09625 38.88 
L 926.09625 72.9075 
Q 926.09625 75.3075 928.49625 75.3075 
z
" style="fill: #ffffff; opacity: 0.8; stroke: #cccccc; stroke-linejoin: miter"/>
    </g>
    <g id="line2d_30">
     <path d="M 930.89625 46.198125 
L 942.89625 46.198125 
L 954.89625 46.198125 
" style="fill: none; stroke: #0000ff; stroke-width: 2; stroke-linecap: square"/>
    </g>
    <g id="text_36">
     <!-- State Estimate Flight Path -->
     <g transform="translate(964.49625 50.398125) scale(0.12 -0.12)">
      <use xlink:href="#DejaVuSans-53"/>
      <use xlink:href="#DejaVuSans-74" transform="translate(63.476562 0)"/>
      <use xlink:href="#DejaVuSans-61" transform="translate(102.685547 0)"/>
      <use xlink:href="#DejaVuSans-74" transform="translate(163.964844 0)"/>
      <use xlink:href="#DejaVuSans-65" transform="translate(203.173828 0)"/>
      <use xlink:href="#DejaVuSans-20" transform="translate(264.697266 0)"/>
      <use xlink:href="#DejaVuSans-45" transform="translate(296.484375 0)"/>
      <use xlink:href="#DejaVuSans-73" transform="translate(359.667969 0)"/>
      <use xlink:href="#DejaVuSans-74" transform="translate(411.767578 0)"/>
      <use xlink:href="#DejaVuSans-69" transform="translate(450.976562 0)"/>
      <use xlink:href="#DejaVuSans-6d" transform="translate(478.759766 0)"/>
      <use xlink:href="#DejaVuSans-61" transform="translate(576.171875 0)"/>
      <use xlink:href="#DejaVuSans-74" transform="translate(637.451172 0)"/>
      <use xlink:href="#DejaVuSans-65" transform="translate(676.660156 0)"/>
      <use xlink:href="#DejaVuSans-20" transform="translate(738.183594 0)"/>
      <use xlink:href="#DejaVuSans-46" transform="translate(769.970703 0)"/>
      <use xlink:href="#DejaVuSans-6c" transform="translate(827.490234 0)"/>
      <use xlink:href="#DejaVuSans-69" transform="translate(855.273438 0)"/>
      <use xlink:href="#DejaVuSans-67" transform="translate(883.056641 0)"/>
      <use xlink:href="#DejaVuSans-68" transform="translate(946.533203 0)"/>
      <use xlink:href="#DejaVuSans-74" transform="translate(1009.912109 0)"/>
      <use xlink:href="#DejaVuSans-20" transform="translate(1049.121094 0)"/>
      <use xlink:href="#DejaVuSans-50" transform="translate(1080.908203 0)"/>
      <use xlink:href="#DejaVuSans-61" transform="translate(1136.710938 0)"/>
      <use xlink:href="#DejaVuSans-74" transform="translate(1197.990234 0)"/>
      <use xlink:href="#DejaVuSans-68" transform="translate(1237.199219 0)"/>
     </g>
    </g>
    <g id="line2d_31">
     <path d="M 930.89625 63.811875 
L 942.89625 63.811875 
L 954.89625 63.811875 
" style="fill: none; stroke-dasharray: 7.4,3.2; stroke-dashoffset: 0; stroke: #008000; stroke-width: 2"/>
    </g>
    <g id="text_37">
     <!-- Ideal Waypoints Path -->
     <g transform="translate(964.49625 68.011875) scale(0.12 -0.12)">
      <defs>
       <path id="DejaVuSans-57" d="M 213 4666 
L 850 4666 
L 1831 722 
L 2809 4666 
L 3519 4666 
L 4500 722 
L 5478 4666 
L 6119 4666 
L 4947 0 
L 4153 0 
L 3169 4050 
L 2175 0 
L 1381 0 
L 213 4666 
z
" transform="scale(0.015625)"/>
       <path id="DejaVuSans-79" d="M 2059 -325 
Q 1816 -950 1584 -1140 
Q 1353 -1331 966 -1331 
L 506 -1331 
L 506 -850 
L 844 -850 
Q 1081 -850 1212 -737 
Q 1344 -625 1503 -206 
L 1606 56 
L 191 3500 
L 800 3500 
L 1894 763 
L 2988 3500 
L 3597 3500 
L 2059 -325 
z
" transform="scale(0.015625)"/>
       <path id="DejaVuSans-70" d="M 1159 525 
L 1159 -1331 
L 581 -1331 
L 581 3500 
L 1159 3500 
L 1159 2969 
Q 1341 3281 1617 3432 
Q 1894 3584 2278 3584 
Q 2916 3584 3314 3078 
Q 3713 2572 3713 1747 
Q 3713 922 3314 415 
Q 2916 -91 2278 -91 
Q 1894 -91 1617 61 
Q 1341 213 1159 525 
z
M 3116 1747 
Q 3116 2381 2855 2742 
Q 2594 3103 2138 3103 
Q 1681 3103 1420 2742 
Q 1159 2381 1159 1747 
Q 1159 1113 1420 752 
Q 1681 391 2138 391 
Q 2594 391 2855 752 
Q 3116 1113 3116 1747 
z
" transform="scale(0.015625)"/>
      </defs>
      <use xlink:href="#DejaVuSans-49"/>
      <use xlink:href="#DejaVuSans-64" transform="translate(29.492188 0)"/>
      <use xlink:href="#DejaVuSans-65" transform="translate(92.96875 0)"/>
      <use xlink:href="#DejaVuSans-61" transform="translate(154.492188 0)"/>
      <use xlink:href="#DejaVuSans-6c" transform="translate(215.771484 0)"/>
      <use xlink:href="#DejaVuSans-20" transform="translate(243.554688 0)"/>
      <use xlink:href="#DejaVuSans-57" transform="translate(275.341797 0)"/>
      <use xlink:href="#DejaVuSans-61" transform="translate(367.84375 0)"/>
      <use xlink:href="#DejaVuSans-79" transform="translate(429.123047 0)"/>
      <use xlink:href="#DejaVuSans-70" transform="translate(488.302734 0)"/>
      <use xlink:href="#DejaVuSans-6f" transform="translate(551.779297 0)"/>
      <use xlink:href="#DejaVuSans-69" transform="translate(612.960938 0)"/>
      <use xlink:href="#DejaVuSans-6e" transform="translate(640.744141 0)"/>
      <use xlink:href="#DejaVuSans-74" transform="translate(704.123047 0)"/>
      <use xlink:href="#DejaVuSans-73" transform="translate(743.332031 0)"/>
      <use xlink:href="#DejaVuSans-20" transform="translate(795.431641 0)"/>
      <use xlink:href="#DejaVuSans-50" transform="translate(827.21875 0)"/>
      <use xlink:href="#DejaVuSans-61" transform="translate(883.021484 0)"/>
      <use xlink:href="#DejaVuSans-74" transform="translate(944.300781 0)"/>
      <use xlink:href="#DejaVuSans-68" transform="translate(983.509766 0)"/>
     </g>
    </g>
   </g>
  </g>
 </g>
 <defs>
  <clipPath id="p89cfdbb33a">
   <rect x="164.64" y="30.48" width="966.72" height="966.72"/>
  </clipPath>
 </defs>
</svg>
