<?xml version="1.0" encoding="utf-8" standalone="no"?>
<!DOCTYPE svg PUBLIC "-//W3C//DTD SVG 1.1//EN"
  "http://www.w3.org/Graphics/SVG/1.1/DTD/svg11.dtd">
<svg xmlns:xlink="http://www.w3.org/1999/xlink" width="1296pt" height="1008pt" viewBox="0 0 1296 1008" xmlns="http://www.w3.org/2000/svg" version="1.1">
 <metadata>
  <rdf:RDF xmlns:dc="http://purl.org/dc/elements/1.1/" xmlns:cc="http://creativecommons.org/ns#" xmlns:rdf="http://www.w3.org/1999/02/22-rdf-syntax-ns#">
   <cc:Work>
    <dc:type rdf:resource="http://purl.org/dc/dcmitype/StillImage"/>
    <dc:date>2025-08-27T07:59:16.405148</dc:date>
    <dc:format>image/svg+xml</dc:format>
    <dc:creator>
     <cc:Agent>
      <dc:title>Matplotlib v3.10.3, https://matplotlib.org/</dc:title>
     </cc:Agent>
    </dc:creator>
   </cc:Work>
  </rdf:RDF>
 </metadata>
 <defs>
  <style type="text/css">*{stroke-linejoin: round; stroke-linecap: butt}</style>
 </defs>
 <g id="figure_1">
  <g id="patch_1">
   <path d="M 0 1008 
L 1296 1008 
L 1296 0 
L 0 0 
z
" style="fill: #ffffff"/>
  </g>
  <g id="patch_2">
   <path d="M 164.64 997.2 
L 1131.36 997.2 
L 1131.36 30.48 
L 164.64 30.48 
z
" style="fill: #ffffff"/>
  </g>
  <g id="pane3d_1">
   <g id="patch_3">
    <path d="M 661.063784 581.893746 
L 263.758321 755.391958 
L 244.84442 234.039381 
L 661.063784 87.939602 
" style="fill: #f2f2f2; opacity: 0.5; stroke: #f2f2f2; stroke-linejoin: miter"/>
   </g>
  </g>
  <g id="pane3d_2">
   <g id="patch_4">
    <path d="M 1058.369247 755.391958 
L 661.063784 581.893746 
L 661.063784 87.939602 
L 1077.283147 234.039381 
" style="fill: #e6e6e6; opacity: 0.5; stroke: #e6e6e6; stroke-linejoin: miter"/>
   </g>
  </g>
  <g id="pane3d_3">
   <g id="patch_5">
    <path d="M 1058.369247 755.391958 
L 661.063784 581.893746 
L 263.758321 755.391958 
L 661.063784 954.570688 
" style="fill: #ececec; opacity: 0.5; stroke: #ececec; stroke-linejoin: miter"/>
   </g>
  </g>
  <g id="grid3d_1">
   <g id="Line3DCollection_1">
    <path d="M 626.680237 937.333394 
L 1024.134897 740.442255 
L 1041.318502 221.415204 
" style="fill: none; stroke: #b0b0b0; stroke-width: 0.8"/>
    <path d="M 574.903355 911.376405 
L 972.529546 717.906859 
L 987.140802 202.397949 
" style="fill: none; stroke: #b0b0b0; stroke-width: 0.8"/>
    <path d="M 524.053603 885.884208 
L 921.785989 695.747797 
L 933.909925 183.713044 
" style="fill: none; stroke: #b0b0b0; stroke-width: 0.8"/>
    <path d="M 474.1063 860.84443 
L 871.882817 673.95572 
L 881.601267 165.351852 
" style="fill: none; stroke: #b0b0b0; stroke-width: 0.8"/>
    <path d="M 425.037632 836.245134 
L 822.799324 652.521587 
L 830.191067 147.306034 
" style="fill: none; stroke: #b0b0b0; stroke-width: 0.8"/>
    <path d="M 376.824617 812.074796 
L 774.515481 631.43665 
L 779.656374 129.567533 
" style="fill: none; stroke: #b0b0b0; stroke-width: 0.8"/>
    <path d="M 329.445067 788.322295 
L 727.011902 610.692446 
L 729.975012 112.128566 
" style="fill: none; stroke: #b0b0b0; stroke-width: 0.8"/>
    <path d="M 282.877556 764.976888 
L 680.269827 590.280779 
L 681.125548 94.981608 
" style="fill: none; stroke: #b0b0b0; stroke-width: 0.8"/>
   </g>
  </g>
  <g id="grid3d_2">
   <g id="Line3DCollection_2">
    <path d="M 622.037567 101.63844 
L 623.707425 598.20679 
L 1021.173662 774.038994 
" style="fill: none; stroke: #b0b0b0; stroke-width: 0.8"/>
    <path d="M 558.913281 123.796093 
L 563.329584 624.57302 
L 960.985373 804.212823 
" style="fill: none; stroke: #b0b0b0; stroke-width: 0.8"/>
    <path d="M 494.400997 146.440956 
L 501.682136 651.493672 
L 899.441668 835.066154 
" style="fill: none; stroke: #b0b0b0; stroke-width: 0.8"/>
    <path d="M 428.454428 169.589276 
L 438.72461 678.986418 
L 836.496242 866.622201 
" style="fill: none; stroke: #b0b0b0; stroke-width: 0.8"/>
    <path d="M 361.025203 193.258033 
L 374.414795 707.069691 
L 772.100654 898.90525 
" style="fill: none; stroke: #b0b0b0; stroke-width: 0.8"/>
    <path d="M 292.062753 217.464977 
L 308.708651 735.762724 
L 706.204206 931.940715 
" style="fill: none; stroke: #b0b0b0; stroke-width: 0.8"/>
   </g>
  </g>
  <g id="grid3d_3">
   <g id="Line3DCollection_3">
    <path d="M 1058.369247 755.391958 
L 661.063784 581.893746 
L 263.758321 755.391958 
" style="fill: none; stroke: #b0b0b0; stroke-width: 0.8"/>
    <path d="M 1060.638941 692.828933 
L 661.063784 522.458548 
L 261.488627 692.828933 
" style="fill: none; stroke: #b0b0b0; stroke-width: 0.8"/>
    <path d="M 1062.934716 629.546992 
L 661.063784 462.384877 
L 259.192852 629.546992 
" style="fill: none; stroke: #b0b0b0; stroke-width: 0.8"/>
    <path d="M 1065.257025 565.533671 
L 661.063784 401.662389 
L 256.870543 565.533671 
" style="fill: none; stroke: #b0b0b0; stroke-width: 0.8"/>
    <path d="M 1067.606329 500.776216 
L 661.063784 340.280517 
L 254.521238 500.776216 
" style="fill: none; stroke: #b0b0b0; stroke-width: 0.8"/>
    <path d="M 1069.983103 435.261577 
L 661.063784 278.22846 
L 252.144464 435.261577 
" style="fill: none; stroke: #b0b0b0; stroke-width: 0.8"/>
    <path d="M 1072.387832 368.976396 
L 661.063784 215.495184 
L 249.739736 368.976396 
" style="fill: none; stroke: #b0b0b0; stroke-width: 0.8"/>
    <path d="M 1074.82101 301.906997 
L 661.063784 152.069408 
L 247.306557 301.906997 
" style="fill: none; stroke: #b0b0b0; stroke-width: 0.8"/>
    <path d="M 1077.283147 234.039381 
L 661.063784 87.939602 
L 244.84442 234.039381 
" style="fill: none; stroke: #b0b0b0; stroke-width: 0.8"/>
   </g>
  </g>
  <g id="axis3d_1">
   <g id="line2d_1">
    <path d="M 263.758321 755.391958 
L 661.063784 954.570688 
" style="fill: none; stroke: #000000; stroke-width: 0.8; stroke-linecap: square"/>
   </g>
   <g id="xtick_1">
    <g id="line2d_2">
     <path d="M 630.091781 935.643382 
L 619.845086 940.719392 
" style="fill: none; stroke: #000000; stroke-width: 0.8; stroke-linecap: square"/>
    </g>
    <g id="text_1">
     <!-- −2.5 -->
     <g transform="translate(604.825628 961.702734) scale(0.1 -0.1)">
      <defs>
       <path id="DejaVuSans-2212" d="M 678 2272 
L 4684 2272 
L 4684 1741 
L 678 1741 
L 678 2272 
z
" transform="scale(0.015625)"/>
       <path id="DejaVuSans-32" d="M 1228 531 
L 3431 531 
L 3431 0 
L 469 0 
L 469 531 
Q 828 903 1448 1529 
Q 2069 2156 2228 2338 
Q 2531 2678 2651 2914 
Q 2772 3150 2772 3378 
Q 2772 3750 2511 3984 
Q 2250 4219 1831 4219 
Q 1534 4219 1204 4116 
Q 875 4013 500 3803 
L 500 4441 
Q 881 4594 1212 4672 
Q 1544 4750 1819 4750 
Q 2544 4750 2975 4387 
Q 3406 4025 3406 3419 
Q 3406 3131 3298 2873 
Q 3191 2616 2906 2266 
Q 2828 2175 2409 1742 
Q 1991 1309 1228 531 
z
" transform="scale(0.015625)"/>
       <path id="DejaVuSans-2e" d="M 684 794 
L 1344 794 
L 1344 0 
L 684 0 
L 684 794 
z
" transform="scale(0.015625)"/>
       <path id="DejaVuSans-35" d="M 691 4666 
L 3169 4666 
L 3169 4134 
L 1269 4134 
L 1269 2991 
Q 1406 3038 1543 3061 
Q 1681 3084 1819 3084 
Q 2600 3084 3056 2656 
Q 3513 2228 3513 1497 
Q 3513 744 3044 326 
Q 2575 -91 1722 -91 
Q 1428 -91 1123 -41 
Q 819 9 494 109 
L 494 744 
Q 775 591 1075 516 
Q 1375 441 1709 441 
Q 2250 441 2565 725 
Q 2881 1009 2881 1497 
Q 2881 1984 2565 2268 
Q 2250 2553 1709 2553 
Q 1456 2553 1204 2497 
Q 953 2441 691 2322 
L 691 4666 
z
" transform="scale(0.015625)"/>
      </defs>
      <use xlink:href="#DejaVuSans-2212"/>
      <use xlink:href="#DejaVuSans-32" transform="translate(83.789062 0)"/>
      <use xlink:href="#DejaVuSans-2e" transform="translate(147.412109 0)"/>
      <use xlink:href="#DejaVuSans-35" transform="translate(179.199219 0)"/>
     </g>
    </g>
   </g>
   <g id="xtick_2">
    <g id="line2d_3">
     <path d="M 578.314278 909.716782 
L 568.069561 914.701466 
" style="fill: none; stroke: #000000; stroke-width: 0.8; stroke-linecap: square"/>
    </g>
    <g id="text_2">
     <!-- 0.0 -->
     <g transform="translate(557.297014 935.579424) scale(0.1 -0.1)">
      <defs>
       <path id="DejaVuSans-30" d="M 2034 4250 
Q 1547 4250 1301 3770 
Q 1056 3291 1056 2328 
Q 1056 1369 1301 889 
Q 1547 409 2034 409 
Q 2525 409 2770 889 
Q 3016 1369 3016 2328 
Q 3016 3291 2770 3770 
Q 2525 4250 2034 4250 
z
M 2034 4750 
Q 2819 4750 3233 4129 
Q 3647 3509 3647 2328 
Q 3647 1150 3233 529 
Q 2819 -91 2034 -91 
Q 1250 -91 836 529 
Q 422 1150 422 2328 
Q 422 3509 836 4129 
Q 1250 4750 2034 4750 
z
" transform="scale(0.015625)"/>
      </defs>
      <use xlink:href="#DejaVuSans-30"/>
      <use xlink:href="#DejaVuSans-2e" transform="translate(63.623047 0)"/>
      <use xlink:href="#DejaVuSans-30" transform="translate(95.410156 0)"/>
     </g>
    </g>
   </g>
   <g id="xtick_3">
    <g id="line2d_4">
     <path d="M 527.463379 884.254161 
L 517.222214 889.149962 
" style="fill: none; stroke: #000000; stroke-width: 0.8; stroke-linecap: square"/>
    </g>
    <g id="text_3">
     <!-- 2.5 -->
     <g transform="translate(506.505159 909.924148) scale(0.1 -0.1)">
      <use xlink:href="#DejaVuSans-32"/>
      <use xlink:href="#DejaVuSans-2e" transform="translate(63.623047 0)"/>
      <use xlink:href="#DejaVuSans-35" transform="translate(95.410156 0)"/>
     </g>
    </g>
   </g>
   <g id="xtick_4">
    <g id="line2d_5">
     <path d="M 477.514432 859.243176 
L 467.278307 864.05245 
" style="fill: none; stroke: #000000; stroke-width: 0.8; stroke-linecap: square"/>
    </g>
    <g id="text_4">
     <!-- 5.0 -->
     <g transform="translate(456.615228 884.724438) scale(0.1 -0.1)">
      <use xlink:href="#DejaVuSans-35"/>
      <use xlink:href="#DejaVuSans-2e" transform="translate(63.623047 0)"/>
      <use xlink:href="#DejaVuSans-30" transform="translate(95.410156 0)"/>
     </g>
    </g>
   </g>
   <g id="xtick_5">
    <g id="line2d_6">
     <path d="M 428.443651 834.671915 
L 418.213975 839.396936 
" style="fill: none; stroke: #000000; stroke-width: 0.8; stroke-linecap: square"/>
    </g>
    <g id="text_5">
     <!-- 7.5 -->
     <g transform="translate(407.603408 859.968267) scale(0.1 -0.1)">
      <defs>
       <path id="DejaVuSans-37" d="M 525 4666 
L 3525 4666 
L 3525 4397 
L 1831 0 
L 1172 0 
L 2766 4134 
L 525 4134 
L 525 4666 
z
" transform="scale(0.015625)"/>
      </defs>
      <use xlink:href="#DejaVuSans-37"/>
      <use xlink:href="#DejaVuSans-2e" transform="translate(63.623047 0)"/>
      <use xlink:href="#DejaVuSans-35" transform="translate(95.410156 0)"/>
     </g>
    </g>
   </g>
   <g id="xtick_6">
    <g id="line2d_7">
     <path d="M 380.228079 810.528884 
L 370.006185 815.171847 
" style="fill: none; stroke: #000000; stroke-width: 0.8; stroke-linecap: square"/>
    </g>
    <g id="text_6">
     <!-- 10.0 -->
     <g transform="translate(356.265468 835.644028) scale(0.1 -0.1)">
      <defs>
       <path id="DejaVuSans-31" d="M 794 531 
L 1825 531 
L 1825 4091 
L 703 3866 
L 703 4441 
L 1819 4666 
L 2450 4666 
L 2450 531 
L 3481 531 
L 3481 0 
L 794 0 
L 794 531 
z
" transform="scale(0.015625)"/>
      </defs>
      <use xlink:href="#DejaVuSans-31"/>
      <use xlink:href="#DejaVuSans-30" transform="translate(63.623047 0)"/>
      <use xlink:href="#DejaVuSans-2e" transform="translate(127.246094 0)"/>
      <use xlink:href="#DejaVuSans-30" transform="translate(159.033203 0)"/>
     </g>
    </g>
   </g>
   <g id="xtick_7">
    <g id="line2d_8">
     <path d="M 332.845551 786.802984 
L 322.632702 791.366008 
" style="fill: none; stroke: #000000; stroke-width: 0.8; stroke-linecap: square"/>
    </g>
    <g id="text_7">
     <!-- 12.5 -->
     <g transform="translate(308.941721 811.740513) scale(0.1 -0.1)">
      <use xlink:href="#DejaVuSans-31"/>
      <use xlink:href="#DejaVuSans-32" transform="translate(63.623047 0)"/>
      <use xlink:href="#DejaVuSans-2e" transform="translate(127.246094 0)"/>
      <use xlink:href="#DejaVuSans-35" transform="translate(159.033203 0)"/>
     </g>
    </g>
   </g>
   <g id="xtick_8">
    <g id="line2d_9">
     <path d="M 286.274664 763.483498 
L 276.072052 767.96863 
" style="fill: none; stroke: #000000; stroke-width: 0.8; stroke-linecap: square"/>
    </g>
    <g id="text_8">
     <!-- 15.0 -->
     <g transform="translate(262.429493 788.246902) scale(0.1 -0.1)">
      <use xlink:href="#DejaVuSans-31"/>
      <use xlink:href="#DejaVuSans-35" transform="translate(63.623047 0)"/>
      <use xlink:href="#DejaVuSans-2e" transform="translate(127.246094 0)"/>
      <use xlink:href="#DejaVuSans-30" transform="translate(159.033203 0)"/>
     </g>
    </g>
   </g>
   <g id="text_9">
    <!-- X (m) -->
    <g transform="translate(415.633159 881.518553) rotate(-333.374297) scale(0.14 -0.14)">
     <defs>
      <path id="DejaVuSans-58" d="M 403 4666 
L 1081 4666 
L 2241 2931 
L 3406 4666 
L 4084 4666 
L 2584 2425 
L 4184 0 
L 3506 0 
L 2194 1984 
L 872 0 
L 191 0 
L 1856 2491 
L 403 4666 
z
" transform="scale(0.015625)"/>
      <path id="DejaVuSans-20" transform="scale(0.015625)"/>
      <path id="DejaVuSans-28" d="M 1984 4856 
Q 1566 4138 1362 3434 
Q 1159 2731 1159 2009 
Q 1159 1288 1364 580 
Q 1569 -128 1984 -844 
L 1484 -844 
Q 1016 -109 783 600 
Q 550 1309 550 2009 
Q 550 2706 781 3412 
Q 1013 4119 1484 4856 
L 1984 4856 
z
" transform="scale(0.015625)"/>
      <path id="DejaVuSans-6d" d="M 3328 2828 
Q 3544 3216 3844 3400 
Q 4144 3584 4550 3584 
Q 5097 3584 5394 3201 
Q 5691 2819 5691 2113 
L 5691 0 
L 5113 0 
L 5113 2094 
Q 5113 2597 4934 2840 
Q 4756 3084 4391 3084 
Q 3944 3084 3684 2787 
Q 3425 2491 3425 1978 
L 3425 0 
L 2847 0 
L 2847 2094 
Q 2847 2600 2669 2842 
Q 2491 3084 2119 3084 
Q 1678 3084 1418 2786 
Q 1159 2488 1159 1978 
L 1159 0 
L 581 0 
L 581 3500 
L 1159 3500 
L 1159 2956 
Q 1356 3278 1631 3431 
Q 1906 3584 2284 3584 
Q 2666 3584 2933 3390 
Q 3200 3197 3328 2828 
z
" transform="scale(0.015625)"/>
      <path id="DejaVuSans-29" d="M 513 4856 
L 1013 4856 
Q 1481 4119 1714 3412 
Q 1947 2706 1947 2009 
Q 1947 1309 1714 600 
Q 1481 -109 1013 -844 
L 513 -844 
Q 928 -128 1133 580 
Q 1338 1288 1338 2009 
Q 1338 2731 1133 3434 
Q 928 4138 513 4856 
z
" transform="scale(0.015625)"/>
     </defs>
     <use xlink:href="#DejaVuSans-58"/>
     <use xlink:href="#DejaVuSans-20" transform="translate(68.505859 0)"/>
     <use xlink:href="#DejaVuSans-28" transform="translate(100.292969 0)"/>
     <use xlink:href="#DejaVuSans-6d" transform="translate(139.306641 0)"/>
     <use xlink:href="#DejaVuSans-29" transform="translate(236.71875 0)"/>
    </g>
   </g>
  </g>
  <g id="axis3d_2">
   <g id="line2d_10">
    <path d="M 1058.369247 755.391958 
L 661.063784 954.570688 
" style="fill: none; stroke: #000000; stroke-width: 0.8; stroke-linecap: square"/>
   </g>
   <g id="xtick_9">
    <g id="line2d_11">
     <path d="M 1017.775191 772.535569 
L 1027.981936 777.050857 
" style="fill: none; stroke: #000000; stroke-width: 0.8; stroke-linecap: square"/>
    </g>
    <g id="text_10">
     <!-- −2 -->
     <g transform="translate(1023.13933 797.366511) scale(0.1 -0.1)">
      <use xlink:href="#DejaVuSans-2212"/>
      <use xlink:href="#DejaVuSans-32" transform="translate(83.789062 0)"/>
     </g>
    </g>
   </g>
   <g id="xtick_10">
    <g id="line2d_12">
     <path d="M 957.582845 802.675741 
L 967.801899 807.292168 
" style="fill: none; stroke: #000000; stroke-width: 0.8; stroke-linecap: square"/>
    </g>
    <g id="text_11">
     <!-- 0 -->
     <g transform="translate(967.212038 827.732045) scale(0.1 -0.1)">
      <use xlink:href="#DejaVuSans-30"/>
     </g>
    </g>
   </g>
   <g id="xtick_11">
    <g id="line2d_13">
     <path d="M 896.035762 833.494273 
L 906.265092 838.215275 
" style="fill: none; stroke: #000000; stroke-width: 0.8; stroke-linecap: square"/>
    </g>
    <g id="text_12">
     <!-- 2 -->
     <g transform="translate(905.740343 858.781775) scale(0.1 -0.1)">
      <use xlink:href="#DejaVuSans-32"/>
     </g>
    </g>
   </g>
   <g id="xtick_12">
    <g id="line2d_14">
     <path d="M 833.087685 865.014326 
L 843.32511 869.843497 
" style="fill: none; stroke: #000000; stroke-width: 0.8; stroke-linecap: square"/>
    </g>
    <g id="text_13">
     <!-- 4 -->
     <g transform="translate(842.867784 890.53909) scale(0.1 -0.1)">
      <defs>
       <path id="DejaVuSans-34" d="M 2419 4116 
L 825 1625 
L 2419 1625 
L 2419 4116 
z
M 2253 4666 
L 3047 4666 
L 3047 1625 
L 3713 1625 
L 3713 1100 
L 3047 1100 
L 3047 0 
L 2419 0 
L 2419 1100 
L 313 1100 
L 313 1709 
L 2253 4666 
z
" transform="scale(0.015625)"/>
      </defs>
      <use xlink:href="#DejaVuSans-34"/>
     </g>
    </g>
   </g>
   <g id="xtick_13">
    <g id="line2d_15">
     <path d="M 768.690226 897.260129 
L 778.933405 902.20123 
" style="fill: none; stroke: #000000; stroke-width: 0.8; stroke-linecap: square"/>
    </g>
    <g id="text_14">
     <!-- 6 -->
     <g transform="translate(778.545923 923.028455) scale(0.1 -0.1)">
      <defs>
       <path id="DejaVuSans-36" d="M 2113 2584 
Q 1688 2584 1439 2293 
Q 1191 2003 1191 1497 
Q 1191 994 1439 701 
Q 1688 409 2113 409 
Q 2538 409 2786 701 
Q 3034 994 3034 1497 
Q 3034 2003 2786 2293 
Q 2538 2584 2113 2584 
z
M 3366 4563 
L 3366 3988 
Q 3128 4100 2886 4159 
Q 2644 4219 2406 4219 
Q 1781 4219 1451 3797 
Q 1122 3375 1075 2522 
Q 1259 2794 1537 2939 
Q 1816 3084 2150 3084 
Q 2853 3084 3261 2657 
Q 3669 2231 3669 1497 
Q 3669 778 3244 343 
Q 2819 -91 2113 -91 
Q 1303 -91 875 529 
Q 447 1150 447 2328 
Q 447 3434 972 4092 
Q 1497 4750 2381 4750 
Q 2619 4750 2861 4703 
Q 3103 4656 3366 4563 
z
" transform="scale(0.015625)"/>
      </defs>
      <use xlink:href="#DejaVuSans-36"/>
     </g>
    </g>
   </g>
   <g id="xtick_14">
    <g id="line2d_16">
     <path d="M 702.792746 930.25704 
L 713.039166 935.314007 
" style="fill: none; stroke: #000000; stroke-width: 0.8; stroke-linecap: square"/>
    </g>
    <g id="text_15">
     <!-- 8 -->
     <g transform="translate(712.724065 956.275479) scale(0.1 -0.1)">
      <defs>
       <path id="DejaVuSans-38" d="M 2034 2216 
Q 1584 2216 1326 1975 
Q 1069 1734 1069 1313 
Q 1069 891 1326 650 
Q 1584 409 2034 409 
Q 2484 409 2743 651 
Q 3003 894 3003 1313 
Q 3003 1734 2745 1975 
Q 2488 2216 2034 2216 
z
M 1403 2484 
Q 997 2584 770 2862 
Q 544 3141 544 3541 
Q 544 4100 942 4425 
Q 1341 4750 2034 4750 
Q 2731 4750 3128 4425 
Q 3525 4100 3525 3541 
Q 3525 3141 3298 2862 
Q 3072 2584 2669 2484 
Q 3125 2378 3379 2068 
Q 3634 1759 3634 1313 
Q 3634 634 3220 271 
Q 2806 -91 2034 -91 
Q 1263 -91 848 271 
Q 434 634 434 1313 
Q 434 1759 690 2068 
Q 947 2378 1403 2484 
z
M 1172 3481 
Q 1172 3119 1398 2916 
Q 1625 2713 2034 2713 
Q 2441 2713 2670 2916 
Q 2900 3119 2900 3481 
Q 2900 3844 2670 4047 
Q 2441 4250 2034 4250 
Q 1625 4250 1398 4047 
Q 1172 3844 1172 3481 
z
" transform="scale(0.015625)"/>
      </defs>
      <use xlink:href="#DejaVuSans-38"/>
     </g>
    </g>
   </g>
   <g id="text_16">
    <!-- Y (m) -->
    <g transform="translate(872.45169 898.584982) rotate(-26.625703) scale(0.14 -0.14)">
     <defs>
      <path id="DejaVuSans-59" d="M -13 4666 
L 666 4666 
L 1959 2747 
L 3244 4666 
L 3922 4666 
L 2272 2222 
L 2272 0 
L 1638 0 
L 1638 2222 
L -13 4666 
z
" transform="scale(0.015625)"/>
     </defs>
     <use xlink:href="#DejaVuSans-59"/>
     <use xlink:href="#DejaVuSans-20" transform="translate(61.083984 0)"/>
     <use xlink:href="#DejaVuSans-28" transform="translate(92.871094 0)"/>
     <use xlink:href="#DejaVuSans-6d" transform="translate(131.884766 0)"/>
     <use xlink:href="#DejaVuSans-29" transform="translate(229.296875 0)"/>
    </g>
   </g>
  </g>
  <g id="axis3d_3">
   <g id="line2d_17">
    <path d="M 1058.369247 755.391958 
L 1077.283147 234.039381 
" style="fill: none; stroke: #000000; stroke-width: 0.8; stroke-linecap: square"/>
   </g>
   <g id="xtick_15">
    <g id="line2d_18">
     <path d="M 1054.973654 753.909146 
L 1065.171676 758.362492 
" style="fill: none; stroke: #000000; stroke-width: 0.8; stroke-linecap: square"/>
    </g>
    <g id="text_17">
     <!-- 0.00 -->
     <g transform="translate(1065.385442 762.990395) scale(0.1 -0.1)">
      <use xlink:href="#DejaVuSans-30"/>
      <use xlink:href="#DejaVuSans-2e" transform="translate(63.623047 0)"/>
      <use xlink:href="#DejaVuSans-30" transform="translate(95.410156 0)"/>
      <use xlink:href="#DejaVuSans-30" transform="translate(159.033203 0)"/>
     </g>
    </g>
   </g>
   <g id="xtick_16">
    <g id="line2d_19">
     <path d="M 1057.222703 691.372322 
L 1067.482793 695.747007 
" style="fill: none; stroke: #000000; stroke-width: 0.8; stroke-linecap: square"/>
    </g>
    <g id="text_18">
     <!-- 0.25 -->
     <g transform="translate(1067.758817 700.427371) scale(0.1 -0.1)">
      <use xlink:href="#DejaVuSans-30"/>
      <use xlink:href="#DejaVuSans-2e" transform="translate(63.623047 0)"/>
      <use xlink:href="#DejaVuSans-32" transform="translate(95.410156 0)"/>
      <use xlink:href="#DejaVuSans-35" transform="translate(159.033203 0)"/>
     </g>
    </g>
   </g>
   <g id="xtick_17">
    <g id="line2d_20">
     <path d="M 1059.497581 628.117283 
L 1069.820497 632.411199 
" style="fill: none; stroke: #000000; stroke-width: 0.8; stroke-linecap: square"/>
    </g>
    <g id="text_19">
     <!-- 0.50 -->
     <g transform="translate(1070.159463 637.14543) scale(0.1 -0.1)">
      <use xlink:href="#DejaVuSans-30"/>
      <use xlink:href="#DejaVuSans-2e" transform="translate(63.623047 0)"/>
      <use xlink:href="#DejaVuSans-35" transform="translate(95.410156 0)"/>
      <use xlink:href="#DejaVuSans-30" transform="translate(159.033203 0)"/>
     </g>
    </g>
   </g>
   <g id="xtick_18">
    <g id="line2d_21">
     <path d="M 1061.798737 564.131584 
L 1072.185249 568.342567 
" style="fill: none; stroke: #000000; stroke-width: 0.8; stroke-linecap: square"/>
    </g>
    <g id="text_20">
     <!-- 0.75 -->
     <g transform="translate(1072.587856 573.132108) scale(0.1 -0.1)">
      <use xlink:href="#DejaVuSans-30"/>
      <use xlink:href="#DejaVuSans-2e" transform="translate(63.623047 0)"/>
      <use xlink:href="#DejaVuSans-37" transform="translate(95.410156 0)"/>
      <use xlink:href="#DejaVuSans-35" transform="translate(159.033203 0)"/>
     </g>
    </g>
   </g>
   <g id="xtick_19">
    <g id="line2d_22">
     <path d="M 1064.126628 499.402493 
L 1074.577522 503.528318 
" style="fill: none; stroke: #000000; stroke-width: 0.8; stroke-linecap: square"/>
    </g>
    <g id="text_21">
     <!-- 1.00 -->
     <g transform="translate(1075.044477 508.374654) scale(0.1 -0.1)">
      <use xlink:href="#DejaVuSans-31"/>
      <use xlink:href="#DejaVuSans-2e" transform="translate(63.623047 0)"/>
      <use xlink:href="#DejaVuSans-30" transform="translate(95.410156 0)"/>
      <use xlink:href="#DejaVuSans-30" transform="translate(159.033203 0)"/>
     </g>
    </g>
   </g>
   <g id="xtick_20">
    <g id="line2d_23">
     <path d="M 1066.481723 433.916978 
L 1076.997798 437.955359 
" style="fill: none; stroke: #000000; stroke-width: 0.8; stroke-linecap: square"/>
    </g>
    <g id="text_22">
     <!-- 1.25 -->
     <g transform="translate(1077.529823 442.860015) scale(0.1 -0.1)">
      <use xlink:href="#DejaVuSans-31"/>
      <use xlink:href="#DejaVuSans-2e" transform="translate(63.623047 0)"/>
      <use xlink:href="#DejaVuSans-32" transform="translate(95.410156 0)"/>
      <use xlink:href="#DejaVuSans-35" transform="translate(159.033203 0)"/>
     </g>
    </g>
   </g>
   <g id="xtick_21">
    <g id="line2d_24">
     <path d="M 1068.864501 367.661702 
L 1079.446573 371.61029 
" style="fill: none; stroke: #000000; stroke-width: 0.8; stroke-linecap: square"/>
    </g>
    <g id="text_23">
     <!-- 1.50 -->
     <g transform="translate(1080.0444 376.574833) scale(0.1 -0.1)">
      <use xlink:href="#DejaVuSans-31"/>
      <use xlink:href="#DejaVuSans-2e" transform="translate(63.623047 0)"/>
      <use xlink:href="#DejaVuSans-35" transform="translate(95.410156 0)"/>
      <use xlink:href="#DejaVuSans-30" transform="translate(159.033203 0)"/>
     </g>
    </g>
   </g>
   <g id="xtick_22">
    <g id="line2d_25">
     <path d="M 1071.275453 300.623012 
L 1081.924352 304.479393 
" style="fill: none; stroke: #000000; stroke-width: 0.8; stroke-linecap: square"/>
    </g>
    <g id="text_24">
     <!-- 1.75 -->
     <g transform="translate(1082.588727 309.505434) scale(0.1 -0.1)">
      <use xlink:href="#DejaVuSans-31"/>
      <use xlink:href="#DejaVuSans-2e" transform="translate(63.623047 0)"/>
      <use xlink:href="#DejaVuSans-37" transform="translate(95.410156 0)"/>
      <use xlink:href="#DejaVuSans-35" transform="translate(159.033203 0)"/>
     </g>
    </g>
   </g>
   <g id="xtick_23">
    <g id="line2d_26">
     <path d="M 1073.715082 232.786932 
L 1084.431655 236.548624 
" style="fill: none; stroke: #000000; stroke-width: 0.8; stroke-linecap: square"/>
    </g>
    <g id="text_25">
     <!-- 2.00 -->
     <g transform="translate(1085.163334 241.637818) scale(0.1 -0.1)">
      <use xlink:href="#DejaVuSans-32"/>
      <use xlink:href="#DejaVuSans-2e" transform="translate(63.623047 0)"/>
      <use xlink:href="#DejaVuSans-30" transform="translate(95.410156 0)"/>
      <use xlink:href="#DejaVuSans-30" transform="translate(159.033203 0)"/>
     </g>
    </g>
   </g>
   <g id="text_26">
    <!-- Z (m) -->
    <g transform="translate(1111.138841 520.203897) rotate(-87.922305) scale(0.14 -0.14)">
     <defs>
      <path id="DejaVuSans-5a" d="M 359 4666 
L 4025 4666 
L 4025 4184 
L 1075 531 
L 4097 531 
L 4097 0 
L 288 0 
L 288 481 
L 3238 4134 
L 359 4134 
L 359 4666 
z
" transform="scale(0.015625)"/>
     </defs>
     <use xlink:href="#DejaVuSans-5a"/>
     <use xlink:href="#DejaVuSans-20" transform="translate(68.505859 0)"/>
     <use xlink:href="#DejaVuSans-28" transform="translate(100.292969 0)"/>
     <use xlink:href="#DejaVuSans-6d" transform="translate(139.306641 0)"/>
     <use xlink:href="#DejaVuSans-29" transform="translate(236.71875 0)"/>
    </g>
   </g>
  </g>
  <g id="axes_1">
   <g id="line2d_27">
    <path d="M 871.141766 764.528634 
L 871.109169 764.650284 
L 871.284226 764.354263 
L 871.635036 764.36504 
L 871.665809 764.197693 
L 871.623935 764.330212 
L 871.885206 764.521534 
L 871.876491 764.434966 
L 871.773265 764.292148 
L 871.753612 764.335265 
L 871.250065 764.427504 
L 871.506433 764.018572 
L 871.247676 764.165538 
L 871.322188 764.403138 
L 871.136938 764.0513 
L 870.85093 764.1341 
L 870.884332 764.137961 
L 870.728275 764.145349 
L 871.041399 764.090955 
L 870.64257 764.045298 
L 870.601862 763.811669 
L 870.63489 763.889085 
L 870.55258 763.875494 
L 870.522884 763.558106 
L 870.596645 763.549574 
L 870.796692 763.564853 
L 870.368889 763.396451 
L 870.557896 763.305072 
L 869.862085 763.374957 
L 870.002649 763.144671 
L 869.953861 763.132731 
L 869.694323 763.012506 
L 869.989043 762.874711 
L 869.898668 762.673862 
L 869.685004 762.797169 
L 869.628685 762.675002 
L 869.629566 762.757517 
L 869.542636 762.850558 
L 869.615506 763.074508 
L 869.861145 763.189217 
L 869.835915 763.016821 
L 868.513236 763.164613 
L 875.059394 765.0521 
L 875.297695 765.315678 
L 875.160213 764.960156 
L 875.272139 764.87672 
L 875.306206 764.951457 
L 875.43173 765.109926 
L 875.558056 765.044933 
L 875.53134 765.00765 
L 875.696753 765.288469 
L 876.183866 764.911078 
L 875.865691 764.910337 
L 876.281562 765.201417 
L 876.737824 765.323543 
L 876.815756 764.993819 
L 876.448488 765.353649 
L 875.774233 765.55647 
L 877.126892 764.988204 
L 879.037846 765.903413 
L 879.595911 762.174401 
L 878.768174 756.100407 
L 877.516136 749.71336 
L 876.290227 742.420298 
L 876.322829 741.706037 
L 876.680048 740.312305 
L 877.150415 736.497883 
L 878.04378 726.080751 
L 878.676364 711.631411 
L 878.910295 693.624367 
L 879.063005 667.377897 
L 879.594091 652.443229 
L 880.46679 631.928189 
L 881.0492 617.78608 
L 881.212269 610.966655 
L 881.887124 604.024435 
L 882.509922 585.787087 
L 882.845742 579.567269 
L 882.447002 573.962529 
L 883.386658 568.561054 
L 883.347093 563.216727 
L 883.52278 557.108888 
L 883.127044 550.854714 
L 883.12072 545.452306 
L 882.86174 533.407804 
L 883.06356 516.231624 
L 883.6476 510.440018 
L 884.702429 504.429738 
L 884.747497 492.421113 
L 884.351814 487.610401 
L 884.197653 483.126883 
L 883.593521 478.082942 
L 883.587137 461.681181 
L 883.383731 454.857181 
L 883.617009 448.837286 
L 883.399585 444.374767 
L 883.689677 438.552852 
L 885.089984 433.568226 
L 885.425667 429.286303 
L 885.031809 424.028213 
L 885.039735 411.716308 
L 884.807861 405.305895 
L 885.239419 400.119369 
L 884.08767 395.478203 
L 884.213457 389.731473 
L 883.953057 380.220352 
L 884.101445 375.318413 
L 884.654519 371.038384 
L 884.999436 364.899448 
L 884.837461 357.182161 
L 885.111242 353.415355 
L 886.349194 353.242872 
L 886.911303 350.240505 
L 887.253637 349.029679 
L 887.115624 346.899903 
L 887.068421 350.544893 
L 886.765252 351.797199 
L 886.423832 355.314724 
L 885.98362 356.949227 
L 886.27285 356.366546 
L 886.740877 355.811499 
L 887.422832 354.82963 
L 887.241576 354.660631 
L 888.310009 354.185415 
L 888.271347 353.706472 
L 888.607601 355.987513 
L 888.206972 356.026412 
L 888.225517 358.753694 
L 888.404298 357.680845 
L 888.204347 355.945087 
L 888.39886 354.532287 
L 888.432771 355.036082 
L 888.723163 355.31351 
L 888.41071 356.113304 
L 888.743168 358.691767 
L 888.919489 361.482181 
L 889.334097 365.024065 
L 890.369786 364.482551 
L 890.103609 363.60277 
L 888.831432 362.604429 
L 888.119652 363.41598 
L 885.816163 365.013178 
L 885.442751 362.062543 
L 884.672096 362.717281 
L 884.283063 365.393404 
L 884.120538 363.931191 
L 884.274677 366.923859 
L 883.917295 370.283524 
L 884.024424 376.943562 
L 883.5473 373.350415 
L 883.061051 367.926096 
L 882.550737 369.202389 
L 882.286055 368.310761 
L 882.156449 371.046811 
L 881.668167 373.829822 
L 881.283337 374.733735 
L 881.043026 374.551442 
L 881.095238 376.617859 
L 880.788519 374.791851 
L 881.273999 375.187236 
L 881.110826 376.295471 
L 880.921987 375.554786 
L 880.123306 374.624205 
L 879.459824 370.494063 
L 878.81989 370.377602 
L 878.279065 372.508716 
L 877.627493 373.076276 
L 877.140372 379.625863 
L 877.144501 379.296426 
L 876.253679 377.417381 
L 876.19125 375.993045 
L 875.922705 378.230318 
L 875.622513 379.386178 
L 875.411099 380.724117 
L 875.2608 376.863517 
L 874.012128 375.400998 
L 873.201513 377.694813 
L 872.671569 384.115685 
L 872.643539 380.702706 
L 871.831107 379.952496 
L 871.982816 380.722991 
L 871.362164 384.417645 
L 870.428346 382.567561 
L 869.561083 383.052801 
L 868.787877 384.524571 
L 868.194255 380.387615 
L 867.509806 379.886643 
L 866.504459 379.902202 
L 866.312279 382.371427 
L 865.780057 387.744728 
L 865.602442 387.48357 
L 864.382003 389.608472 
L 863.467131 391.765922 
L 862.564302 392.415183 
L 862.17713 393.618003 
L 861.334445 392.793973 
L 860.411092 390.367029 
L 859.225291 394.115122 
L 858.811276 391.329092 
L 857.733287 387.866315 
L 856.789584 388.894432 
L 855.956431 387.745891 
L 854.76987 385.862247 
L 854.399099 392.348877 
L 853.507994 389.367811 
L 851.961225 390.075701 
L 851.509951 391.863463 
L 849.996228 391.378358 
L 849.98404 393.891918 
L 849.660735 393.025359 
L 849.26794 392.753704 
L 848.770596 394.716457 
L 848.715034 393.634691 
L 847.713328 396.286233 
L 847.420455 395.309867 
L 846.501168 394.410752 
L 845.151505 393.910761 
L 844.216444 396.670629 
L 844.19209 396.03452 
L 843.624356 398.44353 
L 842.966593 397.428732 
L 842.190643 395.389632 
L 841.880806 393.924726 
L 841.43948 396.561913 
L 839.931684 398.012351 
L 839.496813 400.231773 
L 838.853684 402.893936 
L 838.341199 397.458933 
L 837.766005 396.623984 
L 837.910661 399.229299 
L 837.181531 399.022154 
L 834.740657 399.315044 
L 834.609211 400.390968 
L 834.704066 397.885939 
L 835.921064 400.167797 
L 836.761132 401.383736 
L 837.09359 403.139143 
L 838.915157 404.213694 
L 839.675547 402.596604 
L 839.722813 401.712301 
L 839.450637 399.462696 
L 839.588501 396.99198 
L 839.255574 399.009318 
L 839.010953 397.400651 
L 839.417398 398.839036 
L 839.054803 400.593078 
L 838.069585 400.841394 
L 838.062502 400.00388 
L 838.126102 401.226423 
L 838.381681 398.102395 
L 838.900099 397.313882 
L 838.351425 399.349609 
L 838.482198 401.363039 
L 837.747595 404.442162 
L 837.640754 399.002381 
L 837.869436 398.294706 
L 837.694082 401.470895 
L 837.55998 401.461139 
L 838.146578 397.910925 
L 838.693036 395.979064 
L 838.411244 396.630987 
L 838.541081 398.319721 
L 838.462259 401.39498 
L 838.183113 401.596474 
L 838.041249 402.562821 
L 837.90202 405.294745 
L 837.7911 401.52359 
L 837.87661 402.348267 
L 838.04596 398.894143 
L 837.610008 400.622872 
L 837.4722 399.266162 
L 837.778491 397.847317 
L 837.92507 398.978003 
L 838.194638 398.507199 
L 838.373954 397.017121 
L 838.248565 400.517454 
L 838.568251 400.017306 
L 838.343871 398.740401 
L 838.055251 403.45232 
L 837.460231 402.87018 
L 836.766333 402.387292 
L 835.884169 399.220623 
L 835.477546 396.185773 
L 834.656999 395.877284 
L 833.989983 397.40353 
L 833.546996 397.046433 
L 833.039442 397.514034 
L 832.669089 397.368189 
L 831.725632 395.758527 
L 831.000399 395.373703 
L 830.475103 394.395095 
L 830.179111 398.387198 
L 829.376879 397.671638 
L 829.414239 396.888319 
L 828.930508 398.865882 
L 828.791425 397.472537 
L 828.243866 398.885172 
L 827.903506 397.892024 
L 827.538454 402.290447 
L 827.163305 401.064512 
L 826.831789 396.817048 
L 826.805238 392.64882 
L 826.437042 392.323372 
L 825.572786 395.469462 
L 825.530137 394.080779 
L 824.645919 393.305319 
L 824.57213 394.250366 
L 823.816731 399.633205 
L 823.412288 396.888127 
L 822.985868 397.427959 
L 822.852917 394.219474 
L 822.269879 392.232557 
L 822.045056 393.993664 
L 821.666292 393.023393 
L 821.578319 391.933384 
L 821.132052 392.22646 
L 820.644571 391.769371 
L 820.15712 395.485242 
L 819.544039 396.144516 
L 819.355517 391.790778 
L 818.878906 389.887581 
L 818.297708 391.921838 
L 817.700345 391.331309 
L 817.010048 391.870283 
L 816.005229 393.140752 
L 815.313002 392.555509 
L 814.391116 392.899393 
L 814.232084 394.751281 
L 813.886374 391.090335 
L 813.434868 391.789532 
L 813.308461 392.773261 
L 812.789532 388.832228 
L 812.163492 385.390254 
L 811.465839 384.96608 
L 810.830864 386.55822 
L 809.892188 387.480535 
L 809.314834 388.391041 
L 808.395858 390.839369 
L 808.289169 389.011538 
L 807.82319 388.30968 
L 807.620059 391.850029 
L 807.462443 388.604136 
L 807.555483 389.582064 
L 807.09404 391.815912 
L 806.592788 388.996884 
L 806.092777 388.345516 
L 805.455518 388.10535 
L 804.773741 389.929601 
L 803.95047 387.912925 
L 803.736863 386.303937 
L 803.520477 386.642702 
L 803.068482 385.628835 
L 802.564444 388.595152 
L 802.206779 386.553847 
L 801.835337 385.585996 
L 801.619332 386.680048 
L 801.350462 384.3962 
L 801.581891 385.759614 
L 802.20799 385.216359 
L 802.233933 385.406159 
L 802.668152 384.950781 
L 802.703252 386.439022 
L 802.706348 385.90337 
L 802.508355 388.845121 
L 802.318346 388.090755 
L 802.259132 389.840987 
L 801.798462 386.943153 
L 801.792044 383.994695 
L 801.54536 383.175485 
L 801.593788 381.002596 
L 801.539678 381.307563 
L 801.329711 382.593099 
L 800.981139 386.720891 
L 800.816717 387.510174 
L 800.845161 385.527062 
L 800.648396 382.987067 
L 800.509253 378.766445 
L 800.478484 379.786381 
L 799.752625 381.980511 
L 799.757343 382.400247 
L 799.008007 389.035191 
L 798.920799 388.027231 
L 798.542369 386.651564 
L 798.835585 385.575935 
L 798.934972 386.346328 
L 798.59055 385.606844 
L 798.375865 387.486664 
L 798.81423 385.145879 
L 798.616369 384.683886 
L 798.638352 382.703174 
L 798.540423 382.736475 
L 798.807955 384.485798 
L 799.046223 379.285209 
L 799.088703 382.218985 
L 798.682196 386.599378 
L 797.955716 386.674696 
L 797.817001 384.13664 
L 797.421877 380.594022 
L 797.370785 381.176012 
L 797.128315 379.872025 
L 796.841534 381.633366 
L 796.355816 383.569254 
L 797.300777 381.905181 
L 798.076554 381.441898 
L 799.067443 383.46187 
L 800.750189 385.256506 
L 803.244507 385.825987 
L 803.982509 382.408459 
L 804.816993 376.521215 
L 804.620674 378.473213 
L 804.922152 379.693186 
L 804.644364 380.908164 
L 805.019097 381.584438 
L 805.518159 380.341706 
L 806.658755 378.691912 
L 807.386991 377.18697 
L 808.863898 377.644602 
L 808.989476 376.294007 
L 809.2651 379.141504 
L 811.239758 378.604558 
L 810.841954 377.746023 
L 810.331455 374.450739 
L 808.437818 374.8296 
L 807.055672 378.111029 
L 806.16534 378.184238 
L 804.935118 377.969117 
L 804.581424 376.781782 
L 804.602598 379.115874 
L 804.29563 379.577609 
L 805.243992 377.145334 
L 805.448216 375.981624 
L 805.459155 376.958659 
L 805.676702 378.39365 
L 805.297852 382.766337 
L 805.303664 382.03237 
L 805.479514 376.845744 
L 804.790455 377.57728 
L 804.058222 379.250255 
L 803.987515 377.901293 
L 803.772247 378.264495 
L 803.551052 377.170266 
L 804.245107 378.840906 
L 804.277502 377.633244 
L 805.017892 380.440978 
L 805.468198 378.524732 
L 806.300636 379.670862 
L 806.840984 378.782412 
L 807.231225 375.559181 
L 807.425048 376.09429 
L 807.86672 376.38499 
L 807.914434 377.79936 
L 808.296304 379.443346 
L 808.661216 377.247906 
L 809.191144 380.89407 
L 810.186621 380.825246 
L 810.353236 381.619381 
L 810.686426 381.852581 
L 810.985104 377.50943 
L 811.494381 381.376274 
L 811.618145 381.276956 
L 811.373772 384.360772 
L 810.952385 384.573798 
L 810.552 383.625336 
L 810.363734 382.639833 
L 810.30532 383.934443 
L 810.382619 378.27779 
L 810.248411 377.407843 
L 810.461522 377.965944 
L 810.369289 379.340088 
L 810.810487 377.300847 
L 810.877823 379.400638 
L 811.027296 378.870185 
L 811.158531 379.246904 
L 811.120417 381.869397 
L 810.911215 380.560903 
L 810.778992 377.121102 
L 811.50844 379.320166 
L 810.575009 380.098705 
L 810.87527 380.457362 
L 810.783817 378.540644 
L 811.338115 379.626136 
L 812.104232 379.335628 
L 813.827262 380.111456 
L 814.817982 377.974806 
L 816.359505 378.063574 
L 816.595932 376.17265 
L 817.510732 374.721461 
L 818.460084 373.862258 
L 818.962167 374.64825 
L 819.190806 378.058062 
L 819.971848 376.851479 
L 821.217941 376.862544 
L 821.773549 375.941339 
L 821.752395 372.712289 
L 823.45313 371.753464 
L 823.454264 374.092106 
L 824.189671 375.990223 
L 824.706336 376.825793 
L 825.635546 372.970649 
L 826.644966 372.010121 
L 827.532132 373.193796 
L 828.119527 374.180044 
L 828.356569 374.25401 
L 829.027799 375.869511 
L 829.741697 374.964863 
L 830.450708 376.855413 
L 830.911426 372.723924 
L 831.358163 367.353366 
L 832.37061 366.271621 
L 832.16272 368.218211 
L 833.753557 368.225459 
L 834.910038 368.4091 
L 835.622139 370.017279 
L 836.235364 368.585658 
L 837.982933 367.445177 
L 839.013198 363.757877 
L 839.782558 364.712924 
L 839.727126 365.737407 
L 841.50891 367.403465 
L 841.634599 368.469034 
L 841.591248 370.138509 
L 840.196469 372.176832 
L 839.552685 370.883268 
L 838.569389 371.180137 
L 837.396343 371.769828 
L 837.127531 369.399481 
L 836.87809 370.31588 
L 836.715272 369.573392 
L 837.344606 369.401209 
L 837.848814 362.8484 
L 837.961986 363.533898 
L 837.949072 368.256082 
L 837.418269 372.951731 
L 837.742555 373.177023 
L 837.653608 369.471754 
L 837.194977 367.123314 
L 837.770025 363.894528 
L 838.494306 363.386054 
L 839.001938 366.330691 
L 840.025801 367.671313 
L 839.809826 367.555094 
L 840.461391 368.051555 
L 840.004934 367.467452 
L 840.126297 367.140064 
L 840.858758 362.964627 
L 841.952699 364.709888 
L 842.327926 367.527907 
L 842.493539 370.166754 
L 843.779914 371.395606 
L 844.115708 369.561274 
L 844.100727 371.032908 
L 844.373233 366.759697 
L 844.149583 359.555459 
L 844.194042 363.060674 
L 843.998614 365.695573 
L 844.465553 363.974912 
L 844.76456 365.963469 
L 844.652685 366.07601 
L 844.594123 366.898741 
L 845.308564 363.137886 
L 844.404601 361.21404 
L 844.97819 362.12259 
L 844.659119 366.78993 
L 845.546871 366.898008 
L 846.478859 365.069185 
L 847.564533 363.333179 
L 848.399631 362.372523 
L 848.946126 362.776447 
L 849.938441 368.807075 
L 850.402481 370.314771 
L 850.934942 369.485851 
L 851.532965 363.606158 
L 851.753466 365.658036 
L 852.298051 366.325993 
L 852.964405 365.439427 
L 853.403956 366.597531 
L 853.627511 362.656463 
L 854.313821 362.358476 
L 854.810414 365.553399 
L 855.093676 364.559728 
L 856.052095 366.528257 
L 856.010191 370.330889 
L 857.149021 366.752013 
L 856.967893 368.926473 
L 857.373795 367.949974 
L 858.041363 365.052658 
L 858.324611 366.296704 
L 858.18124 366.466011 
L 859.191597 370.894412 
L 859.367718 370.534835 
L 859.261097 364.317228 
L 859.065154 370.519148 
L 859.245036 370.152451 
L 860.216061 364.329512 
L 860.774792 367.475579 
L 861.132609 368.130275 
L 861.289742 365.799457 
L 861.094637 365.182718 
L 861.094765 366.426677 
L 860.958059 368.981506 
L 860.997679 367.794586 
L 861.692191 366.443604 
L 861.877056 367.666519 
L 862.012066 365.366563 
L 862.3547 368.664463 
L 861.963061 367.869691 
L 861.848421 367.888604 
L 861.504449 368.324778 
L 860.757197 366.848787 
L 859.71543 363.494767 
L 859.486166 365.711275 
L 859.110962 365.872137 
L 858.337597 367.318344 
L 858.387257 368.761054 
L 858.345719 368.503772 
L 858.262125 367.785228 
L 857.850037 365.094726 
L 857.811824 365.152712 
L 857.43537 368.020397 
L 856.842529 365.399777 
L 856.408145 365.934648 
L 856.306192 366.245132 
L 855.720367 366.055675 
L 855.637373 363.767344 
L 855.361411 366.590455 
L 855.647029 366.435492 
L 855.921867 365.259973 
L 855.621185 364.362717 
L 856.18081 368.050069 
L 856.410876 367.358714 
L 856.420185 368.394606 
L 856.557966 369.319375 
L 856.423753 369.105618 
L 856.217227 369.727505 
L 856.278617 369.622831 
L 856.361423 367.63232 
L 856.752633 363.700862 
L 856.497469 366.350676 
L 856.633682 367.248523 
L 857.107039 369.458281 
L 856.401947 373.192378 
L 856.971068 371.313995 
L 858.110879 370.533465 
L 858.394228 367.805692 
L 858.399465 364.594299 
L 858.454321 369.04494 
L 858.305119 365.828353 
L 857.803821 367.233374 
L 857.639123 366.998861 
L 857.00864 368.262698 
L 856.549075 369.883029 
L 856.577207 370.217872 
L 857.208754 368.281669 
L 857.594822 368.453176 
L 858.217384 365.491219 
L 857.633352 367.737607 
L 858.122708 369.313837 
L 858.286008 366.814652 
L 858.323279 370.080082 
L 857.877789 367.962357 
L 857.655504 368.304985 
L 857.648192 369.37955 
L 857.071057 368.674639 
L 856.560482 366.993879 
L 855.941795 365.363236 
L 855.105293 364.156297 
L 853.855842 367.534616 
L 853.296436 368.371243 
L 852.674059 366.289192 
L 851.56088 366.095154 
L 851.79538 363.529593 
L 851.289777 365.560184 
L 851.618272 364.113591 
L 850.859187 365.326049 
L 850.462667 362.852238 
L 850.222353 363.615818 
L 848.411873 364.706974 
L 847.955315 368.25299 
L 848.211531 368.410241 
L 848.760869 366.102589 
L 849.273865 360.986186 
L 849.410329 362.383337 
L 849.380853 365.866433 
L 849.174577 365.7224 
L 848.90884 363.606966 
L 848.893472 364.325236 
L 848.358932 363.645179 
L 848.615482 361.316435 
L 848.270776 360.979411 
L 848.37262 365.16382 
L 848.42097 362.737958 
L 848.795455 362.679543 
L 848.143213 361.771475 
L 847.466245 364.033372 
L 847.320696 362.866514 
L 848.150463 365.932874 
L 848.760225 366.606795 
L 849.239517 368.717442 
L 849.830029 369.753061 
L 850.242956 366.964863 
L 850.658353 368.829088 
L 851.344654 367.930934 
L 851.614204 365.378055 
L 851.679965 367.501318 
L 851.675218 364.225308 
L 851.960855 363.815489 
L 851.724038 366.753596 
L 852.273292 372.32921 
L 852.760674 373.335439 
L 852.734063 372.405114 
L 853.082959 370.954208 
L 853.016016 366.793467 
L 853.400487 363.925427 
L 853.581665 365.04083 
L 853.57102 367.021562 
L 854.03483 365.38431 
L 854.682423 366.732309 
L 854.96902 366.733013 
L 854.812112 368.372408 
L 855.16927 371.364788 
L 855.574168 369.590237 
L 856.156671 369.18541 
L 856.368059 373.637189 
L 856.339255 371.862873 
L 856.380686 371.358781 
L 855.615887 370.032888 
L 855.040676 370.954742 
L 854.265998 370.040542 
L 853.526328 370.684855 
L 852.949272 371.905742 
L 852.9334 370.826372 
L 853.053259 368.419143 
L 852.196518 370.445855 
L 851.972929 372.819236 
L 851.969828 376.212368 
L 852.156055 374.577543 
L 851.907768 375.303031 
L 852.075991 368.865737 
L 851.394321 367.010616 
L 851.154215 368.905249 
L 850.96891 373.181944 
L 851.912385 372.308475 
L 851.917239 374.009941 
L 850.183801 371.894429 
L 849.158086 369.326976 
L 848.584048 364.828084 
L 847.469546 370.077004 
L 847.220472 369.839282 
L 846.93377 373.397419 
L 846.760172 373.287826 
L 846.497429 369.151909 
L 846.120244 371.948409 
L 845.872887 372.731011 
L 845.69566 369.233848 
L 845.218578 367.258118 
L 845.389347 364.62275 
L 844.593801 367.90718 
L 845.103145 372.70813 
L 845.498417 369.253474 
L 845.78018 364.415956 
L 846.050525 365.678919 
L 846.297614 370.63752 
L 846.238945 374.271827 
L 846.033104 374.477146 
L 845.686501 374.050329 
L 845.482507 370.594483 
L 845.15592 373.41465 
L 845.728821 372.911739 
L 845.773028 372.364192 
L 845.747768 371.006107 
L 846.150302 372.624998 
L 846.465964 370.127984 
L 846.144936 368.272589 
L 845.805628 371.951622 
L 846.333064 374.284974 
L 846.815991 373.130233 
L 847.467618 377.655551 
L 848.317453 379.043077 
L 849.271568 377.294529 
L 849.921968 372.311205 
L 850.016359 369.685355 
L 850.657607 369.017814 
L 850.649036 367.767172 
L 850.375073 370.661262 
L 849.935412 373.244897 
L 849.05189 375.551865 
L 848.858574 373.191768 
L 848.778276 374.508347 
L 849.106465 370.664353 
L 849.122168 371.219756 
L 849.093663 374.274781 
L 849.02192 372.676096 
L 848.615976 371.374652 
L 848.086333 369.104597 
L 847.891642 367.616596 
L 846.830125 367.263612 
L 846.41855 370.384456 
L 845.92228 377.195553 
L 846.216263 374.920237 
L 845.920559 372.355486 
L 845.194117 370.214017 
L 844.303953 373.104007 
L 843.635209 374.669677 
L 842.852755 373.935158 
L 841.998126 373.93053 
L 841.381307 373.620549 
L 841.372417 368.105231 
L 841.07272 367.937148 
L 840.972758 368.803287 
L 840.069696 370.786915 
L 839.867054 369.479651 
L 839.057345 370.887273 
L 838.599262 371.120725 
L 838.229745 372.343158 
L 838.550006 372.71254 
L 838.778083 372.478712 
L 838.84213 373.51853 
L 839.115162 371.565705 
L 839.690408 369.973468 
L 839.473584 368.150971 
L 839.572163 370.48993 
L 839.798849 369.119095 
L 839.462323 369.377758 
L 839.347895 370.453383 
L 839.469798 368.222926 
L 839.014028 369.515063 
L 838.885281 370.915931 
L 838.906569 372.47832 
L 839.170882 369.766856 
L 839.444678 370.405045 
L 839.804202 371.552542 
L 837.913773 371.822623 
L 838.135054 367.531786 
L 838.662494 369.658085 
L 839.472813 368.55361 
L 839.82909 370.970363 
L 840.384522 373.883819 
L 842.132423 373.499002 
L 842.040463 377.131947 
L 842.43838 376.3868 
L 842.866699 376.108976 
L 842.565904 371.878313 
L 842.859324 370.992264 
L 842.989856 371.157231 
L 843.148715 372.506371 
L 843.567969 372.186542 
L 843.904377 377.070617 
L 844.838414 379.390774 
L 844.30754 377.29308 
L 844.548356 376.154253 
L 844.904173 375.162445 
L 845.909126 374.378328 
L 846.354444 370.851443 
L 846.77529 372.427809 
L 847.258194 375.187341 
L 847.51253 375.65586 
L 847.989621 372.922173 
L 848.611537 373.309214 
L 848.349021 374.836385 
L 849.00677 378.668272 
L 849.117718 378.627882 
L 848.445601 375.825252 
L 847.334773 378.356139 
L 847.062976 372.458407 
L 846.248475 370.762946 
L 846.13211 371.964901 
L 845.817173 372.99983 
L 846.178253 373.612651 
L 846.396285 371.661583 
L 846.715696 376.041007 
L 847.039062 375.728467 
L 847.253062 374.563349 
L 847.639452 374.94027 
L 847.536103 372.857887 
L 847.781115 370.582998 
L 847.669732 368.815426 
L 847.51913 373.037787 
L 847.758803 371.949069 
L 847.233654 378.806432 
L 847.472058 375.527496 
L 847.385279 375.171339 
L 846.97984 371.032168 
L 846.250753 369.519024 
L 845.931837 372.9875 
L 845.297586 373.236269 
L 844.730776 370.577947 
L 844.436683 370.396676 
L 843.971849 372.456027 
L 843.439952 371.099481 
L 843.137192 375.505543 
L 843.309367 371.612657 
L 842.581808 371.142389 
L 842.335771 370.244909 
L 842.040865 371.151526 
L 842.208958 371.00844 
L 841.645674 371.78381 
L 841.851674 370.284888 
L 841.981324 370.713102 
L 842.553656 368.307452 
L 842.781313 372.183767 
L 843.641231 370.301359 
L 844.084655 375.160893 
L 845.50029 373.023808 
L 845.542262 371.561944 
L 845.032489 368.358191 
L 844.333794 368.91606 
L 844.222673 371.862927 
L 844.479748 369.904207 
L 844.18687 369.513447 
L 844.181024 371.056575 
L 844.519904 372.266731 
L 844.208827 368.67476 
L 844.346512 368.972987 
L 844.777091 367.41758 
L 844.571815 367.237027 
L 845.116725 367.36029 
L 845.796093 369.639829 
L 846.555171 375.036656 
L 847.146488 377.553494 
L 847.460612 374.457849 
L 847.63611 374.051914 
L 847.86818 373.209925 
L 847.872742 373.518181 
L 848.259274 374.9138 
L 848.728253 374.695412 
L 849.557373 373.052872 
L 850.045588 372.950237 
L 850.085683 371.671813 
L 849.815229 374.306055 
L 849.842824 375.294202 
L 850.002397 375.20585 
L 850.366674 372.415512 
L 850.652452 372.698115 
L 851.259431 370.505853 
L 851.531704 371.273711 
L 851.912983 373.627144 
L 852.124482 375.997583 
L 852.576338 375.406351 
L 852.844722 372.614977 
L 853.193104 372.434939 
L 853.534655 372.846689 
L 854.155234 371.660842 
L 854.467262 364.978232 
L 854.326044 365.824595 
L 853.878804 369.148484 
L 852.925581 372.026881 
L 852.582438 373.951112 
L 852.805972 375.429137 
L 853.260213 374.22101 
L 853.580152 375.58326 
L 853.747174 377.146815 
L 854.191479 375.133329 
L 854.500169 371.979888 
L 854.891949 371.588362 
L 854.661304 371.56224 
L 854.706013 371.322132 
L 854.220321 371.39185 
L 853.839544 371.962311 
L 853.925916 373.102248 
L 854.832757 377.319378 
L 854.93708 374.640852 
L 854.61276 373.685117 
L 854.37704 374.105626 
L 854.497546 372.407094 
L 853.52553 370.634039 
L 852.930893 367.904504 
L 852.549519 368.749727 
L 851.940294 369.339854 
L 851.388751 372.83064 
L 850.74697 373.744785 
L 850.84611 371.830393 
L 850.165867 370.307913 
L 849.654419 369.842748 
L 848.99312 373.362044 
L 849.086089 369.524892 
L 848.897658 370.583131 
L 847.860686 372.773969 
L 847.977628 373.265701 
L 847.859962 369.449845 
L 848.025178 372.112661 
L 848.832016 371.631062 
L 849.442273 370.005935 
L 850.815448 369.886496 
L 850.561808 371.572765 
L 851.308748 371.445 
L 850.556771 373.517128 
L 850.311232 372.08337 
L 849.904384 373.497116 
L 849.625353 372.592861 
L 849.568 370.59545 
L 849.293092 369.088169 
L 849.306437 371.118722 
L 849.714219 368.942799 
L 849.80406 372.798793 
L 849.221735 371.777421 
L 849.139234 370.228614 
L 849.672396 370.68992 
L 849.864796 368.614803 
L 850.530554 373.41789 
L 851.689275 374.276459 
L 851.77443 375.171064 
L 852.412848 374.469554 
L 852.804728 372.62956 
L 853.12946 374.279165 
L 852.997369 373.513322 
L 852.993497 372.534499 
L 852.520722 368.791425 
L 852.232575 368.667518 
L 851.358671 370.508364 
L 850.806407 372.076636 
L 850.009789 372.888155 
L 850.004774 374.353061 
L 849.597853 375.182795 
L 850.218976 372.838346 
L 850.46215 372.511097 
L 850.874767 374.446694 
L 850.959521 373.363162 
L 850.646453 373.504608 
L 850.657877 371.109504 
L 850.287735 373.9481 
L 850.029661 373.972583 
L 849.928776 374.603349 
L 850.095989 372.035351 
L 850.510076 372.201401 
L 850.385205 371.616015 
L 850.108846 373.653172 
L 849.317265 375.509452 
L 848.560442 372.577031 
L 847.811652 373.958998 
L 847.110506 376.394684 
L 846.635904 374.57131 
L 845.468174 372.110485 
L 845.045712 373.380292 
L 845.1395 372.460087 
L 844.974643 372.907957 
L 844.401764 371.804437 
L 843.92341 370.029445 
L 842.72009 371.712724 
L 842.196888 371.586317 
L 842.163557 370.365417 
L 842.764444 371.065335 
L 843.427552 369.281705 
L 844.06598 371.433337 
L 844.894672 374.997713 
L 844.868089 373.036412 
L 843.890295 369.241717 
L 843.448492 370.959168 
L 842.843306 370.325099 
L 842.812046 371.437298 
L 842.470378 370.134795 
L 842.804033 367.62099 
L 843.056777 368.192512 
L 843.343973 371.450877 
L 844.077039 372.321055 
L 844.920375 371.512102 
L 844.14239 373.887848 
L 844.029034 373.791055 
L 844.808425 370.52992 
L 845.101468 370.446454 
L 845.746343 371.601152 
L 846.278719 372.253291 
L 847.024745 373.654961 
L 847.340618 373.85412 
L 847.973986 373.269924 
L 848.288148 373.564853 
L 848.393454 372.1733 
L 848.762229 369.175525 
L 849.20172 369.187121 
L 849.563048 369.489232 
L 849.978266 371.389216 
L 851.347206 372.285847 
L 851.980397 372.295582 
L 852.469634 372.01576 
L 852.946891 373.938889 
L 852.213729 373.176497 
L 851.871873 376.901326 
L 851.632903 377.350507 
L 851.195672 371.069088 
L 851.908286 366.881545 
L 851.804947 368.453974 
L 852.636996 369.945063 
L 852.57612 370.844925 
L 852.631773 370.201253 
L 852.842656 369.948616 
L 852.867912 369.418625 
L 852.766927 368.167221 
L 853.025509 367.128696 
L 852.985139 370.599123 
L 853.516327 372.794563 
L 854.033472 371.56658 
L 853.420987 366.158978 
L 852.61911 366.346545 
L 851.862302 367.613705 
L 851.374651 371.783754 
L 851.013301 373.76254 
L 850.658359 370.621461 
L 849.988236 367.494071 
L 849.350427 367.571088 
L 848.620364 365.469634 
L 847.867296 367.549917 
L 847.218959 371.917046 
L 847.974655 368.934255 
L 848.412952 368.926356 
L 848.513435 363.59925 
L 848.788576 360.583912 
L 849.04636 366.480887 
L 848.747739 370.350779 
L 848.7968 369.027884 
L 848.482956 369.201546 
L 848.302256 367.046184 
L 848.074906 367.402955 
L 848.087965 365.042947 
L 848.202212 366.234549 
L 848.361389 370.052501 
L 847.438431 372.407377 
L 847.487056 373.161254 
L 847.955325 371.885625 
L 847.578806 370.582003 
L 847.519177 367.36876 
L 848.092356 369.890989 
L 848.245401 369.919673 
L 848.815599 369.072725 
L 849.565424 371.125434 
L 850.035882 370.153169 
L 850.633622 370.013293 
L 850.784733 371.162884 
L 852.016134 372.828648 
L 852.605948 372.254326 
L 853.13245 368.776898 
L 853.734476 371.214086 
L 854.193285 370.978146 
L 854.804836 371.295358 
L 854.960608 372.089479 
L 854.640307 370.064484 
L 854.764674 370.909341 
L 854.413717 371.360249 
L 854.50732 372.092058 
L 854.279015 372.785566 
L 854.527369 372.821034 
L 854.934428 371.697936 
L 854.977955 374.246069 
L 854.773003 374.109134 
L 855.015026 371.829799 
L 855.04084 369.43226 
L 855.390718 370.442905 
L 855.218977 373.910425 
L 855.608836 374.959912 
L 855.252749 369.371783 
L 854.524535 370.579467 
L 854.609623 368.967361 
L 853.48721 374.09317 
L 853.297365 371.284912 
L 852.738547 369.752809 
L 852.384626 370.475448 
L 852.22549 367.669917 
L 851.838697 368.160322 
L 851.198815 368.491312 
L 850.849286 366.928901 
L 849.685961 373.301124 
L 849.669213 377.609837 
L 849.382921 371.736704 
L 849.678834 368.390843 
L 849.416191 366.414944 
L 849.691499 365.221313 
L 850.720279 365.435123 
L 850.806915 367.848533 
L 851.069372 365.588125 
L 850.60509 365.5633 
L 850.533857 369.128149 
L 850.850332 369.128579 
L 850.72114 370.096677 
L 850.89055 372.797277 
L 850.811435 367.904979 
L 851.227634 365.407561 
L 851.282879 366.073886 
L 850.876317 369.101514 
L 850.988502 371.311312 
L 850.840186 370.247026 
L 851.483985 366.594914 
L 852.035291 364.680524 
L 852.814093 365.613539 
L 853.321979 364.118653 
L 853.402305 366.396955 
L 854.023714 368.314052 
L 854.487892 371.075531 
L 854.359406 372.721467 
L 854.739773 372.806746 
L 855.030912 370.714885 
L 855.348843 372.861395 
L 855.334838 371.334913 
L 855.67028 370.690927 
L 855.729717 371.587095 
L 855.869671 371.872122 
L 855.791061 372.60289 
L 856.019016 368.2964 
L 855.469983 370.012371 
L 854.891898 369.111143 
L 854.524987 369.781013 
L 853.923195 371.957767 
L 853.495742 372.632868 
L 853.533011 372.997512 
L 853.817693 373.721565 
L 854.67926 368.142283 
L 854.71938 366.743767 
L 854.734437 368.890806 
L 854.767335 369.163724 
L 854.477094 373.828485 
L 854.540494 374.995087 
L 854.274327 369.409127 
L 854.35645 371.734639 
L 854.221811 374.240427 
L 853.901707 375.165922 
L 853.390885 371.390782 
L 852.614116 367.301616 
L 851.864391 366.923799 
L 851.709085 369.469967 
L 851.038056 371.143911 
L 850.758064 368.437049 
L 850.567363 368.477704 
L 850.298441 366.846751 
L 849.771674 371.367212 
L 849.170628 370.910826 
L 849.026941 370.625189 
L 848.431379 371.799617 
L 848.270338 372.493702 
L 848.419515 368.719815 
L 847.751748 368.083388 
L 847.894082 367.788183 
L 847.723685 371.013109 
L 848.818713 375.397479 
L 849.293274 371.283768 
L 849.654001 365.981857 
L 850.170298 366.39591 
L 850.300933 369.125713 
L 849.673043 370.25365 
L 849.540763 370.936446 
L 849.088175 373.892814 
L 849.234917 372.429358 
L 849.11557 369.426579 
L 849.916064 368.829524 
L 850.243934 366.714256 
L 850.270211 365.271375 
L 849.849279 367.015283 
L 850.528474 365.600611 
L 850.742912 367.931744 
L 850.217601 369.037137 
L 850.051362 373.309962 
L 850.357618 372.075314 
L 851.142102 367.164659 
L 851.991754 368.549478 
L 852.286865 368.107364 
L 852.834051 369.570676 
L 853.48979 372.537678 
L 853.712962 369.725171 
L 854.567693 367.54776 
L 854.990796 366.788154 
L 855.387685 368.246123 
L 855.754545 368.732901 
L 856.408696 373.349924 
L 856.626168 370.176359 
L 856.362969 373.220023 
L 855.650992 375.517373 
L 855.442299 376.581079 
L 855.55527 373.551511 
L 855.278636 370.514669 
L 855.220177 372.917705 
L 855.021914 375.153838 
L 855.214176 368.183075 
L 855.554938 369.206977 
L 855.553125 368.491827 
L 855.5031 370.316077 
L 855.812646 373.179225 
L 855.818009 375.065547 
L 855.650444 372.578862 
L 855.225316 374.543106 
L 855.351343 370.632121 
L 855.908912 369.36856 
L 855.85559 365.342678 
L 855.709536 367.68292 
L 855.625409 367.158727 
L 855.018492 371.305086 
L 854.364474 374.838985 
L 853.698928 373.205463 
L 853.203587 366.272019 
L 853.19882 366.434013 
L 853.279803 363.769701 
L 852.979898 369.033786 
L 852.511356 371.152361 
L 851.751809 370.272531 
L 850.952237 370.19402 
L 850.958606 368.158914 
L 851.171949 366.970832 
L 850.900102 364.04135 
L 851.23276 366.57531 
L 851.64358 366.276399 
L 852.05031 368.527341 
L 853.251732 370.878031 
L 853.604381 371.986997 
L 853.911674 370.507602 
L 854.091743 367.835321 
L 854.375083 366.676115 
L 854.332528 365.480836 
L 853.796504 370.407184 
L 854.019226 370.426015 
L 854.330115 369.909464 
L 854.228711 368.648584 
L 854.772045 366.462707 
L 855.141968 366.372785 
L 855.603869 367.368544 
L 855.777266 368.955656 
L 857.736942 367.77225 
L 858.104455 367.885134 
L 858.190218 369.217275 
L 858.006027 370.791512 
L 857.606662 370.772888 
L 857.189968 368.755755 
L 856.596298 367.202186 
L 856.083966 365.317846 
L 855.463116 366.947471 
L 855.868251 369.876707 
L 855.762434 370.794839 
L 856.220535 368.780647 
L 856.517621 368.573242 
L 857.085604 367.766677 
L 857.077839 368.373828 
L 857.198357 367.894776 
L 857.079872 370.371152 
L 857.03189 369.986171 
L 857.666436 369.353587 
L 859.972274 364.721328 
L 859.699812 364.196753 
L 859.671602 368.651941 
L 859.341175 370.032298 
L 857.943414 369.473695 
L 857.349937 371.675648 
L 855.561671 370.878702 
L 854.282486 369.784916 
L 853.543542 368.35805 
L 852.997076 369.42468 
L 853.293582 369.248659 
L 852.663759 367.151737 
L 852.820853 364.611837 
L 852.567928 369.908171 
L 852.514979 375.343495 
L 852.262419 374.983226 
L 851.091661 370.749811 
L 851.371325 370.454145 
L 851.820211 373.809604 
L 852.683035 372.828954 
L 852.538325 376.278136 
L 853.856082 375.875533 
L 853.926354 368.784964 
L 853.776679 371.284139 
L 854.064152 370.202197 
L 853.919701 366.369103 
L 853.341152 366.297901 
L 853.260002 370.721479 
L 852.899783 370.08392 
L 852.992595 370.884688 
L 853.206463 366.870047 
L 853.435637 366.614438 
L 853.311246 369.461009 
L 853.38986 370.529413 
L 853.256938 367.446797 
L 853.212293 367.586202 
L 852.973905 367.705119 
L 852.830034 368.548517 
L 852.292815 373.043884 
L 852.592836 369.824435 
L 851.450882 367.262337 
L 850.586634 368.88676 
L 850.556558 367.754602 
L 850.366843 373.592064 
L 850.548893 372.473862 
L 850.248333 368.120056 
L 850.320631 368.950736 
L 850.61418 366.973025 
L 850.530653 368.053354 
L 851.102783 369.176955 
L 851.255562 369.083237 
L 850.497204 372.077272 
L 849.963777 369.000689 
L 849.21035 369.690746 
L 848.495394 368.256164 
L 847.835304 370.021269 
L 847.214329 370.873373 
L 846.063772 371.860905 
L 845.753132 371.757017 
L 845.376679 370.745179 
L 845.048207 371.432201 
L 844.967253 369.48774 
L 845.233749 368.916835 
L 845.766336 370.08895 
L 845.731682 373.367032 
L 846.213696 373.929757 
L 846.880407 368.940299 
L 846.819599 367.636469 
L 846.724389 370.892391 
L 846.204153 368.945471 
L 846.06408 369.258782 
L 844.88802 370.30154 
L 844.507963 370.086288 
L 844.493429 369.335315 
L 844.572101 367.348573 
L 844.946993 365.493044 
L 845.154015 370.768298 
L 845.3843 370.113763 
L 845.195879 370.118157 
L 845.797039 371.230416 
L 846.023881 368.884868 
L 846.6972 369.374659 
L 846.694964 368.649319 
L 847.025851 370.798122 
L 847.643527 372.5024 
L 847.793562 377.357401 
L 848.341858 370.379572 
L 848.833454 368.825135 
L 849.313292 367.871492 
L 849.727046 370.459864 
L 850.026475 373.899692 
L 850.043445 375.94601 
L 849.873635 377.306107 
L 849.680826 375.785966 
L 849.199019 375.598785 
L 848.339874 377.569433 
L 847.769939 371.443173 
L 847.427192 366.094062 
L 847.611707 368.742941 
L 847.460785 369.896658 
L 847.39396 374.513863 
L 847.152824 372.747582 
L 846.699568 375.643876 
L 846.323097 376.403218 
L 845.713293 374.602849 
L 845.466936 369.981085 
L 845.119625 371.802237 
L 845.087456 373.890977 
L 845.800694 373.07727 
L 845.592751 374.7524 
L 845.381807 373.344396 
L 844.470053 375.708722 
L 843.912074 375.008169 
L 842.897552 371.971087 
L 842.193336 372.901259 
L 841.207992 371.565585 
L 841.557468 369.88541 
L 841.408227 370.385712 
L 841.729415 370.431042 
L 841.541647 371.854466 
L 842.039289 371.883507 
L 842.910968 370.67793 
L 843.464392 374.754127 
L 844.024695 371.505569 
L 844.247826 369.145893 
L 844.467166 368.886716 
L 844.502176 371.868195 
L 844.12558 372.645659 
L 844.131337 373.930771 
L 844.089292 372.647874 
L 844.488528 370.724089 
L 844.419406 375.192656 
L 844.923414 371.103309 
L 844.816794 372.960594 
L 844.88836 370.641073 
L 844.838121 365.675638 
L 844.848203 367.30843 
L 845.726889 369.957521 
L 846.255529 372.599159 
L 847.548667 376.869033 
L 848.241403 377.001069 
L 849.245666 374.000432 
L 849.536757 371.517982 
L 849.550644 373.661397 
L 849.818846 373.137772 
L 849.556246 372.735895 
L 848.957196 375.671701 
L 848.631132 374.9801 
L 848.284565 375.853502 
L 848.534693 371.180883 
L 848.808226 368.299338 
L 849.001283 369.766824 
L 849.207551 372.315901 
L 849.370941 372.373047 
L 849.776177 374.110069 
L 849.672757 374.981682 
L 849.340367 369.226339 
L 849.121445 368.367144 
L 849.427731 370.222837 
L 849.107602 371.383972 
L 849.196571 372.293136 
L 850.028774 373.245918 
L 850.506481 373.248945 
L 849.924503 374.53237 
L 848.980738 371.089172 
L 848.563068 370.94965 
L 847.90675 371.200452 
L 847.222443 370.350437 
L 846.681602 367.208564 
L 845.895365 365.903172 
L 846.367663 369.102533 
L 845.664265 370.288497 
L 846.207019 371.380443 
L 845.667702 370.571075 
L 845.082535 371.257551 
L 844.670813 371.123861 
L 843.653317 372.891501 
L 843.90528 369.669958 
L 843.705896 367.83876 
L 843.9604 367.015124 
L 844.847865 367.722291 
L 847.262873 414.253624 
L 866.341529 647.324345 
L 856.907473 736.015293 
L 840.928479 754.162419 
L 799.108357 768.473158 
L 709.975069 747.736566 
L 693.39169 705.928389 
L 693.531164 688.145791 
L 698.459002 689.150835 
L 581.793776 499.723555 
L 573.476184 449.013104 
L 324.387049 799.535708 
L 465.218278 816.907153 
L 516.143326 849.313401 
L 525.197845 781.708501 
L 880.006475 519.726267 
L 874.82627 658.360416 
L 867.158152 757.300297 
L 842.34411 822.324979 
L 813.124429 918.960933 
L 875.91532 718.211422 
L 875.667956 707.398359 
L 873.26358 776.211155 
L 874.558577 807.143687 
L 918.767641 753.455663 
L 931.337581 717.6865 
L 935.39431 725.715805 
L 941.208719 750.567983 
L 949.258045 726.230121 
L 959.317995 710.131276 
L 968.869272 669.413294 
L 978.667581 638.407187 
L 985.128118 625.48428 
L 990.364324 609.773733 
L 993.85101 599.992048 
L 996.235328 583.92583 
L 996.356334 571.716782 
L 994.870803 558.525246 
L 992.430212 530.979255 
L 986.124584 516.214937 
L 976.385657 513.877178 
L 961.573424 541.258056 
L 948.060756 520.602761 
L 931.976594 501.336324 
L 913.226711 488.258369 
L 889.848639 514.620512 
L 889.848639 514.620512 
" clip-path="url(#p7b407139ee)" style="fill: none; stroke: #0000ff; stroke-width: 2; stroke-linecap: square"/>
   </g>
   <g id="line2d_28">
    <path d="M 874.991238 765.365232 
L 882.568449 377.820248 
L 844.501724 393.706464 
L 819.095281 383.757564 
L 857.173058 368.006287 
L 882.568449 377.820248 
" clip-path="url(#p7b407139ee)" style="fill: none; stroke-dasharray: 7.4,3.2; stroke-dashoffset: 0; stroke: #008000; stroke-width: 2"/>
   </g>
   <g id="Path3DCollection_1">
    <path d="M 870.519102 769.837368 
L 879.463374 760.893096 
M 870.519102 760.893096 
L 879.463374 769.837368 
" clip-path="url(#p7b407139ee)" style="fill-opacity: 0.3; stroke: #000000; stroke-opacity: 0.3; stroke-width: 1.5"/>
    <path d="M 852.700922 372.478423 
L 861.645194 363.534151 
M 852.700922 363.534151 
L 861.645194 372.478423 
" clip-path="url(#p7b407139ee)" style="fill-opacity: 0.810699; stroke: #000000; stroke-opacity: 0.810699; stroke-width: 1.5"/>
    <path d="M 878.096313 382.292384 
L 887.040584 373.348112 
M 878.096313 373.348112 
L 887.040584 382.292384 
" clip-path="url(#p7b407139ee)" style="fill-opacity: 0.882986; stroke: #000000; stroke-opacity: 0.882986; stroke-width: 1.5"/>
    <path d="M 814.623145 388.2297 
L 823.567417 379.285428 
M 814.623145 379.285428 
L 823.567417 388.2297 
" clip-path="url(#p7b407139ee)" style="fill-opacity: 0.926719; stroke: #000000; stroke-opacity: 0.926719; stroke-width: 1.5"/>
    <path d="M 840.029589 398.1786 
L 848.97386 389.234328 
M 840.029589 389.234328 
L 848.97386 398.1786 
" clip-path="url(#p7b407139ee)" style="stroke: #000000; stroke-width: 1.5"/>
   </g>
   <g id="text_27">
    <!-- Takeoff / Landing -->
    <g transform="translate(875.382245 745.366726) scale(0.14 -0.14)">
     <defs>
      <path id="DejaVuSans-Bold-54" d="M 31 4666 
L 4331 4666 
L 4331 3756 
L 2784 3756 
L 2784 0 
L 1581 0 
L 1581 3756 
L 31 3756 
L 31 4666 
z
" transform="scale(0.015625)"/>
      <path id="DejaVuSans-Bold-61" d="M 2106 1575 
Q 1756 1575 1579 1456 
Q 1403 1338 1403 1106 
Q 1403 894 1545 773 
Q 1688 653 1941 653 
Q 2256 653 2472 879 
Q 2688 1106 2688 1447 
L 2688 1575 
L 2106 1575 
z
M 3816 1997 
L 3816 0 
L 2688 0 
L 2688 519 
Q 2463 200 2181 54 
Q 1900 -91 1497 -91 
Q 953 -91 614 226 
Q 275 544 275 1050 
Q 275 1666 698 1953 
Q 1122 2241 2028 2241 
L 2688 2241 
L 2688 2328 
Q 2688 2594 2478 2717 
Q 2269 2841 1825 2841 
Q 1466 2841 1156 2769 
Q 847 2697 581 2553 
L 581 3406 
Q 941 3494 1303 3539 
Q 1666 3584 2028 3584 
Q 2975 3584 3395 3211 
Q 3816 2838 3816 1997 
z
" transform="scale(0.015625)"/>
      <path id="DejaVuSans-Bold-6b" d="M 538 4863 
L 1656 4863 
L 1656 2216 
L 2944 3500 
L 4244 3500 
L 2534 1894 
L 4378 0 
L 3022 0 
L 1656 1459 
L 1656 0 
L 538 0 
L 538 4863 
z
" transform="scale(0.015625)"/>
      <path id="DejaVuSans-Bold-65" d="M 4031 1759 
L 4031 1441 
L 1416 1441 
Q 1456 1047 1700 850 
Q 1944 653 2381 653 
Q 2734 653 3104 758 
Q 3475 863 3866 1075 
L 3866 213 
Q 3469 63 3072 -14 
Q 2675 -91 2278 -91 
Q 1328 -91 801 392 
Q 275 875 275 1747 
Q 275 2603 792 3093 
Q 1309 3584 2216 3584 
Q 3041 3584 3536 3087 
Q 4031 2591 4031 1759 
z
M 2881 2131 
Q 2881 2450 2695 2645 
Q 2509 2841 2209 2841 
Q 1884 2841 1681 2658 
Q 1478 2475 1428 2131 
L 2881 2131 
z
" transform="scale(0.015625)"/>
      <path id="DejaVuSans-Bold-6f" d="M 2203 2784 
Q 1831 2784 1636 2517 
Q 1441 2250 1441 1747 
Q 1441 1244 1636 976 
Q 1831 709 2203 709 
Q 2569 709 2762 976 
Q 2956 1244 2956 1747 
Q 2956 2250 2762 2517 
Q 2569 2784 2203 2784 
z
M 2203 3584 
Q 3106 3584 3614 3096 
Q 4122 2609 4122 1747 
Q 4122 884 3614 396 
Q 3106 -91 2203 -91 
Q 1297 -91 786 396 
Q 275 884 275 1747 
Q 275 2609 786 3096 
Q 1297 3584 2203 3584 
z
" transform="scale(0.015625)"/>
      <path id="DejaVuSans-Bold-66" d="M 2841 4863 
L 2841 4128 
L 2222 4128 
Q 1984 4128 1890 4042 
Q 1797 3956 1797 3744 
L 1797 3500 
L 2753 3500 
L 2753 2700 
L 1797 2700 
L 1797 0 
L 678 0 
L 678 2700 
L 122 2700 
L 122 3500 
L 678 3500 
L 678 3744 
Q 678 4316 997 4589 
Q 1316 4863 1984 4863 
L 2841 4863 
z
" transform="scale(0.015625)"/>
      <path id="DejaVuSans-Bold-20" transform="scale(0.015625)"/>
      <path id="DejaVuSans-Bold-2f" d="M 1644 4666 
L 2338 4666 
L 691 -594 
L 0 -594 
L 1644 4666 
z
" transform="scale(0.015625)"/>
      <path id="DejaVuSans-Bold-4c" d="M 588 4666 
L 1791 4666 
L 1791 909 
L 3903 909 
L 3903 0 
L 588 0 
L 588 4666 
z
" transform="scale(0.015625)"/>
      <path id="DejaVuSans-Bold-6e" d="M 4056 2131 
L 4056 0 
L 2931 0 
L 2931 347 
L 2931 1631 
Q 2931 2084 2911 2256 
Q 2891 2428 2841 2509 
Q 2775 2619 2662 2680 
Q 2550 2741 2406 2741 
Q 2056 2741 1856 2470 
Q 1656 2200 1656 1722 
L 1656 0 
L 538 0 
L 538 3500 
L 1656 3500 
L 1656 2988 
Q 1909 3294 2193 3439 
Q 2478 3584 2822 3584 
Q 3428 3584 3742 3212 
Q 4056 2841 4056 2131 
z
" transform="scale(0.015625)"/>
      <path id="DejaVuSans-Bold-64" d="M 2919 2988 
L 2919 4863 
L 4044 4863 
L 4044 0 
L 2919 0 
L 2919 506 
Q 2688 197 2409 53 
Q 2131 -91 1766 -91 
Q 1119 -91 703 423 
Q 288 938 288 1747 
Q 288 2556 703 3070 
Q 1119 3584 1766 3584 
Q 2128 3584 2408 3439 
Q 2688 3294 2919 2988 
z
M 2181 722 
Q 2541 722 2730 984 
Q 2919 1247 2919 1747 
Q 2919 2247 2730 2509 
Q 2541 2772 2181 2772 
Q 1825 2772 1636 2509 
Q 1447 2247 1447 1747 
Q 1447 1247 1636 984 
Q 1825 722 2181 722 
z
" transform="scale(0.015625)"/>
      <path id="DejaVuSans-Bold-69" d="M 538 3500 
L 1656 3500 
L 1656 0 
L 538 0 
L 538 3500 
z
M 538 4863 
L 1656 4863 
L 1656 3950 
L 538 3950 
L 538 4863 
z
" transform="scale(0.015625)"/>
      <path id="DejaVuSans-Bold-67" d="M 2919 594 
Q 2688 288 2409 144 
Q 2131 0 1766 0 
Q 1125 0 706 504 
Q 288 1009 288 1791 
Q 288 2575 706 3076 
Q 1125 3578 1766 3578 
Q 2131 3578 2409 3434 
Q 2688 3291 2919 2981 
L 2919 3500 
L 4044 3500 
L 4044 353 
Q 4044 -491 3511 -936 
Q 2978 -1381 1966 -1381 
Q 1638 -1381 1331 -1331 
Q 1025 -1281 716 -1178 
L 716 -306 
Q 1009 -475 1290 -558 
Q 1572 -641 1856 -641 
Q 2406 -641 2662 -400 
Q 2919 -159 2919 353 
L 2919 594 
z
M 2181 2772 
Q 1834 2772 1640 2515 
Q 1447 2259 1447 1791 
Q 1447 1309 1634 1061 
Q 1822 813 2181 813 
Q 2531 813 2725 1069 
Q 2919 1325 2919 1791 
Q 2919 2259 2725 2515 
Q 2531 2772 2181 2772 
z
" transform="scale(0.015625)"/>
     </defs>
     <use xlink:href="#DejaVuSans-Bold-54"/>
     <use xlink:href="#DejaVuSans-Bold-61" transform="translate(55.337891 0)"/>
     <use xlink:href="#DejaVuSans-Bold-6b" transform="translate(122.818359 0)"/>
     <use xlink:href="#DejaVuSans-Bold-65" transform="translate(186.697266 0)"/>
     <use xlink:href="#DejaVuSans-Bold-6f" transform="translate(254.519531 0)"/>
     <use xlink:href="#DejaVuSans-Bold-66" transform="translate(323.220703 0)"/>
     <use xlink:href="#DejaVuSans-Bold-66" transform="translate(366.726562 0)"/>
     <use xlink:href="#DejaVuSans-Bold-20" transform="translate(410.232422 0)"/>
     <use xlink:href="#DejaVuSans-Bold-2f" transform="translate(445.046875 0)"/>
     <use xlink:href="#DejaVuSans-Bold-20" transform="translate(481.570312 0)"/>
     <use xlink:href="#DejaVuSans-Bold-4c" transform="translate(516.384766 0)"/>
     <use xlink:href="#DejaVuSans-Bold-61" transform="translate(580.105469 0)"/>
     <use xlink:href="#DejaVuSans-Bold-6e" transform="translate(647.585938 0)"/>
     <use xlink:href="#DejaVuSans-Bold-64" transform="translate(718.777344 0)"/>
     <use xlink:href="#DejaVuSans-Bold-69" transform="translate(790.359375 0)"/>
     <use xlink:href="#DejaVuSans-Bold-6e" transform="translate(824.636719 0)"/>
     <use xlink:href="#DejaVuSans-Bold-67" transform="translate(895.828125 0)"/>
    </g>
   </g>
   <g id="text_28">
    <!-- Hover / Return-to-Home -->
    <g transform="translate(882.987672 356.37859) scale(0.14 -0.14)">
     <defs>
      <path id="DejaVuSans-Bold-48" d="M 588 4666 
L 1791 4666 
L 1791 2888 
L 3566 2888 
L 3566 4666 
L 4769 4666 
L 4769 0 
L 3566 0 
L 3566 1978 
L 1791 1978 
L 1791 0 
L 588 0 
L 588 4666 
z
" transform="scale(0.015625)"/>
      <path id="DejaVuSans-Bold-76" d="M 97 3500 
L 1216 3500 
L 2088 1081 
L 2956 3500 
L 4078 3500 
L 2700 0 
L 1472 0 
L 97 3500 
z
" transform="scale(0.015625)"/>
      <path id="DejaVuSans-Bold-72" d="M 3138 2547 
Q 2991 2616 2845 2648 
Q 2700 2681 2553 2681 
Q 2122 2681 1889 2404 
Q 1656 2128 1656 1613 
L 1656 0 
L 538 0 
L 538 3500 
L 1656 3500 
L 1656 2925 
Q 1872 3269 2151 3426 
Q 2431 3584 2822 3584 
Q 2878 3584 2943 3579 
Q 3009 3575 3134 3559 
L 3138 2547 
z
" transform="scale(0.015625)"/>
      <path id="DejaVuSans-Bold-52" d="M 2297 2597 
Q 2675 2597 2839 2737 
Q 3003 2878 3003 3200 
Q 3003 3519 2839 3656 
Q 2675 3794 2297 3794 
L 1791 3794 
L 1791 2597 
L 2297 2597 
z
M 1791 1766 
L 1791 0 
L 588 0 
L 588 4666 
L 2425 4666 
Q 3347 4666 3776 4356 
Q 4206 4047 4206 3378 
Q 4206 2916 3982 2619 
Q 3759 2322 3309 2181 
Q 3556 2125 3751 1926 
Q 3947 1728 4147 1325 
L 4800 0 
L 3519 0 
L 2950 1159 
Q 2778 1509 2601 1637 
Q 2425 1766 2131 1766 
L 1791 1766 
z
" transform="scale(0.015625)"/>
      <path id="DejaVuSans-Bold-74" d="M 1759 4494 
L 1759 3500 
L 2913 3500 
L 2913 2700 
L 1759 2700 
L 1759 1216 
Q 1759 972 1856 886 
Q 1953 800 2241 800 
L 2816 800 
L 2816 0 
L 1856 0 
Q 1194 0 917 276 
Q 641 553 641 1216 
L 641 2700 
L 84 2700 
L 84 3500 
L 641 3500 
L 641 4494 
L 1759 4494 
z
" transform="scale(0.015625)"/>
      <path id="DejaVuSans-Bold-75" d="M 500 1363 
L 500 3500 
L 1625 3500 
L 1625 3150 
Q 1625 2866 1622 2436 
Q 1619 2006 1619 1863 
Q 1619 1441 1641 1255 
Q 1663 1069 1716 984 
Q 1784 875 1895 815 
Q 2006 756 2150 756 
Q 2500 756 2700 1025 
Q 2900 1294 2900 1772 
L 2900 3500 
L 4019 3500 
L 4019 0 
L 2900 0 
L 2900 506 
Q 2647 200 2364 54 
Q 2081 -91 1741 -91 
Q 1134 -91 817 281 
Q 500 653 500 1363 
z
" transform="scale(0.015625)"/>
      <path id="DejaVuSans-Bold-2d" d="M 347 2297 
L 2309 2297 
L 2309 1388 
L 347 1388 
L 347 2297 
z
" transform="scale(0.015625)"/>
      <path id="DejaVuSans-Bold-6d" d="M 3781 2919 
Q 3994 3244 4286 3414 
Q 4578 3584 4928 3584 
Q 5531 3584 5847 3212 
Q 6163 2841 6163 2131 
L 6163 0 
L 5038 0 
L 5038 1825 
Q 5041 1866 5042 1909 
Q 5044 1953 5044 2034 
Q 5044 2406 4934 2573 
Q 4825 2741 4581 2741 
Q 4263 2741 4089 2478 
Q 3916 2216 3909 1719 
L 3909 0 
L 2784 0 
L 2784 1825 
Q 2784 2406 2684 2573 
Q 2584 2741 2328 2741 
Q 2006 2741 1831 2477 
Q 1656 2213 1656 1722 
L 1656 0 
L 531 0 
L 531 3500 
L 1656 3500 
L 1656 2988 
Q 1863 3284 2130 3434 
Q 2397 3584 2719 3584 
Q 3081 3584 3359 3409 
Q 3638 3234 3781 2919 
z
" transform="scale(0.015625)"/>
     </defs>
     <use xlink:href="#DejaVuSans-Bold-48"/>
     <use xlink:href="#DejaVuSans-Bold-6f" transform="translate(83.691406 0)"/>
     <use xlink:href="#DejaVuSans-Bold-76" transform="translate(152.392578 0)"/>
     <use xlink:href="#DejaVuSans-Bold-65" transform="translate(217.578125 0)"/>
     <use xlink:href="#DejaVuSans-Bold-72" transform="translate(285.400391 0)"/>
     <use xlink:href="#DejaVuSans-Bold-20" transform="translate(334.716797 0)"/>
     <use xlink:href="#DejaVuSans-Bold-2f" transform="translate(369.53125 0)"/>
     <use xlink:href="#DejaVuSans-Bold-20" transform="translate(406.054688 0)"/>
     <use xlink:href="#DejaVuSans-Bold-52" transform="translate(440.869141 0)"/>
     <use xlink:href="#DejaVuSans-Bold-65" transform="translate(517.871094 0)"/>
     <use xlink:href="#DejaVuSans-Bold-74" transform="translate(585.693359 0)"/>
     <use xlink:href="#DejaVuSans-Bold-75" transform="translate(633.496094 0)"/>
     <use xlink:href="#DejaVuSans-Bold-72" transform="translate(704.6875 0)"/>
     <use xlink:href="#DejaVuSans-Bold-6e" transform="translate(754.003906 0)"/>
     <use xlink:href="#DejaVuSans-Bold-2d" transform="translate(825.195312 0)"/>
     <use xlink:href="#DejaVuSans-Bold-74" transform="translate(866.699219 0)"/>
     <use xlink:href="#DejaVuSans-Bold-6f" transform="translate(914.501953 0)"/>
     <use xlink:href="#DejaVuSans-Bold-2d" transform="translate(983.203125 0)"/>
     <use xlink:href="#DejaVuSans-Bold-48" transform="translate(1024.707031 0)"/>
     <use xlink:href="#DejaVuSans-Bold-6f" transform="translate(1108.398438 0)"/>
     <use xlink:href="#DejaVuSans-Bold-6d" transform="translate(1177.099609 0)"/>
     <use xlink:href="#DejaVuSans-Bold-65" transform="translate(1281.298828 0)"/>
    </g>
   </g>
   <g id="text_29">
    <!-- Coord 1 -->
    <g transform="translate(844.851291 372.147579) scale(0.14 -0.14)">
     <defs>
      <path id="DejaVuSans-Bold-43" d="M 4288 256 
Q 3956 84 3597 -3 
Q 3238 -91 2847 -91 
Q 1681 -91 1000 561 
Q 319 1213 319 2328 
Q 319 3447 1000 4098 
Q 1681 4750 2847 4750 
Q 3238 4750 3597 4662 
Q 3956 4575 4288 4403 
L 4288 3438 
Q 3953 3666 3628 3772 
Q 3303 3878 2944 3878 
Q 2300 3878 1931 3465 
Q 1563 3053 1563 2328 
Q 1563 1606 1931 1193 
Q 2300 781 2944 781 
Q 3303 781 3628 887 
Q 3953 994 4288 1222 
L 4288 256 
z
" transform="scale(0.015625)"/>
      <path id="DejaVuSans-Bold-31" d="M 750 831 
L 1813 831 
L 1813 3847 
L 722 3622 
L 722 4441 
L 1806 4666 
L 2950 4666 
L 2950 831 
L 4013 831 
L 4013 0 
L 750 0 
L 750 831 
z
" transform="scale(0.015625)"/>
     </defs>
     <use xlink:href="#DejaVuSans-Bold-43"/>
     <use xlink:href="#DejaVuSans-Bold-6f" transform="translate(73.388672 0)"/>
     <use xlink:href="#DejaVuSans-Bold-6f" transform="translate(142.089844 0)"/>
     <use xlink:href="#DejaVuSans-Bold-72" transform="translate(210.791016 0)"/>
     <use xlink:href="#DejaVuSans-Bold-64" transform="translate(260.107422 0)"/>
     <use xlink:href="#DejaVuSans-Bold-20" transform="translate(331.689453 0)"/>
     <use xlink:href="#DejaVuSans-Bold-31" transform="translate(366.503906 0)"/>
    </g>
   </g>
   <g id="text_30">
    <!-- Coord 2 -->
    <g transform="translate(819.395143 362.272045) scale(0.14 -0.14)">
     <defs>
      <path id="DejaVuSans-Bold-32" d="M 1844 884 
L 3897 884 
L 3897 0 
L 506 0 
L 506 884 
L 2209 2388 
Q 2438 2594 2547 2791 
Q 2656 2988 2656 3200 
Q 2656 3528 2436 3728 
Q 2216 3928 1850 3928 
Q 1569 3928 1234 3808 
Q 900 3688 519 3450 
L 519 4475 
Q 925 4609 1322 4679 
Q 1719 4750 2100 4750 
Q 2938 4750 3402 4381 
Q 3866 4013 3866 3353 
Q 3866 2972 3669 2642 
Q 3472 2313 2841 1759 
L 1844 884 
z
" transform="scale(0.015625)"/>
     </defs>
     <use xlink:href="#DejaVuSans-Bold-43"/>
     <use xlink:href="#DejaVuSans-Bold-6f" transform="translate(73.388672 0)"/>
     <use xlink:href="#DejaVuSans-Bold-6f" transform="translate(142.089844 0)"/>
     <use xlink:href="#DejaVuSans-Bold-72" transform="translate(210.791016 0)"/>
     <use xlink:href="#DejaVuSans-Bold-64" transform="translate(260.107422 0)"/>
     <use xlink:href="#DejaVuSans-Bold-20" transform="translate(331.689453 0)"/>
     <use xlink:href="#DejaVuSans-Bold-32" transform="translate(366.503906 0)"/>
    </g>
   </g>
   <g id="text_31">
    <!-- Coord 3 -->
    <g transform="translate(857.542641 346.637251) scale(0.14 -0.14)">
     <defs>
      <path id="DejaVuSans-Bold-33" d="M 2981 2516 
Q 3453 2394 3698 2092 
Q 3944 1791 3944 1325 
Q 3944 631 3412 270 
Q 2881 -91 1863 -91 
Q 1503 -91 1142 -33 
Q 781 25 428 141 
L 428 1069 
Q 766 900 1098 814 
Q 1431 728 1753 728 
Q 2231 728 2486 893 
Q 2741 1059 2741 1369 
Q 2741 1688 2480 1852 
Q 2219 2016 1709 2016 
L 1228 2016 
L 1228 2791 
L 1734 2791 
Q 2188 2791 2409 2933 
Q 2631 3075 2631 3366 
Q 2631 3634 2415 3781 
Q 2200 3928 1806 3928 
Q 1516 3928 1219 3862 
Q 922 3797 628 3669 
L 628 4550 
Q 984 4650 1334 4700 
Q 1684 4750 2022 4750 
Q 2931 4750 3382 4451 
Q 3834 4153 3834 3553 
Q 3834 3144 3618 2883 
Q 3403 2622 2981 2516 
z
" transform="scale(0.015625)"/>
     </defs>
     <use xlink:href="#DejaVuSans-Bold-43"/>
     <use xlink:href="#DejaVuSans-Bold-6f" transform="translate(73.388672 0)"/>
     <use xlink:href="#DejaVuSans-Bold-6f" transform="translate(142.089844 0)"/>
     <use xlink:href="#DejaVuSans-Bold-72" transform="translate(210.791016 0)"/>
     <use xlink:href="#DejaVuSans-Bold-64" transform="translate(260.107422 0)"/>
     <use xlink:href="#DejaVuSans-Bold-20" transform="translate(331.689453 0)"/>
     <use xlink:href="#DejaVuSans-Bold-33" transform="translate(366.503906 0)"/>
    </g>
   </g>
   <g id="text_32">
    <!-- 3D Flight Visualization: State Estimate Flight Path vs. Ideal -->
    <g transform="translate(384.201563 24.48) scale(0.18 -0.18)">
     <defs>
      <path id="DejaVuSans-33" d="M 2597 2516 
Q 3050 2419 3304 2112 
Q 3559 1806 3559 1356 
Q 3559 666 3084 287 
Q 2609 -91 1734 -91 
Q 1441 -91 1130 -33 
Q 819 25 488 141 
L 488 750 
Q 750 597 1062 519 
Q 1375 441 1716 441 
Q 2309 441 2620 675 
Q 2931 909 2931 1356 
Q 2931 1769 2642 2001 
Q 2353 2234 1838 2234 
L 1294 2234 
L 1294 2753 
L 1863 2753 
Q 2328 2753 2575 2939 
Q 2822 3125 2822 3475 
Q 2822 3834 2567 4026 
Q 2313 4219 1838 4219 
Q 1578 4219 1281 4162 
Q 984 4106 628 3988 
L 628 4550 
Q 988 4650 1302 4700 
Q 1616 4750 1894 4750 
Q 2613 4750 3031 4423 
Q 3450 4097 3450 3541 
Q 3450 3153 3228 2886 
Q 3006 2619 2597 2516 
z
" transform="scale(0.015625)"/>
      <path id="DejaVuSans-44" d="M 1259 4147 
L 1259 519 
L 2022 519 
Q 2988 519 3436 956 
Q 3884 1394 3884 2338 
Q 3884 3275 3436 3711 
Q 2988 4147 2022 4147 
L 1259 4147 
z
M 628 4666 
L 1925 4666 
Q 3281 4666 3915 4102 
Q 4550 3538 4550 2338 
Q 4550 1131 3912 565 
Q 3275 0 1925 0 
L 628 0 
L 628 4666 
z
" transform="scale(0.015625)"/>
      <path id="DejaVuSans-46" d="M 628 4666 
L 3309 4666 
L 3309 4134 
L 1259 4134 
L 1259 2759 
L 3109 2759 
L 3109 2228 
L 1259 2228 
L 1259 0 
L 628 0 
L 628 4666 
z
" transform="scale(0.015625)"/>
      <path id="DejaVuSans-6c" d="M 603 4863 
L 1178 4863 
L 1178 0 
L 603 0 
L 603 4863 
z
" transform="scale(0.015625)"/>
      <path id="DejaVuSans-69" d="M 603 3500 
L 1178 3500 
L 1178 0 
L 603 0 
L 603 3500 
z
M 603 4863 
L 1178 4863 
L 1178 4134 
L 603 4134 
L 603 4863 
z
" transform="scale(0.015625)"/>
      <path id="DejaVuSans-67" d="M 2906 1791 
Q 2906 2416 2648 2759 
Q 2391 3103 1925 3103 
Q 1463 3103 1205 2759 
Q 947 2416 947 1791 
Q 947 1169 1205 825 
Q 1463 481 1925 481 
Q 2391 481 2648 825 
Q 2906 1169 2906 1791 
z
M 3481 434 
Q 3481 -459 3084 -895 
Q 2688 -1331 1869 -1331 
Q 1566 -1331 1297 -1286 
Q 1028 -1241 775 -1147 
L 775 -588 
Q 1028 -725 1275 -790 
Q 1522 -856 1778 -856 
Q 2344 -856 2625 -561 
Q 2906 -266 2906 331 
L 2906 616 
Q 2728 306 2450 153 
Q 2172 0 1784 0 
Q 1141 0 747 490 
Q 353 981 353 1791 
Q 353 2603 747 3093 
Q 1141 3584 1784 3584 
Q 2172 3584 2450 3431 
Q 2728 3278 2906 2969 
L 2906 3500 
L 3481 3500 
L 3481 434 
z
" transform="scale(0.015625)"/>
      <path id="DejaVuSans-68" d="M 3513 2113 
L 3513 0 
L 2938 0 
L 2938 2094 
Q 2938 2591 2744 2837 
Q 2550 3084 2163 3084 
Q 1697 3084 1428 2787 
Q 1159 2491 1159 1978 
L 1159 0 
L 581 0 
L 581 4863 
L 1159 4863 
L 1159 2956 
Q 1366 3272 1645 3428 
Q 1925 3584 2291 3584 
Q 2894 3584 3203 3211 
Q 3513 2838 3513 2113 
z
" transform="scale(0.015625)"/>
      <path id="DejaVuSans-74" d="M 1172 4494 
L 1172 3500 
L 2356 3500 
L 2356 3053 
L 1172 3053 
L 1172 1153 
Q 1172 725 1289 603 
Q 1406 481 1766 481 
L 2356 481 
L 2356 0 
L 1766 0 
Q 1100 0 847 248 
Q 594 497 594 1153 
L 594 3053 
L 172 3053 
L 172 3500 
L 594 3500 
L 594 4494 
L 1172 4494 
z
" transform="scale(0.015625)"/>
      <path id="DejaVuSans-56" d="M 1831 0 
L 50 4666 
L 709 4666 
L 2188 738 
L 3669 4666 
L 4325 4666 
L 2547 0 
L 1831 0 
z
" transform="scale(0.015625)"/>
      <path id="DejaVuSans-73" d="M 2834 3397 
L 2834 2853 
Q 2591 2978 2328 3040 
Q 2066 3103 1784 3103 
Q 1356 3103 1142 2972 
Q 928 2841 928 2578 
Q 928 2378 1081 2264 
Q 1234 2150 1697 2047 
L 1894 2003 
Q 2506 1872 2764 1633 
Q 3022 1394 3022 966 
Q 3022 478 2636 193 
Q 2250 -91 1575 -91 
Q 1294 -91 989 -36 
Q 684 19 347 128 
L 347 722 
Q 666 556 975 473 
Q 1284 391 1588 391 
Q 1994 391 2212 530 
Q 2431 669 2431 922 
Q 2431 1156 2273 1281 
Q 2116 1406 1581 1522 
L 1381 1569 
Q 847 1681 609 1914 
Q 372 2147 372 2553 
Q 372 3047 722 3315 
Q 1072 3584 1716 3584 
Q 2034 3584 2315 3537 
Q 2597 3491 2834 3397 
z
" transform="scale(0.015625)"/>
      <path id="DejaVuSans-75" d="M 544 1381 
L 544 3500 
L 1119 3500 
L 1119 1403 
Q 1119 906 1312 657 
Q 1506 409 1894 409 
Q 2359 409 2629 706 
Q 2900 1003 2900 1516 
L 2900 3500 
L 3475 3500 
L 3475 0 
L 2900 0 
L 2900 538 
Q 2691 219 2414 64 
Q 2138 -91 1772 -91 
Q 1169 -91 856 284 
Q 544 659 544 1381 
z
M 1991 3584 
L 1991 3584 
z
" transform="scale(0.015625)"/>
      <path id="DejaVuSans-61" d="M 2194 1759 
Q 1497 1759 1228 1600 
Q 959 1441 959 1056 
Q 959 750 1161 570 
Q 1363 391 1709 391 
Q 2188 391 2477 730 
Q 2766 1069 2766 1631 
L 2766 1759 
L 2194 1759 
z
M 3341 1997 
L 3341 0 
L 2766 0 
L 2766 531 
Q 2569 213 2275 61 
Q 1981 -91 1556 -91 
Q 1019 -91 701 211 
Q 384 513 384 1019 
Q 384 1609 779 1909 
Q 1175 2209 1959 2209 
L 2766 2209 
L 2766 2266 
Q 2766 2663 2505 2880 
Q 2244 3097 1772 3097 
Q 1472 3097 1187 3025 
Q 903 2953 641 2809 
L 641 3341 
Q 956 3463 1253 3523 
Q 1550 3584 1831 3584 
Q 2591 3584 2966 3190 
Q 3341 2797 3341 1997 
z
" transform="scale(0.015625)"/>
      <path id="DejaVuSans-7a" d="M 353 3500 
L 3084 3500 
L 3084 2975 
L 922 459 
L 3084 459 
L 3084 0 
L 275 0 
L 275 525 
L 2438 3041 
L 353 3041 
L 353 3500 
z
" transform="scale(0.015625)"/>
      <path id="DejaVuSans-6f" d="M 1959 3097 
Q 1497 3097 1228 2736 
Q 959 2375 959 1747 
Q 959 1119 1226 758 
Q 1494 397 1959 397 
Q 2419 397 2687 759 
Q 2956 1122 2956 1747 
Q 2956 2369 2687 2733 
Q 2419 3097 1959 3097 
z
M 1959 3584 
Q 2709 3584 3137 3096 
Q 3566 2609 3566 1747 
Q 3566 888 3137 398 
Q 2709 -91 1959 -91 
Q 1206 -91 779 398 
Q 353 888 353 1747 
Q 353 2609 779 3096 
Q 1206 3584 1959 3584 
z
" transform="scale(0.015625)"/>
      <path id="DejaVuSans-6e" d="M 3513 2113 
L 3513 0 
L 2938 0 
L 2938 2094 
Q 2938 2591 2744 2837 
Q 2550 3084 2163 3084 
Q 1697 3084 1428 2787 
Q 1159 2491 1159 1978 
L 1159 0 
L 581 0 
L 581 3500 
L 1159 3500 
L 1159 2956 
Q 1366 3272 1645 3428 
Q 1925 3584 2291 3584 
Q 2894 3584 3203 3211 
Q 3513 2838 3513 2113 
z
" transform="scale(0.015625)"/>
      <path id="DejaVuSans-3a" d="M 750 794 
L 1409 794 
L 1409 0 
L 750 0 
L 750 794 
z
M 750 3309 
L 1409 3309 
L 1409 2516 
L 750 2516 
L 750 3309 
z
" transform="scale(0.015625)"/>
      <path id="DejaVuSans-53" d="M 3425 4513 
L 3425 3897 
Q 3066 4069 2747 4153 
Q 2428 4238 2131 4238 
Q 1616 4238 1336 4038 
Q 1056 3838 1056 3469 
Q 1056 3159 1242 3001 
Q 1428 2844 1947 2747 
L 2328 2669 
Q 3034 2534 3370 2195 
Q 3706 1856 3706 1288 
Q 3706 609 3251 259 
Q 2797 -91 1919 -91 
Q 1588 -91 1214 -16 
Q 841 59 441 206 
L 441 856 
Q 825 641 1194 531 
Q 1563 422 1919 422 
Q 2459 422 2753 634 
Q 3047 847 3047 1241 
Q 3047 1584 2836 1778 
Q 2625 1972 2144 2069 
L 1759 2144 
Q 1053 2284 737 2584 
Q 422 2884 422 3419 
Q 422 4038 858 4394 
Q 1294 4750 2059 4750 
Q 2388 4750 2728 4690 
Q 3069 4631 3425 4513 
z
" transform="scale(0.015625)"/>
      <path id="DejaVuSans-65" d="M 3597 1894 
L 3597 1613 
L 953 1613 
Q 991 1019 1311 708 
Q 1631 397 2203 397 
Q 2534 397 2845 478 
Q 3156 559 3463 722 
L 3463 178 
Q 3153 47 2828 -22 
Q 2503 -91 2169 -91 
Q 1331 -91 842 396 
Q 353 884 353 1716 
Q 353 2575 817 3079 
Q 1281 3584 2069 3584 
Q 2775 3584 3186 3129 
Q 3597 2675 3597 1894 
z
M 3022 2063 
Q 3016 2534 2758 2815 
Q 2500 3097 2075 3097 
Q 1594 3097 1305 2825 
Q 1016 2553 972 2059 
L 3022 2063 
z
" transform="scale(0.015625)"/>
      <path id="DejaVuSans-45" d="M 628 4666 
L 3578 4666 
L 3578 4134 
L 1259 4134 
L 1259 2753 
L 3481 2753 
L 3481 2222 
L 1259 2222 
L 1259 531 
L 3634 531 
L 3634 0 
L 628 0 
L 628 4666 
z
" transform="scale(0.015625)"/>
      <path id="DejaVuSans-50" d="M 1259 4147 
L 1259 2394 
L 2053 2394 
Q 2494 2394 2734 2622 
Q 2975 2850 2975 3272 
Q 2975 3691 2734 3919 
Q 2494 4147 2053 4147 
L 1259 4147 
z
M 628 4666 
L 2053 4666 
Q 2838 4666 3239 4311 
Q 3641 3956 3641 3272 
Q 3641 2581 3239 2228 
Q 2838 1875 2053 1875 
L 1259 1875 
L 1259 0 
L 628 0 
L 628 4666 
z
" transform="scale(0.015625)"/>
      <path id="DejaVuSans-76" d="M 191 3500 
L 800 3500 
L 1894 563 
L 2988 3500 
L 3597 3500 
L 2284 0 
L 1503 0 
L 191 3500 
z
" transform="scale(0.015625)"/>
      <path id="DejaVuSans-49" d="M 628 4666 
L 1259 4666 
L 1259 0 
L 628 0 
L 628 4666 
z
" transform="scale(0.015625)"/>
      <path id="DejaVuSans-64" d="M 2906 2969 
L 2906 4863 
L 3481 4863 
L 3481 0 
L 2906 0 
L 2906 525 
Q 2725 213 2448 61 
Q 2172 -91 1784 -91 
Q 1150 -91 751 415 
Q 353 922 353 1747 
Q 353 2572 751 3078 
Q 1150 3584 1784 3584 
Q 2172 3584 2448 3432 
Q 2725 3281 2906 2969 
z
M 947 1747 
Q 947 1113 1208 752 
Q 1469 391 1925 391 
Q 2381 391 2643 752 
Q 2906 1113 2906 1747 
Q 2906 2381 2643 2742 
Q 2381 3103 1925 3103 
Q 1469 3103 1208 2742 
Q 947 2381 947 1747 
z
" transform="scale(0.015625)"/>
     </defs>
     <use xlink:href="#DejaVuSans-33"/>
     <use xlink:href="#DejaVuSans-44" transform="translate(63.623047 0)"/>
     <use xlink:href="#DejaVuSans-20" transform="translate(140.625 0)"/>
     <use xlink:href="#DejaVuSans-46" transform="translate(172.412109 0)"/>
     <use xlink:href="#DejaVuSans-6c" transform="translate(229.931641 0)"/>
     <use xlink:href="#DejaVuSans-69" transform="translate(257.714844 0)"/>
     <use xlink:href="#DejaVuSans-67" transform="translate(285.498047 0)"/>
     <use xlink:href="#DejaVuSans-68" transform="translate(348.974609 0)"/>
     <use xlink:href="#DejaVuSans-74" transform="translate(412.353516 0)"/>
     <use xlink:href="#DejaVuSans-20" transform="translate(451.5625 0)"/>
     <use xlink:href="#DejaVuSans-56" transform="translate(483.349609 0)"/>
     <use xlink:href="#DejaVuSans-69" transform="translate(549.507812 0)"/>
     <use xlink:href="#DejaVuSans-73" transform="translate(577.291016 0)"/>
     <use xlink:href="#DejaVuSans-75" transform="translate(629.390625 0)"/>
     <use xlink:href="#DejaVuSans-61" transform="translate(692.769531 0)"/>
     <use xlink:href="#DejaVuSans-6c" transform="translate(754.048828 0)"/>
     <use xlink:href="#DejaVuSans-69" transform="translate(781.832031 0)"/>
     <use xlink:href="#DejaVuSans-7a" transform="translate(809.615234 0)"/>
     <use xlink:href="#DejaVuSans-61" transform="translate(862.105469 0)"/>
     <use xlink:href="#DejaVuSans-74" transform="translate(923.384766 0)"/>
     <use xlink:href="#DejaVuSans-69" transform="translate(962.59375 0)"/>
     <use xlink:href="#DejaVuSans-6f" transform="translate(990.376953 0)"/>
     <use xlink:href="#DejaVuSans-6e" transform="translate(1051.558594 0)"/>
     <use xlink:href="#DejaVuSans-3a" transform="translate(1114.9375 0)"/>
     <use xlink:href="#DejaVuSans-20" transform="translate(1148.628906 0)"/>
     <use xlink:href="#DejaVuSans-53" transform="translate(1180.416016 0)"/>
     <use xlink:href="#DejaVuSans-74" transform="translate(1243.892578 0)"/>
     <use xlink:href="#DejaVuSans-61" transform="translate(1283.101562 0)"/>
     <use xlink:href="#DejaVuSans-74" transform="translate(1344.380859 0)"/>
     <use xlink:href="#DejaVuSans-65" transform="translate(1383.589844 0)"/>
     <use xlink:href="#DejaVuSans-20" transform="translate(1445.113281 0)"/>
     <use xlink:href="#DejaVuSans-45" transform="translate(1476.900391 0)"/>
     <use xlink:href="#DejaVuSans-73" transform="translate(1540.083984 0)"/>
     <use xlink:href="#DejaVuSans-74" transform="translate(1592.183594 0)"/>
     <use xlink:href="#DejaVuSans-69" transform="translate(1631.392578 0)"/>
     <use xlink:href="#DejaVuSans-6d" transform="translate(1659.175781 0)"/>
     <use xlink:href="#DejaVuSans-61" transform="translate(1756.587891 0)"/>
     <use xlink:href="#DejaVuSans-74" transform="translate(1817.867188 0)"/>
     <use xlink:href="#DejaVuSans-65" transform="translate(1857.076172 0)"/>
     <use xlink:href="#DejaVuSans-20" transform="translate(1918.599609 0)"/>
     <use xlink:href="#DejaVuSans-46" transform="translate(1950.386719 0)"/>
     <use xlink:href="#DejaVuSans-6c" transform="translate(2007.90625 0)"/>
     <use xlink:href="#DejaVuSans-69" transform="translate(2035.689453 0)"/>
     <use xlink:href="#DejaVuSans-67" transform="translate(2063.472656 0)"/>
     <use xlink:href="#DejaVuSans-68" transform="translate(2126.949219 0)"/>
     <use xlink:href="#DejaVuSans-74" transform="translate(2190.328125 0)"/>
     <use xlink:href="#DejaVuSans-20" transform="translate(2229.537109 0)"/>
     <use xlink:href="#DejaVuSans-50" transform="translate(2261.324219 0)"/>
     <use xlink:href="#DejaVuSans-61" transform="translate(2317.126953 0)"/>
     <use xlink:href="#DejaVuSans-74" transform="translate(2378.40625 0)"/>
     <use xlink:href="#DejaVuSans-68" transform="translate(2417.615234 0)"/>
     <use xlink:href="#DejaVuSans-20" transform="translate(2480.994141 0)"/>
     <use xlink:href="#DejaVuSans-76" transform="translate(2512.78125 0)"/>
     <use xlink:href="#DejaVuSans-73" transform="translate(2571.960938 0)"/>
     <use xlink:href="#DejaVuSans-2e" transform="translate(2624.060547 0)"/>
     <use xlink:href="#DejaVuSans-20" transform="translate(2655.847656 0)"/>
     <use xlink:href="#DejaVuSans-49" transform="translate(2687.634766 0)"/>
     <use xlink:href="#DejaVuSans-64" transform="translate(2717.126953 0)"/>
     <use xlink:href="#DejaVuSans-65" transform="translate(2780.603516 0)"/>
     <use xlink:href="#DejaVuSans-61" transform="translate(2842.126953 0)"/>
     <use xlink:href="#DejaVuSans-6c" transform="translate(2903.40625 0)"/>
    </g>
   </g>
   <g id="legend_1">
    <g id="patch_6">
     <path d="M 928.49625 75.3075 
L 1122.96 75.3075 
Q 1125.36 75.3075 1125.36 72.9075 
L 1125.36 38.88 
Q 1125.36 36.48 1122.96 36.48 
L 928.49625 36.48 
Q 926.09625 36.48 926.09625 38.88 
L 926.09625 72.9075 
Q 926.09625 75.3075 928.49625 75.3075 
z
" style="fill: #ffffff; opacity: 0.8; stroke: #cccccc; stroke-linejoin: miter"/>
    </g>
    <g id="line2d_29">
     <path d="M 930.89625 46.198125 
L 942.89625 46.198125 
L 954.89625 46.198125 
" style="fill: none; stroke: #0000ff; stroke-width: 2; stroke-linecap: square"/>
    </g>
    <g id="text_33">
     <!-- State Estimate Flight Path -->
     <g transform="translate(964.49625 50.398125) scale(0.12 -0.12)">
      <use xlink:href="#DejaVuSans-53"/>
      <use xlink:href="#DejaVuSans-74" transform="translate(63.476562 0)"/>
      <use xlink:href="#DejaVuSans-61" transform="translate(102.685547 0)"/>
      <use xlink:href="#DejaVuSans-74" transform="translate(163.964844 0)"/>
      <use xlink:href="#DejaVuSans-65" transform="translate(203.173828 0)"/>
      <use xlink:href="#DejaVuSans-20" transform="translate(264.697266 0)"/>
      <use xlink:href="#DejaVuSans-45" transform="translate(296.484375 0)"/>
      <use xlink:href="#DejaVuSans-73" transform="translate(359.667969 0)"/>
      <use xlink:href="#DejaVuSans-74" transform="translate(411.767578 0)"/>
      <use xlink:href="#DejaVuSans-69" transform="translate(450.976562 0)"/>
      <use xlink:href="#DejaVuSans-6d" transform="translate(478.759766 0)"/>
      <use xlink:href="#DejaVuSans-61" transform="translate(576.171875 0)"/>
      <use xlink:href="#DejaVuSans-74" transform="translate(637.451172 0)"/>
      <use xlink:href="#DejaVuSans-65" transform="translate(676.660156 0)"/>
      <use xlink:href="#DejaVuSans-20" transform="translate(738.183594 0)"/>
      <use xlink:href="#DejaVuSans-46" transform="translate(769.970703 0)"/>
      <use xlink:href="#DejaVuSans-6c" transform="translate(827.490234 0)"/>
      <use xlink:href="#DejaVuSans-69" transform="translate(855.273438 0)"/>
      <use xlink:href="#DejaVuSans-67" transform="translate(883.056641 0)"/>
      <use xlink:href="#DejaVuSans-68" transform="translate(946.533203 0)"/>
      <use xlink:href="#DejaVuSans-74" transform="translate(1009.912109 0)"/>
      <use xlink:href="#DejaVuSans-20" transform="translate(1049.121094 0)"/>
      <use xlink:href="#DejaVuSans-50" transform="translate(1080.908203 0)"/>
      <use xlink:href="#DejaVuSans-61" transform="translate(1136.710938 0)"/>
      <use xlink:href="#DejaVuSans-74" transform="translate(1197.990234 0)"/>
      <use xlink:href="#DejaVuSans-68" transform="translate(1237.199219 0)"/>
     </g>
    </g>
    <g id="line2d_30">
     <path d="M 930.89625 63.811875 
L 942.89625 63.811875 
L 954.89625 63.811875 
" style="fill: none; stroke-dasharray: 7.4,3.2; stroke-dashoffset: 0; stroke: #008000; stroke-width: 2"/>
    </g>
    <g id="text_34">
     <!-- Ideal Waypoints Path -->
     <g transform="translate(964.49625 68.011875) scale(0.12 -0.12)">
      <defs>
       <path id="DejaVuSans-57" d="M 213 4666 
L 850 4666 
L 1831 722 
L 2809 4666 
L 3519 4666 
L 4500 722 
L 5478 4666 
L 6119 4666 
L 4947 0 
L 4153 0 
L 3169 4050 
L 2175 0 
L 1381 0 
L 213 4666 
z
" transform="scale(0.015625)"/>
       <path id="DejaVuSans-79" d="M 2059 -325 
Q 1816 -950 1584 -1140 
Q 1353 -1331 966 -1331 
L 506 -1331 
L 506 -850 
L 844 -850 
Q 1081 -850 1212 -737 
Q 1344 -625 1503 -206 
L 1606 56 
L 191 3500 
L 800 3500 
L 1894 763 
L 2988 3500 
L 3597 3500 
L 2059 -325 
z
" transform="scale(0.015625)"/>
       <path id="DejaVuSans-70" d="M 1159 525 
L 1159 -1331 
L 581 -1331 
L 581 3500 
L 1159 3500 
L 1159 2969 
Q 1341 3281 1617 3432 
Q 1894 3584 2278 3584 
Q 2916 3584 3314 3078 
Q 3713 2572 3713 1747 
Q 3713 922 3314 415 
Q 2916 -91 2278 -91 
Q 1894 -91 1617 61 
Q 1341 213 1159 525 
z
M 3116 1747 
Q 3116 2381 2855 2742 
Q 2594 3103 2138 3103 
Q 1681 3103 1420 2742 
Q 1159 2381 1159 1747 
Q 1159 1113 1420 752 
Q 1681 391 2138 391 
Q 2594 391 2855 752 
Q 3116 1113 3116 1747 
z
" transform="scale(0.015625)"/>
      </defs>
      <use xlink:href="#DejaVuSans-49"/>
      <use xlink:href="#DejaVuSans-64" transform="translate(29.492188 0)"/>
      <use xlink:href="#DejaVuSans-65" transform="translate(92.96875 0)"/>
      <use xlink:href="#DejaVuSans-61" transform="translate(154.492188 0)"/>
      <use xlink:href="#DejaVuSans-6c" transform="translate(215.771484 0)"/>
      <use xlink:href="#DejaVuSans-20" transform="translate(243.554688 0)"/>
      <use xlink:href="#DejaVuSans-57" transform="translate(275.341797 0)"/>
      <use xlink:href="#DejaVuSans-61" transform="translate(367.84375 0)"/>
      <use xlink:href="#DejaVuSans-79" transform="translate(429.123047 0)"/>
      <use xlink:href="#DejaVuSans-70" transform="translate(488.302734 0)"/>
      <use xlink:href="#DejaVuSans-6f" transform="translate(551.779297 0)"/>
      <use xlink:href="#DejaVuSans-69" transform="translate(612.960938 0)"/>
      <use xlink:href="#DejaVuSans-6e" transform="translate(640.744141 0)"/>
      <use xlink:href="#DejaVuSans-74" transform="translate(704.123047 0)"/>
      <use xlink:href="#DejaVuSans-73" transform="translate(743.332031 0)"/>
      <use xlink:href="#DejaVuSans-20" transform="translate(795.431641 0)"/>
      <use xlink:href="#DejaVuSans-50" transform="translate(827.21875 0)"/>
      <use xlink:href="#DejaVuSans-61" transform="translate(883.021484 0)"/>
      <use xlink:href="#DejaVuSans-74" transform="translate(944.300781 0)"/>
      <use xlink:href="#DejaVuSans-68" transform="translate(983.509766 0)"/>
     </g>
    </g>
   </g>
  </g>
 </g>
 <defs>
  <clipPath id="p7b407139ee">
   <rect x="164.64" y="30.48" width="966.72" height="966.72"/>
  </clipPath>
 </defs>
</svg>
