<?xml version="1.0" encoding="utf-8" standalone="no"?>
<!DOCTYPE svg PUBLIC "-//W3C//DTD SVG 1.1//EN"
  "http://www.w3.org/Graphics/SVG/1.1/DTD/svg11.dtd">
<svg xmlns:xlink="http://www.w3.org/1999/xlink" width="1296pt" height="1008pt" viewBox="0 0 1296 1008" xmlns="http://www.w3.org/2000/svg" version="1.1">
 <metadata>
  <rdf:RDF xmlns:dc="http://purl.org/dc/elements/1.1/" xmlns:cc="http://creativecommons.org/ns#" xmlns:rdf="http://www.w3.org/1999/02/22-rdf-syntax-ns#">
   <cc:Work>
    <dc:type rdf:resource="http://purl.org/dc/dcmitype/StillImage"/>
    <dc:date>2025-08-27T06:39:14.851397</dc:date>
    <dc:format>image/svg+xml</dc:format>
    <dc:creator>
     <cc:Agent>
      <dc:title>Matplotlib v3.10.3, https://matplotlib.org/</dc:title>
     </cc:Agent>
    </dc:creator>
   </cc:Work>
  </rdf:RDF>
 </metadata>
 <defs>
  <style type="text/css">*{stroke-linejoin: round; stroke-linecap: butt}</style>
 </defs>
 <g id="figure_1">
  <g id="patch_1">
   <path d="M 0 1008 
L 1296 1008 
L 1296 0 
L 0 0 
z
" style="fill: #ffffff"/>
  </g>
  <g id="patch_2">
   <path d="M 164.64 997.2 
L 1131.36 997.2 
L 1131.36 30.48 
L 164.64 30.48 
z
" style="fill: #ffffff"/>
  </g>
  <g id="pane3d_1">
   <g id="patch_3">
    <path d="M 661.063784 581.893746 
L 263.758321 755.391958 
L 244.84442 234.039381 
L 661.063784 87.939602 
" style="fill: #f2f2f2; opacity: 0.5; stroke: #f2f2f2; stroke-linejoin: miter"/>
   </g>
  </g>
  <g id="pane3d_2">
   <g id="patch_4">
    <path d="M 1058.369247 755.391958 
L 661.063784 581.893746 
L 661.063784 87.939602 
L 1077.283147 234.039381 
" style="fill: #e6e6e6; opacity: 0.5; stroke: #e6e6e6; stroke-linejoin: miter"/>
   </g>
  </g>
  <g id="pane3d_3">
   <g id="patch_5">
    <path d="M 1058.369247 755.391958 
L 661.063784 581.893746 
L 263.758321 755.391958 
L 661.063784 954.570688 
" style="fill: #ececec; opacity: 0.5; stroke: #ececec; stroke-linejoin: miter"/>
   </g>
  </g>
  <g id="grid3d_1">
   <g id="Line3DCollection_1">
    <path d="M 632.217418 940.109316 
L 1029.649953 742.85061 
L 1047.111018 223.448472 
" style="fill: none; stroke: #b0b0b0; stroke-width: 0.8"/>
    <path d="M 556.557161 902.179019 
L 954.228786 709.915151 
L 967.938179 195.657515 
" style="fill: none; stroke: #b0b0b0; stroke-width: 0.8"/>
    <path d="M 482.866605 865.236181 
L 880.639699 677.779738 
L 890.777344 168.572805 
" style="fill: none; stroke: #b0b0b0; stroke-width: 0.8"/>
    <path d="M 411.069821 829.242736 
L 808.816736 646.41557 
L 815.552781 142.167757 
" style="fill: none; stroke: #b0b0b0; stroke-width: 0.8"/>
    <path d="M 341.094734 794.162551 
L 738.697072 615.795209 
L 742.19251 116.417107 
" style="fill: none; stroke: #b0b0b0; stroke-width: 0.8"/>
    <path d="M 272.872879 759.961304 
L 670.220825 585.892509 
L 670.628075 91.296824 
" style="fill: none; stroke: #b0b0b0; stroke-width: 0.8"/>
   </g>
  </g>
  <g id="grid3d_2">
   <g id="Line3DCollection_2">
    <path d="M 626.142924 100.197393 
L 627.63611 596.491183 
L 1025.087002 772.077143 
" style="fill: none; stroke: #b0b0b0; stroke-width: 0.8"/>
    <path d="M 570.800616 119.623444 
L 574.695426 619.609703 
L 972.322177 798.529412 
" style="fill: none; stroke: #b0b0b0; stroke-width: 0.8"/>
    <path d="M 514.392125 139.423744 
L 520.779241 643.154211 
L 918.516347 825.503561 
" style="fill: none; stroke: #b0b0b0; stroke-width: 0.8"/>
    <path d="M 456.886339 159.609212 
L 465.860341 667.136592 
L 863.6384 853.015188 
" style="fill: none; stroke: #b0b0b0; stroke-width: 0.8"/>
    <path d="M 398.250926 180.191197 
L 409.910491 691.569175 
L 807.655969 881.08052 
" style="fill: none; stroke: #b0b0b0; stroke-width: 0.8"/>
    <path d="M 338.452272 201.1815 
L 352.900386 716.464758 
L 750.535371 909.716442 
" style="fill: none; stroke: #b0b0b0; stroke-width: 0.8"/>
    <path d="M 277.455414 222.592391 
L 294.799601 741.836628 
L 692.24154 938.940534 
" style="fill: none; stroke: #b0b0b0; stroke-width: 0.8"/>
   </g>
  </g>
  <g id="grid3d_3">
   <g id="Line3DCollection_3">
    <path d="M 1058.369247 755.391958 
L 661.063784 581.893746 
L 263.758321 755.391958 
" style="fill: none; stroke: #b0b0b0; stroke-width: 0.8"/>
    <path d="M 1060.638941 692.828933 
L 661.063784 522.458548 
L 261.488627 692.828933 
" style="fill: none; stroke: #b0b0b0; stroke-width: 0.8"/>
    <path d="M 1062.934716 629.546992 
L 661.063784 462.384877 
L 259.192852 629.546992 
" style="fill: none; stroke: #b0b0b0; stroke-width: 0.8"/>
    <path d="M 1065.257025 565.533671 
L 661.063784 401.662389 
L 256.870543 565.533671 
" style="fill: none; stroke: #b0b0b0; stroke-width: 0.8"/>
    <path d="M 1067.606329 500.776216 
L 661.063784 340.280517 
L 254.521238 500.776216 
" style="fill: none; stroke: #b0b0b0; stroke-width: 0.8"/>
    <path d="M 1069.983103 435.261577 
L 661.063784 278.22846 
L 252.144464 435.261577 
" style="fill: none; stroke: #b0b0b0; stroke-width: 0.8"/>
    <path d="M 1072.387832 368.976396 
L 661.063784 215.495184 
L 249.739736 368.976396 
" style="fill: none; stroke: #b0b0b0; stroke-width: 0.8"/>
    <path d="M 1074.82101 301.906997 
L 661.063784 152.069408 
L 247.306557 301.906997 
" style="fill: none; stroke: #b0b0b0; stroke-width: 0.8"/>
    <path d="M 1077.283147 234.039381 
L 661.063784 87.939602 
L 244.84442 234.039381 
" style="fill: none; stroke: #b0b0b0; stroke-width: 0.8"/>
   </g>
  </g>
  <g id="axis3d_1">
   <g id="line2d_1">
    <path d="M 263.758321 755.391958 
L 661.063784 954.570688 
" style="fill: none; stroke: #000000; stroke-width: 0.8; stroke-linecap: square"/>
   </g>
   <g id="xtick_1">
    <g id="line2d_2">
     <path d="M 635.628997 938.416038 
L 625.382188 943.501863 
" style="fill: none; stroke: #000000; stroke-width: 0.8; stroke-linecap: square"/>
    </g>
    <g id="text_1">
     <!-- −1.0 -->
     <g transform="translate(610.356594 964.496459) scale(0.1 -0.1)">
      <defs>
       <path id="DejaVuSans-2212" d="M 678 2272 
L 4684 2272 
L 4684 1741 
L 678 1741 
L 678 2272 
z
" transform="scale(0.015625)"/>
       <path id="DejaVuSans-31" d="M 794 531 
L 1825 531 
L 1825 4091 
L 703 3866 
L 703 4441 
L 1819 4666 
L 2450 4666 
L 2450 531 
L 3481 531 
L 3481 0 
L 794 0 
L 794 531 
z
" transform="scale(0.015625)"/>
       <path id="DejaVuSans-2e" d="M 684 794 
L 1344 794 
L 1344 0 
L 684 0 
L 684 794 
z
" transform="scale(0.015625)"/>
       <path id="DejaVuSans-30" d="M 2034 4250 
Q 1547 4250 1301 3770 
Q 1056 3291 1056 2328 
Q 1056 1369 1301 889 
Q 1547 409 2034 409 
Q 2525 409 2770 889 
Q 3016 1369 3016 2328 
Q 3016 3291 2770 3770 
Q 2525 4250 2034 4250 
z
M 2034 4750 
Q 2819 4750 3233 4129 
Q 3647 3509 3647 2328 
Q 3647 1150 3233 529 
Q 2819 -91 2034 -91 
Q 1250 -91 836 529 
Q 422 1150 422 2328 
Q 422 3509 836 4129 
Q 1250 4750 2034 4750 
z
" transform="scale(0.015625)"/>
      </defs>
      <use xlink:href="#DejaVuSans-2212"/>
      <use xlink:href="#DejaVuSans-31" transform="translate(83.789062 0)"/>
      <use xlink:href="#DejaVuSans-2e" transform="translate(147.412109 0)"/>
      <use xlink:href="#DejaVuSans-30" transform="translate(179.199219 0)"/>
     </g>
    </g>
   </g>
   <g id="xtick_2">
    <g id="line2d_3">
     <path d="M 559.967731 900.530097 
L 549.724111 905.48262 
" style="fill: none; stroke: #000000; stroke-width: 0.8; stroke-linecap: square"/>
    </g>
    <g id="text_2">
     <!-- −0.5 -->
     <g transform="translate(534.781805 926.32317) scale(0.1 -0.1)">
      <defs>
       <path id="DejaVuSans-35" d="M 691 4666 
L 3169 4666 
L 3169 4134 
L 1269 4134 
L 1269 2991 
Q 1406 3038 1543 3061 
Q 1681 3084 1819 3084 
Q 2600 3084 3056 2656 
Q 3513 2228 3513 1497 
Q 3513 744 3044 326 
Q 2575 -91 1722 -91 
Q 1428 -91 1123 -41 
Q 819 9 494 109 
L 494 744 
Q 775 591 1075 516 
Q 1375 441 1709 441 
Q 2250 441 2565 725 
Q 2881 1009 2881 1497 
Q 2881 1984 2565 2268 
Q 2250 2553 1709 2553 
Q 1456 2553 1204 2497 
Q 953 2441 691 2322 
L 691 4666 
z
" transform="scale(0.015625)"/>
      </defs>
      <use xlink:href="#DejaVuSans-2212"/>
      <use xlink:href="#DejaVuSans-30" transform="translate(83.789062 0)"/>
      <use xlink:href="#DejaVuSans-2e" transform="translate(147.412109 0)"/>
      <use xlink:href="#DejaVuSans-35" transform="translate(179.199219 0)"/>
     </g>
    </g>
   </g>
   <g id="xtick_3">
    <g id="line2d_4">
     <path d="M 486.275062 863.629895 
L 476.037942 868.454289 
" style="fill: none; stroke: #000000; stroke-width: 0.8; stroke-linecap: square"/>
    </g>
    <g id="text_3">
     <!-- 0.0 -->
     <g transform="translate(465.365434 889.14422) scale(0.1 -0.1)">
      <use xlink:href="#DejaVuSans-30"/>
      <use xlink:href="#DejaVuSans-2e" transform="translate(63.623047 0)"/>
      <use xlink:href="#DejaVuSans-30" transform="translate(95.410156 0)"/>
     </g>
    </g>
   </g>
   <g id="xtick_4">
    <g id="line2d_5">
     <path d="M 414.475149 827.677453 
L 404.24758 832.378627 
" style="fill: none; stroke: #000000; stroke-width: 0.8; stroke-linecap: square"/>
    </g>
    <g id="text_4">
     <!-- 0.5 -->
     <g transform="translate(393.651867 852.921258) scale(0.1 -0.1)">
      <use xlink:href="#DejaVuSans-30"/>
      <use xlink:href="#DejaVuSans-2e" transform="translate(63.623047 0)"/>
      <use xlink:href="#DejaVuSans-35" transform="translate(95.410156 0)"/>
     </g>
    </g>
   </g>
   <g id="xtick_5">
    <g id="line2d_6">
     <path d="M 344.495993 792.636721 
L 334.280791 797.219336 
" style="fill: none; stroke: #000000; stroke-width: 0.8; stroke-linecap: square"/>
    </g>
    <g id="text_5">
     <!-- 1.0 -->
     <g transform="translate(323.758875 817.61788) scale(0.1 -0.1)">
      <use xlink:href="#DejaVuSans-31"/>
      <use xlink:href="#DejaVuSans-2e" transform="translate(63.623047 0)"/>
      <use xlink:href="#DejaVuSans-30" transform="translate(95.410156 0)"/>
     </g>
    </g>
   </g>
   <g id="xtick_6">
    <g id="line2d_7">
     <path d="M 276.269204 758.473454 
L 266.068965 762.941939 
" style="fill: none; stroke: #000000; stroke-width: 0.8; stroke-linecap: square"/>
    </g>
    <g id="text_6">
     <!-- 1.5 -->
     <g transform="translate(255.617999 783.199506) scale(0.1 -0.1)">
      <use xlink:href="#DejaVuSans-31"/>
      <use xlink:href="#DejaVuSans-2e" transform="translate(63.623047 0)"/>
      <use xlink:href="#DejaVuSans-35" transform="translate(95.410156 0)"/>
     </g>
    </g>
   </g>
   <g id="text_7">
    <!-- X (m) -->
    <g transform="translate(415.633159 881.518553) rotate(-333.374297) scale(0.14 -0.14)">
     <defs>
      <path id="DejaVuSans-58" d="M 403 4666 
L 1081 4666 
L 2241 2931 
L 3406 4666 
L 4084 4666 
L 2584 2425 
L 4184 0 
L 3506 0 
L 2194 1984 
L 872 0 
L 191 0 
L 1856 2491 
L 403 4666 
z
" transform="scale(0.015625)"/>
      <path id="DejaVuSans-20" transform="scale(0.015625)"/>
      <path id="DejaVuSans-28" d="M 1984 4856 
Q 1566 4138 1362 3434 
Q 1159 2731 1159 2009 
Q 1159 1288 1364 580 
Q 1569 -128 1984 -844 
L 1484 -844 
Q 1016 -109 783 600 
Q 550 1309 550 2009 
Q 550 2706 781 3412 
Q 1013 4119 1484 4856 
L 1984 4856 
z
" transform="scale(0.015625)"/>
      <path id="DejaVuSans-6d" d="M 3328 2828 
Q 3544 3216 3844 3400 
Q 4144 3584 4550 3584 
Q 5097 3584 5394 3201 
Q 5691 2819 5691 2113 
L 5691 0 
L 5113 0 
L 5113 2094 
Q 5113 2597 4934 2840 
Q 4756 3084 4391 3084 
Q 3944 3084 3684 2787 
Q 3425 2491 3425 1978 
L 3425 0 
L 2847 0 
L 2847 2094 
Q 2847 2600 2669 2842 
Q 2491 3084 2119 3084 
Q 1678 3084 1418 2786 
Q 1159 2488 1159 1978 
L 1159 0 
L 581 0 
L 581 3500 
L 1159 3500 
L 1159 2956 
Q 1356 3278 1631 3431 
Q 1906 3584 2284 3584 
Q 2666 3584 2933 3390 
Q 3200 3197 3328 2828 
z
" transform="scale(0.015625)"/>
      <path id="DejaVuSans-29" d="M 513 4856 
L 1013 4856 
Q 1481 4119 1714 3412 
Q 1947 2706 1947 2009 
Q 1947 1309 1714 600 
Q 1481 -109 1013 -844 
L 513 -844 
Q 928 -128 1133 580 
Q 1338 1288 1338 2009 
Q 1338 2731 1133 3434 
Q 928 4138 513 4856 
z
" transform="scale(0.015625)"/>
     </defs>
     <use xlink:href="#DejaVuSans-58"/>
     <use xlink:href="#DejaVuSans-20" transform="translate(68.505859 0)"/>
     <use xlink:href="#DejaVuSans-28" transform="translate(100.292969 0)"/>
     <use xlink:href="#DejaVuSans-6d" transform="translate(139.306641 0)"/>
     <use xlink:href="#DejaVuSans-29" transform="translate(236.71875 0)"/>
    </g>
   </g>
  </g>
  <g id="axis3d_2">
   <g id="line2d_8">
    <path d="M 1058.369247 755.391958 
L 661.063784 954.570688 
" style="fill: none; stroke: #000000; stroke-width: 0.8; stroke-linecap: square"/>
   </g>
   <g id="xtick_7">
    <g id="line2d_9">
     <path d="M 1021.68882 770.575893 
L 1031.894688 775.084644 
" style="fill: none; stroke: #000000; stroke-width: 0.8; stroke-linecap: square"/>
    </g>
    <g id="text_8">
     <!-- −3 -->
     <g transform="translate(1027.048019 795.392209) scale(0.1 -0.1)">
      <defs>
       <path id="DejaVuSans-33" d="M 2597 2516 
Q 3050 2419 3304 2112 
Q 3559 1806 3559 1356 
Q 3559 666 3084 287 
Q 2609 -91 1734 -91 
Q 1441 -91 1130 -33 
Q 819 25 488 141 
L 488 750 
Q 750 597 1062 519 
Q 1375 441 1716 441 
Q 2309 441 2620 675 
Q 2931 909 2931 1356 
Q 2931 1769 2642 2001 
Q 2353 2234 1838 2234 
L 1294 2234 
L 1294 2753 
L 1863 2753 
Q 2328 2753 2575 2939 
Q 2822 3125 2822 3475 
Q 2822 3834 2567 4026 
Q 2313 4219 1838 4219 
Q 1578 4219 1281 4162 
Q 984 4106 628 3988 
L 628 4550 
Q 988 4650 1302 4700 
Q 1616 4750 1894 4750 
Q 2613 4750 3031 4423 
Q 3450 4097 3450 3541 
Q 3450 3153 3228 2886 
Q 3006 2619 2597 2516 
z
" transform="scale(0.015625)"/>
      </defs>
      <use xlink:href="#DejaVuSans-2212"/>
      <use xlink:href="#DejaVuSans-33" transform="translate(83.789062 0)"/>
     </g>
    </g>
   </g>
   <g id="xtick_8">
    <g id="line2d_10">
     <path d="M 968.920356 796.998698 
L 979.137262 801.595989 
" style="fill: none; stroke: #000000; stroke-width: 0.8; stroke-linecap: square"/>
    </g>
    <g id="text_9">
     <!-- −2 -->
     <g transform="translate(974.345651 822.012498) scale(0.1 -0.1)">
      <defs>
       <path id="DejaVuSans-32" d="M 1228 531 
L 3431 531 
L 3431 0 
L 469 0 
L 469 531 
Q 828 903 1448 1529 
Q 2069 2156 2228 2338 
Q 2531 2678 2651 2914 
Q 2772 3150 2772 3378 
Q 2772 3750 2511 3984 
Q 2250 4219 1831 4219 
Q 1534 4219 1204 4116 
Q 875 4013 500 3803 
L 500 4441 
Q 881 4594 1212 4672 
Q 1544 4750 1819 4750 
Q 2544 4750 2975 4387 
Q 3406 4025 3406 3419 
Q 3406 3131 3298 2873 
Q 3191 2616 2906 2266 
Q 2828 2175 2409 1742 
Q 1991 1309 1228 531 
z
" transform="scale(0.015625)"/>
      </defs>
      <use xlink:href="#DejaVuSans-2212"/>
      <use xlink:href="#DejaVuSans-32" transform="translate(83.789062 0)"/>
     </g>
    </g>
   </g>
   <g id="xtick_9">
    <g id="line2d_11">
     <path d="M 915.111405 823.942507 
L 925.337799 828.630972 
" style="fill: none; stroke: #000000; stroke-width: 0.8; stroke-linecap: square"/>
    </g>
    <g id="text_10">
     <!-- −1 -->
     <g transform="translate(920.60294 849.15827) scale(0.1 -0.1)">
      <use xlink:href="#DejaVuSans-2212"/>
      <use xlink:href="#DejaVuSans-31" transform="translate(83.789062 0)"/>
     </g>
    </g>
   </g>
   <g id="xtick_10">
    <g id="line2d_12">
     <path d="M 860.230887 851.422884 
L 870.46512 856.205262 
" style="fill: none; stroke: #000000; stroke-width: 0.8; stroke-linecap: square"/>
    </g>
    <g id="text_11">
     <!-- 0 -->
     <g transform="translate(869.978618 876.845241) scale(0.1 -0.1)">
      <use xlink:href="#DejaVuSans-30"/>
     </g>
    </g>
   </g>
   <g id="xtick_11">
    <g id="line2d_13">
     <path d="M 804.246469 879.456017 
L 814.486787 884.335158 
" style="fill: none; stroke: #000000; stroke-width: 0.8; stroke-linecap: square"/>
    </g>
    <g id="text_12">
     <!-- 1 -->
     <g transform="translate(814.060633 905.089758) scale(0.1 -0.1)">
      <use xlink:href="#DejaVuSans-31"/>
     </g>
    </g>
   </g>
   <g id="xtick_12">
    <g id="line2d_14">
     <path d="M 747.124507 908.058753 
L 757.369041 913.037624 
" style="fill: none; stroke: #000000; stroke-width: 0.8; stroke-linecap: square"/>
    </g>
    <g id="text_13">
     <!-- 2 -->
     <g transform="translate(757.005146 933.908834) scale(0.1 -0.1)">
      <use xlink:href="#DejaVuSans-32"/>
     </g>
    </g>
   </g>
   <g id="xtick_13">
    <g id="line2d_15">
     <path d="M 688.829975 937.248631 
L 699.076739 942.330323 
" style="fill: none; stroke: #000000; stroke-width: 0.8; stroke-linecap: square"/>
    </g>
    <g id="text_14">
     <!-- 3 -->
     <g transform="translate(698.777092 963.320181) scale(0.1 -0.1)">
      <use xlink:href="#DejaVuSans-33"/>
     </g>
    </g>
   </g>
   <g id="text_15">
    <!-- Y (m) -->
    <g transform="translate(872.45169 898.584982) rotate(-26.625703) scale(0.14 -0.14)">
     <defs>
      <path id="DejaVuSans-59" d="M -13 4666 
L 666 4666 
L 1959 2747 
L 3244 4666 
L 3922 4666 
L 2272 2222 
L 2272 0 
L 1638 0 
L 1638 2222 
L -13 4666 
z
" transform="scale(0.015625)"/>
     </defs>
     <use xlink:href="#DejaVuSans-59"/>
     <use xlink:href="#DejaVuSans-20" transform="translate(61.083984 0)"/>
     <use xlink:href="#DejaVuSans-28" transform="translate(92.871094 0)"/>
     <use xlink:href="#DejaVuSans-6d" transform="translate(131.884766 0)"/>
     <use xlink:href="#DejaVuSans-29" transform="translate(229.296875 0)"/>
    </g>
   </g>
  </g>
  <g id="axis3d_3">
   <g id="line2d_16">
    <path d="M 1058.369247 755.391958 
L 1077.283147 234.039381 
" style="fill: none; stroke: #000000; stroke-width: 0.8; stroke-linecap: square"/>
   </g>
   <g id="xtick_14">
    <g id="line2d_17">
     <path d="M 1054.973654 753.909146 
L 1065.171676 758.362492 
" style="fill: none; stroke: #000000; stroke-width: 0.8; stroke-linecap: square"/>
    </g>
    <g id="text_16">
     <!-- 0.00 -->
     <g transform="translate(1065.385442 762.990395) scale(0.1 -0.1)">
      <use xlink:href="#DejaVuSans-30"/>
      <use xlink:href="#DejaVuSans-2e" transform="translate(63.623047 0)"/>
      <use xlink:href="#DejaVuSans-30" transform="translate(95.410156 0)"/>
      <use xlink:href="#DejaVuSans-30" transform="translate(159.033203 0)"/>
     </g>
    </g>
   </g>
   <g id="xtick_15">
    <g id="line2d_18">
     <path d="M 1057.222703 691.372322 
L 1067.482793 695.747007 
" style="fill: none; stroke: #000000; stroke-width: 0.8; stroke-linecap: square"/>
    </g>
    <g id="text_17">
     <!-- 0.25 -->
     <g transform="translate(1067.758817 700.427371) scale(0.1 -0.1)">
      <use xlink:href="#DejaVuSans-30"/>
      <use xlink:href="#DejaVuSans-2e" transform="translate(63.623047 0)"/>
      <use xlink:href="#DejaVuSans-32" transform="translate(95.410156 0)"/>
      <use xlink:href="#DejaVuSans-35" transform="translate(159.033203 0)"/>
     </g>
    </g>
   </g>
   <g id="xtick_16">
    <g id="line2d_19">
     <path d="M 1059.497581 628.117283 
L 1069.820497 632.411199 
" style="fill: none; stroke: #000000; stroke-width: 0.8; stroke-linecap: square"/>
    </g>
    <g id="text_18">
     <!-- 0.50 -->
     <g transform="translate(1070.159463 637.14543) scale(0.1 -0.1)">
      <use xlink:href="#DejaVuSans-30"/>
      <use xlink:href="#DejaVuSans-2e" transform="translate(63.623047 0)"/>
      <use xlink:href="#DejaVuSans-35" transform="translate(95.410156 0)"/>
      <use xlink:href="#DejaVuSans-30" transform="translate(159.033203 0)"/>
     </g>
    </g>
   </g>
   <g id="xtick_17">
    <g id="line2d_20">
     <path d="M 1061.798737 564.131584 
L 1072.185249 568.342567 
" style="fill: none; stroke: #000000; stroke-width: 0.8; stroke-linecap: square"/>
    </g>
    <g id="text_19">
     <!-- 0.75 -->
     <g transform="translate(1072.587856 573.132108) scale(0.1 -0.1)">
      <defs>
       <path id="DejaVuSans-37" d="M 525 4666 
L 3525 4666 
L 3525 4397 
L 1831 0 
L 1172 0 
L 2766 4134 
L 525 4134 
L 525 4666 
z
" transform="scale(0.015625)"/>
      </defs>
      <use xlink:href="#DejaVuSans-30"/>
      <use xlink:href="#DejaVuSans-2e" transform="translate(63.623047 0)"/>
      <use xlink:href="#DejaVuSans-37" transform="translate(95.410156 0)"/>
      <use xlink:href="#DejaVuSans-35" transform="translate(159.033203 0)"/>
     </g>
    </g>
   </g>
   <g id="xtick_18">
    <g id="line2d_21">
     <path d="M 1064.126628 499.402493 
L 1074.577522 503.528318 
" style="fill: none; stroke: #000000; stroke-width: 0.8; stroke-linecap: square"/>
    </g>
    <g id="text_20">
     <!-- 1.00 -->
     <g transform="translate(1075.044477 508.374654) scale(0.1 -0.1)">
      <use xlink:href="#DejaVuSans-31"/>
      <use xlink:href="#DejaVuSans-2e" transform="translate(63.623047 0)"/>
      <use xlink:href="#DejaVuSans-30" transform="translate(95.410156 0)"/>
      <use xlink:href="#DejaVuSans-30" transform="translate(159.033203 0)"/>
     </g>
    </g>
   </g>
   <g id="xtick_19">
    <g id="line2d_22">
     <path d="M 1066.481723 433.916978 
L 1076.997798 437.955359 
" style="fill: none; stroke: #000000; stroke-width: 0.8; stroke-linecap: square"/>
    </g>
    <g id="text_21">
     <!-- 1.25 -->
     <g transform="translate(1077.529823 442.860015) scale(0.1 -0.1)">
      <use xlink:href="#DejaVuSans-31"/>
      <use xlink:href="#DejaVuSans-2e" transform="translate(63.623047 0)"/>
      <use xlink:href="#DejaVuSans-32" transform="translate(95.410156 0)"/>
      <use xlink:href="#DejaVuSans-35" transform="translate(159.033203 0)"/>
     </g>
    </g>
   </g>
   <g id="xtick_20">
    <g id="line2d_23">
     <path d="M 1068.864501 367.661702 
L 1079.446573 371.61029 
" style="fill: none; stroke: #000000; stroke-width: 0.8; stroke-linecap: square"/>
    </g>
    <g id="text_22">
     <!-- 1.50 -->
     <g transform="translate(1080.0444 376.574833) scale(0.1 -0.1)">
      <use xlink:href="#DejaVuSans-31"/>
      <use xlink:href="#DejaVuSans-2e" transform="translate(63.623047 0)"/>
      <use xlink:href="#DejaVuSans-35" transform="translate(95.410156 0)"/>
      <use xlink:href="#DejaVuSans-30" transform="translate(159.033203 0)"/>
     </g>
    </g>
   </g>
   <g id="xtick_21">
    <g id="line2d_24">
     <path d="M 1071.275453 300.623012 
L 1081.924352 304.479393 
" style="fill: none; stroke: #000000; stroke-width: 0.8; stroke-linecap: square"/>
    </g>
    <g id="text_23">
     <!-- 1.75 -->
     <g transform="translate(1082.588727 309.505434) scale(0.1 -0.1)">
      <use xlink:href="#DejaVuSans-31"/>
      <use xlink:href="#DejaVuSans-2e" transform="translate(63.623047 0)"/>
      <use xlink:href="#DejaVuSans-37" transform="translate(95.410156 0)"/>
      <use xlink:href="#DejaVuSans-35" transform="translate(159.033203 0)"/>
     </g>
    </g>
   </g>
   <g id="xtick_22">
    <g id="line2d_25">
     <path d="M 1073.715082 232.786932 
L 1084.431655 236.548624 
" style="fill: none; stroke: #000000; stroke-width: 0.8; stroke-linecap: square"/>
    </g>
    <g id="text_24">
     <!-- 2.00 -->
     <g transform="translate(1085.163334 241.637818) scale(0.1 -0.1)">
      <use xlink:href="#DejaVuSans-32"/>
      <use xlink:href="#DejaVuSans-2e" transform="translate(63.623047 0)"/>
      <use xlink:href="#DejaVuSans-30" transform="translate(95.410156 0)"/>
      <use xlink:href="#DejaVuSans-30" transform="translate(159.033203 0)"/>
     </g>
    </g>
   </g>
   <g id="text_25">
    <!-- Z (m) -->
    <g transform="translate(1111.138841 520.203897) rotate(-87.922305) scale(0.14 -0.14)">
     <defs>
      <path id="DejaVuSans-5a" d="M 359 4666 
L 4025 4666 
L 4025 4184 
L 1075 531 
L 4097 531 
L 4097 0 
L 288 0 
L 288 481 
L 3238 4134 
L 359 4134 
L 359 4666 
z
" transform="scale(0.015625)"/>
     </defs>
     <use xlink:href="#DejaVuSans-5a"/>
     <use xlink:href="#DejaVuSans-20" transform="translate(68.505859 0)"/>
     <use xlink:href="#DejaVuSans-28" transform="translate(100.292969 0)"/>
     <use xlink:href="#DejaVuSans-6d" transform="translate(139.306641 0)"/>
     <use xlink:href="#DejaVuSans-29" transform="translate(236.71875 0)"/>
    </g>
   </g>
  </g>
  <g id="axes_1">
   <g id="line2d_26">
    <path d="M 677.452525 767.645846 
L 677.909567 767.928207 
L 679.154072 768.301502 
L 679.125581 768.186514 
L 681.367588 769.318514 
L 682.781293 769.721941 
L 681.371486 769.09621 
L 682.766133 770.114486 
L 682.707213 769.905575 
L 682.812958 770.121037 
L 682.731359 770.107851 
L 683.050931 770.156494 
L 681.128135 769.104891 
L 682.821188 769.833797 
L 682.706835 769.863705 
L 682.927578 769.4586 
L 682.717574 769.745503 
L 682.329826 769.807564 
L 681.038736 769.245344 
L 681.905598 769.796507 
L 680.188354 768.933557 
L 682.571295 769.834979 
L 682.892075 770.090478 
L 682.664886 769.846396 
L 679.488609 768.94081 
L 677.337622 768.386811 
L 678.772728 769.57037 
L 678.084926 769.47629 
L 678.533059 769.711148 
L 683.572988 772.875912 
L 683.300018 772.216007 
L 685.459833 773.450571 
L 683.66342 772.726486 
L 685.572728 773.145329 
L 686.11439 773.421458 
L 682.599224 772.27857 
L 681.323668 771.391386 
L 682.323527 771.975137 
L 682.971044 772.085639 
L 683.614634 772.398593 
L 682.186142 771.681528 
L 682.420147 772.381589 
L 684.323006 773.276547 
L 683.360085 772.940077 
L 683.3495 772.987487 
L 683.458001 772.673936 
L 683.518094 773.006642 
L 682.092921 772.386816 
L 681.211544 772.193086 
L 680.340205 771.880632 
L 681.692905 772.389618 
L 685.414774 769.700049 
L 684.676683 769.367415 
L 685.029329 769.118456 
L 684.569649 768.914544 
L 688.064929 770.484503 
L 688.039624 770.341729 
L 689.392166 770.699443 
L 691.310292 771.632865 
L 691.087813 771.480535 
L 688.705335 770.561614 
L 689.017806 770.448937 
L 688.258732 770.355897 
L 690.105111 771.144671 
L 689.48513 770.703382 
L 688.540342 770.395341 
L 687.935603 770.34006 
L 687.261594 770.086738 
L 686.625773 769.286351 
L 687.425013 769.952836 
L 689.836496 771.057272 
L 691.33569 770.747721 
L 694.158912 771.711729 
L 692.855661 770.084157 
L 689.562291 767.485241 
L 687.341598 761.173924 
L 687.282283 753.455986 
L 687.863378 748.374867 
L 688.293057 746.649386 
L 688.988156 746.028878 
L 689.52943 744.441611 
L 689.463882 741.777044 
L 688.786424 736.869823 
L 689.959901 724.940003 
L 688.970999 707.982158 
L 687.37391 689.99735 
L 686.929183 682.254395 
L 686.886242 674.845354 
L 685.791973 666.518218 
L 685.974641 659.629878 
L 685.95598 652.9387 
L 686.325241 645.891241 
L 687.479297 639.653669 
L 690.804456 619.679596 
L 691.438532 613.207846 
L 691.502865 607.294544 
L 691.751292 601.231289 
L 691.73475 595.305514 
L 692.603079 590.702102 
L 692.021149 586.787093 
L 693.160697 581.723814 
L 687.209453 573.459965 
L 687.484413 566.612071 
L 686.617385 559.410603 
L 687.184126 553.124222 
L 688.979205 547.705516 
L 688.054824 535.889765 
L 690.783317 532.649551 
L 688.950291 525.750591 
L 698.152384 522.066621 
L 701.714632 519.099811 
L 702.39495 514.680661 
L 701.479766 510.896655 
L 700.205311 504.109959 
L 699.327112 496.97749 
L 695.121334 489.8855 
L 693.699104 483.263544 
L 693.516472 477.217947 
L 694.605655 472.281266 
L 694.59751 467.429532 
L 694.220851 462.120218 
L 694.580173 456.934404 
L 688.846035 449.023747 
L 688.685639 441.638311 
L 688.225089 437.217656 
L 688.559962 432.091991 
L 688.527257 427.963613 
L 693.060182 427.156816 
L 692.269775 422.201938 
L 696.314568 415.416546 
L 695.957719 407.973671 
L 697.58685 401.904684 
L 694.71815 395.684451 
L 695.159356 393.681938 
L 693.64876 391.075001 
L 694.004942 387.026689 
L 689.380971 375.908741 
L 690.249553 371.00963 
L 689.119559 363.031781 
L 690.242074 363.564193 
L 690.473249 364.48494 
L 690.435166 367.334555 
L 689.072732 370.311469 
L 689.938632 365.311872 
L 689.77655 360.640289 
L 689.125589 362.852906 
L 689.601993 365.097157 
L 690.896381 369.026337 
L 689.281334 370.125007 
L 687.628917 368.916352 
L 687.777325 370.009938 
L 687.064109 371.597219 
L 687.599173 366.303324 
L 687.254767 367.510567 
L 687.73486 372.006037 
L 688.195429 374.56634 
L 685.975498 373.6843 
L 684.121375 374.81292 
L 684.423132 372.783322 
L 686.351209 373.679337 
L 686.496356 377.063252 
L 687.224048 376.805385 
L 687.978057 380.072154 
L 687.658137 383.84596 
L 690.258809 388.456633 
L 688.816881 385.479414 
L 688.159968 382.940146 
L 688.288065 381.482279 
L 686.914639 383.473513 
L 690.490244 383.848683 
L 685.871848 379.550154 
L 688.477572 380.407663 
L 688.180153 384.113523 
L 687.661691 386.201011 
L 688.467164 390.027775 
L 690.006629 392.871253 
L 691.589072 392.712937 
L 695.096719 391.986518 
L 696.237971 390.22077 
L 696.432675 389.076287 
L 696.89729 389.163402 
L 694.289281 389.190325 
L 693.185098 388.414412 
L 692.446438 390.711487 
L 690.323628 389.331815 
L 689.627028 392.607615 
L 691.24792 398.759306 
L 690.770218 395.752874 
L 690.570723 392.320785 
L 689.271563 392.734492 
L 689.395163 393.464315 
L 689.2088 390.895129 
L 688.18221 395.453013 
L 683.631635 390.968148 
L 684.404879 390.79163 
L 683.247175 392.696194 
L 684.343104 396.202756 
L 684.112693 395.348365 
L 685.923299 399.615904 
L 686.132777 400.873773 
L 687.173776 400.199303 
L 686.825601 403.661911 
L 681.835455 398.719009 
L 682.402799 395.061806 
L 680.783272 393.545087 
L 677.988634 397.605944 
L 674.671666 398.122066 
L 670.178773 403.36762 
L 667.238083 403.558852 
L 664.552768 405.767473 
L 664.281535 405.028915 
L 662.594668 408.753009 
L 661.248268 408.72882 
L 657.215314 405.478463 
L 655.568019 409.136077 
L 653.050014 408.635087 
L 653.068741 411.111315 
L 649.737383 413.874361 
L 649.360467 413.372657 
L 646.24097 412.673631 
L 644.164024 412.702782 
L 642.494906 411.581774 
L 640.213614 412.064152 
L 638.302587 412.652981 
L 636.209149 415.359506 
L 634.156731 419.649745 
L 632.30076 419.061827 
L 631.011571 417.353826 
L 630.667873 418.580493 
L 630.282702 418.96735 
L 630.432028 419.51525 
L 630.255808 417.852129 
L 630.530292 420.87332 
L 630.585697 423.944134 
L 632.047984 416.682748 
L 637.116619 415.197623 
L 637.617902 413.669274 
L 626.942506 416.615035 
L 629.706053 420.459017 
L 625.896033 424.152702 
L 624.944899 428.568864 
L 625.167706 419.874832 
L 625.207085 419.917606 
L 625.244491 419.962225 
L 625.296554 424.500812 
L 625.363123 423.347837 
L 625.557102 425.342505 
L 625.692209 425.229835 
L 625.933789 426.555607 
L 626.07844 426.664933 
L 626.181965 426.319046 
L 626.472714 421.262108 
L 610.692538 418.357618 
L 607.507681 419.201715 
L 609.163315 418.569604 
L 607.488025 419.354321 
L 607.723679 422.909073 
L 606.287134 420.625824 
L 605.1841 416.212205 
L 605.334825 413.902458 
L 604.825919 416.176665 
L 604.692614 418.187881 
L 604.618605 422.382846 
L 604.325564 419.896706 
L 604.913928 421.425241 
L 604.639118 416.599557 
L 604.477402 418.616662 
L 605.603456 415.64639 
L 605.367359 417.836117 
L 605.366119 419.263103 
L 605.696156 421.62996 
L 605.613073 420.554521 
L 605.460433 416.474041 
L 605.09497 416.810408 
L 604.797361 417.718871 
L 604.879111 418.195444 
L 604.690799 419.588748 
L 604.850845 419.396259 
L 604.31841 416.083183 
L 607.989077 420.408044 
L 604.829901 418.132769 
L 604.913616 419.297024 
L 604.920505 418.443867 
L 605.115283 418.705477 
L 602.578983 453.462035 
L 591.719699 449.584848 
L 536.850949 426.845354 
L 535.396101 434.867121 
L 535.381783 453.078099 
L 539.150322 468.600364 
L 544.424218 470.824593 
L 550.280289 467.734342 
L 551.809699 462.665894 
L 556.415278 455.89468 
L 558.321457 451.252488 
L 560.05065 445.430375 
L 562.130785 443.579995 
L 564.140899 444.0392 
L 565.641897 443.153532 
L 567.396873 442.829699 
L 569.067198 441.63991 
L 559.390387 455.458632 
L 561.829303 467.570453 
L 552.237615 466.413988 
L 553.882055 466.039069 
L 555.120331 467.93335 
L 554.548488 474.345545 
L 559.208514 479.120813 
L 560.017055 486.443265 
L 560.77275 490.343014 
L 563.966017 488.299298 
L 566.215166 484.805062 
L 568.100184 479.797961 
L 570.486195 477.268209 
L 571.944641 473.061959 
L 574.087022 471.448782 
L 575.409039 468.099211 
L 578.408792 472.153517 
L 579.442092 472.012691 
L 579.980053 471.285705 
L 581.109104 471.349578 
L 583.305475 474.253812 
L 582.725293 473.692568 
L 582.516978 473.739947 
L 581.530873 465.734932 
L 581.186146 469.081724 
L 580.981307 481.212403 
L 581.273439 483.135432 
L 581.704213 477.167463 
L 581.943795 469.430813 
L 582.166177 468.556226 
L 582.24779 468.925663 
L 581.728227 469.64262 
L 579.914656 469.793554 
L 576.774505 471.434012 
L 573.60381 473.69904 
L 567.809933 472.853506 
L 562.787766 470.997269 
L 557.829315 468.959475 
L 553.373308 464.582565 
L 549.026422 460.023458 
L 546.330834 456.952112 
L 542.311585 454.878093 
L 538.238616 453.174553 
L 536.999116 453.748526 
L 533.448569 452.570593 
L 531.301272 452.059828 
L 527.958755 450.710356 
L 524.68341 450.306685 
L 519.592631 447.168479 
L 515.795704 444.60106 
L 512.758745 441.448019 
L 509.42711 439.275515 
L 505.183214 440.772197 
L 503.814542 442.070071 
L 498.878773 440.45048 
L 494.774738 440.48829 
L 492.570359 438.228196 
L 490.327302 438.416452 
L 484.481253 436.364063 
L 480.872698 433.425402 
L 477.126352 431.291533 
L 474.532831 427.172742 
L 470.637131 424.764525 
L 468.165338 421.812637 
L 462.227292 422.11189 
L 458.370643 420.460327 
L 455.500262 420.905247 
L 451.983154 418.879988 
L 441.602635 417.05332 
L 436.391075 415.471912 
L 433.836351 414.500387 
L 428.551144 406.531108 
L 424.601436 405.52912 
L 419.677099 405.235827 
L 416.12004 408.400513 
L 409.604009 404.337881 
L 406.684302 403.011658 
L 407.07851 401.897016 
L 401.838369 398.690205 
L 398.37634 395.669493 
L 396.372767 395.684825 
L 393.516209 397.978188 
L 389.483904 396.510864 
L 385.543051 395.381355 
L 377.936678 390.084753 
L 375.534652 390.236483 
L 370.267984 389.051011 
L 365.778799 387.336315 
L 362.575274 385.879576 
L 360.491113 386.691066 
L 357.914652 384.944831 
L 356.129175 383.492327 
L 351.7284 378.431905 
L 353.686905 379.717215 
L 347.768746 375.049173 
L 346.407888 375.779497 
L 347.861751 380.7873 
L 346.970709 379.018024 
L 348.640608 376.341186 
L 349.419901 374.25896 
L 352.1721 376.301475 
L 353.29758 379.890258 
L 353.885063 378.087428 
L 352.499315 376.850014 
L 350.896768 377.818939 
L 348.052488 381.616156 
L 345.982932 381.3523 
L 343.118449 376.906918 
L 343.834156 378.629102 
L 342.045465 377.183353 
L 339.780226 374.405736 
L 335.742852 370.213206 
L 335.431206 370.719102 
L 332.628688 368.651587 
L 330.32396 365.574494 
L 326.950446 368.57826 
L 325.970596 370.636646 
L 324.01426 371.804954 
L 324.011602 369.129612 
L 322.722468 365.838478 
L 321.961656 366.547419 
L 318.846532 366.368533 
L 318.265699 367.359261 
L 316.935095 366.381936 
L 316.80055 365.437515 
L 315.563825 367.260116 
L 313.91532 364.014033 
L 314.602653 365.373052 
L 312.469871 364.763862 
L 312.544229 364.30762 
L 311.929051 365.588074 
L 307.745646 366.865214 
L 308.06908 367.902154 
L 308.272215 367.598912 
L 308.346639 370.30589 
L 311.292428 373.360258 
L 312.367532 371.527067 
L 313.991005 370.439451 
L 314.403184 370.477657 
L 314.627314 370.207249 
L 315.892715 370.335542 
L 313.216092 369.017691 
L 315.555348 367.256308 
L 316.671996 368.556486 
L 320.107954 368.243549 
L 322.183755 372.417405 
L 324.612315 379.388495 
L 328.929553 379.651327 
L 329.743083 373.381731 
L 331.288612 369.260499 
L 332.214318 365.897168 
L 333.910438 362.918159 
L 334.746654 363.276587 
L 335.477425 361.213705 
L 336.946958 362.751311 
L 338.582504 365.034361 
L 340.204334 363.381851 
L 341.970565 364.295224 
L 343.558266 361.132481 
L 345.303846 360.91559 
L 347.121372 362.117047 
L 348.841049 359.563914 
L 350.726104 359.333084 
L 352.540086 356.199827 
L 354.289879 351.06286 
L 356.2232 349.650222 
L 358.254706 352.750383 
L 366.002356 355.792937 
L 364.319203 362.062206 
L 366.050968 362.17072 
L 367.72958 360.188726 
L 369.38165 354.85502 
L 371.025174 351.575421 
L 374.870418 355.255501 
L 376.699907 355.193894 
L 378.377514 353.278159 
L 380.167582 351.022631 
L 382.000254 348.520679 
L 383.829492 348.628036 
L 385.525366 348.333928 
L 387.636465 351.800891 
L 389.408702 351.126961 
L 391.358213 350.789577 
L 393.223065 348.385498 
L 395.028538 345.675148 
L 396.784223 343.468751 
L 398.685948 340.559006 
L 400.603993 336.932313 
L 402.089478 336.803642 
L 403.812107 335.879469 
L 405.402699 339.793276 
L 407.132038 340.806467 
L 408.861735 339.539384 
L 410.315006 339.777099 
L 411.961196 338.633537 
L 418.021388 367.248204 
L 396.418882 370.062851 
L 396.771203 379.402928 
L 390.541828 367.697566 
L 389.269478 368.36264 
L 400.63014 376.050607 
L 401.328217 385.593227 
L 404.139284 391.539135 
L 405.76921 388.984376 
L 407.539337 385.485621 
L 409.184238 380.441723 
L 410.8393 376.595495 
L 412.461737 372.131726 
L 414.180139 373.175255 
L 415.862658 375.054517 
L 417.368314 372.791577 
L 418.957441 372.603249 
L 420.453717 370.002444 
L 438.703742 376.473982 
L 455.960448 383.723331 
L 457.705341 384.171864 
L 462.148839 388.206721 
L 461.305112 387.049284 
L 459.524297 389.496709 
L 448.887033 385.948544 
L 447.242833 383.348197 
L 441.1752 380.548457 
L 441.311129 380.487229 
L 445.629038 381.344964 
L 449.807383 382.536225 
L 454.442174 379.996133 
L 459.056569 380.217105 
L 460.117001 380.028145 
L 462.16706 382.027462 
L 463.799316 382.40343 
L 465.074628 380.143869 
L 466.689159 378.272923 
L 468.6496 379.395514 
L 470.340836 378.283414 
L 472.271558 378.040516 
L 474.241049 380.600772 
L 476.237607 376.59112 
L 478.128495 373.521072 
L 479.964733 373.306219 
L 481.900001 373.565303 
L 483.814476 372.875544 
L 487.715451 376.961893 
L 489.561816 375.269547 
L 491.348168 369.921401 
L 493.243659 372.094587 
L 495.073325 369.823289 
L 496.926004 369.512869 
L 498.754747 367.745136 
L 500.57389 365.519821 
L 502.321232 362.966402 
L 503.920529 364.705072 
L 505.609486 365.593979 
L 507.258388 368.287766 
L 508.959166 368.079262 
L 510.692162 361.694677 
L 512.289045 360.335515 
L 513.933326 359.691474 
L 515.858932 364.03459 
L 516.912302 360.882275 
L 492.943076 362.087504 
L 482.044673 366.633791 
L 485.875913 365.446222 
L 485.217476 366.723953 
L 487.856697 365.209839 
L 488.41917 362.09301 
L 489.732097 359.057431 
L 491.045332 356.477767 
L 495.564344 360.494397 
L 496.446189 359.155259 
L 498.464241 359.077295 
L 500.203067 358.240469 
L 502.61623 354.888992 
L 504.228943 355.07663 
L 505.640005 356.464243 
L 507.543294 354.553117 
L 509.332151 353.871457 
L 520.43319 358.068571 
L 539.538064 368.909584 
L 538.962736 367.818283 
L 533.471209 374.110661 
L 529.916379 379.614301 
L 536.241589 376.138948 
L 537.780851 373.758948 
L 541.740934 380.032315 
L 538.305465 377.79315 
L 543.078129 377.289579 
L 547.156865 375.710715 
L 552.299661 375.521221 
L 551.361771 374.110377 
L 551.784097 373.418109 
L 554.800081 375.468726 
L 553.137652 372.085888 
L 554.08836 368.579399 
L 556.681995 367.849566 
L 557.087265 369.618748 
L 560.220977 369.194318 
L 560.72719 367.712346 
L 563.869134 368.859873 
L 565.425443 368.807564 
L 568.230952 367.267343 
L 569.395849 367.418501 
L 571.169058 369.352123 
L 572.122729 367.853741 
L 573.726816 365.758419 
L 575.322251 364.788881 
L 576.622507 362.428865 
L 578.418266 364.534502 
L 580.334644 362.197876 
L 582.132963 362.899365 
L 584.257286 360.6741 
L 585.853309 359.660246 
L 587.6766 362.07505 
L 589.037248 361.847927 
L 590.14604 358.81864 
L 591.559937 355.305177 
L 593.330806 356.853802 
L 595.034554 359.133161 
L 596.530711 361.494352 
L 598.703173 360.491266 
L 599.982142 359.100085 
L 601.756192 354.387939 
L 603.250206 352.533442 
L 604.467109 349.558339 
L 606.495052 350.917648 
L 607.854918 350.132172 
L 610.020728 350.77824 
L 612.116749 350.185446 
L 616.090559 349.443399 
L 618.236831 349.483558 
L 621.160707 350.704859 
L 622.761545 349.032507 
L 623.829903 349.600388 
L 625.780515 346.629363 
L 627.656411 347.777902 
L 628.670268 345.512248 
L 630.780876 345.093982 
L 632.854787 345.717972 
L 635.811765 345.958781 
L 637.767363 343.890713 
L 640.234546 343.189675 
L 641.765264 341.369195 
L 643.716779 342.090073 
L 644.898016 341.530345 
L 645.098141 340.909578 
L 647.073949 340.633061 
L 649.389859 338.655068 
L 651.468946 339.804618 
L 654.007959 338.983888 
L 655.933534 338.090387 
L 659.211656 338.152148 
L 661.286688 336.427563 
L 662.963285 336.794462 
L 664.602487 336.012319 
L 666.758629 337.397002 
L 666.829206 334.401442 
L 671.857487 338.041656 
L 672.413449 335.85897 
L 674.730899 335.582533 
L 675.913738 333.774527 
L 677.749498 331.18654 
L 679.977786 331.427595 
L 680.738114 329.609993 
L 682.964787 328.705 
L 684.58229 328.462172 
L 685.999848 330.459651 
L 688.899371 329.164189 
L 691.775133 330.707904 
L 696.298607 331.61447 
L 698.036477 329.936091 
L 700.234185 327.346889 
L 703.527743 326.552422 
L 705.30128 326.559082 
L 709.887642 326.736444 
L 711.110942 326.899986 
L 714.382871 327.194041 
L 716.34741 327.998449 
L 717.750713 323.607671 
L 718.491795 322.067948 
L 719.634139 322.003037 
L 720.436636 323.817397 
L 720.448103 322.059559 
L 722.802959 323.971989 
L 725.287553 319.107818 
L 727.026585 317.081315 
L 728.82259 318.73689 
L 730.282316 321.130166 
L 732.741799 322.284319 
L 734.071058 323.419293 
L 734.841614 321.882181 
L 737.40276 320.804822 
L 740.57944 320.485698 
L 742.422937 319.432904 
L 747.729397 321.705876 
L 748.882912 322.611385 
L 751.720384 321.812833 
L 749.31311 319.656167 
L 752.724704 317.988518 
L 754.042907 318.457813 
L 755.558735 319.667395 
L 755.664202 317.557533 
L 759.182977 317.302435 
L 761.557916 312.506452 
L 763.385418 313.85679 
L 765.165129 313.462016 
L 766.983673 317.319124 
L 768.670767 316.821856 
L 770.418646 316.541982 
L 772.211082 317.070506 
L 773.970661 314.685508 
L 775.552757 314.954521 
L 777.407194 310.922519 
L 778.978351 310.004666 
L 780.519969 310.224442 
L 781.844177 311.146293 
L 785.735033 313.60458 
L 789.76228 311.857624 
L 792.586609 312.97819 
L 790.050783 311.33774 
L 800.385589 316.393464 
L 804.243711 316.885987 
L 811.81002 318.436919 
L 812.511265 315.989293 
L 813.866825 309.74584 
L 812.76584 306.29712 
L 818.033883 307.435848 
L 823.229094 305.69475 
L 823.367866 307.559905 
L 823.903905 308.068078 
L 830.117173 309.700459 
L 832.646755 308.708624 
L 836.336892 307.898208 
L 835.924388 305.253824 
L 836.994331 305.058405 
L 834.073113 308.975543 
L 836.943589 309.390034 
L 838.046592 306.577638 
L 840.528925 306.087156 
L 837.952405 306.930315 
L 837.893302 307.069858 
L 836.399236 306.141375 
L 837.023926 305.979789 
L 838.421146 309.090763 
L 837.526489 311.357795 
L 835.310356 307.796527 
L 838.793014 308.46566 
L 838.771646 308.439261 
L 839.743326 307.825786 
L 843.638819 308.694359 
L 846.109721 309.507737 
L 846.092432 310.763139 
L 846.399115 309.251225 
L 846.602762 310.112111 
L 847.254152 310.17411 
L 847.468665 311.118095 
L 847.089323 309.384993 
L 848.517574 308.690436 
L 846.302312 308.23411 
L 844.328413 304.58968 
L 849.265794 305.615986 
L 852.494829 304.900592 
L 854.006012 306.584476 
L 857.086158 306.147547 
L 857.776767 307.7326 
L 858.522181 311.291274 
L 858.491104 313.57001 
L 859.820645 312.403729 
L 857.358507 311.395431 
L 858.817098 310.24555 
L 856.533506 307.677025 
L 856.43312 307.655006 
L 857.138557 308.030007 
L 863.363282 308.639059 
L 864.73317 310.934098 
L 871.632312 313.405349 
L 871.080654 312.709672 
L 872.131693 313.357353 
L 872.098904 311.551664 
L 866.069449 310.82781 
L 867.232723 313.16374 
L 867.257037 312.703193 
L 867.423496 314.166557 
L 867.290139 313.80986 
L 869.214284 314.827166 
L 864.023974 311.91877 
L 864.763074 311.754642 
L 862.438339 309.766338 
L 872.874099 313.884729 
L 875.067476 314.069737 
L 882.290376 317.820319 
L 883.191519 320.700524 
L 884.416268 323.269871 
L 884.964459 319.509913 
L 881.867459 317.883856 
L 884.089529 320.427882 
L 882.932094 314.647819 
L 883.3481 316.796474 
L 881.996877 317.945593 
L 881.987661 317.520572 
L 882.87848 319.579405 
L 885.600681 322.469716 
L 887.941842 321.749983 
L 896.123268 322.092907 
L 897.129625 321.410562 
L 898.052206 321.555773 
L 893.529898 320.166235 
L 887.194067 321.081973 
L 874.776709 317.498381 
L 867.119213 317.430307 
L 860.854459 315.735721 
L 847.651846 310.813541 
L 846.708465 305.462125 
L 842.339098 303.1742 
L 843.989648 304.334639 
L 844.070421 305.728301 
L 838.994282 304.99204 
L 832.765711 304.982064 
L 827.830654 303.170008 
L 827.615642 301.546891 
L 831.333072 303.794264 
L 836.270478 306.527035 
L 841.52968 306.170739 
L 847.45771 307.126129 
L 846.944383 306.774376 
L 845.17444 307.583823 
L 843.099446 309.336567 
L 838.047098 307.802389 
L 836.894317 306.752456 
L 834.74677 306.150619 
L 836.032654 307.028385 
L 838.71878 311.420322 
L 840.730898 311.135281 
L 845.661772 311.175028 
L 847.382981 312.202833 
L 852.166818 315.421823 
L 851.489357 314.626409 
L 852.989856 313.849159 
L 853.14263 313.000392 
L 851.123364 312.271239 
L 850.832369 308.905751 
L 850.518217 311.914648 
L 849.685543 313.254341 
L 848.474601 312.580317 
L 848.672829 310.754552 
L 849.457481 314.791839 
L 849.432915 314.383925 
L 849.522851 310.413548 
L 849.19966 307.632834 
L 843.329999 308.628305 
L 842.174147 310.039911 
L 841.757329 310.89789 
L 841.75748 311.359296 
L 843.349093 312.204203 
L 837.934511 309.613152 
L 836.085514 309.724802 
L 838.979558 312.153623 
L 848.191138 315.237756 
L 854.54006 312.946996 
L 861.587066 315.124155 
L 872.509064 317.121573 
L 878.952978 322.459292 
L 883.240152 322.162631 
L 888.207802 327.881914 
L 895.992099 332.129728 
L 896.986939 329.427757 
L 897.795304 330.528695 
L 891.180522 334.462114 
L 885.998809 334.010324 
L 879.666783 330.939871 
L 876.536833 331.257426 
L 876.101367 328.969414 
L 876.372286 323.725727 
L 878.951252 322.440154 
L 882.95096 322.508776 
L 884.575109 328.809359 
L 887.724323 331.781407 
L 889.95106 332.267305 
L 888.711211 335.063811 
L 889.21179 334.821375 
L 887.57145 334.851177 
L 886.259857 332.303775 
L 884.901529 330.711808 
L 885.097861 328.401653 
L 884.033716 331.560004 
L 885.736689 335.405748 
L 890.070669 337.54478 
L 895.269587 334.306981 
L 897.321262 335.505041 
L 896.737232 335.775639 
L 895.907181 336.46865 
L 898.535863 338.090326 
L 897.005279 341.199116 
L 897.162173 340.453345 
L 896.851745 339.899477 
L 897.166973 340.33226 
L 898.298978 337.853914 
L 900.788714 337.666966 
L 904.30483 338.486086 
L 909.788513 341.652677 
L 910.028613 338.993002 
L 914.456415 339.738639 
L 915.206083 344.531235 
L 912.313316 341.160344 
L 914.130082 341.364188 
L 912.070371 342.663529 
L 910.606406 349.267773 
L 907.888723 351.270156 
L 906.105868 350.413803 
L 904.996275 351.034142 
L 901.612078 349.599191 
L 898.405889 345.185206 
L 897.881254 343.84823 
L 895.839514 342.058229 
L 897.515111 340.392783 
L 897.858307 344.188192 
L 900.659649 350.116254 
L 901.880087 352.244721 
L 904.992249 355.944004 
L 906.296016 354.452549 
L 906.234959 352.19538 
L 907.416855 351.913008 
L 907.493835 349.183331 
L 906.870684 351.658757 
L 906.666882 350.4871 
L 905.768376 347.848801 
L 907.788898 349.063674 
L 913.989992 355.814864 
L 916.461494 355.505972 
L 917.671415 357.543222 
L 918.621758 357.606902 
L 918.736467 357.225075 
L 918.116319 351.36613 
L 917.282736 348.680482 
L 917.702309 348.029281 
L 919.111519 356.178071 
L 919.569041 353.078577 
L 922.774233 356.359326 
L 925.524476 356.486783 
L 926.980026 356.287499 
L 927.75294 357.497422 
L 928.743352 357.923767 
L 929.493311 360.024654 
L 930.926114 358.419746 
L 931.608474 359.339098 
L 931.214803 358.156645 
L 932.412739 356.248385 
L 932.082462 356.462971 
L 933.076588 356.893432 
L 928.816395 355.597121 
L 935.934363 357.368997 
L 932.61703 352.297519 
L 929.594251 352.93159 
L 923.430604 355.243072 
L 919.925684 362.691491 
L 908.872106 356.143705 
L 902.166797 351.327459 
L 903.75762 350.758174 
L 906.907409 351.360414 
L 914.767719 353.85364 
L 918.061836 354.214729 
L 921.725552 355.041206 
L 923.847584 358.489148 
L 921.661241 356.539979 
L 918.255609 352.651775 
L 918.436928 354.755051 
L 919.20931 356.690384 
L 920.47937 359.328903 
L 923.089885 359.845832 
L 923.623255 358.106093 
L 924.407488 357.374192 
L 927.247939 357.736324 
L 926.621115 357.506842 
L 928.717879 359.325138 
L 929.195323 362.81725 
L 930.286798 360.820997 
L 931.333839 361.679889 
L 938.754678 366.286177 
L 939.440807 367.233495 
L 941.380614 365.568375 
L 940.790248 363.598808 
L 940.737518 364.18656 
L 936.540046 363.461683 
L 936.415027 361.217894 
L 937.033939 362.133971 
L 936.319849 367.300993 
L 940.194953 367.709158 
L 942.259205 365.602143 
L 946.819443 368.765901 
L 948.337407 367.144307 
L 949.780716 364.90297 
L 944.720743 366.533543 
L 946.3363 369.77956 
L 945.36867 373.189541 
L 940.450954 376.38332 
L 937.593129 381.131416 
L 937.353472 377.681757 
L 935.07665 377.523175 
L 935.855294 381.804687 
L 937.027991 379.717325 
L 936.439241 382.559903 
L 936.826313 381.936712 
L 935.990862 381.954547 
L 935.998691 383.809244 
L 934.555975 383.261378 
L 932.893913 382.311662 
L 933.337581 383.162068 
L 933.023907 388.73983 
L 932.69297 391.159194 
L 932.937021 394.328256 
L 930.692173 394.763018 
L 931.426085 399.243027 
L 932.030431 397.391878 
L 932.559884 401.190184 
L 932.332647 396.372923 
L 929.094067 394.767891 
L 928.847283 395.733578 
L 927.012915 398.165467 
L 924.169066 404.115661 
L 922.012755 403.563621 
L 918.887382 403.269043 
L 919.974976 405.330014 
L 916.768505 400.725854 
L 914.883051 400.4278 
L 914.231902 402.517 
L 911.486113 403.409246 
L 909.590894 403.298685 
L 907.3672 402.042935 
L 907.922953 404.575419 
L 909.537259 405.065996 
L 910.15955 408.650141 
L 910.263588 405.479185 
L 908.79033 404.500279 
L 909.078093 404.394561 
L 907.449604 405.710111 
L 906.257184 404.913678 
L 905.978052 407.02797 
L 904.20996 406.945832 
L 903.671329 406.519536 
L 903.78385 412.257875 
L 903.429024 413.00823 
L 904.218107 412.856081 
L 904.043824 410.284926 
L 904.146218 405.872654 
L 902.997161 406.240753 
L 902.708605 405.090091 
L 901.462196 405.586711 
L 901.201552 409.502191 
L 900.90722 408.780869 
L 900.413686 410.736461 
L 899.26906 409.736354 
L 901.914771 413.313702 
L 902.003516 411.647992 
L 901.587101 411.238106 
L 903.249123 413.837296 
L 902.994456 415.452406 
L 902.257571 415.059962 
L 902.037527 418.324302 
L 900.933373 416.306879 
L 901.374224 415.728246 
L 901.569226 415.920325 
L 902.22093 417.806389 
L 903.342572 416.430234 
L 902.832322 417.940779 
L 903.248372 416.628919 
L 903.531908 419.037936 
L 904.361201 418.499613 
L 903.968296 419.676052 
L 903.590987 417.196199 
L 902.701685 419.156426 
L 901.517667 418.232206 
L 901.836798 417.590372 
L 901.74506 418.313928 
L 901.611589 421.51274 
L 901.611589 421.51274 
" clip-path="url(#p44868f5413)" style="fill: none; stroke: #0000ff; stroke-width: 2; stroke-linecap: square"/>
   </g>
   <g id="line2d_27">
    <path d="M 685.46772 769.757414 
L 686.333552 381.715772 
L 616.552667 409.888969 
L 441.161916 337.975217 
L 510.871115 311.493162 
L 686.333552 381.715772 
" clip-path="url(#p44868f5413)" style="fill: none; stroke-dasharray: 7.4,3.2; stroke-dashoffset: 0; stroke: #008000; stroke-width: 2"/>
   </g>
   <g id="Path3DCollection_1">
    <path d="M 680.995584 774.22955 
L 689.939856 765.285278 
M 680.995584 765.285278 
L 689.939856 774.22955 
" clip-path="url(#p44868f5413)" style="fill-opacity: 0.3; stroke: #000000; stroke-opacity: 0.3; stroke-width: 1.5"/>
    <path d="M 506.398979 315.965298 
L 515.343251 307.021026 
M 506.398979 307.021026 
L 515.343251 315.965298 
" clip-path="url(#p44868f5413)" style="fill-opacity: 0.359781; stroke: #000000; stroke-opacity: 0.359781; stroke-width: 1.5"/>
    <path d="M 436.68978 342.447353 
L 445.634052 333.503081 
M 436.68978 333.503081 
L 445.634052 342.447353 
" clip-path="url(#p44868f5413)" style="fill-opacity: 0.532088; stroke: #000000; stroke-opacity: 0.532088; stroke-width: 1.5"/>
    <path d="M 681.861416 386.187908 
L 690.805688 377.243636 
M 681.861416 377.243636 
L 690.805688 386.187908 
" clip-path="url(#p44868f5413)" style="fill-opacity: 0.816689; stroke: #000000; stroke-opacity: 0.816689; stroke-width: 1.5"/>
    <path d="M 612.080531 414.361105 
L 621.024803 405.416833 
M 612.080531 405.416833 
L 621.024803 414.361105 
" clip-path="url(#p44868f5413)" style="stroke: #000000; stroke-width: 1.5"/>
   </g>
   <g id="text_26">
    <!-- Takeoff / Landing -->
    <g transform="translate(685.512398 749.734373) scale(0.14 -0.14)">
     <defs>
      <path id="DejaVuSans-Bold-54" d="M 31 4666 
L 4331 4666 
L 4331 3756 
L 2784 3756 
L 2784 0 
L 1581 0 
L 1581 3756 
L 31 3756 
L 31 4666 
z
" transform="scale(0.015625)"/>
      <path id="DejaVuSans-Bold-61" d="M 2106 1575 
Q 1756 1575 1579 1456 
Q 1403 1338 1403 1106 
Q 1403 894 1545 773 
Q 1688 653 1941 653 
Q 2256 653 2472 879 
Q 2688 1106 2688 1447 
L 2688 1575 
L 2106 1575 
z
M 3816 1997 
L 3816 0 
L 2688 0 
L 2688 519 
Q 2463 200 2181 54 
Q 1900 -91 1497 -91 
Q 953 -91 614 226 
Q 275 544 275 1050 
Q 275 1666 698 1953 
Q 1122 2241 2028 2241 
L 2688 2241 
L 2688 2328 
Q 2688 2594 2478 2717 
Q 2269 2841 1825 2841 
Q 1466 2841 1156 2769 
Q 847 2697 581 2553 
L 581 3406 
Q 941 3494 1303 3539 
Q 1666 3584 2028 3584 
Q 2975 3584 3395 3211 
Q 3816 2838 3816 1997 
z
" transform="scale(0.015625)"/>
      <path id="DejaVuSans-Bold-6b" d="M 538 4863 
L 1656 4863 
L 1656 2216 
L 2944 3500 
L 4244 3500 
L 2534 1894 
L 4378 0 
L 3022 0 
L 1656 1459 
L 1656 0 
L 538 0 
L 538 4863 
z
" transform="scale(0.015625)"/>
      <path id="DejaVuSans-Bold-65" d="M 4031 1759 
L 4031 1441 
L 1416 1441 
Q 1456 1047 1700 850 
Q 1944 653 2381 653 
Q 2734 653 3104 758 
Q 3475 863 3866 1075 
L 3866 213 
Q 3469 63 3072 -14 
Q 2675 -91 2278 -91 
Q 1328 -91 801 392 
Q 275 875 275 1747 
Q 275 2603 792 3093 
Q 1309 3584 2216 3584 
Q 3041 3584 3536 3087 
Q 4031 2591 4031 1759 
z
M 2881 2131 
Q 2881 2450 2695 2645 
Q 2509 2841 2209 2841 
Q 1884 2841 1681 2658 
Q 1478 2475 1428 2131 
L 2881 2131 
z
" transform="scale(0.015625)"/>
      <path id="DejaVuSans-Bold-6f" d="M 2203 2784 
Q 1831 2784 1636 2517 
Q 1441 2250 1441 1747 
Q 1441 1244 1636 976 
Q 1831 709 2203 709 
Q 2569 709 2762 976 
Q 2956 1244 2956 1747 
Q 2956 2250 2762 2517 
Q 2569 2784 2203 2784 
z
M 2203 3584 
Q 3106 3584 3614 3096 
Q 4122 2609 4122 1747 
Q 4122 884 3614 396 
Q 3106 -91 2203 -91 
Q 1297 -91 786 396 
Q 275 884 275 1747 
Q 275 2609 786 3096 
Q 1297 3584 2203 3584 
z
" transform="scale(0.015625)"/>
      <path id="DejaVuSans-Bold-66" d="M 2841 4863 
L 2841 4128 
L 2222 4128 
Q 1984 4128 1890 4042 
Q 1797 3956 1797 3744 
L 1797 3500 
L 2753 3500 
L 2753 2700 
L 1797 2700 
L 1797 0 
L 678 0 
L 678 2700 
L 122 2700 
L 122 3500 
L 678 3500 
L 678 3744 
Q 678 4316 997 4589 
Q 1316 4863 1984 4863 
L 2841 4863 
z
" transform="scale(0.015625)"/>
      <path id="DejaVuSans-Bold-20" transform="scale(0.015625)"/>
      <path id="DejaVuSans-Bold-2f" d="M 1644 4666 
L 2338 4666 
L 691 -594 
L 0 -594 
L 1644 4666 
z
" transform="scale(0.015625)"/>
      <path id="DejaVuSans-Bold-4c" d="M 588 4666 
L 1791 4666 
L 1791 909 
L 3903 909 
L 3903 0 
L 588 0 
L 588 4666 
z
" transform="scale(0.015625)"/>
      <path id="DejaVuSans-Bold-6e" d="M 4056 2131 
L 4056 0 
L 2931 0 
L 2931 347 
L 2931 1631 
Q 2931 2084 2911 2256 
Q 2891 2428 2841 2509 
Q 2775 2619 2662 2680 
Q 2550 2741 2406 2741 
Q 2056 2741 1856 2470 
Q 1656 2200 1656 1722 
L 1656 0 
L 538 0 
L 538 3500 
L 1656 3500 
L 1656 2988 
Q 1909 3294 2193 3439 
Q 2478 3584 2822 3584 
Q 3428 3584 3742 3212 
Q 4056 2841 4056 2131 
z
" transform="scale(0.015625)"/>
      <path id="DejaVuSans-Bold-64" d="M 2919 2988 
L 2919 4863 
L 4044 4863 
L 4044 0 
L 2919 0 
L 2919 506 
Q 2688 197 2409 53 
Q 2131 -91 1766 -91 
Q 1119 -91 703 423 
Q 288 938 288 1747 
Q 288 2556 703 3070 
Q 1119 3584 1766 3584 
Q 2128 3584 2408 3439 
Q 2688 3294 2919 2988 
z
M 2181 722 
Q 2541 722 2730 984 
Q 2919 1247 2919 1747 
Q 2919 2247 2730 2509 
Q 2541 2772 2181 2772 
Q 1825 2772 1636 2509 
Q 1447 2247 1447 1747 
Q 1447 1247 1636 984 
Q 1825 722 2181 722 
z
" transform="scale(0.015625)"/>
      <path id="DejaVuSans-Bold-69" d="M 538 3500 
L 1656 3500 
L 1656 0 
L 538 0 
L 538 3500 
z
M 538 4863 
L 1656 4863 
L 1656 3950 
L 538 3950 
L 538 4863 
z
" transform="scale(0.015625)"/>
      <path id="DejaVuSans-Bold-67" d="M 2919 594 
Q 2688 288 2409 144 
Q 2131 0 1766 0 
Q 1125 0 706 504 
Q 288 1009 288 1791 
Q 288 2575 706 3076 
Q 1125 3578 1766 3578 
Q 2131 3578 2409 3434 
Q 2688 3291 2919 2981 
L 2919 3500 
L 4044 3500 
L 4044 353 
Q 4044 -491 3511 -936 
Q 2978 -1381 1966 -1381 
Q 1638 -1381 1331 -1331 
Q 1025 -1281 716 -1178 
L 716 -306 
Q 1009 -475 1290 -558 
Q 1572 -641 1856 -641 
Q 2406 -641 2662 -400 
Q 2919 -159 2919 353 
L 2919 594 
z
M 2181 2772 
Q 1834 2772 1640 2515 
Q 1447 2259 1447 1791 
Q 1447 1309 1634 1061 
Q 1822 813 2181 813 
Q 2531 813 2725 1069 
Q 2919 1325 2919 1791 
Q 2919 2259 2725 2515 
Q 2531 2772 2181 2772 
z
" transform="scale(0.015625)"/>
     </defs>
     <use xlink:href="#DejaVuSans-Bold-54"/>
     <use xlink:href="#DejaVuSans-Bold-61" transform="translate(55.337891 0)"/>
     <use xlink:href="#DejaVuSans-Bold-6b" transform="translate(122.818359 0)"/>
     <use xlink:href="#DejaVuSans-Bold-65" transform="translate(186.697266 0)"/>
     <use xlink:href="#DejaVuSans-Bold-6f" transform="translate(254.519531 0)"/>
     <use xlink:href="#DejaVuSans-Bold-66" transform="translate(323.220703 0)"/>
     <use xlink:href="#DejaVuSans-Bold-66" transform="translate(366.726562 0)"/>
     <use xlink:href="#DejaVuSans-Bold-20" transform="translate(410.232422 0)"/>
     <use xlink:href="#DejaVuSans-Bold-2f" transform="translate(445.046875 0)"/>
     <use xlink:href="#DejaVuSans-Bold-20" transform="translate(481.570312 0)"/>
     <use xlink:href="#DejaVuSans-Bold-4c" transform="translate(516.384766 0)"/>
     <use xlink:href="#DejaVuSans-Bold-61" transform="translate(580.105469 0)"/>
     <use xlink:href="#DejaVuSans-Bold-6e" transform="translate(647.585938 0)"/>
     <use xlink:href="#DejaVuSans-Bold-64" transform="translate(718.777344 0)"/>
     <use xlink:href="#DejaVuSans-Bold-69" transform="translate(790.359375 0)"/>
     <use xlink:href="#DejaVuSans-Bold-6e" transform="translate(824.636719 0)"/>
     <use xlink:href="#DejaVuSans-Bold-67" transform="translate(895.828125 0)"/>
    </g>
   </g>
   <g id="text_27">
    <!-- Hover / Return-to-Home -->
    <g transform="translate(686.381458 360.24533) scale(0.14 -0.14)">
     <defs>
      <path id="DejaVuSans-Bold-48" d="M 588 4666 
L 1791 4666 
L 1791 2888 
L 3566 2888 
L 3566 4666 
L 4769 4666 
L 4769 0 
L 3566 0 
L 3566 1978 
L 1791 1978 
L 1791 0 
L 588 0 
L 588 4666 
z
" transform="scale(0.015625)"/>
      <path id="DejaVuSans-Bold-76" d="M 97 3500 
L 1216 3500 
L 2088 1081 
L 2956 3500 
L 4078 3500 
L 2700 0 
L 1472 0 
L 97 3500 
z
" transform="scale(0.015625)"/>
      <path id="DejaVuSans-Bold-72" d="M 3138 2547 
Q 2991 2616 2845 2648 
Q 2700 2681 2553 2681 
Q 2122 2681 1889 2404 
Q 1656 2128 1656 1613 
L 1656 0 
L 538 0 
L 538 3500 
L 1656 3500 
L 1656 2925 
Q 1872 3269 2151 3426 
Q 2431 3584 2822 3584 
Q 2878 3584 2943 3579 
Q 3009 3575 3134 3559 
L 3138 2547 
z
" transform="scale(0.015625)"/>
      <path id="DejaVuSans-Bold-52" d="M 2297 2597 
Q 2675 2597 2839 2737 
Q 3003 2878 3003 3200 
Q 3003 3519 2839 3656 
Q 2675 3794 2297 3794 
L 1791 3794 
L 1791 2597 
L 2297 2597 
z
M 1791 1766 
L 1791 0 
L 588 0 
L 588 4666 
L 2425 4666 
Q 3347 4666 3776 4356 
Q 4206 4047 4206 3378 
Q 4206 2916 3982 2619 
Q 3759 2322 3309 2181 
Q 3556 2125 3751 1926 
Q 3947 1728 4147 1325 
L 4800 0 
L 3519 0 
L 2950 1159 
Q 2778 1509 2601 1637 
Q 2425 1766 2131 1766 
L 1791 1766 
z
" transform="scale(0.015625)"/>
      <path id="DejaVuSans-Bold-74" d="M 1759 4494 
L 1759 3500 
L 2913 3500 
L 2913 2700 
L 1759 2700 
L 1759 1216 
Q 1759 972 1856 886 
Q 1953 800 2241 800 
L 2816 800 
L 2816 0 
L 1856 0 
Q 1194 0 917 276 
Q 641 553 641 1216 
L 641 2700 
L 84 2700 
L 84 3500 
L 641 3500 
L 641 4494 
L 1759 4494 
z
" transform="scale(0.015625)"/>
      <path id="DejaVuSans-Bold-75" d="M 500 1363 
L 500 3500 
L 1625 3500 
L 1625 3150 
Q 1625 2866 1622 2436 
Q 1619 2006 1619 1863 
Q 1619 1441 1641 1255 
Q 1663 1069 1716 984 
Q 1784 875 1895 815 
Q 2006 756 2150 756 
Q 2500 756 2700 1025 
Q 2900 1294 2900 1772 
L 2900 3500 
L 4019 3500 
L 4019 0 
L 2900 0 
L 2900 506 
Q 2647 200 2364 54 
Q 2081 -91 1741 -91 
Q 1134 -91 817 281 
Q 500 653 500 1363 
z
" transform="scale(0.015625)"/>
      <path id="DejaVuSans-Bold-2d" d="M 347 2297 
L 2309 2297 
L 2309 1388 
L 347 1388 
L 347 2297 
z
" transform="scale(0.015625)"/>
      <path id="DejaVuSans-Bold-6d" d="M 3781 2919 
Q 3994 3244 4286 3414 
Q 4578 3584 4928 3584 
Q 5531 3584 5847 3212 
Q 6163 2841 6163 2131 
L 6163 0 
L 5038 0 
L 5038 1825 
Q 5041 1866 5042 1909 
Q 5044 1953 5044 2034 
Q 5044 2406 4934 2573 
Q 4825 2741 4581 2741 
Q 4263 2741 4089 2478 
Q 3916 2216 3909 1719 
L 3909 0 
L 2784 0 
L 2784 1825 
Q 2784 2406 2684 2573 
Q 2584 2741 2328 2741 
Q 2006 2741 1831 2477 
Q 1656 2213 1656 1722 
L 1656 0 
L 531 0 
L 531 3500 
L 1656 3500 
L 1656 2988 
Q 1863 3284 2130 3434 
Q 2397 3584 2719 3584 
Q 3081 3584 3359 3409 
Q 3638 3234 3781 2919 
z
" transform="scale(0.015625)"/>
     </defs>
     <use xlink:href="#DejaVuSans-Bold-48"/>
     <use xlink:href="#DejaVuSans-Bold-6f" transform="translate(83.691406 0)"/>
     <use xlink:href="#DejaVuSans-Bold-76" transform="translate(152.392578 0)"/>
     <use xlink:href="#DejaVuSans-Bold-65" transform="translate(217.578125 0)"/>
     <use xlink:href="#DejaVuSans-Bold-72" transform="translate(285.400391 0)"/>
     <use xlink:href="#DejaVuSans-Bold-20" transform="translate(334.716797 0)"/>
     <use xlink:href="#DejaVuSans-Bold-2f" transform="translate(369.53125 0)"/>
     <use xlink:href="#DejaVuSans-Bold-20" transform="translate(406.054688 0)"/>
     <use xlink:href="#DejaVuSans-Bold-52" transform="translate(440.869141 0)"/>
     <use xlink:href="#DejaVuSans-Bold-65" transform="translate(517.871094 0)"/>
     <use xlink:href="#DejaVuSans-Bold-74" transform="translate(585.693359 0)"/>
     <use xlink:href="#DejaVuSans-Bold-75" transform="translate(633.496094 0)"/>
     <use xlink:href="#DejaVuSans-Bold-72" transform="translate(704.6875 0)"/>
     <use xlink:href="#DejaVuSans-Bold-6e" transform="translate(754.003906 0)"/>
     <use xlink:href="#DejaVuSans-Bold-2d" transform="translate(825.195312 0)"/>
     <use xlink:href="#DejaVuSans-Bold-74" transform="translate(866.699219 0)"/>
     <use xlink:href="#DejaVuSans-Bold-6f" transform="translate(914.501953 0)"/>
     <use xlink:href="#DejaVuSans-Bold-2d" transform="translate(983.203125 0)"/>
     <use xlink:href="#DejaVuSans-Bold-48" transform="translate(1024.707031 0)"/>
     <use xlink:href="#DejaVuSans-Bold-6f" transform="translate(1108.398438 0)"/>
     <use xlink:href="#DejaVuSans-Bold-6d" transform="translate(1177.099609 0)"/>
     <use xlink:href="#DejaVuSans-Bold-65" transform="translate(1281.298828 0)"/>
    </g>
   </g>
   <g id="text_28">
    <!-- Coord 1 -->
    <g transform="translate(616.467255 388.211093) scale(0.14 -0.14)">
     <defs>
      <path id="DejaVuSans-Bold-43" d="M 4288 256 
Q 3956 84 3597 -3 
Q 3238 -91 2847 -91 
Q 1681 -91 1000 561 
Q 319 1213 319 2328 
Q 319 3447 1000 4098 
Q 1681 4750 2847 4750 
Q 3238 4750 3597 4662 
Q 3956 4575 4288 4403 
L 4288 3438 
Q 3953 3666 3628 3772 
Q 3303 3878 2944 3878 
Q 2300 3878 1931 3465 
Q 1563 3053 1563 2328 
Q 1563 1606 1931 1193 
Q 2300 781 2944 781 
Q 3303 781 3628 887 
Q 3953 994 4288 1222 
L 4288 256 
z
" transform="scale(0.015625)"/>
      <path id="DejaVuSans-Bold-31" d="M 750 831 
L 1813 831 
L 1813 3847 
L 722 3622 
L 722 4441 
L 1806 4666 
L 2950 4666 
L 2950 831 
L 4013 831 
L 4013 0 
L 750 0 
L 750 831 
z
" transform="scale(0.015625)"/>
     </defs>
     <use xlink:href="#DejaVuSans-Bold-43"/>
     <use xlink:href="#DejaVuSans-Bold-6f" transform="translate(73.388672 0)"/>
     <use xlink:href="#DejaVuSans-Bold-6f" transform="translate(142.089844 0)"/>
     <use xlink:href="#DejaVuSans-Bold-72" transform="translate(210.791016 0)"/>
     <use xlink:href="#DejaVuSans-Bold-64" transform="translate(260.107422 0)"/>
     <use xlink:href="#DejaVuSans-Bold-20" transform="translate(331.689453 0)"/>
     <use xlink:href="#DejaVuSans-Bold-31" transform="translate(366.503906 0)"/>
    </g>
   </g>
   <g id="text_29">
    <!-- Coord 2 -->
    <g transform="translate(440.752907 316.829382) scale(0.14 -0.14)">
     <defs>
      <path id="DejaVuSans-Bold-32" d="M 1844 884 
L 3897 884 
L 3897 0 
L 506 0 
L 506 884 
L 2209 2388 
Q 2438 2594 2547 2791 
Q 2656 2988 2656 3200 
Q 2656 3528 2436 3728 
Q 2216 3928 1850 3928 
Q 1569 3928 1234 3808 
Q 900 3688 519 3450 
L 519 4475 
Q 925 4609 1322 4679 
Q 1719 4750 2100 4750 
Q 2938 4750 3402 4381 
Q 3866 4013 3866 3353 
Q 3866 2972 3669 2642 
Q 3472 2313 2841 1759 
L 1844 884 
z
" transform="scale(0.015625)"/>
     </defs>
     <use xlink:href="#DejaVuSans-Bold-43"/>
     <use xlink:href="#DejaVuSans-Bold-6f" transform="translate(73.388672 0)"/>
     <use xlink:href="#DejaVuSans-Bold-6f" transform="translate(142.089844 0)"/>
     <use xlink:href="#DejaVuSans-Bold-72" transform="translate(210.791016 0)"/>
     <use xlink:href="#DejaVuSans-Bold-64" transform="translate(260.107422 0)"/>
     <use xlink:href="#DejaVuSans-Bold-20" transform="translate(331.689453 0)"/>
     <use xlink:href="#DejaVuSans-Bold-32" transform="translate(366.503906 0)"/>
    </g>
   </g>
   <g id="text_30">
    <!-- Coord 3 -->
    <g transform="translate(510.595021 290.545366) scale(0.14 -0.14)">
     <defs>
      <path id="DejaVuSans-Bold-33" d="M 2981 2516 
Q 3453 2394 3698 2092 
Q 3944 1791 3944 1325 
Q 3944 631 3412 270 
Q 2881 -91 1863 -91 
Q 1503 -91 1142 -33 
Q 781 25 428 141 
L 428 1069 
Q 766 900 1098 814 
Q 1431 728 1753 728 
Q 2231 728 2486 893 
Q 2741 1059 2741 1369 
Q 2741 1688 2480 1852 
Q 2219 2016 1709 2016 
L 1228 2016 
L 1228 2791 
L 1734 2791 
Q 2188 2791 2409 2933 
Q 2631 3075 2631 3366 
Q 2631 3634 2415 3781 
Q 2200 3928 1806 3928 
Q 1516 3928 1219 3862 
Q 922 3797 628 3669 
L 628 4550 
Q 984 4650 1334 4700 
Q 1684 4750 2022 4750 
Q 2931 4750 3382 4451 
Q 3834 4153 3834 3553 
Q 3834 3144 3618 2883 
Q 3403 2622 2981 2516 
z
" transform="scale(0.015625)"/>
     </defs>
     <use xlink:href="#DejaVuSans-Bold-43"/>
     <use xlink:href="#DejaVuSans-Bold-6f" transform="translate(73.388672 0)"/>
     <use xlink:href="#DejaVuSans-Bold-6f" transform="translate(142.089844 0)"/>
     <use xlink:href="#DejaVuSans-Bold-72" transform="translate(210.791016 0)"/>
     <use xlink:href="#DejaVuSans-Bold-64" transform="translate(260.107422 0)"/>
     <use xlink:href="#DejaVuSans-Bold-20" transform="translate(331.689453 0)"/>
     <use xlink:href="#DejaVuSans-Bold-33" transform="translate(366.503906 0)"/>
    </g>
   </g>
   <g id="text_31">
    <!-- 3D Flight Visualization: State Estimate Flight Path vs. Ideal -->
    <g transform="translate(384.201563 24.48) scale(0.18 -0.18)">
     <defs>
      <path id="DejaVuSans-44" d="M 1259 4147 
L 1259 519 
L 2022 519 
Q 2988 519 3436 956 
Q 3884 1394 3884 2338 
Q 3884 3275 3436 3711 
Q 2988 4147 2022 4147 
L 1259 4147 
z
M 628 4666 
L 1925 4666 
Q 3281 4666 3915 4102 
Q 4550 3538 4550 2338 
Q 4550 1131 3912 565 
Q 3275 0 1925 0 
L 628 0 
L 628 4666 
z
" transform="scale(0.015625)"/>
      <path id="DejaVuSans-46" d="M 628 4666 
L 3309 4666 
L 3309 4134 
L 1259 4134 
L 1259 2759 
L 3109 2759 
L 3109 2228 
L 1259 2228 
L 1259 0 
L 628 0 
L 628 4666 
z
" transform="scale(0.015625)"/>
      <path id="DejaVuSans-6c" d="M 603 4863 
L 1178 4863 
L 1178 0 
L 603 0 
L 603 4863 
z
" transform="scale(0.015625)"/>
      <path id="DejaVuSans-69" d="M 603 3500 
L 1178 3500 
L 1178 0 
L 603 0 
L 603 3500 
z
M 603 4863 
L 1178 4863 
L 1178 4134 
L 603 4134 
L 603 4863 
z
" transform="scale(0.015625)"/>
      <path id="DejaVuSans-67" d="M 2906 1791 
Q 2906 2416 2648 2759 
Q 2391 3103 1925 3103 
Q 1463 3103 1205 2759 
Q 947 2416 947 1791 
Q 947 1169 1205 825 
Q 1463 481 1925 481 
Q 2391 481 2648 825 
Q 2906 1169 2906 1791 
z
M 3481 434 
Q 3481 -459 3084 -895 
Q 2688 -1331 1869 -1331 
Q 1566 -1331 1297 -1286 
Q 1028 -1241 775 -1147 
L 775 -588 
Q 1028 -725 1275 -790 
Q 1522 -856 1778 -856 
Q 2344 -856 2625 -561 
Q 2906 -266 2906 331 
L 2906 616 
Q 2728 306 2450 153 
Q 2172 0 1784 0 
Q 1141 0 747 490 
Q 353 981 353 1791 
Q 353 2603 747 3093 
Q 1141 3584 1784 3584 
Q 2172 3584 2450 3431 
Q 2728 3278 2906 2969 
L 2906 3500 
L 3481 3500 
L 3481 434 
z
" transform="scale(0.015625)"/>
      <path id="DejaVuSans-68" d="M 3513 2113 
L 3513 0 
L 2938 0 
L 2938 2094 
Q 2938 2591 2744 2837 
Q 2550 3084 2163 3084 
Q 1697 3084 1428 2787 
Q 1159 2491 1159 1978 
L 1159 0 
L 581 0 
L 581 4863 
L 1159 4863 
L 1159 2956 
Q 1366 3272 1645 3428 
Q 1925 3584 2291 3584 
Q 2894 3584 3203 3211 
Q 3513 2838 3513 2113 
z
" transform="scale(0.015625)"/>
      <path id="DejaVuSans-74" d="M 1172 4494 
L 1172 3500 
L 2356 3500 
L 2356 3053 
L 1172 3053 
L 1172 1153 
Q 1172 725 1289 603 
Q 1406 481 1766 481 
L 2356 481 
L 2356 0 
L 1766 0 
Q 1100 0 847 248 
Q 594 497 594 1153 
L 594 3053 
L 172 3053 
L 172 3500 
L 594 3500 
L 594 4494 
L 1172 4494 
z
" transform="scale(0.015625)"/>
      <path id="DejaVuSans-56" d="M 1831 0 
L 50 4666 
L 709 4666 
L 2188 738 
L 3669 4666 
L 4325 4666 
L 2547 0 
L 1831 0 
z
" transform="scale(0.015625)"/>
      <path id="DejaVuSans-73" d="M 2834 3397 
L 2834 2853 
Q 2591 2978 2328 3040 
Q 2066 3103 1784 3103 
Q 1356 3103 1142 2972 
Q 928 2841 928 2578 
Q 928 2378 1081 2264 
Q 1234 2150 1697 2047 
L 1894 2003 
Q 2506 1872 2764 1633 
Q 3022 1394 3022 966 
Q 3022 478 2636 193 
Q 2250 -91 1575 -91 
Q 1294 -91 989 -36 
Q 684 19 347 128 
L 347 722 
Q 666 556 975 473 
Q 1284 391 1588 391 
Q 1994 391 2212 530 
Q 2431 669 2431 922 
Q 2431 1156 2273 1281 
Q 2116 1406 1581 1522 
L 1381 1569 
Q 847 1681 609 1914 
Q 372 2147 372 2553 
Q 372 3047 722 3315 
Q 1072 3584 1716 3584 
Q 2034 3584 2315 3537 
Q 2597 3491 2834 3397 
z
" transform="scale(0.015625)"/>
      <path id="DejaVuSans-75" d="M 544 1381 
L 544 3500 
L 1119 3500 
L 1119 1403 
Q 1119 906 1312 657 
Q 1506 409 1894 409 
Q 2359 409 2629 706 
Q 2900 1003 2900 1516 
L 2900 3500 
L 3475 3500 
L 3475 0 
L 2900 0 
L 2900 538 
Q 2691 219 2414 64 
Q 2138 -91 1772 -91 
Q 1169 -91 856 284 
Q 544 659 544 1381 
z
M 1991 3584 
L 1991 3584 
z
" transform="scale(0.015625)"/>
      <path id="DejaVuSans-61" d="M 2194 1759 
Q 1497 1759 1228 1600 
Q 959 1441 959 1056 
Q 959 750 1161 570 
Q 1363 391 1709 391 
Q 2188 391 2477 730 
Q 2766 1069 2766 1631 
L 2766 1759 
L 2194 1759 
z
M 3341 1997 
L 3341 0 
L 2766 0 
L 2766 531 
Q 2569 213 2275 61 
Q 1981 -91 1556 -91 
Q 1019 -91 701 211 
Q 384 513 384 1019 
Q 384 1609 779 1909 
Q 1175 2209 1959 2209 
L 2766 2209 
L 2766 2266 
Q 2766 2663 2505 2880 
Q 2244 3097 1772 3097 
Q 1472 3097 1187 3025 
Q 903 2953 641 2809 
L 641 3341 
Q 956 3463 1253 3523 
Q 1550 3584 1831 3584 
Q 2591 3584 2966 3190 
Q 3341 2797 3341 1997 
z
" transform="scale(0.015625)"/>
      <path id="DejaVuSans-7a" d="M 353 3500 
L 3084 3500 
L 3084 2975 
L 922 459 
L 3084 459 
L 3084 0 
L 275 0 
L 275 525 
L 2438 3041 
L 353 3041 
L 353 3500 
z
" transform="scale(0.015625)"/>
      <path id="DejaVuSans-6f" d="M 1959 3097 
Q 1497 3097 1228 2736 
Q 959 2375 959 1747 
Q 959 1119 1226 758 
Q 1494 397 1959 397 
Q 2419 397 2687 759 
Q 2956 1122 2956 1747 
Q 2956 2369 2687 2733 
Q 2419 3097 1959 3097 
z
M 1959 3584 
Q 2709 3584 3137 3096 
Q 3566 2609 3566 1747 
Q 3566 888 3137 398 
Q 2709 -91 1959 -91 
Q 1206 -91 779 398 
Q 353 888 353 1747 
Q 353 2609 779 3096 
Q 1206 3584 1959 3584 
z
" transform="scale(0.015625)"/>
      <path id="DejaVuSans-6e" d="M 3513 2113 
L 3513 0 
L 2938 0 
L 2938 2094 
Q 2938 2591 2744 2837 
Q 2550 3084 2163 3084 
Q 1697 3084 1428 2787 
Q 1159 2491 1159 1978 
L 1159 0 
L 581 0 
L 581 3500 
L 1159 3500 
L 1159 2956 
Q 1366 3272 1645 3428 
Q 1925 3584 2291 3584 
Q 2894 3584 3203 3211 
Q 3513 2838 3513 2113 
z
" transform="scale(0.015625)"/>
      <path id="DejaVuSans-3a" d="M 750 794 
L 1409 794 
L 1409 0 
L 750 0 
L 750 794 
z
M 750 3309 
L 1409 3309 
L 1409 2516 
L 750 2516 
L 750 3309 
z
" transform="scale(0.015625)"/>
      <path id="DejaVuSans-53" d="M 3425 4513 
L 3425 3897 
Q 3066 4069 2747 4153 
Q 2428 4238 2131 4238 
Q 1616 4238 1336 4038 
Q 1056 3838 1056 3469 
Q 1056 3159 1242 3001 
Q 1428 2844 1947 2747 
L 2328 2669 
Q 3034 2534 3370 2195 
Q 3706 1856 3706 1288 
Q 3706 609 3251 259 
Q 2797 -91 1919 -91 
Q 1588 -91 1214 -16 
Q 841 59 441 206 
L 441 856 
Q 825 641 1194 531 
Q 1563 422 1919 422 
Q 2459 422 2753 634 
Q 3047 847 3047 1241 
Q 3047 1584 2836 1778 
Q 2625 1972 2144 2069 
L 1759 2144 
Q 1053 2284 737 2584 
Q 422 2884 422 3419 
Q 422 4038 858 4394 
Q 1294 4750 2059 4750 
Q 2388 4750 2728 4690 
Q 3069 4631 3425 4513 
z
" transform="scale(0.015625)"/>
      <path id="DejaVuSans-65" d="M 3597 1894 
L 3597 1613 
L 953 1613 
Q 991 1019 1311 708 
Q 1631 397 2203 397 
Q 2534 397 2845 478 
Q 3156 559 3463 722 
L 3463 178 
Q 3153 47 2828 -22 
Q 2503 -91 2169 -91 
Q 1331 -91 842 396 
Q 353 884 353 1716 
Q 353 2575 817 3079 
Q 1281 3584 2069 3584 
Q 2775 3584 3186 3129 
Q 3597 2675 3597 1894 
z
M 3022 2063 
Q 3016 2534 2758 2815 
Q 2500 3097 2075 3097 
Q 1594 3097 1305 2825 
Q 1016 2553 972 2059 
L 3022 2063 
z
" transform="scale(0.015625)"/>
      <path id="DejaVuSans-45" d="M 628 4666 
L 3578 4666 
L 3578 4134 
L 1259 4134 
L 1259 2753 
L 3481 2753 
L 3481 2222 
L 1259 2222 
L 1259 531 
L 3634 531 
L 3634 0 
L 628 0 
L 628 4666 
z
" transform="scale(0.015625)"/>
      <path id="DejaVuSans-50" d="M 1259 4147 
L 1259 2394 
L 2053 2394 
Q 2494 2394 2734 2622 
Q 2975 2850 2975 3272 
Q 2975 3691 2734 3919 
Q 2494 4147 2053 4147 
L 1259 4147 
z
M 628 4666 
L 2053 4666 
Q 2838 4666 3239 4311 
Q 3641 3956 3641 3272 
Q 3641 2581 3239 2228 
Q 2838 1875 2053 1875 
L 1259 1875 
L 1259 0 
L 628 0 
L 628 4666 
z
" transform="scale(0.015625)"/>
      <path id="DejaVuSans-76" d="M 191 3500 
L 800 3500 
L 1894 563 
L 2988 3500 
L 3597 3500 
L 2284 0 
L 1503 0 
L 191 3500 
z
" transform="scale(0.015625)"/>
      <path id="DejaVuSans-49" d="M 628 4666 
L 1259 4666 
L 1259 0 
L 628 0 
L 628 4666 
z
" transform="scale(0.015625)"/>
      <path id="DejaVuSans-64" d="M 2906 2969 
L 2906 4863 
L 3481 4863 
L 3481 0 
L 2906 0 
L 2906 525 
Q 2725 213 2448 61 
Q 2172 -91 1784 -91 
Q 1150 -91 751 415 
Q 353 922 353 1747 
Q 353 2572 751 3078 
Q 1150 3584 1784 3584 
Q 2172 3584 2448 3432 
Q 2725 3281 2906 2969 
z
M 947 1747 
Q 947 1113 1208 752 
Q 1469 391 1925 391 
Q 2381 391 2643 752 
Q 2906 1113 2906 1747 
Q 2906 2381 2643 2742 
Q 2381 3103 1925 3103 
Q 1469 3103 1208 2742 
Q 947 2381 947 1747 
z
" transform="scale(0.015625)"/>
     </defs>
     <use xlink:href="#DejaVuSans-33"/>
     <use xlink:href="#DejaVuSans-44" transform="translate(63.623047 0)"/>
     <use xlink:href="#DejaVuSans-20" transform="translate(140.625 0)"/>
     <use xlink:href="#DejaVuSans-46" transform="translate(172.412109 0)"/>
     <use xlink:href="#DejaVuSans-6c" transform="translate(229.931641 0)"/>
     <use xlink:href="#DejaVuSans-69" transform="translate(257.714844 0)"/>
     <use xlink:href="#DejaVuSans-67" transform="translate(285.498047 0)"/>
     <use xlink:href="#DejaVuSans-68" transform="translate(348.974609 0)"/>
     <use xlink:href="#DejaVuSans-74" transform="translate(412.353516 0)"/>
     <use xlink:href="#DejaVuSans-20" transform="translate(451.5625 0)"/>
     <use xlink:href="#DejaVuSans-56" transform="translate(483.349609 0)"/>
     <use xlink:href="#DejaVuSans-69" transform="translate(549.507812 0)"/>
     <use xlink:href="#DejaVuSans-73" transform="translate(577.291016 0)"/>
     <use xlink:href="#DejaVuSans-75" transform="translate(629.390625 0)"/>
     <use xlink:href="#DejaVuSans-61" transform="translate(692.769531 0)"/>
     <use xlink:href="#DejaVuSans-6c" transform="translate(754.048828 0)"/>
     <use xlink:href="#DejaVuSans-69" transform="translate(781.832031 0)"/>
     <use xlink:href="#DejaVuSans-7a" transform="translate(809.615234 0)"/>
     <use xlink:href="#DejaVuSans-61" transform="translate(862.105469 0)"/>
     <use xlink:href="#DejaVuSans-74" transform="translate(923.384766 0)"/>
     <use xlink:href="#DejaVuSans-69" transform="translate(962.59375 0)"/>
     <use xlink:href="#DejaVuSans-6f" transform="translate(990.376953 0)"/>
     <use xlink:href="#DejaVuSans-6e" transform="translate(1051.558594 0)"/>
     <use xlink:href="#DejaVuSans-3a" transform="translate(1114.9375 0)"/>
     <use xlink:href="#DejaVuSans-20" transform="translate(1148.628906 0)"/>
     <use xlink:href="#DejaVuSans-53" transform="translate(1180.416016 0)"/>
     <use xlink:href="#DejaVuSans-74" transform="translate(1243.892578 0)"/>
     <use xlink:href="#DejaVuSans-61" transform="translate(1283.101562 0)"/>
     <use xlink:href="#DejaVuSans-74" transform="translate(1344.380859 0)"/>
     <use xlink:href="#DejaVuSans-65" transform="translate(1383.589844 0)"/>
     <use xlink:href="#DejaVuSans-20" transform="translate(1445.113281 0)"/>
     <use xlink:href="#DejaVuSans-45" transform="translate(1476.900391 0)"/>
     <use xlink:href="#DejaVuSans-73" transform="translate(1540.083984 0)"/>
     <use xlink:href="#DejaVuSans-74" transform="translate(1592.183594 0)"/>
     <use xlink:href="#DejaVuSans-69" transform="translate(1631.392578 0)"/>
     <use xlink:href="#DejaVuSans-6d" transform="translate(1659.175781 0)"/>
     <use xlink:href="#DejaVuSans-61" transform="translate(1756.587891 0)"/>
     <use xlink:href="#DejaVuSans-74" transform="translate(1817.867188 0)"/>
     <use xlink:href="#DejaVuSans-65" transform="translate(1857.076172 0)"/>
     <use xlink:href="#DejaVuSans-20" transform="translate(1918.599609 0)"/>
     <use xlink:href="#DejaVuSans-46" transform="translate(1950.386719 0)"/>
     <use xlink:href="#DejaVuSans-6c" transform="translate(2007.90625 0)"/>
     <use xlink:href="#DejaVuSans-69" transform="translate(2035.689453 0)"/>
     <use xlink:href="#DejaVuSans-67" transform="translate(2063.472656 0)"/>
     <use xlink:href="#DejaVuSans-68" transform="translate(2126.949219 0)"/>
     <use xlink:href="#DejaVuSans-74" transform="translate(2190.328125 0)"/>
     <use xlink:href="#DejaVuSans-20" transform="translate(2229.537109 0)"/>
     <use xlink:href="#DejaVuSans-50" transform="translate(2261.324219 0)"/>
     <use xlink:href="#DejaVuSans-61" transform="translate(2317.126953 0)"/>
     <use xlink:href="#DejaVuSans-74" transform="translate(2378.40625 0)"/>
     <use xlink:href="#DejaVuSans-68" transform="translate(2417.615234 0)"/>
     <use xlink:href="#DejaVuSans-20" transform="translate(2480.994141 0)"/>
     <use xlink:href="#DejaVuSans-76" transform="translate(2512.78125 0)"/>
     <use xlink:href="#DejaVuSans-73" transform="translate(2571.960938 0)"/>
     <use xlink:href="#DejaVuSans-2e" transform="translate(2624.060547 0)"/>
     <use xlink:href="#DejaVuSans-20" transform="translate(2655.847656 0)"/>
     <use xlink:href="#DejaVuSans-49" transform="translate(2687.634766 0)"/>
     <use xlink:href="#DejaVuSans-64" transform="translate(2717.126953 0)"/>
     <use xlink:href="#DejaVuSans-65" transform="translate(2780.603516 0)"/>
     <use xlink:href="#DejaVuSans-61" transform="translate(2842.126953 0)"/>
     <use xlink:href="#DejaVuSans-6c" transform="translate(2903.40625 0)"/>
    </g>
   </g>
   <g id="legend_1">
    <g id="patch_6">
     <path d="M 928.49625 75.3075 
L 1122.96 75.3075 
Q 1125.36 75.3075 1125.36 72.9075 
L 1125.36 38.88 
Q 1125.36 36.48 1122.96 36.48 
L 928.49625 36.48 
Q 926.09625 36.48 926.09625 38.88 
L 926.09625 72.9075 
Q 926.09625 75.3075 928.49625 75.3075 
z
" style="fill: #ffffff; opacity: 0.8; stroke: #cccccc; stroke-linejoin: miter"/>
    </g>
    <g id="line2d_28">
     <path d="M 930.89625 46.198125 
L 942.89625 46.198125 
L 954.89625 46.198125 
" style="fill: none; stroke: #0000ff; stroke-width: 2; stroke-linecap: square"/>
    </g>
    <g id="text_32">
     <!-- State Estimate Flight Path -->
     <g transform="translate(964.49625 50.398125) scale(0.12 -0.12)">
      <use xlink:href="#DejaVuSans-53"/>
      <use xlink:href="#DejaVuSans-74" transform="translate(63.476562 0)"/>
      <use xlink:href="#DejaVuSans-61" transform="translate(102.685547 0)"/>
      <use xlink:href="#DejaVuSans-74" transform="translate(163.964844 0)"/>
      <use xlink:href="#DejaVuSans-65" transform="translate(203.173828 0)"/>
      <use xlink:href="#DejaVuSans-20" transform="translate(264.697266 0)"/>
      <use xlink:href="#DejaVuSans-45" transform="translate(296.484375 0)"/>
      <use xlink:href="#DejaVuSans-73" transform="translate(359.667969 0)"/>
      <use xlink:href="#DejaVuSans-74" transform="translate(411.767578 0)"/>
      <use xlink:href="#DejaVuSans-69" transform="translate(450.976562 0)"/>
      <use xlink:href="#DejaVuSans-6d" transform="translate(478.759766 0)"/>
      <use xlink:href="#DejaVuSans-61" transform="translate(576.171875 0)"/>
      <use xlink:href="#DejaVuSans-74" transform="translate(637.451172 0)"/>
      <use xlink:href="#DejaVuSans-65" transform="translate(676.660156 0)"/>
      <use xlink:href="#DejaVuSans-20" transform="translate(738.183594 0)"/>
      <use xlink:href="#DejaVuSans-46" transform="translate(769.970703 0)"/>
      <use xlink:href="#DejaVuSans-6c" transform="translate(827.490234 0)"/>
      <use xlink:href="#DejaVuSans-69" transform="translate(855.273438 0)"/>
      <use xlink:href="#DejaVuSans-67" transform="translate(883.056641 0)"/>
      <use xlink:href="#DejaVuSans-68" transform="translate(946.533203 0)"/>
      <use xlink:href="#DejaVuSans-74" transform="translate(1009.912109 0)"/>
      <use xlink:href="#DejaVuSans-20" transform="translate(1049.121094 0)"/>
      <use xlink:href="#DejaVuSans-50" transform="translate(1080.908203 0)"/>
      <use xlink:href="#DejaVuSans-61" transform="translate(1136.710938 0)"/>
      <use xlink:href="#DejaVuSans-74" transform="translate(1197.990234 0)"/>
      <use xlink:href="#DejaVuSans-68" transform="translate(1237.199219 0)"/>
     </g>
    </g>
    <g id="line2d_29">
     <path d="M 930.89625 63.811875 
L 942.89625 63.811875 
L 954.89625 63.811875 
" style="fill: none; stroke-dasharray: 7.4,3.2; stroke-dashoffset: 0; stroke: #008000; stroke-width: 2"/>
    </g>
    <g id="text_33">
     <!-- Ideal Waypoints Path -->
     <g transform="translate(964.49625 68.011875) scale(0.12 -0.12)">
      <defs>
       <path id="DejaVuSans-57" d="M 213 4666 
L 850 4666 
L 1831 722 
L 2809 4666 
L 3519 4666 
L 4500 722 
L 5478 4666 
L 6119 4666 
L 4947 0 
L 4153 0 
L 3169 4050 
L 2175 0 
L 1381 0 
L 213 4666 
z
" transform="scale(0.015625)"/>
       <path id="DejaVuSans-79" d="M 2059 -325 
Q 1816 -950 1584 -1140 
Q 1353 -1331 966 -1331 
L 506 -1331 
L 506 -850 
L 844 -850 
Q 1081 -850 1212 -737 
Q 1344 -625 1503 -206 
L 1606 56 
L 191 3500 
L 800 3500 
L 1894 763 
L 2988 3500 
L 3597 3500 
L 2059 -325 
z
" transform="scale(0.015625)"/>
       <path id="DejaVuSans-70" d="M 1159 525 
L 1159 -1331 
L 581 -1331 
L 581 3500 
L 1159 3500 
L 1159 2969 
Q 1341 3281 1617 3432 
Q 1894 3584 2278 3584 
Q 2916 3584 3314 3078 
Q 3713 2572 3713 1747 
Q 3713 922 3314 415 
Q 2916 -91 2278 -91 
Q 1894 -91 1617 61 
Q 1341 213 1159 525 
z
M 3116 1747 
Q 3116 2381 2855 2742 
Q 2594 3103 2138 3103 
Q 1681 3103 1420 2742 
Q 1159 2381 1159 1747 
Q 1159 1113 1420 752 
Q 1681 391 2138 391 
Q 2594 391 2855 752 
Q 3116 1113 3116 1747 
z
" transform="scale(0.015625)"/>
      </defs>
      <use xlink:href="#DejaVuSans-49"/>
      <use xlink:href="#DejaVuSans-64" transform="translate(29.492188 0)"/>
      <use xlink:href="#DejaVuSans-65" transform="translate(92.96875 0)"/>
      <use xlink:href="#DejaVuSans-61" transform="translate(154.492188 0)"/>
      <use xlink:href="#DejaVuSans-6c" transform="translate(215.771484 0)"/>
      <use xlink:href="#DejaVuSans-20" transform="translate(243.554688 0)"/>
      <use xlink:href="#DejaVuSans-57" transform="translate(275.341797 0)"/>
      <use xlink:href="#DejaVuSans-61" transform="translate(367.84375 0)"/>
      <use xlink:href="#DejaVuSans-79" transform="translate(429.123047 0)"/>
      <use xlink:href="#DejaVuSans-70" transform="translate(488.302734 0)"/>
      <use xlink:href="#DejaVuSans-6f" transform="translate(551.779297 0)"/>
      <use xlink:href="#DejaVuSans-69" transform="translate(612.960938 0)"/>
      <use xlink:href="#DejaVuSans-6e" transform="translate(640.744141 0)"/>
      <use xlink:href="#DejaVuSans-74" transform="translate(704.123047 0)"/>
      <use xlink:href="#DejaVuSans-73" transform="translate(743.332031 0)"/>
      <use xlink:href="#DejaVuSans-20" transform="translate(795.431641 0)"/>
      <use xlink:href="#DejaVuSans-50" transform="translate(827.21875 0)"/>
      <use xlink:href="#DejaVuSans-61" transform="translate(883.021484 0)"/>
      <use xlink:href="#DejaVuSans-74" transform="translate(944.300781 0)"/>
      <use xlink:href="#DejaVuSans-68" transform="translate(983.509766 0)"/>
     </g>
    </g>
   </g>
  </g>
 </g>
 <defs>
  <clipPath id="p44868f5413">
   <rect x="164.64" y="30.48" width="966.72" height="966.72"/>
  </clipPath>
 </defs>
</svg>
