<?xml version="1.0" encoding="utf-8" standalone="no"?>
<!DOCTYPE svg PUBLIC "-//W3C//DTD SVG 1.1//EN"
  "http://www.w3.org/Graphics/SVG/1.1/DTD/svg11.dtd">
<svg xmlns:xlink="http://www.w3.org/1999/xlink" width="1296pt" height="1008pt" viewBox="0 0 1296 1008" xmlns="http://www.w3.org/2000/svg" version="1.1">
 <metadata>
  <rdf:RDF xmlns:dc="http://purl.org/dc/elements/1.1/" xmlns:cc="http://creativecommons.org/ns#" xmlns:rdf="http://www.w3.org/1999/02/22-rdf-syntax-ns#">
   <cc:Work>
    <dc:type rdf:resource="http://purl.org/dc/dcmitype/StillImage"/>
    <dc:date>2025-07-26T23:56:56.269319</dc:date>
    <dc:format>image/svg+xml</dc:format>
    <dc:creator>
     <cc:Agent>
      <dc:title>Matplotlib v3.10.3, https://matplotlib.org/</dc:title>
     </cc:Agent>
    </dc:creator>
   </cc:Work>
  </rdf:RDF>
 </metadata>
 <defs>
  <style type="text/css">*{stroke-linejoin: round; stroke-linecap: butt}</style>
 </defs>
 <g id="figure_1">
  <g id="patch_1">
   <path d="M 0 1008 
L 1296 1008 
L 1296 0 
L 0 0 
z
" style="fill: #ffffff"/>
  </g>
  <g id="patch_2">
   <path d="M 164.64 997.2 
L 1131.36 997.2 
L 1131.36 30.48 
L 164.64 30.48 
z
" style="fill: #ffffff"/>
  </g>
  <g id="pane3d_1">
   <g id="patch_3">
    <path d="M 661.063784 524.082082 
L 229.328797 708.286308 
L 212.724536 285.285415 
L 661.063784 125.027125 
" style="fill: #f2f2f2; opacity: 0.5; stroke: #f2f2f2; stroke-linejoin: miter"/>
   </g>
  </g>
  <g id="pane3d_2">
   <g id="patch_4">
    <path d="M 1092.798771 708.286308 
L 661.063784 524.082082 
L 661.063784 125.027125 
L 1109.403032 285.285415 
" style="fill: #e6e6e6; opacity: 0.5; stroke: #e6e6e6; stroke-linejoin: miter"/>
   </g>
  </g>
  <g id="pane3d_3">
   <g id="patch_5">
    <path d="M 1092.798771 708.286308 
L 661.063784 524.082082 
L 229.328797 708.286308 
L 661.063784 922.309689 
" style="fill: #ececec; opacity: 0.5; stroke: #ececec; stroke-linejoin: miter"/>
   </g>
  </g>
  <g id="grid3d_1">
   <g id="Line3DCollection_1">
    <path d="M 615.115044 899.531585 
L 1047.080382 688.780081 
L 1061.812645 268.274292 
" style="fill: none; stroke: #b0b0b0; stroke-width: 0.8"/>
    <path d="M 557.305421 870.873701 
L 989.482958 664.205541 
L 1001.895235 246.856891 
" style="fill: none; stroke: #b0b0b0; stroke-width: 0.8"/>
    <path d="M 500.652668 842.789311 
L 932.954076 640.086905 
L 943.131013 225.851695 
" style="fill: none; stroke: #b0b0b0; stroke-width: 0.8"/>
    <path d="M 445.122402 815.26137 
L 877.464272 616.411603 
L 885.487005 205.246918 
" style="fill: none; stroke: #b0b0b0; stroke-width: 0.8"/>
    <path d="M 390.681591 788.273503 
L 822.98516 593.167522 
L 828.931482 185.031219 
" style="fill: none; stroke: #b0b0b0; stroke-width: 0.8"/>
    <path d="M 337.298484 761.80997 
L 769.489374 570.342989 
L 773.433901 165.19368 
" style="fill: none; stroke: #b0b0b0; stroke-width: 0.8"/>
    <path d="M 284.942553 735.855637 
L 716.950531 547.926744 
L 718.964853 145.723788 
" style="fill: none; stroke: #b0b0b0; stroke-width: 0.8"/>
    <path d="M 233.584435 710.395949 
L 665.34318 525.907931 
L 665.496006 126.611417 
" style="fill: none; stroke: #b0b0b0; stroke-width: 0.8"/>
   </g>
  </g>
  <g id="grid3d_2">
   <g id="Line3DCollection_2">
    <path d="M 630.016652 136.124883 
L 631.091944 536.869879 
L 1062.983376 723.066651 
" style="fill: none; stroke: #b0b0b0; stroke-width: 0.8"/>
    <path d="M 541.236247 167.859325 
L 545.4477 573.410887 
L 977.658058 765.364852 
" style="fill: none; stroke: #b0b0b0; stroke-width: 0.8"/>
    <path d="M 449.694109 200.580945 
L 457.234322 611.048043 
L 889.574209 809.030535 
" style="fill: none; stroke: #b0b0b0; stroke-width: 0.8"/>
    <path d="M 355.259337 234.336533 
L 366.334446 649.831421 
L 798.59586 854.131105 
" style="fill: none; stroke: #b0b0b0; stroke-width: 0.8"/>
    <path d="M 257.792623 269.175885 
L 272.623451 689.814193 
L 704.577953 900.73847 
" style="fill: none; stroke: #b0b0b0; stroke-width: 0.8"/>
   </g>
  </g>
  <g id="grid3d_3">
   <g id="Line3DCollection_3">
    <path d="M 1093.818677 682.303752 
L 661.063784 499.508762 
L 228.308891 682.303752 
" style="fill: none; stroke: #b0b0b0; stroke-width: 0.8"/>
    <path d="M 1095.572563 637.622722 
L 661.063784 457.270036 
L 226.555005 637.622722 
" style="fill: none; stroke: #b0b0b0; stroke-width: 0.8"/>
    <path d="M 1097.340724 592.578049 
L 661.063784 414.711726 
L 224.786844 592.578049 
" style="fill: none; stroke: #b0b0b0; stroke-width: 0.8"/>
    <path d="M 1099.123333 547.165274 
L 661.063784 371.83019 
L 223.004234 547.165274 
" style="fill: none; stroke: #b0b0b0; stroke-width: 0.8"/>
    <path d="M 1100.92057 501.379867 
L 661.063784 328.621732 
L 221.206997 501.379867 
" style="fill: none; stroke: #b0b0b0; stroke-width: 0.8"/>
    <path d="M 1102.732615 455.217223 
L 661.063784 285.0826 
L 219.394952 455.217223 
" style="fill: none; stroke: #b0b0b0; stroke-width: 0.8"/>
    <path d="M 1104.559652 408.672659 
L 661.063784 241.208982 
L 217.567916 408.672659 
" style="fill: none; stroke: #b0b0b0; stroke-width: 0.8"/>
    <path d="M 1106.401867 361.741418 
L 661.063784 196.99701 
L 215.725701 361.741418 
" style="fill: none; stroke: #b0b0b0; stroke-width: 0.8"/>
    <path d="M 1108.25945 314.41866 
L 661.063784 152.442754 
L 213.868117 314.41866 
" style="fill: none; stroke: #b0b0b0; stroke-width: 0.8"/>
   </g>
  </g>
  <g id="axis3d_1">
   <g id="line2d_1">
    <path d="M 229.328797 708.286308 
L 661.063784 922.309689 
" style="fill: none; stroke: #000000; stroke-width: 0.8; stroke-linecap: square"/>
   </g>
   <g id="xtick_1">
    <g id="line2d_2">
     <path d="M 618.845849 897.711363 
L 607.639037 903.179053 
" style="fill: none; stroke: #000000; stroke-width: 0.8; stroke-linecap: square"/>
    </g>
    <g id="text_1">
     <!-- −1.00 -->
     <g transform="translate(589.165871 922.147041) scale(0.1 -0.1)">
      <defs>
       <path id="DejaVuSans-2212" d="M 678 2272 
L 4684 2272 
L 4684 1741 
L 678 1741 
L 678 2272 
z
" transform="scale(0.015625)"/>
       <path id="DejaVuSans-31" d="M 794 531 
L 1825 531 
L 1825 4091 
L 703 3866 
L 703 4441 
L 1819 4666 
L 2450 4666 
L 2450 531 
L 3481 531 
L 3481 0 
L 794 0 
L 794 531 
z
" transform="scale(0.015625)"/>
       <path id="DejaVuSans-2e" d="M 684 794 
L 1344 794 
L 1344 0 
L 684 0 
L 684 794 
z
" transform="scale(0.015625)"/>
       <path id="DejaVuSans-30" d="M 2034 4250 
Q 1547 4250 1301 3770 
Q 1056 3291 1056 2328 
Q 1056 1369 1301 889 
Q 1547 409 2034 409 
Q 2525 409 2770 889 
Q 3016 1369 3016 2328 
Q 3016 3291 2770 3770 
Q 2525 4250 2034 4250 
z
M 2034 4750 
Q 2819 4750 3233 4129 
Q 3647 3509 3647 2328 
Q 3647 1150 3233 529 
Q 2819 -91 2034 -91 
Q 1250 -91 836 529 
Q 422 1150 422 2328 
Q 422 3509 836 4129 
Q 1250 4750 2034 4750 
z
" transform="scale(0.015625)"/>
      </defs>
      <use xlink:href="#DejaVuSans-2212"/>
      <use xlink:href="#DejaVuSans-31" transform="translate(83.789062 0)"/>
      <use xlink:href="#DejaVuSans-2e" transform="translate(147.412109 0)"/>
      <use xlink:href="#DejaVuSans-30" transform="translate(179.199219 0)"/>
      <use xlink:href="#DejaVuSans-30" transform="translate(242.822266 0)"/>
     </g>
    </g>
   </g>
   <g id="xtick_2">
    <g id="line2d_3">
     <path d="M 561.035279 869.090076 
L 549.831457 874.447765 
" style="fill: none; stroke: #000000; stroke-width: 0.8; stroke-linecap: square"/>
    </g>
    <g id="text_2">
     <!-- −0.75 -->
     <g transform="translate(531.410658 893.310923) scale(0.1 -0.1)">
      <defs>
       <path id="DejaVuSans-37" d="M 525 4666 
L 3525 4666 
L 3525 4397 
L 1831 0 
L 1172 0 
L 2766 4134 
L 525 4134 
L 525 4666 
z
" transform="scale(0.015625)"/>
       <path id="DejaVuSans-35" d="M 691 4666 
L 3169 4666 
L 3169 4134 
L 1269 4134 
L 1269 2991 
Q 1406 3038 1543 3061 
Q 1681 3084 1819 3084 
Q 2600 3084 3056 2656 
Q 3513 2228 3513 1497 
Q 3513 744 3044 326 
Q 2575 -91 1722 -91 
Q 1428 -91 1123 -41 
Q 819 9 494 109 
L 494 744 
Q 775 591 1075 516 
Q 1375 441 1709 441 
Q 2250 441 2565 725 
Q 2881 1009 2881 1497 
Q 2881 1984 2565 2268 
Q 2250 2553 1709 2553 
Q 1456 2553 1204 2497 
Q 953 2441 691 2322 
L 691 4666 
z
" transform="scale(0.015625)"/>
      </defs>
      <use xlink:href="#DejaVuSans-2212"/>
      <use xlink:href="#DejaVuSans-30" transform="translate(83.789062 0)"/>
      <use xlink:href="#DejaVuSans-2e" transform="translate(147.412109 0)"/>
      <use xlink:href="#DejaVuSans-37" transform="translate(179.199219 0)"/>
      <use xlink:href="#DejaVuSans-35" transform="translate(242.822266 0)"/>
     </g>
    </g>
   </g>
   <g id="xtick_3">
    <g id="line2d_4">
     <path d="M 504.38087 841.041189 
L 493.182165 846.292165 
" style="fill: none; stroke: #000000; stroke-width: 0.8; stroke-linecap: square"/>
    </g>
    <g id="text_3">
     <!-- −0.50 -->
     <g transform="translate(474.812277 865.052389) scale(0.1 -0.1)">
      <use xlink:href="#DejaVuSans-2212"/>
      <use xlink:href="#DejaVuSans-30" transform="translate(83.789062 0)"/>
      <use xlink:href="#DejaVuSans-2e" transform="translate(147.412109 0)"/>
      <use xlink:href="#DejaVuSans-35" transform="translate(179.199219 0)"/>
      <use xlink:href="#DejaVuSans-30" transform="translate(242.822266 0)"/>
     </g>
    </g>
   </g>
   <g id="xtick_4">
    <g id="line2d_5">
     <path d="M 448.848282 813.547702 
L 437.656693 818.695122 
" style="fill: none; stroke: #000000; stroke-width: 0.8; stroke-linecap: square"/>
    </g>
    <g id="text_4">
     <!-- −0.25 -->
     <g transform="translate(419.336316 837.35426) scale(0.1 -0.1)">
      <defs>
       <path id="DejaVuSans-32" d="M 1228 531 
L 3431 531 
L 3431 0 
L 469 0 
L 469 531 
Q 828 903 1448 1529 
Q 2069 2156 2228 2338 
Q 2531 2678 2651 2914 
Q 2772 3150 2772 3378 
Q 2772 3750 2511 3984 
Q 2250 4219 1831 4219 
Q 1534 4219 1204 4116 
Q 875 4013 500 3803 
L 500 4441 
Q 881 4594 1212 4672 
Q 1544 4750 1819 4750 
Q 2544 4750 2975 4387 
Q 3406 4025 3406 3419 
Q 3406 3131 3298 2873 
Q 3191 2616 2906 2266 
Q 2828 2175 2409 1742 
Q 1991 1309 1228 531 
z
" transform="scale(0.015625)"/>
      </defs>
      <use xlink:href="#DejaVuSans-2212"/>
      <use xlink:href="#DejaVuSans-30" transform="translate(83.789062 0)"/>
      <use xlink:href="#DejaVuSans-2e" transform="translate(147.412109 0)"/>
      <use xlink:href="#DejaVuSans-32" transform="translate(179.199219 0)"/>
      <use xlink:href="#DejaVuSans-35" transform="translate(242.822266 0)"/>
     </g>
    </g>
   </g>
   <g id="xtick_5">
    <g id="line2d_6">
     <path d="M 394.404522 786.59328 
L 383.221927 791.640176 
" style="fill: none; stroke: #000000; stroke-width: 0.8; stroke-linecap: square"/>
    </g>
    <g id="text_5">
     <!-- 0.00 -->
     <g transform="translate(369.139557 810.200027) scale(0.1 -0.1)">
      <use xlink:href="#DejaVuSans-30"/>
      <use xlink:href="#DejaVuSans-2e" transform="translate(63.623047 0)"/>
      <use xlink:href="#DejaVuSans-30" transform="translate(95.410156 0)"/>
      <use xlink:href="#DejaVuSans-30" transform="translate(159.033203 0)"/>
     </g>
    </g>
   </g>
   <g id="xtick_6">
    <g id="line2d_7">
     <path d="M 341.017877 760.162223 
L 329.846042 765.111512 
" style="fill: none; stroke: #000000; stroke-width: 0.8; stroke-linecap: square"/>
    </g>
    <g id="text_6">
     <!-- 0.25 -->
     <g transform="translate(315.810539 783.573826) scale(0.1 -0.1)">
      <use xlink:href="#DejaVuSans-30"/>
      <use xlink:href="#DejaVuSans-2e" transform="translate(63.623047 0)"/>
      <use xlink:href="#DejaVuSans-32" transform="translate(95.410156 0)"/>
      <use xlink:href="#DejaVuSans-35" transform="translate(159.033203 0)"/>
     </g>
    </g>
   </g>
   <g id="xtick_7">
    <g id="line2d_8">
     <path d="M 288.657856 734.239434 
L 277.49844 739.09392 
" style="fill: none; stroke: #000000; stroke-width: 0.8; stroke-linecap: square"/>
    </g>
    <g id="text_7">
     <!-- 0.50 -->
     <g transform="translate(263.508553 757.460404) scale(0.1 -0.1)">
      <use xlink:href="#DejaVuSans-30"/>
      <use xlink:href="#DejaVuSans-2e" transform="translate(63.623047 0)"/>
      <use xlink:href="#DejaVuSans-35" transform="translate(95.410156 0)"/>
      <use xlink:href="#DejaVuSans-30" transform="translate(159.033203 0)"/>
     </g>
    </g>
   </g>
   <g id="xtick_8">
    <g id="line2d_9">
     <path d="M 237.295127 708.810392 
L 226.149689 713.572773 
" style="fill: none; stroke: #000000; stroke-width: 0.8; stroke-linecap: square"/>
    </g>
    <g id="text_8">
     <!-- 0.75 -->
     <g transform="translate(212.204214 731.845089) scale(0.1 -0.1)">
      <use xlink:href="#DejaVuSans-30"/>
      <use xlink:href="#DejaVuSans-2e" transform="translate(63.623047 0)"/>
      <use xlink:href="#DejaVuSans-37" transform="translate(95.410156 0)"/>
      <use xlink:href="#DejaVuSans-35" transform="translate(159.033203 0)"/>
     </g>
    </g>
   </g>
   <g id="text_9">
    <!-- X (m) -->
    <g transform="translate(395.039199 837.512161) rotate(-333.63107) scale(0.14 -0.14)">
     <defs>
      <path id="DejaVuSans-58" d="M 403 4666 
L 1081 4666 
L 2241 2931 
L 3406 4666 
L 4084 4666 
L 2584 2425 
L 4184 0 
L 3506 0 
L 2194 1984 
L 872 0 
L 191 0 
L 1856 2491 
L 403 4666 
z
" transform="scale(0.015625)"/>
      <path id="DejaVuSans-20" transform="scale(0.015625)"/>
      <path id="DejaVuSans-28" d="M 1984 4856 
Q 1566 4138 1362 3434 
Q 1159 2731 1159 2009 
Q 1159 1288 1364 580 
Q 1569 -128 1984 -844 
L 1484 -844 
Q 1016 -109 783 600 
Q 550 1309 550 2009 
Q 550 2706 781 3412 
Q 1013 4119 1484 4856 
L 1984 4856 
z
" transform="scale(0.015625)"/>
      <path id="DejaVuSans-6d" d="M 3328 2828 
Q 3544 3216 3844 3400 
Q 4144 3584 4550 3584 
Q 5097 3584 5394 3201 
Q 5691 2819 5691 2113 
L 5691 0 
L 5113 0 
L 5113 2094 
Q 5113 2597 4934 2840 
Q 4756 3084 4391 3084 
Q 3944 3084 3684 2787 
Q 3425 2491 3425 1978 
L 3425 0 
L 2847 0 
L 2847 2094 
Q 2847 2600 2669 2842 
Q 2491 3084 2119 3084 
Q 1678 3084 1418 2786 
Q 1159 2488 1159 1978 
L 1159 0 
L 581 0 
L 581 3500 
L 1159 3500 
L 1159 2956 
Q 1356 3278 1631 3431 
Q 1906 3584 2284 3584 
Q 2666 3584 2933 3390 
Q 3200 3197 3328 2828 
z
" transform="scale(0.015625)"/>
      <path id="DejaVuSans-29" d="M 513 4856 
L 1013 4856 
Q 1481 4119 1714 3412 
Q 1947 2706 1947 2009 
Q 1947 1309 1714 600 
Q 1481 -109 1013 -844 
L 513 -844 
Q 928 -128 1133 580 
Q 1338 1288 1338 2009 
Q 1338 2731 1133 3434 
Q 928 4138 513 4856 
z
" transform="scale(0.015625)"/>
     </defs>
     <use xlink:href="#DejaVuSans-58"/>
     <use xlink:href="#DejaVuSans-20" transform="translate(68.505859 0)"/>
     <use xlink:href="#DejaVuSans-28" transform="translate(100.292969 0)"/>
     <use xlink:href="#DejaVuSans-6d" transform="translate(139.306641 0)"/>
     <use xlink:href="#DejaVuSans-29" transform="translate(236.71875 0)"/>
    </g>
   </g>
  </g>
  <g id="axis3d_2">
   <g id="line2d_10">
    <path d="M 1092.798771 708.286308 
L 661.063784 922.309689 
" style="fill: none; stroke: #000000; stroke-width: 0.8; stroke-linecap: square"/>
   </g>
   <g id="xtick_9">
    <g id="line2d_11">
     <path d="M 1059.270316 721.465879 
L 1070.422933 726.273988 
" style="fill: none; stroke: #000000; stroke-width: 0.8; stroke-linecap: square"/>
    </g>
    <g id="text_10">
     <!-- −1.0 -->
     <g transform="translate(1061.11625 744.59319) scale(0.1 -0.1)">
      <use xlink:href="#DejaVuSans-2212"/>
      <use xlink:href="#DejaVuSans-31" transform="translate(83.789062 0)"/>
      <use xlink:href="#DejaVuSans-2e" transform="translate(147.412109 0)"/>
      <use xlink:href="#DejaVuSans-30" transform="translate(179.199219 0)"/>
     </g>
    </g>
   </g>
   <g id="xtick_10">
    <g id="line2d_12">
     <path d="M 973.938152 763.712762 
L 985.111544 768.675107 
" style="fill: none; stroke: #000000; stroke-width: 0.8; stroke-linecap: square"/>
    </g>
    <g id="text_11">
     <!-- −0.5 -->
     <g transform="translate(975.879104 787.150533) scale(0.1 -0.1)">
      <use xlink:href="#DejaVuSans-2212"/>
      <use xlink:href="#DejaVuSans-30" transform="translate(83.789062 0)"/>
      <use xlink:href="#DejaVuSans-2e" transform="translate(147.412109 0)"/>
      <use xlink:href="#DejaVuSans-35" transform="translate(179.199219 0)"/>
     </g>
    </g>
   </g>
   <g id="xtick_11">
    <g id="line2d_13">
     <path d="M 885.848951 807.324619 
L 897.038641 812.448742 
" style="fill: none; stroke: #000000; stroke-width: 0.8; stroke-linecap: square"/>
    </g>
    <g id="text_12">
     <!-- 0.0 -->
     <g transform="translate(892.073647 831.084973) scale(0.1 -0.1)">
      <use xlink:href="#DejaVuSans-30"/>
      <use xlink:href="#DejaVuSans-2e" transform="translate(63.623047 0)"/>
      <use xlink:href="#DejaVuSans-30" transform="translate(95.410156 0)"/>
     </g>
    </g>
   </g>
   <g id="xtick_12">
    <g id="line2d_14">
     <path d="M 794.866903 852.368688 
L 806.067934 857.662631 
" style="fill: none; stroke: #000000; stroke-width: 0.8; stroke-linecap: square"/>
    </g>
    <g id="text_13">
     <!-- 0.5 -->
     <g transform="translate(801.184115 876.464448) scale(0.1 -0.1)">
      <use xlink:href="#DejaVuSans-30"/>
      <use xlink:href="#DejaVuSans-2e" transform="translate(63.623047 0)"/>
      <use xlink:href="#DejaVuSans-35" transform="translate(95.410156 0)"/>
     </g>
    </g>
   </g>
   <g id="xtick_13">
    <g id="line2d_15">
     <path d="M 700.847125 898.916699 
L 712.054014 904.389046 
" style="fill: none; stroke: #000000; stroke-width: 0.8; stroke-linecap: square"/>
    </g>
    <g id="text_14">
     <!-- 1.0 -->
     <g transform="translate(707.255176 923.361445) scale(0.1 -0.1)">
      <use xlink:href="#DejaVuSans-31"/>
      <use xlink:href="#DejaVuSans-2e" transform="translate(63.623047 0)"/>
      <use xlink:href="#DejaVuSans-30" transform="translate(95.410156 0)"/>
     </g>
    </g>
   </g>
   <g id="text_15">
    <!-- Y (m) -->
    <g transform="translate(892.969508 854.425856) rotate(-26.36893) scale(0.14 -0.14)">
     <defs>
      <path id="DejaVuSans-59" d="M -13 4666 
L 666 4666 
L 1959 2747 
L 3244 4666 
L 3922 4666 
L 2272 2222 
L 2272 0 
L 1638 0 
L 1638 2222 
L -13 4666 
z
" transform="scale(0.015625)"/>
     </defs>
     <use xlink:href="#DejaVuSans-59"/>
     <use xlink:href="#DejaVuSans-20" transform="translate(61.083984 0)"/>
     <use xlink:href="#DejaVuSans-28" transform="translate(92.871094 0)"/>
     <use xlink:href="#DejaVuSans-6d" transform="translate(131.884766 0)"/>
     <use xlink:href="#DejaVuSans-29" transform="translate(229.296875 0)"/>
    </g>
   </g>
  </g>
  <g id="axis3d_3">
   <g id="line2d_16">
    <path d="M 1092.798771 708.286308 
L 1109.403032 285.285415 
" style="fill: none; stroke: #000000; stroke-width: 0.8; stroke-linecap: square"/>
   </g>
   <g id="xtick_14">
    <g id="line2d_17">
     <path d="M 1090.099022 680.732576 
L 1101.271403 685.451772 
" style="fill: none; stroke: #000000; stroke-width: 0.8; stroke-linecap: square"/>
    </g>
    <g id="text_16">
     <!-- 0.0 -->
     <g transform="translate(1105.635461 689.902189) scale(0.1 -0.1)">
      <use xlink:href="#DejaVuSans-30"/>
      <use xlink:href="#DejaVuSans-2e" transform="translate(63.623047 0)"/>
      <use xlink:href="#DejaVuSans-30" transform="translate(95.410156 0)"/>
     </g>
    </g>
   </g>
   <g id="xtick_15">
    <g id="line2d_18">
     <path d="M 1091.836786 636.072104 
L 1103.057647 640.729576 
" style="fill: none; stroke: #000000; stroke-width: 0.8; stroke-linecap: square"/>
    </g>
    <g id="text_17">
     <!-- 0.2 -->
     <g transform="translate(1107.469465 645.22116) scale(0.1 -0.1)">
      <use xlink:href="#DejaVuSans-30"/>
      <use xlink:href="#DejaVuSans-2e" transform="translate(63.623047 0)"/>
      <use xlink:href="#DejaVuSans-32" transform="translate(95.410156 0)"/>
     </g>
    </g>
   </g>
   <g id="xtick_16">
    <g id="line2d_19">
     <path d="M 1093.588684 591.048375 
L 1104.858447 595.64296 
" style="fill: none; stroke: #000000; stroke-width: 0.8; stroke-linecap: square"/>
    </g>
    <g id="text_18">
     <!-- 0.4 -->
     <g transform="translate(1109.318396 600.176486) scale(0.1 -0.1)">
      <defs>
       <path id="DejaVuSans-34" d="M 2419 4116 
L 825 1625 
L 2419 1625 
L 2419 4116 
z
M 2253 4666 
L 3047 4666 
L 3047 1625 
L 3713 1625 
L 3713 1100 
L 3047 1100 
L 3047 0 
L 2419 0 
L 2419 1100 
L 313 1100 
L 313 1709 
L 2253 4666 
z
" transform="scale(0.015625)"/>
      </defs>
      <use xlink:href="#DejaVuSans-30"/>
      <use xlink:href="#DejaVuSans-2e" transform="translate(63.623047 0)"/>
      <use xlink:href="#DejaVuSans-34" transform="translate(95.410156 0)"/>
     </g>
    </g>
   </g>
   <g id="xtick_17">
    <g id="line2d_20">
     <path d="M 1095.354889 545.656939 
L 1106.673981 550.187451 
" style="fill: none; stroke: #000000; stroke-width: 0.8; stroke-linecap: square"/>
    </g>
    <g id="text_19">
     <!-- 0.6 -->
     <g transform="translate(1111.182436 554.763711) scale(0.1 -0.1)">
      <defs>
       <path id="DejaVuSans-36" d="M 2113 2584 
Q 1688 2584 1439 2293 
Q 1191 2003 1191 1497 
Q 1191 994 1439 701 
Q 1688 409 2113 409 
Q 2538 409 2786 701 
Q 3034 994 3034 1497 
Q 3034 2003 2786 2293 
Q 2538 2584 2113 2584 
z
M 3366 4563 
L 3366 3988 
Q 3128 4100 2886 4159 
Q 2644 4219 2406 4219 
Q 1781 4219 1451 3797 
Q 1122 3375 1075 2522 
Q 1259 2794 1537 2939 
Q 1816 3084 2150 3084 
Q 2853 3084 3261 2657 
Q 3669 2231 3669 1497 
Q 3669 778 3244 343 
Q 2819 -91 2113 -91 
Q 1303 -91 875 529 
Q 447 1150 447 2328 
Q 447 3434 972 4092 
Q 1497 4750 2381 4750 
Q 2619 4750 2861 4703 
Q 3103 4656 3366 4563 
z
" transform="scale(0.015625)"/>
      </defs>
      <use xlink:href="#DejaVuSans-30"/>
      <use xlink:href="#DejaVuSans-2e" transform="translate(63.623047 0)"/>
      <use xlink:href="#DejaVuSans-36" transform="translate(95.410156 0)"/>
     </g>
    </g>
   </g>
   <g id="xtick_18">
    <g id="line2d_21">
     <path d="M 1097.135579 499.893274 
L 1108.504431 504.358504 
" style="fill: none; stroke: #000000; stroke-width: 0.8; stroke-linecap: square"/>
    </g>
    <g id="text_20">
     <!-- 0.8 -->
     <g transform="translate(1113.061771 508.978304) scale(0.1 -0.1)">
      <defs>
       <path id="DejaVuSans-38" d="M 2034 2216 
Q 1584 2216 1326 1975 
Q 1069 1734 1069 1313 
Q 1069 891 1326 650 
Q 1584 409 2034 409 
Q 2484 409 2743 651 
Q 3003 894 3003 1313 
Q 3003 1734 2745 1975 
Q 2488 2216 2034 2216 
z
M 1403 2484 
Q 997 2584 770 2862 
Q 544 3141 544 3541 
Q 544 4100 942 4425 
Q 1341 4750 2034 4750 
Q 2731 4750 3128 4425 
Q 3525 4100 3525 3541 
Q 3525 3141 3298 2862 
Q 3072 2584 2669 2484 
Q 3125 2378 3379 2068 
Q 3634 1759 3634 1313 
Q 3634 634 3220 271 
Q 2806 -91 2034 -91 
Q 1263 -91 848 271 
Q 434 634 434 1313 
Q 434 1759 690 2068 
Q 947 2378 1403 2484 
z
M 1172 3481 
Q 1172 3119 1398 2916 
Q 1625 2713 2034 2713 
Q 2441 2713 2670 2916 
Q 2900 3119 2900 3481 
Q 2900 3844 2670 4047 
Q 2441 4250 2034 4250 
Q 1625 4250 1398 4047 
Q 1172 3844 1172 3481 
z
" transform="scale(0.015625)"/>
      </defs>
      <use xlink:href="#DejaVuSans-30"/>
      <use xlink:href="#DejaVuSans-2e" transform="translate(63.623047 0)"/>
      <use xlink:href="#DejaVuSans-38" transform="translate(95.410156 0)"/>
     </g>
    </g>
   </g>
   <g id="xtick_19">
    <g id="line2d_22">
     <path d="M 1098.930931 453.752781 
L 1110.34998 458.151497 
" style="fill: none; stroke: #000000; stroke-width: 0.8; stroke-linecap: square"/>
    </g>
    <g id="text_21">
     <!-- 1.0 -->
     <g transform="translate(1114.95659 462.81566) scale(0.1 -0.1)">
      <use xlink:href="#DejaVuSans-31"/>
      <use xlink:href="#DejaVuSans-2e" transform="translate(63.623047 0)"/>
      <use xlink:href="#DejaVuSans-30" transform="translate(95.410156 0)"/>
     </g>
    </g>
   </g>
   <g id="xtick_20">
    <g id="line2d_23">
     <path d="M 1100.741127 407.230788 
L 1112.210818 411.561733 
" style="fill: none; stroke: #000000; stroke-width: 0.8; stroke-linecap: square"/>
    </g>
    <g id="text_22">
     <!-- 1.2 -->
     <g transform="translate(1116.867086 416.271097) scale(0.1 -0.1)">
      <use xlink:href="#DejaVuSans-31"/>
      <use xlink:href="#DejaVuSans-2e" transform="translate(63.623047 0)"/>
      <use xlink:href="#DejaVuSans-32" transform="translate(95.410156 0)"/>
     </g>
    </g>
   </g>
   <g id="xtick_21">
    <g id="line2d_24">
     <path d="M 1102.566352 360.322542 
L 1114.087133 364.584437 
" style="fill: none; stroke: #000000; stroke-width: 0.8; stroke-linecap: square"/>
    </g>
    <g id="text_23">
     <!-- 1.4 -->
     <g transform="translate(1118.793454 369.339856) scale(0.1 -0.1)">
      <use xlink:href="#DejaVuSans-31"/>
      <use xlink:href="#DejaVuSans-2e" transform="translate(63.623047 0)"/>
      <use xlink:href="#DejaVuSans-34" transform="translate(95.410156 0)"/>
     </g>
    </g>
   </g>
   <g id="xtick_22">
    <g id="line2d_25">
     <path d="M 1104.406795 313.023214 
L 1115.979121 317.214753 
" style="fill: none; stroke: #000000; stroke-width: 0.8; stroke-linecap: square"/>
    </g>
    <g id="text_24">
     <!-- 1.6 -->
     <g transform="translate(1120.735892 322.017097) scale(0.1 -0.1)">
      <use xlink:href="#DejaVuSans-31"/>
      <use xlink:href="#DejaVuSans-2e" transform="translate(63.623047 0)"/>
      <use xlink:href="#DejaVuSans-36" transform="translate(95.410156 0)"/>
     </g>
    </g>
   </g>
   <g id="text_25">
    <!-- Z (m) -->
    <g transform="translate(1147.729669 520.213201) rotate(-87.752095) scale(0.14 -0.14)">
     <defs>
      <path id="DejaVuSans-5a" d="M 359 4666 
L 4025 4666 
L 4025 4184 
L 1075 531 
L 4097 531 
L 4097 0 
L 288 0 
L 288 481 
L 3238 4134 
L 359 4134 
L 359 4666 
z
" transform="scale(0.015625)"/>
     </defs>
     <use xlink:href="#DejaVuSans-5a"/>
     <use xlink:href="#DejaVuSans-20" transform="translate(68.505859 0)"/>
     <use xlink:href="#DejaVuSans-28" transform="translate(100.292969 0)"/>
     <use xlink:href="#DejaVuSans-6d" transform="translate(139.306641 0)"/>
     <use xlink:href="#DejaVuSans-29" transform="translate(236.71875 0)"/>
    </g>
   </g>
  </g>
  <g id="axes_1">
   <g id="line2d_26">
    <path d="M 621.688125 654.512441 
L 621.796046 654.306867 
L 621.946002 653.716721 
L 621.757799 653.825307 
L 621.856155 653.848971 
L 621.873443 654.036574 
L 621.862962 653.952695 
L 620.834415 654.342539 
L 621.35196 654.290452 
L 621.329049 654.357782 
L 621.714683 653.752409 
L 621.540033 653.719808 
L 620.85411 654.075886 
L 621.366619 653.720983 
L 621.610657 654.197391 
L 621.565284 654.160058 
L 621.668795 653.676508 
L 621.524149 653.997088 
L 621.168117 654.064808 
L 621.378839 653.680143 
L 621.571213 653.87832 
L 621.469039 653.983013 
L 621.267361 653.660755 
L 621.468312 653.757918 
L 621.611561 654.12805 
L 621.426472 653.782094 
L 621.086203 653.548088 
L 621.155947 653.457791 
L 620.453075 653.832724 
L 620.878215 653.598988 
L 620.708921 653.375839 
L 620.962361 653.650037 
L 621.251648 653.705561 
L 621.098124 653.597604 
L 621.245482 653.51118 
L 621.241494 653.705184 
L 620.968545 653.629381 
L 620.498388 653.293647 
L 621.1097 653.219688 
L 620.784592 653.204707 
L 620.921659 653.51472 
L 621.142093 653.335663 
L 620.77893 653.417111 
L 620.676291 653.21957 
L 621.138416 653.32775 
L 621.006502 653.175653 
L 621.143614 653.544473 
L 621.135668 653.342025 
L 620.898874 653.260322 
L 620.87486 653.330407 
L 620.874268 653.7022 
L 621.123972 653.820882 
L 621.076178 653.444887 
L 621.127486 653.488329 
L 620.858715 653.675147 
L 621.009883 653.519909 
L 620.594321 653.402477 
L 618.894111 653.943063 
L 618.77944 654.134453 
L 618.518697 654.01754 
L 618.673772 653.592095 
L 618.855645 653.572761 
L 618.580183 653.966669 
L 618.172729 653.970786 
L 618.98471 653.829241 
L 618.879475 653.717596 
L 618.799487 653.984489 
L 618.988818 654.036789 
L 618.194955 654.089566 
L 618.185241 654.499192 
L 618.499951 654.126994 
L 618.326125 654.241531 
L 618.187676 654.313034 
L 618.57261 654.106711 
L 618.58854 653.908039 
L 618.443857 653.919683 
L 618.628636 654.079234 
L 618.273862 653.941563 
L 618.652575 654.194746 
L 619.456929 653.503479 
L 619.424886 653.162049 
L 619.692706 653.099203 
L 629.053034 655.183566 
L 627.98088 655.357258 
L 614.823364 663.050309 
L 598.274512 666.342725 
L 589.459043 657.807779 
L 600.570523 651.172006 
L 618.845726 648.483876 
L 634.473662 645.049188 
L 642.054513 640.539957 
L 640.359715 639.640132 
L 634.600298 639.431956 
L 627.857834 637.921225 
L 621.180772 634.228323 
L 617.217219 628.791727 
L 616.28159 622.174257 
L 616.485192 615.365522 
L 618.681582 606.824475 
L 621.024186 598.664193 
L 622.843443 591.186031 
L 624.071372 584.210864 
L 621.715149 577.265057 
L 620.523569 562.742256 
L 619.016774 556.746636 
L 618.231254 550.071718 
L 617.907904 543.36562 
L 618.932877 537.079918 
L 616.819373 532.739388 
L 617.221683 525.925701 
L 612.636968 521.301388 
L 613.233483 514.598251 
L 613.377884 508.734377 
L 613.299714 503.000694 
L 620.150503 497.200066 
L 621.841845 490.614901 
L 622.566643 483.866998 
L 625.578727 477.822975 
L 626.451048 472.37478 
L 625.50115 466.891649 
L 625.955951 461.403983 
L 623.119801 456.402922 
L 623.790491 451.496507 
L 624.162789 450.34333 
L 625.093649 446.709882 
L 625.620128 439.428608 
L 623.291261 435.168942 
L 620.940177 430.425692 
L 622.25405 423.173954 
L 623.522448 419.235819 
L 623.92216 409.803992 
L 624.872957 403.224014 
L 626.832477 397.061936 
L 628.652886 393.24526 
L 633.719469 387.908893 
L 635.206114 382.420201 
L 635.590918 376.894331 
L 632.970693 372.465107 
L 631.738328 367.483608 
L 626.265536 365.97598 
L 627.213128 361.793627 
L 627.278964 359.452861 
L 629.898609 355.535235 
L 634.000994 348.578503 
L 636.016357 342.951381 
L 642.339693 335.95781 
L 646.049045 330.254558 
L 649.581623 326.344572 
L 648.54169 321.818202 
L 646.966822 318.459506 
L 644.923511 315.252443 
L 646.134756 309.509959 
L 645.498017 306.454964 
L 639.599679 305.441014 
L 643.331696 302.194245 
L 639.884188 301.159138 
L 640.015641 299.992929 
L 643.414706 298.306208 
L 645.485167 295.507064 
L 652.92915 293.535612 
L 657.703448 291.650024 
L 662.419226 290.023777 
L 668.467832 291.23607 
L 659.93111 296.680915 
L 657.315407 300.248883 
L 652.042727 302.960854 
L 650.457352 305.65234 
L 651.299901 305.672679 
L 652.659498 307.450936 
L 657.901422 307.576409 
L 660.532003 307.235854 
L 668.197981 303.322892 
L 668.296082 300.797736 
L 670.378598 299.246671 
L 669.711733 298.018201 
L 671.724701 300.84803 
L 667.773454 306.193143 
L 666.001428 310.760126 
L 663.217472 312.552562 
L 657.226201 313.811619 
L 663.798725 317.891095 
L 662.690808 314.531377 
L 661.842043 312.780346 
L 658.311868 310.631577 
L 641.528298 304.885039 
L 635.133033 301.239329 
L 628.028122 298.745918 
L 616.713987 294.041865 
L 611.250457 294.537209 
L 605.568562 293.110897 
L 603.889253 294.408692 
L 605.688913 296.953307 
L 604.804201 298.237319 
L 602.354234 298.290258 
L 602.580388 295.840794 
L 595.922449 294.154314 
L 597.419176 292.413285 
L 589.022957 289.445073 
L 576.026738 286.575511 
L 574.785479 284.970794 
L 571.790438 287.333425 
L 571.701172 286.231179 
L 574.5614 286.562247 
L 576.890313 288.042779 
L 577.012286 289.67031 
L 570.089545 284.870313 
L 568.182148 284.996185 
L 558.770152 282.843212 
L 556.486806 282.765493 
L 540.250731 277.510769 
L 538.123322 277.657051 
L 539.659635 278.31758 
L 548.141794 280.199627 
L 563.136772 288.363502 
L 566.510088 290.669823 
L 574.830363 293.45742 
L 579.171662 295.061408 
L 578.789923 294.948126 
L 573.838628 295.606756 
L 571.925309 293.442363 
L 568.305553 290.759691 
L 561.511665 289.151576 
L 559.721112 289.162116 
L 557.686257 288.542812 
L 560.461523 292.394515 
L 563.477815 295.506587 
L 563.472998 296.452339 
L 565.383826 298.21896 
L 567.917 298.391939 
L 565.59728 296.130733 
L 559.799382 294.3384 
L 559.437415 293.464266 
L 556.072989 292.509116 
L 555.819413 290.890772 
L 555.812755 288.636621 
L 558.396439 290.908949 
L 560.060657 291.993421 
L 559.819567 293.162893 
L 562.737101 295.996922 
L 556.67383 293.574743 
L 546.415527 292.082182 
L 539.081606 295.945052 
L 510.592263 291.196797 
L 481.612009 281.275292 
L 475.956103 284.398564 
L 457.8003 284.015653 
L 458.653671 288.435947 
L 464.63894 269.612127 
L 457.0944 270.316625 
L 450.18825 268.755559 
L 445.964117 272.771911 
L 459.648688 271.820547 
L 468.097859 275.973066 
L 477.234295 280.050982 
L 486.321869 288.042749 
L 488.001273 294.18602 
L 490.840149 299.023065 
L 489.832277 301.499605 
L 486.878079 306.477581 
L 486.831397 308.924667 
L 487.86008 311.028165 
L 486.976141 314.256253 
L 486.881571 317.028705 
L 487.340414 319.961715 
L 484.977238 323.676329 
L 483.58993 327.764932 
L 481.562646 331.880222 
L 479.665469 333.81125 
L 475.975463 335.928218 
L 476.248799 338.235748 
L 474.124991 342.390996 
L 471.272584 343.527541 
L 469.844829 345.065556 
L 469.909518 345.504268 
L 467.370197 346.225121 
L 459.993582 350.389841 
L 457.721981 352.668621 
L 452.326093 354.174475 
L 447.870262 360.773965 
L 452.625041 361.671817 
L 455.062689 359.653396 
L 458.076189 358.895285 
L 469.182683 354.767914 
L 471.351226 355.026506 
L 475.571622 352.084497 
L 472.580299 350.228577 
L 472.09706 351.019196 
L 465.696998 351.407473 
L 464.090684 352.960258 
L 459.342497 356.189398 
L 456.713382 358.256108 
L 455.873129 358.407314 
L 458.407824 361.190839 
L 461.197999 359.653574 
L 463.072848 360.207104 
L 468.027029 358.701594 
L 467.104569 357.906281 
L 467.811456 356.848282 
L 465.332195 355.335531 
L 461.667095 357.22472 
L 458.926458 359.811339 
L 458.860935 361.780292 
L 455.117925 363.502717 
L 456.717155 366.505983 
L 458.033258 366.13231 
L 457.496015 366.775563 
L 460.35643 365.15838 
L 456.520443 365.096809 
L 450.112439 362.87385 
L 466.476378 373.802581 
L 450.442865 368.039857 
L 404.000109 357.156371 
L 405.034481 358.508739 
L 373.383717 352.51573 
L 385.165508 355.037759 
L 379.783548 361.538474 
L 356.785631 354.283217 
L 351.738679 357.751933 
L 363.328705 370.872291 
L 365.582172 377.443775 
L 406.599448 370.238121 
L 421.052316 371.990433 
L 446.57515 376.656767 
L 458.9749 379.147819 
L 470.668977 382.002325 
L 480.88437 386.231418 
L 492.705936 387.602565 
L 501.259476 388.037092 
L 515.059069 391.096507 
L 522.061038 392.354143 
L 528.406646 393.358103 
L 539.607635 394.480584 
L 546.165857 396.751422 
L 554.076013 396.13598 
L 563.365603 398.689645 
L 569.705807 401.667018 
L 576.309363 405.409129 
L 586.587175 407.066661 
L 591.291308 410.58039 
L 592.739047 409.654444 
L 597.23766 410.737789 
L 603.625201 410.360401 
L 608.082455 409.474682 
L 613.64047 410.0266 
L 620.70294 412.235789 
L 625.241231 413.189822 
L 632.059928 413.783973 
L 637.794356 414.91932 
L 640.077391 417.324354 
L 645.691576 420.79678 
L 647.391969 424.393096 
L 651.487639 427.125502 
L 652.349156 428.26772 
L 650.451304 425.912721 
L 655.01603 422.762416 
L 656.974526 419.889747 
L 662.430319 420.936341 
L 668.247107 421.833097 
L 673.088658 424.217536 
L 678.276305 426.475143 
L 684.909974 429.169666 
L 690.621342 432.350718 
L 691.822082 433.622384 
L 695.060738 434.972743 
L 702.979886 434.728876 
L 708.445854 436.489398 
L 719.40372 436.409055 
L 726.407132 437.99611 
L 732.170114 438.854632 
L 740.616149 442.395518 
L 747.091864 447.096569 
L 747.392111 448.96887 
L 749.547887 452.510768 
L 750.214147 455.222904 
L 751.958144 456.232147 
L 755.809715 453.804315 
L 754.273276 450.594014 
L 761.509003 449.736559 
L 768.326978 446.381132 
L 761.032609 442.149209 
L 756.430217 438.173846 
L 739.633819 429.58986 
L 738.422872 429.920635 
L 739.687923 432.639802 
L 741.339988 433.27104 
L 746.130521 436.89952 
L 749.766723 438.691229 
L 752.80585 438.510546 
L 754.339886 437.757589 
L 752.994241 434.845521 
L 758.075913 432.126285 
L 757.900435 429.937095 
L 757.033114 428.134987 
L 757.512301 428.177693 
L 759.201201 428.956512 
L 761.632955 432.528824 
L 762.234984 434.814293 
L 767.706998 436.84211 
L 777.404109 439.724708 
L 779.847102 436.059259 
L 780.312042 434.439955 
L 778.86329 430.937156 
L 777.854686 429.407328 
L 778.44551 429.334358 
L 779.803608 430.073767 
L 758.530345 441.340232 
L 755.848832 438.801807 
L 759.093495 432.065855 
L 769.156634 421.567734 
L 777.107017 417.057751 
L 752.190544 430.845561 
L 762.868036 434.29063 
L 772.128215 440.643292 
L 774.120034 445.86715 
L 780.093799 448.547562 
L 781.699581 450.877225 
L 778.884802 453.019328 
L 755.674233 440.933586 
L 763.678604 437.10809 
L 766.458084 433.635145 
L 771.521617 427.85454 
L 780.037246 422.638233 
L 786.467081 417.527117 
L 792.440972 415.383446 
L 798.239529 411.665995 
L 803.594745 409.541649 
L 809.410388 406.156626 
L 815.958072 403.770926 
L 822.409193 401.656025 
L 827.777418 399.503961 
L 830.243495 396.495885 
L 835.362814 392.904942 
L 835.408273 387.846308 
L 835.240673 386.760096 
L 837.511997 386.102398 
L 835.477577 384.633167 
L 836.579018 383.90781 
L 839.030149 381.335604 
L 840.019959 378.627937 
L 841.88334 374.484645 
L 845.206523 371.341834 
L 850.302169 368.223702 
L 853.636058 368.264738 
L 863.913716 363.835669 
L 862.441257 363.753882 
L 861.479402 361.658385 
L 859.466824 360.400278 
L 861.746327 358.90664 
L 863.049165 358.256142 
L 868.725816 357.589754 
L 874.938114 354.36482 
L 880.595403 352.679837 
L 884.280537 350.508796 
L 885.204816 349.105129 
L 887.181829 348.80822 
L 889.501305 344.820055 
L 892.208308 341.910171 
L 891.494815 341.471795 
L 892.915587 339.674734 
L 897.106406 337.260766 
L 902.987989 335.410307 
L 909.275971 331.801732 
L 915.552961 331.736861 
L 918.697895 330.481749 
L 923.474753 331.168884 
L 924.907338 331.951205 
L 921.044263 327.586816 
L 917.312571 328.013313 
L 914.365021 325.828029 
L 913.329182 323.979503 
L 919.925887 319.746583 
L 922.178716 321.027935 
L 935.799505 317.997101 
L 932.583338 316.563966 
L 939.769639 313.885804 
L 934.4361 312.45601 
L 924.873902 316.140892 
L 915.128046 321.475738 
L 909.828725 323.570135 
L 906.253456 326.579822 
L 906.581645 326.249985 
L 912.839704 324.77283 
L 915.932319 323.089254 
L 925.079228 321.589518 
L 928.563158 319.500627 
L 935.332382 318.556914 
L 932.310661 315.766105 
L 931.233573 316.510408 
L 926.817948 317.120126 
L 921.38409 316.934111 
L 917.421514 315.163505 
L 913.278939 317.153931 
L 917.306707 316.125993 
L 922.877353 314.999965 
L 926.365863 314.662572 
L 931.152939 312.784172 
L 932.576744 311.656196 
L 935.896037 308.353483 
L 933.687 305.908491 
L 929.994535 305.641928 
L 927.45427 306.648084 
L 923.097187 308.217958 
L 921.605311 311.001523 
L 925.563297 313.487943 
L 930.038316 310.05307 
L 941.42346 303.569824 
L 936.093864 308.010478 
L 902.773028 298.778027 
L 894.946705 297.176313 
L 883.044055 293.377936 
L 859.308378 289.863298 
L 866.886595 286.392385 
L 854.748077 280.55827 
L 871.364867 279.025463 
L 882.545687 277.809615 
L 891.883646 280.758753 
L 902.75023 283.25789 
L 908.425868 287.771338 
L 905.198654 286.697147 
L 897.225808 287.851994 
L 894.895405 288.789322 
L 890.324495 288.531665 
L 884.293024 289.078567 
L 878.48858 287.490765 
L 872.218032 286.082639 
L 866.537327 284.686377 
L 861.362147 282.907799 
L 856.142616 281.520767 
L 851.215827 282.458076 
L 849.531343 284.048953 
L 847.031042 283.512863 
L 842.924269 280.723097 
L 837.711945 280.366101 
L 830.438501 278.280579 
L 825.740244 278.069681 
L 820.046443 279.141792 
L 815.606459 279.05166 
L 810.596085 279.903771 
L 807.504223 278.398645 
L 804.860938 277.297459 
L 803.169879 277.090407 
L 805.58738 275.373327 
L 806.565494 273.637161 
L 803.738296 275.22296 
L 801.974102 275.919997 
L 794.506544 276.739736 
L 788.188599 277.767089 
L 785.674791 276.582012 
L 779.690182 276.690398 
L 771.276688 274.819976 
L 768.218363 274.37515 
L 766.35489 273.759346 
L 764.668241 272.538914 
L 762.924287 270.85363 
L 758.672374 267.973443 
L 754.057053 266.098154 
L 748.289002 266.103103 
L 743.044367 265.465417 
L 735.485306 266.2067 
L 724.819815 266.725584 
L 721.837554 265.923297 
L 716.077108 264.881421 
L 708.934587 262.994351 
L 708.336419 260.801973 
L 705.737285 257.235537 
L 707.58308 255.894145 
L 704.777007 254.674768 
L 702.397013 254.137603 
L 697.107909 254.973039 
L 688.409332 253.786135 
L 680.22213 252.409753 
L 674.573673 254.952271 
L 667.998194 254.042085 
L 659.859755 252.356 
L 653.90232 251.820229 
L 650.837884 248.9039 
L 648.121396 247.783693 
L 648.138482 248.187731 
L 654.782855 251.991024 
L 659.917173 253.808076 
L 662.559372 253.691574 
L 663.738797 254.686941 
L 663.208452 253.413264 
L 662.119226 252.92929 
L 659.168811 253.706628 
L 655.688445 253.420135 
L 651.743114 251.978589 
L 646.910184 251.452474 
L 645.738198 250.013927 
L 642.779885 249.201591 
L 642.352778 251.317587 
L 645.408701 251.451322 
L 646.745238 252.856931 
L 644.606351 250.873597 
L 640.440376 249.478437 
L 636.455134 249.335438 
L 628.891804 246.539874 
L 625.208987 245.754165 
L 623.436706 245.989898 
L 624.175135 246.954015 
L 629.175446 246.749379 
L 631.036094 246.093799 
L 630.597874 246.714672 
L 638.429438 244.454375 
L 633.542609 237.122397 
L 631.681467 230.42709 
L 648.671008 235.571189 
L 656.410499 236.59567 
L 648.615314 243.219575 
L 652.693196 246.430502 
L 650.490269 247.355541 
L 676.137931 261.816613 
L 685.716773 265.641911 
L 701.059663 276.103878 
L 699.787546 270.894611 
L 686.982517 267.917025 
L 675.469162 264.493753 
L 660.879954 265.313541 
L 646.266306 265.216104 
L 630.747009 266.293809 
L 618.606296 269.909165 
L 613.679632 270.504296 
L 608.244578 271.723587 
L 604.117722 275.00083 
L 600.980772 276.990504 
L 597.492548 278.836274 
L 593.413259 279.098436 
L 587.801727 277.803763 
L 580.52505 278.370654 
L 571.32309 280.071571 
L 565.289536 279.869494 
L 559.711814 281.478887 
L 555.125029 283.347096 
L 552.119046 285.740958 
L 550.939665 287.187708 
L 551.509548 289.701711 
L 552.05158 292.873853 
L 554.06743 294.130338 
L 551.886038 293.309584 
L 550.157493 295.388884 
L 544.398712 297.320746 
L 541.840181 297.537562 
L 536.50656 300.961584 
L 532.438161 301.114382 
L 530.421658 303.220041 
L 533.306604 303.965559 
L 538.014608 304.303962 
L 543.069963 305.297368 
L 552.886063 300.842978 
L 553.63096 299.354387 
L 557.463856 297.043203 
L 559.597185 295.917812 
L 556.146606 296.84116 
L 553.870554 299.360341 
L 551.485676 301.348688 
L 550.255616 302.630065 
L 549.613736 302.933582 
L 553.562384 302.866001 
L 556.964394 302.14325 
L 560.762257 304.532337 
L 562.02903 301.752349 
L 562.02903 301.752349 
" clip-path="url(#p39572f0a93)" style="fill: none; stroke: #0000ff; stroke-width: 2; stroke-linecap: square"/>
   </g>
   <g id="line2d_27">
    <path d="M 619.015818 659.368966 
L 617.71499 317.593095 
L 504.358371 361.567591 
L 641.485289 417.735694 
L 863.898314 327.250441 
L 595.884882 225.624384 
L 373.623752 308.017817 
L 504.358371 361.567591 
L 617.71499 317.593095 
L 619.015818 659.368966 
" clip-path="url(#p39572f0a93)" style="fill: none; stroke-dasharray: 7.4,3.2; stroke-dashoffset: 0; stroke: #008000; stroke-width: 2"/>
   </g>
   <g id="Path3DCollection_1">
    <path d="M 591.412746 230.09652 
L 600.357018 221.152248 
M 591.412746 221.152248 
L 600.357018 230.09652 
" clip-path="url(#p39572f0a93)" style="fill-opacity: 0.3; stroke: #000000; stroke-opacity: 0.3; stroke-width: 1.5"/>
    <path d="M 614.543683 663.841102 
L 623.487954 654.89683 
M 614.543683 654.89683 
L 623.487954 663.841102 
" clip-path="url(#p39572f0a93)" style="fill-opacity: 0.388704; stroke: #000000; stroke-opacity: 0.388704; stroke-width: 1.5"/>
    <path d="M 369.151616 312.489953 
L 378.095888 303.545681 
M 369.151616 303.545681 
L 378.095888 312.489953 
" clip-path="url(#p39572f0a93)" style="fill-opacity: 0.600219; stroke: #000000; stroke-opacity: 0.600219; stroke-width: 1.5"/>
    <path d="M 613.242854 322.065231 
L 622.187126 313.120959 
M 613.242854 313.120959 
L 622.187126 322.065231 
" clip-path="url(#p39572f0a93)" style="fill-opacity: 0.635108; stroke: #000000; stroke-opacity: 0.635108; stroke-width: 1.5"/>
    <path d="M 859.426178 331.722577 
L 868.37045 322.778305 
M 859.426178 322.778305 
L 868.37045 331.722577 
" clip-path="url(#p39572f0a93)" style="fill-opacity: 0.670297; stroke: #000000; stroke-opacity: 0.670297; stroke-width: 1.5"/>
    <path d="M 499.886235 366.039727 
L 508.830507 357.095455 
M 499.886235 357.095455 
L 508.830507 366.039727 
" clip-path="url(#p39572f0a93)" style="fill-opacity: 0.795339; stroke: #000000; stroke-opacity: 0.795339; stroke-width: 1.5"/>
    <path d="M 499.886235 366.039727 
L 508.830507 357.095455 
M 499.886235 357.095455 
L 508.830507 366.039727 
" clip-path="url(#p39572f0a93)" style="fill-opacity: 0.795339; stroke: #000000; stroke-opacity: 0.795339; stroke-width: 1.5"/>
    <path d="M 637.013153 422.20783 
L 645.957425 413.263558 
M 637.013153 413.263558 
L 645.957425 422.20783 
" clip-path="url(#p39572f0a93)" style="stroke: #000000; stroke-width: 1.5"/>
   </g>
   <g id="text_26">
    <!-- Start / Land (0,0,0) -->
    <g transform="translate(618.948415 641.659571) scale(0.12 -0.12)">
     <defs>
      <path id="DejaVuSans-Bold-53" d="M 3834 4519 
L 3834 3531 
Q 3450 3703 3084 3790 
Q 2719 3878 2394 3878 
Q 1963 3878 1756 3759 
Q 1550 3641 1550 3391 
Q 1550 3203 1689 3098 
Q 1828 2994 2194 2919 
L 2706 2816 
Q 3484 2659 3812 2340 
Q 4141 2022 4141 1434 
Q 4141 663 3683 286 
Q 3225 -91 2284 -91 
Q 1841 -91 1394 -6 
Q 947 78 500 244 
L 500 1259 
Q 947 1022 1364 901 
Q 1781 781 2169 781 
Q 2563 781 2772 912 
Q 2981 1044 2981 1288 
Q 2981 1506 2839 1625 
Q 2697 1744 2272 1838 
L 1806 1941 
Q 1106 2091 782 2419 
Q 459 2747 459 3303 
Q 459 4000 909 4375 
Q 1359 4750 2203 4750 
Q 2588 4750 2994 4692 
Q 3400 4634 3834 4519 
z
" transform="scale(0.015625)"/>
      <path id="DejaVuSans-Bold-74" d="M 1759 4494 
L 1759 3500 
L 2913 3500 
L 2913 2700 
L 1759 2700 
L 1759 1216 
Q 1759 972 1856 886 
Q 1953 800 2241 800 
L 2816 800 
L 2816 0 
L 1856 0 
Q 1194 0 917 276 
Q 641 553 641 1216 
L 641 2700 
L 84 2700 
L 84 3500 
L 641 3500 
L 641 4494 
L 1759 4494 
z
" transform="scale(0.015625)"/>
      <path id="DejaVuSans-Bold-61" d="M 2106 1575 
Q 1756 1575 1579 1456 
Q 1403 1338 1403 1106 
Q 1403 894 1545 773 
Q 1688 653 1941 653 
Q 2256 653 2472 879 
Q 2688 1106 2688 1447 
L 2688 1575 
L 2106 1575 
z
M 3816 1997 
L 3816 0 
L 2688 0 
L 2688 519 
Q 2463 200 2181 54 
Q 1900 -91 1497 -91 
Q 953 -91 614 226 
Q 275 544 275 1050 
Q 275 1666 698 1953 
Q 1122 2241 2028 2241 
L 2688 2241 
L 2688 2328 
Q 2688 2594 2478 2717 
Q 2269 2841 1825 2841 
Q 1466 2841 1156 2769 
Q 847 2697 581 2553 
L 581 3406 
Q 941 3494 1303 3539 
Q 1666 3584 2028 3584 
Q 2975 3584 3395 3211 
Q 3816 2838 3816 1997 
z
" transform="scale(0.015625)"/>
      <path id="DejaVuSans-Bold-72" d="M 3138 2547 
Q 2991 2616 2845 2648 
Q 2700 2681 2553 2681 
Q 2122 2681 1889 2404 
Q 1656 2128 1656 1613 
L 1656 0 
L 538 0 
L 538 3500 
L 1656 3500 
L 1656 2925 
Q 1872 3269 2151 3426 
Q 2431 3584 2822 3584 
Q 2878 3584 2943 3579 
Q 3009 3575 3134 3559 
L 3138 2547 
z
" transform="scale(0.015625)"/>
      <path id="DejaVuSans-Bold-20" transform="scale(0.015625)"/>
      <path id="DejaVuSans-Bold-2f" d="M 1644 4666 
L 2338 4666 
L 691 -594 
L 0 -594 
L 1644 4666 
z
" transform="scale(0.015625)"/>
      <path id="DejaVuSans-Bold-4c" d="M 588 4666 
L 1791 4666 
L 1791 909 
L 3903 909 
L 3903 0 
L 588 0 
L 588 4666 
z
" transform="scale(0.015625)"/>
      <path id="DejaVuSans-Bold-6e" d="M 4056 2131 
L 4056 0 
L 2931 0 
L 2931 347 
L 2931 1631 
Q 2931 2084 2911 2256 
Q 2891 2428 2841 2509 
Q 2775 2619 2662 2680 
Q 2550 2741 2406 2741 
Q 2056 2741 1856 2470 
Q 1656 2200 1656 1722 
L 1656 0 
L 538 0 
L 538 3500 
L 1656 3500 
L 1656 2988 
Q 1909 3294 2193 3439 
Q 2478 3584 2822 3584 
Q 3428 3584 3742 3212 
Q 4056 2841 4056 2131 
z
" transform="scale(0.015625)"/>
      <path id="DejaVuSans-Bold-64" d="M 2919 2988 
L 2919 4863 
L 4044 4863 
L 4044 0 
L 2919 0 
L 2919 506 
Q 2688 197 2409 53 
Q 2131 -91 1766 -91 
Q 1119 -91 703 423 
Q 288 938 288 1747 
Q 288 2556 703 3070 
Q 1119 3584 1766 3584 
Q 2128 3584 2408 3439 
Q 2688 3294 2919 2988 
z
M 2181 722 
Q 2541 722 2730 984 
Q 2919 1247 2919 1747 
Q 2919 2247 2730 2509 
Q 2541 2772 2181 2772 
Q 1825 2772 1636 2509 
Q 1447 2247 1447 1747 
Q 1447 1247 1636 984 
Q 1825 722 2181 722 
z
" transform="scale(0.015625)"/>
      <path id="DejaVuSans-Bold-28" d="M 2413 -844 
L 1484 -844 
Q 1006 -72 778 623 
Q 550 1319 550 2003 
Q 550 2688 779 3389 
Q 1009 4091 1484 4856 
L 2413 4856 
Q 2013 4116 1813 3408 
Q 1613 2700 1613 2009 
Q 1613 1319 1811 609 
Q 2009 -100 2413 -844 
z
" transform="scale(0.015625)"/>
      <path id="DejaVuSans-Bold-30" d="M 2944 2338 
Q 2944 3213 2780 3570 
Q 2616 3928 2228 3928 
Q 1841 3928 1675 3570 
Q 1509 3213 1509 2338 
Q 1509 1453 1675 1090 
Q 1841 728 2228 728 
Q 2613 728 2778 1090 
Q 2944 1453 2944 2338 
z
M 4147 2328 
Q 4147 1169 3647 539 
Q 3147 -91 2228 -91 
Q 1306 -91 806 539 
Q 306 1169 306 2328 
Q 306 3491 806 4120 
Q 1306 4750 2228 4750 
Q 3147 4750 3647 4120 
Q 4147 3491 4147 2328 
z
" transform="scale(0.015625)"/>
      <path id="DejaVuSans-Bold-2c" d="M 653 1209 
L 1778 1209 
L 1778 256 
L 1006 -909 
L 341 -909 
L 653 256 
L 653 1209 
z
" transform="scale(0.015625)"/>
      <path id="DejaVuSans-Bold-29" d="M 513 -844 
Q 913 -100 1113 609 
Q 1313 1319 1313 2009 
Q 1313 2700 1113 3408 
Q 913 4116 513 4856 
L 1441 4856 
Q 1916 4091 2145 3389 
Q 2375 2688 2375 2003 
Q 2375 1319 2147 623 
Q 1919 -72 1441 -844 
L 513 -844 
z
" transform="scale(0.015625)"/>
     </defs>
     <use xlink:href="#DejaVuSans-Bold-53"/>
     <use xlink:href="#DejaVuSans-Bold-74" transform="translate(72.021484 0)"/>
     <use xlink:href="#DejaVuSans-Bold-61" transform="translate(119.824219 0)"/>
     <use xlink:href="#DejaVuSans-Bold-72" transform="translate(187.304688 0)"/>
     <use xlink:href="#DejaVuSans-Bold-74" transform="translate(236.621094 0)"/>
     <use xlink:href="#DejaVuSans-Bold-20" transform="translate(284.423828 0)"/>
     <use xlink:href="#DejaVuSans-Bold-2f" transform="translate(319.238281 0)"/>
     <use xlink:href="#DejaVuSans-Bold-20" transform="translate(355.761719 0)"/>
     <use xlink:href="#DejaVuSans-Bold-4c" transform="translate(390.576172 0)"/>
     <use xlink:href="#DejaVuSans-Bold-61" transform="translate(454.296875 0)"/>
     <use xlink:href="#DejaVuSans-Bold-6e" transform="translate(521.777344 0)"/>
     <use xlink:href="#DejaVuSans-Bold-64" transform="translate(592.96875 0)"/>
     <use xlink:href="#DejaVuSans-Bold-20" transform="translate(664.550781 0)"/>
     <use xlink:href="#DejaVuSans-Bold-28" transform="translate(699.365234 0)"/>
     <use xlink:href="#DejaVuSans-Bold-30" transform="translate(745.068359 0)"/>
     <use xlink:href="#DejaVuSans-Bold-2c" transform="translate(814.648438 0)"/>
     <use xlink:href="#DejaVuSans-Bold-30" transform="translate(852.636719 0)"/>
     <use xlink:href="#DejaVuSans-Bold-2c" transform="translate(922.216797 0)"/>
     <use xlink:href="#DejaVuSans-Bold-30" transform="translate(960.205078 0)"/>
     <use xlink:href="#DejaVuSans-Bold-29" transform="translate(1029.785156 0)"/>
    </g>
   </g>
   <g id="text_27">
    <!-- Hover (0,0,1.5) -->
    <g transform="translate(617.643348 298.770074) scale(0.12 -0.12)">
     <defs>
      <path id="DejaVuSans-Bold-48" d="M 588 4666 
L 1791 4666 
L 1791 2888 
L 3566 2888 
L 3566 4666 
L 4769 4666 
L 4769 0 
L 3566 0 
L 3566 1978 
L 1791 1978 
L 1791 0 
L 588 0 
L 588 4666 
z
" transform="scale(0.015625)"/>
      <path id="DejaVuSans-Bold-6f" d="M 2203 2784 
Q 1831 2784 1636 2517 
Q 1441 2250 1441 1747 
Q 1441 1244 1636 976 
Q 1831 709 2203 709 
Q 2569 709 2762 976 
Q 2956 1244 2956 1747 
Q 2956 2250 2762 2517 
Q 2569 2784 2203 2784 
z
M 2203 3584 
Q 3106 3584 3614 3096 
Q 4122 2609 4122 1747 
Q 4122 884 3614 396 
Q 3106 -91 2203 -91 
Q 1297 -91 786 396 
Q 275 884 275 1747 
Q 275 2609 786 3096 
Q 1297 3584 2203 3584 
z
" transform="scale(0.015625)"/>
      <path id="DejaVuSans-Bold-76" d="M 97 3500 
L 1216 3500 
L 2088 1081 
L 2956 3500 
L 4078 3500 
L 2700 0 
L 1472 0 
L 97 3500 
z
" transform="scale(0.015625)"/>
      <path id="DejaVuSans-Bold-65" d="M 4031 1759 
L 4031 1441 
L 1416 1441 
Q 1456 1047 1700 850 
Q 1944 653 2381 653 
Q 2734 653 3104 758 
Q 3475 863 3866 1075 
L 3866 213 
Q 3469 63 3072 -14 
Q 2675 -91 2278 -91 
Q 1328 -91 801 392 
Q 275 875 275 1747 
Q 275 2603 792 3093 
Q 1309 3584 2216 3584 
Q 3041 3584 3536 3087 
Q 4031 2591 4031 1759 
z
M 2881 2131 
Q 2881 2450 2695 2645 
Q 2509 2841 2209 2841 
Q 1884 2841 1681 2658 
Q 1478 2475 1428 2131 
L 2881 2131 
z
" transform="scale(0.015625)"/>
      <path id="DejaVuSans-Bold-31" d="M 750 831 
L 1813 831 
L 1813 3847 
L 722 3622 
L 722 4441 
L 1806 4666 
L 2950 4666 
L 2950 831 
L 4013 831 
L 4013 0 
L 750 0 
L 750 831 
z
" transform="scale(0.015625)"/>
      <path id="DejaVuSans-Bold-2e" d="M 653 1209 
L 1778 1209 
L 1778 0 
L 653 0 
L 653 1209 
z
" transform="scale(0.015625)"/>
      <path id="DejaVuSans-Bold-35" d="M 678 4666 
L 3669 4666 
L 3669 3781 
L 1638 3781 
L 1638 3059 
Q 1775 3097 1914 3117 
Q 2053 3138 2203 3138 
Q 3056 3138 3531 2711 
Q 4006 2284 4006 1522 
Q 4006 766 3489 337 
Q 2972 -91 2053 -91 
Q 1656 -91 1267 -14 
Q 878 63 494 219 
L 494 1166 
Q 875 947 1217 837 
Q 1559 728 1863 728 
Q 2300 728 2551 942 
Q 2803 1156 2803 1522 
Q 2803 1891 2551 2103 
Q 2300 2316 1863 2316 
Q 1603 2316 1309 2248 
Q 1016 2181 678 2041 
L 678 4666 
z
" transform="scale(0.015625)"/>
     </defs>
     <use xlink:href="#DejaVuSans-Bold-48"/>
     <use xlink:href="#DejaVuSans-Bold-6f" transform="translate(83.691406 0)"/>
     <use xlink:href="#DejaVuSans-Bold-76" transform="translate(152.392578 0)"/>
     <use xlink:href="#DejaVuSans-Bold-65" transform="translate(217.578125 0)"/>
     <use xlink:href="#DejaVuSans-Bold-72" transform="translate(285.400391 0)"/>
     <use xlink:href="#DejaVuSans-Bold-20" transform="translate(334.716797 0)"/>
     <use xlink:href="#DejaVuSans-Bold-28" transform="translate(369.53125 0)"/>
     <use xlink:href="#DejaVuSans-Bold-30" transform="translate(415.234375 0)"/>
     <use xlink:href="#DejaVuSans-Bold-2c" transform="translate(484.814453 0)"/>
     <use xlink:href="#DejaVuSans-Bold-30" transform="translate(522.802734 0)"/>
     <use xlink:href="#DejaVuSans-Bold-2c" transform="translate(592.382812 0)"/>
     <use xlink:href="#DejaVuSans-Bold-31" transform="translate(630.371094 0)"/>
     <use xlink:href="#DejaVuSans-Bold-2e" transform="translate(699.951172 0)"/>
     <use xlink:href="#DejaVuSans-Bold-35" transform="translate(737.939453 0)"/>
     <use xlink:href="#DejaVuSans-Bold-29" transform="translate(807.519531 0)"/>
    </g>
   </g>
   <g id="text_28">
    <!-- Coord 1 (0,0.6,1.5) -->
    <g transform="translate(504.094324 342.45074) scale(0.12 -0.12)">
     <defs>
      <path id="DejaVuSans-Bold-43" d="M 4288 256 
Q 3956 84 3597 -3 
Q 3238 -91 2847 -91 
Q 1681 -91 1000 561 
Q 319 1213 319 2328 
Q 319 3447 1000 4098 
Q 1681 4750 2847 4750 
Q 3238 4750 3597 4662 
Q 3956 4575 4288 4403 
L 4288 3438 
Q 3953 3666 3628 3772 
Q 3303 3878 2944 3878 
Q 2300 3878 1931 3465 
Q 1563 3053 1563 2328 
Q 1563 1606 1931 1193 
Q 2300 781 2944 781 
Q 3303 781 3628 887 
Q 3953 994 4288 1222 
L 4288 256 
z
" transform="scale(0.015625)"/>
      <path id="DejaVuSans-Bold-36" d="M 2316 2303 
Q 2000 2303 1842 2098 
Q 1684 1894 1684 1484 
Q 1684 1075 1842 870 
Q 2000 666 2316 666 
Q 2634 666 2792 870 
Q 2950 1075 2950 1484 
Q 2950 1894 2792 2098 
Q 2634 2303 2316 2303 
z
M 3803 4544 
L 3803 3681 
Q 3506 3822 3243 3889 
Q 2981 3956 2731 3956 
Q 2194 3956 1894 3657 
Q 1594 3359 1544 2772 
Q 1750 2925 1990 3001 
Q 2231 3078 2516 3078 
Q 3231 3078 3670 2659 
Q 4109 2241 4109 1563 
Q 4109 813 3618 361 
Q 3128 -91 2303 -91 
Q 1394 -91 895 523 
Q 397 1138 397 2266 
Q 397 3422 980 4083 
Q 1563 4744 2578 4744 
Q 2900 4744 3203 4694 
Q 3506 4644 3803 4544 
z
" transform="scale(0.015625)"/>
     </defs>
     <use xlink:href="#DejaVuSans-Bold-43"/>
     <use xlink:href="#DejaVuSans-Bold-6f" transform="translate(73.388672 0)"/>
     <use xlink:href="#DejaVuSans-Bold-6f" transform="translate(142.089844 0)"/>
     <use xlink:href="#DejaVuSans-Bold-72" transform="translate(210.791016 0)"/>
     <use xlink:href="#DejaVuSans-Bold-64" transform="translate(260.107422 0)"/>
     <use xlink:href="#DejaVuSans-Bold-20" transform="translate(331.689453 0)"/>
     <use xlink:href="#DejaVuSans-Bold-31" transform="translate(366.503906 0)"/>
     <use xlink:href="#DejaVuSans-Bold-20" transform="translate(436.083984 0)"/>
     <use xlink:href="#DejaVuSans-Bold-28" transform="translate(470.898438 0)"/>
     <use xlink:href="#DejaVuSans-Bold-30" transform="translate(516.601562 0)"/>
     <use xlink:href="#DejaVuSans-Bold-2c" transform="translate(586.181641 0)"/>
     <use xlink:href="#DejaVuSans-Bold-30" transform="translate(624.169922 0)"/>
     <use xlink:href="#DejaVuSans-Bold-2e" transform="translate(693.75 0)"/>
     <use xlink:href="#DejaVuSans-Bold-36" transform="translate(731.738281 0)"/>
     <use xlink:href="#DejaVuSans-Bold-2c" transform="translate(801.318359 0)"/>
     <use xlink:href="#DejaVuSans-Bold-31" transform="translate(839.306641 0)"/>
     <use xlink:href="#DejaVuSans-Bold-2e" transform="translate(908.886719 0)"/>
     <use xlink:href="#DejaVuSans-Bold-35" transform="translate(946.875 0)"/>
     <use xlink:href="#DejaVuSans-Bold-29" transform="translate(1016.455078 0)"/>
    </g>
   </g>
   <g id="text_29">
    <!-- Coord 2 (-0.6,0.6,1.5) -->
    <g transform="translate(641.451491 398.247635) scale(0.12 -0.12)">
     <defs>
      <path id="DejaVuSans-Bold-32" d="M 1844 884 
L 3897 884 
L 3897 0 
L 506 0 
L 506 884 
L 2209 2388 
Q 2438 2594 2547 2791 
Q 2656 2988 2656 3200 
Q 2656 3528 2436 3728 
Q 2216 3928 1850 3928 
Q 1569 3928 1234 3808 
Q 900 3688 519 3450 
L 519 4475 
Q 925 4609 1322 4679 
Q 1719 4750 2100 4750 
Q 2938 4750 3402 4381 
Q 3866 4013 3866 3353 
Q 3866 2972 3669 2642 
Q 3472 2313 2841 1759 
L 1844 884 
z
" transform="scale(0.015625)"/>
      <path id="DejaVuSans-Bold-2d" d="M 347 2297 
L 2309 2297 
L 2309 1388 
L 347 1388 
L 347 2297 
z
" transform="scale(0.015625)"/>
     </defs>
     <use xlink:href="#DejaVuSans-Bold-43"/>
     <use xlink:href="#DejaVuSans-Bold-6f" transform="translate(73.388672 0)"/>
     <use xlink:href="#DejaVuSans-Bold-6f" transform="translate(142.089844 0)"/>
     <use xlink:href="#DejaVuSans-Bold-72" transform="translate(210.791016 0)"/>
     <use xlink:href="#DejaVuSans-Bold-64" transform="translate(260.107422 0)"/>
     <use xlink:href="#DejaVuSans-Bold-20" transform="translate(331.689453 0)"/>
     <use xlink:href="#DejaVuSans-Bold-32" transform="translate(366.503906 0)"/>
     <use xlink:href="#DejaVuSans-Bold-20" transform="translate(436.083984 0)"/>
     <use xlink:href="#DejaVuSans-Bold-28" transform="translate(470.898438 0)"/>
     <use xlink:href="#DejaVuSans-Bold-2d" transform="translate(516.601562 0)"/>
     <use xlink:href="#DejaVuSans-Bold-30" transform="translate(558.105469 0)"/>
     <use xlink:href="#DejaVuSans-Bold-2e" transform="translate(627.685547 0)"/>
     <use xlink:href="#DejaVuSans-Bold-36" transform="translate(665.673828 0)"/>
     <use xlink:href="#DejaVuSans-Bold-2c" transform="translate(735.253906 0)"/>
     <use xlink:href="#DejaVuSans-Bold-30" transform="translate(773.242188 0)"/>
     <use xlink:href="#DejaVuSans-Bold-2e" transform="translate(842.822266 0)"/>
     <use xlink:href="#DejaVuSans-Bold-36" transform="translate(880.810547 0)"/>
     <use xlink:href="#DejaVuSans-Bold-2c" transform="translate(950.390625 0)"/>
     <use xlink:href="#DejaVuSans-Bold-31" transform="translate(988.378906 0)"/>
     <use xlink:href="#DejaVuSans-Bold-2e" transform="translate(1057.958984 0)"/>
     <use xlink:href="#DejaVuSans-Bold-35" transform="translate(1095.947266 0)"/>
     <use xlink:href="#DejaVuSans-Bold-29" transform="translate(1165.527344 0)"/>
    </g>
   </g>
   <g id="text_30">
    <!-- Coord 3 (-0.6,-0.6,1.5) -->
    <g transform="translate(864.234976 308.36265) scale(0.12 -0.12)">
     <defs>
      <path id="DejaVuSans-Bold-33" d="M 2981 2516 
Q 3453 2394 3698 2092 
Q 3944 1791 3944 1325 
Q 3944 631 3412 270 
Q 2881 -91 1863 -91 
Q 1503 -91 1142 -33 
Q 781 25 428 141 
L 428 1069 
Q 766 900 1098 814 
Q 1431 728 1753 728 
Q 2231 728 2486 893 
Q 2741 1059 2741 1369 
Q 2741 1688 2480 1852 
Q 2219 2016 1709 2016 
L 1228 2016 
L 1228 2791 
L 1734 2791 
Q 2188 2791 2409 2933 
Q 2631 3075 2631 3366 
Q 2631 3634 2415 3781 
Q 2200 3928 1806 3928 
Q 1516 3928 1219 3862 
Q 922 3797 628 3669 
L 628 4550 
Q 984 4650 1334 4700 
Q 1684 4750 2022 4750 
Q 2931 4750 3382 4451 
Q 3834 4153 3834 3553 
Q 3834 3144 3618 2883 
Q 3403 2622 2981 2516 
z
" transform="scale(0.015625)"/>
     </defs>
     <use xlink:href="#DejaVuSans-Bold-43"/>
     <use xlink:href="#DejaVuSans-Bold-6f" transform="translate(73.388672 0)"/>
     <use xlink:href="#DejaVuSans-Bold-6f" transform="translate(142.089844 0)"/>
     <use xlink:href="#DejaVuSans-Bold-72" transform="translate(210.791016 0)"/>
     <use xlink:href="#DejaVuSans-Bold-64" transform="translate(260.107422 0)"/>
     <use xlink:href="#DejaVuSans-Bold-20" transform="translate(331.689453 0)"/>
     <use xlink:href="#DejaVuSans-Bold-33" transform="translate(366.503906 0)"/>
     <use xlink:href="#DejaVuSans-Bold-20" transform="translate(436.083984 0)"/>
     <use xlink:href="#DejaVuSans-Bold-28" transform="translate(470.898438 0)"/>
     <use xlink:href="#DejaVuSans-Bold-2d" transform="translate(516.601562 0)"/>
     <use xlink:href="#DejaVuSans-Bold-30" transform="translate(558.105469 0)"/>
     <use xlink:href="#DejaVuSans-Bold-2e" transform="translate(627.685547 0)"/>
     <use xlink:href="#DejaVuSans-Bold-36" transform="translate(665.673828 0)"/>
     <use xlink:href="#DejaVuSans-Bold-2c" transform="translate(735.253906 0)"/>
     <use xlink:href="#DejaVuSans-Bold-2d" transform="translate(773.242188 0)"/>
     <use xlink:href="#DejaVuSans-Bold-30" transform="translate(814.746094 0)"/>
     <use xlink:href="#DejaVuSans-Bold-2e" transform="translate(884.326172 0)"/>
     <use xlink:href="#DejaVuSans-Bold-36" transform="translate(922.314453 0)"/>
     <use xlink:href="#DejaVuSans-Bold-2c" transform="translate(991.894531 0)"/>
     <use xlink:href="#DejaVuSans-Bold-31" transform="translate(1029.882812 0)"/>
     <use xlink:href="#DejaVuSans-Bold-2e" transform="translate(1099.462891 0)"/>
     <use xlink:href="#DejaVuSans-Bold-35" transform="translate(1137.451172 0)"/>
     <use xlink:href="#DejaVuSans-Bold-29" transform="translate(1207.03125 0)"/>
    </g>
   </g>
   <g id="text_31">
    <!-- Coord 4 (0.6,-0.6,1.5) -->
    <g transform="translate(595.781565 207.424989) scale(0.12 -0.12)">
     <defs>
      <path id="DejaVuSans-Bold-34" d="M 2356 3675 
L 1038 1722 
L 2356 1722 
L 2356 3675 
z
M 2156 4666 
L 3494 4666 
L 3494 1722 
L 4159 1722 
L 4159 850 
L 3494 850 
L 3494 0 
L 2356 0 
L 2356 850 
L 288 850 
L 288 1881 
L 2156 4666 
z
" transform="scale(0.015625)"/>
     </defs>
     <use xlink:href="#DejaVuSans-Bold-43"/>
     <use xlink:href="#DejaVuSans-Bold-6f" transform="translate(73.388672 0)"/>
     <use xlink:href="#DejaVuSans-Bold-6f" transform="translate(142.089844 0)"/>
     <use xlink:href="#DejaVuSans-Bold-72" transform="translate(210.791016 0)"/>
     <use xlink:href="#DejaVuSans-Bold-64" transform="translate(260.107422 0)"/>
     <use xlink:href="#DejaVuSans-Bold-20" transform="translate(331.689453 0)"/>
     <use xlink:href="#DejaVuSans-Bold-34" transform="translate(366.503906 0)"/>
     <use xlink:href="#DejaVuSans-Bold-20" transform="translate(436.083984 0)"/>
     <use xlink:href="#DejaVuSans-Bold-28" transform="translate(470.898438 0)"/>
     <use xlink:href="#DejaVuSans-Bold-30" transform="translate(516.601562 0)"/>
     <use xlink:href="#DejaVuSans-Bold-2e" transform="translate(586.181641 0)"/>
     <use xlink:href="#DejaVuSans-Bold-36" transform="translate(624.169922 0)"/>
     <use xlink:href="#DejaVuSans-Bold-2c" transform="translate(693.75 0)"/>
     <use xlink:href="#DejaVuSans-Bold-2d" transform="translate(731.738281 0)"/>
     <use xlink:href="#DejaVuSans-Bold-30" transform="translate(773.242188 0)"/>
     <use xlink:href="#DejaVuSans-Bold-2e" transform="translate(842.822266 0)"/>
     <use xlink:href="#DejaVuSans-Bold-36" transform="translate(880.810547 0)"/>
     <use xlink:href="#DejaVuSans-Bold-2c" transform="translate(950.390625 0)"/>
     <use xlink:href="#DejaVuSans-Bold-31" transform="translate(988.378906 0)"/>
     <use xlink:href="#DejaVuSans-Bold-2e" transform="translate(1057.958984 0)"/>
     <use xlink:href="#DejaVuSans-Bold-35" transform="translate(1095.947266 0)"/>
     <use xlink:href="#DejaVuSans-Bold-29" transform="translate(1165.527344 0)"/>
    </g>
   </g>
   <g id="text_32">
    <!-- Coord 5 (0.6,0.6,1.5) -->
    <g transform="translate(373.150725 289.25915) scale(0.12 -0.12)">
     <use xlink:href="#DejaVuSans-Bold-43"/>
     <use xlink:href="#DejaVuSans-Bold-6f" transform="translate(73.388672 0)"/>
     <use xlink:href="#DejaVuSans-Bold-6f" transform="translate(142.089844 0)"/>
     <use xlink:href="#DejaVuSans-Bold-72" transform="translate(210.791016 0)"/>
     <use xlink:href="#DejaVuSans-Bold-64" transform="translate(260.107422 0)"/>
     <use xlink:href="#DejaVuSans-Bold-20" transform="translate(331.689453 0)"/>
     <use xlink:href="#DejaVuSans-Bold-35" transform="translate(366.503906 0)"/>
     <use xlink:href="#DejaVuSans-Bold-20" transform="translate(436.083984 0)"/>
     <use xlink:href="#DejaVuSans-Bold-28" transform="translate(470.898438 0)"/>
     <use xlink:href="#DejaVuSans-Bold-30" transform="translate(516.601562 0)"/>
     <use xlink:href="#DejaVuSans-Bold-2e" transform="translate(586.181641 0)"/>
     <use xlink:href="#DejaVuSans-Bold-36" transform="translate(624.169922 0)"/>
     <use xlink:href="#DejaVuSans-Bold-2c" transform="translate(693.75 0)"/>
     <use xlink:href="#DejaVuSans-Bold-30" transform="translate(731.738281 0)"/>
     <use xlink:href="#DejaVuSans-Bold-2e" transform="translate(801.318359 0)"/>
     <use xlink:href="#DejaVuSans-Bold-36" transform="translate(839.306641 0)"/>
     <use xlink:href="#DejaVuSans-Bold-2c" transform="translate(908.886719 0)"/>
     <use xlink:href="#DejaVuSans-Bold-31" transform="translate(946.875 0)"/>
     <use xlink:href="#DejaVuSans-Bold-2e" transform="translate(1016.455078 0)"/>
     <use xlink:href="#DejaVuSans-Bold-35" transform="translate(1054.443359 0)"/>
     <use xlink:href="#DejaVuSans-Bold-29" transform="translate(1124.023438 0)"/>
    </g>
   </g>
   <g id="text_33">
    <!-- RTH (0,0.6,1.5) -->
    <g transform="translate(504.094324 342.45074) scale(0.12 -0.12)">
     <defs>
      <path id="DejaVuSans-Bold-52" d="M 2297 2597 
Q 2675 2597 2839 2737 
Q 3003 2878 3003 3200 
Q 3003 3519 2839 3656 
Q 2675 3794 2297 3794 
L 1791 3794 
L 1791 2597 
L 2297 2597 
z
M 1791 1766 
L 1791 0 
L 588 0 
L 588 4666 
L 2425 4666 
Q 3347 4666 3776 4356 
Q 4206 4047 4206 3378 
Q 4206 2916 3982 2619 
Q 3759 2322 3309 2181 
Q 3556 2125 3751 1926 
Q 3947 1728 4147 1325 
L 4800 0 
L 3519 0 
L 2950 1159 
Q 2778 1509 2601 1637 
Q 2425 1766 2131 1766 
L 1791 1766 
z
" transform="scale(0.015625)"/>
      <path id="DejaVuSans-Bold-54" d="M 31 4666 
L 4331 4666 
L 4331 3756 
L 2784 3756 
L 2784 0 
L 1581 0 
L 1581 3756 
L 31 3756 
L 31 4666 
z
" transform="scale(0.015625)"/>
     </defs>
     <use xlink:href="#DejaVuSans-Bold-52"/>
     <use xlink:href="#DejaVuSans-Bold-54" transform="translate(72.501953 0)"/>
     <use xlink:href="#DejaVuSans-Bold-48" transform="translate(140.714844 0)"/>
     <use xlink:href="#DejaVuSans-Bold-20" transform="translate(224.40625 0)"/>
     <use xlink:href="#DejaVuSans-Bold-28" transform="translate(259.220703 0)"/>
     <use xlink:href="#DejaVuSans-Bold-30" transform="translate(304.923828 0)"/>
     <use xlink:href="#DejaVuSans-Bold-2c" transform="translate(374.503906 0)"/>
     <use xlink:href="#DejaVuSans-Bold-30" transform="translate(412.492188 0)"/>
     <use xlink:href="#DejaVuSans-Bold-2e" transform="translate(482.072266 0)"/>
     <use xlink:href="#DejaVuSans-Bold-36" transform="translate(520.060547 0)"/>
     <use xlink:href="#DejaVuSans-Bold-2c" transform="translate(589.640625 0)"/>
     <use xlink:href="#DejaVuSans-Bold-31" transform="translate(627.628906 0)"/>
     <use xlink:href="#DejaVuSans-Bold-2e" transform="translate(697.208984 0)"/>
     <use xlink:href="#DejaVuSans-Bold-35" transform="translate(735.197266 0)"/>
     <use xlink:href="#DejaVuSans-Bold-29" transform="translate(804.777344 0)"/>
    </g>
   </g>
   <g id="text_34">
    <!-- 3D Flight Visualization: State Estimate Flight Path vs. Ideal -->
    <g transform="translate(384.201563 24.48) scale(0.18 -0.18)">
     <defs>
      <path id="DejaVuSans-33" d="M 2597 2516 
Q 3050 2419 3304 2112 
Q 3559 1806 3559 1356 
Q 3559 666 3084 287 
Q 2609 -91 1734 -91 
Q 1441 -91 1130 -33 
Q 819 25 488 141 
L 488 750 
Q 750 597 1062 519 
Q 1375 441 1716 441 
Q 2309 441 2620 675 
Q 2931 909 2931 1356 
Q 2931 1769 2642 2001 
Q 2353 2234 1838 2234 
L 1294 2234 
L 1294 2753 
L 1863 2753 
Q 2328 2753 2575 2939 
Q 2822 3125 2822 3475 
Q 2822 3834 2567 4026 
Q 2313 4219 1838 4219 
Q 1578 4219 1281 4162 
Q 984 4106 628 3988 
L 628 4550 
Q 988 4650 1302 4700 
Q 1616 4750 1894 4750 
Q 2613 4750 3031 4423 
Q 3450 4097 3450 3541 
Q 3450 3153 3228 2886 
Q 3006 2619 2597 2516 
z
" transform="scale(0.015625)"/>
      <path id="DejaVuSans-44" d="M 1259 4147 
L 1259 519 
L 2022 519 
Q 2988 519 3436 956 
Q 3884 1394 3884 2338 
Q 3884 3275 3436 3711 
Q 2988 4147 2022 4147 
L 1259 4147 
z
M 628 4666 
L 1925 4666 
Q 3281 4666 3915 4102 
Q 4550 3538 4550 2338 
Q 4550 1131 3912 565 
Q 3275 0 1925 0 
L 628 0 
L 628 4666 
z
" transform="scale(0.015625)"/>
      <path id="DejaVuSans-46" d="M 628 4666 
L 3309 4666 
L 3309 4134 
L 1259 4134 
L 1259 2759 
L 3109 2759 
L 3109 2228 
L 1259 2228 
L 1259 0 
L 628 0 
L 628 4666 
z
" transform="scale(0.015625)"/>
      <path id="DejaVuSans-6c" d="M 603 4863 
L 1178 4863 
L 1178 0 
L 603 0 
L 603 4863 
z
" transform="scale(0.015625)"/>
      <path id="DejaVuSans-69" d="M 603 3500 
L 1178 3500 
L 1178 0 
L 603 0 
L 603 3500 
z
M 603 4863 
L 1178 4863 
L 1178 4134 
L 603 4134 
L 603 4863 
z
" transform="scale(0.015625)"/>
      <path id="DejaVuSans-67" d="M 2906 1791 
Q 2906 2416 2648 2759 
Q 2391 3103 1925 3103 
Q 1463 3103 1205 2759 
Q 947 2416 947 1791 
Q 947 1169 1205 825 
Q 1463 481 1925 481 
Q 2391 481 2648 825 
Q 2906 1169 2906 1791 
z
M 3481 434 
Q 3481 -459 3084 -895 
Q 2688 -1331 1869 -1331 
Q 1566 -1331 1297 -1286 
Q 1028 -1241 775 -1147 
L 775 -588 
Q 1028 -725 1275 -790 
Q 1522 -856 1778 -856 
Q 2344 -856 2625 -561 
Q 2906 -266 2906 331 
L 2906 616 
Q 2728 306 2450 153 
Q 2172 0 1784 0 
Q 1141 0 747 490 
Q 353 981 353 1791 
Q 353 2603 747 3093 
Q 1141 3584 1784 3584 
Q 2172 3584 2450 3431 
Q 2728 3278 2906 2969 
L 2906 3500 
L 3481 3500 
L 3481 434 
z
" transform="scale(0.015625)"/>
      <path id="DejaVuSans-68" d="M 3513 2113 
L 3513 0 
L 2938 0 
L 2938 2094 
Q 2938 2591 2744 2837 
Q 2550 3084 2163 3084 
Q 1697 3084 1428 2787 
Q 1159 2491 1159 1978 
L 1159 0 
L 581 0 
L 581 4863 
L 1159 4863 
L 1159 2956 
Q 1366 3272 1645 3428 
Q 1925 3584 2291 3584 
Q 2894 3584 3203 3211 
Q 3513 2838 3513 2113 
z
" transform="scale(0.015625)"/>
      <path id="DejaVuSans-74" d="M 1172 4494 
L 1172 3500 
L 2356 3500 
L 2356 3053 
L 1172 3053 
L 1172 1153 
Q 1172 725 1289 603 
Q 1406 481 1766 481 
L 2356 481 
L 2356 0 
L 1766 0 
Q 1100 0 847 248 
Q 594 497 594 1153 
L 594 3053 
L 172 3053 
L 172 3500 
L 594 3500 
L 594 4494 
L 1172 4494 
z
" transform="scale(0.015625)"/>
      <path id="DejaVuSans-56" d="M 1831 0 
L 50 4666 
L 709 4666 
L 2188 738 
L 3669 4666 
L 4325 4666 
L 2547 0 
L 1831 0 
z
" transform="scale(0.015625)"/>
      <path id="DejaVuSans-73" d="M 2834 3397 
L 2834 2853 
Q 2591 2978 2328 3040 
Q 2066 3103 1784 3103 
Q 1356 3103 1142 2972 
Q 928 2841 928 2578 
Q 928 2378 1081 2264 
Q 1234 2150 1697 2047 
L 1894 2003 
Q 2506 1872 2764 1633 
Q 3022 1394 3022 966 
Q 3022 478 2636 193 
Q 2250 -91 1575 -91 
Q 1294 -91 989 -36 
Q 684 19 347 128 
L 347 722 
Q 666 556 975 473 
Q 1284 391 1588 391 
Q 1994 391 2212 530 
Q 2431 669 2431 922 
Q 2431 1156 2273 1281 
Q 2116 1406 1581 1522 
L 1381 1569 
Q 847 1681 609 1914 
Q 372 2147 372 2553 
Q 372 3047 722 3315 
Q 1072 3584 1716 3584 
Q 2034 3584 2315 3537 
Q 2597 3491 2834 3397 
z
" transform="scale(0.015625)"/>
      <path id="DejaVuSans-75" d="M 544 1381 
L 544 3500 
L 1119 3500 
L 1119 1403 
Q 1119 906 1312 657 
Q 1506 409 1894 409 
Q 2359 409 2629 706 
Q 2900 1003 2900 1516 
L 2900 3500 
L 3475 3500 
L 3475 0 
L 2900 0 
L 2900 538 
Q 2691 219 2414 64 
Q 2138 -91 1772 -91 
Q 1169 -91 856 284 
Q 544 659 544 1381 
z
M 1991 3584 
L 1991 3584 
z
" transform="scale(0.015625)"/>
      <path id="DejaVuSans-61" d="M 2194 1759 
Q 1497 1759 1228 1600 
Q 959 1441 959 1056 
Q 959 750 1161 570 
Q 1363 391 1709 391 
Q 2188 391 2477 730 
Q 2766 1069 2766 1631 
L 2766 1759 
L 2194 1759 
z
M 3341 1997 
L 3341 0 
L 2766 0 
L 2766 531 
Q 2569 213 2275 61 
Q 1981 -91 1556 -91 
Q 1019 -91 701 211 
Q 384 513 384 1019 
Q 384 1609 779 1909 
Q 1175 2209 1959 2209 
L 2766 2209 
L 2766 2266 
Q 2766 2663 2505 2880 
Q 2244 3097 1772 3097 
Q 1472 3097 1187 3025 
Q 903 2953 641 2809 
L 641 3341 
Q 956 3463 1253 3523 
Q 1550 3584 1831 3584 
Q 2591 3584 2966 3190 
Q 3341 2797 3341 1997 
z
" transform="scale(0.015625)"/>
      <path id="DejaVuSans-7a" d="M 353 3500 
L 3084 3500 
L 3084 2975 
L 922 459 
L 3084 459 
L 3084 0 
L 275 0 
L 275 525 
L 2438 3041 
L 353 3041 
L 353 3500 
z
" transform="scale(0.015625)"/>
      <path id="DejaVuSans-6f" d="M 1959 3097 
Q 1497 3097 1228 2736 
Q 959 2375 959 1747 
Q 959 1119 1226 758 
Q 1494 397 1959 397 
Q 2419 397 2687 759 
Q 2956 1122 2956 1747 
Q 2956 2369 2687 2733 
Q 2419 3097 1959 3097 
z
M 1959 3584 
Q 2709 3584 3137 3096 
Q 3566 2609 3566 1747 
Q 3566 888 3137 398 
Q 2709 -91 1959 -91 
Q 1206 -91 779 398 
Q 353 888 353 1747 
Q 353 2609 779 3096 
Q 1206 3584 1959 3584 
z
" transform="scale(0.015625)"/>
      <path id="DejaVuSans-6e" d="M 3513 2113 
L 3513 0 
L 2938 0 
L 2938 2094 
Q 2938 2591 2744 2837 
Q 2550 3084 2163 3084 
Q 1697 3084 1428 2787 
Q 1159 2491 1159 1978 
L 1159 0 
L 581 0 
L 581 3500 
L 1159 3500 
L 1159 2956 
Q 1366 3272 1645 3428 
Q 1925 3584 2291 3584 
Q 2894 3584 3203 3211 
Q 3513 2838 3513 2113 
z
" transform="scale(0.015625)"/>
      <path id="DejaVuSans-3a" d="M 750 794 
L 1409 794 
L 1409 0 
L 750 0 
L 750 794 
z
M 750 3309 
L 1409 3309 
L 1409 2516 
L 750 2516 
L 750 3309 
z
" transform="scale(0.015625)"/>
      <path id="DejaVuSans-53" d="M 3425 4513 
L 3425 3897 
Q 3066 4069 2747 4153 
Q 2428 4238 2131 4238 
Q 1616 4238 1336 4038 
Q 1056 3838 1056 3469 
Q 1056 3159 1242 3001 
Q 1428 2844 1947 2747 
L 2328 2669 
Q 3034 2534 3370 2195 
Q 3706 1856 3706 1288 
Q 3706 609 3251 259 
Q 2797 -91 1919 -91 
Q 1588 -91 1214 -16 
Q 841 59 441 206 
L 441 856 
Q 825 641 1194 531 
Q 1563 422 1919 422 
Q 2459 422 2753 634 
Q 3047 847 3047 1241 
Q 3047 1584 2836 1778 
Q 2625 1972 2144 2069 
L 1759 2144 
Q 1053 2284 737 2584 
Q 422 2884 422 3419 
Q 422 4038 858 4394 
Q 1294 4750 2059 4750 
Q 2388 4750 2728 4690 
Q 3069 4631 3425 4513 
z
" transform="scale(0.015625)"/>
      <path id="DejaVuSans-65" d="M 3597 1894 
L 3597 1613 
L 953 1613 
Q 991 1019 1311 708 
Q 1631 397 2203 397 
Q 2534 397 2845 478 
Q 3156 559 3463 722 
L 3463 178 
Q 3153 47 2828 -22 
Q 2503 -91 2169 -91 
Q 1331 -91 842 396 
Q 353 884 353 1716 
Q 353 2575 817 3079 
Q 1281 3584 2069 3584 
Q 2775 3584 3186 3129 
Q 3597 2675 3597 1894 
z
M 3022 2063 
Q 3016 2534 2758 2815 
Q 2500 3097 2075 3097 
Q 1594 3097 1305 2825 
Q 1016 2553 972 2059 
L 3022 2063 
z
" transform="scale(0.015625)"/>
      <path id="DejaVuSans-45" d="M 628 4666 
L 3578 4666 
L 3578 4134 
L 1259 4134 
L 1259 2753 
L 3481 2753 
L 3481 2222 
L 1259 2222 
L 1259 531 
L 3634 531 
L 3634 0 
L 628 0 
L 628 4666 
z
" transform="scale(0.015625)"/>
      <path id="DejaVuSans-50" d="M 1259 4147 
L 1259 2394 
L 2053 2394 
Q 2494 2394 2734 2622 
Q 2975 2850 2975 3272 
Q 2975 3691 2734 3919 
Q 2494 4147 2053 4147 
L 1259 4147 
z
M 628 4666 
L 2053 4666 
Q 2838 4666 3239 4311 
Q 3641 3956 3641 3272 
Q 3641 2581 3239 2228 
Q 2838 1875 2053 1875 
L 1259 1875 
L 1259 0 
L 628 0 
L 628 4666 
z
" transform="scale(0.015625)"/>
      <path id="DejaVuSans-76" d="M 191 3500 
L 800 3500 
L 1894 563 
L 2988 3500 
L 3597 3500 
L 2284 0 
L 1503 0 
L 191 3500 
z
" transform="scale(0.015625)"/>
      <path id="DejaVuSans-49" d="M 628 4666 
L 1259 4666 
L 1259 0 
L 628 0 
L 628 4666 
z
" transform="scale(0.015625)"/>
      <path id="DejaVuSans-64" d="M 2906 2969 
L 2906 4863 
L 3481 4863 
L 3481 0 
L 2906 0 
L 2906 525 
Q 2725 213 2448 61 
Q 2172 -91 1784 -91 
Q 1150 -91 751 415 
Q 353 922 353 1747 
Q 353 2572 751 3078 
Q 1150 3584 1784 3584 
Q 2172 3584 2448 3432 
Q 2725 3281 2906 2969 
z
M 947 1747 
Q 947 1113 1208 752 
Q 1469 391 1925 391 
Q 2381 391 2643 752 
Q 2906 1113 2906 1747 
Q 2906 2381 2643 2742 
Q 2381 3103 1925 3103 
Q 1469 3103 1208 2742 
Q 947 2381 947 1747 
z
" transform="scale(0.015625)"/>
     </defs>
     <use xlink:href="#DejaVuSans-33"/>
     <use xlink:href="#DejaVuSans-44" transform="translate(63.623047 0)"/>
     <use xlink:href="#DejaVuSans-20" transform="translate(140.625 0)"/>
     <use xlink:href="#DejaVuSans-46" transform="translate(172.412109 0)"/>
     <use xlink:href="#DejaVuSans-6c" transform="translate(229.931641 0)"/>
     <use xlink:href="#DejaVuSans-69" transform="translate(257.714844 0)"/>
     <use xlink:href="#DejaVuSans-67" transform="translate(285.498047 0)"/>
     <use xlink:href="#DejaVuSans-68" transform="translate(348.974609 0)"/>
     <use xlink:href="#DejaVuSans-74" transform="translate(412.353516 0)"/>
     <use xlink:href="#DejaVuSans-20" transform="translate(451.5625 0)"/>
     <use xlink:href="#DejaVuSans-56" transform="translate(483.349609 0)"/>
     <use xlink:href="#DejaVuSans-69" transform="translate(549.507812 0)"/>
     <use xlink:href="#DejaVuSans-73" transform="translate(577.291016 0)"/>
     <use xlink:href="#DejaVuSans-75" transform="translate(629.390625 0)"/>
     <use xlink:href="#DejaVuSans-61" transform="translate(692.769531 0)"/>
     <use xlink:href="#DejaVuSans-6c" transform="translate(754.048828 0)"/>
     <use xlink:href="#DejaVuSans-69" transform="translate(781.832031 0)"/>
     <use xlink:href="#DejaVuSans-7a" transform="translate(809.615234 0)"/>
     <use xlink:href="#DejaVuSans-61" transform="translate(862.105469 0)"/>
     <use xlink:href="#DejaVuSans-74" transform="translate(923.384766 0)"/>
     <use xlink:href="#DejaVuSans-69" transform="translate(962.59375 0)"/>
     <use xlink:href="#DejaVuSans-6f" transform="translate(990.376953 0)"/>
     <use xlink:href="#DejaVuSans-6e" transform="translate(1051.558594 0)"/>
     <use xlink:href="#DejaVuSans-3a" transform="translate(1114.9375 0)"/>
     <use xlink:href="#DejaVuSans-20" transform="translate(1148.628906 0)"/>
     <use xlink:href="#DejaVuSans-53" transform="translate(1180.416016 0)"/>
     <use xlink:href="#DejaVuSans-74" transform="translate(1243.892578 0)"/>
     <use xlink:href="#DejaVuSans-61" transform="translate(1283.101562 0)"/>
     <use xlink:href="#DejaVuSans-74" transform="translate(1344.380859 0)"/>
     <use xlink:href="#DejaVuSans-65" transform="translate(1383.589844 0)"/>
     <use xlink:href="#DejaVuSans-20" transform="translate(1445.113281 0)"/>
     <use xlink:href="#DejaVuSans-45" transform="translate(1476.900391 0)"/>
     <use xlink:href="#DejaVuSans-73" transform="translate(1540.083984 0)"/>
     <use xlink:href="#DejaVuSans-74" transform="translate(1592.183594 0)"/>
     <use xlink:href="#DejaVuSans-69" transform="translate(1631.392578 0)"/>
     <use xlink:href="#DejaVuSans-6d" transform="translate(1659.175781 0)"/>
     <use xlink:href="#DejaVuSans-61" transform="translate(1756.587891 0)"/>
     <use xlink:href="#DejaVuSans-74" transform="translate(1817.867188 0)"/>
     <use xlink:href="#DejaVuSans-65" transform="translate(1857.076172 0)"/>
     <use xlink:href="#DejaVuSans-20" transform="translate(1918.599609 0)"/>
     <use xlink:href="#DejaVuSans-46" transform="translate(1950.386719 0)"/>
     <use xlink:href="#DejaVuSans-6c" transform="translate(2007.90625 0)"/>
     <use xlink:href="#DejaVuSans-69" transform="translate(2035.689453 0)"/>
     <use xlink:href="#DejaVuSans-67" transform="translate(2063.472656 0)"/>
     <use xlink:href="#DejaVuSans-68" transform="translate(2126.949219 0)"/>
     <use xlink:href="#DejaVuSans-74" transform="translate(2190.328125 0)"/>
     <use xlink:href="#DejaVuSans-20" transform="translate(2229.537109 0)"/>
     <use xlink:href="#DejaVuSans-50" transform="translate(2261.324219 0)"/>
     <use xlink:href="#DejaVuSans-61" transform="translate(2317.126953 0)"/>
     <use xlink:href="#DejaVuSans-74" transform="translate(2378.40625 0)"/>
     <use xlink:href="#DejaVuSans-68" transform="translate(2417.615234 0)"/>
     <use xlink:href="#DejaVuSans-20" transform="translate(2480.994141 0)"/>
     <use xlink:href="#DejaVuSans-76" transform="translate(2512.78125 0)"/>
     <use xlink:href="#DejaVuSans-73" transform="translate(2571.960938 0)"/>
     <use xlink:href="#DejaVuSans-2e" transform="translate(2624.060547 0)"/>
     <use xlink:href="#DejaVuSans-20" transform="translate(2655.847656 0)"/>
     <use xlink:href="#DejaVuSans-49" transform="translate(2687.634766 0)"/>
     <use xlink:href="#DejaVuSans-64" transform="translate(2717.126953 0)"/>
     <use xlink:href="#DejaVuSans-65" transform="translate(2780.603516 0)"/>
     <use xlink:href="#DejaVuSans-61" transform="translate(2842.126953 0)"/>
     <use xlink:href="#DejaVuSans-6c" transform="translate(2903.40625 0)"/>
    </g>
   </g>
   <g id="legend_1">
    <g id="patch_6">
     <path d="M 928.49625 75.3075 
L 1122.96 75.3075 
Q 1125.36 75.3075 1125.36 72.9075 
L 1125.36 38.88 
Q 1125.36 36.48 1122.96 36.48 
L 928.49625 36.48 
Q 926.09625 36.48 926.09625 38.88 
L 926.09625 72.9075 
Q 926.09625 75.3075 928.49625 75.3075 
z
" style="fill: #ffffff; opacity: 0.8; stroke: #cccccc; stroke-linejoin: miter"/>
    </g>
    <g id="line2d_28">
     <path d="M 930.89625 46.198125 
L 942.89625 46.198125 
L 954.89625 46.198125 
" style="fill: none; stroke: #0000ff; stroke-width: 2; stroke-linecap: square"/>
    </g>
    <g id="text_35">
     <!-- State Estimate Flight Path -->
     <g transform="translate(964.49625 50.398125) scale(0.12 -0.12)">
      <use xlink:href="#DejaVuSans-53"/>
      <use xlink:href="#DejaVuSans-74" transform="translate(63.476562 0)"/>
      <use xlink:href="#DejaVuSans-61" transform="translate(102.685547 0)"/>
      <use xlink:href="#DejaVuSans-74" transform="translate(163.964844 0)"/>
      <use xlink:href="#DejaVuSans-65" transform="translate(203.173828 0)"/>
      <use xlink:href="#DejaVuSans-20" transform="translate(264.697266 0)"/>
      <use xlink:href="#DejaVuSans-45" transform="translate(296.484375 0)"/>
      <use xlink:href="#DejaVuSans-73" transform="translate(359.667969 0)"/>
      <use xlink:href="#DejaVuSans-74" transform="translate(411.767578 0)"/>
      <use xlink:href="#DejaVuSans-69" transform="translate(450.976562 0)"/>
      <use xlink:href="#DejaVuSans-6d" transform="translate(478.759766 0)"/>
      <use xlink:href="#DejaVuSans-61" transform="translate(576.171875 0)"/>
      <use xlink:href="#DejaVuSans-74" transform="translate(637.451172 0)"/>
      <use xlink:href="#DejaVuSans-65" transform="translate(676.660156 0)"/>
      <use xlink:href="#DejaVuSans-20" transform="translate(738.183594 0)"/>
      <use xlink:href="#DejaVuSans-46" transform="translate(769.970703 0)"/>
      <use xlink:href="#DejaVuSans-6c" transform="translate(827.490234 0)"/>
      <use xlink:href="#DejaVuSans-69" transform="translate(855.273438 0)"/>
      <use xlink:href="#DejaVuSans-67" transform="translate(883.056641 0)"/>
      <use xlink:href="#DejaVuSans-68" transform="translate(946.533203 0)"/>
      <use xlink:href="#DejaVuSans-74" transform="translate(1009.912109 0)"/>
      <use xlink:href="#DejaVuSans-20" transform="translate(1049.121094 0)"/>
      <use xlink:href="#DejaVuSans-50" transform="translate(1080.908203 0)"/>
      <use xlink:href="#DejaVuSans-61" transform="translate(1136.710938 0)"/>
      <use xlink:href="#DejaVuSans-74" transform="translate(1197.990234 0)"/>
      <use xlink:href="#DejaVuSans-68" transform="translate(1237.199219 0)"/>
     </g>
    </g>
    <g id="line2d_29">
     <path d="M 930.89625 63.811875 
L 942.89625 63.811875 
L 954.89625 63.811875 
" style="fill: none; stroke-dasharray: 7.4,3.2; stroke-dashoffset: 0; stroke: #008000; stroke-width: 2"/>
    </g>
    <g id="text_36">
     <!-- Ideal Waypoints Path -->
     <g transform="translate(964.49625 68.011875) scale(0.12 -0.12)">
      <defs>
       <path id="DejaVuSans-57" d="M 213 4666 
L 850 4666 
L 1831 722 
L 2809 4666 
L 3519 4666 
L 4500 722 
L 5478 4666 
L 6119 4666 
L 4947 0 
L 4153 0 
L 3169 4050 
L 2175 0 
L 1381 0 
L 213 4666 
z
" transform="scale(0.015625)"/>
       <path id="DejaVuSans-79" d="M 2059 -325 
Q 1816 -950 1584 -1140 
Q 1353 -1331 966 -1331 
L 506 -1331 
L 506 -850 
L 844 -850 
Q 1081 -850 1212 -737 
Q 1344 -625 1503 -206 
L 1606 56 
L 191 3500 
L 800 3500 
L 1894 763 
L 2988 3500 
L 3597 3500 
L 2059 -325 
z
" transform="scale(0.015625)"/>
       <path id="DejaVuSans-70" d="M 1159 525 
L 1159 -1331 
L 581 -1331 
L 581 3500 
L 1159 3500 
L 1159 2969 
Q 1341 3281 1617 3432 
Q 1894 3584 2278 3584 
Q 2916 3584 3314 3078 
Q 3713 2572 3713 1747 
Q 3713 922 3314 415 
Q 2916 -91 2278 -91 
Q 1894 -91 1617 61 
Q 1341 213 1159 525 
z
M 3116 1747 
Q 3116 2381 2855 2742 
Q 2594 3103 2138 3103 
Q 1681 3103 1420 2742 
Q 1159 2381 1159 1747 
Q 1159 1113 1420 752 
Q 1681 391 2138 391 
Q 2594 391 2855 752 
Q 3116 1113 3116 1747 
z
" transform="scale(0.015625)"/>
      </defs>
      <use xlink:href="#DejaVuSans-49"/>
      <use xlink:href="#DejaVuSans-64" transform="translate(29.492188 0)"/>
      <use xlink:href="#DejaVuSans-65" transform="translate(92.96875 0)"/>
      <use xlink:href="#DejaVuSans-61" transform="translate(154.492188 0)"/>
      <use xlink:href="#DejaVuSans-6c" transform="translate(215.771484 0)"/>
      <use xlink:href="#DejaVuSans-20" transform="translate(243.554688 0)"/>
      <use xlink:href="#DejaVuSans-57" transform="translate(275.341797 0)"/>
      <use xlink:href="#DejaVuSans-61" transform="translate(367.84375 0)"/>
      <use xlink:href="#DejaVuSans-79" transform="translate(429.123047 0)"/>
      <use xlink:href="#DejaVuSans-70" transform="translate(488.302734 0)"/>
      <use xlink:href="#DejaVuSans-6f" transform="translate(551.779297 0)"/>
      <use xlink:href="#DejaVuSans-69" transform="translate(612.960938 0)"/>
      <use xlink:href="#DejaVuSans-6e" transform="translate(640.744141 0)"/>
      <use xlink:href="#DejaVuSans-74" transform="translate(704.123047 0)"/>
      <use xlink:href="#DejaVuSans-73" transform="translate(743.332031 0)"/>
      <use xlink:href="#DejaVuSans-20" transform="translate(795.431641 0)"/>
      <use xlink:href="#DejaVuSans-50" transform="translate(827.21875 0)"/>
      <use xlink:href="#DejaVuSans-61" transform="translate(883.021484 0)"/>
      <use xlink:href="#DejaVuSans-74" transform="translate(944.300781 0)"/>
      <use xlink:href="#DejaVuSans-68" transform="translate(983.509766 0)"/>
     </g>
    </g>
   </g>
  </g>
 </g>
 <defs>
  <clipPath id="p39572f0a93">
   <rect x="164.64" y="30.48" width="966.72" height="966.72"/>
  </clipPath>
 </defs>
</svg>
