<?xml version="1.0" encoding="utf-8" standalone="no"?>
<!DOCTYPE svg PUBLIC "-//W3C//DTD SVG 1.1//EN"
  "http://www.w3.org/Graphics/SVG/1.1/DTD/svg11.dtd">
<svg xmlns:xlink="http://www.w3.org/1999/xlink" width="1296pt" height="1008pt" viewBox="0 0 1296 1008" xmlns="http://www.w3.org/2000/svg" version="1.1">
 <metadata>
  <rdf:RDF xmlns:dc="http://purl.org/dc/elements/1.1/" xmlns:cc="http://creativecommons.org/ns#" xmlns:rdf="http://www.w3.org/1999/02/22-rdf-syntax-ns#">
   <cc:Work>
    <dc:type rdf:resource="http://purl.org/dc/dcmitype/StillImage"/>
    <dc:date>2025-07-30T19:03:05.883853</dc:date>
    <dc:format>image/svg+xml</dc:format>
    <dc:creator>
     <cc:Agent>
      <dc:title>Matplotlib v3.10.3, https://matplotlib.org/</dc:title>
     </cc:Agent>
    </dc:creator>
   </cc:Work>
  </rdf:RDF>
 </metadata>
 <defs>
  <style type="text/css">*{stroke-linejoin: round; stroke-linecap: butt}</style>
 </defs>
 <g id="figure_1">
  <g id="patch_1">
   <path d="M 0 1008 
L 1296 1008 
L 1296 0 
L 0 0 
z
" style="fill: #ffffff"/>
  </g>
  <g id="patch_2">
   <path d="M 164.64 997.2 
L 1131.36 997.2 
L 1131.36 30.48 
L 164.64 30.48 
z
" style="fill: #ffffff"/>
  </g>
  <g id="pane3d_1">
   <g id="patch_3">
    <path d="M 661.063784 524.082082 
L 229.328797 708.286308 
L 212.724536 285.285415 
L 661.063784 125.027125 
" style="fill: #f2f2f2; opacity: 0.5; stroke: #f2f2f2; stroke-linejoin: miter"/>
   </g>
  </g>
  <g id="pane3d_2">
   <g id="patch_4">
    <path d="M 1092.798771 708.286308 
L 661.063784 524.082082 
L 661.063784 125.027125 
L 1109.403032 285.285415 
" style="fill: #e6e6e6; opacity: 0.5; stroke: #e6e6e6; stroke-linejoin: miter"/>
   </g>
  </g>
  <g id="pane3d_3">
   <g id="patch_5">
    <path d="M 1092.798771 708.286308 
L 661.063784 524.082082 
L 229.328797 708.286308 
L 661.063784 922.309689 
" style="fill: #ececec; opacity: 0.5; stroke: #ececec; stroke-linejoin: miter"/>
   </g>
  </g>
  <g id="grid3d_1">
   <g id="Line3DCollection_1">
    <path d="M 626.545674 905.198075 
L 1058.458809 693.634805 
L 1073.654452 272.507131 
" style="fill: none; stroke: #b0b0b0; stroke-width: 0.8"/>
    <path d="M 561.060237 872.73507 
L 993.226621 665.802813 
L 1005.788389 248.248494 
" style="fill: none; stroke: #b0b0b0; stroke-width: 0.8"/>
    <path d="M 497.054385 841.005539 
L 929.360844 638.553815 
L 939.397086 224.517007 
" style="fill: none; stroke: #b0b0b0; stroke-width: 0.8"/>
    <path d="M 434.478532 809.984899 
L 866.81899 611.869682 
L 874.432988 201.295674 
" style="fill: none; stroke: #b0b0b0; stroke-width: 0.8"/>
    <path d="M 373.285287 779.649657 
L 805.560314 585.733031 
L 810.850565 178.568218 
" style="fill: none; stroke: #b0b0b0; stroke-width: 0.8"/>
    <path d="M 313.429326 749.977345 
L 745.545727 560.127183 
L 748.606202 156.31905 
" style="fill: none; stroke: #b0b0b0; stroke-width: 0.8"/>
    <path d="M 254.867286 720.946467 
L 686.737711 535.03613 
L 687.6581 134.533229 
" style="fill: none; stroke: #b0b0b0; stroke-width: 0.8"/>
   </g>
  </g>
  <g id="grid3d_2">
   <g id="Line3DCollection_2">
    <path d="M 640.821397 132.262741 
L 641.521213 532.420123 
L 1073.360841 717.922245 
" style="fill: none; stroke: #b0b0b0; stroke-width: 0.8"/>
    <path d="M 585.601412 152.001053 
L 588.234314 555.155533 
L 1020.30909 744.221516 
" style="fill: none; stroke: #b0b0b0; stroke-width: 0.8"/>
    <path d="M 529.317254 172.119753 
L 533.956659 578.31366 
L 966.195341 771.047249 
" style="fill: none; stroke: #b0b0b0; stroke-width: 0.8"/>
    <path d="M 471.937863 192.629943 
L 478.660357 601.906402 
L 910.987384 798.415412 
" style="fill: none; stroke: #b0b0b0; stroke-width: 0.8"/>
    <path d="M 413.430956 213.543162 
L 422.31646 625.946112 
L 854.651691 826.342626 
" style="fill: none; stroke: #b0b0b0; stroke-width: 0.8"/>
    <path d="M 353.762968 234.871408 
L 364.894914 650.445613 
L 797.153351 854.846198 
" style="fill: none; stroke: #b0b0b0; stroke-width: 0.8"/>
    <path d="M 292.898992 256.627158 
L 306.364503 675.418222 
L 738.455997 883.944155 
" style="fill: none; stroke: #b0b0b0; stroke-width: 0.8"/>
    <path d="M 230.802703 278.823397 
L 246.692793 700.877778 
L 678.521729 913.655286 
" style="fill: none; stroke: #b0b0b0; stroke-width: 0.8"/>
   </g>
  </g>
  <g id="grid3d_3">
   <g id="Line3DCollection_3">
    <path d="M 1093.818677 682.303752 
L 661.063784 499.508762 
L 228.308891 682.303752 
" style="fill: none; stroke: #b0b0b0; stroke-width: 0.8"/>
    <path d="M 1095.550094 638.195142 
L 661.063784 457.811016 
L 226.577474 638.195142 
" style="fill: none; stroke: #b0b0b0; stroke-width: 0.8"/>
    <path d="M 1097.295421 593.732165 
L 661.063784 415.801835 
L 224.832147 593.732165 
" style="fill: none; stroke: #b0b0b0; stroke-width: 0.8"/>
    <path d="M 1099.054826 548.910533 
L 661.063784 373.477715 
L 223.072742 548.910533 
" style="fill: none; stroke: #b0b0b0; stroke-width: 0.8"/>
    <path d="M 1100.828481 503.725888 
L 661.063784 330.835103 
L 221.299087 503.725888 
" style="fill: none; stroke: #b0b0b0; stroke-width: 0.8"/>
    <path d="M 1102.616559 458.173803 
L 661.063784 287.87039 
L 219.511008 458.173803 
" style="fill: none; stroke: #b0b0b0; stroke-width: 0.8"/>
    <path d="M 1104.419237 412.249776 
L 661.063784 244.579911 
L 217.70833 412.249776 
" style="fill: none; stroke: #b0b0b0; stroke-width: 0.8"/>
    <path d="M 1106.236695 365.949235 
L 661.063784 200.959949 
L 215.890872 365.949235 
" style="fill: none; stroke: #b0b0b0; stroke-width: 0.8"/>
    <path d="M 1108.069115 319.267529 
L 661.063784 157.006727 
L 214.058452 319.267529 
" style="fill: none; stroke: #b0b0b0; stroke-width: 0.8"/>
   </g>
  </g>
  <g id="axis3d_1">
   <g id="line2d_1">
    <path d="M 229.328797 708.286308 
L 661.063784 922.309689 
" style="fill: none; stroke: #000000; stroke-width: 0.8; stroke-linecap: square"/>
   </g>
   <g id="xtick_1">
    <g id="line2d_2">
     <path d="M 630.276577 903.370573 
L 619.06944 908.860145 
" style="fill: none; stroke: #000000; stroke-width: 0.8; stroke-linecap: square"/>
    </g>
    <g id="text_1">
     <!-- 0.0 -->
     <g transform="translate(607.956964 927.848837) scale(0.1 -0.1)">
      <defs>
       <path id="DejaVuSans-30" d="M 2034 4250 
Q 1547 4250 1301 3770 
Q 1056 3291 1056 2328 
Q 1056 1369 1301 889 
Q 1547 409 2034 409 
Q 2525 409 2770 889 
Q 3016 1369 3016 2328 
Q 3016 3291 2770 3770 
Q 2525 4250 2034 4250 
z
M 2034 4750 
Q 2819 4750 3233 4129 
Q 3647 3509 3647 2328 
Q 3647 1150 3233 529 
Q 2819 -91 2034 -91 
Q 1250 -91 836 529 
Q 422 1150 422 2328 
Q 422 3509 836 4129 
Q 1250 4750 2034 4750 
z
" transform="scale(0.015625)"/>
       <path id="DejaVuSans-2e" d="M 684 794 
L 1344 794 
L 1344 0 
L 684 0 
L 684 794 
z
" transform="scale(0.015625)"/>
      </defs>
      <use xlink:href="#DejaVuSans-30"/>
      <use xlink:href="#DejaVuSans-2e" transform="translate(63.623047 0)"/>
      <use xlink:href="#DejaVuSans-30" transform="translate(95.410156 0)"/>
     </g>
    </g>
   </g>
   <g id="xtick_2">
    <g id="line2d_3">
     <path d="M 564.790179 870.949079 
L 553.586094 876.31388 
" style="fill: none; stroke: #000000; stroke-width: 0.8; stroke-linecap: square"/>
    </g>
    <g id="text_2">
     <!-- 0.2 -->
     <g transform="translate(542.533001 895.183852) scale(0.1 -0.1)">
      <defs>
       <path id="DejaVuSans-32" d="M 1228 531 
L 3431 531 
L 3431 0 
L 469 0 
L 469 531 
Q 828 903 1448 1529 
Q 2069 2156 2228 2338 
Q 2531 2678 2651 2914 
Q 2772 3150 2772 3378 
Q 2772 3750 2511 3984 
Q 2250 4219 1831 4219 
Q 1534 4219 1204 4116 
Q 875 4013 500 3803 
L 500 4441 
Q 881 4594 1212 4672 
Q 1544 4750 1819 4750 
Q 2544 4750 2975 4387 
Q 3406 4025 3406 3419 
Q 3406 3131 3298 2873 
Q 3191 2616 2906 2266 
Q 2828 2175 2409 1742 
Q 1991 1309 1228 531 
z
" transform="scale(0.015625)"/>
      </defs>
      <use xlink:href="#DejaVuSans-30"/>
      <use xlink:href="#DejaVuSans-2e" transform="translate(63.623047 0)"/>
      <use xlink:href="#DejaVuSans-32" transform="translate(95.410156 0)"/>
     </g>
    </g>
   </g>
   <g id="xtick_3">
    <g id="line2d_4">
     <path d="M 500.782457 839.25966 
L 489.58415 844.503895 
" style="fill: none; stroke: #000000; stroke-width: 0.8; stroke-linecap: square"/>
    </g>
    <g id="text_3">
     <!-- 0.4 -->
     <g transform="translate(478.588576 863.257574) scale(0.1 -0.1)">
      <defs>
       <path id="DejaVuSans-34" d="M 2419 4116 
L 825 1625 
L 2419 1625 
L 2419 4116 
z
M 2253 4666 
L 3047 4666 
L 3047 1625 
L 3713 1625 
L 3713 1100 
L 3047 1100 
L 3047 0 
L 2419 0 
L 2419 1100 
L 313 1100 
L 313 1709 
L 2253 4666 
z
" transform="scale(0.015625)"/>
      </defs>
      <use xlink:href="#DejaVuSans-30"/>
      <use xlink:href="#DejaVuSans-2e" transform="translate(63.623047 0)"/>
      <use xlink:href="#DejaVuSans-34" transform="translate(95.410156 0)"/>
     </g>
    </g>
   </g>
   <g id="xtick_4">
    <g id="line2d_5">
     <path d="M 438.203888 808.277796 
L 427.0139 813.405484 
" style="fill: none; stroke: #000000; stroke-width: 0.8; stroke-linecap: square"/>
    </g>
    <g id="text_4">
     <!-- 0.6 -->
     <g transform="translate(416.074063 832.045224) scale(0.1 -0.1)">
      <defs>
       <path id="DejaVuSans-36" d="M 2113 2584 
Q 1688 2584 1439 2293 
Q 1191 2003 1191 1497 
Q 1191 994 1439 701 
Q 1688 409 2113 409 
Q 2538 409 2786 701 
Q 3034 994 3034 1497 
Q 3034 2003 2786 2293 
Q 2538 2584 2113 2584 
z
M 3366 4563 
L 3366 3988 
Q 3128 4100 2886 4159 
Q 2644 4219 2406 4219 
Q 1781 4219 1451 3797 
Q 1122 3375 1075 2522 
Q 1259 2794 1537 2939 
Q 1816 3084 2150 3084 
Q 2853 3084 3261 2657 
Q 3669 2231 3669 1497 
Q 3669 778 3244 343 
Q 2819 -91 2113 -91 
Q 1303 -91 875 529 
Q 447 1150 447 2328 
Q 447 3434 972 4092 
Q 1497 4750 2381 4750 
Q 2619 4750 2861 4703 
Q 3103 4656 3366 4563 
z
" transform="scale(0.015625)"/>
      </defs>
      <use xlink:href="#DejaVuSans-30"/>
      <use xlink:href="#DejaVuSans-2e" transform="translate(63.623047 0)"/>
      <use xlink:href="#DejaVuSans-36" transform="translate(95.410156 0)"/>
     </g>
    </g>
   </g>
   <g id="xtick_5">
    <g id="line2d_6">
     <path d="M 377.007135 777.980053 
L 365.827836 782.995036 
" style="fill: none; stroke: #000000; stroke-width: 0.8; stroke-linecap: square"/>
    </g>
    <g id="text_5">
     <!-- 0.8 -->
     <g transform="translate(354.942028 801.523121) scale(0.1 -0.1)">
      <defs>
       <path id="DejaVuSans-38" d="M 2034 2216 
Q 1584 2216 1326 1975 
Q 1069 1734 1069 1313 
Q 1069 891 1326 650 
Q 1584 409 2034 409 
Q 2484 409 2743 651 
Q 3003 894 3003 1313 
Q 3003 1734 2745 1975 
Q 2488 2216 2034 2216 
z
M 1403 2484 
Q 997 2584 770 2862 
Q 544 3141 544 3541 
Q 544 4100 942 4425 
Q 1341 4750 2034 4750 
Q 2731 4750 3128 4425 
Q 3525 4100 3525 3541 
Q 3525 3141 3298 2862 
Q 3072 2584 2669 2484 
Q 3125 2378 3379 2068 
Q 3634 1759 3634 1313 
Q 3634 634 3220 271 
Q 2806 -91 2034 -91 
Q 1263 -91 848 271 
Q 434 634 434 1313 
Q 434 1759 690 2068 
Q 947 2378 1403 2484 
z
M 1172 3481 
Q 1172 3119 1398 2916 
Q 1625 2713 2034 2713 
Q 2441 2713 2670 2916 
Q 2900 3119 2900 3481 
Q 2900 3844 2670 4047 
Q 2441 4250 2034 4250 
Q 1625 4250 1398 4047 
Q 1172 3844 1172 3481 
z
" transform="scale(0.015625)"/>
      </defs>
      <use xlink:href="#DejaVuSans-30"/>
      <use xlink:href="#DejaVuSans-2e" transform="translate(63.623047 0)"/>
      <use xlink:href="#DejaVuSans-38" transform="translate(95.410156 0)"/>
     </g>
    </g>
   </g>
   <g id="xtick_6">
    <g id="line2d_7">
     <path d="M 317.14693 748.344017 
L 305.980528 753.249971 
" style="fill: none; stroke: #000000; stroke-width: 0.8; stroke-linecap: square"/>
    </g>
    <g id="text_6">
     <!-- 1.0 -->
     <g transform="translate(295.147114 771.668617) scale(0.1 -0.1)">
      <defs>
       <path id="DejaVuSans-31" d="M 794 531 
L 1825 531 
L 1825 4091 
L 703 3866 
L 703 4441 
L 1819 4666 
L 2450 4666 
L 2450 531 
L 3481 531 
L 3481 0 
L 794 0 
L 794 531 
z
" transform="scale(0.015625)"/>
      </defs>
      <use xlink:href="#DejaVuSans-31"/>
      <use xlink:href="#DejaVuSans-2e" transform="translate(63.623047 0)"/>
      <use xlink:href="#DejaVuSans-30" transform="translate(95.410156 0)"/>
     </g>
    </g>
   </g>
   <g id="xtick_7">
    <g id="line2d_8">
     <path d="M 258.57996 719.348246 
L 247.428514 724.148688 
" style="fill: none; stroke: #000000; stroke-width: 0.8; stroke-linecap: square"/>
    </g>
    <g id="text_7">
     <!-- 1.2 -->
     <g transform="translate(236.645926 742.460047) scale(0.1 -0.1)">
      <use xlink:href="#DejaVuSans-31"/>
      <use xlink:href="#DejaVuSans-2e" transform="translate(63.623047 0)"/>
      <use xlink:href="#DejaVuSans-32" transform="translate(95.410156 0)"/>
     </g>
    </g>
   </g>
   <g id="text_8">
    <!-- X (m) -->
    <g transform="translate(395.039199 837.512161) rotate(-333.63107) scale(0.14 -0.14)">
     <defs>
      <path id="DejaVuSans-58" d="M 403 4666 
L 1081 4666 
L 2241 2931 
L 3406 4666 
L 4084 4666 
L 2584 2425 
L 4184 0 
L 3506 0 
L 2194 1984 
L 872 0 
L 191 0 
L 1856 2491 
L 403 4666 
z
" transform="scale(0.015625)"/>
      <path id="DejaVuSans-20" transform="scale(0.015625)"/>
      <path id="DejaVuSans-28" d="M 1984 4856 
Q 1566 4138 1362 3434 
Q 1159 2731 1159 2009 
Q 1159 1288 1364 580 
Q 1569 -128 1984 -844 
L 1484 -844 
Q 1016 -109 783 600 
Q 550 1309 550 2009 
Q 550 2706 781 3412 
Q 1013 4119 1484 4856 
L 1984 4856 
z
" transform="scale(0.015625)"/>
      <path id="DejaVuSans-6d" d="M 3328 2828 
Q 3544 3216 3844 3400 
Q 4144 3584 4550 3584 
Q 5097 3584 5394 3201 
Q 5691 2819 5691 2113 
L 5691 0 
L 5113 0 
L 5113 2094 
Q 5113 2597 4934 2840 
Q 4756 3084 4391 3084 
Q 3944 3084 3684 2787 
Q 3425 2491 3425 1978 
L 3425 0 
L 2847 0 
L 2847 2094 
Q 2847 2600 2669 2842 
Q 2491 3084 2119 3084 
Q 1678 3084 1418 2786 
Q 1159 2488 1159 1978 
L 1159 0 
L 581 0 
L 581 3500 
L 1159 3500 
L 1159 2956 
Q 1356 3278 1631 3431 
Q 1906 3584 2284 3584 
Q 2666 3584 2933 3390 
Q 3200 3197 3328 2828 
z
" transform="scale(0.015625)"/>
      <path id="DejaVuSans-29" d="M 513 4856 
L 1013 4856 
Q 1481 4119 1714 3412 
Q 1947 2706 1947 2009 
Q 1947 1309 1714 600 
Q 1481 -109 1013 -844 
L 513 -844 
Q 928 -128 1133 580 
Q 1338 1288 1338 2009 
Q 1338 2731 1133 3434 
Q 928 4138 513 4856 
z
" transform="scale(0.015625)"/>
     </defs>
     <use xlink:href="#DejaVuSans-58"/>
     <use xlink:href="#DejaVuSans-20" transform="translate(68.505859 0)"/>
     <use xlink:href="#DejaVuSans-28" transform="translate(100.292969 0)"/>
     <use xlink:href="#DejaVuSans-6d" transform="translate(139.306641 0)"/>
     <use xlink:href="#DejaVuSans-29" transform="translate(236.71875 0)"/>
    </g>
   </g>
  </g>
  <g id="axis3d_2">
   <g id="line2d_9">
    <path d="M 1092.798771 708.286308 
L 661.063784 922.309689 
" style="fill: none; stroke: #000000; stroke-width: 0.8; stroke-linecap: square"/>
   </g>
   <g id="xtick_8">
    <g id="line2d_10">
     <path d="M 1069.648725 716.327659 
L 1080.79848 721.117176 
" style="fill: none; stroke: #000000; stroke-width: 0.8; stroke-linecap: square"/>
    </g>
    <g id="text_9">
     <!-- −0.50 -->
     <g transform="translate(1068.301581 739.417346) scale(0.1 -0.1)">
      <defs>
       <path id="DejaVuSans-2212" d="M 678 2272 
L 4684 2272 
L 4684 1741 
L 678 1741 
L 678 2272 
z
" transform="scale(0.015625)"/>
       <path id="DejaVuSans-35" d="M 691 4666 
L 3169 4666 
L 3169 4134 
L 1269 4134 
L 1269 2991 
Q 1406 3038 1543 3061 
Q 1681 3084 1819 3084 
Q 2600 3084 3056 2656 
Q 3513 2228 3513 1497 
Q 3513 744 3044 326 
Q 2575 -91 1722 -91 
Q 1428 -91 1123 -41 
Q 819 9 494 109 
L 494 744 
Q 775 591 1075 516 
Q 1375 441 1709 441 
Q 2250 441 2565 725 
Q 2881 1009 2881 1497 
Q 2881 1984 2565 2268 
Q 2250 2553 1709 2553 
Q 1456 2553 1204 2497 
Q 953 2441 691 2322 
L 691 4666 
z
" transform="scale(0.015625)"/>
      </defs>
      <use xlink:href="#DejaVuSans-2212"/>
      <use xlink:href="#DejaVuSans-30" transform="translate(83.789062 0)"/>
      <use xlink:href="#DejaVuSans-2e" transform="translate(147.412109 0)"/>
      <use xlink:href="#DejaVuSans-35" transform="translate(179.199219 0)"/>
      <use xlink:href="#DejaVuSans-30" transform="translate(242.822266 0)"/>
     </g>
    </g>
   </g>
   <g id="xtick_9">
    <g id="line2d_11">
     <path d="M 1016.592402 742.595178 
L 1027.756023 747.480122 
" style="fill: none; stroke: #000000; stroke-width: 0.8; stroke-linecap: square"/>
    </g>
    <g id="text_10">
     <!-- −0.25 -->
     <g transform="translate(1015.305107 765.877513) scale(0.1 -0.1)">
      <use xlink:href="#DejaVuSans-2212"/>
      <use xlink:href="#DejaVuSans-30" transform="translate(83.789062 0)"/>
      <use xlink:href="#DejaVuSans-2e" transform="translate(147.412109 0)"/>
      <use xlink:href="#DejaVuSans-32" transform="translate(179.199219 0)"/>
      <use xlink:href="#DejaVuSans-35" transform="translate(242.822266 0)"/>
     </g>
    </g>
   </g>
   <g id="xtick_10">
    <g id="line2d_12">
     <path d="M 962.474641 769.388202 
L 973.65045 774.371453 
" style="fill: none; stroke: #000000; stroke-width: 0.8; stroke-linecap: square"/>
    </g>
    <g id="text_11">
     <!-- 0.00 -->
     <g transform="translate(965.436646 792.867833) scale(0.1 -0.1)">
      <use xlink:href="#DejaVuSans-30"/>
      <use xlink:href="#DejaVuSans-2e" transform="translate(63.623047 0)"/>
      <use xlink:href="#DejaVuSans-30" transform="translate(95.410156 0)"/>
      <use xlink:href="#DejaVuSans-30" transform="translate(159.033203 0)"/>
     </g>
    </g>
   </g>
   <g id="xtick_11">
    <g id="line2d_13">
     <path d="M 907.263267 796.72266 
L 918.449476 801.807216 
" style="fill: none; stroke: #000000; stroke-width: 0.8; stroke-linecap: square"/>
    </g>
    <g id="text_12">
     <!-- 0.25 -->
     <g transform="translate(910.284277 820.404399) scale(0.1 -0.1)">
      <use xlink:href="#DejaVuSans-30"/>
      <use xlink:href="#DejaVuSans-2e" transform="translate(63.623047 0)"/>
      <use xlink:href="#DejaVuSans-32" transform="translate(95.410156 0)"/>
      <use xlink:href="#DejaVuSans-35" transform="translate(159.033203 0)"/>
     </g>
    </g>
   </g>
   <g id="xtick_12">
    <g id="line2d_14">
     <path d="M 850.924793 824.615131 
L 862.119497 829.804112 
" style="fill: none; stroke: #000000; stroke-width: 0.8; stroke-linecap: square"/>
    </g>
    <g id="text_13">
     <!-- 0.50 -->
     <g transform="translate(854.004289 848.503965) scale(0.1 -0.1)">
      <use xlink:href="#DejaVuSans-30"/>
      <use xlink:href="#DejaVuSans-2e" transform="translate(63.623047 0)"/>
      <use xlink:href="#DejaVuSans-35" transform="translate(95.410156 0)"/>
      <use xlink:href="#DejaVuSans-30" transform="translate(159.033203 0)"/>
     </g>
    </g>
   </g>
   <g id="xtick_13">
    <g id="line2d_15">
     <path d="M 793.42435 853.082878 
L 804.625516 858.379536 
" style="fill: none; stroke: #000000; stroke-width: 0.8; stroke-linecap: square"/>
    </g>
    <g id="text_14">
     <!-- 0.75 -->
     <g transform="translate(796.561743 877.183974) scale(0.1 -0.1)">
      <defs>
       <path id="DejaVuSans-37" d="M 525 4666 
L 3525 4666 
L 3525 4397 
L 1831 0 
L 1172 0 
L 2766 4134 
L 525 4134 
L 525 4666 
z
" transform="scale(0.015625)"/>
      </defs>
      <use xlink:href="#DejaVuSans-30"/>
      <use xlink:href="#DejaVuSans-2e" transform="translate(63.623047 0)"/>
      <use xlink:href="#DejaVuSans-37" transform="translate(95.410156 0)"/>
      <use xlink:href="#DejaVuSans-35" transform="translate(159.033203 0)"/>
     </g>
    </g>
   </g>
   <g id="xtick_14">
    <g id="line2d_16">
     <path d="M 734.725614 882.143885 
L 745.931079 887.551606 
" style="fill: none; stroke: #000000; stroke-width: 0.8; stroke-linecap: square"/>
    </g>
    <g id="text_15">
     <!-- 1.00 -->
     <g transform="translate(737.920241 906.4626) scale(0.1 -0.1)">
      <use xlink:href="#DejaVuSans-31"/>
      <use xlink:href="#DejaVuSans-2e" transform="translate(63.623047 0)"/>
      <use xlink:href="#DejaVuSans-30" transform="translate(95.410156 0)"/>
      <use xlink:href="#DejaVuSans-30" transform="translate(159.033203 0)"/>
     </g>
    </g>
   </g>
   <g id="xtick_15">
    <g id="line2d_17">
     <path d="M 674.790733 911.816892 
L 685.998191 917.339205 
" style="fill: none; stroke: #000000; stroke-width: 0.8; stroke-linecap: square"/>
    </g>
    <g id="text_16">
     <!-- 1.25 -->
     <g transform="translate(678.04185 936.358782) scale(0.1 -0.1)">
      <use xlink:href="#DejaVuSans-31"/>
      <use xlink:href="#DejaVuSans-2e" transform="translate(63.623047 0)"/>
      <use xlink:href="#DejaVuSans-32" transform="translate(95.410156 0)"/>
      <use xlink:href="#DejaVuSans-35" transform="translate(159.033203 0)"/>
     </g>
    </g>
   </g>
   <g id="text_17">
    <!-- Y (m) -->
    <g transform="translate(892.969508 854.425856) rotate(-26.36893) scale(0.14 -0.14)">
     <defs>
      <path id="DejaVuSans-59" d="M -13 4666 
L 666 4666 
L 1959 2747 
L 3244 4666 
L 3922 4666 
L 2272 2222 
L 2272 0 
L 1638 0 
L 1638 2222 
L -13 4666 
z
" transform="scale(0.015625)"/>
     </defs>
     <use xlink:href="#DejaVuSans-59"/>
     <use xlink:href="#DejaVuSans-20" transform="translate(61.083984 0)"/>
     <use xlink:href="#DejaVuSans-28" transform="translate(92.871094 0)"/>
     <use xlink:href="#DejaVuSans-6d" transform="translate(131.884766 0)"/>
     <use xlink:href="#DejaVuSans-29" transform="translate(229.296875 0)"/>
    </g>
   </g>
  </g>
  <g id="axis3d_3">
   <g id="line2d_18">
    <path d="M 1092.798771 708.286308 
L 1109.403032 285.285415 
" style="fill: none; stroke: #000000; stroke-width: 0.8; stroke-linecap: square"/>
   </g>
   <g id="xtick_16">
    <g id="line2d_19">
     <path d="M 1090.099022 680.732576 
L 1101.271403 685.451772 
" style="fill: none; stroke: #000000; stroke-width: 0.8; stroke-linecap: square"/>
    </g>
    <g id="text_18">
     <!-- 0.0 -->
     <g transform="translate(1105.635461 689.902189) scale(0.1 -0.1)">
      <use xlink:href="#DejaVuSans-30"/>
      <use xlink:href="#DejaVuSans-2e" transform="translate(63.623047 0)"/>
      <use xlink:href="#DejaVuSans-30" transform="translate(95.410156 0)"/>
     </g>
    </g>
   </g>
   <g id="xtick_17">
    <g id="line2d_20">
     <path d="M 1091.814523 636.644259 
L 1103.034763 641.302526 
" style="fill: none; stroke: #000000; stroke-width: 0.8; stroke-linecap: square"/>
    </g>
    <g id="text_19">
     <!-- 0.2 -->
     <g transform="translate(1107.445969 645.79358) scale(0.1 -0.1)">
      <use xlink:href="#DejaVuSans-30"/>
      <use xlink:href="#DejaVuSans-2e" transform="translate(63.623047 0)"/>
      <use xlink:href="#DejaVuSans-32" transform="translate(95.410156 0)"/>
     </g>
    </g>
   </g>
   <g id="xtick_18">
    <g id="line2d_21">
     <path d="M 1093.543797 592.201952 
L 1104.812308 596.798156 
" style="fill: none; stroke: #000000; stroke-width: 0.8; stroke-linecap: square"/>
    </g>
    <g id="text_20">
     <!-- 0.4 -->
     <g transform="translate(1109.271023 601.330603) scale(0.1 -0.1)">
      <use xlink:href="#DejaVuSans-30"/>
      <use xlink:href="#DejaVuSans-2e" transform="translate(63.623047 0)"/>
      <use xlink:href="#DejaVuSans-34" transform="translate(95.410156 0)"/>
     </g>
    </g>
   </g>
   <g id="xtick_19">
    <g id="line2d_22">
     <path d="M 1095.287012 547.401374 
L 1106.604208 551.934361 
" style="fill: none; stroke: #000000; stroke-width: 0.8; stroke-linecap: square"/>
    </g>
    <g id="text_21">
     <!-- 0.6 -->
     <g transform="translate(1111.110799 556.50897) scale(0.1 -0.1)">
      <use xlink:href="#DejaVuSans-30"/>
      <use xlink:href="#DejaVuSans-2e" transform="translate(63.623047 0)"/>
      <use xlink:href="#DejaVuSans-36" transform="translate(95.410156 0)"/>
     </g>
    </g>
   </g>
   <g id="xtick_20">
    <g id="line2d_23">
     <path d="M 1097.044337 502.238175 
L 1108.410639 506.706767 
" style="fill: none; stroke: #000000; stroke-width: 0.8; stroke-linecap: square"/>
    </g>
    <g id="text_22">
     <!-- 0.8 -->
     <g transform="translate(1112.965475 511.324326) scale(0.1 -0.1)">
      <use xlink:href="#DejaVuSans-30"/>
      <use xlink:href="#DejaVuSans-2e" transform="translate(63.623047 0)"/>
      <use xlink:href="#DejaVuSans-38" transform="translate(95.410156 0)"/>
     </g>
    </g>
   </g>
   <g id="xtick_21">
    <g id="line2d_24">
     <path d="M 1098.815944 456.707935 
L 1110.231778 461.110932 
" style="fill: none; stroke: #000000; stroke-width: 0.8; stroke-linecap: square"/>
    </g>
    <g id="text_23">
     <!-- 1.0 -->
     <g transform="translate(1114.835233 465.77224) scale(0.1 -0.1)">
      <use xlink:href="#DejaVuSans-31"/>
      <use xlink:href="#DejaVuSans-2e" transform="translate(63.623047 0)"/>
      <use xlink:href="#DejaVuSans-30" transform="translate(95.410156 0)"/>
     </g>
    </g>
   </g>
   <g id="xtick_22">
    <g id="line2d_25">
     <path d="M 1100.602007 410.806161 
L 1112.067805 415.142341 
" style="fill: none; stroke: #000000; stroke-width: 0.8; stroke-linecap: square"/>
    </g>
    <g id="text_24">
     <!-- 1.2 -->
     <g transform="translate(1116.720258 419.848214) scale(0.1 -0.1)">
      <use xlink:href="#DejaVuSans-31"/>
      <use xlink:href="#DejaVuSans-2e" transform="translate(63.623047 0)"/>
      <use xlink:href="#DejaVuSans-32" transform="translate(95.410156 0)"/>
     </g>
    </g>
   </g>
   <g id="xtick_23">
    <g id="line2d_26">
     <path d="M 1102.402705 364.528287 
L 1113.918903 368.796403 
" style="fill: none; stroke: #000000; stroke-width: 0.8; stroke-linecap: square"/>
    </g>
    <g id="text_25">
     <!-- 1.4 -->
     <g transform="translate(1118.620737 373.547673) scale(0.1 -0.1)">
      <use xlink:href="#DejaVuSans-31"/>
      <use xlink:href="#DejaVuSans-2e" transform="translate(63.623047 0)"/>
      <use xlink:href="#DejaVuSans-34" transform="translate(95.410156 0)"/>
     </g>
    </g>
   </g>
   <g id="xtick_24">
    <g id="line2d_27">
     <path d="M 1104.218217 317.869672 
L 1115.78526 322.068453 
" style="fill: none; stroke: #000000; stroke-width: 0.8; stroke-linecap: square"/>
    </g>
    <g id="text_26">
     <!-- 1.6 -->
     <g transform="translate(1120.536863 326.865967) scale(0.1 -0.1)">
      <use xlink:href="#DejaVuSans-31"/>
      <use xlink:href="#DejaVuSans-2e" transform="translate(63.623047 0)"/>
      <use xlink:href="#DejaVuSans-36" transform="translate(95.410156 0)"/>
     </g>
    </g>
   </g>
   <g id="text_27">
    <!-- Z (m) -->
    <g transform="translate(1147.729669 520.213201) rotate(-87.752095) scale(0.14 -0.14)">
     <defs>
      <path id="DejaVuSans-5a" d="M 359 4666 
L 4025 4666 
L 4025 4184 
L 1075 531 
L 4097 531 
L 4097 0 
L 288 0 
L 288 481 
L 3238 4134 
L 359 4134 
L 359 4666 
z
" transform="scale(0.015625)"/>
     </defs>
     <use xlink:href="#DejaVuSans-5a"/>
     <use xlink:href="#DejaVuSans-20" transform="translate(68.505859 0)"/>
     <use xlink:href="#DejaVuSans-28" transform="translate(100.292969 0)"/>
     <use xlink:href="#DejaVuSans-6d" transform="translate(139.306641 0)"/>
     <use xlink:href="#DejaVuSans-29" transform="translate(236.71875 0)"/>
    </g>
   </g>
  </g>
  <g id="axes_1">
   <g id="line2d_28">
    <path d="M 960.163745 584.520313 
L 956.019231 570.930503 
L 969.646659 559.019272 
L 967.572559 549.104914 
L 970.354656 549.748417 
L 968.562745 537.451519 
L 971.12098 532.092558 
L 967.242298 520.082947 
L 968.463822 507.818776 
L 965.060555 496.795916 
L 964.012323 486.329137 
L 966.7472 484.880508 
L 969.693923 472.655273 
L 964.308821 459.91269 
L 967.986052 453.542349 
L 962.66307 449.432954 
L 955.134819 444.176073 
L 962.768191 441.973956 
L 956.842904 433.072622 
L 961.994572 425.939399 
L 959.615768 420.044354 
L 964.557646 416.567702 
L 964.280132 412.776134 
L 959.818194 404.440784 
L 958.792487 403.143869 
L 951.649142 392.766967 
L 951.44309 382.94142 
L 951.188036 378.80802 
L 949.442258 372.475241 
L 955.630798 369.615029 
L 944.198047 358.89745 
L 943.97496 352.02512 
L 935.470172 347.693919 
L 939.968925 344.584315 
L 941.279354 337.354037 
L 935.37059 332.947891 
L 938.91751 329.181671 
L 939.012638 323.710427 
L 933.792028 317.864509 
L 927.755881 311.679951 
L 924.186407 309.935249 
L 917.740793 301.500063 
L 921.562761 299.941005 
L 918.312982 301.351788 
L 916.573413 299.403861 
L 921.107405 298.802826 
L 918.232895 299.738424 
L 918.604807 298.74597 
L 911.252364 298.7432 
L 918.006451 298.277467 
L 910.451008 297.382574 
L 908.988023 300.707148 
L 913.080335 299.768624 
L 913.09532 298.553016 
L 910.7268 303.172118 
L 915.827878 302.136871 
L 922.110302 302.264325 
L 917.406221 305.448343 
L 912.465111 303.565483 
L 917.912486 300.688965 
L 917.015889 305.60459 
L 919.488152 303.997801 
L 912.297114 304.878211 
L 915.578188 309.250061 
L 914.822918 311.725669 
L 910.869873 319.215653 
L 903.460319 317.807278 
L 896.608972 324.058075 
L 891.876357 327.031551 
L 890.967051 329.564189 
L 890.189436 329.680726 
L 882.963226 334.730622 
L 883.528291 335.242915 
L 874.209347 336.980183 
L 875.429998 337.923598 
L 873.01861 341.292221 
L 868.75899 340.858453 
L 866.684183 343.70132 
L 865.631805 345.862391 
L 860.566558 345.804556 
L 863.087034 349.434901 
L 856.280751 346.780776 
L 852.369412 351.190026 
L 857.013568 354.600828 
L 854.518885 355.327872 
L 845.695816 352.366231 
L 847.656527 354.345797 
L 844.714511 355.362546 
L 844.51823 358.138383 
L 843.301673 357.305539 
L 842.005978 359.57531 
L 837.842781 358.950466 
L 836.902316 365.088606 
L 836.550011 365.501122 
L 827.247188 362.138237 
L 827.961713 364.246562 
L 828.776621 364.284862 
L 831.454694 366.599529 
L 826.566893 365.994436 
L 825.205646 369.43308 
L 828.571699 370.427367 
L 824.640114 373.459077 
L 823.831023 374.465129 
L 828.164705 374.390776 
L 831.613506 372.094787 
L 822.997199 373.299986 
L 832.310368 371.975268 
L 836.638925 368.583034 
L 840.442647 365.342095 
L 837.765547 368.653843 
L 832.017716 363.633305 
L 836.88117 365.86703 
L 837.094836 369.161555 
L 831.580189 367.777338 
L 826.357424 371.269963 
L 828.852054 371.956212 
L 829.538667 371.90845 
L 827.376807 373.976968 
L 828.308972 373.525364 
L 824.613449 373.037422 
L 826.68956 374.898586 
L 824.140011 372.425299 
L 823.506205 373.624547 
L 826.881455 374.147441 
L 821.632539 375.640516 
L 822.595366 376.251978 
L 818.073869 379.094352 
L 819.142532 378.080552 
L 816.833316 379.033454 
L 825.228948 379.980805 
L 818.559883 379.229796 
L 823.017608 383.618657 
L 830.727676 384.140521 
L 833.358413 383.155496 
L 844.754261 380.642167 
L 867.488076 378.84385 
L 935.954723 338.015848 
L 889.293364 339.414319 
L 871.387034 343.838546 
L 862.282733 346.613652 
L 860.684256 347.922916 
L 866.363618 355.232034 
L 864.703326 359.646029 
L 866.615552 365.537931 
L 863.402906 368.573145 
L 859.826527 372.404487 
L 857.003784 371.970471 
L 852.528547 370.693824 
L 854.81438 374.248512 
L 857.259414 375.602798 
L 858.733435 375.822155 
L 854.281624 377.471472 
L 854.312445 376.144426 
L 858.551138 378.544582 
L 854.087875 375.276299 
L 854.662225 375.002872 
L 851.793886 376.861438 
L 851.078744 373.72201 
L 850.907546 376.712316 
L 849.293074 372.846248 
L 850.290713 374.108899 
L 844.78431 372.726375 
L 846.922149 367.722178 
L 852.35275 372.056386 
L 855.188422 371.689851 
L 850.147224 370.376832 
L 855.001893 370.483117 
L 854.074689 372.696734 
L 855.358632 370.492888 
L 853.456753 374.108409 
L 845.072862 374.489428 
L 835.381145 379.553666 
L 824.85535 383.328775 
L 823.437375 384.526113 
L 819.743153 388.800489 
L 810.646218 387.190891 
L 799.785911 386.574932 
L 790.542583 386.874398 
L 794.279281 389.423236 
L 790.08617 388.851638 
L 784.42178 388.950574 
L 779.923404 390.636663 
L 772.76673 388.87777 
L 770.903202 390.349476 
L 767.964441 391.769993 
L 769.734931 395.038682 
L 768.102044 399.210577 
L 760.75631 397.622408 
L 755.985025 398.773459 
L 753.566916 398.955233 
L 751.969792 401.378913 
L 749.522454 400.686213 
L 745.876853 402.391729 
L 743.422279 398.197347 
L 741.808638 401.820409 
L 740.160017 401.305424 
L 736.926257 401.548651 
L 727.015018 403.969615 
L 722.200712 404.970542 
L 723.930352 407.309798 
L 717.968949 410.073272 
L 714.825912 408.474711 
L 710.783566 409.339001 
L 709.205686 410.73695 
L 706.909793 412.43021 
L 703.12788 414.799931 
L 699.070627 413.74314 
L 698.567656 418.036875 
L 700.293192 417.981426 
L 700.481343 418.689794 
L 699.145881 418.701243 
L 704.598089 418.055485 
L 709.0489 415.067618 
L 713.965916 414.374614 
L 713.479571 413.525741 
L 715.779532 413.1169 
L 718.409478 412.440216 
L 715.064138 413.411154 
L 710.053737 413.870403 
L 714.827063 414.871406 
L 702.850684 412.65179 
L 710.487235 414.402142 
L 714.883992 415.594392 
L 710.486185 414.642082 
L 710.587826 411.192077 
L 711.587864 412.076166 
L 717.699766 413.616627 
L 720.80672 417.871518 
L 716.93489 414.956019 
L 715.972728 418.634397 
L 710.04972 417.963365 
L 708.225148 419.538709 
L 704.502235 417.895382 
L 709.369923 422.110166 
L 708.710499 418.54838 
L 708.804771 419.910808 
L 706.749529 417.889338 
L 717.423981 420.226103 
L 726.535032 421.474493 
L 787.937048 291.708093 
L 784.294434 292.459463 
L 793.348652 290.540686 
L 839.321738 284.320976 
L 878.353883 286.684291 
L 895.712875 288.147159 
L 893.348881 285.907013 
L 885.553958 292.711047 
L 887.958983 291.743768 
L 877.244991 295.044655 
L 866.787759 299.944043 
L 850.343604 305.010083 
L 851.008319 304.153838 
L 847.848603 307.814145 
L 838.510166 307.98864 
L 840.82929 307.359664 
L 837.40879 307.102845 
L 830.200617 311.335746 
L 827.80867 312.926037 
L 830.118953 309.73856 
L 824.457351 311.249213 
L 821.748013 312.432137 
L 815.644078 311.510752 
L 818.06698 312.194913 
L 817.927893 314.012663 
L 813.568703 313.403505 
L 817.267727 314.459314 
L 807.420764 314.922626 
L 806.273683 315.890004 
L 804.362505 315.988227 
L 802.614838 319.295054 
L 798.338043 320.779335 
L 790.881295 318.128203 
L 791.552575 319.686016 
L 790.357849 320.074273 
L 786.024818 321.875072 
L 787.902497 322.118633 
L 781.233645 324.765429 
L 784.654633 326.969605 
L 785.125897 329.459618 
L 783.450684 328.951197 
L 786.695566 331.132996 
L 785.575472 327.477492 
L 793.520715 325.61578 
L 793.071275 327.365247 
L 795.509943 326.946396 
L 796.609702 323.840374 
L 794.748411 325.60972 
L 795.820983 324.863585 
L 792.775254 324.685844 
L 791.077895 327.644659 
L 793.360285 328.520943 
L 787.909785 330.48808 
L 790.285677 328.863856 
L 786.760258 327.355106 
L 792.710683 328.03796 
L 789.828187 327.476669 
L 789.295525 328.764806 
L 792.066554 327.089964 
L 784.787388 326.878301 
L 780.656987 327.486642 
L 780.094035 325.898569 
L 778.045892 329.436773 
L 777.424855 326.409192 
L 775.610049 331.182371 
L 774.532395 330.82161 
L 776.113781 331.346794 
L 768.537025 329.802164 
L 774.129406 333.144128 
L 772.785523 331.362701 
L 780.015684 333.777562 
L 790.669556 332.781954 
L 824.555711 333.47891 
L 757.450831 337.264564 
L 730.718471 335.96408 
L 713.237133 334.708345 
L 710.000565 333.342182 
L 704.633125 337.274117 
L 701.131698 336.0584 
L 700.820779 333.856858 
L 689.48697 334.719643 
L 689.107118 329.745473 
L 690.351731 329.506095 
L 685.320903 330.290121 
L 683.285557 328.245979 
L 683.416738 326.40935 
L 685.20698 329.23052 
L 683.59157 328.704819 
L 684.853429 332.801765 
L 680.70652 328.973113 
L 684.836168 328.698355 
L 678.820867 329.426933 
L 680.283582 327.568318 
L 679.073017 328.548289 
L 682.433635 330.092024 
L 676.618411 327.661518 
L 681.561577 329.932328 
L 681.561158 330.165117 
L 681.029082 327.702257 
L 683.466832 332.651424 
L 680.638697 328.900138 
L 685.664073 332.426281 
L 685.573971 332.442143 
L 685.717848 331.201188 
L 686.484161 333.812032 
L 687.554399 331.971551 
L 678.31791 334.957556 
L 674.305838 335.259237 
L 669.140371 337.804358 
L 662.242796 338.757158 
L 654.427287 341.451124 
L 646.915933 343.419946 
L 643.741426 343.108082 
L 637.991518 341.074024 
L 640.492981 341.685048 
L 633.858906 345.801969 
L 626.557386 347.292918 
L 628.563253 352.968033 
L 620.268564 356.654714 
L 617.79842 356.372471 
L 615.491657 358.99486 
L 611.261548 357.730477 
L 608.002996 357.142702 
L 602.360602 360.274697 
L 602.462518 359.301219 
L 595.907597 361.454296 
L 598.038257 367.293039 
L 594.851437 369.304805 
L 587.344833 374.328597 
L 584.615899 374.437398 
L 582.158621 379.791065 
L 579.42189 379.965979 
L 575.977959 383.815967 
L 570.268297 384.71923 
L 568.096928 387.851378 
L 563.501694 390.150978 
L 555.274646 391.551533 
L 550.713225 392.48907 
L 551.03976 397.593389 
L 548.596716 394.608083 
L 547.620742 397.994461 
L 542.193893 398.082507 
L 538.980631 399.246444 
L 536.961429 402.966791 
L 532.086267 398.890088 
L 531.18976 403.950506 
L 535.242729 406.898735 
L 535.012909 406.443719 
L 534.796564 407.181804 
L 536.737818 404.972526 
L 538.472624 406.43822 
L 540.487512 402.480498 
L 539.929347 401.417677 
L 543.77888 403.092151 
L 538.153032 399.617693 
L 532.868234 398.185139 
L 533.502754 401.46208 
L 532.029765 399.822453 
L 532.283218 402.425665 
L 526.13588 401.465762 
L 531.382968 407.256011 
L 527.696696 404.29068 
L 531.209409 407.107145 
L 525.92373 404.403413 
L 531.181972 406.704281 
L 526.452221 405.305921 
L 522.883609 406.13286 
L 526.767977 406.949997 
L 523.985696 409.782008 
L 521.172155 409.761422 
L 521.530873 411.238566 
L 519.812823 410.171022 
L 524.759733 410.592252 
L 523.698468 410.751238 
L 534.317041 415.128856 
L 552.027355 414.743853 
L 729.271643 452.385457 
L 924.230383 378.436717 
L 850.467224 379.119008 
L 809.955848 382.308855 
L 783.981122 383.385906 
L 781.476616 384.341588 
L 776.544264 387.380593 
L 773.116071 391.663998 
L 774.527821 392.262082 
L 767.483057 397.77146 
L 772.306303 400.729732 
L 772.08754 404.07797 
L 776.875634 409.519865 
L 773.84004 411.270009 
L 772.957822 413.410252 
L 771.24745 412.822386 
L 779.28631 415.171945 
L 781.129588 418.309627 
L 776.685605 417.445019 
L 772.268321 412.030943 
L 775.828131 414.797357 
L 769.605507 414.710605 
L 773.958649 414.145889 
L 772.251913 415.001788 
L 770.586482 415.199848 
L 775.314003 413.966985 
L 778.372955 417.978542 
L 781.546539 418.863139 
L 780.956119 415.308068 
L 778.888532 416.020482 
L 779.688457 414.367942 
L 778.854307 416.824344 
L 779.266833 417.181034 
L 777.020309 417.677697 
L 776.653002 415.463276 
L 780.022369 417.29117 
L 784.475506 417.917426 
L 785.716242 422.070917 
L 786.525662 422.009406 
L 780.718629 425.450781 
L 780.952218 427.893007 
L 782.684901 434.059974 
L 790.535387 438.016465 
L 780.565043 442.308541 
L 783.664549 447.106842 
L 787.338311 450.85249 
L 781.711676 454.188634 
L 787.802828 460.402099 
L 795.344964 469.225188 
L 793.168833 472.20033 
L 793.550435 477.561257 
L 801.720123 484.761902 
L 798.847543 491.418984 
L 799.165444 496.313943 
L 796.903383 503.256718 
L 808.255516 510.009485 
L 804.872685 511.932451 
L 799.171217 520.859638 
L 803.474715 524.927378 
L 802.491594 527.809931 
L 804.36562 538.905904 
L 803.649185 546.056479 
L 811.536285 556.463556 
L 809.502372 564.538837 
L 815.135005 572.953326 
L 812.474192 575.935557 
L 810.873063 581.493634 
L 817.038436 589.182126 
L 811.613291 589.454905 
L 812.888386 594.136277 
L 809.819259 601.531511 
L 807.530186 605.064379 
L 809.206079 611.672996 
L 806.332469 615.29476 
L 808.07441 621.803511 
L 811.279889 629.875895 
L 813.476169 632.330321 
L 809.521287 636.204539 
L 813.146902 641.673303 
L 819.345708 650.240957 
L 813.292709 653.485963 
L 819.945271 657.42155 
L 813.644019 671.267889 
L 817.905889 672.471053 
L 812.478074 680.369552 
L 809.750823 687.293819 
L 812.734535 708.876146 
L 812.734535 708.876146 
" clip-path="url(#p90da416d18)" style="fill: none; stroke: #ff0000; stroke-width: 2; stroke-linecap: square"/>
   </g>
   <g id="line2d_29">
    <path d="M 932.413975 729.358489 
L 940.928709 384.891908 
L 655.914028 505.468578 
L 271.751284 342.656321 
L 556.404293 237.278451 
L 940.928709 384.891908 
" clip-path="url(#p90da416d18)" style="fill: none; stroke-dasharray: 7.4,3.2; stroke-dashoffset: 0; stroke: #008000; stroke-width: 2"/>
   </g>
   <g id="Path3DCollection_1">
    <path d="M 551.932157 241.750587 
L 560.876428 232.806315 
M 551.932157 232.806315 
L 560.876428 241.750587 
" clip-path="url(#p90da416d18)" style="fill-opacity: 0.3; stroke: #000000; stroke-opacity: 0.3; stroke-width: 1.5"/>
    <path d="M 927.941839 733.830625 
L 936.88611 724.886353 
M 927.941839 724.886353 
L 936.88611 733.830625 
" clip-path="url(#p90da416d18)" style="fill-opacity: 0.500987; stroke: #000000; stroke-opacity: 0.500987; stroke-width: 1.5"/>
    <path d="M 267.279148 347.128457 
L 276.22342 338.184185 
M 267.279148 338.184185 
L 276.22342 347.128457 
" clip-path="url(#p90da416d18)" style="fill-opacity: 0.575046; stroke: #000000; stroke-opacity: 0.575046; stroke-width: 1.5"/>
    <path d="M 936.456573 389.364044 
L 945.400845 380.419772 
M 936.456573 380.419772 
L 945.400845 389.364044 
" clip-path="url(#p90da416d18)" style="fill-opacity: 0.685284; stroke: #000000; stroke-opacity: 0.685284; stroke-width: 1.5"/>
    <path d="M 651.441892 509.940714 
L 660.386164 500.996442 
M 651.441892 500.996442 
L 660.386164 509.940714 
" clip-path="url(#p90da416d18)" style="stroke: #000000; stroke-width: 1.5"/>
   </g>
   <g id="text_28">
    <!-- Takeoff / Landing -->
    <g transform="translate(932.854993 711.516932) scale(0.14 -0.14)">
     <defs>
      <path id="DejaVuSans-Bold-54" d="M 31 4666 
L 4331 4666 
L 4331 3756 
L 2784 3756 
L 2784 0 
L 1581 0 
L 1581 3756 
L 31 3756 
L 31 4666 
z
" transform="scale(0.015625)"/>
      <path id="DejaVuSans-Bold-61" d="M 2106 1575 
Q 1756 1575 1579 1456 
Q 1403 1338 1403 1106 
Q 1403 894 1545 773 
Q 1688 653 1941 653 
Q 2256 653 2472 879 
Q 2688 1106 2688 1447 
L 2688 1575 
L 2106 1575 
z
M 3816 1997 
L 3816 0 
L 2688 0 
L 2688 519 
Q 2463 200 2181 54 
Q 1900 -91 1497 -91 
Q 953 -91 614 226 
Q 275 544 275 1050 
Q 275 1666 698 1953 
Q 1122 2241 2028 2241 
L 2688 2241 
L 2688 2328 
Q 2688 2594 2478 2717 
Q 2269 2841 1825 2841 
Q 1466 2841 1156 2769 
Q 847 2697 581 2553 
L 581 3406 
Q 941 3494 1303 3539 
Q 1666 3584 2028 3584 
Q 2975 3584 3395 3211 
Q 3816 2838 3816 1997 
z
" transform="scale(0.015625)"/>
      <path id="DejaVuSans-Bold-6b" d="M 538 4863 
L 1656 4863 
L 1656 2216 
L 2944 3500 
L 4244 3500 
L 2534 1894 
L 4378 0 
L 3022 0 
L 1656 1459 
L 1656 0 
L 538 0 
L 538 4863 
z
" transform="scale(0.015625)"/>
      <path id="DejaVuSans-Bold-65" d="M 4031 1759 
L 4031 1441 
L 1416 1441 
Q 1456 1047 1700 850 
Q 1944 653 2381 653 
Q 2734 653 3104 758 
Q 3475 863 3866 1075 
L 3866 213 
Q 3469 63 3072 -14 
Q 2675 -91 2278 -91 
Q 1328 -91 801 392 
Q 275 875 275 1747 
Q 275 2603 792 3093 
Q 1309 3584 2216 3584 
Q 3041 3584 3536 3087 
Q 4031 2591 4031 1759 
z
M 2881 2131 
Q 2881 2450 2695 2645 
Q 2509 2841 2209 2841 
Q 1884 2841 1681 2658 
Q 1478 2475 1428 2131 
L 2881 2131 
z
" transform="scale(0.015625)"/>
      <path id="DejaVuSans-Bold-6f" d="M 2203 2784 
Q 1831 2784 1636 2517 
Q 1441 2250 1441 1747 
Q 1441 1244 1636 976 
Q 1831 709 2203 709 
Q 2569 709 2762 976 
Q 2956 1244 2956 1747 
Q 2956 2250 2762 2517 
Q 2569 2784 2203 2784 
z
M 2203 3584 
Q 3106 3584 3614 3096 
Q 4122 2609 4122 1747 
Q 4122 884 3614 396 
Q 3106 -91 2203 -91 
Q 1297 -91 786 396 
Q 275 884 275 1747 
Q 275 2609 786 3096 
Q 1297 3584 2203 3584 
z
" transform="scale(0.015625)"/>
      <path id="DejaVuSans-Bold-66" d="M 2841 4863 
L 2841 4128 
L 2222 4128 
Q 1984 4128 1890 4042 
Q 1797 3956 1797 3744 
L 1797 3500 
L 2753 3500 
L 2753 2700 
L 1797 2700 
L 1797 0 
L 678 0 
L 678 2700 
L 122 2700 
L 122 3500 
L 678 3500 
L 678 3744 
Q 678 4316 997 4589 
Q 1316 4863 1984 4863 
L 2841 4863 
z
" transform="scale(0.015625)"/>
      <path id="DejaVuSans-Bold-20" transform="scale(0.015625)"/>
      <path id="DejaVuSans-Bold-2f" d="M 1644 4666 
L 2338 4666 
L 691 -594 
L 0 -594 
L 1644 4666 
z
" transform="scale(0.015625)"/>
      <path id="DejaVuSans-Bold-4c" d="M 588 4666 
L 1791 4666 
L 1791 909 
L 3903 909 
L 3903 0 
L 588 0 
L 588 4666 
z
" transform="scale(0.015625)"/>
      <path id="DejaVuSans-Bold-6e" d="M 4056 2131 
L 4056 0 
L 2931 0 
L 2931 347 
L 2931 1631 
Q 2931 2084 2911 2256 
Q 2891 2428 2841 2509 
Q 2775 2619 2662 2680 
Q 2550 2741 2406 2741 
Q 2056 2741 1856 2470 
Q 1656 2200 1656 1722 
L 1656 0 
L 538 0 
L 538 3500 
L 1656 3500 
L 1656 2988 
Q 1909 3294 2193 3439 
Q 2478 3584 2822 3584 
Q 3428 3584 3742 3212 
Q 4056 2841 4056 2131 
z
" transform="scale(0.015625)"/>
      <path id="DejaVuSans-Bold-64" d="M 2919 2988 
L 2919 4863 
L 4044 4863 
L 4044 0 
L 2919 0 
L 2919 506 
Q 2688 197 2409 53 
Q 2131 -91 1766 -91 
Q 1119 -91 703 423 
Q 288 938 288 1747 
Q 288 2556 703 3070 
Q 1119 3584 1766 3584 
Q 2128 3584 2408 3439 
Q 2688 3294 2919 2988 
z
M 2181 722 
Q 2541 722 2730 984 
Q 2919 1247 2919 1747 
Q 2919 2247 2730 2509 
Q 2541 2772 2181 2772 
Q 1825 2772 1636 2509 
Q 1447 2247 1447 1747 
Q 1447 1247 1636 984 
Q 1825 722 2181 722 
z
" transform="scale(0.015625)"/>
      <path id="DejaVuSans-Bold-69" d="M 538 3500 
L 1656 3500 
L 1656 0 
L 538 0 
L 538 3500 
z
M 538 4863 
L 1656 4863 
L 1656 3950 
L 538 3950 
L 538 4863 
z
" transform="scale(0.015625)"/>
      <path id="DejaVuSans-Bold-67" d="M 2919 594 
Q 2688 288 2409 144 
Q 2131 0 1766 0 
Q 1125 0 706 504 
Q 288 1009 288 1791 
Q 288 2575 706 3076 
Q 1125 3578 1766 3578 
Q 2131 3578 2409 3434 
Q 2688 3291 2919 2981 
L 2919 3500 
L 4044 3500 
L 4044 353 
Q 4044 -491 3511 -936 
Q 2978 -1381 1966 -1381 
Q 1638 -1381 1331 -1331 
Q 1025 -1281 716 -1178 
L 716 -306 
Q 1009 -475 1290 -558 
Q 1572 -641 1856 -641 
Q 2406 -641 2662 -400 
Q 2919 -159 2919 353 
L 2919 594 
z
M 2181 2772 
Q 1834 2772 1640 2515 
Q 1447 2259 1447 1791 
Q 1447 1309 1634 1061 
Q 1822 813 2181 813 
Q 2531 813 2725 1069 
Q 2919 1325 2919 1791 
Q 2919 2259 2725 2515 
Q 2531 2772 2181 2772 
z
" transform="scale(0.015625)"/>
     </defs>
     <use xlink:href="#DejaVuSans-Bold-54"/>
     <use xlink:href="#DejaVuSans-Bold-61" transform="translate(55.337891 0)"/>
     <use xlink:href="#DejaVuSans-Bold-6b" transform="translate(122.818359 0)"/>
     <use xlink:href="#DejaVuSans-Bold-65" transform="translate(186.697266 0)"/>
     <use xlink:href="#DejaVuSans-Bold-6f" transform="translate(254.519531 0)"/>
     <use xlink:href="#DejaVuSans-Bold-66" transform="translate(323.220703 0)"/>
     <use xlink:href="#DejaVuSans-Bold-66" transform="translate(366.726562 0)"/>
     <use xlink:href="#DejaVuSans-Bold-20" transform="translate(410.232422 0)"/>
     <use xlink:href="#DejaVuSans-Bold-2f" transform="translate(445.046875 0)"/>
     <use xlink:href="#DejaVuSans-Bold-20" transform="translate(481.570312 0)"/>
     <use xlink:href="#DejaVuSans-Bold-4c" transform="translate(516.384766 0)"/>
     <use xlink:href="#DejaVuSans-Bold-61" transform="translate(580.105469 0)"/>
     <use xlink:href="#DejaVuSans-Bold-6e" transform="translate(647.585938 0)"/>
     <use xlink:href="#DejaVuSans-Bold-64" transform="translate(718.777344 0)"/>
     <use xlink:href="#DejaVuSans-Bold-69" transform="translate(790.359375 0)"/>
     <use xlink:href="#DejaVuSans-Bold-6e" transform="translate(824.636719 0)"/>
     <use xlink:href="#DejaVuSans-Bold-67" transform="translate(895.828125 0)"/>
    </g>
   </g>
   <g id="text_29">
    <!-- Hover / Return-to-Home -->
    <g transform="translate(941.397863 365.91211) scale(0.14 -0.14)">
     <defs>
      <path id="DejaVuSans-Bold-48" d="M 588 4666 
L 1791 4666 
L 1791 2888 
L 3566 2888 
L 3566 4666 
L 4769 4666 
L 4769 0 
L 3566 0 
L 3566 1978 
L 1791 1978 
L 1791 0 
L 588 0 
L 588 4666 
z
" transform="scale(0.015625)"/>
      <path id="DejaVuSans-Bold-76" d="M 97 3500 
L 1216 3500 
L 2088 1081 
L 2956 3500 
L 4078 3500 
L 2700 0 
L 1472 0 
L 97 3500 
z
" transform="scale(0.015625)"/>
      <path id="DejaVuSans-Bold-72" d="M 3138 2547 
Q 2991 2616 2845 2648 
Q 2700 2681 2553 2681 
Q 2122 2681 1889 2404 
Q 1656 2128 1656 1613 
L 1656 0 
L 538 0 
L 538 3500 
L 1656 3500 
L 1656 2925 
Q 1872 3269 2151 3426 
Q 2431 3584 2822 3584 
Q 2878 3584 2943 3579 
Q 3009 3575 3134 3559 
L 3138 2547 
z
" transform="scale(0.015625)"/>
      <path id="DejaVuSans-Bold-52" d="M 2297 2597 
Q 2675 2597 2839 2737 
Q 3003 2878 3003 3200 
Q 3003 3519 2839 3656 
Q 2675 3794 2297 3794 
L 1791 3794 
L 1791 2597 
L 2297 2597 
z
M 1791 1766 
L 1791 0 
L 588 0 
L 588 4666 
L 2425 4666 
Q 3347 4666 3776 4356 
Q 4206 4047 4206 3378 
Q 4206 2916 3982 2619 
Q 3759 2322 3309 2181 
Q 3556 2125 3751 1926 
Q 3947 1728 4147 1325 
L 4800 0 
L 3519 0 
L 2950 1159 
Q 2778 1509 2601 1637 
Q 2425 1766 2131 1766 
L 1791 1766 
z
" transform="scale(0.015625)"/>
      <path id="DejaVuSans-Bold-74" d="M 1759 4494 
L 1759 3500 
L 2913 3500 
L 2913 2700 
L 1759 2700 
L 1759 1216 
Q 1759 972 1856 886 
Q 1953 800 2241 800 
L 2816 800 
L 2816 0 
L 1856 0 
Q 1194 0 917 276 
Q 641 553 641 1216 
L 641 2700 
L 84 2700 
L 84 3500 
L 641 3500 
L 641 4494 
L 1759 4494 
z
" transform="scale(0.015625)"/>
      <path id="DejaVuSans-Bold-75" d="M 500 1363 
L 500 3500 
L 1625 3500 
L 1625 3150 
Q 1625 2866 1622 2436 
Q 1619 2006 1619 1863 
Q 1619 1441 1641 1255 
Q 1663 1069 1716 984 
Q 1784 875 1895 815 
Q 2006 756 2150 756 
Q 2500 756 2700 1025 
Q 2900 1294 2900 1772 
L 2900 3500 
L 4019 3500 
L 4019 0 
L 2900 0 
L 2900 506 
Q 2647 200 2364 54 
Q 2081 -91 1741 -91 
Q 1134 -91 817 281 
Q 500 653 500 1363 
z
" transform="scale(0.015625)"/>
      <path id="DejaVuSans-Bold-2d" d="M 347 2297 
L 2309 2297 
L 2309 1388 
L 347 1388 
L 347 2297 
z
" transform="scale(0.015625)"/>
      <path id="DejaVuSans-Bold-6d" d="M 3781 2919 
Q 3994 3244 4286 3414 
Q 4578 3584 4928 3584 
Q 5531 3584 5847 3212 
Q 6163 2841 6163 2131 
L 6163 0 
L 5038 0 
L 5038 1825 
Q 5041 1866 5042 1909 
Q 5044 1953 5044 2034 
Q 5044 2406 4934 2573 
Q 4825 2741 4581 2741 
Q 4263 2741 4089 2478 
Q 3916 2216 3909 1719 
L 3909 0 
L 2784 0 
L 2784 1825 
Q 2784 2406 2684 2573 
Q 2584 2741 2328 2741 
Q 2006 2741 1831 2477 
Q 1656 2213 1656 1722 
L 1656 0 
L 531 0 
L 531 3500 
L 1656 3500 
L 1656 2988 
Q 1863 3284 2130 3434 
Q 2397 3584 2719 3584 
Q 3081 3584 3359 3409 
Q 3638 3234 3781 2919 
z
" transform="scale(0.015625)"/>
     </defs>
     <use xlink:href="#DejaVuSans-Bold-48"/>
     <use xlink:href="#DejaVuSans-Bold-6f" transform="translate(83.691406 0)"/>
     <use xlink:href="#DejaVuSans-Bold-76" transform="translate(152.392578 0)"/>
     <use xlink:href="#DejaVuSans-Bold-65" transform="translate(217.578125 0)"/>
     <use xlink:href="#DejaVuSans-Bold-72" transform="translate(285.400391 0)"/>
     <use xlink:href="#DejaVuSans-Bold-20" transform="translate(334.716797 0)"/>
     <use xlink:href="#DejaVuSans-Bold-2f" transform="translate(369.53125 0)"/>
     <use xlink:href="#DejaVuSans-Bold-20" transform="translate(406.054688 0)"/>
     <use xlink:href="#DejaVuSans-Bold-52" transform="translate(440.869141 0)"/>
     <use xlink:href="#DejaVuSans-Bold-65" transform="translate(517.871094 0)"/>
     <use xlink:href="#DejaVuSans-Bold-74" transform="translate(585.693359 0)"/>
     <use xlink:href="#DejaVuSans-Bold-75" transform="translate(633.496094 0)"/>
     <use xlink:href="#DejaVuSans-Bold-72" transform="translate(704.6875 0)"/>
     <use xlink:href="#DejaVuSans-Bold-6e" transform="translate(754.003906 0)"/>
     <use xlink:href="#DejaVuSans-Bold-2d" transform="translate(825.195312 0)"/>
     <use xlink:href="#DejaVuSans-Bold-74" transform="translate(866.699219 0)"/>
     <use xlink:href="#DejaVuSans-Bold-6f" transform="translate(914.501953 0)"/>
     <use xlink:href="#DejaVuSans-Bold-2d" transform="translate(983.203125 0)"/>
     <use xlink:href="#DejaVuSans-Bold-48" transform="translate(1024.707031 0)"/>
     <use xlink:href="#DejaVuSans-Bold-6f" transform="translate(1108.398438 0)"/>
     <use xlink:href="#DejaVuSans-Bold-6d" transform="translate(1177.099609 0)"/>
     <use xlink:href="#DejaVuSans-Bold-65" transform="translate(1281.298828 0)"/>
    </g>
   </g>
   <g id="text_30">
    <!-- Coordinate 1 -->
    <g transform="translate(655.904946 485.713604) scale(0.14 -0.14)">
     <defs>
      <path id="DejaVuSans-Bold-43" d="M 4288 256 
Q 3956 84 3597 -3 
Q 3238 -91 2847 -91 
Q 1681 -91 1000 561 
Q 319 1213 319 2328 
Q 319 3447 1000 4098 
Q 1681 4750 2847 4750 
Q 3238 4750 3597 4662 
Q 3956 4575 4288 4403 
L 4288 3438 
Q 3953 3666 3628 3772 
Q 3303 3878 2944 3878 
Q 2300 3878 1931 3465 
Q 1563 3053 1563 2328 
Q 1563 1606 1931 1193 
Q 2300 781 2944 781 
Q 3303 781 3628 887 
Q 3953 994 4288 1222 
L 4288 256 
z
" transform="scale(0.015625)"/>
      <path id="DejaVuSans-Bold-31" d="M 750 831 
L 1813 831 
L 1813 3847 
L 722 3622 
L 722 4441 
L 1806 4666 
L 2950 4666 
L 2950 831 
L 4013 831 
L 4013 0 
L 750 0 
L 750 831 
z
" transform="scale(0.015625)"/>
     </defs>
     <use xlink:href="#DejaVuSans-Bold-43"/>
     <use xlink:href="#DejaVuSans-Bold-6f" transform="translate(73.388672 0)"/>
     <use xlink:href="#DejaVuSans-Bold-6f" transform="translate(142.089844 0)"/>
     <use xlink:href="#DejaVuSans-Bold-72" transform="translate(210.791016 0)"/>
     <use xlink:href="#DejaVuSans-Bold-64" transform="translate(260.107422 0)"/>
     <use xlink:href="#DejaVuSans-Bold-69" transform="translate(331.689453 0)"/>
     <use xlink:href="#DejaVuSans-Bold-6e" transform="translate(365.966797 0)"/>
     <use xlink:href="#DejaVuSans-Bold-61" transform="translate(437.158203 0)"/>
     <use xlink:href="#DejaVuSans-Bold-74" transform="translate(504.638672 0)"/>
     <use xlink:href="#DejaVuSans-Bold-65" transform="translate(552.441406 0)"/>
     <use xlink:href="#DejaVuSans-Bold-20" transform="translate(620.263672 0)"/>
     <use xlink:href="#DejaVuSans-Bold-31" transform="translate(655.078125 0)"/>
    </g>
   </g>
   <g id="text_31">
    <!-- Coordinate 2 -->
    <g transform="translate(271.110553 323.952987) scale(0.14 -0.14)">
     <defs>
      <path id="DejaVuSans-Bold-32" d="M 1844 884 
L 3897 884 
L 3897 0 
L 506 0 
L 506 884 
L 2209 2388 
Q 2438 2594 2547 2791 
Q 2656 2988 2656 3200 
Q 2656 3528 2436 3728 
Q 2216 3928 1850 3928 
Q 1569 3928 1234 3808 
Q 900 3688 519 3450 
L 519 4475 
Q 925 4609 1322 4679 
Q 1719 4750 2100 4750 
Q 2938 4750 3402 4381 
Q 3866 4013 3866 3353 
Q 3866 2972 3669 2642 
Q 3472 2313 2841 1759 
L 1844 884 
z
" transform="scale(0.015625)"/>
     </defs>
     <use xlink:href="#DejaVuSans-Bold-43"/>
     <use xlink:href="#DejaVuSans-Bold-6f" transform="translate(73.388672 0)"/>
     <use xlink:href="#DejaVuSans-Bold-6f" transform="translate(142.089844 0)"/>
     <use xlink:href="#DejaVuSans-Bold-72" transform="translate(210.791016 0)"/>
     <use xlink:href="#DejaVuSans-Bold-64" transform="translate(260.107422 0)"/>
     <use xlink:href="#DejaVuSans-Bold-69" transform="translate(331.689453 0)"/>
     <use xlink:href="#DejaVuSans-Bold-6e" transform="translate(365.966797 0)"/>
     <use xlink:href="#DejaVuSans-Bold-61" transform="translate(437.158203 0)"/>
     <use xlink:href="#DejaVuSans-Bold-74" transform="translate(504.638672 0)"/>
     <use xlink:href="#DejaVuSans-Bold-65" transform="translate(552.441406 0)"/>
     <use xlink:href="#DejaVuSans-Bold-20" transform="translate(620.263672 0)"/>
     <use xlink:href="#DejaVuSans-Bold-32" transform="translate(655.078125 0)"/>
    </g>
   </g>
   <g id="text_32">
    <!-- Coordinate 3 -->
    <g transform="translate(556.240022 219.276053) scale(0.14 -0.14)">
     <defs>
      <path id="DejaVuSans-Bold-33" d="M 2981 2516 
Q 3453 2394 3698 2092 
Q 3944 1791 3944 1325 
Q 3944 631 3412 270 
Q 2881 -91 1863 -91 
Q 1503 -91 1142 -33 
Q 781 25 428 141 
L 428 1069 
Q 766 900 1098 814 
Q 1431 728 1753 728 
Q 2231 728 2486 893 
Q 2741 1059 2741 1369 
Q 2741 1688 2480 1852 
Q 2219 2016 1709 2016 
L 1228 2016 
L 1228 2791 
L 1734 2791 
Q 2188 2791 2409 2933 
Q 2631 3075 2631 3366 
Q 2631 3634 2415 3781 
Q 2200 3928 1806 3928 
Q 1516 3928 1219 3862 
Q 922 3797 628 3669 
L 628 4550 
Q 984 4650 1334 4700 
Q 1684 4750 2022 4750 
Q 2931 4750 3382 4451 
Q 3834 4153 3834 3553 
Q 3834 3144 3618 2883 
Q 3403 2622 2981 2516 
z
" transform="scale(0.015625)"/>
     </defs>
     <use xlink:href="#DejaVuSans-Bold-43"/>
     <use xlink:href="#DejaVuSans-Bold-6f" transform="translate(73.388672 0)"/>
     <use xlink:href="#DejaVuSans-Bold-6f" transform="translate(142.089844 0)"/>
     <use xlink:href="#DejaVuSans-Bold-72" transform="translate(210.791016 0)"/>
     <use xlink:href="#DejaVuSans-Bold-64" transform="translate(260.107422 0)"/>
     <use xlink:href="#DejaVuSans-Bold-69" transform="translate(331.689453 0)"/>
     <use xlink:href="#DejaVuSans-Bold-6e" transform="translate(365.966797 0)"/>
     <use xlink:href="#DejaVuSans-Bold-61" transform="translate(437.158203 0)"/>
     <use xlink:href="#DejaVuSans-Bold-74" transform="translate(504.638672 0)"/>
     <use xlink:href="#DejaVuSans-Bold-65" transform="translate(552.441406 0)"/>
     <use xlink:href="#DejaVuSans-Bold-20" transform="translate(620.263672 0)"/>
     <use xlink:href="#DejaVuSans-Bold-33" transform="translate(655.078125 0)"/>
    </g>
   </g>
   <g id="text_33">
    <!-- 3D Visualization: Multi-Ranger Flight Path vs. Ideal -->
    <g transform="translate(421.153594 24.48) scale(0.18 -0.18)">
     <defs>
      <path id="DejaVuSans-33" d="M 2597 2516 
Q 3050 2419 3304 2112 
Q 3559 1806 3559 1356 
Q 3559 666 3084 287 
Q 2609 -91 1734 -91 
Q 1441 -91 1130 -33 
Q 819 25 488 141 
L 488 750 
Q 750 597 1062 519 
Q 1375 441 1716 441 
Q 2309 441 2620 675 
Q 2931 909 2931 1356 
Q 2931 1769 2642 2001 
Q 2353 2234 1838 2234 
L 1294 2234 
L 1294 2753 
L 1863 2753 
Q 2328 2753 2575 2939 
Q 2822 3125 2822 3475 
Q 2822 3834 2567 4026 
Q 2313 4219 1838 4219 
Q 1578 4219 1281 4162 
Q 984 4106 628 3988 
L 628 4550 
Q 988 4650 1302 4700 
Q 1616 4750 1894 4750 
Q 2613 4750 3031 4423 
Q 3450 4097 3450 3541 
Q 3450 3153 3228 2886 
Q 3006 2619 2597 2516 
z
" transform="scale(0.015625)"/>
      <path id="DejaVuSans-44" d="M 1259 4147 
L 1259 519 
L 2022 519 
Q 2988 519 3436 956 
Q 3884 1394 3884 2338 
Q 3884 3275 3436 3711 
Q 2988 4147 2022 4147 
L 1259 4147 
z
M 628 4666 
L 1925 4666 
Q 3281 4666 3915 4102 
Q 4550 3538 4550 2338 
Q 4550 1131 3912 565 
Q 3275 0 1925 0 
L 628 0 
L 628 4666 
z
" transform="scale(0.015625)"/>
      <path id="DejaVuSans-56" d="M 1831 0 
L 50 4666 
L 709 4666 
L 2188 738 
L 3669 4666 
L 4325 4666 
L 2547 0 
L 1831 0 
z
" transform="scale(0.015625)"/>
      <path id="DejaVuSans-69" d="M 603 3500 
L 1178 3500 
L 1178 0 
L 603 0 
L 603 3500 
z
M 603 4863 
L 1178 4863 
L 1178 4134 
L 603 4134 
L 603 4863 
z
" transform="scale(0.015625)"/>
      <path id="DejaVuSans-73" d="M 2834 3397 
L 2834 2853 
Q 2591 2978 2328 3040 
Q 2066 3103 1784 3103 
Q 1356 3103 1142 2972 
Q 928 2841 928 2578 
Q 928 2378 1081 2264 
Q 1234 2150 1697 2047 
L 1894 2003 
Q 2506 1872 2764 1633 
Q 3022 1394 3022 966 
Q 3022 478 2636 193 
Q 2250 -91 1575 -91 
Q 1294 -91 989 -36 
Q 684 19 347 128 
L 347 722 
Q 666 556 975 473 
Q 1284 391 1588 391 
Q 1994 391 2212 530 
Q 2431 669 2431 922 
Q 2431 1156 2273 1281 
Q 2116 1406 1581 1522 
L 1381 1569 
Q 847 1681 609 1914 
Q 372 2147 372 2553 
Q 372 3047 722 3315 
Q 1072 3584 1716 3584 
Q 2034 3584 2315 3537 
Q 2597 3491 2834 3397 
z
" transform="scale(0.015625)"/>
      <path id="DejaVuSans-75" d="M 544 1381 
L 544 3500 
L 1119 3500 
L 1119 1403 
Q 1119 906 1312 657 
Q 1506 409 1894 409 
Q 2359 409 2629 706 
Q 2900 1003 2900 1516 
L 2900 3500 
L 3475 3500 
L 3475 0 
L 2900 0 
L 2900 538 
Q 2691 219 2414 64 
Q 2138 -91 1772 -91 
Q 1169 -91 856 284 
Q 544 659 544 1381 
z
M 1991 3584 
L 1991 3584 
z
" transform="scale(0.015625)"/>
      <path id="DejaVuSans-61" d="M 2194 1759 
Q 1497 1759 1228 1600 
Q 959 1441 959 1056 
Q 959 750 1161 570 
Q 1363 391 1709 391 
Q 2188 391 2477 730 
Q 2766 1069 2766 1631 
L 2766 1759 
L 2194 1759 
z
M 3341 1997 
L 3341 0 
L 2766 0 
L 2766 531 
Q 2569 213 2275 61 
Q 1981 -91 1556 -91 
Q 1019 -91 701 211 
Q 384 513 384 1019 
Q 384 1609 779 1909 
Q 1175 2209 1959 2209 
L 2766 2209 
L 2766 2266 
Q 2766 2663 2505 2880 
Q 2244 3097 1772 3097 
Q 1472 3097 1187 3025 
Q 903 2953 641 2809 
L 641 3341 
Q 956 3463 1253 3523 
Q 1550 3584 1831 3584 
Q 2591 3584 2966 3190 
Q 3341 2797 3341 1997 
z
" transform="scale(0.015625)"/>
      <path id="DejaVuSans-6c" d="M 603 4863 
L 1178 4863 
L 1178 0 
L 603 0 
L 603 4863 
z
" transform="scale(0.015625)"/>
      <path id="DejaVuSans-7a" d="M 353 3500 
L 3084 3500 
L 3084 2975 
L 922 459 
L 3084 459 
L 3084 0 
L 275 0 
L 275 525 
L 2438 3041 
L 353 3041 
L 353 3500 
z
" transform="scale(0.015625)"/>
      <path id="DejaVuSans-74" d="M 1172 4494 
L 1172 3500 
L 2356 3500 
L 2356 3053 
L 1172 3053 
L 1172 1153 
Q 1172 725 1289 603 
Q 1406 481 1766 481 
L 2356 481 
L 2356 0 
L 1766 0 
Q 1100 0 847 248 
Q 594 497 594 1153 
L 594 3053 
L 172 3053 
L 172 3500 
L 594 3500 
L 594 4494 
L 1172 4494 
z
" transform="scale(0.015625)"/>
      <path id="DejaVuSans-6f" d="M 1959 3097 
Q 1497 3097 1228 2736 
Q 959 2375 959 1747 
Q 959 1119 1226 758 
Q 1494 397 1959 397 
Q 2419 397 2687 759 
Q 2956 1122 2956 1747 
Q 2956 2369 2687 2733 
Q 2419 3097 1959 3097 
z
M 1959 3584 
Q 2709 3584 3137 3096 
Q 3566 2609 3566 1747 
Q 3566 888 3137 398 
Q 2709 -91 1959 -91 
Q 1206 -91 779 398 
Q 353 888 353 1747 
Q 353 2609 779 3096 
Q 1206 3584 1959 3584 
z
" transform="scale(0.015625)"/>
      <path id="DejaVuSans-6e" d="M 3513 2113 
L 3513 0 
L 2938 0 
L 2938 2094 
Q 2938 2591 2744 2837 
Q 2550 3084 2163 3084 
Q 1697 3084 1428 2787 
Q 1159 2491 1159 1978 
L 1159 0 
L 581 0 
L 581 3500 
L 1159 3500 
L 1159 2956 
Q 1366 3272 1645 3428 
Q 1925 3584 2291 3584 
Q 2894 3584 3203 3211 
Q 3513 2838 3513 2113 
z
" transform="scale(0.015625)"/>
      <path id="DejaVuSans-3a" d="M 750 794 
L 1409 794 
L 1409 0 
L 750 0 
L 750 794 
z
M 750 3309 
L 1409 3309 
L 1409 2516 
L 750 2516 
L 750 3309 
z
" transform="scale(0.015625)"/>
      <path id="DejaVuSans-4d" d="M 628 4666 
L 1569 4666 
L 2759 1491 
L 3956 4666 
L 4897 4666 
L 4897 0 
L 4281 0 
L 4281 4097 
L 3078 897 
L 2444 897 
L 1241 4097 
L 1241 0 
L 628 0 
L 628 4666 
z
" transform="scale(0.015625)"/>
      <path id="DejaVuSans-2d" d="M 313 2009 
L 1997 2009 
L 1997 1497 
L 313 1497 
L 313 2009 
z
" transform="scale(0.015625)"/>
      <path id="DejaVuSans-52" d="M 2841 2188 
Q 3044 2119 3236 1894 
Q 3428 1669 3622 1275 
L 4263 0 
L 3584 0 
L 2988 1197 
Q 2756 1666 2539 1819 
Q 2322 1972 1947 1972 
L 1259 1972 
L 1259 0 
L 628 0 
L 628 4666 
L 2053 4666 
Q 2853 4666 3247 4331 
Q 3641 3997 3641 3322 
Q 3641 2881 3436 2590 
Q 3231 2300 2841 2188 
z
M 1259 4147 
L 1259 2491 
L 2053 2491 
Q 2509 2491 2742 2702 
Q 2975 2913 2975 3322 
Q 2975 3731 2742 3939 
Q 2509 4147 2053 4147 
L 1259 4147 
z
" transform="scale(0.015625)"/>
      <path id="DejaVuSans-67" d="M 2906 1791 
Q 2906 2416 2648 2759 
Q 2391 3103 1925 3103 
Q 1463 3103 1205 2759 
Q 947 2416 947 1791 
Q 947 1169 1205 825 
Q 1463 481 1925 481 
Q 2391 481 2648 825 
Q 2906 1169 2906 1791 
z
M 3481 434 
Q 3481 -459 3084 -895 
Q 2688 -1331 1869 -1331 
Q 1566 -1331 1297 -1286 
Q 1028 -1241 775 -1147 
L 775 -588 
Q 1028 -725 1275 -790 
Q 1522 -856 1778 -856 
Q 2344 -856 2625 -561 
Q 2906 -266 2906 331 
L 2906 616 
Q 2728 306 2450 153 
Q 2172 0 1784 0 
Q 1141 0 747 490 
Q 353 981 353 1791 
Q 353 2603 747 3093 
Q 1141 3584 1784 3584 
Q 2172 3584 2450 3431 
Q 2728 3278 2906 2969 
L 2906 3500 
L 3481 3500 
L 3481 434 
z
" transform="scale(0.015625)"/>
      <path id="DejaVuSans-65" d="M 3597 1894 
L 3597 1613 
L 953 1613 
Q 991 1019 1311 708 
Q 1631 397 2203 397 
Q 2534 397 2845 478 
Q 3156 559 3463 722 
L 3463 178 
Q 3153 47 2828 -22 
Q 2503 -91 2169 -91 
Q 1331 -91 842 396 
Q 353 884 353 1716 
Q 353 2575 817 3079 
Q 1281 3584 2069 3584 
Q 2775 3584 3186 3129 
Q 3597 2675 3597 1894 
z
M 3022 2063 
Q 3016 2534 2758 2815 
Q 2500 3097 2075 3097 
Q 1594 3097 1305 2825 
Q 1016 2553 972 2059 
L 3022 2063 
z
" transform="scale(0.015625)"/>
      <path id="DejaVuSans-72" d="M 2631 2963 
Q 2534 3019 2420 3045 
Q 2306 3072 2169 3072 
Q 1681 3072 1420 2755 
Q 1159 2438 1159 1844 
L 1159 0 
L 581 0 
L 581 3500 
L 1159 3500 
L 1159 2956 
Q 1341 3275 1631 3429 
Q 1922 3584 2338 3584 
Q 2397 3584 2469 3576 
Q 2541 3569 2628 3553 
L 2631 2963 
z
" transform="scale(0.015625)"/>
      <path id="DejaVuSans-46" d="M 628 4666 
L 3309 4666 
L 3309 4134 
L 1259 4134 
L 1259 2759 
L 3109 2759 
L 3109 2228 
L 1259 2228 
L 1259 0 
L 628 0 
L 628 4666 
z
" transform="scale(0.015625)"/>
      <path id="DejaVuSans-68" d="M 3513 2113 
L 3513 0 
L 2938 0 
L 2938 2094 
Q 2938 2591 2744 2837 
Q 2550 3084 2163 3084 
Q 1697 3084 1428 2787 
Q 1159 2491 1159 1978 
L 1159 0 
L 581 0 
L 581 4863 
L 1159 4863 
L 1159 2956 
Q 1366 3272 1645 3428 
Q 1925 3584 2291 3584 
Q 2894 3584 3203 3211 
Q 3513 2838 3513 2113 
z
" transform="scale(0.015625)"/>
      <path id="DejaVuSans-50" d="M 1259 4147 
L 1259 2394 
L 2053 2394 
Q 2494 2394 2734 2622 
Q 2975 2850 2975 3272 
Q 2975 3691 2734 3919 
Q 2494 4147 2053 4147 
L 1259 4147 
z
M 628 4666 
L 2053 4666 
Q 2838 4666 3239 4311 
Q 3641 3956 3641 3272 
Q 3641 2581 3239 2228 
Q 2838 1875 2053 1875 
L 1259 1875 
L 1259 0 
L 628 0 
L 628 4666 
z
" transform="scale(0.015625)"/>
      <path id="DejaVuSans-76" d="M 191 3500 
L 800 3500 
L 1894 563 
L 2988 3500 
L 3597 3500 
L 2284 0 
L 1503 0 
L 191 3500 
z
" transform="scale(0.015625)"/>
      <path id="DejaVuSans-49" d="M 628 4666 
L 1259 4666 
L 1259 0 
L 628 0 
L 628 4666 
z
" transform="scale(0.015625)"/>
      <path id="DejaVuSans-64" d="M 2906 2969 
L 2906 4863 
L 3481 4863 
L 3481 0 
L 2906 0 
L 2906 525 
Q 2725 213 2448 61 
Q 2172 -91 1784 -91 
Q 1150 -91 751 415 
Q 353 922 353 1747 
Q 353 2572 751 3078 
Q 1150 3584 1784 3584 
Q 2172 3584 2448 3432 
Q 2725 3281 2906 2969 
z
M 947 1747 
Q 947 1113 1208 752 
Q 1469 391 1925 391 
Q 2381 391 2643 752 
Q 2906 1113 2906 1747 
Q 2906 2381 2643 2742 
Q 2381 3103 1925 3103 
Q 1469 3103 1208 2742 
Q 947 2381 947 1747 
z
" transform="scale(0.015625)"/>
     </defs>
     <use xlink:href="#DejaVuSans-33"/>
     <use xlink:href="#DejaVuSans-44" transform="translate(63.623047 0)"/>
     <use xlink:href="#DejaVuSans-20" transform="translate(140.625 0)"/>
     <use xlink:href="#DejaVuSans-56" transform="translate(172.412109 0)"/>
     <use xlink:href="#DejaVuSans-69" transform="translate(238.570312 0)"/>
     <use xlink:href="#DejaVuSans-73" transform="translate(266.353516 0)"/>
     <use xlink:href="#DejaVuSans-75" transform="translate(318.453125 0)"/>
     <use xlink:href="#DejaVuSans-61" transform="translate(381.832031 0)"/>
     <use xlink:href="#DejaVuSans-6c" transform="translate(443.111328 0)"/>
     <use xlink:href="#DejaVuSans-69" transform="translate(470.894531 0)"/>
     <use xlink:href="#DejaVuSans-7a" transform="translate(498.677734 0)"/>
     <use xlink:href="#DejaVuSans-61" transform="translate(551.167969 0)"/>
     <use xlink:href="#DejaVuSans-74" transform="translate(612.447266 0)"/>
     <use xlink:href="#DejaVuSans-69" transform="translate(651.65625 0)"/>
     <use xlink:href="#DejaVuSans-6f" transform="translate(679.439453 0)"/>
     <use xlink:href="#DejaVuSans-6e" transform="translate(740.621094 0)"/>
     <use xlink:href="#DejaVuSans-3a" transform="translate(804 0)"/>
     <use xlink:href="#DejaVuSans-20" transform="translate(837.691406 0)"/>
     <use xlink:href="#DejaVuSans-4d" transform="translate(869.478516 0)"/>
     <use xlink:href="#DejaVuSans-75" transform="translate(955.757812 0)"/>
     <use xlink:href="#DejaVuSans-6c" transform="translate(1019.136719 0)"/>
     <use xlink:href="#DejaVuSans-74" transform="translate(1046.919922 0)"/>
     <use xlink:href="#DejaVuSans-69" transform="translate(1086.128906 0)"/>
     <use xlink:href="#DejaVuSans-2d" transform="translate(1113.912109 0)"/>
     <use xlink:href="#DejaVuSans-52" transform="translate(1149.996094 0)"/>
     <use xlink:href="#DejaVuSans-61" transform="translate(1217.228516 0)"/>
     <use xlink:href="#DejaVuSans-6e" transform="translate(1278.507812 0)"/>
     <use xlink:href="#DejaVuSans-67" transform="translate(1341.886719 0)"/>
     <use xlink:href="#DejaVuSans-65" transform="translate(1405.363281 0)"/>
     <use xlink:href="#DejaVuSans-72" transform="translate(1466.886719 0)"/>
     <use xlink:href="#DejaVuSans-20" transform="translate(1508 0)"/>
     <use xlink:href="#DejaVuSans-46" transform="translate(1539.787109 0)"/>
     <use xlink:href="#DejaVuSans-6c" transform="translate(1597.306641 0)"/>
     <use xlink:href="#DejaVuSans-69" transform="translate(1625.089844 0)"/>
     <use xlink:href="#DejaVuSans-67" transform="translate(1652.873047 0)"/>
     <use xlink:href="#DejaVuSans-68" transform="translate(1716.349609 0)"/>
     <use xlink:href="#DejaVuSans-74" transform="translate(1779.728516 0)"/>
     <use xlink:href="#DejaVuSans-20" transform="translate(1818.9375 0)"/>
     <use xlink:href="#DejaVuSans-50" transform="translate(1850.724609 0)"/>
     <use xlink:href="#DejaVuSans-61" transform="translate(1906.527344 0)"/>
     <use xlink:href="#DejaVuSans-74" transform="translate(1967.806641 0)"/>
     <use xlink:href="#DejaVuSans-68" transform="translate(2007.015625 0)"/>
     <use xlink:href="#DejaVuSans-20" transform="translate(2070.394531 0)"/>
     <use xlink:href="#DejaVuSans-76" transform="translate(2102.181641 0)"/>
     <use xlink:href="#DejaVuSans-73" transform="translate(2161.361328 0)"/>
     <use xlink:href="#DejaVuSans-2e" transform="translate(2213.460938 0)"/>
     <use xlink:href="#DejaVuSans-20" transform="translate(2245.248047 0)"/>
     <use xlink:href="#DejaVuSans-49" transform="translate(2277.035156 0)"/>
     <use xlink:href="#DejaVuSans-64" transform="translate(2306.527344 0)"/>
     <use xlink:href="#DejaVuSans-65" transform="translate(2370.003906 0)"/>
     <use xlink:href="#DejaVuSans-61" transform="translate(2431.527344 0)"/>
     <use xlink:href="#DejaVuSans-6c" transform="translate(2492.806641 0)"/>
    </g>
   </g>
   <g id="legend_1">
    <g id="patch_6">
     <path d="M 940.455 75.3075 
L 1122.96 75.3075 
Q 1125.36 75.3075 1125.36 72.9075 
L 1125.36 38.88 
Q 1125.36 36.48 1122.96 36.48 
L 940.455 36.48 
Q 938.055 36.48 938.055 38.88 
L 938.055 72.9075 
Q 938.055 75.3075 940.455 75.3075 
z
" style="fill: #ffffff; opacity: 0.8; stroke: #cccccc; stroke-linejoin: miter"/>
    </g>
    <g id="line2d_30">
     <path d="M 942.855 46.198125 
L 954.855 46.198125 
L 966.855 46.198125 
" style="fill: none; stroke: #ff0000; stroke-width: 2; stroke-linecap: square"/>
    </g>
    <g id="text_34">
     <!-- Multi-Ranger Flight Path -->
     <g transform="translate(976.455 50.398125) scale(0.12 -0.12)">
      <use xlink:href="#DejaVuSans-4d"/>
      <use xlink:href="#DejaVuSans-75" transform="translate(86.279297 0)"/>
      <use xlink:href="#DejaVuSans-6c" transform="translate(149.658203 0)"/>
      <use xlink:href="#DejaVuSans-74" transform="translate(177.441406 0)"/>
      <use xlink:href="#DejaVuSans-69" transform="translate(216.650391 0)"/>
      <use xlink:href="#DejaVuSans-2d" transform="translate(244.433594 0)"/>
      <use xlink:href="#DejaVuSans-52" transform="translate(280.517578 0)"/>
      <use xlink:href="#DejaVuSans-61" transform="translate(347.75 0)"/>
      <use xlink:href="#DejaVuSans-6e" transform="translate(409.029297 0)"/>
      <use xlink:href="#DejaVuSans-67" transform="translate(472.408203 0)"/>
      <use xlink:href="#DejaVuSans-65" transform="translate(535.884766 0)"/>
      <use xlink:href="#DejaVuSans-72" transform="translate(597.408203 0)"/>
      <use xlink:href="#DejaVuSans-20" transform="translate(638.521484 0)"/>
      <use xlink:href="#DejaVuSans-46" transform="translate(670.308594 0)"/>
      <use xlink:href="#DejaVuSans-6c" transform="translate(727.828125 0)"/>
      <use xlink:href="#DejaVuSans-69" transform="translate(755.611328 0)"/>
      <use xlink:href="#DejaVuSans-67" transform="translate(783.394531 0)"/>
      <use xlink:href="#DejaVuSans-68" transform="translate(846.871094 0)"/>
      <use xlink:href="#DejaVuSans-74" transform="translate(910.25 0)"/>
      <use xlink:href="#DejaVuSans-20" transform="translate(949.458984 0)"/>
      <use xlink:href="#DejaVuSans-50" transform="translate(981.246094 0)"/>
      <use xlink:href="#DejaVuSans-61" transform="translate(1037.048828 0)"/>
      <use xlink:href="#DejaVuSans-74" transform="translate(1098.328125 0)"/>
      <use xlink:href="#DejaVuSans-68" transform="translate(1137.537109 0)"/>
     </g>
    </g>
    <g id="line2d_31">
     <path d="M 942.855 63.811875 
L 954.855 63.811875 
L 966.855 63.811875 
" style="fill: none; stroke-dasharray: 7.4,3.2; stroke-dashoffset: 0; stroke: #008000; stroke-width: 2"/>
    </g>
    <g id="text_35">
     <!-- Ideal Waypoints Path -->
     <g transform="translate(976.455 68.011875) scale(0.12 -0.12)">
      <defs>
       <path id="DejaVuSans-57" d="M 213 4666 
L 850 4666 
L 1831 722 
L 2809 4666 
L 3519 4666 
L 4500 722 
L 5478 4666 
L 6119 4666 
L 4947 0 
L 4153 0 
L 3169 4050 
L 2175 0 
L 1381 0 
L 213 4666 
z
" transform="scale(0.015625)"/>
       <path id="DejaVuSans-79" d="M 2059 -325 
Q 1816 -950 1584 -1140 
Q 1353 -1331 966 -1331 
L 506 -1331 
L 506 -850 
L 844 -850 
Q 1081 -850 1212 -737 
Q 1344 -625 1503 -206 
L 1606 56 
L 191 3500 
L 800 3500 
L 1894 763 
L 2988 3500 
L 3597 3500 
L 2059 -325 
z
" transform="scale(0.015625)"/>
       <path id="DejaVuSans-70" d="M 1159 525 
L 1159 -1331 
L 581 -1331 
L 581 3500 
L 1159 3500 
L 1159 2969 
Q 1341 3281 1617 3432 
Q 1894 3584 2278 3584 
Q 2916 3584 3314 3078 
Q 3713 2572 3713 1747 
Q 3713 922 3314 415 
Q 2916 -91 2278 -91 
Q 1894 -91 1617 61 
Q 1341 213 1159 525 
z
M 3116 1747 
Q 3116 2381 2855 2742 
Q 2594 3103 2138 3103 
Q 1681 3103 1420 2742 
Q 1159 2381 1159 1747 
Q 1159 1113 1420 752 
Q 1681 391 2138 391 
Q 2594 391 2855 752 
Q 3116 1113 3116 1747 
z
" transform="scale(0.015625)"/>
      </defs>
      <use xlink:href="#DejaVuSans-49"/>
      <use xlink:href="#DejaVuSans-64" transform="translate(29.492188 0)"/>
      <use xlink:href="#DejaVuSans-65" transform="translate(92.96875 0)"/>
      <use xlink:href="#DejaVuSans-61" transform="translate(154.492188 0)"/>
      <use xlink:href="#DejaVuSans-6c" transform="translate(215.771484 0)"/>
      <use xlink:href="#DejaVuSans-20" transform="translate(243.554688 0)"/>
      <use xlink:href="#DejaVuSans-57" transform="translate(275.341797 0)"/>
      <use xlink:href="#DejaVuSans-61" transform="translate(367.84375 0)"/>
      <use xlink:href="#DejaVuSans-79" transform="translate(429.123047 0)"/>
      <use xlink:href="#DejaVuSans-70" transform="translate(488.302734 0)"/>
      <use xlink:href="#DejaVuSans-6f" transform="translate(551.779297 0)"/>
      <use xlink:href="#DejaVuSans-69" transform="translate(612.960938 0)"/>
      <use xlink:href="#DejaVuSans-6e" transform="translate(640.744141 0)"/>
      <use xlink:href="#DejaVuSans-74" transform="translate(704.123047 0)"/>
      <use xlink:href="#DejaVuSans-73" transform="translate(743.332031 0)"/>
      <use xlink:href="#DejaVuSans-20" transform="translate(795.431641 0)"/>
      <use xlink:href="#DejaVuSans-50" transform="translate(827.21875 0)"/>
      <use xlink:href="#DejaVuSans-61" transform="translate(883.021484 0)"/>
      <use xlink:href="#DejaVuSans-74" transform="translate(944.300781 0)"/>
      <use xlink:href="#DejaVuSans-68" transform="translate(983.509766 0)"/>
     </g>
    </g>
   </g>
  </g>
 </g>
 <defs>
  <clipPath id="p90da416d18">
   <rect x="164.64" y="30.48" width="966.72" height="966.72"/>
  </clipPath>
 </defs>
</svg>
